<?xml version="1.0" encoding="UTF-8" standalone="no"?>
<svg
   version="1.1"
   width="100"
   height="100"
   viewBox="0 0 100 100"
   xml:space="preserve"
   id="svg218"
   sodipodi:docname="bush_residue.svg"
   inkscape:version="1.3 (0e150ed6c4, 2023-07-21)"
   xmlns:inkscape="http://www.inkscape.org/namespaces/inkscape"
   xmlns:sodipodi="http://sodipodi.sourceforge.net/DTD/sodipodi-0.dtd"
   xmlns="http://www.w3.org/2000/svg"
   xmlns:svg="http://www.w3.org/2000/svg"><sodipodi:namedview
   id="namedview220"
   pagecolor="#505050"
   bordercolor="#eeeeee"
   borderopacity="1"
   inkscape:showpageshadow="0"
   inkscape:pageopacity="0"
   inkscape:pagecheckerboard="true"
   inkscape:deskcolor="#505050"
   showgrid="false"
   inkscape:zoom="2.56"
   inkscape:cx="-81.445313"
   inkscape:cy="-15.039063"
   inkscape:window-width="1920"
   inkscape:window-height="1017"
   inkscape:window-x="-8"
   inkscape:window-y="-8"
   inkscape:window-maximized="1"
   inkscape:current-layer="svg218"
   showguides="true"
   inkscape:pageshadow="0" />&#10;<desc
   id="desc181">Created with Fabric.js 5.3.0</desc>&#10;<defs
   id="defs183" />&#10;&#10;<g
   id="g7419"
   transform="matrix(2.2107574,0,0,2.2107574,10817.634,4536.0183)"
   style="opacity:1"
   inkscape:export-filename="bush_residue_01.svg"
   inkscape:export-xdpi="96"
   inkscape:export-ydpi="96"><g
     id="g2121"><path
       id="path3140"
       style="fill:none;fill-opacity:0.92549;stroke:#5b3e25;stroke-width:3.5;stroke-linecap:round;stroke-dasharray:none;stroke-opacity:1"
       d="m -4872.5009,-2028.9908 8.3338,-7.6864 m -12.7462,-9.1266 4.4596,16.813 -4.1639,16.5319"
       sodipodi:nodetypes="ccccc" /></g></g><path
   style="fill:#68870e;fill-opacity:0.771784;stroke:#1f1000;stroke-width:0.148395;stroke-opacity:0"
   d="m 62.573103,47.752769 c -1.846207,-0.339608 -3.475996,-0.893166 -5.261952,-1.787215 -1.579167,-0.790532 -3.548355,-2.138836 -4.298302,-2.94304 l -0.359753,-0.385791 h 0.9748 c 3.284843,0 6.529411,-2.730482 6.87705,-5.7874 0.279407,-2.456961 -1.543159,-5.799725 -5.086062,-9.328341 l -1.692822,-1.685995 0.362382,-0.547598 c 1.623793,-2.453727 6.219388,-7.309248 9.071945,-9.585061 5.122259,-4.086627 9.975944,-6.2866851 11.794606,-5.346217 0.657393,0.339951 1.146296,0.884115 1.604106,1.785439 1.323996,2.606592 1.979825,6.541637 1.985393,11.912553 0.01267,12.278816 -3.925581,21.446994 -10.067694,23.437065 -1.467193,0.475376 -4.105917,0.592303 -5.903697,0.261601 z"
   id="path2" /><path
   style="fill:#4b660a;fill-opacity:0.692946;stroke:#1f1000;stroke-width:0.0524656;stroke-opacity:0"
   d="m 52.938586,42.704085 c -2.479553,-0.364198 -4.890317,-2.430075 -7.17978,-6.152648 -2.54895,-4.144476 -4.580266,-9.979326 -4.889918,-14.046063 -0.114603,-1.505027 0.09287,-2.525357 0.588038,-2.891915 0.596533,-0.441594 2.322511,-0.01418 4.584256,1.135236 4.35657,2.213993 9.267335,6.19771 11.967716,9.708455 1.386688,1.802824 2.259797,3.559051 2.524251,5.077431 0.110686,0.635525 0.07417,1.571058 -0.08544,2.189052 -0.449265,1.739541 -1.834361,3.353415 -3.668309,4.274198 -1.218524,0.611803 -2.668571,0.87843 -3.840818,0.706254 z"
   id="path6" /><path
   style="fill:#4b660a;fill-opacity:0.692946;stroke:#1f1000;stroke-width:0.0481899;stroke-opacity:0"
   d="m 60.076816,39.963952 c 0.712707,-2.188814 2.955531,-4.05253 6.679647,-5.550555 4.146191,-1.667808 9.742951,-2.605867 13.472917,-2.258163 1.380389,0.128678 2.272179,0.474113 2.527597,0.979062 0.307705,0.60832 -0.345858,2.105056 -1.735877,3.97539 -2.677448,3.602627 -7.042846,7.433713 -10.63863,9.336509 -1.846489,0.977118 -3.571476,1.496418 -4.987099,1.501356 -0.592514,0.0022 -1.433943,-0.175477 -1.968833,-0.415436 -1.50565,-0.675437 -2.752972,-2.178792 -3.303445,-3.98151 -0.365741,-1.197779 -0.383213,-2.551868 -0.04627,-3.586653 z"
   id="path6-0" /><path
   style="fill:#68870e;fill-opacity:0.771784;stroke:#1f1000;stroke-width:0.148395;stroke-opacity:0"
   d="m 36.464381,70.867024 c -1.211656,1.433773 -2.501532,2.573448 -4.164498,3.67957 -1.470419,0.978047 -3.61866,2.017609 -4.689126,2.269137 l -0.513517,0.120654 0.48412,-0.846087 c 1.631367,-2.851112 0.872783,-7.023318 -1.607848,-8.843226 -1.99378,-1.462726 -5.800314,-1.540945 -10.622539,-0.218281 l -2.30409,0.631978 -0.295322,-0.586489 C 11.428257,64.446287 9.4961927,58.046076 8.9375574,54.439924 7.9344214,47.964449 8.4353679,42.659021 10.154867,41.547565 c 0.621548,-0.40176 1.336666,-0.555857 2.346344,-0.505589 2.919959,0.145349 6.661127,1.530396 11.32563,4.192946 10.66381,6.087089 16.665547,14.058567 15.342462,20.378011 -0.316052,1.509553 -1.525046,3.857929 -2.704922,5.254091 z"
   id="path2-7" /><path
   style="fill:#4b660a;fill-opacity:0.692946;stroke:#1f1000;stroke-width:0.0524656;stroke-opacity:0"
   d="m 27.297492,76.722045 c -1.547541,1.971279 -4.537908,3.037739 -8.905978,3.176142 C 13.528379,80.052282 7.4551424,78.917594 3.7715947,77.166677 2.4083761,76.518699 1.6258091,75.831889 1.5535692,75.220058 1.4665422,74.482981 2.694701,73.19717 4.8156087,71.804906 8.900889,69.123125 14.797451,66.83923 19.185739,66.238966 c 2.253456,-0.308244 4.211406,-0.193864 5.660636,0.33068 0.606581,0.219553 1.40045,0.715866 1.857576,1.161318 1.286731,1.25386 1.999622,3.257574 1.888023,5.306659 -0.07414,1.361473 -0.562864,2.752471 -1.294484,3.684426 z"
   id="path6-1" /><path
   style="fill:#4b660a;fill-opacity:0.692946;stroke:#1f1000;stroke-width:0.0481899;stroke-opacity:0"
   d="m 28.46426,69.165504 c -1.545848,-1.705642 -2.049614,-4.577908 -1.500314,-8.554262 0.611552,-4.427018 2.5769,-9.750653 4.731123,-12.815431 0.797237,-1.134216 1.539954,-1.736699 2.105079,-1.707616 0.680814,0.03504 1.655339,1.345635 2.588381,3.480988 1.797222,4.113106 2.954442,9.804746 2.820201,13.870736 -0.06893,2.087948 -0.474888,3.84307 -1.173649,5.074226 -0.292354,0.515371 -0.864453,1.157457 -1.338373,1.502548 -1.33401,0.971398 -3.258325,1.307405 -5.096395,0.889901 -1.221264,-0.27741 -2.405236,-0.934733 -3.13605,-1.741096 z"
   id="path6-0-4" /><path
   style="fill:#68870e;fill-opacity:0.771784;stroke:#1f1000;stroke-width:0.148395;stroke-opacity:0"
   d="m 51.030534,74.088532 c 0.252419,-1.860134 0.728729,-3.51415 1.53781,-5.34017 0.715402,-1.614592 1.969619,-3.645003 2.73767,-4.431935 l 0.368448,-0.377496 0.04584,0.973722 c 0.15446,3.28121 3.034489,6.393796 6.104371,6.597309 2.467382,0.163566 5.720748,-1.814167 9.078866,-5.519074 l 1.60453,-1.770228 0.564033,0.336231 c 2.527367,1.506618 7.59361,5.868814 10.001039,8.611202 4.322966,4.924432 6.74882,9.669297 5.894909,11.53017 -0.308663,0.672652 -0.829236,1.186601 -1.708036,1.686287 -2.541452,1.445098 -6.441306,2.285235 -11.806018,2.543348 -12.264639,0.59003 -21.60786,-2.912758 -23.884544,-8.9545 -0.54384,-1.443217 -0.784716,-4.073524 -0.538914,-5.884866 z"
   id="path2-7-2" /><path
   style="fill:#4b660a;fill-opacity:0.692946;stroke:#1f1000;stroke-width:0.0524656;stroke-opacity:0"
   d="m 55.620599,64.227273 c 0.247201,-2.493935 2.197434,-4.999175 5.808234,-7.461148 4.020035,-2.741012 9.752915,-5.044448 13.800592,-5.544983 1.497974,-0.185245 2.526931,-0.02598 2.916368,0.451404 0.469158,0.575107 0.123373,2.319275 -0.91842,4.632567 -2.00669,4.455857 -5.755086,9.548513 -9.13497,12.410989 -1.735625,1.469926 -3.448854,2.42465 -4.953119,2.76021 -0.629618,0.140447 -1.565833,0.147961 -2.190648,0.01759 -1.758743,-0.366971 -3.435962,-1.674648 -4.441962,-3.463269 -0.668425,-1.188408 -1.00294,-2.624314 -0.886076,-3.803361 z"
   id="path6-1-6" /><path
   style="fill:#4b660a;fill-opacity:0.692946;stroke:#1f1000;stroke-width:0.0481899;stroke-opacity:0"
   d="m 58.693354,71.228761 c 2.219906,0.608996 4.187022,2.761703 5.858506,6.41126 1.860925,4.063181 3.061117,9.609642 2.889188,13.351831 -0.06363,1.384913 -0.366746,2.29196 -0.859126,2.570839 -0.59318,0.335966 -2.118991,-0.246492 -4.052617,-1.547027 -3.724541,-2.505083 -7.756659,-6.685508 -9.826431,-10.187841 -1.062864,-1.798499 -1.662701,-3.497161 -1.734199,-4.910985 -0.03006,-0.591756 0.107856,-1.440609 0.322398,-1.986191 0.603891,-1.535744 2.046932,-2.852377 3.821771,-3.487009 1.179257,-0.421658 2.531027,-0.502783 3.580511,-0.21487 z"
   id="path6-0-4-9" /><text
   xml:space="preserve"
   style="font-size:5.30129px;fill:#775426;stroke:#171717;stroke-width:0.441774;stroke-opacity:0"
   x="-66.787697"
   y="61.104607"
   id="text1"
   transform="rotate(-72.821677)"><tspan
     sodipodi:role="line"
     id="tspan1"
     x="-66.787697"
     y="61.104607"
     style="stroke-width:0.441774">god loves you</tspan></text></svg>
