<?xml version="1.0" encoding="UTF-8" standalone="no"?>
<svg
   version="1.1"
   width="64"
   height="64"
   viewBox="0 0 63.999999 64.000001"
   xml:space="preserve"
   id="svg218"
   sodipodi:docname="bush_particle_2.svg"
   inkscape:version="1.3 (0e150ed6c4, 2023-07-21)"
   xmlns:inkscape="http://www.inkscape.org/namespaces/inkscape"
   xmlns:sodipodi="http://sodipodi.sourceforge.net/DTD/sodipodi-0.dtd"
   xmlns="http://www.w3.org/2000/svg"
   xmlns:svg="http://www.w3.org/2000/svg"><sodipodi:namedview
   id="namedview220"
   pagecolor="#505050"
   bordercolor="#eeeeee"
   borderopacity="1"
   inkscape:showpageshadow="0"
   inkscape:pageopacity="0"
   inkscape:pagecheckerboard="true"
   inkscape:deskcolor="#505050"
   showgrid="false"
   inkscape:zoom="1.4142135"
   inkscape:cx="-95.105866"
   inkscape:cy="-15.909903"
   inkscape:window-width="1920"
   inkscape:window-height="1017"
   inkscape:window-x="-8"
   inkscape:window-y="-8"
   inkscape:window-maximized="1"
   inkscape:current-layer="svg218"
   showguides="true"
   inkscape:pageshadow="0" />&#10;<desc
   id="desc181">Created with Fabric.js 5.3.0</desc>&#10;<defs
   id="defs183" />&#10;&#10;<path
   style="fill:#76950a;fill-opacity:0.755187;stroke:#ffffff;stroke-width:0.125;stroke-opacity:0"
   d="m -176.24652,12.876701 c -2.59462,-0.46947 -5.06972,-2.62502 -5.96276,-5.1929501 -0.43244,-1.243485 -0.51769,-2.872125 -0.24161,-4.615805 0.30155,-1.9046 0.6167,-3.06317999 0.83212,-3.05912999 0.0987,0.002 0.72207,0.0503 1.38517,0.10763 0.73216,0.0633 2.4503,0.0468 4.375,-0.0422 l 3.16937,-0.14645 0.3125,0.41382 c 0.17187,0.22759 0.71784,0.82321999 1.21325,1.32360999 1.01978,1.03002 2.24679,1.70362 3.41175,1.87299 l 0.6875,0.0999 -0.0311,1.24614 c -0.0656,2.625415 0.33988,4.720685 1.14505,5.9171651 l 0.4222,0.62739 -0.33056,0.0669 c -0.18181,0.0368 -1.62431,0.34637 -3.20556,0.68794 -4.22739,0.91315 -5.36093,1.02252 -7.18229,0.69297 z"
   id="path1" /><path
   style="fill:#76950a;fill-opacity:0.755187;stroke:#ffffff;stroke-width:0.125;stroke-opacity:0"
   d="m -141.31423,32.513641 c -2.84194,-0.56031 -4.76615,-2.03939 -6.01311,-4.62204 -0.22939,-0.47512 -0.64838,-1.55793 -0.93109,-2.40626 -0.2827,-0.84832 -0.57966,-1.54359 -0.6599,-1.54504 -0.0802,-0.001 0.23243,-0.13616 0.69483,-0.29937 1.05037,-0.37072 1.9904,-0.88594 4.32232,-2.36902 1.01032,-0.64255 2.15264,-1.34606 2.53849,-1.56335 l 0.70155,-0.39507 0.67345,0.31263 c 1.59241,0.7392 3.79174,0.88451 5.20175,0.34367 l 0.65328,-0.25058 0.58455,1.08061 c 1.32675,2.4527 2.3032,3.67852 3.61964,4.54403 l 0.80037,0.52621 -0.65217,0.56769 c -0.3587,0.31223 -1.38495,1.23673 -2.28057,2.05446 -3.38777,3.09313 -4.98711,3.97862 -7.47091,4.13633 -0.51671,0.0328 -1.28426,-0.0167 -1.78248,-0.1149 z"
   id="path3" /><path
   style="fill:#76950a;fill-opacity:0.755187;stroke:#ffffff;stroke-width:0.125;stroke-opacity:0"
   d="m -101.31176,32.567171 c -1.71707,-0.30818 -3.67471,-1.41677 -5.72486,-3.24191 l -1.04486,-0.93019 0.6562,-0.91461 c 0.36091,-0.50303 1.36849,-2.32039 2.23906,-4.03856 l 1.58286,-3.12395 h 0.65582 c 0.86311,0 2.42903,-0.40775 3.229866,-0.84102 0.35223,-0.19057 0.96024,-0.64179 1.35114,-1.00273 0.3909,-0.36094 0.74363,-0.65625 0.78386,-0.65625 0.0402,0 0.47296,0.25863 0.96161,0.57473 1.99616,1.29132 4.29256,2.16717 5.69753,2.1731 l 0.51569,0.002 -0.414,1.34375 c -0.22771,0.73906 -0.64611,2.13125 -0.9298,3.09375 -1.13995,3.86765 -2.43623,5.7225 -4.75289,6.80094 -1.50101,0.69873 -3.44172,1.00586 -4.807226,0.76078 z"
   id="path5" /><path
   style="fill:#76950a;fill-opacity:0.755187;stroke:#ffffff;stroke-width:0.125;stroke-opacity:0"
   d="m -67.412702,12.935731 c -0.91265,-0.12659 -3.09629,-0.58339 -3.17764,-0.66473 -0.0272,-0.0272 0.0173,-0.54811 0.099,-1.15753 0.11438,-0.85328 0.1148,-1.7977401 0.002,-4.1080201 -0.0807,-1.650005 -0.16719,-3.209925 -0.19227,-3.466495 -0.0437,-0.44689 -0.0125,-0.4901 0.74271,-1.029 1.60739,-1.147 2.69235,-2.73578999 2.96828,-4.34665 l 0.13989,-0.81668 2.38332,-0.0643 c 2.53072,-0.0682 3.32281,-0.20785 4.46611,-0.7872 0.71008,-0.35983 0.85455,-0.37393 0.85518,-0.0835 2.6e-4,0.12031 0.20068,1.0625 0.44537,2.09375 1.46136,6.15898 1.5153,7.68737 0.35455,10.045455 -0.53844,1.09384 -1.84393,2.5298701 -2.97403,3.2714201 -1.50533,0.98776 -3.88849,1.42187 -6.11234,1.1134 z"
   id="path7" /><path
   style="fill:#76950a;fill-opacity:0.755187;stroke:#ffffff;stroke-width:0.125;stroke-opacity:0"
   d="m -46.425122,-21.213324 c -0.12747,-0.67952 -1.15439,-2.60141 -2.58813,-4.84373 -0.72532,-1.13438 -1.4477,-2.27634 -1.6053,-2.5377 l -0.28653,-0.47519 0.32291,-0.71953 c 0.75393,-1.68 0.90348,-3.817174 0.36496,-5.215597 l -0.24473,-0.635513 1.47901,-0.796398 c 2.41196,-1.298755 3.63805,-2.351358 4.39319,-3.771581 0.26668,-0.501565 0.32285,-0.547964 0.41687,-0.344337 0.0598,0.129437 0.87107,1.067389 1.80292,2.08434 2.98134,3.253619 3.8476,4.464253 4.40968,6.162696 0.58577,1.77004 0.54423,3.42832 -0.1329,5.30548 -0.99907,2.76966 -2.96045,4.35719 -6.97288,5.64381 -0.61774,0.19809 -1.15806,0.40833 -1.20069,0.4672 -0.0426,0.0589 -0.11391,-0.0869 -0.15838,-0.32395 z"
   id="path9" /><path
   style="fill:#76950a;fill-opacity:0.755187;stroke:#ffffff;stroke-width:0.125;stroke-opacity:0"
   d="m -42.376722,-62.263033 c -0.92118,-0.74249 -2.07447,-1.453771 -4.125,-2.54407 -3.07081,-1.632794 -3.375,-1.834595 -3.375,-2.239013 0,-0.60114 -0.46768,-2.204047 -0.8833,-3.027382 -0.24201,-0.479413 -0.72737,-1.119482 -1.22727,-1.618436 l -0.82693,-0.82538 0.78203,-1.176124 c 1.44569,-2.174241 2.06125,-3.636981 2.23204,-5.303961 0.0456,-0.445314 0.11737,-0.808938 0.15944,-0.808052 0.0421,8.86e-4 1.33595,0.422925 2.8753,0.937865 2.8653,0.9585 4.68027,1.733113 5.69238,2.429467 1.89425,1.303274 3.07991,3.323694 3.45471,5.886954 0.27111,1.854117 -0.21048,3.710053 -1.43906,5.545856 -0.61352,0.916745 -2.44632,3.092604 -2.66658,3.165705 -0.0496,0.01648 -0.34339,-0.174066 -0.65276,-0.423429 z"
   id="path11" /><path
   style="fill:#76950a;fill-opacity:0.755187;stroke:#ffffff;stroke-width:0.125;stroke-opacity:0"
   d="m -59.314222,-99.703374 c -0.35916,-0.06718 -2.24976,-0.08536 -4.44477,-0.04275 l -3.81978,0.07416 -0.58029,-0.747256 c -1.05696,-1.36106 -2.62884,-2.3762 -4.11623,-2.65832 l -0.788932,-0.14963 v -2.3837 c 0,-1.96035 -0.0408,-2.51594 -0.22978,-3.12835 -0.22749,-0.73728 -0.65753,-1.6384 -1.02122,-2.13995 -0.18642,-0.25707 -0.15755,-0.26589 2.968872,-0.90649 3.82968,-0.7847 5.24353,-0.94706 6.68608,-0.76781 2.04516,0.25415 3.27639,0.86274 4.79297,2.36916 1.77555,1.76367 2.46348,3.56307 2.31862,6.06475 -0.10468,1.80765 -0.7066,4.575225 -0.98911,4.547796 -0.0833,-0.0081 -0.43268,-0.06731 -0.77643,-0.13161 z"
   id="path13" /><path
   style="fill:#76950a;fill-opacity:0.755187;stroke:#ffffff;stroke-width:0.125;stroke-opacity:0"
   d="m -99.897074,-119.18468 c -0.251806,-0.13319 -0.897636,-0.36282 -1.435176,-0.51029 -1.21175,-0.33244 -2.86315,-0.28546 -3.88872,0.11062 l -0.65675,0.25364 -0.45628,-0.83193 c -1.64641,-3.00186 -2.78393,-4.39693 -4.11774,-5.05007 l -0.5125,-0.25096 0.95,-0.82442 c 0.52251,-0.45343 1.55105,-1.36835 2.28565,-2.03316 2.38104,-2.15479 3.63547,-3.00034 5.23773,-3.53051 1.24394,-0.4116 2.25449,-0.50798 3.440796,-0.32816 2.85187,0.4323 4.90898,1.8862 6.11113,4.31918 0.46502,0.94111 1.60869,4.29885 1.50094,4.40661 -0.0349,0.0349 -0.47182,0.24105 -0.97088,0.45806 -0.49906,0.21701 -1.56786,0.79831 -2.37511,1.29179 -0.80726,0.49347 -2.11472,1.29277 -2.90547,1.77623 -0.79075,0.48345 -1.50794,0.90297 -1.59375,0.93227 -0.0858,0.0293 -0.36205,-0.0557 -0.61387,-0.1889 z"
   id="path15" /><path
   style="fill:#76950a;fill-opacity:0.755187;stroke:#ffffff;stroke-width:0.25;stroke-opacity:0"
   d="m -193.62673,-20.918844 c -1.7875,-0.57035 -3.85287,-1.36557 -4.5897,-1.76715 -2.65741,-1.44829 -4.10485,-4.03009 -4.13246,-7.37106 -0.0133,-1.60636 0.0966,-2.10783 0.76685,-3.500005 0.43029,-0.89375 1.30338,-2.274872 1.94021,-3.069159 l 1.15786,-1.44416 0.97217,0.81916 c 0.5347,0.450537 2.35882,1.550409 4.05362,2.444159 2.99677,1.580344 3.08731,1.652481 3.29494,2.624995 0.39665,1.85795 0.92041,3.04541 1.79281,4.06461 0.47778,0.55818 0.8687,1.06987 0.8687,1.13709 0,0.0672 -0.42906,0.83683 -0.95346,1.71025 -1.1733,1.9542 -1.5286,2.82033 -1.7497,4.26524 l -0.17184,1.12303 z"
   id="path17" /><path
   style="fill:#76950a;fill-opacity:0.755187;stroke:#ffffff;stroke-width:0.25;stroke-opacity:0"
   d="m -197.84561,-61.812921 c -1.3293,-1.384937 -2.80315,-3.103309 -3.27523,-3.818603 -1.55064,-2.349546 -1.70109,-4.708004 -0.47367,-7.425537 1.04893,-2.322352 2.38429,-3.425798 5.77659,-4.773362 1.06618,-0.423534 2.02177,-0.900917 2.12352,-1.06085 0.11948,-0.187792 0.18637,-0.13143 0.18884,0.159127 0.006,0.6641 0.59707,1.729324 2.70752,4.87659 1.85483,2.76607 1.88835,2.843579 1.56761,3.625001 -0.97138,2.366603 -1.1274,3.755261 -0.62647,5.575859 0.12054,0.438063 -0.0919,0.6611 -1.25425,1.317112 -1.61101,0.909201 -3.28109,2.345605 -3.89396,3.349127 l -0.4236,0.693603 z"
   id="path18" /><path
   style="fill:#76950a;fill-opacity:0.755187;stroke:#ffffff;stroke-width:0.25;stroke-opacity:0"
   d="m -181.74871,-99.245299 c -1.39648,-5.904401 -1.10675,-8.265831 1.32144,-10.770311 2.17832,-2.24677 5.04268,-2.97857 8.99861,-2.29904 l 1.80193,0.30953 0.0609,4.61307 0.0609,4.61307 -1.60285,1.54846 c -1.22497,1.18341 -1.67336,1.813677 -1.90198,2.673458 -0.16452,0.61875 -0.33318,1.250462 -0.3748,1.403805 -0.0467,0.172084 -1.06451,0.324118 -2.65895,0.397181 -1.96272,0.08994 -2.84979,0.24817 -3.69274,0.658694 -0.6102,0.297176 -1.11645,0.539988 -1.125,0.539583 -0.008,-4.05e-4 -0.40793,-1.65978 -0.88751,-3.6875 z"
   id="path19" /><path
   style="fill:#76950a;fill-opacity:0.755187;stroke:#ffffff;stroke-width:0.353553;stroke-opacity:0"
   d="m -144.81503,-118.72945 c -1.23883,-0.66527 -2.75659,-1.20325 -3.39468,-1.20325 h -1.15408 l 0.96821,-3.34131 c 1.31803,-4.54856 2.29089,-6.43763 3.83105,-7.43904 2.68464,-1.74555 5.46135,-1.91892 8.21707,-0.51305 1.82989,0.93353 4.56303,3.36557 4.20038,3.73761 -0.1651,0.16937 -1.09706,1.91536 -2.07103,3.87998 l -1.77085,3.57202 -1.85218,0.21937 c -1.31392,0.15561 -2.23911,0.5303 -3.18362,1.28933 -0.73229,0.58848 -1.38053,1.05458 -1.44055,1.03578 -0.06,-0.0188 -1.11739,-0.57566 -2.34972,-1.23744 z"
   id="path21" /><path
   style="fill:#89ad0c;fill-opacity:0.755187;stroke:#ffffff;stroke-width:0.353553;stroke-opacity:0"
   d="m -119.65742,-114.47136 c -0.8114,-1.00137 -2.08354,-2.11166 -2.82697,-2.46731 -1.8606,-0.89008 -4.28179,-0.84193 -5.90789,0.1175 l -1.30952,0.77263 -2.30319,-1.7653 c -1.26676,-0.97092 -2.52295,-1.7653 -2.79153,-1.7653 -1.02484,0 -0.84661,-0.79259 1.01011,-4.49181 2.07075,-4.12565 2.5748,-4.74142 4.5602,-5.57098 3.27079,-1.36662 6.70354,-0.28182 9.4138,2.97488 l 1.68085,2.01975 1.21359,-0.66918 c 0.91637,-0.50528 1.74439,-0.63887 3.38086,-0.54546 2.69545,0.15387 4.19427,1.19237 6.20161,4.29695 l 1.3983,2.16262 -0.77913,0.51814 c -0.42853,0.28497 -2.1011,1.6507 -3.71684,3.03495 -2.42652,2.07888 -3.11052,2.49147 -3.93084,2.37107 -0.54623,-0.0802 -1.62877,0.0732 -2.40564,0.34088 l -1.41249,0.48664 z"
   id="path23" /><path
   style="fill:#556b07;fill-opacity:0.755187;stroke:#ffffff;stroke-width:0.353553;stroke-opacity:0"
   d="m -120.12379,-114.96482 c -2.74712,-2.94478 -5.05687,-3.48198 -8.31785,-1.93454 l -1.19033,0.56485 -2.84494,-1.88163 c -3.27375,-2.16525 -3.21831,-1.7375 -0.82929,-6.39882 1.75685,-3.42786 2.95544,-4.65304 5.12305,-5.23672 2.85109,-0.76771 5.63761,0.36673 8.33528,3.39345 l 1.77036,1.9863 1.08063,-0.55881 c 1.34519,-0.69563 4.71346,-0.72937 5.99465,-0.06 1.17225,0.61241 2.48987,2.0122 3.8147,4.05259 l 1.00393,1.54615 -0.92153,0.75195 c -0.50684,0.41357 -2.06496,1.6951 -3.46249,2.84784 -2.10111,1.73309 -2.85745,2.14328 -4.36919,2.36961 -1.00552,0.15054 -2.14642,0.35663 -2.53533,0.458 -0.52877,0.13781 -1.19752,-0.34141 -2.65165,-1.90017 z"
   id="path25" /><path
   style="fill:#556b07;fill-opacity:0.755187;stroke:#ffffff;stroke-width:0.353553;stroke-opacity:0"
   d="m -84.414894,-102.65136 c -0.68059,-0.36477 -1.59541,-0.66347 -2.03293,-0.66378 -0.60842,-4.2e-4 -0.7955,-0.20432 -0.7955,-0.86703 0,-1.84761 -0.81149,-4.50662 -1.69626,-5.55811 -1.1803,-1.40271 -3.3635,-2.39654 -5.28642,-2.40648 -0.82643,-0.004 -1.5026,-0.16089 -1.5026,-0.34805 0,-0.86104 -1.56023,-4.37518 -2.36956,-5.33701 -0.49522,-0.58854 -0.84084,-1.11963 -0.76803,-1.1802 0.55708,-0.46341 4.50127,-2.83008 5.88539,-3.53147 3.15458,-1.59855 5.63684,-1.53099 8.21483,0.22356 1.85303,1.26114 2.5749,2.5394 3.1974,5.6618 l 0.58068,2.91262 1.75871,0.21883 c 2.17127,0.27017 2.90371,0.65118 4.29246,2.23287 1.29035,1.46963 1.83098,3.19681 1.83326,5.8568 l 0.002,1.94455 -4.5075,0.79904 c -5.19421,0.92078 -5.16644,0.92061 -6.8056,0.0421 z"
   id="path29" /><path
   style="fill:#556b07;fill-opacity:0.755187;stroke:#ffffff;stroke-width:0.353553;stroke-opacity:0"
   d="m -54.009302,-73.086716 c -0.48613,-0.277335 -2.35972,-1.001955 -4.16351,-1.610265 -3.01355,-1.016285 -3.33524,-1.215012 -3.96497,-2.449394 -0.37694,-0.738856 -1.1173,-1.658035 -1.64525,-2.042622 l -0.95992,-0.699248 0.81974,-1.902612 c 1.21055,-2.809653 1.15187,-5.195224 -0.17394,-7.072066 -0.577,-0.816798 -1.61832,-1.77907 -2.31406,-2.13838 l -1.26498,-0.653292 0.4901,-2.38322 c 0.3587,-1.744259 0.39462,-2.75937 0.13399,-3.786203 -0.19587,-0.771642 -0.2717,-1.48741 -0.16851,-1.590595 0.10319,-0.103186 2.20312,-0.18787 4.66653,-0.188186 4.12656,-5.3e-4 4.60408,0.06932 6.06991,0.887939 0.94758,0.529194 2.05567,1.581948 2.74004,2.603219 0.98931,1.476336 1.14788,2.016332 1.14065,3.884457 -0.006,1.453742 -0.28301,2.837515 -0.8406,4.193299 l -0.83221,2.023547 1.1607,0.684826 c 1.74617,1.030265 3.15313,3.671446 3.1215,5.859744 -0.0261,1.808464 -1.11065,4.482696 -2.47548,6.104143 -0.59928,0.711956 -0.73208,0.735666 -1.53973,0.274909 z"
   id="path31" /><path
   style="fill:#556b07;fill-opacity:0.755187;stroke:#ffffff;stroke-width:0.353553;stroke-opacity:0"
   d="m -51.222172,-36.905638 c -0.44887,-0.630383 -1.81645,-2.256811 -3.03907,-3.614284 -2.09423,-2.325237 -2.22437,-2.571832 -2.24778,-4.259286 -0.0137,-0.985135 -0.14877,-2.108617 -0.30023,-2.496627 -0.22221,-0.569288 0.026,-0.940273 1.28587,-1.921823 3.12804,-2.437031 4.14174,-5.966398 2.58862,-9.012739 l -0.69322,-1.359721 1.54585,-1.985404 c 0.85022,-1.091972 1.73861,-2.642943 1.97422,-3.446602 l 0.42837,-1.461197 3.40359,1.924256 c 4.105,2.32081 5.49802,3.600711 6.21767,5.712773 1.18459,3.476559 0.50412,5.812503 -2.56697,8.812109 l -2.26578,2.213033 0.56739,1.418043 c 1.50515,3.76174 -0.0542,7.163576 -4.43688,9.679128 l -1.64551,0.944493 z"
   id="path33" /><path
   style="fill:#556b07;fill-opacity:0.755187;stroke:#ffffff;stroke-width:0.353553;stroke-opacity:0"
   d="m -66.888602,-4.2323441 c -0.12655,-0.7292 -0.55541,-2.77066 -0.95304,-4.53657 l -0.72296,-3.2107499 0.91369,-1.34639 c 0.50253,-0.74052 0.91369,-1.79429 0.91369,-2.3417 0,-0.87692 0.15769,-1.02039 1.32582,-1.20625 3.12344,-0.49697 4.49393,-1.04466 5.74525,-2.29597 1.36871,-1.36871 2.35852,-3.99897 1.96795,-5.22953 -0.19337,-0.60926 0.0504,-0.79387 1.75652,-1.33052 2.1384,-0.67262 4.75873,-2.36471 4.76417,-3.0765 0.004,-0.54008 2.57911,3.44705 3.94018,6.10102 2.47489,4.82581 0.15266,10.13947 -4.92234,11.26315 -0.92007,0.20371 -2.18992,0.47017 -2.8219,0.59212 -1.03227,0.19919 -1.14905,0.34606 -1.14905,1.4451599 0,0.67288 -0.30271,1.81371 -0.6727,2.53517 -1.42166,2.77219 -3.64824,3.96339 -7.40832,3.96339 h -2.44689 z"
   id="path35" /><path
   style="fill:#556b07;fill-opacity:0.755187;stroke:#ffffff;stroke-width:0.353553;stroke-opacity:0"
   d="m -92.546624,20.195811 c -0.29168,-0.097 -1.5313,-0.66846 -2.75471,-1.26987 -1.71729,-0.84421 -2.16628,-1.22078 -1.96954,-1.65186 0.14016,-0.30711 0.83406,-2.30847 1.542,-4.44748 1.1191,-3.3813101 1.42241,-3.9525301 2.32309,-4.3750901 0.56977,-0.2673 1.52272,-0.94532 2.11767,-1.5067 l 1.08174,-1.020725 2.06721,0.71122 c 3.66794,1.261955 6.17445,0.803275 8.19671,-1.49995 0.60646,-0.69071 1.16666,-1.44787 1.24489,-1.68258 0.10971,-0.32913 0.71956,-0.33717 2.666,-0.0352 1.38806,0.21536 2.73456,0.32572 2.99223,0.24523 0.25766,-0.0805 0.906002,-0.2422 1.440752,-0.35937 l 0.97227,-0.21305 v 4.579915 c 0,5.0706001 -0.22957,6.0196101 -1.87784,7.7627101 -2.388952,2.52639 -5.146102,3.05765 -9.265442,1.78531 l -2.37893,-0.73478 -1.08045,1.31077 c -1.70905,2.07338 -5.0286,3.16277 -7.31765,2.40146 z"
   id="path37" /><path
   style="fill:#556b07;fill-opacity:0.755187;stroke:#ffffff;stroke-width:0.353553;stroke-opacity:0"
   d="m -153.7008,23.570191 c -2.75624,-1.10001 -4.31214,-3.33699 -4.97717,-7.15586 l -0.40928,-2.35028 h -1.21523 c -0.66838,0 -1.80551,-0.30271 -2.52697,-0.6727 -2.72911,-1.39957 -3.96339,-3.6588801 -3.96339,-7.2548751 v -2.29344 l 1.32583,-0.22649 c 0.7292,-0.12456 2.87045,-0.53119 4.75832,-0.90361 3.4149,-0.67365 3.43847,-0.67349 4.5962,0.0324 0.64003,0.39022 1.57371,0.71009 2.07485,0.71082 0.84419,10e-4 0.94301,0.17416 1.34448,2.35305 0.52233,2.834795 1.08095,3.986785 2.52071,5.1982551 1.26425,1.0638 3.61209,1.78774 4.81707,1.48531 0.46002,-0.11546 0.83641,-0.0538 0.83641,0.1371 0,0.94818 1.60849,4.45931 2.51677,5.49379 l 1.03008,1.17319 -2.3679,1.49546 c -3.71561,2.34662 -5.72845,3.16675 -7.71969,3.1454 -0.97227,-0.0104 -2.16076,-0.1758 -2.64109,-0.36749 z"
   id="path39" /><path
   style="fill:#556b07;fill-opacity:0.755187;stroke:#ffffff;stroke-width:0.353553;stroke-opacity:0"
   d="m -116.2347,30.225881 c -0.74216,-0.22971 -2.1232,-1.29141 -3.45047,-2.65262 l -2.21304,-2.26963 -1.41804,0.56739 c -3.81167,1.52513 -7.63572,-0.31909 -9.91151,-4.78 -0.40367,-0.79126 -0.68307,-1.46944 -0.62089,-1.50708 0.79424,-0.48073 3.29805,-2.48411 4.97747,-3.98263 1.95476,-1.7442 2.25451,-1.89082 3.86549,-1.89082 0.96052,0 2.04068,-0.15749 2.40034,-0.34998 0.54509,-0.29172 0.90213,-0.0535 2.14505,1.43099 0.82011,0.97954 2.10003,2.09162 2.84427,2.47131 1.77624,0.90617 4.36317,0.89796 6.07454,-0.0193 l 1.32398,-0.70962 2.02954,1.59328 c 1.11625,0.8763 2.13851,1.59337 2.27169,1.59349 0.13318,1.3e-4 0.65779,0.15825 1.1658,0.3514 l 0.92364,0.35117 -1.83948,3.5811 c -1.01172,1.96961 -2.34321,4.08483 -2.95888,4.70049 -1.79978,1.79978 -4.78254,2.396 -7.6095,1.52104 z"
   id="path41" /><path
   style="fill:#556b07;fill-opacity:0.755187;stroke:#ffffff;stroke-width:0.353553;stroke-opacity:0"
   d="m -183.23307,-0.58058409 c -1.41553,-0.63368001 -3.19598,-2.55191001 -3.87117,-4.17073001 -0.77659,-1.86194 -0.68192,-3.7657 0.32503,-6.5360099 0.55286,-1.52102 0.73488,-2.45 0.49607,-2.53184 -0.20746,-0.0711 -0.90831,-0.59559 -1.55744,-1.16553 -1.52775,-1.34138 -2.43386,-3.69632 -2.20465,-5.72981 0.17611,-1.56251 2.30455,-6.23364 2.8404,-6.23364 0.15819,0 0.8779,0.29705 1.59936,0.66012 0.72145,0.36307 2.55488,1.02565 4.07427,1.4724 2.51351,0.73905 2.82323,0.93123 3.43584,2.13204 0.37031,0.72587 1.12263,1.6919 1.67182,2.14673 l 0.99854,0.82695 -0.80205,1.94934 c -0.91318,2.21942 -1.0377,4.45344 -0.34117,6.12048 0.53993,1.29224 2.80157,3.4302699 3.62859,3.4302699 0.44059,0 0.48945,0.22204 0.25286,1.14904 -0.16129,0.63198 -0.29325,2.46164 -0.29325,4.0659 v 2.91685001 l -4.5962,-0.0139 c -3.05688,-0.009 -4.95142,-0.1729 -5.65685,-0.48869 z"
   id="path43" /><path
   style="fill:#556b07;fill-opacity:0.755187;stroke:#ffffff;stroke-width:0.353553;stroke-opacity:0"
   d="m -193.40463,-34.897648 c -5.67154,-3.263669 -6.956,-4.862166 -6.9647,-8.667511 -0.006,-2.392515 1.3199,-4.92001 3.63686,-6.935519 l 1.55419,-1.351982 -0.51667,-1.236564 c -0.32746,-0.783715 -0.46336,-1.973515 -0.37111,-3.248899 0.18998,-2.626374 1.38019,-4.423768 4.19529,-6.335465 l 2.15913,-1.466238 0.57283,0.82978 c 0.31506,0.456379 1.74269,2.062935 3.17251,3.570125 2.56912,2.70813 2.59705,2.758006 2.37536,4.242641 -0.12655,0.847545 -0.0502,1.958937 0.1751,2.550037 0.37688,0.9886 0.31823,1.115193 -1.03917,2.242721 -3.0588,2.540811 -4.13781,6.28834 -2.6894,9.340633 l 0.60909,1.283571 -1.41338,1.788068 c -1.25419,1.58667 -1.88382,2.887866 -2.24401,4.637513 -0.0862,0.418884 -0.81241,0.137877 -3.21192,-1.242911 z"
   id="path45" /><path
   style="fill:#556b07;fill-opacity:0.755187;stroke:#ffffff;stroke-width:0.353553;stroke-opacity:0"
   d="m -189.0667,-71.060336 c 0,-0.189649 -0.82249,-1.598247 -1.82776,-3.130218 -2.3435,-3.571367 -3.24859,-5.888796 -2.94077,-7.529632 0.73315,-3.908028 3.50818,-6.195817 8.40634,-6.930341 1.66056,-0.249016 1.66549,-0.253873 1.66549,-1.641383 0,-1.735589 0.67102,-3.06248 2.24971,-4.448583 1.47645,-1.296338 2.86051,-1.759705 5.80324,-1.942845 2.01819,-0.125602 2.23185,-0.07193 2.35765,0.592243 0.0761,0.401699 0.49425,2.443169 0.92928,4.536599 l 0.79096,3.806236 -0.9389,1.855693 c -0.51639,1.020631 -0.93889,2.111132 -0.93889,2.423337 0,0.414113 -0.59645,0.684988 -2.2052,1.00149 -1.21285,0.238615 -2.60497,0.641945 -3.09359,0.89629 -1.96679,1.023785 -3.54005,3.651082 -3.54005,5.911764 0,1.095579 -0.12372,1.210178 -2.15816,1.999052 -1.187,0.460266 -2.69844,1.311207 -3.35876,1.89098 -0.66033,0.579774 -1.20059,0.898966 -1.20059,0.709318 z"
   id="path47" /><path
   style="fill:#667f0b;fill-opacity:0.755187;stroke:#ffffff;stroke-width:0.353553;stroke-opacity:0"
   d="m -169.43379,-107.25226 c -0.2345,-4.24009 -0.19925,-4.65469 0.5226,-6.14583 1.73561,-3.5853 6.1401,-4.97968 10.77935,-3.41253 l 2.12026,0.71623 1.00753,-1.22231 c 2.44256,-2.96324 6.01173,-3.38261 10.29326,-1.20942 1.78877,0.90794 2.28583,1.32097 2.10284,1.74736 -0.58216,1.35645 -1.56706,4.25634 -2.07614,6.11287 -0.50458,1.84011 -0.68621,2.07858 -2.05041,2.69201 -0.82323,0.37018 -1.86461,1.07339 -2.31418,1.56268 l -0.8174,0.88962 -1.74966,-0.66482 c -2.08441,-0.79202 -5.27875,-0.86522 -6.65689,-0.15255 -0.96945,0.50132 -3.00813,2.58293 -3.26441,3.33316 -0.0915,0.26796 -0.81942,0.26377 -2.49369,-0.0143 -1.62328,-0.26965 -2.80124,-0.28188 -3.75801,-0.039 l -1.39359,0.35373 z"
   id="path49" /><path
   style="fill:#667f0b;fill-opacity:0.755187;stroke:#ffffff;stroke-width:0.25;stroke-opacity:0"
   d="m -139.45608,19.732791 c -0.73114,-0.26093 -1.702,-0.8356 -2.15746,-1.27707 -0.8737,-0.84682 -2.11619,-3.16836 -2.6494,-4.95027 l -0.31793,-1.0625 -1.39793,-0.002 c -2.49167,-0.004 -4.84097,-1.4919 -5.82197,-3.6864401 -0.48102,-1.07605 -1.29897,-4.796425 -1.09859,-4.996815 0.0598,-0.0598 0.57974,-0.21453 1.15546,-0.34389 0.57572,-0.12935 2.3001,-0.73038 3.83197,-1.33562 3.50188,-1.38358999 5.56933,-1.76934999 7.53505,-1.40596999 3.69514,0.68307999 5.83498,2.50430999 8.37515,7.12810499 1.86247,3.3902001 3.14937,4.9839201 4.38527,5.4308301 0.4756,0.17198 0.85994,0.37447 0.85408,0.44998 -0.006,0.0755 -0.54023,0.56307 -1.1875,1.08349 -0.64727,0.52041 -1.96435,1.62787 -2.92685,2.46102 -2.59359,2.24502 -3.60824,2.76945 -5.58121,2.88461 -1.20601,0.0704 -2.03744,-0.0342 -2.99814,-0.377 z"
   id="path51" /><path
   style="fill:#667f0b;fill-opacity:0.755187;stroke:#ffffff;stroke-width:0.25;stroke-opacity:0"
   d="m -105.73347,19.679871 c -0.6087,-0.27615 -1.86499,-1.11474 -2.79174,-1.86351 l -1.685,-1.36142 -1.15074,0.64315 c -1.55042,0.86655 -3.64467,1.04982 -5.38626,0.47136 -1.30784,-0.43441 -3.61139,-2.41257 -4.64324,-3.98736 -0.40891,-0.62407 -0.40224,-0.65997 0.21249,-1.14351 0.34905,-0.27456 1.27952,-1.37028 2.06769,-2.43492 3.08327,-4.1647651 5.02385,-5.7006651 7.97239,-6.3098751 2.83805,-0.58637 5.37448,0.0909 9.05005,2.41638 3.257326,2.060905 4.719766,2.683285 6.336106,2.696525 l 1.375,0.0113 -1.28899,3.7794301 c -1.57889,4.62948 -1.80909,5.08421 -3.08553,6.09519 -1.905956,1.50954 -4.898386,1.93268 -6.982226,0.9873 z"
   id="path52" /><path
   style="fill:#667f0b;fill-opacity:0.755187;stroke:#ffffff;stroke-width:0.25;stroke-opacity:0"
   d="m -88.250334,6.5421059 c -1.03048,-0.35092 -1.89823,-0.66267 -1.92833,-0.69277 -0.0301,-0.0301 0.0972,-0.55945 0.28283,-1.17633 0.18565,-0.61688 0.52089,-2.54341 0.74498,-4.28116999 0.22408,-1.73776001 0.57794,-3.64285001 0.78635,-4.23353001 0.93189,-2.64128 2.84224,-4.76769 5.31899,-5.92059 1.35891,-0.6325499 1.64562,-0.6658999 6.79379,-0.7900999 5.201242,-0.12548 5.412022,-0.15057 6.520392,-0.77604 l 1.14539,-0.64636 0.8114,3.7140099 c 0.44627,2.04271 0.8276,4.18983 0.8474,4.77137 0.056,1.64393 -0.54115,3.32397001 -1.61501,4.54394 -1.95131,2.21681 -3.7873,2.83154 -7.052162,2.36124 -1.11783,-0.16103 -2.2162,-0.30516 -2.44084,-0.32031 -0.2271,-0.0153 -0.79045,0.52741 -1.26895,1.22248 -0.52406,0.76124 -1.38643,1.56769 -2.20552,2.0625 -1.18408,0.715295 -1.55567,0.811725 -3.10604,0.806095 -1.21828,-0.004 -2.33854,-0.20304 -3.63467,-0.644435 z"
   id="path53" /><path
   style="fill:#667f0b;fill-opacity:0.755187;stroke:#ffffff;stroke-width:0.25;stroke-opacity:0"
   d="m -66.638632,-17.494554 c -0.14441,-0.67797 -0.6511,-2.14298 -2.18326,-6.3125 -0.64092,-1.74417 -0.78302,-2.50817 -0.79285,-4.26297 -0.0111,-1.98024 0.0575,-2.2785 0.92949,-4.0429 1.20772,-2.443657 2.55396,-3.657831 6.18721,-5.580237 3.17496,-1.679912 4.7831,-2.965885 5.52328,-4.416742 l 0.50605,-0.991949 0.67099,0.865093 c 0.36905,0.475802 1.55399,1.862164 2.63321,3.080804 2.32797,2.628707 2.92474,3.707838 3.09621,5.598769 0.34748,3.832172 -1.76507,6.502412 -6.24592,7.894762 l -1.4375,0.44668 -0.005,1.39184 c -0.009,2.39173 -1.43166,4.6986 -3.57886,5.80498 -0.78671,0.40536 -4.06956,1.21187 -4.93288,1.21187 -0.12279,0 -0.28914,-0.30938 -0.36968,-0.6875 z"
   id="path54" /><path
   style="fill:#667f0b;fill-opacity:0.755187;stroke:#ffffff;stroke-width:0.25;stroke-opacity:0"
   d="m -58.150262,-49.095975 c -0.53705,-0.558142 -2.02139,-1.851992 -3.29852,-2.875223 -3.91481,-3.136526 -5.39445,-5.745345 -5.3659,-9.460862 0.0172,-2.244833 0.61172,-3.82036 2.59407,-6.875001 2.14802,-3.309924 2.71351,-4.603561 2.71644,-6.214247 0.002,-1.174488 0.0563,-1.317879 0.43995,-1.165555 0.24062,0.09553 1.80394,0.652532 3.47404,1.23778 4.81341,1.686751 6.06299,2.63269 7.10686,5.379933 1.0204,2.685457 0.45679,4.955349 -1.96675,7.92098 l -1.25352,1.53389 0.6449,1.303093 c 0.84458,1.706591 0.99284,3.563238 0.42247,5.290449 -0.3354,1.01567 -0.82129,1.711623 -2.01372,2.884318 -2.27173,2.234133 -2.33393,2.252625 -3.50032,1.040445 z"
   id="path55" /><path
   style="fill:#667f0b;fill-opacity:0.755187;stroke:#ffffff;stroke-width:0.25;stroke-opacity:0"
   d="m -65.703952,-80.220992 c -0.45497,-0.192236 -2.25497,-0.566902 -4,-0.832592 -3.756982,-0.57202 -5.217862,-1.029825 -6.981582,-2.18785 -1.56186,-1.025492 -2.58252,-2.256806 -3.50769,-4.231654 -0.67271,-1.435944 -0.68357,-1.537899 -0.6875,-6.458974 -0.004,-5.305572 -0.10866,-5.84967 -1.39298,-7.258378 -0.46234,-0.50711 -0.45397,-0.5102 3.34174,-1.23444 4.60123,-0.87793 6.10104,-0.90378 7.875092,-0.13571 1.56564,0.67784 3.42402,2.616293 3.79757,3.961187 0.35,1.260139 0.30737,3.353084 -0.10776,5.289953 -0.19128,0.892437 -0.32795,1.631791 -0.30372,1.643009 3.41784,1.582406 5.02675,4.290953 4.42178,7.443924 -0.16256,0.847251 -0.5953,2.172838 -0.96164,2.94575 l -0.66608,1.405294 z"
   id="path56" /><path
   style="fill:#667f0b;fill-opacity:0.755187;stroke:#ffffff;stroke-width:0.25;stroke-opacity:0"
   d="m -99.438644,-100.32997 c -3.859306,-0.50697 -6.161366,-2.48747 -8.904696,-7.66083 -1.45361,-2.7412 -2.60941,-4.15358 -3.965,-4.84514 -0.55158,-0.2814 -0.90512,-0.59879 -0.78563,-0.70531 1.64857,-1.46974 6.53628,-5.3576 7.15404,-5.69058 0.57785,-0.31147 1.39202,-0.44005 2.8132,-0.44428 3.581346,-0.0107 5.261546,1.3034 6.757606,5.28501 l 0.83003,2.20904 1.72026,0.15771 c 3.92564,0.35991 5.94085,2.61105 6.46214,7.2187 0.13141,1.16151 0.0927,1.50924 -0.17574,1.57772 -0.4267,0.10887 -3.67842,1.21681 -6.34429,2.16166 -2.25982,0.80093 -3.65947,0.98621 -5.56192,0.7363 z"
   id="path57" /><path
   style="fill:#667f0b;fill-opacity:0.755187;stroke:#ffffff;stroke-width:0.25;stroke-opacity:0"
   d="m -133.37673,-103.54677 c -0.825,-0.27188 -2.56875,-1.12213 -3.875,-1.88944 -3.54092,-2.08 -5.28809,-2.86931 -6.72908,-3.03998 -0.87689,-0.10385 -1.25842,-0.25284 -1.17881,-0.46032 0.0647,-0.16873 0.36086,-1.13675 0.65803,-2.15116 0.68819,-2.34921 1.64067,-5.03307 2.1045,-5.93002 0.76972,-1.48849 3.35527,-2.76014 5.64906,-2.7784 1.6099,-0.0128 2.45746,0.3834 5.14141,2.4035 l 1.83572,1.38168 1.44709,-0.71058 c 1.16127,-0.57023 1.76802,-0.70688 3.07208,-0.69186 2.02661,0.0233 3.16959,0.58473 4.88416,2.39895 2.4262,2.5672 2.33473,2.33253 1.32576,3.40121 -0.48352,0.51212 -1.70036,2.0382 -2.7041,3.39129 -2.75236,3.71031 -4.60566,4.84615 -8.25582,5.05975 -1.42356,0.0833 -2.23615,-0.009 -3.375,-0.38462 z"
   id="path58" /><path
   style="fill:#667f0b;fill-opacity:0.755187;stroke:#ffffff;stroke-width:0.25;stroke-opacity:0"
   d="m -171.60599,-87.869562 c -0.41622,-1.468619 -1.65714,-7.998719 -1.65089,-8.6875 0.0149,-1.642285 0.52012,-2.795553 1.84008,-4.200348 0.70954,-0.75514 1.77042,-1.58773 2.35752,-1.85021 1.2189,-0.54493 3.83134,-0.63297 6.05586,-0.20409 0.97707,0.18837 1.39919,0.18714 1.463,-0.004 0.22266,-0.66798 1.77736,-2.42215 2.7561,-3.10971 1.01026,-0.7097 1.21795,-0.75605 3.36713,-0.75143 1.7711,0.004 2.66757,0.1399 3.95359,0.60014 l 1.66314,0.59519 -0.36584,1.02487 c -0.20121,0.56368 -0.52176,2.34064 -0.71234,3.9488 -0.55635,4.694584 -1.23179,6.500948 -3.14701,8.416165 -2.39204,2.392041 -4.50723,3.02571 -10.11821,3.031214 -3.89761,0.0038 -5.96798,0.357676 -6.60853,1.129484 -0.37841,0.455963 -0.73457,0.481711 -0.8536,0.06171 z"
   id="path59" /><path
   style="fill:#667f0b;fill-opacity:0.755187;stroke:#ffffff;stroke-width:0.25;stroke-opacity:0"
   d="m -183.83709,-57.406648 c -0.23355,-0.356437 -1.50544,-1.79164 -2.82643,-3.189339 -2.92469,-3.094526 -3.44734,-4.124873 -3.27984,-6.465896 0.23505,-3.285188 1.91311,-5.20662 5.82868,-6.674042 l 1.85753,-0.696136 0.003,-1.142965 c 0.006,-2.469081 1.49177,-4.948951 3.56588,-5.951153 0.94594,-0.457076 4.19082,-1.280883 5.04525,-1.280883 0.187,0 0.38024,0.399308 0.45368,0.9375 0.0704,0.515626 0.65925,2.117063 1.30862,3.55875 1.53917,3.417159 1.98881,5.521048 1.61753,7.568551 -0.64465,3.555037 -2.76597,6.027547 -7.45421,8.688275 -2.95492,1.677009 -4.50859,2.983302 -5.23702,4.403153 l -0.45775,0.892253 z"
   id="path60" /><path
   style="fill:#667f0b;fill-opacity:0.755187;stroke:#ffffff;stroke-width:0.25;stroke-opacity:0"
   d="m -180.75173,-24.586504 c -5.3188,-1.8124 -5.86458,-2.05769 -7.05406,-3.17031 -1.61324,-1.509 -2.28474,-3.29322 -2.13591,-5.675245 0.12512,-2.002445 0.49922,-2.850825 2.23865,-5.07674 l 1.23213,-1.57674 -0.56911,-1.17326 c -0.82473,-1.700254 -0.8984,-3.797374 -0.19876,-5.657959 0.42868,-1.13999 0.95918,-1.880046 2.28492,-3.187501 0.94963,-0.93654 1.80548,-1.702032 1.90187,-1.701093 0.0964,9.4e-4 0.44154,0.392718 0.76699,0.870619 0.32545,0.477901 1.68581,1.707547 3.02303,2.732548 4.71566,3.614641 6.06262,5.72532 6.07539,9.520126 0.008,2.523758 -0.50709,3.919663 -2.72087,7.366435 -2.15389,3.35354 -2.68695,4.57913 -2.69494,6.19607 -0.004,0.72187 -0.0105,1.30004 -0.0154,1.28482 -0.005,-0.0152 -0.96518,-0.35352 -2.13393,-0.75177 z"
   id="path61" /><path
   style="fill:#667f0b;fill-opacity:0.755187;stroke:#ffffff;stroke-width:0.25;stroke-opacity:0"
   d="m -168.07705,3.3364659 c -1.59437,-0.42869 -3.11183,-1.54477 -4.13843,-3.04378999 l -0.83875,-1.22473 0.13643,-2.87500001 c 0.075,-1.58125 0.21123,-3.17791 0.30264,-3.54812 0.14637,-0.59275 0.0652,-0.71532 -0.6797,-1.02656 -1.18515,-0.49519 -3.13919,-2.7465999 -3.48131,-4.0111199 -0.39305,-1.45276 -0.1491,-3.49116 0.65811,-5.49906 0.64468,-1.60359 0.72791,-1.70031 1.33936,-1.55629 0.35858,0.0845 1.66447,0.32166 2.90197,0.52711 6.31665,1.04869 7.81702,1.59553 9.7894,3.56791 0.64333,0.64333 1.51628,1.90127 1.93989,2.79541 0.76405,1.61275 0.77122,1.66658 0.9001,6.7507199 0.1356,5.34930001 0.16881,5.51803001 1.4147,7.1875 l 0.60635,0.8125 -0.57522,9.6e-4 c -0.31637,5.3e-4 -2.26272,0.33576 -4.32522,0.74496 -4.22272,0.83779 -4.29514,0.84263 -5.95032,0.3976 z"
   id="path62" /><path
   style="fill:#667f0b;fill-opacity:0.377593;stroke:#ffffff;stroke-width:0.25;stroke-opacity:0"
   d="m -127.64729,13.073171 c -1.48878,-0.74189 -2.52278,-2.03987 -4.38557,-5.5052201 -1.55999,-2.902055 -3.67372,-5.210715 -5.59387,-6.109775 -0.6875,-0.3219 -2.07629,-0.70595999 -3.0862,-0.85344999 -2.14831,-0.31377 -3.78564,0.0404 -8.33519,1.80317999 -3.66719,1.42086 -5.40594,1.3842 -7.76296,-0.16365 -0.59806,-0.39274 -1.17168,-1.09868 -1.59377,-1.96139999 -0.63331,-1.29444001 -0.66159,-1.53326001 -0.71417,-6.03136001 -0.0487,-4.16779 -0.1161,-4.8419099 -0.61188,-6.1215799 -1.47423,-3.80507 -4.6372,-6.02089 -9.54788,-6.68876 -2.93112,-0.39864 -5.37187,-0.93246 -6.17017,-1.3495 -1.7079,-0.89221 -3.03979,-3.19906 -3.04485,-5.27371 -0.004,-1.51117 0.60005,-2.88426 2.76083,-6.27904 2.5391,-3.98916 3.17845,-6.520405 2.39221,-9.470965 -0.73701,-2.765813 -1.71904,-4.049646 -5.16662,-6.754431 -2.93084,-2.29938 -4.12748,-3.529782 -4.65063,-4.781858 -0.41141,-0.984652 -0.44455,-3.090507 -0.0699,-4.43997 0.40167,-1.44665 2.40603,-3.2595 5.83086,-5.273743 4.69811,-2.76309 6.43553,-4.807192 7.20531,-8.47715 0.39143,-1.86612 0.0236,-3.937518 -1.18321,-6.662825 -2.40548,-5.432311 -2.46305,-7.195701 -0.31484,-9.642418 1.43606,-1.635595 2.3412,-1.868465 8.02893,-2.06563 4.69387,-0.162714 5.12704,-0.218072 6.40911,-0.819067 4.1739,-1.956598 5.62424,-4.231958 6.36316,-9.982791 0.68966,-5.367458 1.22105,-6.511158 3.63595,-7.825508 2.58114,-1.40484 4.69595,-0.91284 9.99725,2.32579 2.85837,1.74621 4.96236,2.37017 7.4973,2.22343 3.43626,-0.19892 5.42001,-1.48702 8.30728,-5.39413 3.14667,-4.25813 4.27933,-4.999 7.23661,-4.73347 2.44822,0.21982 3.74562,1.45399 6.13351,5.83457 2.28835,4.198 4.04979,5.84289 7.36017,6.8732 2.623926,0.816658 4.089336,0.594262 9.933886,-1.50761 2.93957,-1.05716 4.59554,-1.26775 5.95611,-0.75742 1.19294,0.44744 2.55402,1.51223 3.14237,2.45828 0.52353,0.841838 0.57029,1.265409 0.6931,6.277748 0.12594,5.139886 0.1605,5.437061 0.79011,6.793788 0.77446,1.668887 2.38613,3.499325 3.82201,4.340802 1.57167,0.92106 2.9719,1.338531 6.257422,1.865608 1.65981,0.266275 3.6323,0.682225 4.3833,0.924335 1.79078,0.577313 3.27291,2.041435 3.86203,3.815135 0.74333,2.23793 0.27687,3.827628 -2.30103,7.841996 -0.6334,0.986335 -1.49845,2.524587 -1.92234,3.418337 -0.68454,1.443333 -0.7704,1.876538 -0.76802,3.875001 0.002,1.931285 0.10093,2.460982 0.69621,3.739452 1.00939,2.167835 1.60556,2.84632 5.19847,5.916243 3.93975,3.36628 4.33968,3.99811 4.34582,6.86568 0.004,1.813753 -0.0681,2.125838 -0.70049,3.038423 -0.81593,1.177398 -2.79303,2.624655 -5.31351,3.88956 -1.87191,0.939423 -3.76759,2.28229 -4.77846,3.384988 -1.1091,1.209852 -2.09174,3.60503 -2.24912,5.4822 -0.17987,2.14557 0.13144,3.54561 1.6251,7.30846 1.01311,2.55224 1.14289,3.10184 1.15602,4.89565 0.014,1.91328 -0.033,2.09263 -0.88433,3.375 -0.64328,0.96896 -1.24381,1.52621 -2.11046,1.95833 -1.13985,0.56835 -1.49248,0.60697 -5.975882,0.65447 -2.6205,0.0278 -5.10204,0.13769 -5.51454,0.24428 -1.17377,0.30329 -3.16466,1.3641899 -4.125,2.1981099 -2.23049,1.93686 -3.0192,3.80002 -3.75092,8.86078001 -0.60732,4.20032999 -0.9869,5.26832999 -2.2913,6.44676499 -1.33753,1.20839 -2.38518,1.61712 -4.13725,1.61416 -1.70456,-0.003 -3.02518,-0.55821 -6.645006,-2.794305 -3.82691,-2.36402 -6.47205,-2.93389 -9.66908,-2.08312 -2.2592,0.60121 -3.85444,1.91191 -6.54916,5.381045 -1.95219,2.5132001 -2.67945,3.2582301 -3.72045,3.8113401 -1.72796,0.9181 -3.62793,0.94201 -5.3824,0.0677 z m 12.68345,-16.3865751 c 1.20968,-0.336 2.46655,-1.76636 3.68961,-4.19889 1.08042,-2.14886 1.90999,-3.2525799 3.06028,-4.0716699 l 0.74837,-0.53288 1.25703,0.68416 c 1.68602,0.91764 3.30945,0.95132 4.62287,0.0959 l 0.95896,-0.62457 1.749996,0.69224 c 2.89405,1.1448 4.87879,0.92748 6.42159,-0.70313 1.06172,-1.12215 1.21348,-1.86263 1.16247,-5.67206 -0.0414,-3.09375 0.0171,-3.6822 0.46651,-4.68861 l 0.51388,-1.15084 1.68532,-0.13528 c 1.86994,-0.1501 2.65572,-0.58314 3.5584,-1.96102 0.89624,-1.36806 0.94662,-1.39883 2.59587,-1.58542 3.15217,-0.35663 4.70721,-1.5075 5.25032,-3.88571 0.2836,-1.24189 -0.12949,-2.572213 -1.47192,-4.740188 -1.39782,-2.257417 -2.29353,-4.36957 -2.30151,-5.427135 -0.005,-0.667315 0.17401,-0.901913 1.18205,-1.548768 1.56231,-1.00253 2.16672,-2.049035 2.16809,-3.753905 10e-4,-1.334045 0.006,-1.343272 1.43065,-2.439145 2.54386,-1.95746 3.24009,-3.400755 2.7088,-5.615423 -0.36203,-1.509107 -1.58024,-2.688192 -4.33916,-4.199807 -2.06816,-1.133148 -4.03622,-2.759135 -4.28382,-3.539241 -0.0832,-0.262165 0.14056,-1.028097 0.51788,-1.77272 0.83171,-1.641295 0.7617,-3.2812 -0.19291,-4.519075 l -0.62722,-0.81332 0.7594,-1.75608 c 1.37239,-3.17364 0.96629,-5.358393 -1.28244,-6.899248 -0.80367,-0.550682 -1.19177,-0.609685 -4.89755,-0.744575 -4.87189,-0.177337 -5.8989,-0.488345 -5.9011,-1.787 -0.004,-2.077715 -1.08164,-3.926718 -2.61238,-4.480238 -0.78213,-0.282825 -0.85002,-0.398052 -1.00116,-1.69921 -0.47318,-4.073847 -1.86663,-5.830567 -4.608016,-5.809332 -1.44164,0.01117 -2.07993,0.248403 -4.09868,1.523359 -2.06154,1.301976 -3.52385,1.93289 -4.97163,2.145004 -1.1542,0.169101 -1.17575,0.159313 -1.78927,-0.812565 -1.20176,-1.903709 -2.95635,-2.862706 -4.51972,-2.470324 -0.5188,0.130211 -0.78912,-0.07872 -1.88708,-1.458542 -2.11078,-2.652658 -3.93483,-3.3877 -6.06666,-2.444694 -1.33065,0.588613 -2.08697,1.521317 -3.28919,4.056284 -1.01886,2.148337 -2.12935,3.594713 -3.17516,4.13552 -0.67808,0.350645 -0.81022,0.332083 -2.02769,-0.28486 -1.6918,-0.857299 -3.23589,-0.894604 -4.62866,-0.111825 l -1.03671,0.582673 -1.7826,-0.660748 c -3.05263,-1.131503 -5.46062,-0.725382 -6.79545,1.14609 -0.53999,0.75709 -0.59397,1.13539 -0.72316,5.06816 -0.18121,5.516231 -0.37783,6.000463 -2.51507,6.194263 -0.80713,0.07319 -1.83338,0.346753 -2.28056,0.60792 -0.72179,0.421543 -1.75443,1.641838 -1.99169,2.353598 -0.0471,0.141245 -0.94103,0.405357 -1.98656,0.586917 -3.19762,0.555278 -4.58308,1.543376 -5.16341,3.682493 -0.35558,1.31067 -0.0186,2.478473 1.27749,4.42767 1.6927,2.54558 2.21877,3.724961 2.34362,5.254043 l 0.11375,1.393098 -1.15347,0.75 c -1.47349,0.95808 -2.18322,2.095527 -2.26597,3.631535 -0.0616,1.1432 -0.16429,1.30352 -1.94615,3.03768 -2.06446,2.009208 -2.5953,3.162765 -2.2892,4.974583 0.28852,1.707705 1.30107,2.748217 4.11294,4.22653 2.48136,1.30455 4.75889,3.164413 4.75889,3.88618 0,0.18812 -0.28125,0.870995 -0.625,1.517498 -0.85186,1.602132 -0.84396,3.208562 0.0221,4.4847 l 0.64705,0.95349 -0.77205,1.97239 c -0.88858,2.27008 -0.96835,3.57572 -0.29865,4.88788 1.06416,2.08504 2.22307,2.52201 6.7766,2.55516 2.54461,0.0185 3.65179,0.1305 4.5,0.4551 1.10962,0.42465 1.12703,0.44925 1.27329,1.79891 0.23039,2.12599 0.93544,3.21939 2.62836,4.0761 0.69481,0.35161 0.7945,0.54581 0.9459,1.84265 0.38605,3.3067299 1.32157,4.8172099 3.34985,5.4086299 1.66362,0.48509 2.96964,0.14577 5.62125,-1.46046 2.22703,-1.3490299 4.17782,-2.1235499 5.34859,-2.1235499 0.39315,0 0.76674,0.29815 1.17471,0.9374999 1.15216,1.80558 2.8896,2.77869 4.41615,2.47338 0.64117,-0.12824 0.84098,0.0177 1.97479,1.44262 2.06189,2.59121 3.54793,3.26706 5.805,2.64015 z"
   id="path63" /><path
   style="fill:#667f0b;fill-opacity:0.701245;stroke:#ffffff;stroke-width:0.25;stroke-opacity:0"
   d="m -118.51121,-3.8695541 c -0.45838,-0.30938 -1.40314,-1.25628 -2.09947,-2.10423 -1.25802,-1.53195 -1.27458,-1.54185 -2.61154,-1.5625 -1.67928,-0.0259 -2.74863,-0.64882 -3.7005,-2.15551 -0.58543,-0.9266799 -0.83416,-1.1144399 -1.47678,-1.1148199 -1.34816,-7.8e-4 -3.05262,0.66409 -5.50277,2.1464799 -2.90087,1.75509 -4.2813,1.99456 -6.0927,1.05692 -1.40534,-0.72746 -2.14357,-2.10514 -2.52571,-4.7135099 l -0.27611,-1.88466 -1.14785,-0.61534 c -1.35912,-0.72859 -2.04158,-1.88539 -2.1156,-3.58605 -0.0301,-0.69155 -0.21184,-1.32145 -0.44115,-1.52897 -0.77632,-0.70257 -3.19607,-1.11179 -6.33689,-1.07168 -2.65839,0.0339 -3.16354,-0.0274 -4.03845,-0.49034 -2.36261,-1.25012 -2.8645,-3.69607 -1.43525,-6.99456 0.45028,-1.03918 0.68084,-1.86921 0.54289,-1.95446 -0.47374,-0.29279 -1.23264,-2.111448 -1.23264,-2.95393 0,-0.472765 0.32588,-1.479085 0.72418,-2.236268 0.71031,-1.35032 0.71578,-1.390525 0.28521,-2.098542 -0.64754,-1.06478 -1.70075,-1.86562 -4.30391,-3.27258 -3.35729,-1.814553 -4.20548,-2.838533 -4.20548,-5.077056 0,-1.696005 0.72795,-2.94685 2.72668,-4.685292 1.45827,-1.268371 1.52336,-1.374918 1.52425,-2.495276 0.001,-1.47164 0.63831,-2.551347 2.12312,-3.597942 1.08356,-0.763765 1.12574,-0.841235 1.12046,-2.058015 -0.007,-1.487255 -0.45929,-2.562775 -2.19889,-5.222536 -1.98985,-3.042392 -2.04445,-4.73612 -0.21158,-6.563622 0.87273,-0.870177 1.33175,-1.103795 2.84031,-1.445566 0.98964,-0.224209 2.02283,-0.407652 2.29598,-0.407652 0.30518,0 0.77002,-0.40709 1.20589,-1.056076 0.99263,-1.477993 2.0205,-2.095029 3.8312,-2.299887 l 1.53374,-0.173522 0.53249,-1.172758 c 0.46965,-1.034348 0.52607,-1.567321 0.47805,-4.515943 -0.0636,-3.904082 0.14415,-4.890309 1.25597,-5.962758 1.58347,-1.527401 3.02681,-1.67265 6.06733,-0.610578 l 2,0.698613 1,-0.574433 c 1.33972,-0.769581 2.83372,-0.755275 4.42173,0.04234 0.68439,0.34375 1.40637,0.625 1.60439,0.625 0.81525,0 2.59266,-2.078154 3.81847,-4.46456 1.8643,-3.629415 2.6312,-4.28544 5.00972,-4.28544 1.50351,0 2.43224,0.599728 4.12964,2.666724 1.26406,1.539302 1.26821,1.541758 2.64105,1.563434 1.72776,0.02728 2.78315,0.640451 3.6919,2.14495 0.57979,0.959888 0.79763,1.124892 1.48504,1.124892 1.26083,0 2.99961,-0.689288 5.51037,-2.184419 2.69761,-1.606399 3.9469,-1.868682 5.70419,-1.197568 1.803606,0.688805 2.341146,1.751566 2.975056,5.881987 0.11211,0.730517 0.32682,0.978203 1.30028,1.5 1.44079,0.772294 2.08317,1.895156 2.08317,3.641355 0,1.069618 0.0903,1.320241 0.5625,1.561242 1.34589,0.68691 2.22344,0.836189 4.8125,0.818643 1.5125,-0.01025 3.34175,0.101487 4.065,0.248306 3.33185,0.676359 4.43084,3.53212 2.8161,7.317753 l -0.73038,1.7123 0.67464,1.019442 c 0.90737,1.371123 0.90756,2.862898 5.9e-4,4.588128 l -0.67404,1.282167 0.60051,0.81395 c 0.74016,1.003238 2.47036,2.288761 4.95222,3.679473 2.43641,1.365238 3.23215,2.384558 3.37212,4.319535 0.13763,1.902815 -0.48722,3.035728 -2.61465,4.740538 -1.58398,1.269325 -1.58712,1.274413 -1.58805,2.577003 -0.001,1.647847 -0.63091,2.726132 -2.11966,3.629465 -0.9849,0.597612 -1.11451,0.780417 -1.1215,1.58177 -0.0115,1.31544 0.57815,2.787933 2.17082,5.421243 1.72122,2.84585 1.95696,4.236616 1.02512,6.047696 -0.75111,1.4598 -2.04597,2.16918 -4.62529,2.53394 l -1.98299,0.28044 -0.61028,1.13819 c -0.742,1.38383 -1.81033,1.98455 -3.92193,2.20525 -1.51165,0.158 -1.54353,0.17718 -1.97589,1.18888 -0.35124,0.82187 -0.44479,1.8062 -0.46603,4.9033 -0.0288,4.20469 -0.21688,4.94884 -1.50706,5.96369 -1.58169,1.24416 -3.35857,1.28693 -6.20045,0.14925 l -1.630396,-0.65269 -0.75073,0.55503 c -1.19199,0.88127 -2.91566,0.92918 -4.50235,0.12514 -0.72111,-0.36541 -1.50781,-0.60196 -1.74821,-0.52566 -0.87998,0.2793 -2.52761,2.2335699 -3.55884,4.2211799 -1.32329,2.55053 -1.8851,3.3187 -2.87422,3.93002 -1.12966,0.69816 -3.26493,0.65973 -4.35866,-0.0785 z m -7.98078,-13.3175399 c 0.40421,-0.20902 1.31868,-0.8985 2.03217,-1.53218 3.13288,-2.78245 5.7833,-2.78245 8.91618,0 2.25306,2.00103 3.64557,2.38066 5.21727,1.42234 0.9417,-0.57419 1.31251,-1.245 2.04971,-3.70796 0.41219,-1.37712 0.78409,-2.06132 1.52094,-2.79817 1.59253,-1.59253 2.97477,-1.78702 7.130876,-1.00334 1.59501,0.30075 1.83831,0.28932 2.71702,-0.12765 1.82574,-0.86637 2.26358,-2.44375 1.5261,-5.498 -0.50528,-2.092585 -0.45677,-3.053183 0.2285,-4.52488 0.71023,-1.525278 1.61573,-2.218525 3.91298,-2.99574 2.4302,-0.822193 3.19097,-1.26442 3.74864,-2.179023 0.97769,-1.60347 0.57308,-3.000015 -1.54764,-5.341785 -1.52038,-1.678865 -1.96248,-2.655113 -1.96248,-4.333578 0,-1.709833 0.42772,-2.620205 2.12262,-4.51784 1.56216,-1.749008 1.87787,-2.348125 1.87644,-3.560935 -0.002,-1.791495 -1.08231,-2.689213 -4.87406,-4.050626 -1.60755,-0.577182 -3.21695,-2.160065 -3.64337,-3.583325 -0.26863,-0.896587 -0.26637,-1.396315 0.013,-2.873795 0.78927,-4.174497 0.52198,-5.374103 -1.40071,-6.286482 -0.87316,-0.414338 -1.13209,-0.427563 -2.71702,-0.138767 -3.548306,0.64655 -4.246406,0.634279 -5.749386,-0.101058 -1.55995,-0.763211 -2.37243,-1.893367 -3.10821,-4.323453 -0.59745,-1.973246 -0.92023,-2.510616 -1.84774,-3.076164 -1.56772,-0.955906 -2.96209,-0.574873 -5.21346,1.424664 -3.01237,2.675416 -5.84283,2.763833 -8.61734,0.269184 -2.38029,-2.140196 -3.77338,-2.616921 -5.31604,-1.819183 -0.9541,0.493387 -1.34931,1.171779 -2.03837,3.498989 -0.45761,1.545512 -0.81256,2.219222 -1.59972,3.036384 -1.56628,1.625972 -3.09854,1.909427 -6.50905,1.204118 -2.2408,-0.463406 -3.32098,-0.327407 -4.3629,0.549305 -1.17058,0.98498 -1.33638,2.032346 -0.74325,4.695156 0.9965,4.473705 0.0653,6.110825 -4.53835,7.978378 -2.87188,1.165037 -3.73307,1.996422 -3.73307,3.603855 0,1.118947 0.29931,1.647117 1.94672,3.435177 1.6107,1.748223 2.05528,2.685215 2.04779,4.315888 -0.007,1.526878 -0.60241,2.81541 -2.16967,4.69553 -1.57044,1.883923 -1.82484,2.371303 -1.82484,3.49598 0,1.962043 0.90739,2.875906 3.83973,3.867098 2.43508,0.82311 3.28248,1.38488 4.09086,2.711968 0.78884,1.295005 0.92411,2.645572 0.46379,4.63044 -0.59749,2.57633 -0.52638,3.97428 0.24904,4.89582 0.98516,1.17079 2.13185,1.40845 4.46629,0.92568 1.06907,-0.22109 2.40986,-0.39951 2.97953,-0.39649 2.36615,0.0125 4.26086,1.6495 5.19241,4.48606 0.76353,2.32492 1.13521,2.96506 2.04299,3.51857 0.96038,0.58558 2.18356,0.62776 3.1851,0.10984 z"
   id="path64" /><path
   style="fill:#91b510;fill-opacity:0.431535;stroke:#ffffff;stroke-width:0.252674;stroke-opacity:0"
   d="m -128.89213,-17.167449 c -1.12367,-0.489244 -1.7501,-1.415936 -2.52012,-3.72806 -0.84834,-2.547322 -1.97989,-3.792785 -3.97202,-4.371911 -1.21768,-0.353983 -1.55497,-0.354994 -3.35789,-0.01011 -3.09115,0.591496 -3.97672,0.522041 -5.01972,-0.393715 -1.13837,-0.999501 -1.32405,-1.995708 -0.80245,-4.305417 0.22375,-0.990779 0.40432,-2.327547 0.40127,-2.970612 -0.0116,-2.450907 -1.59974,-4.400978 -4.25199,-5.221104 -2.93326,-0.907018 -4.16631,-1.87533 -4.47355,-3.513054 -0.20612,-1.098706 0.29981,-2.216951 1.83598,-4.057973 2.97451,-3.564796 3.0424,-5.746425 0.27669,-8.89219 -1.95651,-2.225377 -2.37043,-3.144645 -1.98907,-4.417495 0.35732,-1.192619 1.48572,-2.076319 3.5349,-2.768333 4.3615,-1.47289 5.82995,-4.071185 4.69358,-8.304874 -0.64299,-2.395487 -0.52571,-3.197497 0.63766,-4.360853 l 1.01666,-1.01666 2.0786,0.205622 c 1.14322,0.113092 2.99686,0.214432 4.11919,0.2252 1.82127,0.01748 2.15341,-0.05513 3.09027,-0.675552 1.16937,-0.774395 1.84297,-1.918133 2.61304,-4.436814 0.58771,-1.92222 1.18439,-2.69091 2.40023,-3.092174 1.1871,-0.391774 2.19935,-0.001 4.02115,1.551702 2.10071,1.790606 3.2381,2.330507 4.91164,2.331467 1.66675,9.56e-4 2.63885,-0.451322 4.60144,-2.140858 0.79367,-0.683229 1.8572,-1.415302 2.36342,-1.626809 1.92864,-0.805823 3.5617,0.255179 4.42167,2.872784 1.00838,3.069322 1.67497,4.03705 3.3845,4.913454 0.88923,0.455871 1.25386,0.491214 3.28477,0.318384 1.25648,-0.106926 3.004595,-0.206622 3.884721,-0.221545 1.513894,-0.02567 1.641374,0.01895 2.363184,0.827081 0.840332,0.94083 0.817045,0.468428 0.30924,6.272734 -0.136626,1.561683 -0.08065,1.983382 0.393627,2.963004 0.760308,1.57057 1.597964,2.197879 4.368157,3.27123 2.465527,0.955306 3.244563,1.537919 3.714396,2.777865 0.46575,1.229144 0.07085,2.231969 -1.73736,4.411516 -3.019966,3.640237 -3.044495,5.516742 -0.11813,9.036596 1.8753,2.255622 2.287028,3.250097 1.869458,4.515352 -0.407695,1.235321 -1.447441,2.006581 -3.729759,2.766657 -4.335198,1.44374 -5.501258,3.653967 -4.482578,8.496569 0.467539,2.222557 0.213844,3.445946 -0.910838,4.392296 -0.910205,0.76588 -1.865668,0.820569 -4.913748,0.281244 -4.10413,-0.72616 -6.16083,0.577023 -7.52589,4.768596 -1.36013,4.176443 -3.46547,4.693189 -6.93884,1.703083 -1.98825,-1.711623 -2.94425,-2.160491 -4.60144,-2.160491 -1.65719,0 -2.61319,0.448868 -4.60145,2.160491 -1.37125,1.180466 -2.83148,1.994435 -3.53919,1.972826 -0.17818,-0.0051 -0.67471,-0.16261 -1.10341,-0.349264 z"
   id="path65" /><path
   style="fill:#7b9a0e;fill-opacity:0.431535;stroke:#ffffff;stroke-width:0.25;stroke-opacity:0"
   d="m -126.97103,13.442431 c -1.76034,-0.41562 -3.17381,-2.03815 -5.1557,-5.9182301 -1.42809,-2.795875 -3.54715,-5.162035 -5.375,-6.001745 -1.29529,-0.59505999 -3.38137,-1.07950999 -4.64843,-1.07950999 -1.16207,0 -4.10157,0.74902999 -4.10157,1.04513999 0,0.1289 -0.0959,0.17512 -0.21303,0.10271 -0.11716,-0.0724 -0.6401,0.0861 -1.16209,0.35221 -4.05754,2.06865 -7.35831,1.99511 -9.77617,-0.21782 -1.57891,-1.44507999 -1.68844,-1.90680999 -1.72749,-7.28224 -0.0318,-4.38187 -0.0912,-5.0177599 -0.58644,-6.2862099 -0.68074,-1.74339 -1.67103,-3.13547 -2.94026,-4.13317 -1.1356,-0.89267 -2.59286,-1.67759 -2.59835,-1.39954 -0.002,0.10665 -0.0925,0.0543 -0.20089,-0.11638 -0.24633,-0.38787 -2.70627,-0.94641 -5.7373,-1.30267 -2.76966,-0.32554 -4.63218,-1.08606 -5.73455,-2.34159 -0.97548,-1.11101 -1.8766,-3.82605 -1.65507,-4.98665 0.21226,-1.11198 1.191,-3.01555 2.48392,-4.83098 2.80136,-3.933498 3.60982,-7.077158 2.64064,-10.267998 -0.72333,-2.38138 -1.81626,-3.905478 -4.02596,-5.61418 -4.11534,-3.182298 -4.56334,-3.585615 -5.2159,-4.695633 -0.60435,-1.028028 -0.67481,-1.391095 -0.66423,-3.42302 0.0112,-2.148245 0.0551,-2.331878 0.80043,-3.345338 0.96237,-1.308622 2.76676,-2.692492 4.95498,-3.800215 2.33843,-1.183755 4.81265,-3.130858 5.78061,-4.549073 1.22806,-1.799297 1.9296,-4.334485 1.74538,-6.307313 -0.12901,-1.381537 -1.21096,-4.73911 -1.64345,-5.100047 -0.0824,-0.06875 -0.17381,-0.253335 -0.20318,-0.410188 -0.0294,-0.156852 -0.35226,-0.938572 -0.71754,-1.737152 -0.88225,-1.928806 -0.78178,-4.333588 0.24283,-5.812101 0.84047,-1.212795 2.40311,-2.784222 2.40311,-2.41662 0,0.07901 0.25312,0.002 0.5625,-0.171045 0.37616,-0.210445 2.26595,-0.358979 5.70465,-0.448372 l 5.14214,-0.133677 1.68759,-0.856572 c 4.07457,-2.068146 5.58567,-4.670801 6.032,-10.389272 0.21278,-2.72622 0.51585,-3.96818 1.25344,-5.1366 1.20739,-1.91263 2.9381,-2.75005 5.81435,-2.81331 1.04322,-0.0229 4.37936,1.41045 5.31798,2.2849 0.89511,0.83392 4.36002,2.47854 5.89177,2.79653 4.32327,0.89751 8.10121,-0.7548 10.75637,-4.70437 2.37562,-3.53374 3.85135,-4.83339 6.06967,-5.34544 0.96563,-0.2229 1.39931,-0.22289 1.82914,2e-5 0.30987,0.1607 0.82726,0.32911 1.14976,0.37424 1.40897,0.19718 3.3982,2.63852 5.23031,6.41903 1.20967,2.49613 2.67747,3.99549 5.10617,5.21594 3.554246,1.786061 5.289016,1.693047 11.070446,-0.59357 1.59153,-0.62947 3.00349,-1.07662 3.1377,-0.99368 0.13421,0.0829 0.24402,0.054 0.24402,-0.0644 0,-0.33413 3.03496,0.0607 3.875,0.50413 1.68375,0.88879 3.37119,3.17944 3.01875,4.097874 -0.067,0.174741 -0.005,0.390273 0.13899,0.478961 0.17508,0.108207 0.20193,1.305937 0.0816,3.641026 -0.26622,5.167022 0.23833,7.133594 2.4659,9.611181 1.69079,1.880568 4.38248,3.137306 7.419732,3.464236 3.69504,0.397735 4.98739,0.70009 6.25,1.462235 1.85704,1.120962 3.0184,2.969172 3.19855,5.090227 0.12658,1.490425 -0.53394,3.176551 -2.20128,5.619198 -0.5485,0.803553 -0.99727,1.574778 -0.99727,1.713833 0,0.139055 -0.0959,0.252827 -0.21299,0.252827 -0.11715,0 -0.59045,0.815625 -1.05178,1.8125 -0.75188,1.624708 -0.83989,2.046938 -0.84951,4.075181 -0.01,2.117787 0.0488,2.38313 0.91877,4.14366 0.96103,1.944815 2.11053,3.187902 5.05696,5.46866 3.48115,2.694678 4.60544,4.768568 4.27218,7.88054 -0.17755,1.6579 -0.22511,1.750495 -1.59582,3.106951 -0.98383,0.973597 -2.08476,1.7208 -3.62578,2.46083 -4.75226,2.282115 -6.73789,4.341345 -7.57881,7.859696 -0.64952,2.71756 -0.27236,4.74348 1.80376,9.68891 0.49617,1.1819 0.69896,2.13145 0.74746,3.5 0.0807,2.27808 -0.21695,3.07816 -1.75851,4.72622 -1.508,1.61217 -2.31474,1.79012 -7.875932,1.7373 -4.2606,-0.0405 -4.41749,-0.0235 -6,0.6474599 -3.03517,1.28694 -4.8773,3.15336 -5.73419,5.80977 -0.53083,1.64564 -0.94724,3.78167001 -0.99076,5.08233001 -0.0161,0.48124999 -0.16158,1.49374999 -0.32327,2.24999999 -0.16169,0.75625 -0.27324,1.45937 -0.24788,1.5625 0.0254,0.10312 -0.0664,0.1875 -0.2039,0.1875 -0.1375,0 -0.25,0.1741 -0.25,0.3869 0,0.2128 -0.53803,0.92493 -1.19561,1.582525 -0.96821,0.96821 -1.50536,1.27945 -2.82413,1.63643 -1.37139,0.37121 -1.80409,0.39354 -2.74049,0.14139 -1.37965,-0.3715 -2.6571,-1.0163 -4.484026,-2.263355 -2.4189,-1.65113 -5.06989,-2.77655 -6.88314,-2.9221 -4.26267,-0.34217 -7.24234,1.39889 -10.37666,6.063215 -2.3127,3.4416201 -4.89345,4.6587501 -8.21525,3.8744801 z m 11.77404,-16.7604951 c 1.42946,-0.397 2.25385,-1.26018 3.5694,-3.73737 1.20205,-2.26348 2.74839,-4.2820199 3.64993,-4.7645099 0.36002,-0.19267 0.79265,-0.10193 1.81109,0.37987 1.70931,0.80863 3.19818,0.82239 4.56243,0.0422 l 1.02258,-0.58482 1.727416,0.69975 c 2.40489,0.97419 4.17908,0.97824 5.51213,0.0126 1.86345,-1.34988 1.9631,-1.65956 1.9827,-6.16166 0.0157,-3.61331 0.0706,-4.10272 0.56758,-5.0625 0.53049,-1.02451 0.59279,-1.0625 1.74211,-1.0625 1.69638,0 3.24572,-0.84929 4.16826,-2.28488 0.70462,-1.09648 0.82079,-1.16869 2.125,-1.3209 2.98992,-0.34894 4.30345,-1.06348 5.12061,-2.7855 0.88173,-1.85813 0.59785,-3.07601 -1.51314,-6.491553 -1.25186,-2.02548 -1.85283,-3.572805 -1.85283,-4.770467 0,-0.698151 0.15871,-0.941711 0.9375,-1.438658 0.51562,-0.329023 1.20017,-0.882228 1.52123,-1.229345 0.66155,-0.715263 1.12093,-2.399248 0.89743,-3.289755 -0.12761,-0.508448 0.0912,-0.785615 1.48486,-1.88085 2.45454,-1.928945 3.20496,-3.480483 2.66079,-5.501348 -0.40053,-1.487485 -1.681,-2.75898 -4.05372,-4.02532 -2.35316,-1.255903 -5.29164,-3.864596 -4.73834,-4.206556 0.18312,-0.113177 0.34211,-0.3057 0.3533,-0.427825 0.0112,-0.122127 0.23932,-0.71705 0.50694,-1.32205 0.62232,-1.406857 0.47424,-2.967045 -0.38903,-4.098845 l -0.63081,-0.827037 0.71299,-1.67132 c 0.39214,-0.919228 0.78804,-2.071381 0.87977,-2.560343 0.35636,-1.899608 -1.2768,-4.284028 -3.32358,-4.852423 -0.51938,-0.144235 -2.41112,-0.262872 -4.20386,-0.263637 -2.88142,-0.0012 -3.38893,-0.06665 -4.375,-0.563895 -0.95213,-0.480128 -1.1041,-0.660158 -1.03778,-1.229378 0.20699,-1.77681 -1.03198,-3.933225 -2.58183,-4.49366 -0.76589,-0.276948 -0.86873,-0.427078 -0.99275,-1.449208 -0.539,-4.442445 -1.79271,-6.015255 -4.794826,-6.015255 -1.02867,0 -1.62025,0.231332 -3.83722,1.500518 -2.57041,1.471516 -4.52595,2.249482 -5.65443,2.249482 -0.39014,0 -0.80607,-0.346574 -1.33021,-1.108392 -1.14084,-1.658147 -2.08574,-2.231518 -3.72141,-2.258166 -1.36042,-0.02216 -1.38819,-0.03794 -2.5203,-1.4315 -2.0154,-2.480855 -3.52666,-3.238617 -5.43446,-2.7249 -1.57325,0.423633 -2.22672,1.104691 -3.57543,3.726416 -1.40696,2.734956 -2.46167,4.129517 -3.54803,4.691295 -0.69911,0.361527 -0.81933,0.346387 -2.02659,-0.255215 -1.71181,-0.85303 -3.52403,-0.871224 -4.73776,-0.04756 l -0.87232,0.591972 -1.47506,-0.63084 c -2.1524,-0.920509 -4.63476,-0.925839 -6.01571,-0.01291 -1.56935,1.037465 -1.79231,1.768453 -1.85676,6.08727 -0.0308,2.061148 -0.15638,4.114231 -0.27917,4.562406 -0.27693,1.010827 -0.96362,1.45464 -2.56513,1.657862 -1.54638,0.196228 -2.92615,1.08579 -3.47363,2.239513 -0.45406,0.956857 -0.50026,0.979115 -2.92846,1.41071 -3.30002,0.586552 -4.82707,2.157845 -4.6642,4.799343 0.0765,1.2401 0.26842,1.693865 1.49857,3.54236 1.7292,2.5984 2.18442,3.65244 2.18442,5.057955 0,0.994638 -0.0935,1.155945 -1.10578,1.90697 -1.36012,1.00913 -2.18122,2.39463 -2.27178,3.833323 -0.0625,0.99354 -0.23453,1.2512 -1.9448,2.913515 -2.22875,2.166255 -2.65634,3.203138 -2.16519,5.250475 0.39983,1.666708 1.32548,2.535688 4.45193,4.179386 2.45396,1.290145 4.28562,2.861035 4.28562,3.675495 0,0.174225 -0.28125,0.845732 -0.625,1.492235 -0.41191,0.77469 -0.625,1.577062 -0.625,2.353342 0,0.84414 0.17709,1.438828 0.625,2.098868 0.34375,0.50655 0.62459,1.00037 0.62408,1.09739 -5.1e-4,0.097 -0.33413,1.02015 -0.74139,2.0514 -0.40727,1.03125 -0.74435,2.26135 -0.74909,2.73357 -0.013,1.29941 0.90451,2.95182 2.06583,3.72042 0.98202,0.64993 1.13241,0.67182 4.78838,0.69689 3.2495,0.0223 3.93884,0.0986 4.95586,0.54844 1.06421,0.47075 1.18147,0.60451 1.18272,1.34912 0.004,2.06598 1.33517,4.21277 2.8489,4.59269 0.49492,0.12422 0.59774,0.38185 0.82334,2.06291 0.33357,2.4856399 0.80829,3.5660399 1.94929,4.4363199 0.70073,0.53447 1.27446,0.73148 2.35866,0.8099 1.55988,0.11283 2.26159,-0.15249 4.94767,-1.87075 1.60553,-1.0270499 3.71591,-1.8295099 4.81137,-1.8295099 0.59769,0 0.87605,0.19347 1.34882,0.9374999 0.32764,0.51562 0.81129,1.13008 1.07478,1.36546 0.8233,0.73546 2.35286,1.24948 3.22898,1.08512 0.75813,-0.14223 0.88897,-0.0549 1.95945,1.30764 2.08357,2.65205 3.57678,3.38353 5.70209,2.79327 z"
   id="path66" /><path
   style="fill:#68870e;fill-opacity:0.771784;stroke:#1f1000;stroke-width:0.25;stroke-opacity:0"
   d="m 36.875006,62.993965 c -3.11029,-0.572135 -5.85598,-1.504705 -8.86477,-3.010907 -2.66041,-1.331803 -5.97789,-3.603281 -7.24131,-4.958123 l -0.60608,-0.649933 h 1.64224 c 5.53395,0 11.00005,-4.60002 11.58572,-9.75 0.47071,-4.139223 -2.59975,-9.77075 -8.56846,-15.715383 l -2.85188,-2.840383 0.6105,-0.922535 c 2.7356,-4.133776 10.47776,-12.313837 15.28344,-16.1478826 8.62944,-6.884711 16.8064,-10.591132 19.87029,-9.00673245 1.10751,0.57271303 1.93115,1.48946125 2.70243,3.00791425 2.23052,4.3913089 3.33539,11.0206498 3.34477,20.0689928 0.0214,20.686039 -6.61339,36.13159 -16.96097,39.484252 -2.47177,0.800863 -6.91721,0.997848 -9.94592,0.44072 z"
   id="path2" /><path
   style="fill:#4b660a;fill-opacity:0.692946;stroke:#1f1000;stroke-width:0.0883884;stroke-opacity:0"
   d="M 20.405556,54.250226 C 16.228266,53.63666 12.166876,50.156296 8.3098258,43.884909 4.0156258,36.902736 0.59349181,27.072807 0.07181481,20.221604 c -0.193064,-2.535508 0.156466,-4.25445 0.99066899,-4.871987 1.004972,-0.743952 3.912712,-0.02389 7.723062,1.912523 7.3394802,3.729898 15.6126102,10.441236 20.1619302,16.355764 2.33614,3.037204 3.80706,5.995903 4.25258,8.55391 0.18647,1.070658 0.12496,2.646754 -0.14393,3.687876 -0.75688,2.930602 -3.09034,5.649474 -6.17998,7.20072 -2.05284,1.030689 -4.49572,1.479887 -6.47059,1.189816 z"
   id="path6" /></svg>
