<?xml version="1.0" encoding="UTF-8" standalone="no"?>
<svg
   width="20.719862mm"
   height="21.559967mm"
   viewBox="0 0 20.719861 21.559968"
   version="1.1"
   id="svg2430"
   xml:space="preserve"
   sodipodi:docname="porta_potty_door_particle.svg"
   inkscape:version="1.3 (0e150ed6c4, 2023-07-21)"
   xmlns:inkscape="http://www.inkscape.org/namespaces/inkscape"
   xmlns:sodipodi="http://sodipodi.sourceforge.net/DTD/sodipodi-0.dtd"
   xmlns="http://www.w3.org/2000/svg"
   xmlns:svg="http://www.w3.org/2000/svg"><sodipodi:namedview
     id="namedview1"
     pagecolor="#ffffff"
     bordercolor="#000000"
     borderopacity="0.25"
     inkscape:showpageshadow="2"
     inkscape:pageopacity="0.0"
     inkscape:pagecheckerboard="0"
     inkscape:deskcolor="#d1d1d1"
     inkscape:document-units="mm"
     inkscape:zoom="7.1243058"
     inkscape:cx="35.863144"
     inkscape:cy="44.565746"
     inkscape:window-width="1920"
     inkscape:window-height="1017"
     inkscape:window-x="-8"
     inkscape:window-y="-8"
     inkscape:window-maximized="1"
     inkscape:current-layer="svg2430" /><defs
     id="defs2424" /><path
     d=""
     fill="#1c71d8"
     stroke="#0d3565"
     stroke-width="2.81101"
     id="path3511"
     style="mix-blend-mode:normal;fill-rule:nonzero;stroke-linecap:butt;stroke-linejoin:miter;stroke-miterlimit:10;stroke-dasharray:none;stroke-dashoffset:0" /><path
     id="path11"
     style="fill:#f5f9fd;stroke:#a6a6a6;stroke-width:1.05833;stroke-linecap:square;stroke-linejoin:miter;stroke-miterlimit:10;fill-opacity:1;stroke-opacity:1"
     d="m 3.7168667,3.2991267 0.56337,3.081033 -3.597812,-2.435167 0.348508,2.58414 13.2343823,13.9505483 0.558142,-2.436791 2.394166,0.872907 -0.161782,-3.037006 2.687547,-0.803243 -13.1308863,-13.8414513 -0.17328,2.397384 z" /><path
     style="fill:#aa4400;stroke-width:0.140365"
     d="M 29.261957,48.489255 5.825129,23.784329 5.5150087,21.577318 C 5.3444426,20.363463 5.2185963,19.32149 5.2353504,19.261823 c 0.016754,-0.05967 3.0934364,1.968141 6.8370716,4.50624 3.743636,2.5381 6.82672,4.563632 6.851298,4.501181 0.02458,-0.06245 -0.500802,-3.091342 -1.167511,-6.730873 -0.666709,-3.63953 -1.187611,-6.641914 -1.157561,-6.671965 0.03005,-0.03005 2.10295,0.196698 4.606443,0.503885 2.503493,0.307187 4.653095,0.559099 4.776892,0.559804 0.192198,0.0011 0.251502,-0.383282 0.405857,-2.630554 0.09942,-1.447509 0.219206,-2.910487 0.266187,-3.251062 l 0.08542,-0.6192277 22.084272,23.2776137 22.084273,23.277615 -4.257975,1.278492 -4.257974,1.278492 0.03653,0.837466 c 0.02009,0.460604 0.134096,2.692071 0.253344,4.958814 0.11925,2.266743 0.197558,4.136925 0.174018,4.155961 -0.02354,0.01904 -1.811392,-0.615801 -3.973006,-1.410749 -2.161614,-0.794949 -4.024953,-1.448714 -4.140754,-1.452811 -0.16188,-0.0057 -0.402168,0.843973 -1.039541,3.675988 -0.455948,2.025888 -0.868338,3.729473 -0.916422,3.785743 -0.04808,0.05627 -10.634001,-11.014911 -23.524256,-24.602621 z"
     id="path1"
     transform="scale(0.26458333)" /><path
     style="fill:#803300;stroke-width:0.140365"
     d="M 28.484095,53.476206 2.035286,25.595677 1.0380067,18.272055 C 0.48950313,14.244064 0.0587656,10.926497 0.0808122,10.899684 c 0.02204661,-0.02681 2.9922093,1.946974 6.6003617,4.386194 3.6081521,2.439222 6.5835871,4.411637 6.6120781,4.383146 0.02849,-0.02849 -0.331872,-2.15258 -0.800807,-4.720199 -0.468934,-2.567619 -0.830408,-4.690598 -0.803275,-4.71773 0.02713,-0.02713 2.092785,0.203686 4.590338,0.512932 2.497552,0.309245 4.923431,0.576493 5.390841,0.593883 l 0.849835,0.03162 0.381318,-5.1934886 c 0.209724,-2.8564187 0.40109,-5.39912807 0.425256,-5.65046529 0.04193,-0.43605604 1.297007,0.86392279 27.415028,28.39578789 15.054099,15.869019 27.388332,28.901321 27.409409,28.96067 0.02108,0.05935 -2.584441,0.888303 -5.790038,1.842123 -5.261684,1.565607 -5.827926,1.762549 -5.823905,2.025598 0.0025,0.160259 0.15352,3.039015 0.335713,6.397237 0.182192,3.358222 0.312419,6.126274 0.289392,6.151227 -0.03116,0.03376 -7.976204,-2.822695 -9.483283,-3.409492 -0.187228,-0.0729 -0.400481,0.698169 -1.38498,5.007727 -0.64002,2.801642 -1.208116,5.176332 -1.262433,5.277087 -0.06571,0.121883 -8.950737,-9.147959 -26.547566,-27.697334 z m 24.394653,19.478271 c 0.0424,-0.494684 1.57658,-6.779614 1.720655,-7.048817 0.16232,-0.3033 -0.05869,-0.369868 6.288541,1.894111 1.025558,0.365804 1.897389,0.632359 1.937403,0.592346 0.04001,-0.04001 -0.02532,-1.937434 -0.145184,-4.216488 -0.119865,-2.279055 -0.217937,-4.482881 -0.217937,-4.897391 v -0.753657 l 4.201868,-1.253138 C 69.488059,56.429241 70.834415,55.966795 70.769757,55.86123 70.607009,55.595507 26.778977,9.4584722 26.732989,9.5044603 c -0.02373,0.023734 -0.144563,1.3057987 -0.268504,2.8490327 -0.303069,3.773534 -0.263073,3.616512 -0.896412,3.519311 -0.693635,-0.106455 -7.669311,-0.898044 -8.373415,-0.950203 -0.54747,-0.04056 -0.560357,-0.03113 -0.517231,0.378319 0.02432,0.23095 0.517987,3.090514 1.097028,6.354587 0.57904,3.264072 1.032868,6.069016 1.008506,6.233208 -0.03851,0.259558 -0.871565,-0.252718 -6.380957,-3.923886 -3.4851652,-2.32233 -6.379285,-4.291381 -6.4313773,-4.375668 -0.052092,-0.08429 -0.1468942,-0.121 -0.2106709,-0.08158 -0.063777,0.03942 -0.1521757,-0.02272 -0.1964425,-0.138074 -0.1428775,-0.372333 -0.3966261,-0.232959 -0.3209068,0.176261 0.039283,0.212302 0.1815732,1.249302 0.3162008,2.304445 l 0.2447776,1.918442 4.6428021,4.892605 c 16.469443,17.355563 28.571704,30.108379 32.607929,34.360765 2.565537,2.702933 5.336431,5.609228 6.157544,6.458433 0.821115,0.849206 1.486942,1.575592 1.479618,1.614193 -0.01698,0.08947 1.981628,2.105468 2.087302,2.105468 0.0434,0 0.08839,-0.110537 0.09997,-0.245638 z"
     id="path2"
     transform="scale(0.26458333)" /></svg>
