<?xml version="1.0" encoding="UTF-8" standalone="no"?>
<svg
   width="20.719862mm"
   height="21.559967mm"
   viewBox="0 0 20.719861 21.559968"
   version="1.1"
   id="svg2430"
   xml:space="preserve"
   sodipodi:docname="porta_potty_wall_particle.svg"
   inkscape:version="1.3 (0e150ed6c4, 2023-07-21)"
   xmlns:inkscape="http://www.inkscape.org/namespaces/inkscape"
   xmlns:sodipodi="http://sodipodi.sourceforge.net/DTD/sodipodi-0.dtd"
   xmlns="http://www.w3.org/2000/svg"
   xmlns:svg="http://www.w3.org/2000/svg"><sodipodi:namedview
     id="namedview1"
     pagecolor="#ffffff"
     bordercolor="#000000"
     borderopacity="0.25"
     inkscape:showpageshadow="2"
     inkscape:pageopacity="0.0"
     inkscape:pagecheckerboard="0"
     inkscape:deskcolor="#d1d1d1"
     inkscape:document-units="mm"
     inkscape:zoom="10.07529"
     inkscape:cx="39.1552"
     inkscape:cy="40.743244"
     inkscape:window-width="1920"
     inkscape:window-height="1017"
     inkscape:window-x="-8"
     inkscape:window-y="-8"
     inkscape:window-maximized="1"
     inkscape:current-layer="svg2430" /><defs
     id="defs2424" /><path
     d=""
     fill="#1c71d8"
     stroke="#0d3565"
     stroke-width="2.81101"
     id="path3511"
     style="mix-blend-mode:normal;fill-rule:nonzero;stroke-linecap:butt;stroke-linejoin:miter;stroke-miterlimit:10;stroke-dasharray:none;stroke-dashoffset:0" /><path
     style="fill:#552200;stroke-width:0.0267837"
     d="M 7.8459832,12.981778 C 4.4536937,9.4152382 1.5983124,6.4100834 1.5006914,6.3036564 L 1.3231988,6.110153 1.2410139,5.4954675 C 1.1958122,5.1573904 1.1617973,4.8778212 1.1654253,4.874202 1.1690535,4.8705858 2.0018864,5.4281599 3.0161658,6.1132617 4.0304452,6.7983634 4.8661219,7.3531035 4.8732256,7.3460173 4.8803329,7.3389314 4.7369741,6.5193271 4.5546595,5.5246755 4.2369407,3.7913032 4.2254581,3.7162045 4.2780987,3.7159145 4.3083047,3.7157483 4.891726,3.7833765 5.5745898,3.8661999 6.2574534,3.9490229 6.8206513,4.0123073 6.826141,4.0068311 6.831641,4.0013511 6.864322,3.6056937 6.89879,3.1275835 6.933257,2.6494732 6.970442,2.2612757 6.981421,2.2649226 7.01695,2.2767226 18.912908,14.794918 18.900425,14.80737 c -0.0067,0.0066 -0.520568,0.16388 -1.142054,0.349453 l -1.129978,0.337407 6.75e-4,0.163388 c 3.79e-4,0.08987 0.02985,0.692751 0.06549,1.339746 0.03565,0.646997 0.06077,1.180396 0.05582,1.185331 -0.0049,0.0049 -0.507191,-0.172185 -1.116099,-0.3936 -0.6089,-0.221415 -1.113032,-0.396652 -1.120285,-0.389417 -0.0073,0.0072 -0.11872,0.471542 -0.247704,1.031793 -0.128985,0.56025 -0.238564,1.022302 -0.243512,1.026781 -0.0049,0.0045 -2.784503,-2.909933 -6.1767931,-6.476474 z"
     id="path1" /><path
     style="fill:#2b1100;stroke-width:0.0992527"
     d="M 28.485457,53.455068 2.0346809,25.572525 1.0676774,18.443668 C 0.53582536,14.522796 0.11151995,11.218133 0.12477642,11.099971 c 0.0207664,-0.185103 0.93615868,0.402622 6.61320398,4.245988 3.6240056,2.453456 6.6017466,4.448182 6.6172036,4.432726 0.01546,-0.01546 -0.365488,-2.171802 -0.846545,-4.791878 -0.481056,-2.620077 -0.868303,-4.770732 -0.860546,-4.779233 0.0078,-0.0085 2.435387,0.279815 5.394734,0.640702 2.959347,0.360886 5.404705,0.632083 5.43413,0.602658 0.02942,-0.02942 0.232255,-2.5285945 0.450735,-5.5537111 0.21848,-3.0251166 0.408281,-5.56837222 0.42178,-5.65167918 0.01405,-0.0867262 3.588093,3.60513728 8.361775,8.63743768 4.585476,4.8338976 16.912664,17.8269196 27.393752,28.8733806 10.481089,11.046461 19.067519,20.112095 19.080958,20.145853 0.01344,0.03376 -2.577057,0.837177 -5.756658,1.785375 -3.179601,0.948198 -5.812157,1.752145 -5.850125,1.786549 -0.03797,0.0344 0.08412,2.898699 0.271303,6.365101 0.187186,3.466401 0.341075,6.35155 0.341978,6.411441 9.03e-4,0.05989 -2.175715,-0.685077 -4.836929,-1.655485 -2.661213,-0.970407 -4.865563,-1.734029 -4.898555,-1.696936 -0.03299,0.03709 -0.591287,2.400995 -1.240659,5.253117 -0.649371,2.852122 -1.20304,5.185802 -1.230376,5.185955 C 54.9586,81.337485 43.033384,68.790466 28.485457,53.455068 Z m 25.05841,16.518105 c 0.939385,-4.026071 1.020469,-4.317493 1.201293,-4.317493 0.07814,0 1.907503,0.631417 4.06525,1.403148 2.157748,0.771732 3.95241,1.373916 3.988139,1.338187 0.03573,-0.03573 -0.04167,-2.251064 -0.172005,-4.922968 -0.130331,-2.671904 -0.214205,-4.880768 -0.186388,-4.908586 0.04142,-0.04142 6.757803,-2.103094 8.054094,-2.472298 0.204709,-0.0583 0.372198,-0.135359 0.372198,-0.171233 0,-0.03587 -0.346144,-0.3984 -0.769209,-0.805614 C 69.201648,54.254281 69.044205,54.089992 64.408023,49.179727 55.228869,39.457915 35.396245,18.543459 30.771935,13.708851 29.159585,12.023178 27.583574,10.357319 27.269687,10.006943 26.9558,9.6565658 26.695564,9.3831949 26.691384,9.3994516 c -0.0042,0.016257 -0.02506,0.2894833 -0.0464,0.6071704 -0.161357,2.402112 -0.469493,5.788591 -0.532578,5.853153 -0.04224,0.04323 -2.178254,-0.168927 -4.746704,-0.47145 -4.570463,-0.538328 -5.075031,-0.589061 -4.814691,-0.484103 0.06858,0.02765 0.09726,0.09465 0.06374,0.148884 -0.03352,0.05424 -0.01256,0.284909 0.04658,0.5126 0.09716,0.37407 1.660667,9.055736 2.052973,11.399522 0.08847,0.528557 0.145625,1.040097 0.127011,1.136756 -0.03384,0.175705 -0.571781,-0.176201 -11.2057497,-7.33046 l -2.4385916,-1.640622 0.2756172,2.096744 c 0.1515895,1.15321 0.2775197,2.177734 0.2798448,2.276722 0.00233,0.09899 0.3287131,0.523293 0.7253066,0.942901 9.6257617,10.184353 39.0164947,41.159427 43.2936147,45.627407 1.203098,1.256785 2.366106,2.491952 2.584462,2.744816 0.218356,0.252865 0.403046,0.452839 0.410423,0.444387 0.0074,-0.0085 0.35731,-1.489269 0.77763,-3.290706 z"
     id="path2"
     transform="scale(0.26458333)" /></svg>
