<?xml version="1.0" encoding="UTF-8" standalone="no"?>
<svg
   width="37.088444mm"
   height="52.731255mm"
   viewBox="0 0 37.088443 52.731256"
   version="1.1"
   id="svg2430"
   xml:space="preserve"
   sodipodi:docname="porta_potty_particle.svg"
   inkscape:version="1.3 (0e150ed6c4, 2023-07-21)"
   xmlns:inkscape="http://www.inkscape.org/namespaces/inkscape"
   xmlns:sodipodi="http://sodipodi.sourceforge.net/DTD/sodipodi-0.dtd"
   xmlns="http://www.w3.org/2000/svg"
   xmlns:svg="http://www.w3.org/2000/svg"><sodipodi:namedview
     id="namedview1"
     pagecolor="#ffffff"
     bordercolor="#000000"
     borderopacity="0.25"
     inkscape:showpageshadow="2"
     inkscape:pageopacity="0.0"
     inkscape:pagecheckerboard="0"
     inkscape:deskcolor="#d1d1d1"
     inkscape:document-units="mm"
     inkscape:zoom="4.1194339"
     inkscape:cx="70.033895"
     inkscape:cy="99.649615"
     inkscape:window-width="1920"
     inkscape:window-height="1017"
     inkscape:window-x="-8"
     inkscape:window-y="-8"
     inkscape:window-maximized="1"
     inkscape:current-layer="svg2430" /><defs
     id="defs2424" /><path
     d=""
     fill="#1c71d8"
     stroke="#0d3565"
     stroke-width="2.81101"
     id="path3511"
     style="mix-blend-mode:normal;fill-rule:nonzero;stroke-linecap:butt;stroke-linejoin:miter;stroke-miterlimit:10;stroke-dasharray:none;stroke-dashoffset:0" /><path
     d="M 6.2938646,5.8377028 7.2993266,15.316195 1.9258428,9.8088178 1.1252507,13.078503 17.490276,43.213441 23.2243,50.221753 24.882669,39.410278 29.56727,43.829556 26.90385,35.017312 34.379944,39.296703 14.113573,1.9777261 9.3664796,1.2910392 12.626992,11.320894 Z"
     style="fill:#e7e7e7;stroke:#929292;stroke-width:2.11667;stroke-linecap:square;stroke-dasharray:none;stroke-opacity:1"
     id="path3" /><path
     style="fill:#552200;stroke-width:0.242752"
     d="M 77.233646,170.5603 69.382786,160.94445 38.965723,104.92005 8.548661,48.895653 8.9128553,47.266497 c 0.2003068,-0.896038 0.4455849,-1.716896 0.5450624,-1.824129 0.099478,-0.107233 5.3563933,5.114967 11.6820353,11.604893 6.325642,6.489926 11.530116,11.711864 11.565495,11.604306 0.03538,-0.107556 -0.805676,-8.382844 -1.869016,-18.389527 -1.063339,-10.006681 -1.903255,-18.224056 -1.866479,-18.260831 0.03677,-0.03678 6.066322,5.126211 13.398993,11.473301 7.33267,6.347093 13.359641,11.451176 13.393267,11.342406 C 55.795842,54.708148 52.553828,44.57286 48.557743,32.294057 44.561655,20.015253 41.322552,9.9385368 41.359734,9.9013549 c 0.03718,-0.037182 2.167854,0.2322901 4.734825,0.5988271 l 4.667224,0.666431 34.332378,63.220273 C 103.97697,109.15804 119.3907,137.643 119.34689,137.68681 c -0.0438,0.0438 -5.51876,-3.03825 -12.16656,-6.849 -6.6478,-3.81075 -12.117476,-6.89782 -12.154836,-6.86014 -0.03736,0.0377 1.830798,6.34419 4.151456,14.01447 2.32066,7.67028 4.18687,13.97847 4.14714,14.0182 -0.0397,0.0397 -2.73863,-2.43561 -5.997564,-5.50077 -3.25893,-3.06516 -5.990871,-5.49539 -6.070975,-5.40052 -0.08011,0.0949 -1.430589,8.63847 -3.001075,18.98576 -1.570487,10.3473 -2.926203,19.09858 -3.0127,19.4473 -0.143063,0.57676 -0.86643,-0.23456 -8.00813,-8.98181 z"
     id="path1"
     transform="scale(0.26458333)" /><path
     style="fill:#2b1100;stroke-width:0.242752"
     d="M 76.470915,182.23108 62.796583,165.51428 31.421502,107.74271 0.04642189,49.971148 2.574606,39.689786 c 1.3905012,-5.654748 2.5582505,-10.311429 2.5949983,-10.348177 0.036748,-0.03675 3.8862728,3.865495 8.5544997,8.671651 5.98893,6.165881 8.508335,8.608991 8.557826,8.298672 0.03858,-0.241888 -0.703035,-7.700563 -1.648027,-16.574836 -0.944991,-8.874273 -1.686603,-16.332168 -1.648026,-16.5731 0.05189,-0.324062 2.691748,1.832172 10.144339,8.28588 5.54081,4.798165 10.107452,8.635156 10.148094,8.526646 0.04064,-0.10851 -2.082053,-6.814038 -4.7171,-14.901173 C 31.926164,6.9882139 29.831347,0.3103364 29.906061,0.23562153 30.072768,0.0689135 55.647452,3.7443109 55.872422,3.967308 56.169376,4.2616572 139.83878,158.46273 139.74981,158.5517 c -0.0483,0.0483 -7.05736,-3.90289 -15.57562,-8.78048 -8.51826,-4.87759 -15.53734,-8.81876 -15.59794,-8.75816 -0.0606,0.0606 2.41936,8.48627 5.51103,18.72369 3.09167,10.23743 5.58674,18.64277 5.5446,18.67853 -0.0421,0.0358 -5.15122,-4.72665 -11.35352,-10.58315 -6.2023,-5.8565 -11.346123,-10.56673 -11.430732,-10.46719 -0.08461,0.0995 -1.556818,9.41162 -3.271581,20.69351 -1.714764,11.28189 -3.188188,20.59733 -3.274275,20.70097 -0.08609,0.10365 -6.309974,-7.3341 -13.830857,-16.52834 z m 11.661088,-21.39217 c 1.474844,-9.53751 2.794722,-17.8687 2.933066,-18.51377 l 0.25153,-1.17285 0.767984,0.63353 c 1.697711,1.40048 10.842177,9.88443 10.842177,10.05903 0,0.10296 0.16953,0.25227 0.37674,0.33178 0.25899,0.0994 0.31706,0.0506 0.18578,-0.15609 -0.10502,-0.16537 -0.20206,-0.35528 -0.21564,-0.42204 -0.0136,-0.0668 -0.0913,-0.28523 -0.17273,-0.4855 -0.12394,-0.30482 -5.747526,-19.13947 -7.454267,-24.966 -0.28729,-0.98077 -0.466555,-1.839 -0.398366,-1.90719 0.06819,-0.0682 4.800493,2.52618 10.516223,5.76528 5.71573,3.23909 10.88381,6.1676 11.48462,6.50781 0.60081,0.34021 1.15665,0.7109 1.23519,0.82377 0.0785,0.11286 0.28308,0.0362 0.45454,-0.17041 0.22806,-0.2748 0.23476,-0.37562 0.0249,-0.37562 -0.15774,0 -0.21929,-0.10924 -0.13677,-0.24275 0.0825,-0.13351 0.0279,-0.24275 -0.12138,-0.24275 -0.14927,0 -0.20389,-0.10924 -0.12137,-0.24275 0.0825,-0.13352 0.0519,-0.24276 -0.0681,-0.24276 -0.1786,0 -0.75584,-0.98782 -0.85111,-1.45651 -0.0136,-0.0668 -0.11855,-0.23061 -0.23329,-0.36412 -0.11474,-0.13352 -6.38554,-11.65816 -13.93511,-25.61032 C 82.0866,68.821318 50.925864,11.425705 50.761924,11.255459 50.51262,10.996562 42.113675,9.9771243 41.661028,10.150821 c -0.267617,0.102694 -0.352541,0.275249 -0.23026,0.467856 0.106551,0.167835 0.20906,0.387083 0.227794,0.487218 0.01873,0.100135 0.06137,0.236683 0.09475,0.30344 0.03338,0.06676 0.08378,0.203304 0.111998,0.303439 0.02822,0.100136 0.122075,0.345922 0.208568,0.546192 0.187414,0.433955 10.20957,31.498867 12.168585,37.71804 0.751836,2.386815 1.31771,4.38893 1.257495,4.449145 C 55.439748,54.486361 53.988,53.35763 52.27386,51.917852 47.155098,47.61839 30.266098,33.105743 29.666584,32.49152 29.360775,32.178208 29.08244,31.921862 29.048062,31.921862 c -0.08143,0 0.07411,1.581598 1.790416,18.206385 0.792558,7.677026 1.509367,14.941374 1.592908,16.142995 L 32.583278,68.456008 21.510803,57.411801 C 15.420941,51.337489 10.438328,46.247527 10.438328,46.100779 c 0,-0.251739 -0.9499463,-1.257049 -0.9895809,-1.047256 -0.041999,0.22231 -0.2013755,0.906758 -0.5411872,2.324152 l -0.3590367,1.497582 30.4073028,56.014213 30.407305,56.01422 6.768306,8.24996 c 3.722567,4.53747 7.257186,8.91423 7.854708,9.72612 l 1.086404,1.47616 0.18896,-1.08805 c 0.10393,-0.59843 1.395653,-8.89147 2.870494,-18.42897 z m 31.389667,-23.19864 c -0.15224,-0.39673 -0.57329,-0.50073 -0.57329,-0.1416 0,0.18425 0.17013,0.30968 0.65995,0.48656 0.0292,0.0105 -0.01,-0.14469 -0.0867,-0.34496 z"
     id="path2"
     transform="scale(0.26458333)" /></svg>
