<?xml version="1.0" encoding="UTF-8" standalone="no"?>
<!-- Created with Inkscape (http://www.inkscape.org/) -->

<svg
   width="57.512466"
   height="48.959297"
   viewBox="0 0 15.216839 12.953813"
   version="1.1"
   id="svg901"
   inkscape:version="1.3 (0e150ed6c4, 2023-07-21)"
   sodipodi:docname="savannahbarrel_particle.svg"
   inkscape:export-xdpi="120.95238"
   inkscape:export-ydpi="120.95238"
   xmlns:inkscape="http://www.inkscape.org/namespaces/inkscape"
   xmlns:sodipodi="http://sodipodi.sourceforge.net/DTD/sodipodi-0.dtd"
   xmlns="http://www.w3.org/2000/svg"
   xmlns:svg="http://www.w3.org/2000/svg"
   xmlns:rdf="http://www.w3.org/1999/02/22-rdf-syntax-ns#"
   xmlns:cc="http://creativecommons.org/ns#"
   xmlns:dc="http://purl.org/dc/elements/1.1/">
  <sodipodi:namedview
     id="namedview903"
     pagecolor="#505050"
     bordercolor="#666666"
     borderopacity="1.0"
     inkscape:pageshadow="2"
     inkscape:pageopacity="0"
     inkscape:pagecheckerboard="true"
     inkscape:document-units="px"
     showgrid="false"
     inkscape:zoom="5.9437713"
     inkscape:cx="19.09562"
     inkscape:cy="13.207103"
     inkscape:window-width="1920"
     inkscape:window-height="1017"
     inkscape:window-x="-8"
     inkscape:window-y="-8"
     inkscape:window-maximized="1"
     inkscape:current-layer="g858"
     width="175px"
     units="px"
     inkscape:showpageshadow="2"
     inkscape:deskcolor="#505050" />
  <defs
     id="defs898" />
  <g
     inkscape:label="Layer 1"
     inkscape:groupmode="layer"
     id="layer1"
     transform="translate(-4.6352054,-4.5704323)">
    <g
       id="g858"
       transform="matrix(0.3673072,0,0,0.3673072,3.8616504e-5,3.8616504e-5)">
      <path
         id="path352"
         style="display:inline;opacity:1;fill:#5f5f5f;fill-opacity:1;stroke:#333333;stroke-width:0;stroke-linejoin:round;stroke-dasharray:none"
         d="m 26.40934,14.711566 -11.521376,6.967675 0.444372,13.865687 10.898082,2.655225 13.935351,7.24119 L 51.778804,34.9583 47.420891,22.215272 34.985109,22.930224 Z" />
      <path
         id="path352-2"
         style="display:inline;fill:#4d4d4d;fill-opacity:1;stroke:#333333;stroke-width:0;stroke-linejoin:round;stroke-dasharray:none"
         d="m 36.602639,29.516887 v 0 l -3.047052,6.564019 -0.357494,5.739843 6.967676,3.620594 L 51.778804,34.9583 47.420891,22.215272 45.268718,31.505653 Z"
         sodipodi:nodetypes="ccccccccc" />
      <path
         id="path352-0"
         style="display:inline;fill:#505050;fill-opacity:0;stroke:#333333;stroke-width:3.96182874;stroke-linejoin:round;stroke-dasharray:none"
         d="m 26.409341,14.711566 -11.521376,6.967675 0.444371,13.865687 10.898083,2.655225 13.935351,7.24119 L 51.778804,34.9583 47.420892,22.215272 34.98511,22.930224 Z" />
      <circle
         style="opacity:1;fill:#888888;fill-opacity:1;stroke:#333333;stroke-width:1.27205;stroke-linejoin:round;stroke-dasharray:none"
         id="path1815"
         cx="25.518703"
         cy="22.215271"
         r="1.9009711" />
      <path
         style="fill:#008080;stroke:#171717;stroke-width:0.0841217;stroke-opacity:0"
         d="M 24.689712,35.654843 C 22.515166,34.518634 20.508864,33.481538 20.231263,33.350185 19.766338,33.130198 18.330071,32.767078 8.2726983,30.326798 l -1.779842,-0.431854 -0.05005,-0.857091 C 6.3192196,26.921445 5.9669657,14.398901 6.0292687,14.336672 c 0.038254,-0.03821 2.9202056,-1.793041 6.4043373,-3.899628 l 6.334784,-3.8301592 5.315167,5.0964782 c 3.79592,3.63974 5.435647,5.158183 5.736676,5.312359 0.716765,0.367099 0.144828,0.384023 13.662117,-0.404275 1.591503,-0.09281 2.901787,-0.158592 2.911741,-0.146175 0.06943,0.0866 0.713826,2.16 0.712958,2.293985 -0.0022,0.337936 -1.738781,7.646054 -1.823612,7.674331 -0.04812,0.01604 -2.747021,-0.580934 -5.997552,-1.326611 -3.250531,-0.745677 -5.941122,-1.324421 -5.979092,-1.286098 -0.03797,0.03832 -1.000778,2.075979 -2.139573,4.528126 l -2.070538,4.458448 -0.123661,2.103042 c -0.136029,2.313376 -0.184937,2.820036 -0.271653,2.81413 -0.03187,-0.0022 -1.837111,-0.933572 -4.011656,-2.069782 z M 18.714132,16.98981 c 0.6954,-0.181129 1.241438,-0.500688 1.719795,-1.006481 1.682352,-1.778838 1.154651,-4.568407 -1.062907,-5.618814 -0.529366,-0.250749 -0.63285,-0.269914 -1.457466,-0.269914 -0.855139,0 -0.91086,0.01148 -1.521806,0.313422 -1.98502,0.98105 -2.616013,3.428094 -1.342539,5.206479 0.843526,1.17797 2.309902,1.728246 3.664923,1.375308 z"
         id="path1"
         transform="matrix(0.7203325,0,0,0.7203325,12.619319,12.442973)" />
      <path
         style="fill:#005b5b;fill-opacity:1;stroke:#171717;stroke-width:0.0841217;stroke-opacity:0"
         d="m 33.261521,40.134352 -4.551173,-2.36372 0.06541,-0.229901 c 0.03598,-0.126445 0.128148,-1.24316 0.204828,-2.481589 l 0.139418,-2.251689 1.54234,-3.322806 c 2.250444,-4.848338 2.630832,-5.636152 2.721356,-5.636152 0.118282,0 2.586749,0.525075 4.344871,0.92421 4.496928,1.02091 7.547786,1.692707 7.572937,1.667556 0.07575,-0.07575 1.730214,-6.997883 1.820939,-7.618653 0.02146,-0.146852 3.801059,10.712064 3.990626,11.465209 0.03534,0.140414 -1.014402,1.125187 -5.828656,5.467909 -3.229469,2.913158 -6.231753,5.622158 -6.671743,6.019999 l -0.799981,0.723346 z"
         id="path2"
         transform="matrix(0.7203325,0,0,0.7203325,12.619319,12.442973)" />
      <path
         style="fill:#001e1e;fill-opacity:1;stroke:#171717;stroke-width:0.0841217;stroke-opacity:0"
         d="M 37.49927,48.451533 C 37.28062,48.381388 36.391033,47.952371 35.522411,47.498162 34.653787,47.043953 33.356347,46.368071 32.63921,45.996204 29.632581,44.437132 26.991184,43.0646 26.203902,42.652266 25.741233,42.409946 23.678149,41.338919 21.619271,40.272206 L 17.875856,38.332727 10.55727,36.555212 C 6.5320481,35.577579 3.0580992,34.719103 2.8373838,34.647489 2.0076834,34.378283 1.3182688,33.597841 1.1004954,32.681271 0.99843326,32.251709 0.38758156,13.740146 0.44122404,12.702373 0.48185514,11.91632 0.71790381,11.373054 1.2335268,10.878889 1.5660015,10.560251 17.610782,0.80893133 18.212343,0.55990359 c 0.213776,-0.0884972 0.567497,-0.1385229 0.96995,-0.13717742 1.132257,0.003785 0.945151,-0.14728765 6.997409,5.64983873 2.974392,2.8490082 5.525376,5.2905141 5.668851,5.4255681 l 0.260864,0.245552 7.394208,-0.431142 c 8.839987,-0.515441 9.347948,-0.529882 9.886095,-0.281051 0.49234,0.22765 1.035658,0.716129 1.289245,1.159115 0.108156,0.188937 1.590952,4.412909 3.295103,9.386603 3.066775,8.950623 3.098447,9.04996 3.097735,9.716053 -6.17e-4,0.576897 -0.03637,0.744397 -0.250453,1.173265 -0.276915,0.554743 0.558447,-0.220417 -11.14328,10.340225 -4.031818,3.638658 -5.978275,5.340937 -6.271154,5.484451 -0.545775,0.267438 -1.360368,0.3359 -1.907646,0.160329 z M 43.112396,37.728571 C 50.906875,30.694426 51.107213,30.506024 51.08307,30.232764 51.0716,30.102982 50.414807,28.13078 49.623519,25.850094 48.832232,23.569408 47.78729,20.520431 47.301425,19.07459 l -0.883391,-2.628802 -0.306891,6.81e-4 c -0.16879,3.75e-4 -2.918869,0.153877 -6.111286,0.341115 -3.192418,0.187239 -6.675468,0.362665 -7.740112,0.389837 -2.240293,0.05718 -2.199908,0.06711 -3.154368,-0.776207 -0.797033,-0.704226 -7.073626,-6.6642689 -9.815351,-9.3203296 l -0.52063,-0.5043623 -1.540352,0.9316743 c -2.762639,1.670969 -6.879262,4.1572846 -9.0875449,5.4886026 l -2.1627812,1.303886 -0.00231,0.672973 c -0.00127,0.370136 0.072092,3.038896 0.1630245,5.930578 0.090932,2.891683 0.1911971,6.084472 0.222811,7.095087 0.054942,1.756345 0.065253,1.840866 0.233514,1.914097 0.096819,0.04214 2.2741262,0.58774 4.8384606,1.212447 2.564334,0.624708 5.549563,1.362076 6.633842,1.638599 l 1.971416,0.502767 4.764645,2.477563 c 2.620555,1.362661 6.618721,3.441906 8.884815,4.620546 l 4.120171,2.14298 0.297975,-0.265802 c 0.163887,-0.146192 2.416277,-2.177469 5.005311,-4.513949 z"
         id="path3"
         transform="matrix(0.7203325,0,0,0.7203325,12.619319,12.442973)" />
      <path
         style="fill:#005b5b;fill-opacity:1;stroke:#171717;stroke-width:0.0841217;stroke-opacity:0"
         d="m 16.767877,16.87669 c -1.179289,-0.437356 -2.008163,-1.398089 -2.263745,-2.623864 -0.328166,-1.573893 0.503164,-3.163631 2.027361,-3.876889 0.530659,-0.248325 0.582694,-0.256104 1.493877,-0.223317 0.832261,0.02995 0.998039,0.06191 1.399782,0.26992 0.669467,0.346624 1.311763,0.9943 1.62908,1.642724 0.254916,0.520912 0.270613,0.606764 0.270613,1.480095 0,0.880384 -0.01411,0.95576 -0.279894,1.495652 -0.355403,0.721925 -0.948019,1.31542 -1.666809,1.669279 -0.499208,0.245759 -0.655843,0.280371 -1.369469,0.302613 -0.63282,0.01972 -0.899168,-0.0095 -1.240796,-0.136213 z m 2.083792,-1.814493 c 0.974082,-0.644617 1.101282,-1.937122 0.272229,-2.766175 -0.381862,-0.381862 -0.753814,-0.505516 -1.383575,-0.459963 -1.524486,0.110272 -2.146037,1.967108 -1.017297,3.039099 0.549514,0.521888 1.496866,0.605129 2.128643,0.187039 z"
         id="path4"
         transform="matrix(0.7203325,0,0,0.7203325,12.619319,12.442973)" />
      <path
         style="fill:#008080;fill-opacity:1;stroke:#171717;stroke-width:0.0297415;stroke-opacity:0"
         d="m 17.460392,15.254686 c -0.605243,-0.162711 -1.110393,-0.682782 -1.254011,-1.29105 -0.02124,-0.08997 -0.03764,-0.284031 -0.03644,-0.431252 0.0052,-0.639175 0.384299,-1.246388 0.94629,-1.515783 0.265632,-0.127332 0.490171,-0.1721 0.862504,-0.171961 0.321144,1.2e-4 0.547113,0.06144 0.823649,0.223498 0.4699,0.275379 0.804794,0.822693 0.845687,1.382098 0.05969,0.81657 -0.51096,1.602805 -1.311251,1.806623 -0.221454,0.0564 -0.662626,0.0553 -0.876432,-0.0022 z"
         id="path5"
         transform="matrix(0.7203325,0,0,0.7203325,12.619319,12.442973)" />
    </g>
  </g>
  <metadata
     id="metadata5819">
    <rdf:RDF>
      <cc:Work
         rdf:about="">
        <dc:creator>
          <cc:Agent>
            <dc:title>Radians</dc:title>
          </cc:Agent>
        </dc:creator>
      </cc:Work>
    </rdf:RDF>
  </metadata>
</svg>
