<?xml version="1.0" encoding="UTF-8" standalone="no"?>
<svg
   width="110"
   height="110"
   viewBox="0 0 110 110"
   fill="none"
   version="1.1"
   id="svg77"
   sodipodi:docname="L86A2.svg"
   inkscape:version="1.3 (0e150ed6c4, 2023-07-21)"
   xml:space="preserve"
   xmlns:inkscape="http://www.inkscape.org/namespaces/inkscape"
   xmlns:sodipodi="http://sodipodi.sourceforge.net/DTD/sodipodi-0.dtd"
   xmlns="http://www.w3.org/2000/svg"
   xmlns:svg="http://www.w3.org/2000/svg"><sodipodi:namedview
     id="namedview79"
     pagecolor="#505050"
     bordercolor="#ffffff"
     borderopacity="1"
     inkscape:pageshadow="0"
     inkscape:pageopacity="0"
     inkscape:pagecheckerboard="1"
     showgrid="false"
     inkscape:zoom="8"
     inkscape:cx="53.4375"
     inkscape:cy="45.8125"
     inkscape:window-width="1920"
     inkscape:window-height="1017"
     inkscape:window-x="-8"
     inkscape:window-y="-8"
     inkscape:window-maximized="1"
     inkscape:current-layer="svg77"
     inkscape:showpageshadow="2"
     inkscape:deskcolor="#d1d1d1" /><g
     clip-path="url(#clip0_619_1191)"
     id="g70"
     transform="matrix(1.0037324,0,0,1.0037324,215.35351,19.077817)"><path
       d="m 35.553,64.5871 c -0.0928,-0.1607 -0.2051,-0.4172 -0.2051,-0.4172 l 7.7458,-3.7708 c 0,0 0.7667,1.2763 0.8285,1.3834 0.0619,0.1071 0.0762,0.1836 0.0155,0.3202 -0.1464,0.3293 -0.206,0.2617 -0.3387,0.5884 -0.1328,0.3266 -0.1513,0.4801 -0.1502,0.7293 0.0279,0.2339 0.255,8.1722 0.6299,7.9557 0,0 0.5887,0.16 0.982,0.897 0.3933,0.7369 0.259,1.3144 0.259,1.3144 0,0 -0.7363,0.8892 -1.7765,1.5612 -1.3771,0.8308 -2.1167,0.9721 -2.1167,0.9721 0,0 -0.889,0.1919 -1.6628,-0.4682 -0.7739,-0.66 -1.1132,-1.928 -1.1132,-1.928 -0.2887,-1.8308 -0.7464,-5.4704 -1.0056,-7.0604 0,0 -0.063,-0.3564 -0.1867,-0.5706 0,0 -0.2253,-0.4522 -0.9665,-0.8702 -0.7412,-0.418 -0.7377,-0.2882 -0.9387,-0.6363 z"
       fill="#775426"
       id="path2" /><path
       d="m 35.3479,64.1699 c 0,0 0.1123,0.2565 0.2051,0.4172 m -0.2051,-0.4172 0.2051,0.4172 m -0.2051,-0.4172 7.7458,-3.7708 c 0,0 0.7667,1.2763 0.8285,1.3834 0.0619,0.1071 0.0762,0.1836 0.0155,0.3202 -0.1464,0.3293 -0.206,0.2617 -0.3387,0.5884 -0.1328,0.3266 -0.1513,0.4801 -0.1502,0.7293 0.0279,0.2339 0.255,8.1722 0.6299,7.9557 0,0 0.5887,0.16 0.982,0.897 0.3933,0.7369 0.259,1.3144 0.259,1.3144 0,0 -0.7363,0.8892 -1.7765,1.5612 -1.3771,0.8308 -2.1167,0.9721 -2.1167,0.9721 0,0 -0.889,0.1919 -1.6628,-0.4682 -0.7739,-0.66 -1.1132,-1.928 -1.1132,-1.928 -0.2887,-1.8308 -0.7464,-5.4704 -1.0056,-7.0604 0,0 -0.063,-0.3564 -0.1867,-0.5706 0,0 -0.2253,-0.4522 -0.9665,-0.8702 -0.7412,-0.418 -0.7377,-0.2882 -0.9387,-0.6363"
       stroke="#4d3719"
       stroke-width="1.14284"
       stroke-miterlimit="3.99393"
       id="path4" /><path
       d="M 60.3988,41.4572 50.062,47.4251 49.3199,46.1397 c -0.434,-0.9991 0.3517,-1.9883 0.4053,-2.0192 l 9.1584,-5.2877 z"
       fill="#484848"
       id="path6" /><path
       d="m 80.7179,24.5127 1.4944,2.6363 1.6774,2.9591 1.2759,-0.7366 -1.7007,-2.9457 0.5356,-0.3092 -1.5152,-2.6244 z"
       fill="#3a3a3a"
       stroke="#323232"
       stroke-width="1.14284"
       stroke-miterlimit="3.99393"
       id="path8" /><path
       d="m 51.8948,52.4393 c 3.2715,4.3032 6.3399,6.9051 9.9551,8.8167 4.0176,2.1245 8.2878,3.9272 15.3341,4.0722 l 0.5329,-8.6627 c -4.3617,-0.1954 -7.3309,-1.0002 -10.1282,-2.329 -2.8375,-1.3479 -5.5195,-3.2126 -8.2769,-6.622 z"
       fill="#363636"
       stroke="#323232"
       stroke-width="1.14284"
       stroke-miterlimit="3.99393"
       id="path10" /><path
       d="M 77.7389,59.0586 C 72.9357,58.8231 69.2197,57.6235 65.833,56.0658 62.6853,54.618 59.9542,52.4266 57.2292,49.3776 l 2.2185,-1.4132 c 2.7632,3.4224 5.4503,5.292 8.2936,6.6426 2.7973,1.3288 5.7664,2.1337 10.1282,2.329 z"
       fill="#353535"
       stroke="#323232"
       stroke-width="0.571422"
       stroke-miterlimit="3.99393"
       id="path12" /><path
       d="m 42.5942,58.7003 2.5119,-1.6001 c -0.511,1.0583 -0.2361,1.7796 0.0914,2.2029 0.3285,0.4244 0.7239,0.796 2.0806,0.5484 0.2584,-0.0472 0.3389,0.3397 0.0094,0.3873 -1.6192,0.2339 -2.2521,0.0191 -3.0703,-1.298 -0.6495,0.2808 -1.0208,0.2103 -1.623,-0.2405 z"
       fill="#363636"
       stroke="#323232"
       stroke-width="0.571422"
       stroke-miterlimit="3.99393"
       id="path14" /><path
       d="m 48.9022,54.6833 2.4528,-1.5625 1.4892,2.5186 c 0.1856,0.3213 -0.0182,1.0816 -0.3395,1.2672 l -1.339,0.773 c 0.3092,0.5356 -0.1468,1.4773 -0.495,1.6783 l -4.8078,2.99 c -0.6159,0.3556 -1.7183,-0.0077 -1.9038,-0.329 l -1.7415,-3.0774 0.2875,-0.1831 1.5898,2.7536 c 0.2783,0.482 1.1767,0.6775 1.6319,0.4146 l 4.6626,-2.8705 c 0.4285,-0.2473 0.5673,-0.9345 0.4282,-1.1755 z"
       fill="#373737"
       stroke="#323232"
       stroke-width="0.571422"
       stroke-miterlimit="3.99393"
       id="path16" /><path
       d="M 10.0313,91.1396 C 6.93878,86.5374 4.97257,84.1552 1.01197,80.2795 c 0,0 -0.161787,-0.1565 -0.055778,-0.4676 0.084068,-0.2468 0.454138,-0.5122 0.454138,-0.5122 0,0 7.69332,-6.1556 8.58007,-6.8461 0.9114,-0.7096 6.6172,-4.9273 7.126,-5.221 0.5088,-0.2938 0.4547,-0.3875 2.4217,-0.5056 1.85,-0.5682 2.4803,-1.1463 2.4803,-1.1463 l 8.2866,-6.4267 3.9223,4.8765 -8.3782,9.9787 c 0,0 -8.9692,10.7979 -12.594,14.9835 -0.7826,0.9036 -1.3532,1.3757 -1.4892,1.5025 -0.6035,0.5626 -0.7909,0.6708 -0.7909,0.6708 0,0 -0.2256,0.166 -0.5171,0.1558 -0.2915,-0.0102 -0.4266,-0.1822 -0.4266,-0.1822 z"
       fill="#775426"
       stroke="#332411"
       stroke-width="1.14284"
       stroke-miterlimit="3.99393"
       id="path18" /><path
       d="m 1.01365,80.2791 c 3.9606,3.8757 5.92681,6.2578 9.01935,10.86 0,0 0.135,0.172 0.4266,0.1822 0.3099,0.0109 0.5324,-0.1654 0.5324,-0.1654 C 10.1546,89.799 9.28176,88.3946 8.85963,87.7462 8.07648,86.5433 6.62333,84.7731 5.65381,83.5921 5.45204,83.3463 5.27121,83.1261 5.12173,82.9417 4.50347,82.1793 2.51728,80.3034 1.42634,79.2878 c 0,0 -0.3844,0.2769 -0.468468,0.5236 -0.106009,0.3112 0.055778,0.4677 0.055778,0.4677 z"
       fill="#3c3c3c"
       stroke="#323232"
       stroke-width="1.14284"
       stroke-miterlimit="3.99393"
       id="path20" /><path
       d="m 30.9745,55.733 -0.326,1.4772 -0.783,0.377 0.1438,-1.297 z"
       fill="#404040"
       stroke="#323232"
       stroke-width="0.571422"
       stroke-miterlimit="3.99393"
       id="path22" /><path
       d="m 62.4863,39.2539 0.7498,-0.4329 3.0613,5.3022 -0.9663,0.058 z"
       fill="#3b3b3b"
       stroke="#323232"
       stroke-width="0.571422"
       stroke-miterlimit="3.99393"
       id="path24" /><path
       d="m 66.9613,31.6703 c -0.3338,-0.0215 -0.7272,0.3484 -0.5726,0.6162 l 0.1855,0.3213 -0.4284,0.2474 1.7007,2.9457 1.1247,-0.6493 z"
       fill="#3b3b3b"
       id="path26" /><path
       d="m 66.3903,32.2859 0.1237,-0.0714 z m 0.5726,-0.6162 0.1237,-0.0715 -0.0383,-0.0662 -0.0762,-0.0049 z m -0.3862,0.939 0.0714,0.1237 0.1237,-0.0714 -0.0714,-0.1237 z m -0.4262,0.246 -0.0714,-0.1237 -0.1237,0.0714 0.0714,0.1237 z m 1.7007,2.9457 -0.1237,0.0714 0.0714,0.1237 0.1237,-0.0714 z m 0.4285,-0.2474 0.0714,0.1237 0.1237,-0.0714 -0.0714,-0.1237 z m -9e-4,-0.0014 -0.0714,-0.1237 -0.1237,0.0714 0.0714,0.1237 z m 0.694,-0.4007 0.0714,0.1238 0.1237,-0.0715 -0.0714,-0.1237 z M 66.514,32.2145 c -0.0292,-0.0506 -0.0218,-0.1398 0.0815,-0.2453 0.0992,-0.1012 0.2425,-0.1644 0.3582,-0.157 l 0.0184,-0.2851 c -0.2182,-0.0141 -0.4384,0.097 -0.5807,0.2422 -0.1382,0.1411 -0.2503,0.3707 -0.1248,0.588 z m 0.1864,0.3228 -0.1864,-0.3228 -0.2474,0.1428 0.1863,0.3228 z m -0.4785,0.4411 0.4262,-0.246 -0.1429,-0.2474 -0.4261,0.246 z m 1.753,2.7506 -1.7007,-2.9457 -0.2474,0.1428 1.7007,2.9457 z m 0.2333,-0.2997 -0.4284,0.2474 0.1428,0.2474 0.4285,-0.2474 z m -0.0531,0.1937 9e-4,0.0014 0.2474,-0.1428 -8e-4,-0.0015 z m 0.7462,-0.5958 -0.6939,0.4007 0.1429,0.2474 0.6939,-0.4006 z m -2.0622,-3.2861 2.01,3.4813 0.2474,-0.1429 -2.0099,-3.4813 z"
       fill="#323232"
       id="path28" /><path
       fill-rule="evenodd"
       clip-rule="evenodd"
       d="m 40.6517,51.7147 8.8556,-5.2556 0.5566,0.9641 -9.8054,5.8206 z"
       fill="#202020"
       id="path30" /><path
       d="m 35.0203,63.5263 7.2646,-4.6277 0.8072,1.5006 -7.745,3.7711 z"
       fill="#404040"
       stroke="#323232"
       stroke-width="1.14284"
       stroke-miterlimit="3.99393"
       id="path32" /><rect
       x="53.201199"
       y="48.163101"
       width="11.874"
       height="2.3467801"
       rx="0.42856601"
       transform="rotate(-32.6,53.2012,48.1631)"
       fill="#363636"
       stroke="#323232"
       stroke-width="0.285711"
       stroke-miterlimit="3.99393"
       id="rect34" /><path
       d="m 51.9643,57.2179 0.2723,0.0928 0.6803,1.1783 c 0.1082,0.1874 0.4182,0.0441 0.3481,-0.201 l -0.539,-1.6259 c -0.063,0.1087 -0.1389,0.1963 -0.2227,0.2447 z"
       fill="#353535"
       stroke="#323232"
       stroke-width="0.571422"
       stroke-miterlimit="3.99393"
       id="path36" /><path
       d="m 84.5756,31.3186 c 0.1391,0.241 -0.4139,0.953 -0.7518,0.8625 l -4.3456,-7.7742 c 0.5892,-0.3401 1.1156,-0.1085 1.2393,0.1057 z"
       fill="#3b3b3b"
       stroke="#323232"
       stroke-width="1.14284"
       stroke-miterlimit="3.99393"
       id="path38" /><path
       d="m 103.262,16.4962 -19.1468,11.0546 1.0205,1.7674 19.3663,-11.1811 -0.374,-0.1413 z"
       fill="#393939"
       stroke="#323232"
       stroke-width="1.14284"
       stroke-miterlimit="3.99393"
       id="path40" /><path
       d="m 107.898,16.3942 0.744,-0.7188 -0.062,-0.1071 0.482,-0.2783 0.062,0.1071 0.428,-0.2473 -1.144,-1.9817 -0.428,0.2474 0.092,0.1607 -0.482,0.2783 -0.092,-0.1607 -0.215,0.1237 -0.185,-0.3214 -0.589,0.3402 1.206,2.0887 z"
       fill="#373737"
       stroke="#323232"
       stroke-width="0.571422"
       id="path42" /><path
       d="M 84.3922,30.992 106.66,17.8229 c -0.122,-0.0299 -0.251,-0.0751 -0.389,-0.1358 l -0.436,0.0461 -21.688,12.8263 z"
       fill="#383838"
       stroke="#323232"
       stroke-width="0.571422"
       stroke-miterlimit="3.99393"
       id="path44" /><path
       d="m 82.582,23.6533 1.4224,2.4637 6.5074,-3.757 c 0.5099,-0.0445 0.9138,0.2222 1.2385,0.7845 l 1.175,2.0353 c 0.2391,0.4141 0.7446,0.5698 1.1291,0.3478 0.3846,-0.222 0.5025,-0.7377 0.2634,-1.1518 l 3.0528,-1.7626 -1.3914,-2.4101 c 0,0 -1.4729,0.8504 -3.2398,0.2638 -1.7669,-0.5867 -2.3111,-1.3436 -2.3111,-1.3436 z"
       fill="#3c3c3c"
       stroke="#323232"
       stroke-width="1.14284"
       stroke-miterlimit="3.99393"
       id="path46" /><path
       fill-rule="evenodd"
       clip-rule="evenodd"
       d="m 102.243,10.5858 0.741,5.4276 1.144,1.9816 0.411,0.1555 0.823,-0.3681 0.909,-0.0961 c 0.911,0.4025 1.466,0.1249 1.822,-0.802 l -0.376,-0.961 -3.541,-6.13241 c 0,0 -0.539,-0.56332 -1.332,-0.26638 -0.793,0.29694 -0.601,1.06129 -0.601,1.06129 z m 2.324,4.3351 1.232,-0.7112 c 0.214,-0.1237 0.221,-0.2349 0.113,-0.4224 l -0.386,-0.6695 c -0.248,-0.4284 -0.417,-0.4737 -0.845,-0.2263 l -0.964,0.5566 c -0.161,0.0927 -0.515,0.6543 -0.244,1.1229 0.255,0.4419 0.934,0.4427 1.094,0.3499 z"
       fill="#3c3c3c"
       id="path48" /><path
       d="m 40.2576,53.2452 9.8055,-5.8207 10.3367,-5.9679 -0.8349,-1.4461 2.5173,-1.4533 3.2622,5.6504 -14.0082,8.9234 -0.071,0.7048 -2.0691,1.3018 -0.9275,-0.0524 -14.041,8.9444 -3.9223,-4.8765 0.5386,-0.3198 -0.3937,-0.728 1.0564,-4.7874 c 0.0792,-0.3178 0.1628,-0.4794 0.3995,-0.7305 l 25.6307,-14.9765 0.4948,0.857 0.482,-0.2783 0.3711,0.6427 -9.1585,5.2876 c -0.0536,0.0309 -0.8393,1.0201 -0.4053,2.0193 l 0.1856,0.3213 -8.8557,5.2556 z"
       fill="#424242"
       id="path50" /><path
       d="m 66.8379,31.457 12.6409,-7.0483 1.9163,3.4283 -1.6131,0.9313 -0.3998,-0.1977 -3.3206,1.9172 -0.0287,0.445 -2.3566,1.3606 -0.3997,-0.1977 -3.6956,2.1336 -0.0287,0.445 -0.6427,0.3711 z"
       fill="#775426"
       stroke="#332411"
       stroke-width="1.14284"
       stroke-miterlimit="3.99393"
       id="path52" /><path
       fill-rule="evenodd"
       clip-rule="evenodd"
       d="m 102.243,10.5858 0.741,5.4276 1.144,1.9816 0.411,0.1555 0.823,-0.3681 0.909,-0.0961 c 0.911,0.4025 1.466,0.1249 1.822,-0.802 l -0.376,-0.961 -3.541,-6.13241 c 0,0 -0.539,-0.56332 -1.332,-0.26638 -0.793,0.29694 -0.601,1.06129 -0.601,1.06129 z"
       stroke="#323232"
       stroke-width="1.14284"
       id="path54" /><path
       fill-rule="evenodd"
       clip-rule="evenodd"
       d="m 104.565,14.9213 1.232,-0.7112 c 0.214,-0.1237 0.221,-0.235 0.113,-0.4224 l -0.387,-0.6695 c -0.247,-0.4285 -0.416,-0.4737 -0.845,-0.2264 l -0.964,0.5566 c -0.16,0.0928 -0.514,0.6544 -0.244,1.123 0.255,0.4418 0.934,0.4426 1.095,0.3499 z"
       stroke="#323232"
       stroke-width="0.571422"
       id="path56" /><path
       d="m 63.236,38.8202 4.7667,-2.7521 -0.0309,-0.0536 1.7674,-1.0204 0.3688,0.1441 3.6956,-2.1336 0.0596,-0.3915 2.3566,-1.3605 0.3688,0.1441 3.3206,-1.9172 0.0596,-0.3915 1.6068,-0.9276 2.2501,4.021 c 0.0619,0.1071 -0.2852,0.5574 -0.5797,0.7274 -4.3967,2.7947 -6.877,4.2918 -11.4027,6.9047 0,0 -1.5593,1.2573 -2.1604,2.0097 -0.083,0.1039 -0.1864,0.2485 -0.304,0.4128 -0.3665,0.5124 -0.8702,1.2166 -1.3192,1.4758 -0.6962,0.402 -1.1009,0.4272 -1.7625,0.4106 z"
       fill="#775426"
       stroke="#332411"
       stroke-width="1.14284"
       stroke-miterlimit="3.99393"
       id="path58" /><path
       fill-rule="evenodd"
       clip-rule="evenodd"
       d="m 62.4193,33.5076 -3.2606,1.8825 c -0.185,-0.1066 -0.4203,-0.1144 -0.6185,1e-4 -0.1983,0.1144 -0.3092,0.3221 -0.3094,0.5356 l -0.875,0.5052 -0.1855,-0.3213 -0.7015,0.0837 0.5946,0.9063 0.2226,0.0143 1.196,-0.6905 c 0.1574,0.116 0.3641,0.1525 0.5545,0.0918 l -0.0344,0.1078 -1.5264,0.8813 0.5565,0.9641 0.4821,-0.2783 1.0513,1.8209 2.5172,-1.4533 0.402,0.6963 5.5165,-3.185 -2.0099,-3.4813 -0.0535,0.0309 -0.3247,-0.5623 c -0.1237,-0.2143 -0.5615,-0.3542 -0.8026,-0.2151 l -1.0176,0.5876 0.1237,0.2142 -0.5377,0.3105 c -0.196,-0.1781 -0.4748,-0.2258 -0.6963,-0.0979 -0.2216,0.1279 -0.3197,0.3932 -0.2634,0.6519 z m -2.9536,2.4694 1.8371,-1.1821 -1.8387,1.0616 c 0.0045,0.0402 0.005,0.0806 0.0016,0.1205 z"
       fill="#494949"
       stroke="#323232"
       stroke-width="0.571422"
       stroke-miterlimit="3.99393"
       id="path60" /><path
       fill-rule="evenodd"
       clip-rule="evenodd"
       d="m 65.9901,32.5879 -8.5158,4.9166 0.0619,0.1071 -25.6307,14.9764 c -0.2368,0.2511 -0.3204,0.4127 -0.3995,0.7305 l -1.0565,4.7875 0.3938,0.728 -0.5387,0.3197 3.9223,4.8765 14.041,-8.9443 0.9275,0.0523 2.0692,-1.3017 0.071,-0.7048 L 65.3438,44.2082 62.4835,39.2541 68,36.0692 Z m -25.7331,20.658 9.8054,-5.8207 10.3368,-5.9679 -1.5152,-2.6244 -9.1585,5.2877 c -0.0535,0.0309 -0.8392,1.0201 -0.4052,2.0192 l 0.1855,0.3214 -8.8556,5.2556 z"
       stroke="#323232"
       stroke-width="1.14284"
       stroke-miterlimit="3.99393"
       id="path62" /><path
       d="m 41.4272,51.9467 -0.9223,2.175 -2.2647,0.7501 C 38.119,54.9093 38,54.9609 37.8855,55.027 c -0.8282,0.4782 -1.112,1.5372 -0.6338,2.3654 0.4781,0.8282 1.5372,1.112 2.3654,0.6338 0.0669,-0.0387 0.1318,-0.0821 0.1915,-0.128 l 9.5177,-6.3702 0.1309,0.1029 2.2072,-1.31 -0.1841,-0.2611 -0.0829,-0.2632 0.9147,-0.4566 -0.431,-1.1794 z"
       fill="#404040"
       id="path64" /><path
       d="m 41.4272,51.9467 -0.9223,2.175 -2.2647,0.7501 C 38.119,54.9093 38,54.9609 37.8855,55.027 c -0.8282,0.4782 -1.112,1.5372 -0.6338,2.3654 0.4781,0.8282 1.5372,1.112 2.3654,0.6338 0.0669,-0.0387 0.1318,-0.0821 0.1915,-0.128 l 9.5223,-6.3733 0.1263,0.106 2.2072,-1.31 -0.1841,-0.2611 -0.0829,-0.2632 0.9147,-0.4566 -0.431,-1.1794 z"
       stroke="#323232"
       stroke-width="0.571422"
       stroke-miterlimit="3.99393"
       id="path66" /><path
       d="m 65.9264,33.5833 c 0.1738,-0.2033 0.21,-0.502 0.0687,-0.7468 -0.1793,-0.3106 -0.5765,-0.417 -0.8871,-0.2377 -0.1076,0.0621 -0.1907,0.1504 -0.2459,0.2522 l -1.212,2.232 -0.3379,-0.0906 -0.5519,0.9613 0.2391,0.2904 c 0.2546,0.3173 0.5235,0.4119 0.9715,0.2604 z"
       fill="#4d4d4d"
       stroke="#323232"
       stroke-width="0.571422"
       stroke-miterlimit="3.99393"
       id="path68" /></g><defs
     id="defs75"><clipPath
       id="clip0_619_1191"><rect
         width="110"
         height="110"
         fill="#ffffff"
         transform="translate(0.0859375)"
         id="rect72"
         x="0"
         y="0" /></clipPath><clipPath
       id="clip0_619_1196"><rect
         width="110"
         height="110"
         fill="#ffffff"
         id="rect50"
         x="0"
         y="0" /></clipPath></defs><g
     id="g21"
     transform="matrix(0.28890808,0.06848609,-0.06848609,0.28890808,14.497627,-113.3779)"><g
       stroke-width="2"
       fill="none"
       stroke-linecap="butt"
       id="g12"><path
         stroke="#999999"
         vector-effect="non-scaling-stroke"
         d="m 230.46,127.23 -10.53,-10.48 a 0.5,0.49 -46.9 0 0 -0.72,0.03 l -1.1,1.28 a 0.62,0.62 0 0 1 -0.9,0.03 l -4.1,-4.11 q -0.33,-0.33 -0.8,-0.29 -1.01,0.06 -0.36,1.23 0.2,0.36 0.49,0.64 l 3.62,3.63 q 0.44,0.44 0,0.87 l -42.56,42.56 a 0.54,0.53 -45.4 0 0 0,0.75 l 7.56,7.57 a 0.62,0.62 0 0 0 0.88,0 l 1.5,-1.51 a 1.27,1.27 0 0 1 0.82,-0.37 l 5.46,-0.35 q 0.49,-0.03 0.83,-0.38 l 39.91,-39.92 q 0.59,-0.59 0,-1.18"
         id="path1" /><path
         stroke="#999999"
         vector-effect="non-scaling-stroke"
         d="m 197.38,122.76 a 0.37,0.37 0 0 0 -0.52,0 l -28.27,28.27 a 0.37,0.37 0 0 0 -0.08,0.41 l 1.69,3.77 a 0.37,0.37 0 0 0 0.6,0.11 l 29.32,-29.31 a 0.37,0.37 0 0 0 0,-0.52 l -2.74,-2.73"
         id="path2-3" /><path
         stroke="#999999"
         vector-effect="non-scaling-stroke"
         d="m 225.75,126.54 a 3.05,3.05 0 0 0 -3.05,-3.05 3.05,3.05 0 0 0 -3.05,3.05 3.05,3.05 0 0 0 3.05,3.05 3.05,3.05 0 0 0 3.05,-3.05"
         id="path3" /><path
         stroke="#999999"
         vector-effect="non-scaling-stroke"
         d="m 166.89,181.01 2.13,2.14 a 0.51,0.5 40.1 0 0 0.76,-0.06 l 0.2,-0.27 q 0.3,-0.41 -0.06,-0.78 l -12.67,-12.67 q -0.38,-0.37 -0.75,0 L 22.81,303.08 q -0.86,0.86 0.23,1.39 18.6,9.09 32.59,24.37 a 0.44,0.43 -60.3 0 0 0.75,-0.21 c 1.06,-5.09 2.26,-15.59 5.4,-19.36 q 20.66,-24.73 41.21,-49.62 0.33,-0.41 0.7,-0.04 l 9.51,9.45 a 0.56,0.55 -47.7 0 0 0.82,-0.04 l 13.6,-16.61 q 0.3,-0.37 -0.04,-0.7 l -9.12,-9.12 q -0.42,-0.42 -0.03,-0.86 l 20.01,-22.85 a 0.63,0.62 -47.1 0 0 -0.03,-0.85 l -4.25,-4.24 q -0.46,-0.47 0,-0.93 l 31.76,-31.85 q 0.48,-0.48 0.97,0"
         id="path4-0" /><path
         stroke="#999999"
         vector-effect="non-scaling-stroke"
         d="m 167.37,203.75 q -0.3,-0.38 -0.65,-0.65 a 0.78,0.78 0 0 0 -1.02,0.07 l -7.14,7.15 a 0.26,0.25 35.8 0 0 0.07,0.41 c 9.73,4.71 9.01,12.05 12.68,20.7 q 3.47,8.17 7.04,16.36 0.21,0.49 0.69,0.23 l 6.98,-3.79 q 0.48,-0.26 0.24,-0.74 -9.64,-19.5 -13.68,-28.31 -1.33,-2.91 -1.5,-6.92 -0.02,-0.53 -0.35,-0.96 -1.24,-1.6 -2.79,-2.95 -0.31,-0.28 -0.57,-0.6"
         id="path5" /><path
         stroke="#999999"
         vector-effect="non-scaling-stroke"
         d="m 155.3362,175.7451 a 1.34,1.34 0 0 0 -1.8948,-0.0265 l -2.5809,2.5098 a 1.34,1.34 0 0 0 -0.0265,1.8949 l 0.0698,0.0716 a 1.34,1.34 0 0 0 1.8948,0.0265 l 2.5809,-2.5098 a 1.34,1.34 0 0 0 0.0265,-1.8949 l -0.0698,-0.0716"
         id="path6-4" /><path
         stroke="#999999"
         vector-effect="non-scaling-stroke"
         d="m 148.3495,182.7137 a 1.34,1.34 0 0 0 -1.8949,-0.0264 l -2.5952,2.5237 a 1.34,1.34 0 0 0 -0.0265,1.8949 l 0.0976,0.1004 a 1.34,1.34 0 0 0 1.8949,0.0264 l 2.5952,-2.5237 a 1.34,1.34 0 0 0 0.0265,-1.8949 l -0.0976,-0.1004"
         id="path7" /><path
         stroke="#999999"
         vector-effect="non-scaling-stroke"
         d="m 139.4871,191.4073 a 1.25,1.25 0 0 0 -1.7678,-0.003 l -4.3492,4.3341 a 1.25,1.25 0 0 0 -0.003,1.7677 l 0.2259,0.2267 a 1.25,1.25 0 0 0 1.7678,0.003 l 4.3492,-4.3341 a 1.25,1.25 0 0 0 0.003,-1.7677 l -0.2259,-0.2267"
         id="path8-5" /><path
         stroke="#999999"
         vector-effect="non-scaling-stroke"
         d="m 130.347,202.7494 a 1.22,1.22 0 0 0 -0.003,-1.7253 l -0.2691,-0.2682 a 1.22,1.22 0 0 0 -1.7254,0.003 l -4.3764,4.3917 a 1.22,1.22 0 0 0 0.003,1.7253 l 0.2691,0.2682 a 1.22,1.22 0 0 0 1.7254,-0.003 l 4.3764,-4.3917"
         id="path9" /><path
         stroke="#999999"
         vector-effect="non-scaling-stroke"
         d="m 121.4385,211.6506 a 1.32,1.32 0 0 0 -0.007,-1.8667 l -0.1277,-0.1269 a 1.32,1.32 0 0 0 -1.8668,0.007 l -4.256,4.2858 a 1.32,1.32 0 0 0 0.007,1.8667 l 0.1277,0.1269 a 1.32,1.32 0 0 0 1.8668,-0.007 l 4.256,-4.2858"
         id="path10-7" /><path
         stroke="#999999"
         vector-effect="non-scaling-stroke"
         d="m 129,279.84 c 10.32,8.89 21.76,14.4 35.3,20.13 q 0.46,0.2 0.69,-0.24 l 7.86,-14.66 q 0.28,-0.52 -0.26,-0.78 c -13.47,-6.67 -23.08,-11.17 -33.02,-19.41 a 0.57,0.56 -51 0 0 -0.8,0.09 l -10.81,13.51 q -0.26,0.32 0.01,0.63 0.14,0.18 0.33,0.29 0.69,0.42 0.7,0.44"
         id="path11" /><path
         stroke="#999999"
         vector-effect="non-scaling-stroke"
         d="m 84.62,306.55 c 1.42,0.54 2.62,1.09 3.62,2.2 q 9.97,11.1 21.93,18.84 a 1.51,1.51 0 0 0 1.93,-2.3 Q 102.33,314.7 89.51,307.34 c -1.3,-0.75 -2.01,-1.67 -2.72,-2.91 a 0.48,0.48 0 0 0 -0.76,-0.1 l -1.55,1.6 a 0.38,0.38 0 0 0 0.14,0.62"
         id="path12-7" /></g><path
       fill="#323232"
       d="m 271.84,68.26 q 0.13,0.01 0.27,-0.02 0.1,-0.02 0.18,-0.09 c 14.5,-12.76 29.75,-25.14 43.58,-38.59 q 0.42,-0.41 0.99,-0.32 2.08,0.34 2.92,-1.65 a 1,1 0 0 1 1.62,-0.33 l 4.23,4.08 a 0.67,0.67 0 0 1 -0.03,0.99 l -1.96,1.68 q -0.41,0.35 -0.24,0.87 0.41,1.22 -0.39,2.27 -0.32,0.42 0.05,0.78 l 2.08,2.04 a 0.69,0.69 0 0 0 0.94,0.02 l 0.81,-0.73 q 0.39,-0.35 0.92,-0.29 7.25,0.76 8.03,8.04 a 1.01,1.01 0 0 1 -0.28,0.81 l -4.89,4.88 q -0.45,0.45 -0.89,-0.01 l -2.11,-2.23 q -0.54,-0.58 -1.1,-0.02 l -0.66,0.66 a 0.66,0.65 -45.3 0 0 0,0.93 l 0.7,0.71 q 0.49,0.49 0.01,0.98 l -7.53,7.56 q -0.37,0.37 -0.88,0.43 c -2.45,0.29 -4.03,3.03 -6.07,4.25 -6.68,4 -13.79,12.81 -19.44,18.45 q -0.33,0.33 -0.01,0.66 l 1.62,1.62 a 0.62,0.61 45.3 0 1 0,0.87 l -18.21,18.21 a 0.84,0.81 -61 0 1 -0.75,0.23 l -2.84,-0.57 q -0.79,-0.16 -0.58,0.63 l 1.33,5.03 q 0.16,0.59 -0.28,1.02 l -3.95,3.94 a 0.6,0.59 -44.7 0 1 -0.85,0 l -10.74,-10.74 a 0.62,0.61 45.3 0 1 0,-0.87 l 10.15,-10.16 a 0.54,0.53 -26 0 1 0.91,0.31 q 0.01,0.15 0.01,0.3 a 0.42,0.42 0 0 0 0.72,0.3 l 15.94,-16.01 a 1.16,1.16 0 0 1 1.64,0 l 1.12,1.13 q 0.47,0.47 0.94,-0.01 7.86,-7.97 15.81,-15.84 c 2.28,-2.25 2.9,-5.14 5.89,-7.24 a 1.24,1.22 -12.7 0 0 0.5,-0.78 c 0.59,-3.17 5.83,-7.11 8.08,-9.6 q 0.39,-0.43 0.78,-0.51 0.83,-0.18 1.04,0.59 a 0.74,0.74 0 0 0 1.21,0.37 q 1.02,-0.91 0.3,-2.06 -0.29,-0.46 -0.33,-0.99 -0.17,-2.26 -2.37,-3.45 -0.45,-0.24 -0.82,0.12 l -81.27,81.27 a 0.61,0.61 0 0 1 -0.86,0 l -14.3,-14.15 a 0.66,0.66 0 0 1 0,-0.94 l 65.16,-65.15 q 0.37,-0.37 0.21,-0.87 -0.16,-0.5 -0.04,-0.99 0.12,-0.46 0.58,-0.92 13.88,-13.84 27.73,-27.7 0.4,-0.41 0.91,-0.13 3.97,2.23 6.22,6.23 0.28,0.5 -0.12,0.9 l -28,27.99 q -0.39,0.38 -0.93,0.31 -0.46,-0.06 -0.87,0.02 -0.4,0.09 -0.8,0.45 -10.78,10.03 -20.84,20.77 -0.22,0.23 0.1,0.26 z m 45.0082,-50.4752 a 0.88,0.88 0 0 0 -1.2445,-0.0065 l -6.7526,6.6823 a 0.88,0.88 0 0 0 -0.006,1.2445 l 0.2672,0.2701 a 0.88,0.88 0 0 0 1.2445,0.0065 l 6.7526,-6.6823 a 0.88,0.88 0 0 0 0.007,-1.2445 z M 298.54,56.73 a 3.04,3.04 0 0 0 -3.04,-3.04 3.04,3.04 0 0 0 -3.04,3.04 3.04,3.04 0 0 0 3.04,3.04 3.04,3.04 0 0 0 3.04,-3.04 z m -7.21,7.23 a 3.06,3.06 0 0 0 -3.06,-3.06 3.06,3.06 0 0 0 -3.06,3.06 3.06,3.06 0 0 0 3.06,3.06 3.06,3.06 0 0 0 3.06,-3.06 z m -7.26,7.24 a 3.05,3.05 0 0 0 -3.05,-3.05 3.05,3.05 0 0 0 -3.05,3.05 3.05,3.05 0 0 0 3.05,3.05 3.05,3.05 0 0 0 3.05,-3.05 z m -7.24,7.23 a 3.04,3.04 0 0 0 -3.04,-3.04 3.04,3.04 0 0 0 -3.04,3.04 3.04,3.04 0 0 0 3.04,3.04 3.04,3.04 0 0 0 3.04,-3.04 z m -7.23,7.22 a 3.04,3.04 0 0 0 -3.04,-3.04 3.04,3.04 0 0 0 -3.04,3.04 3.04,3.04 0 0 0 3.04,3.04 3.04,3.04 0 0 0 3.04,-3.04 z m -7.21,7.22 a 3.06,3.06 0 0 0 -3.06,-3.06 3.06,3.06 0 0 0 -3.06,3.06 3.06,3.06 0 0 0 3.06,3.06 3.06,3.06 0 0 0 3.06,-3.06 z m -7.21,7.24 a 3.07,3.07 0 0 0 -3.07,-3.07 3.07,3.07 0 0 0 -3.07,3.07 3.07,3.07 0 0 0 3.07,3.07 3.07,3.07 0 0 0 3.07,-3.07 z m -7.21,7.23 a 3.06,3.06 0 0 0 -3.06,-3.06 3.06,3.06 0 0 0 -3.06,3.06 3.06,3.06 0 0 0 3.06,3.06 3.06,3.06 0 0 0 3.06,-3.06 z m -7.26,7.22 a 3.05,3.05 0 0 0 -3.05,-3.05 3.05,3.05 0 0 0 -3.05,3.05 3.05,3.05 0 0 0 3.05,3.05 3.05,3.05 0 0 0 3.05,-3.05 z"
       id="path13" /><path
       fill="#323232"
       d="m 208.64,105.46 -5.79,5.78 q -0.37,0.37 -0.73,0 L 181.98,91.11 a 1.13,1.12 44.1 0 1 -0.03,-1.56 l 2.48,-2.65 q 0.39,-0.42 0.95,-0.32 c 9.57,1.61 16.77,11.32 23.27,18 a 0.63,0.62 -44.7 0 1 -0.01,0.88 z"
       id="path14-6" /><path
       fill="#323232"
       d="m 164.83,160.52 -4.65,-10.3 a 0.84,0.84 0 0 1 0.17,-0.94 l 36.46,-36.47 a 0.45,0.45 0 0 1 0.63,0 l 6.92,6.93 a 1.35,0.52 22.5 0 0 0.11,0.1 q 1.53,1.27 1.76,0.09 a 0.94,0.94 0 0 0 -0.25,-0.83 l -4.17,-4.16 q -0.44,-0.44 0,-0.88 l 10.25,-10.25 q 0.44,-0.43 0.88,0 l 4.33,4.34 a 0.53,0.53 0 0 0 0.79,-0.04 l 0.95,-1.19 a 0.65,0.65 0 0 1 0.96,-0.06 l 23.75,23.69 q 0.32,0.32 0.04,0.66 c -2.77,3.4 -5.74,6.87 -10.49,5.06 a 0.8,0.79 32.7 0 0 -0.84,0.18 l -39,39 a 1.18,1.18 0 0 1 -0.96,0.34 c -5.91,-0.55 -6.61,1.34 -10.47,4.8 q -0.68,0.61 -1.32,-0.03 l -17.12,-17.12 a 0.63,0.63 0 0 1 0,-0.88 l 1.1,-1.09 q 0.41,-0.42 0.17,-0.95 z m 65.63,-33.29 -10.53,-10.48 a 0.5,0.49 -46.9 0 0 -0.72,0.03 l -1.1,1.28 a 0.62,0.62 0 0 1 -0.9,0.03 l -4.1,-4.11 q -0.33,-0.33 -0.8,-0.29 -1.01,0.06 -0.36,1.23 0.2,0.36 0.49,0.64 l 3.62,3.63 q 0.44,0.44 0,0.87 l -42.56,42.56 a 0.54,0.53 -45.4 0 0 0,0.75 l 7.56,7.57 a 0.62,0.62 0 0 0 0.88,0 l 1.5,-1.51 a 1.27,1.27 0 0 1 0.82,-0.37 l 5.46,-0.35 q 0.49,-0.03 0.83,-0.38 l 39.91,-39.92 q 0.59,-0.59 0,-1.18 z m -33.08,-4.47 a 0.37,0.37 0 0 0 -0.52,0 l -28.27,28.27 a 0.37,0.37 0 0 0 -0.08,0.41 l 1.69,3.77 a 0.37,0.37 0 0 0 0.6,0.11 l 29.32,-29.31 a 0.37,0.37 0 0 0 0,-0.52 z"
       id="path15" /><path
       fill="#ffffff"
       d="m 230.46,127.23 q 0.59,0.59 0,1.18 l -39.91,39.92 q -0.34,0.35 -0.83,0.38 l -5.46,0.35 a 1.27,1.27 0 0 0 -0.82,0.37 l -1.5,1.51 a 0.62,0.62 0 0 1 -0.88,0 l -7.56,-7.57 a 0.54,0.53 -45.4 0 1 0,-0.75 l 42.56,-42.56 q 0.44,-0.43 0,-0.87 l -3.62,-3.63 q -0.29,-0.28 -0.49,-0.64 -0.65,-1.17 0.36,-1.23 0.47,-0.04 0.8,0.29 l 4.1,4.11 a 0.62,0.62 0 0 0 0.9,-0.03 l 1.1,-1.28 a 0.5,0.49 -46.9 0 1 0.72,-0.03 z m -4.71,-0.69 a 3.05,3.05 0 0 0 -3.05,-3.05 3.05,3.05 0 0 0 -3.05,3.05 3.05,3.05 0 0 0 3.05,3.05 3.05,3.05 0 0 0 3.05,-3.05 z"
       id="path16-4" /><path
       fill="#ffffff"
       d="m 197.38,122.76 2.74,2.73 a 0.37,0.37 0 0 1 0,0.52 l -29.32,29.31 a 0.37,0.37 0 0 1 -0.6,-0.11 l -1.69,-3.77 a 0.37,0.37 0 0 1 0.08,-0.41 l 28.27,-28.27 a 0.37,0.37 0 0 1 0.52,0 z"
       id="path17" /><circle
       fill="#323232"
       cx="222.7"
       cy="126.54"
       r="3.05"
       id="circle17" /><path
       fill="#323232"
       d="m 166.92,193.32 9.91,9.94 q 0.35,0.34 0.83,0.3 c 7.48,-0.65 14.77,-3.14 17.77,-10.36 4.02,-9.64 -8.51,-14.05 -14.79,-7.53 -1.37,1.43 -1.16,2.9 -2.64,4.44 q -0.38,0.38 0.04,0.72 c 2.45,1.96 7.53,4.21 10.04,1.24 q 0.27,-0.32 0.69,-0.32 h 0.5 a 0.61,0.61 0 0 1 0.47,1 l -4.59,5.64 q -0.34,0.42 -0.87,0.34 c -3.09,-0.46 -7.53,-1.41 -8.12,-4.39 a 1.12,1.12 0 0 0 -1.92,-0.55 l -1.71,1.84 a 0.72,0.72 0 0 1 -1.04,0.01 l -4.57,-4.65 a 0.72,0.72 0 0 0 -1.03,-0.01 L 144,212.87 q -0.37,0.38 0,0.75 l 4,4.02 a 0.75,0.74 -47 0 1 0.03,1.02 l -19.89,22.7 a 0.7,0.69 43.4 0 0 0.03,0.94 l 8.86,8.85 q 0.4,0.41 0.04,0.85 l -22.64,27.67 a 0.43,0.43 0 0 1 -0.63,0.03 l -9.22,-9.26 q -0.73,-0.73 -1.39,0.06 -17.72,21.21 -34.93,42.03 c -3.04,3.68 -4.11,13.47 -5.15,18.31 q -0.11,0.54 0.39,0.77 c 2.54,1.14 9.27,2.14 8.5,5.8 a 2.02,2.01 16 0 1 -2.66,1.47 l -7.72,-2.81 q -0.5,-0.18 -0.88,0.19 c -2.92,2.78 -5.58,2.1 -8.31,-0.7 -10.76,-11.03 -21.02,-19.66 -34.45,-25.43 -7.1,-3.04 -2.68,-9.18 1.13,-13.03 q 35.61,-35.94 71.35,-71.74 0.35,-0.35 0,-0.71 c -4.22,-4.29 -18.73,-16.66 -18.67,-22.1 0.06,-5.66 5.57,-8.37 10.7,-8.03 1.07,0.07 1.51,-0.74 2.15,-1.31 q 15.23,-13.44 30.52,-26.79 c 3.69,-3.23 7.29,-4.08 10.33,0.31 q 4.18,6.04 8.26,12.15 a 0.49,0.49 0 0 0 0.86,-0.07 q 0.71,-1.56 2.07,-0.45 a 0.68,0.67 -47.7 0 0 0.89,-0.05 l 18.87,-18.87 a 0.62,0.61 -44.7 0 1 0.87,0 l 21.6,21.6 a 1.86,1.85 44.4 0 1 0.03,2.6 l -1.72,1.79 a 0.38,0.37 90 0 0 0.53,0.53 q 1.26,-1.2 2.38,-2.32 c 8.05,-7.98 22.08,-0.6 16.91,10.95 -3.19,7.13 -10.67,10.45 -18.18,10.91 a 0.93,0.92 85 0 0 -0.86,1.03 c 0.23,2.12 0.25,4.08 1.2,6.08 q 6.05,12.71 12.17,25.37 a 1.6,1.58 70.8 0 0 1.76,0.86 c 5.87,-1.27 7.06,5.69 2.93,8 q -6.54,3.65 -13.21,7.05 c -4.73,2.41 -8.96,1.67 -11.1,-3.39 q -3.7,-8.76 -7.45,-17.48 c -1.8,-4.19 -2.26,-8.97 -5.19,-13.4 -2.19,-3.31 -4.38,-1.48 -7.15,-0.92 a 1,0.99 -28.2 0 1 -0.91,-0.27 l -4.8,-4.81 a 0.71,0.71 0 0 1 0,-1 l 19.31,-19.3 a 0.96,0.96 0 0 1 1.36,0 z m -67.91,18.24 c 9.37,-10.05 19.61,-19.39 29.03,-29.09 a 2.07,2.06 -39.2 0 0 0.26,-2.54 l -6.68,-10.5 a 1.79,1.79 0 0 0 -2.69,-0.38 q -11.3,9.94 -22.77,20.21 c -4.88,4.38 -7.34,9.56 -10.85,15.55 -3.28,5.6 3.48,9.78 8.14,10.48 a 1.43,1.41 34.8 0 0 0.92,-0.16 q 2.61,-1.39 4.64,-3.57 z m 67.88,-30.55 2.13,2.14 a 0.51,0.5 40.1 0 0 0.76,-0.06 l 0.2,-0.27 q 0.3,-0.41 -0.06,-0.78 l -12.67,-12.67 q -0.38,-0.37 -0.75,0 L 22.81,303.08 q -0.86,0.86 0.23,1.39 18.6,9.09 32.59,24.37 a 0.44,0.43 -60.3 0 0 0.75,-0.21 c 1.06,-5.09 2.26,-15.59 5.4,-19.36 q 20.66,-24.73 41.21,-49.62 0.33,-0.41 0.7,-0.04 l 9.51,9.45 a 0.56,0.55 -47.7 0 0 0.82,-0.04 l 13.6,-16.61 q 0.3,-0.37 -0.04,-0.7 l -9.12,-9.12 q -0.42,-0.42 -0.03,-0.86 l 20.01,-22.85 a 0.63,0.62 -47.1 0 0 -0.03,-0.85 l -4.25,-4.24 q -0.46,-0.47 0,-0.93 l 31.76,-31.85 q 0.48,-0.48 0.97,0 z m 0.48,22.74 q -0.3,-0.38 -0.65,-0.65 a 0.78,0.78 0 0 0 -1.02,0.07 l -7.14,7.15 a 0.26,0.25 35.8 0 0 0.07,0.41 c 9.73,4.71 9.01,12.05 12.68,20.7 q 3.47,8.17 7.04,16.36 0.21,0.49 0.69,0.23 l 6.98,-3.79 q 0.48,-0.26 0.24,-0.74 -9.64,-19.5 -13.68,-28.31 -1.33,-2.91 -1.5,-6.92 -0.02,-0.53 -0.35,-0.96 -1.24,-1.6 -2.79,-2.95 -0.31,-0.28 -0.57,-0.6 z"
       id="path18-0" /><path
       fill="#ffffff"
       d="m 165.92,181.01 -31.76,31.85 q -0.46,0.46 0,0.93 l 4.25,4.24 a 0.63,0.62 -47.1 0 1 0.03,0.85 l -20.01,22.85 q -0.39,0.44 0.03,0.86 l 9.12,9.12 q 0.34,0.33 0.04,0.7 l -13.6,16.61 a 0.56,0.55 -47.7 0 1 -0.82,0.04 l -9.51,-9.45 q -0.37,-0.37 -0.7,0.04 -20.55,24.89 -41.21,49.62 c -3.14,3.77 -4.34,14.27 -5.4,19.36 a 0.44,0.43 -60.3 0 1 -0.75,0.21 Q 41.64,313.56 23.04,304.47 21.95,303.94 22.81,303.08 L 156.5,169.37 q 0.37,-0.37 0.75,0 l 12.67,12.67 q 0.36,0.37 0.06,0.78 l -0.2,0.27 a 0.51,0.5 40.1 0 1 -0.76,0.06 l -2.13,-2.14 q -0.49,-0.48 -0.97,0 z m -10.5838,-5.2649 a 1.34,1.34 0 0 0 -1.8948,-0.0265 l -2.5809,2.5098 a 1.34,1.34 0 0 0 -0.0265,1.8949 l 0.0698,0.0716 a 1.34,1.34 0 0 0 1.8948,0.0265 l 2.5809,-2.5098 a 1.34,1.34 0 0 0 0.0265,-1.8949 z m -6.9867,6.9686 a 1.34,1.34 0 0 0 -1.8949,-0.0264 l -2.5952,2.5237 a 1.34,1.34 0 0 0 -0.0265,1.8949 l 0.0976,0.1004 a 1.34,1.34 0 0 0 1.8949,0.0264 l 2.5952,-2.5237 a 1.34,1.34 0 0 0 0.0265,-1.8949 z m -8.8624,8.6936 a 1.25,1.25 0 0 0 -1.7678,-0.003 l -4.3492,4.3341 a 1.25,1.25 0 0 0 -0.003,1.7677 l 0.2259,0.2267 a 1.25,1.25 0 0 0 1.7678,0.003 l 4.3492,-4.3341 a 1.25,1.25 0 0 0 0.003,-1.7677 z m -9.1401,11.3421 a 1.22,1.22 0 0 0 -0.003,-1.7253 l -0.2691,-0.2682 a 1.22,1.22 0 0 0 -1.7254,0.003 l -4.3764,4.3917 a 1.22,1.22 0 0 0 0.003,1.7253 l 0.2691,0.2682 a 1.22,1.22 0 0 0 1.7254,-0.003 z m -8.9085,8.9012 a 1.32,1.32 0 0 0 -0.007,-1.8667 l -0.1277,-0.1269 a 1.32,1.32 0 0 0 -1.8668,0.007 l -4.256,4.2858 a 1.32,1.32 0 0 0 0.007,1.8667 l 0.1277,0.1269 a 1.32,1.32 0 0 0 1.8668,-0.007 z"
       id="path19" /><rect
       fill="#323232"
       x="-3.1400001"
       y="-1.39"
       transform="rotate(-44.2,295.70363,-99.559544)"
       width="6.2800002"
       height="2.78"
       rx="1.34"
       id="rect19" /><rect
       fill="#323232"
       x="-3.1500001"
       y="-1.41"
       transform="rotate(-44.2,300.82078,-87.46971)"
       width="6.3000002"
       height="2.8199999"
       rx="1.34"
       id="rect20" /><rect
       fill="#323232"
       x="-4.3200002"
       y="-1.41"
       transform="rotate(-44.9,303.7177,-67.941035)"
       width="8.6400003"
       height="2.8199999"
       rx="1.25"
       id="rect21" /><rect
       fill="#323232"
       x="-1.41"
       y="-4.3200002"
       transform="rotate(44.9,-183.21837,255.85037)"
       width="2.8199999"
       height="8.6400003"
       rx="1.22"
       id="rect22" /><path
       fill="#ffffff"
       d="m 167.94,204.35 q 1.55,1.35 2.79,2.95 0.33,0.43 0.35,0.96 0.17,4.01 1.5,6.92 4.04,8.81 13.68,28.31 0.24,0.48 -0.24,0.74 l -6.98,3.79 q -0.48,0.26 -0.69,-0.23 -3.57,-8.19 -7.04,-16.36 c -3.67,-8.65 -2.95,-15.99 -12.68,-20.7 a 0.26,0.25 35.8 0 1 -0.07,-0.41 l 7.14,-7.15 a 0.78,0.78 0 0 1 1.02,-0.07 q 0.35,0.27 0.65,0.65 0.26,0.32 0.57,0.6 z"
       id="path22-3" /><rect
       fill="#323232"
       x="-1.41"
       y="-4.3400002"
       transform="rotate(44.8,-198.99075,249.92079)"
       width="2.8199999"
       height="8.6800003"
       rx="1.3200001"
       id="rect23" /><path
       fill="#323232"
       d="m 118.4,280.11 q -0.51,-0.47 -0.07,-1.02 l 19.29,-24.01 a 0.86,0.86 0 0 1 1.25,-0.1 c 11.7,10.63 24.97,17.31 39.33,24.04 3.71,1.75 2.9,6.07 1.24,8.91 -4.06,6.92 -7,13.23 -9.44,17.32 q -2.43,4.06 -6.99,2.02 c -16.64,-7.42 -30.86,-14.41 -44.61,-27.16 z m 10.6,-0.27 c 10.32,8.89 21.76,14.4 35.3,20.13 q 0.46,0.2 0.69,-0.24 l 7.86,-14.66 q 0.28,-0.52 -0.26,-0.78 c -13.47,-6.67 -23.08,-11.17 -33.02,-19.41 a 0.57,0.56 -51 0 0 -0.8,0.09 l -10.81,13.51 q -0.26,0.32 0.01,0.63 0.14,0.18 0.33,0.29 0.69,0.42 0.7,0.44 z"
       id="path23" /><path
       fill="#ffffff"
       d="m 128.3,279.4 q -0.19,-0.11 -0.33,-0.29 -0.27,-0.31 -0.01,-0.63 l 10.81,-13.51 a 0.57,0.56 -51 0 1 0.8,-0.09 c 9.94,8.24 19.55,12.74 33.02,19.41 q 0.54,0.26 0.26,0.78 l -7.86,14.66 q -0.23,0.44 -0.69,0.24 C 150.76,294.24 139.32,288.73 129,279.84 q -0.01,-0.02 -0.7,-0.44 z"
       id="path24-0" /><path
       fill="#323232"
       d="m 92.6,300.08 q -0.35,0.68 0.31,1.06 16.69,9.56 28.85,24.44 0.36,0.44 0,0.88 l -8.52,10.3 q -0.42,0.51 -1.01,0.19 -16.44,-9.1 -28.9,-23.19 a 1.45,1.44 -38.7 0 0 -1.94,-0.21 l -3.97,2.88 q -0.43,0.32 -0.85,-0.02 l -5.27,-4.25 q -0.55,-0.45 -0.1,-1 l 17.57,-21.33 a 0.86,0.86 0 0 1 1.21,-0.11 l 5.22,4.31 q 0.4,0.33 0.16,0.8 z m -7.98,6.47 c 1.42,0.54 2.62,1.09 3.62,2.2 q 9.97,11.1 21.93,18.84 a 1.51,1.51 0 0 0 1.93,-2.3 Q 102.33,314.7 89.51,307.34 c -1.3,-0.75 -2.01,-1.67 -2.72,-2.91 a 0.48,0.48 0 0 0 -0.76,-0.1 l -1.55,1.6 a 0.38,0.38 0 0 0 0.14,0.62 z"
       id="path25" /><path
       fill="#ffffff"
       d="m 84.62,306.55 a 0.38,0.38 0 0 1 -0.14,-0.62 l 1.55,-1.6 a 0.48,0.48 0 0 1 0.76,0.1 c 0.71,1.24 1.42,2.16 2.72,2.91 q 12.82,7.36 22.59,17.95 a 1.51,1.51 0 0 1 -1.93,2.3 Q 98.21,319.85 88.24,308.75 c -1,-1.11 -2.2,-1.66 -3.62,-2.2 z"
       id="path26-1" /></g><g
     clip-path="url(#clip0_619_1196)"
     id="g48"
     transform="matrix(1.0174102,0,0,1.0174102,-10.71054,115.4185)"><path
       d="m 85.3851,31.7552 -1.0921,0.6305 1.0892,1.8866 1.092,-0.6306 z"
       fill="#55554d"
       stroke="#363630"
       stroke-width="1.4031"
       stroke-miterlimit="3.99393"
       stroke-linecap="round"
       id="path2-9" /><path
       d="m 83.0729,33.0929 2.3072,-1.3321 c 0,0 1.0148,-0.596 0.0794,-2.1601 -0.9355,-1.5641 -4.607,1.4913 -4.607,1.4913 z"
       fill="#55554d"
       stroke="#363630"
       stroke-width="1.4031"
       stroke-miterlimit="3.99393"
       stroke-linecap="round"
       id="path4-01" /><path
       d="m 74.7697,26.5003 -0.6694,-0.8367 c -0.2192,-0.2745 -0.1682,-0.6806 0.1136,-0.9081 l 0.7663,-0.6126 c 0.1327,-0.1069 0.2929,-0.1731 0.4608,-0.1911 l 4.1889,-0.4722 c 0.4262,-0.0476 0.8045,0.2464 0.8579,0.6651 l 0.1806,1.4248 z"
       fill="#464640"
       stroke="#353530"
       stroke-width="1.4031"
       stroke-miterlimit="3.99393"
       stroke-linecap="round"
       id="path6-3" /><path
       d="m 83.0713,33.0913 c 0,0 -2.0771,1.4036 -3.48,2.3179 0.3601,-0.2572 0.5812,-0.3829 0.5812,-0.3829 L 79.4437,33.7641 62.3418,43.64 c -1.1635,0.6717 -2.6513,0.2731 -3.323,-0.8904 l -2.4686,-4.2757 -16.3504,9.4399 c -1.2651,-0.0623 -3.4525,-0.0442 -4.7135,0.6839 l 38.8596,-22.4356 6.2374,-0.9299 c 0,0 1.3967,1.8648 -0.1508,2.0433 -0.2014,0.0231 -0.3104,0.2481 -0.1959,0.4149 0.6402,0.9265 2.1675,3.2526 2.7578,5.1274 0.0291,0.0925 0.0558,0.1844 0.0769,0.2735 z"
       fill="#55554d"
       stroke="#363630"
       stroke-width="1.4031"
       stroke-miterlimit="3.99393"
       stroke-linecap="round"
       id="path8-9" /><path
       d="m 63.7492,45.2725 1.1395,-0.6579 c 0.0294,0.9458 0.3407,2.1238 1.414,3.1935 0.0407,0.0403 0.0648,0.0903 0.0728,0.1418 0.0058,0.0371 0.0033,0.0749 -0.0071,0.1106 -0.0174,0.0593 -0.0566,0.1129 -0.1164,0.1474 l -2.5147,1.4519 c -0.0569,-0.0907 -0.1014,-0.1687 -0.1333,-0.2274 -0.0406,-0.0745 -0.0608,-0.1181 -0.0608,-0.1181 -1.3014,-2.2541 0.0066,-3.8294 0.17,-4.0129 0.0111,-0.0126 0.0223,-0.021 0.036,-0.0289 z"
       fill="#4b4b44"
       stroke="#363630"
       stroke-width="1.4031"
       stroke-miterlimit="3.99393"
       id="path10-0" /><path
       d="m 88.0544,21.4047 -8.7458,5.0494 1.988,3.4433 8.7458,-5.0494 z"
       fill="#4b4b44"
       stroke="#363630"
       stroke-width="1.4031"
       stroke-miterlimit="3.99393"
       stroke-linecap="round"
       id="path12-3" /><path
       d="m 29.1016,73.89 2.9016,0.4937 2.5808,-5.7024 z"
       fill="#55554d"
       stroke="#363630"
       stroke-width="1.4031"
       stroke-miterlimit="3.99393"
       stroke-linecap="round"
       id="path14-66" /><path
       d="m 35.4818,71.4743 c 0,0 8.6431,10.5279 10.4526,11.7818 0,0 0.978,0.9259 1.282,1.7225 0.304,0.7966 1.6163,0.0389 1.6163,0.0389 l 6.5483,-6.6949 c 0,0 1.4929,-0.5116 -0.8959,-2.3585 -2.3888,-1.847 -8.8938,-9.6167 -9.8373,-11.7209 l -3.1003,-0.859 -6.4991,5.7734 z"
       fill="#484841"
       stroke="#363630"
       stroke-width="1.4031"
       stroke-miterlimit="3.99393"
       stroke-linecap="round"
       id="path16-7" /><path
       d="m 83.2613,35.5004 4.7268,-2.7291 c 0,0 2.6403,5.3694 4.2729,6.9098 1.6326,1.5403 2.5782,4.4655 2.5782,4.4655 0,0 1.2619,2.0419 2.0135,2.2702 0.7515,0.2284 -1.6921,2.2994 -1.6921,2.2994 0,0 -3.2173,2.5198 -4.3635,0.5346 -1.1461,-1.9852 -3.2292,-5.9509 -4.0631,-8.6125 -0.834,-2.6616 -3.2067,-3.9792 -3.2067,-3.9792 0,0 -1.3292,-0.5449 -0.266,-1.1587 z"
       fill="#6e6e4a"
       stroke="#3d3d28"
       stroke-width="1.4031"
       stroke-miterlimit="3.99393"
       stroke-linecap="round"
       id="path18-3" /><path
       d="m 62.3438,43.6398 c -1.1635,0.6718 -2.6513,0.2731 -3.323,-0.8904 L 56.5522,38.4737 3.86914,68.8903 C -0.962482,71.6799 3.4354,75.7895 3.4354,75.7895 l 16.7421,16.5136 7.3589,-4.2487 c 2.1538,-1.2434 0.1804,-2.5708 0.1804,-2.5708 -2.5452,-0.6306 -0.8045,-3.5191 -0.8045,-3.5191 0,0 4.3574,-8.8586 5.8428,-10.8564 1.4878,-1.9972 2.4936,0.1876 2.6655,0.3303 0.1719,0.1427 8.5701,-7.4228 8.7922,-7.6279 0.2221,-0.2052 1.1431,-1.5349 0.4924,-2.8198 -0.6484,-1.2844 0.5384,-2.3402 0.5384,-2.3402 0,0 1.8131,-1.9318 5.1431,-4.9054 2.4134,-2.1549 4.2899,-1.6687 4.2899,-1.6687 0,0 1.5879,0.8876 1.2025,4.952 -0.5282,5.5745 3.2148,11.2368 3.6171,11.6951 0.4023,0.4583 1.6533,-0.1708 6.8099,-3.0568 5.1575,-2.8845 5.5125,-6.1597 5.5125,-6.1597 0,0 1.2497,-7.352 2.0431,-14.3474 0.7933,-6.9954 6.3128,-10.1334 6.3128,-10.1334 L 79.4458,33.764 Z m 9.5058,1.9038 -2.1513,13.4479 c -0.019,0.1654 0.0227,1.7265 -2.6429,3.2656 -2.7994,1.6162 -2.9486,-0.6206 -2.9486,-0.6206 0,0 -0.732,-7.2731 -0.9027,-8.8878 -0.1495,-1.4165 0.4822,-1.7325 0.6398,-1.7891 0.03,-0.0113 0.0576,-0.0231 0.0849,-0.0389 l 0.4117,-0.2377 c 0.082,-0.0473 0.0986,-0.1623 0.0303,-0.2281 -0.55,-0.5492 -0.8253,-1.1417 -0.8253,-1.1417 -1.3013,-2.254 0.05,-3.9516 0.2453,-4.0644 l 4.4598,-2.5749 c 0.3995,-0.2306 0.8676,-0.3247 1.3227,-0.2451 2.9326,0.5123 2.3107,2.9815 2.2763,3.1148 z"
       fill="#6e6e4a"
       id="path20-4" /><path
       d="m 71.8487,45.5421 9e-4,0.0015 m 0,0 -2.1513,13.4479 c -0.019,0.1654 0.0227,1.7265 -2.6429,3.2656 -2.7994,1.6162 -2.9486,-0.6206 -2.9486,-0.6206 0,0 -0.732,-7.2731 -0.9027,-8.8878 -0.1495,-1.4165 0.4822,-1.7325 0.6398,-1.7891 0.03,-0.0113 0.0576,-0.0231 0.0849,-0.0389 l 0.4117,-0.2377 c 0.082,-0.0473 0.0986,-0.1623 0.0303,-0.2281 -0.55,-0.5492 -0.8253,-1.1417 -0.8253,-1.1417 -1.3013,-2.254 0.05,-3.9516 0.2453,-4.0644 l 4.4598,-2.5749 c 0.3995,-0.2306 0.8676,-0.3247 1.3227,-0.2451 2.9326,0.5123 2.3107,2.9815 2.2763,3.1148 z m -9.5058,-1.9038 c -1.1635,0.6718 -2.6513,0.2731 -3.323,-0.8904 L 56.5522,38.4737 3.86914,68.8903 C -0.962482,71.6799 3.4354,75.7895 3.4354,75.7895 l 16.7421,16.5136 7.3589,-4.2487 c 2.1538,-1.2435 0.1804,-2.5708 0.1804,-2.5708 -2.5452,-0.6306 -0.8045,-3.5191 -0.8045,-3.5191 0,0 4.3574,-8.8586 5.8428,-10.8564 1.4878,-1.9972 2.4936,0.1876 2.6655,0.3303 0.1719,0.1427 8.5701,-7.4228 8.7922,-7.6279 0.2221,-0.2052 1.1431,-1.5349 0.4924,-2.8198 -0.6484,-1.2844 0.5384,-2.3402 0.5384,-2.3402 0,0 1.8131,-1.9318 5.1431,-4.9054 2.4134,-2.1549 4.2899,-1.6687 4.2899,-1.6687 0,0 1.5879,0.8876 1.2025,4.952 -0.5282,5.5745 3.2148,11.2368 3.6171,11.6951 0.4023,0.4583 1.6533,-0.1708 6.8099,-3.0568 5.1575,-2.8845 5.5125,-6.1597 5.5125,-6.1597 0,0 1.2497,-7.352 2.0431,-14.3474 0.7933,-6.9954 6.3128,-10.1334 6.3128,-10.1334 L 79.4458,33.764 Z"
       stroke="#3d3d28"
       stroke-width="1.4031"
       stroke-miterlimit="3.99393"
       stroke-linecap="round"
       id="path22-5" /><path
       d="M 2.09277,74.0586 2.44355,74.6662 26.9237,60.5325 26.5729,59.925 Z"
       fill="#4f4f35"
       id="path24-6" /><path
       d="M 4.53809,77.2803 4.88886,77.8878 42.4984,56.174 42.1476,55.5664 Z"
       fill="#4f4f35"
       id="path26-6" /><path
       d="m 36.5786,52.1387 -10.7811,6.2245 c -0.2215,0.1279 -0.2974,0.4111 -0.1695,0.6325 l 0.8138,1.4096 c 0.1279,0.2214 0.411,0.2973 0.6325,0.1694 l 10.7811,-6.2245 c 0.2215,-0.1278 0.2974,-0.411 0.1695,-0.6325 l -0.8138,-1.4095 c -0.1278,-0.2215 -0.411,-0.2973 -0.6325,-0.1695 z"
       fill="#464640"
       stroke="#353530"
       stroke-width="0.701549"
       stroke-miterlimit="3.99393"
       stroke-linecap="round"
       id="path28-6" /><path
       d="m 71.0548,32.8221 -9.0572,5.2292 c -0.7198,0.4155 -0.9664,1.3359 -0.5509,2.0556 0.4156,0.7198 1.3368,0.9679 2.0565,0.5523 l 9.0573,-5.2291 c 0.7197,-0.4156 0.9654,-1.3374 0.5499,-2.0572 -0.4156,-0.7197 -1.3359,-0.9663 -2.0556,-0.5508 z"
       fill="#464640"
       stroke="#353530"
       stroke-width="0.701549"
       stroke-miterlimit="3.99393"
       stroke-linecap="round"
       id="path30-3" /><path
       d="m 88.8591,24.2817 -7.8679,4.5425 1.2979,2.248 7.8679,-4.5426 z"
       fill="#4e4e46"
       stroke="#363630"
       stroke-width="1.4031"
       stroke-miterlimit="3.99393"
       stroke-linecap="round"
       id="path32-0" /><path
       d="m 41.5703,55.2656 2.7052,-1.5618 0.7822,1.3549 c 0.2403,0.4161 0.0978,0.948 -0.3184,1.1883 l -1.2334,0.7121 c -0.3964,0.2288 -0.9043,0.0927 -1.1332,-0.3037 z"
       fill="#464640"
       stroke="#353530"
       stroke-width="0.701549"
       stroke-miterlimit="3.99393"
       stroke-linecap="round"
       id="path34" /><path
       d="m 103.203,13.4449 -14.8075,8.5492 1.3417,2.324 14.8078,-8.5493 z"
       fill="#46463f"
       stroke="#363630"
       stroke-width="1.4031"
       stroke-miterlimit="3.99393"
       stroke-linecap="round"
       id="path36-8" /><path
       d="m 100.082,14.6111 -0.9934,0.5735 c -0.1401,0.0809 -0.1881,0.26 -0.1072,0.4001 l 1.5096,2.6156 c 0.081,0.14 0.261,0.188 0.401,0.1072 l 0.993,-0.5736 c 0.14,-0.0808 0.188,-0.26 0.107,-0.4001 l -1.51,-2.6155 c -0.081,-0.1401 -0.26,-0.1881 -0.4,-0.1072 z"
       fill="#46463f"
       stroke="#363630"
       stroke-width="1.4031"
       stroke-miterlimit="3.99393"
       stroke-linecap="round"
       id="path38-0" /><path
       d="m 106.036,11.1734 -3.814,2.202 c -0.266,0.154 -0.358,0.4951 -0.204,0.7619 l 1.245,2.1568 c 0.154,0.2668 0.495,0.3582 0.762,0.2042 l 3.814,-2.202 c 0.267,-0.154 0.358,-0.4951 0.204,-0.7619 l -1.245,-2.1568 c -0.154,-0.2668 -0.495,-0.3582 -0.762,-0.2042 z"
       fill="#46463f"
       stroke="#363630"
       stroke-width="1.4031"
       stroke-miterlimit="3.99393"
       stroke-linecap="round"
       id="path40-5" /><path
       d="m 91.628,25.6793 -1.4688,0.848 -1.2979,-2.248 1.2729,-0.7349 c 0,0 0.6557,-0.0849 1.1775,0.8188 0.5218,0.9038 0.3163,1.3161 0.3163,1.3161 z"
       fill="#97978c"
       stroke="#363630"
       stroke-width="1.4031"
       stroke-miterlimit="3.99393"
       stroke-linecap="round"
       id="path42-4" /><path
       d="M 1.6586,71.1543 C 1.58125,71.0308 1.50095,70.9759 1.48528,71.1207 c -0.10452,0.9555 -0.570549,3.5332 1.98942,6.0064 3.13807,3.0325 13.9541,13.1373 15.3416,15.0986 0.1193,0.1295 0.7836,0.7363 2.2949,-0.1362 l 0.2248,-0.1298 c 0.0896,-0.0517 0.1049,-0.176 0.0276,-0.2468 C 19.6027,90.0765 3.71491,74.4002 1.6586,71.1543 Z"
       fill="#464640"
       stroke="#353530"
       stroke-width="1.4031"
       stroke-miterlimit="3.99393"
       stroke-linecap="round"
       id="path44-4" /><path
       d="M 71.4964,26.6513 34.6768,47.9092 35.1766,48.775 71.9963,27.5171 Z"
       fill="#464640"
       stroke="#353530"
       stroke-width="0.701549"
       stroke-miterlimit="3.99393"
       stroke-linecap="round"
       id="path46-7" /></g><path
     style="fill:#484841;fill-opacity:1;stroke:#171717;stroke-width:0.0883883;stroke-opacity:0"
     d="m 7.4742377,-15.443767 c -1.6679253,-2.817968 -4.0059638,-5.588142 -6.74806319,-7.995298 -0.5027855,-0.441371 -0.6021565,-0.570374 -0.53033,-0.688471 0.0486136,-0.07993 2.81295899,-1.826344 6.14298989,-3.88092 3.3300306,-2.054576 14.0692146,-8.681013 23.8648526,-14.725414 9.795638,-6.044402 17.882687,-10.992898 17.971218,-10.996657 0.11779,-0.005 0.538623,0.603523 1.568893,2.268625 0.77436,1.251503 1.407927,2.330495 1.407927,2.397759 0,0.16409 -0.204892,0.325713 -0.316135,0.249375 -0.04908,-0.03368 -0.206845,-0.250095 -0.350589,-0.480922 -0.143745,-0.230828 -0.287497,-0.419758 -0.319448,-0.419845 -0.04817,-1.31e-4 -11.450773,7.028568 -11.55402,7.122033 -0.01828,0.01655 0.190534,0.390141 0.464039,0.830203 0.273503,0.440062 0.49728,0.870007 0.49728,0.955434 0,0.103785 -1.231766,1.031606 -3.712311,2.796275 -2.041771,1.452523 -3.71231,2.679719 -3.71231,2.727101 0,0.04738 0.460976,0.836239 1.024391,1.753015 0.563416,0.916775 1.010882,1.703842 0.994369,1.749038 -0.05893,0.161295 -5.071378,3.930856 -5.234825,3.936798 -0.158062,0.0057 -0.412706,-0.368268 -2.061894,-3.028457 l -0.284018,-0.45813 -7.670933,5.754313 c -4.219013,3.164872 -7.841459,5.934998 -8.049879,6.155836 -0.544097,0.57651 -1.013673,1.412657 -1.844356,3.284134 -0.401587,0.904752 -0.781576,1.654653 -0.844419,1.666447 -0.06297,0.01182 -0.378293,-0.424641 -0.7024293,-0.972272 z M 34.290092,-43.452816 c 0.902236,-0.557612 1.043184,-0.706444 0.8936,-0.943586 -0.217903,-0.345448 -0.339802,-0.324523 -1.190511,0.204365 -0.794419,0.493891 -1.049455,0.702204 -1.049455,0.857199 0,0.08491 0.32861,0.425048 0.410643,0.425048 0.0314,0 0.452475,-0.244361 0.935723,-0.543026 z m 3.225108,-1.991276 c 0.892451,-0.538679 1.034692,-0.737833 0.738305,-1.033718 l -0.188805,-0.188485 -0.372875,0.211643 c -0.919517,0.521915 -1.566119,0.987439 -1.566119,1.127537 0,0.218456 0.275161,0.487696 0.436365,0.426976 0.07599,-0.02862 0.504896,-0.273401 0.953129,-0.543953 z m 3.278692,-2.021889 c 0.438461,-0.269679 0.84613,-0.54928 0.90593,-0.621336 0.151317,-0.182325 -0.02988,-0.567716 -0.266923,-0.567716 -0.247914,0 -1.948436,1.056727 -1.948436,1.210784 0,0.226936 0.179267,0.468595 0.347612,0.468595 0.09054,0 0.523356,-0.220647 0.961817,-0.490327 z m 3.507736,-2.152233 c 0.546711,-0.342269 0.692402,-0.600244 0.482098,-0.853645 -0.160155,-0.192975 -0.319804,-0.158273 -0.912478,0.19834 -0.721579,0.434176 -0.813893,0.582557 -0.535578,0.860872 0.202039,0.202039 0.372999,0.165657 0.965958,-0.205567 z m 2.512733,-1.566217 c 0.548738,-0.326881 0.67583,-0.56645 0.430599,-0.811681 -0.167019,-0.167019 -0.324989,-0.129151 -0.924688,0.221658 -0.46259,0.270604 -0.560236,0.368173 -0.560236,0.559793 0,0.127638 0.02652,0.258585 0.05893,0.290994 0.133751,0.133752 0.489627,0.04052 0.995399,-0.260764 z"
     id="path35" /><path
     style="fill:#484841;fill-opacity:1;stroke:#171717;stroke-width:0.0883883;stroke-opacity:0"
     d="m 23.406995,-11.666911 c -1.340574,-1.411276 -2.885199,-3.52065 -4.154499,-5.673476 -0.422703,-0.716935 -0.772949,-1.196248 -1.042474,-1.426631 l -0.405896,-0.34695 0.377192,-0.273236 c 0.207456,-0.15028 0.406953,-0.254843 0.443328,-0.232362 0.03638,0.02248 0.170809,0.254817 0.298742,0.516302 0.127933,0.261486 0.441231,0.673815 0.696219,0.916289 0.857199,0.815128 1.811194,1.855607 2.54708,2.777985 1.109871,1.391139 2.556923,3.633663 2.556923,3.962512 0,0.151573 -0.342235,0.44488 -0.519093,0.44488 -0.09116,0 -0.449504,-0.29894 -0.797522,-0.665313 z"
     id="path37" /><path
     style="fill:#484841;fill-opacity:1;stroke:#171717;stroke-width:0.0883883;stroke-opacity:0"
     d="m 40.147376,-16.361346 c -2.547866,-1.942088 -4.315108,-3.496531 -5.675431,-4.992038 -0.892605,-0.981309 -2.146938,-2.569335 -2.146938,-2.718095 0,-0.132288 4.06159,-3.281963 4.232179,-3.281963 0.07967,0 0.363215,0.287547 0.630089,0.638994 1.089767,1.43511 3.538395,3.782337 6.465292,6.197553 0.715983,0.590816 1.304081,1.13404 1.306882,1.207165 0.0068,0.17686 -3.236135,3.837877 -3.426311,3.868064 -0.08158,0.01295 -0.705172,-0.400906 -1.385762,-0.91968 z"
     id="path39" /><ellipse
     style="fill:#484841;fill-opacity:1;stroke:#171717;stroke-opacity:0"
     id="path41"
     cx="8.1640615"
     cy="-14.90625"
     rx="0.2578125"
     ry="0.43749997" /><ellipse
     style="fill:#484841;fill-opacity:1;stroke:#171717;stroke-width:1.13752;stroke-opacity:0"
     id="path43"
     cx="22.179905"
     cy="-21.504135"
     rx="0.57771766"
     ry="0.21694832"
     transform="matrix(0.8335072,-0.5525086,0.82800182,0.56072541,0,0)" /><ellipse
     style="fill:#484841;fill-opacity:1;stroke:#171717;stroke-opacity:0"
     id="path45"
     cx="-13.609446"
     cy="-19.725765"
     rx="0.18359375"
     ry="0.12304688"
     transform="rotate(35.368879)" /><ellipse
     style="fill:#484841;fill-opacity:1;stroke:#171717;stroke-opacity:0"
     id="path47"
     cx="24.04965"
     cy="-11.139702"
     rx="0.11048543"
     ry="0.093912616" /><ellipse
     style="fill:#484841;fill-opacity:1;stroke:#171717;stroke-opacity:0"
     id="path49"
     cx="23.972311"
     cy="-11.29438"
     rx="0.24306795"
     ry="0.17125243" /><ellipse
     style="fill:#484841;fill-opacity:1;stroke:#171717;stroke-width:2.061;stroke-opacity:0"
     id="path51"
     cx="18.664961"
     cy="-19.495171"
     rx="0.064406484"
     ry="0.056355674" /><ellipse
     style="fill:#484841;fill-opacity:1;stroke:#171717;stroke-width:1.54603;stroke-opacity:0"
     id="path53"
     cx="-30.943474"
     cy="-26.243422"
     rx="0.62674922"
     ry="0.23521404"
     transform="rotate(95.230625)" /><ellipse
     style="fill:#484841;fill-opacity:1;stroke:#171717;stroke-width:1.54603;stroke-opacity:0"
     id="path53-3"
     cx="-30.973694"
     cy="-26.179571"
     rx="0.62674922"
     ry="0.23521404"
     transform="rotate(95.230625)" /><ellipse
     style="fill:#484841;fill-opacity:1;stroke:#171717;stroke-width:1.54603;stroke-opacity:0"
     id="path53-3-1"
     cx="-31.133461"
     cy="-26.039419"
     rx="0.62674922"
     ry="0.23521404"
     transform="rotate(95.230625)" /><ellipse
     style="fill:#484841;fill-opacity:1;stroke:#171717;stroke-width:1.54603;stroke-opacity:0"
     id="path53-3-1-0"
     cx="-40.660282"
     cy="-2.2620564"
     rx="0.62674922"
     ry="0.23521404"
     transform="rotate(132.79771)" /><ellipse
     style="fill:#484841;fill-opacity:1;stroke:#171717;stroke-opacity:0"
     id="path55"
     cx="34.046875"
     cy="-31.830078"
     rx="0.12890625"
     ry="0.17382812" /><ellipse
     style="fill:#484841;fill-opacity:1;stroke:#171717;stroke-width:1.06309;stroke-opacity:0"
     id="path57"
     cx="36.486824"
     cy="-27.010933"
     rx="0.3406215"
     ry="0.39934936" /><ellipse
     style="fill:#484841;fill-opacity:1;stroke:#171717;stroke-opacity:0"
     id="path59"
     cx="32.468639"
     cy="-24.011253"
     rx="0.15467961"
     ry="0.25964078" /><ellipse
     style="fill:#484841;fill-opacity:1;stroke:#171717;stroke-width:1.03808;stroke-opacity:0"
     id="path61"
     cx="41.561592"
     cy="-15.641983"
     rx="0.3455599"
     ry="0.22402592" /><ellipse
     style="fill:#484841;fill-opacity:1;stroke:#171717;stroke-opacity:0"
     id="path63"
     cx="44.807102"
     cy="-19.224472"
     rx="0.21268447"
     ry="0.29002425" /><ellipse
     style="fill:#484841;fill-opacity:1;stroke:#171717;stroke-width:1.22493;stroke-opacity:0"
     id="path65"
     cx="47.251923"
     cy="-30.861654"
     rx="0.63309032"
     ry="0.36538407"
     transform="rotate(-12.915118)" /><ellipse
     style="fill:#484841;fill-opacity:1;stroke:#171717;stroke-opacity:0"
     id="path67"
     cx="38.021484"
     cy="-46.716797"
     rx="0.24023438"
     ry="0.091796875" /><ellipse
     style="fill:#484841;fill-opacity:1;stroke:#171717;stroke-width:0.98946;stroke-opacity:0"
     id="path69"
     cx="66.536163"
     cy="-22.894829"
     rx="0.82768881"
     ry="0.062665604"
     transform="matrix(0.86921201,-0.49443957,0.45870625,0.88858797,0,0)" /><ellipse
     style="fill:#484841;fill-opacity:1;stroke:#171717;stroke-opacity:0"
     id="path70"
     cx="48.267578"
     cy="-53.304688"
     rx="0.28320312"
     ry="0.3671875" /><ellipse
     style="fill:#484841;fill-opacity:1;stroke:#171717;stroke-opacity:0"
     id="path71"
     cx="48.132812"
     cy="-53.556641"
     rx="0.21484375"
     ry="0.13476562" /><ellipse
     style="fill:#484841;fill-opacity:1;stroke:#171717;stroke-opacity:0"
     id="path72"
     cx="48.525391"
     cy="-53.292969"
     rx="0.037109375"
     ry="0.07421875" /><ellipse
     style="fill:#484841;fill-opacity:1;stroke:#171717;stroke-opacity:0"
     id="path73"
     cx="48.195312"
     cy="-53.591797"
     rx="0.1953125"
     ry="0.17382812" /><ellipse
     style="fill:#484841;fill-opacity:1;stroke:#171717;stroke-opacity:0"
     id="path74"
     cx="46.642578"
     cy="-52.751953"
     rx="0.11914062"
     ry="0.095703125" /><ellipse
     style="fill:#484841;fill-opacity:1;stroke:#171717;stroke-width:1.03751;stroke-opacity:0"
     id="path75"
     cx="51.104771"
     cy="-49.094212"
     rx="0.077924378"
     ry="0.13869137" /><ellipse
     style="fill:#484841;fill-opacity:1;stroke:#171717;stroke-width:6.61436;stroke-opacity:0"
     id="path76"
     cx="160.34254"
     cy="-105.21002"
     rx="9.8520098"
     ry="1.6582146"
     transform="matrix(0.85869102,-0.51249364,0.94507903,-0.32684189,0,0)" /><ellipse
     style="fill:#484841;fill-opacity:1;stroke:#171717;stroke-width:6.61436;stroke-opacity:0"
     id="path76-6"
     cx="143.47594"
     cy="-104.62921"
     rx="9.8520098"
     ry="1.6582146"
     transform="matrix(0.85869102,-0.51249364,0.94507903,-0.32684189,0,0)" /><ellipse
     style="fill:#484841;fill-opacity:1;stroke:#171717;stroke-width:6.61436;stroke-opacity:0"
     id="path76-6-1"
     cx="127.70393"
     cy="-103.4657"
     rx="9.8520098"
     ry="1.6582146"
     transform="matrix(0.85869102,-0.51249364,0.94507903,-0.32684189,0,0)" /><ellipse
     style="fill:#484841;fill-opacity:1;stroke:#171717;stroke-width:6.61436;stroke-opacity:0"
     id="path76-6-1-9"
     cx="121.72856"
     cy="-101.56754"
     rx="9.8520098"
     ry="1.6582146"
     transform="matrix(0.85869102,-0.51249364,0.94507903,-0.32684189,0,0)" /><ellipse
     style="fill:#484841;fill-opacity:1;stroke:#171717;stroke-width:4.20898;stroke-opacity:0"
     id="path76-6-1-9-1"
     cx="62.457901"
     cy="-76.029648"
     rx="6.3026071"
     ry="1.0496042"
     transform="matrix(0.65677344,0.75408796,0.48578461,0.87407855,0,0)" /><path
     style="fill:#6e6e4a;fill-opacity:1;stroke:#171717;stroke-width:0.0625;stroke-opacity:0"
     d="m 55.149366,-51.516582 c -0.131611,-0.0871 -1.784824,-2.834767 -1.75398,-2.915144 0.02682,-0.0699 3.195626,-2.038665 12.970019,-8.058237 1.283785,-0.790621 2.347972,-1.4735 2.36486,-1.517509 0.01689,-0.04401 -0.1827,-0.425545 -0.44353,-0.847858 -0.564443,-0.913899 -0.624,-1.258433 -0.199099,-1.151789 0.100887,0.02532 0.288604,0.275621 0.637073,0.84947 0.271723,0.447465 0.533573,0.813646 0.581891,0.813736 0.04832,8.9e-5 0.180035,-0.07015 0.292705,-0.156087 0.11267,-0.08594 0.256382,-0.15625 0.31936,-0.15625 0.0827,0 0.448417,0.538325 1.31667,1.938105 0.66119,1.065957 1.202165,1.978588 1.202165,2.028069 0,0.04948 -0.09141,0.158282 -0.203125,0.241781 -0.167802,0.125416 -12.847614,7.963312 -13.994272,8.650417 l -0.353647,0.211913 -0.919066,-0.163225 -0.919066,-0.163225 -0.372391,0.221832 c -0.3983,0.237266 -0.42009,0.244467 -0.526567,0.174001 z m 15.482943,-9.310178 c 0.195421,-0.115438 0.430191,-0.529083 0.430191,-0.757963 0,-0.07645 -0.05803,-0.252755 -0.128956,-0.391781 -0.15837,-0.310431 -0.576908,-0.526162 -0.902353,-0.465109 -0.749118,0.140536 -0.97434,1.131951 -0.361066,1.589395 0.220874,0.164751 0.704709,0.177552 0.962184,0.02546 z"
     id="path77" /><path
     style="fill:#6e6e4a;fill-opacity:1;stroke:#171717;stroke-width:0.0625;stroke-opacity:0"
     d="m 53.043412,-56.824072 c -0.04611,-0.07461 -0.230912,-1.064687 -0.230912,-1.237109 0,-0.119629 0.768148,-0.614938 5.043642,-3.252187 2.774003,-1.711086 5.089307,-3.123008 5.14512,-3.137603 0.07237,-0.01892 0.196028,0.12764 0.431085,0.510941 0.181284,0.295613 0.315486,0.574278 0.298226,0.619256 -0.03384,0.08819 -10.352169,6.471492 -10.540487,6.520738 -0.06241,0.01632 -0.128417,0.0055 -0.146674,-0.02404 z"
     id="path78" /><path
     style="fill:#6e6e4a;fill-opacity:1;stroke:#171717;stroke-width:0.0625;stroke-opacity:0"
     d="m 49.081393,-29.482964 c -0.06203,-0.08054 -0.222626,-0.950366 -0.77051,-4.173286 -0.210609,-1.238905 -0.332974,-2.190388 -0.401888,-3.125 -0.11688,-1.585118 -0.259871,-2.346818 -0.558676,-2.976017 -0.300811,-0.633422 -0.530402,-0.95047 -1.075199,-1.484768 -0.362641,-0.355652 -0.448863,-0.472827 -0.386199,-0.524834 0.260376,-0.216093 2.656935,-1.639716 2.73502,-1.624678 0.108376,0.02087 0.522308,0.632357 0.85286,1.259897 l 0.226948,0.43085 -0.07982,0.646983 c -0.04457,0.361297 -0.06264,0.847197 -0.04091,1.1004 0.05223,0.608573 0.744807,3.855295 1.849838,8.671826 0.195876,0.85377 0.234148,1.108743 0.174622,1.16337 -0.04193,0.03848 -0.568421,0.201984 -1.169983,0.363347 -0.601563,0.161363 -1.138998,0.306451 -1.194301,0.322417 -0.0553,0.01597 -0.128116,-0.0068 -0.161806,-0.05051 z"
     id="path79" /><g
     id="g79"
     transform="matrix(0.21081614,0,0,0.21081614,-6.9471767,16.142204)"><g
       stroke-width="2"
       fill="none"
       stroke-linecap="butt"
       id="g15"><path
         stroke="#50503e"
         vector-effect="non-scaling-stroke"
         d="m 387.4,118.41 q -0.63,-1.18 -1.62,-1.19 -0.56,0 -0.45,0.54 0.33,1.53 1.64,2.13"
         id="path1-9" /><path
         stroke="#50503e"
         vector-effect="non-scaling-stroke"
         d="m 348.93,112.03 4.43,7.07 q 0.25,0.4 0.72,0.4 h 0.65 a 0.58,0.58 0 0 0 0.51,-0.85 q -1.88,-3.54 -4.1,-6.81 -0.24,-0.37 -1.13,-0.38"
         id="path2-1" /><path
         stroke="#50503e"
         vector-effect="non-scaling-stroke"
         d="m 370.73,119.68 q -1.95,-3.41 -4.33,-6.62 -1.16,-1.56 -2.45,-0.11 a 0.94,0.93 51.1 0 0 -0.11,1.09 l 4.23,7.18 q 0.43,0.74 -0.29,1.19 l -71.03,43.75 a 1.2,1.2 0 0 0 -0.39,1.65 l 7.85,12.7 a 1.18,1.18 0 0 0 1.75,0.3 c 4.77,-3.88 9.04,1.44 14.32,-1.81 q 32.52,-19.97 65.24,-40.25 a 1.47,1.46 -32.1 0 0 0.47,-2.02 l -11.12,-17.88 a 0.75,0.75 0 0 0 -1.06,-0.22 l -1.95,1.31 a 0.8,0.79 -31.7 0 1 -1.13,-0.26"
         id="path3-5" /><path
         stroke="#50503e"
         vector-effect="non-scaling-stroke"
         d="m 342.52,120.05 a 1.03,1.03 0 0 0 -1.41,-0.33 l -47.23,29.1 a 1.03,1.03 0 0 0 -0.47,1.09 l 1.13,5.41 a 1.03,1.03 0 0 0 1.55,0.67 l 48.85,-30.15 a 1.03,1.03 0 0 0 0.33,-1.43 l -2.75,-4.36"
         id="path4-3" /><path
         stroke="#50503e"
         vector-effect="non-scaling-stroke"
         d="m 379.19,133.41 a 3.84,3.84 0 0 0 -3.84,-3.84 3.84,3.84 0 0 0 -3.84,3.84 3.84,3.84 0 0 0 3.84,3.84 3.84,3.84 0 0 0 3.84,-3.84"
         id="path5-8" /><path
         stroke="#3d3d3a"
         vector-effect="non-scaling-stroke"
         d="m 76.29,346.2 q 3.49,3.68 7.1,8.17 a 1.06,1.05 37.6 0 0 1.78,-0.23 c 3.56,-7.88 8.09,-20.52 14.87,-25.34 22.08,-15.71 46.22,-34.84 69.68,-52.22 a 0.83,0.83 0 0 1 1.2,0.22 l 9.38,15.04 a 1.42,1.42 0 0 0 2.07,0.38 l 23.85,-18.24 a 1.1,1.1 0 0 0 0.27,-1.44 l -9.3,-15.27 a 0.59,0.58 56.9 0 1 0.16,-0.77 l 34.91,-24.95 q 0.53,-0.37 0.18,-0.91 l -4.38,-6.78 q -0.7,-1.09 0.4,-1.77 l 51.83,-32.1 q 1.22,-0.76 1.86,0.52 0.77,1.54 1.88,3.02 a 1.67,1.38 -84.7 0 0 2.16,-2.17 l -12.82,-20.7 a 1.46,1.45 59.2 0 0 -1.95,-0.5 c -25.87,14.58 -52.17,29.01 -77.14,45.27 -20.02,13.03 -42.03,24.95 -60.21,36.15 -7.04,4.34 -14.61,10.07 -22.07,14.45 -16.75,9.82 -33.93,19.62 -49.87,30.7 a 0.89,0.88 -19 0 0 -0.38,0.76 q 0,0.15 0,0.3 -0.01,0.3 -0.25,0.46 L 46.04,308.4 q -0.8,0.52 -0.24,1.29 14.4,19.49 30.49,36.51"
         id="path6-49" /><path
         stroke="#50503e"
         vector-effect="non-scaling-stroke"
         d="m 272.23,219.99 q -0.28,-0.2 -0.44,-0.22 -0.05,0 -0.4,0.19 -5.01,2.83 -10.47,6.31 a 0.75,0.75 0 0 0 -0.04,1.24 c 7.2,5.29 8.47,11.32 9.39,20.78 q 1.75,17.93 5.65,35.93 a 0.65,0.64 75.9 0 0 0.8,0.48 l 10.29,-2.81 a 1.93,1.93 0 0 0 1.38,-2.27 c -3.4,-15.64 -7.56,-31.38 -9.79,-47.07"
         id="path7-8" /><path
         stroke="#50503e"
         vector-effect="non-scaling-stroke"
         d="m 278.5,229.38 c 1.64,-2.72 -2.15,-8.55 -3.53,-10.35 q -0.36,-0.47 -1.2,-0.23"
         id="path8-2" /><path
         stroke="#3d3d3a"
         vector-effect="non-scaling-stroke"
         d="m 267.5741,178.6228 a 1.32,1.32 0 0 0 -1.8204,-0.4136 l -4.214,2.6538 a 1.32,1.32 0 0 0 -0.4136,1.8203 l 0.1598,0.2539 a 1.32,1.32 0 0 0 1.8204,0.4136 l 4.214,-2.6538 a 1.32,1.32 0 0 0 0.4136,-1.8203 l -0.1598,-0.2539"
         id="path9-1" /><path
         stroke="#3d3d3a"
         vector-effect="non-scaling-stroke"
         d="m 255.8291,185.8462 a 1.28,1.28 0 0 0 -1.77,-0.3795 l -4.45,2.8788 a 1.28,1.28 0 0 0 -0.3794,1.77 l 0.1412,0.2183 a 1.28,1.28 0 0 0 1.77,0.3795 l 4.45,-2.8788 a 1.28,1.28 0 0 0 0.3794,-1.77 l -0.1412,-0.2183"
         id="path10-3" /><path
         stroke="#3d3d3a"
         vector-effect="non-scaling-stroke"
         d="m 241.293,195.0368 a 1.36,1.36 0 0 0 -1.8694,-0.4523 l -7.1869,4.3869 a 1.36,1.36 0 0 0 -0.4522,1.8694 l 0.0625,0.1024 a 1.36,1.36 0 0 0 1.8694,0.4523 l 7.1869,-4.3869 a 1.36,1.36 0 0 0 0.4522,-1.8694 l -0.0625,-0.1024"
         id="path11-9" /><path
         stroke="#3d3d3a"
         vector-effect="non-scaling-stroke"
         d="m 225.4282,204.6274 a 1.21,1.21 0 0 0 -1.6653,-0.3936 l -7.4191,4.5821 a 1.21,1.21 0 0 0 -0.3937,1.6653 l 0.2417,0.3914 a 1.21,1.21 0 0 0 1.6653,0.3936 l 7.4191,-4.5821 a 1.21,1.21 0 0 0 0.3937,-1.6653 l -0.2417,-0.3914"
         id="path12-2" /><path
         stroke="#3d3d3a"
         vector-effect="non-scaling-stroke"
         d="m 210.5876,213.8532 a 1.49,1.49 0 0 0 -2.054,-0.4704 l -6.9464,4.3575 a 1.49,1.49 0 0 0 -0.4704,2.054 l 0.0956,0.1525 a 1.49,1.49 0 0 0 2.054,0.4704 l 6.9464,-4.3575 a 1.49,1.49 0 0 0 0.4704,-2.054 l -0.0956,-0.1525"
         id="path13-6" /><path
         stroke="#3d3d3a"
         vector-effect="non-scaling-stroke"
         d="m 197.49,310.45 c 9.99,14.54 27.09,29.42 42.55,39.61 a 1.36,1.35 -52.3 0 0 1.75,-0.23 l 15.23,-17.12 q 0.86,-0.97 -0.13,-1.8 C 242.94,319.3 229.57,308.03 218.32,293.94 a 1.14,1.14 0 0 0 -1.59,-0.19 l -18.89,14.52 a 1.6,1.59 -36.1 0 0 -0.35,2.18"
         id="path14-3" /><path
         stroke="#3d3d3a"
         vector-effect="non-scaling-stroke"
         d="m 129.2,333.5 c 1.69,1.31 3.62,2.51 4.67,4.37 q 9.76,17.26 23.24,31.75 c 2.41,2.59 6.13,0.71 4.41,-2.36 -7.13,-12.77 -15.88,-22.3 -25.56,-33.04 -1.03,-1.15 -1.49,-2.83 -2.5,-4.07 a 0.78,0.77 -38.6 0 0 -1.08,-0.12 l -3.18,2.49 a 0.62,0.62 0 0 0 0,0.98"
         id="path15-6" /></g><path
       fill="#323232"
       d="m 387.4,118.41 q -0.63,-1.18 -1.62,-1.19 -0.56,0 -0.45,0.54 0.33,1.53 1.64,2.13 l 14.59,24.53 a 1.92,1.92 0 0 1 -0.3,2.34 c -3.46,3.45 -9.32,5.94 -14.08,3.22 a 2.38,2.37 43.9 0 0 -2.41,0.04 l -64.25,39.52 a 1.77,1.68 29.2 0 1 -0.97,0.25 c -2.34,-0.07 -4.81,-0.85 -6.74,-0.86 -3.95,-0.01 -7.08,2.64 -10.24,4.31 a 1.09,1.08 -29.6 0 1 -1.43,-0.39 l -17.53,-28.43 a 0.62,0.61 -34.3 0 1 0.16,-0.82 l 2.12,-1.57 a 1.07,1.07 0 0 0 0.4,-1.1 c -1,-4.14 -1.65,-8.36 -2.7,-12.44 -0.76,-2.92 0.42,-4.36 2.9,-5.89 q 28.57,-17.6 57.7,-35.53 0.85,-0.53 1.43,0.29 l 3.31,4.67 4.43,7.07 q 0.25,0.4 0.72,0.4 h 0.65 a 0.58,0.58 0 0 0 0.51,-0.85 q -1.88,-3.54 -4.1,-6.81 -0.24,-0.37 -1.13,-0.38 0.63,-1.24 1.63,-1.84 8.34,-5.05 16.55,-10.04 a 0.74,0.72 58 0 1 1,0.24 l 4.31,6.9 a 1.15,1.15 0 0 0 1.54,0.39 l 1.93,-1.1 q 0.54,-0.3 0.85,0.23 c 1.87,3.09 4.75,8.83 7.7,10.75 a 0.5,0.5 0 0 0 0.7,-0.67 l -4.32,-7.45 a 1.65,1.65 0 0 1 0.57,-2.23 Q 436.49,73.38 490.2,40.2 q 1.14,-0.7 1.98,-3.17 0.16,-0.45 0.56,-0.7 l 46.3,-28.52 a 1.09,1.07 49.6 0 1 1.27,0.11 q 4.51,3.99 6.22,9.8 a 1.15,1.14 -24.1 0 1 -0.5,1.3 q -22.89,13.99 -46.06,28.21 c -1.05,0.65 -1.64,0.68 -2.77,0.29 a 1.22,1.19 -49.5 0 0 -0.99,0.09 q -17.81,9.94 -34.83,21.2 A 0.85,0.84 73.5 0 0 461,69.52 v 0.47 a 0.53,0.53 0 0 0 0.78,0.47 c 23.8,-12.72 48.08,-24.58 71.3,-38.43 a 1.14,1.13 -50.1 0 1 0.98,-0.09 q 3.11,1.16 5.14,-1.28 a 1.12,1.12 0 0 1 1.8,0.11 l 4.13,6.36 a 0.98,0.98 0 0 1 -0.35,1.39 l -2.81,1.57 a 0.74,0.67 -90 0 0 -0.3,0.33 l -1.89,4.45 q -0.21,0.49 0.09,0.94 l 2.27,3.4 a 0.91,0.9 64.2 0 0 1.03,0.36 l 2,-0.67 q 0.43,-0.14 0.86,0 9.25,2.98 8.09,12.91 a 1.14,1.13 77.8 0 1 -0.55,0.86 l -7.98,4.87 a 0.64,0.64 0 0 1 -0.86,-0.19 l -2.6,-3.9 q -0.29,-0.44 -0.82,-0.39 -1.59,0.17 -2.24,1.49 -0.19,0.39 -0.01,0.79 l 0.71,1.52 q 0.25,0.55 -0.25,0.89 c -4.63,3.05 -10.25,7.09 -15.69,8.24 -2.46,0.52 -4.92,2.34 -6.9,3.15 -12.15,4.96 -21.69,11.6 -33.41,19.64 a 0.63,0.63 0 0 0 -0.2,0.81 l 1.49,2.76 q 0.32,0.6 -0.25,0.97 -14.03,9.11 -28.46,17.44 c -2.07,1.2 -3.86,1.3 -5.72,-0.12 a 1.23,1.22 -72 0 0 -1.96,1 l 0.12,7.1 a 0.97,0.96 73.2 0 1 -0.44,0.83 l -5.87,3.88 a 1.39,1.39 0 0 1 -1.94,-0.42 l -10.63,-16.97 a 0.99,0.99 0 0 1 0.32,-1.37 l 16.39,-10.01 q 0.55,-0.34 0.83,0.25 0.39,0.81 1.19,1.01 0.67,0.16 1.52,-0.39 12.84,-8.21 25.84,-16.13 a 0.8,0.79 -34.3 0 1 1.04,0.19 l 1.7,2.18 a 1.39,1.39 0 0 0 1.83,0.33 q 11.53,-7.1 23,-14.18 c 3.91,-2.43 7.39,-5.72 11.31,-8.61 q 2.05,-1.51 4.34,-3.66 6.19,-5.83 14.11,-9.28 0.41,-0.18 0.65,0.2 l 0.55,0.84 a 1.64,1.64 0 0 0 3,-1.09 c -0.37,-2.87 0.45,-7.56 -3.3,-8.55 a 1.05,1.02 -52.6 0 0 -0.8,0.12 l -135.4,83.61 a 1.53,1.52 -32.4 0 1 -2.07,-0.46 z M 538.3177,16.234 a 1.65,1.65 0 0 0 -2.2661,-0.5566 l -10.846,6.5686 a 1.65,1.65 0 0 0 -0.5566,2.2661 l 0.0933,0.1539 a 1.65,1.65 0 0 0 2.2661,0.5566 l 10.846,-6.5686 a 1.65,1.65 0 0 0 0.5566,-2.2661 z M 501.08,62.06 a 4.49,4.49 0 0 0 -4.49,-4.49 4.49,4.49 0 0 0 -4.49,4.49 4.49,4.49 0 0 0 4.49,4.49 4.49,4.49 0 0 0 4.49,-4.49 z m -12.07,7.5 a 4.57,4.57 0 0 0 -4.57,-4.57 4.57,4.57 0 0 0 -4.57,4.57 4.57,4.57 0 0 0 4.57,4.57 4.57,4.57 0 0 0 4.57,-4.57 z m -12.18,7.52 a 4.54,4.54 0 0 0 -4.54,-4.54 4.54,4.54 0 0 0 -4.54,4.54 4.54,4.54 0 0 0 4.54,4.54 4.54,4.54 0 0 0 4.54,-4.54 z m -12.17,7.44 a 4.52,4.52 0 0 0 -4.52,-4.52 4.52,4.52 0 0 0 -4.52,4.52 4.52,4.52 0 0 0 4.52,4.52 4.52,4.52 0 0 0 4.52,-4.52 z m -12.19,7.5 a 4.51,4.51 0 0 0 -4.51,-4.51 4.51,4.51 0 0 0 -4.51,4.51 4.51,4.51 0 0 0 4.51,4.51 4.51,4.51 0 0 0 4.51,-4.51 z m -12.09,7.49 a 4.54,4.54 0 0 0 -4.54,-4.54 4.54,4.54 0 0 0 -4.54,4.54 4.54,4.54 0 0 0 4.54,4.54 4.54,4.54 0 0 0 4.54,-4.54 z m -12.13,7.48 a 4.55,4.55 0 0 0 -4.55,-4.55 4.55,4.55 0 0 0 -4.55,4.55 4.55,4.55 0 0 0 4.55,4.55 4.55,4.55 0 0 0 4.55,-4.55 z m -12.15,7.43 a 4.52,4.52 0 0 0 -4.52,-4.52 4.52,4.52 0 0 0 -4.52,4.52 4.52,4.52 0 0 0 4.52,4.52 4.52,4.52 0 0 0 4.52,-4.52 z m -45.37,5.26 q -1.95,-3.41 -4.33,-6.62 -1.16,-1.56 -2.45,-0.11 a 0.94,0.93 51.1 0 0 -0.11,1.09 l 4.23,7.18 q 0.43,0.74 -0.29,1.19 l -71.03,43.75 a 1.2,1.2 0 0 0 -0.39,1.65 l 7.85,12.7 a 1.18,1.18 0 0 0 1.75,0.3 c 4.77,-3.88 9.04,1.44 14.32,-1.81 q 32.52,-19.97 65.24,-40.25 a 1.47,1.46 -32.1 0 0 0.47,-2.02 l -11.12,-17.88 a 0.75,0.75 0 0 0 -1.06,-0.22 l -1.95,1.31 a 0.8,0.79 -31.7 0 1 -1.13,-0.26 z m 33.26,2.2 a 4.53,4.53 0 0 0 -4.53,-4.53 4.53,4.53 0 0 0 -4.53,4.53 4.53,4.53 0 0 0 4.53,4.53 4.53,4.53 0 0 0 4.53,-4.53 z m -61.47,-1.83 a 1.03,1.03 0 0 0 -1.41,-0.33 l -47.23,29.1 a 1.03,1.03 0 0 0 -0.47,1.09 l 1.13,5.41 a 1.03,1.03 0 0 0 1.55,0.67 l 48.85,-30.15 a 1.03,1.03 0 0 0 0.33,-1.43 z"
       id="path16-9" /><path
       fill="#323232"
       d="m 362.74,100.12 -8.88,5.43 a 1.36,1.35 58.6 0 1 -1.87,-0.46 L 331.66,71.83 a 1.04,1.04 0 0 1 0.3,-1.4 l 4.22,-2.89 q 0.52,-0.36 1.08,-0.1 c 12.18,5.61 19.98,20.39 25.68,32 a 0.53,0.53 0 0 1 -0.2,0.68 z"
       id="path17-8" /><path
       fill="#6e6e4a"
       d="m 350.01,111.46 q 0.89,0.01 1.13,0.38 2.22,3.27 4.1,6.81 a 0.58,0.58 0 0 1 -0.51,0.85 h -0.65 q -0.47,0 -0.72,-0.4 l -4.43,-7.07 q 0.59,-0.07 1.08,-0.57 z"
       id="path18-1" /><path
       fill="#6e6e4a"
       d="m 370.73,119.68 a 0.8,0.79 -31.7 0 0 1.13,0.26 l 1.95,-1.31 a 0.75,0.75 0 0 1 1.06,0.22 l 11.12,17.88 a 1.47,1.46 -32.1 0 1 -0.47,2.02 Q 352.8,159.03 320.28,179 c -5.28,3.25 -9.55,-2.07 -14.32,1.81 a 1.18,1.18 0 0 1 -1.75,-0.3 l -7.85,-12.7 a 1.2,1.2 0 0 1 0.39,-1.65 l 71.03,-43.75 q 0.72,-0.45 0.29,-1.19 l -4.23,-7.18 a 0.94,0.93 51.1 0 1 0.11,-1.09 q 1.29,-1.45 2.45,0.11 2.38,3.21 4.33,6.62 z m 8.46,13.73 a 3.84,3.84 0 0 0 -3.84,-3.84 3.84,3.84 0 0 0 -3.84,3.84 3.84,3.84 0 0 0 3.84,3.84 3.84,3.84 0 0 0 3.84,-3.84 z"
       id="path19-5" /><path
       fill="#6e6e4a"
       d="m 387.4,118.41 q -0.42,0.64 -0.43,1.48 -1.31,-0.6 -1.64,-2.13 -0.11,-0.54 0.45,-0.54 0.99,0.01 1.62,1.19 z"
       id="path20-7" /><path
       fill="#6e6e4a"
       d="m 342.52,120.05 2.75,4.36 a 1.03,1.03 0 0 1 -0.33,1.43 l -48.85,30.15 a 1.03,1.03 0 0 1 -1.55,-0.67 l -1.13,-5.41 a 1.03,1.03 0 0 1 0.47,-1.09 l 47.23,-29.1 a 1.03,1.03 0 0 1 1.41,0.33 z"
       id="path21" /><circle
       fill="#323232"
       cx="375.35001"
       cy="133.41"
       r="3.8399999"
       id="circle21" /><path
       fill="#323232"
       d="m 294.69,199.39 a 0.79,0.78 60.6 0 0 1.21,0.34 c 4.29,-3.3 9.7,-5.49 15.07,-4.18 9.61,2.36 13.56,12.23 8.08,20.72 -5.91,9.18 -18.01,11.37 -27.79,9.96 -4.35,-0.62 -3.18,8.5 -2.72,10.76 q 3.81,18.7 8.14,37.59 a 2.48,2.48 0 0 0 2.08,1.89 c 8.78,1.22 7.61,9.34 -0.06,11.66 q -14.82,4.5 -21.71,5.35 c -6.75,0.83 -9.34,-3.91 -10.58,-9.98 Q 262.45,264.18 261,245.76 c -0.24,-3.15 -1.15,-8.14 -4.03,-9.9 -2.22,-1.35 -5.31,-0.56 -7.47,-0.7 q -0.54,-0.03 -0.83,-0.5 l -4.62,-7.45 a 1.08,1.07 58.5 0 1 0.35,-1.48 l 31.93,-19.7 a 1.15,1.15 0 0 1 1.58,0.37 q 4.98,8.02 9.72,15.75 c 2.47,4.01 16.87,1.62 20.04,0.3 5.57,-2.32 12.17,-8.29 11.85,-14.71 -0.47,-9.4 -12.92,-12.35 -19.76,-8.31 -2.19,1.29 -3.77,3.87 -5.79,5.7 a 0.89,0.88 -38.2 0 0 -0.14,1.16 c 3.42,5.02 8.29,7.22 14.17,5.03 a 0.83,0.83 0 0 1 0.79,1.45 l -7.29,5.43 q -0.41,0.31 -0.92,0.32 c -4.39,0.11 -9.48,-4.8 -10.18,-8.91 a 1.57,1.56 68.6 0 0 -2.4,-1.05 l -3.25,2.12 a 0.63,0.63 0 0 1 -0.88,-0.2 l -4.77,-7.69 a 1.37,1.37 0 0 0 -1.89,-0.45 l -36.23,22.24 a 1.54,1.54 0 0 0 -0.52,2.09 l 3.62,6.24 a 1.02,1.02 0 0 1 -0.29,1.35 L 210.52,258 q -1.6,1.14 -0.58,2.81 l 8.71,14.26 q 0.31,0.49 -0.16,0.84 l -38.96,29.51 a 1.1,1.1 0 0 1 -1.59,-0.3 l -9.21,-14.8 a 1.23,1.23 0 0 0 -1.78,-0.34 q -30.44,22.57 -60.3,45.15 c -6.3,4.76 -10.8,16.36 -13.47,23.59 a 2.13,2.13 0 0 0 1.03,2.63 q 4.06,2.08 7.38,5.35 c 2.85,2.81 0.64,7.29 -3.27,4.7 q -3.56,-2.36 -7.18,-4.6 c -4.35,-2.69 -9.06,2.88 -12.83,-3.12 C 67.23,346 56.2,330.44 39.72,317.29 q -3.57,-2.85 -4.3,-4.63 c -1.99,-4.9 3.67,-9.71 7.58,-12.16 q 60.08,-37.7 121.24,-75.22 a 1.06,1.05 -33 0 0 0.32,-1.49 q -7.15,-10.6 -13.88,-22.01 -4.07,-6.88 -4.44,-11.78 c -0.59,-7.64 8.8,-11.26 15.4,-9.67 2.95,0.7 3.92,0.01 6.37,-1.31 q 33.35,-17.93 49.54,-26.23 9.86,-5.05 13.48,5.33 3.04,8.73 6.54,17.7 a 0.62,0.61 -20.8 0 0 0.79,0.35 l 2.04,-0.73 a 0.77,0.76 -30 0 1 0.84,0.22 q 1.12,1.28 2.43,0.49 15.48,-9.32 30.51,-18.78 a 1.4,1.39 -31.7 0 1 1.93,0.45 l 22.28,36.35 q 0.28,0.45 0.05,0.92 -0.83,1.76 -2.63,2.45 -1.6,0.6 -1.12,1.85 z m -72.52,-42.18 a 1.36,1.35 -48.8 0 0 -1.11,0.08 q -17.15,9.08 -34.5,18.49 c -10.09,5.48 -17.02,11.83 -23.74,20.54 -4.48,5.8 1.4,12.76 6.62,15.27 3.66,1.76 6.2,0.4 9.34,-1.57 q 25.1,-15.69 49.87,-30.6 a 3.45,3.44 -24.3 0 0 1.51,-3.98 q -2.55,-8.14 -5.52,-16.03 -0.56,-1.49 -2.47,-2.2 z M 76.29,346.2 q 3.49,3.68 7.1,8.17 a 1.06,1.05 37.6 0 0 1.78,-0.23 c 3.56,-7.88 8.09,-20.52 14.87,-25.34 22.08,-15.71 46.22,-34.84 69.68,-52.22 a 0.83,0.83 0 0 1 1.2,0.22 l 9.38,15.04 a 1.42,1.42 0 0 0 2.07,0.38 l 23.85,-18.24 a 1.1,1.1 0 0 0 0.27,-1.44 l -9.3,-15.27 a 0.59,0.58 56.9 0 1 0.16,-0.77 l 34.91,-24.95 q 0.53,-0.37 0.18,-0.91 l -4.38,-6.78 q -0.7,-1.09 0.4,-1.77 l 51.83,-32.1 q 1.22,-0.76 1.86,0.52 0.77,1.54 1.88,3.02 a 1.67,1.38 -84.7 0 0 2.16,-2.17 l -12.82,-20.7 a 1.46,1.45 59.2 0 0 -1.95,-0.5 c -25.87,14.58 -52.17,29.01 -77.14,45.27 -20.02,13.03 -42.03,24.95 -60.21,36.15 -7.04,4.34 -14.61,10.07 -22.07,14.45 -16.75,9.82 -33.93,19.62 -49.87,30.7 a 0.89,0.88 -19 0 0 -0.38,0.76 q 0,0.15 0,0.3 -0.01,0.3 -0.25,0.46 L 46.04,308.4 q -0.8,0.52 -0.24,1.29 14.4,19.49 30.49,36.51 z M 272.23,219.99 q -0.28,-0.2 -0.44,-0.22 -0.05,0 -0.4,0.19 -5.01,2.83 -10.47,6.31 a 0.75,0.75 0 0 0 -0.04,1.24 c 7.2,5.29 8.47,11.32 9.39,20.78 q 1.75,17.93 5.65,35.93 a 0.65,0.64 75.9 0 0 0.8,0.48 l 10.29,-2.81 a 1.93,1.93 0 0 0 1.38,-2.27 c -3.4,-15.64 -7.56,-31.38 -9.79,-47.07 q 0.54,-1.4 -0.1,-3.17 c 1.64,-2.72 -2.15,-8.55 -3.53,-10.35 q -0.36,-0.47 -1.2,-0.23 -1.51,-0.31 -1.54,1.19 z"
       id="path22-8" /><path
       fill="#484841"
       d="M 76.29,346.2 Q 60.2,329.18 45.8,309.69 45.24,308.92 46.04,308.4 L 61.5,298.25 q 0.24,-0.16 0.25,-0.46 0,-0.15 0,-0.3 a 0.89,0.88 -19 0 1 0.38,-0.76 c 15.94,-11.08 33.12,-20.88 49.87,-30.7 7.46,-4.38 15.03,-10.11 22.07,-14.45 18.18,-11.2 40.19,-23.12 60.21,-36.15 24.97,-16.26 51.27,-30.69 77.14,-45.27 a 1.46,1.45 59.2 0 1 1.95,0.5 l 12.82,20.7 a 1.67,1.38 -84.7 0 1 -2.16,2.17 q -1.11,-1.48 -1.88,-3.02 -0.64,-1.28 -1.86,-0.52 l -51.83,32.1 q -1.1,0.68 -0.4,1.77 l 4.38,6.78 q 0.35,0.54 -0.18,0.91 l -34.91,24.95 a 0.59,0.58 56.9 0 0 -0.16,0.77 l 9.3,15.27 a 1.1,1.1 0 0 1 -0.27,1.44 l -23.85,18.24 a 1.42,1.42 0 0 1 -2.07,-0.38 l -9.38,-15.04 a 0.83,0.83 0 0 0 -1.2,-0.22 c -23.46,17.38 -47.6,36.51 -69.68,52.22 -6.78,4.82 -11.31,17.46 -14.87,25.34 a 1.06,1.05 37.6 0 1 -1.78,0.23 q -3.61,-4.49 -7.1,-8.17 z M 267.5741,178.6228 a 1.32,1.32 0 0 0 -1.8204,-0.4136 l -4.214,2.6538 a 1.32,1.32 0 0 0 -0.4136,1.8203 l 0.1598,0.2539 a 1.32,1.32 0 0 0 1.8204,0.4136 l 4.214,-2.6538 a 1.32,1.32 0 0 0 0.4136,-1.8203 z m -11.745,7.2234 a 1.28,1.28 0 0 0 -1.77,-0.3795 l -4.45,2.8788 a 1.28,1.28 0 0 0 -0.3794,1.77 l 0.1412,0.2183 a 1.28,1.28 0 0 0 1.77,0.3795 l 4.45,-2.8788 a 1.28,1.28 0 0 0 0.3794,-1.77 z m -14.5361,9.1906 a 1.36,1.36 0 0 0 -1.8694,-0.4523 l -7.1869,4.3869 a 1.36,1.36 0 0 0 -0.4522,1.8694 l 0.0625,0.1024 a 1.36,1.36 0 0 0 1.8694,0.4523 l 7.1869,-4.3869 a 1.36,1.36 0 0 0 0.4522,-1.8694 z m -15.8648,9.5906 a 1.21,1.21 0 0 0 -1.6653,-0.3936 l -7.4191,4.5821 a 1.21,1.21 0 0 0 -0.3937,1.6653 l 0.2417,0.3914 a 1.21,1.21 0 0 0 1.6653,0.3936 l 7.4191,-4.5821 a 1.21,1.21 0 0 0 0.3937,-1.6653 z m -14.8406,9.2258 a 1.49,1.49 0 0 0 -2.054,-0.4704 l -6.9464,4.3575 a 1.49,1.49 0 0 0 -0.4704,2.054 l 0.0956,0.1525 a 1.49,1.49 0 0 0 2.054,0.4704 l 6.9464,-4.3575 a 1.49,1.49 0 0 0 0.4704,-2.054 z"
       id="path23-8" /><rect
       fill="#323232"
       x="-3.8099999"
       y="-1.47"
       transform="rotate(-32.2,445.3785,-367.67961)"
       width="7.6199999"
       height="2.9400001"
       rx="1.3200001"
       id="rect23-4" /><rect
       fill="#323232"
       x="-3.9300001"
       y="-1.41"
       transform="rotate(-32.9,444.81102,-333.70706)"
       width="7.8600001"
       height="2.8199999"
       rx="1.28"
       id="rect24" /><rect
       fill="#323232"
       x="-5.5700002"
       y="-1.42"
       transform="rotate(-31.4,470.47093,-321.81729)"
       width="11.14"
       height="2.8399999"
       rx="1.36"
       id="rect25" /><rect
       fill="#323232"
       x="-5.5700002"
       y="-1.4400001"
       transform="rotate(-31.7,476.27251,-284.99241)"
       width="11.14"
       height="2.8800001"
       rx="1.21"
       id="rect26" /><rect
       fill="#323232"
       x="-5.5900002"
       y="-1.58"
       transform="rotate(-32.1,479.91821,-249.40041)"
       width="11.18"
       height="3.1600001"
       rx="1.49"
       id="rect27" /><path
       fill="#6e6e4a"
       d="m 273.77,218.8 q 0.84,-0.24 1.2,0.23 c 1.38,1.8 5.17,7.63 3.53,10.35 q -0.69,1.73 0.1,3.17 c 2.23,15.69 6.39,31.43 9.79,47.07 a 1.93,1.93 0 0 1 -1.38,2.27 l -10.29,2.81 a 0.65,0.64 75.9 0 1 -0.8,-0.48 q -3.9,-18 -5.65,-35.93 c -0.92,-9.46 -2.19,-15.49 -9.39,-20.78 a 0.75,0.75 0 0 1 0.04,-1.24 q 5.46,-3.48 10.47,-6.31 0.35,-0.19 0.4,-0.19 0.16,0.02 0.44,0.22 1.32,-0.16 1.54,-1.19 z"
       id="path27" /><path
       fill="#323232"
       d="m 264.81,325.69 c 5.42,4.38 2.74,8.88 -1.11,13.3 q -10.44,11.96 -17.61,19.6 c -3.63,3.87 -7.07,2.3 -10.95,-0.52 -19.12,-13.9 -37.06,-30.11 -50.32,-49.72 a 1.06,1.05 -36.1 0 1 0.23,-1.42 l 33.61,-26.13 a 1,1 0 0 1 1.43,0.22 c 12.19,17.51 27.84,31.03 44.72,44.67 z m -67.32,-15.24 c 9.99,14.54 27.09,29.42 42.55,39.61 a 1.36,1.35 -52.3 0 0 1.75,-0.23 l 15.23,-17.12 q 0.86,-0.97 -0.13,-1.8 C 242.94,319.3 229.57,308.03 218.32,293.94 a 1.14,1.14 0 0 0 -1.59,-0.19 l -18.89,14.52 a 1.6,1.59 -36.1 0 0 -0.35,2.18 z"
       id="path28-2" /><path
       fill="#484841"
       d="m 240.04,350.06 c -15.46,-10.19 -32.56,-25.07 -42.55,-39.61 a 1.6,1.59 -36.1 0 1 0.35,-2.18 l 18.89,-14.52 a 1.14,1.14 0 0 1 1.59,0.19 c 11.25,14.09 24.62,25.36 38.57,36.97 q 0.99,0.83 0.13,1.8 l -15.23,17.12 a 1.36,1.35 -52.3 0 1 -1.75,0.23 z"
       id="path29" /><path
       fill="#323232"
       d="m 154.94,380.06 q -17.03,-16.12 -28.2,-36.79 -0.75,-1.4 -2.14,-1.93 -0.52,-0.2 -1.03,0 l -6.04,2.32 a 1.55,1.53 -29.7 0 1 -1.76,-0.47 l -5.18,-6.5 a 0.97,0.97 0 0 1 0.17,-1.37 l 30.02,-22.89 a 1.36,1.36 0 0 1 1.9,0.25 l 4.78,6.24 a 2.19,2.17 47.5 0 1 -0.11,2.79 l -4.12,4.53 q -1.47,1.62 0.12,3.11 18.19,17.01 29.58,39.46 0.75,1.48 0.88,2.7 a 0.95,0.93 68.7 0 1 -0.37,0.86 l -14.37,10.67 a 1,0.99 -38.8 0 1 -1.34,-0.14 q -0.92,-1.06 -2.79,-2.84 z M 129.2,333.5 c 1.69,1.31 3.62,2.51 4.67,4.37 q 9.76,17.26 23.24,31.75 c 2.41,2.59 6.13,0.71 4.41,-2.36 -7.13,-12.77 -15.88,-22.3 -25.56,-33.04 -1.03,-1.15 -1.49,-2.83 -2.5,-4.07 a 0.78,0.77 -38.6 0 0 -1.08,-0.12 l -3.18,2.49 a 0.62,0.62 0 0 0 0,0.98 z"
       id="path30-38" /><path
       fill="#484841"
       d="m 129.2,333.5 a 0.62,0.62 0 0 1 0,-0.98 l 3.18,-2.49 a 0.78,0.77 -38.6 0 1 1.08,0.12 c 1.01,1.24 1.47,2.92 2.5,4.07 9.68,10.74 18.43,20.27 25.56,33.04 1.72,3.07 -2,4.95 -4.41,2.36 q -13.48,-14.49 -23.24,-31.75 c -1.05,-1.86 -2.98,-3.06 -4.67,-4.37 z"
       id="path31" /></g></svg>
