<?xml version="1.0" encoding="UTF-8" standalone="no"?>
<svg
   width="110"
   height="110"
   viewBox="0 0 110 110"
   fill="none"
   version="1.1"
   id="svg80"
   sodipodi:docname="mosin - Copy.svg"
   inkscape:version="1.3 (0e150ed6c4, 2023-07-21)"
   xmlns:inkscape="http://www.inkscape.org/namespaces/inkscape"
   xmlns:sodipodi="http://sodipodi.sourceforge.net/DTD/sodipodi-0.dtd"
   xmlns="http://www.w3.org/2000/svg"
   xmlns:svg="http://www.w3.org/2000/svg">
  <sodipodi:namedview
     id="namedview82"
     pagecolor="#505050"
     bordercolor="#ffffff"
     borderopacity="1"
     inkscape:pageshadow="0"
     inkscape:pageopacity="0"
     inkscape:pagecheckerboard="1"
     showgrid="false"
     inkscape:zoom="7.9181818"
     inkscape:cx="68.386912"
     inkscape:cy="52.095293"
     inkscape:window-width="1920"
     inkscape:window-height="1017"
     inkscape:window-x="-8"
     inkscape:window-y="-8"
     inkscape:window-maximized="1"
     inkscape:current-layer="svg80"
     inkscape:showpageshadow="2"
     inkscape:deskcolor="#d1d1d1" />
  <defs
     id="defs78">
    <linearGradient
       id="paint0_linear_619_1198"
       x1="51.9184"
       y1="47.9879"
       x2="53.1716"
       y2="47.2644"
       gradientUnits="userSpaceOnUse">
      <stop
         stop-color="#4E4A48"
         id="stop70" />
      <stop
         offset="1"
         stop-color="#4B4846"
         id="stop72" />
    </linearGradient>
    <clipPath
       id="clip0_619_1198">
      <rect
         width="110"
         height="110"
         fill="#ffffff"
         transform="translate(0.0859375)"
         id="rect75"
         x="0"
         y="0" />
    </clipPath>
  </defs>
  <g
     id="g31"
     transform="matrix(0.30773005,0.06082509,-0.06082509,0.30773005,10.773622,-12.856977)"
     style="fill:#323232;fill-opacity:1">
    <g
       stroke-width="2"
       fill="none"
       stroke-linecap="butt"
       id="g5"
       style="fill:#323232;fill-opacity:1">
      <path
         stroke="#999999"
         vector-effect="non-scaling-stroke"
         d="m 246.21,97.07 a 0.42,0.42 0 0 0 0.6,0.05 l 39.49,-34.3 a 0.42,0.42 0 0 0 0.06,-0.59 l -3.65,-4.52 a 0.42,0.42 0 0 0 -0.6,-0.06 l -40.45,33.1 a 0.42,0.42 0 0 0 -0.06,0.58 l 4.61,5.74"
         id="path1-1"
         style="fill:#323232;fill-opacity:1" />
      <path
         stroke="#999999"
         vector-effect="non-scaling-stroke"
         d="m 226.74,102.89 -23.46,19.18 q -0.6,0.5 0.17,0.6 c 2.83,0.38 4.75,0.51 7.14,-1.45 q 9.32,-7.68 18.72,-15.3 0.47,-0.39 0.08,-0.86 l -1.75,-2.09 q -0.41,-0.48 -0.9,-0.08"
         id="path2-8"
         style="fill:#323232;fill-opacity:1" />
      <path
         stroke="#999999"
         vector-effect="non-scaling-stroke"
         d="m 172.06,162.95 q -29.42,23.78 -58.62,47.83 -1.59,1.31 -2.34,3.27 -3.6,9.43 -7.64,18.69 c -4.75,10.89 -14.42,10.76 -22.33,17.68 q -21.03,18.43 -41.88,37.07 -3.82,3.43 -7.38,7 -0.4,0.39 -0.02,0.81 11.92,13.34 25.95,24.46 a 0.96,0.96 0 0 0 1.42,-0.26 q 16.17,-26.8 32.49,-53.47 c 3.73,-6.09 11.61,-6.81 16.62,-11.44 q 0.37,-0.34 0.39,-0.84 c 0.48,-14.11 5.14,-27.14 15.96,-35.83 q 8.36,-6.72 16.64,-13.54 0.43,-0.35 0.43,-0.9 v -0.94 q 0,-0.4 0.31,-0.66 l 21.81,-17.8 q 0.4,-0.33 0.92,-0.33 h 1.59 q 0.55,0 0.88,-0.44 6.65,-8.9 12.92,-15.39 25.42,-26.3 55.65,-53.96 a 0.63,0.63 0 0 0 0.08,-0.85 l -1.67,-2.2 q -0.34,-0.46 -0.78,-0.1 l -61.32,50.09 q -0.45,0.37 -0.16,0.87 l 0.23,0.38 q 0.27,0.46 -0.15,0.8"
         id="path3-9"
         style="fill:#323232;fill-opacity:1" />
      <path
         stroke="#999999"
         vector-effect="non-scaling-stroke"
         d="m 162.94,160.09 q 18.11,-14.57 35.84,-29.59 0.65,-0.55 0.45,-1.18 a 0.61,0.61 0 0 0 -0.96,-0.29 l -33.44,27.28 a 1.09,1.07 -58.7 0 1 -0.9,0.23 l -1.64,-0.31 q -0.49,-0.09 -0.9,0.2 -6.93,4.94 -12.3,11.45 c -4.58,5.56 -10,9.51 -15.43,13.9 -1.76,1.42 -3.68,1.48 -5.8,1.73 q -0.51,0.06 -0.83,0.44 -2.7,3.22 -6.73,4.49 -0.53,0.17 -0.45,0.72 0.58,3.97 -2.96,5.67 -0.51,0.25 -0.15,0.69 l 1.65,2.02 a 0.65,0.65 0 0 0 0.92,0.09 l 43.48,-35.51 q 0.51,-0.42 0.17,-0.98 l -0.16,-0.29 q -0.27,-0.44 0.14,-0.76"
         id="path4-70"
         style="fill:#323232;fill-opacity:1" />
      <path
         stroke="#999999"
         vector-effect="non-scaling-stroke"
         d="m 112.97,200.98 a 0.35,0.35 0 0 0 -0.55,-0.08 l -7.35,7.53 a 0.35046398,0.35046398 0 0 0 0.47,0.52 l 7.9,-6.5 a 0.35,0.35 0 0 0 0.09,-0.43 l -0.56,-1.04"
         id="path5-2"
         style="fill:#323232;fill-opacity:1" />
    </g>
    <path
       fill="#323232"
       d="m 315.83,25.97 7.42,-4.73 q 0.43,-0.27 0.86,0 1.67,1.02 2.39,2.87 0.24,0.62 -0.28,1.03 l -3.5,2.77 q -0.96,0.75 0.05,1.44 2.03,1.39 3.18,3.53 a 1.02,1.01 -33.9 0 1 -0.25,1.26 l -16.73,13.61 q -0.49,0.4 -0.09,0.88 l 1.16,1.38 a 0.54,0.53 50.6 0 1 -0.07,0.76 l -5.44,4.45 q -0.49,0.4 -0.85,-0.12 l -0.82,-1.21 a 0.8,0.79 53.4 0 0 -1.16,-0.18 l -7.39,6 q -0.47,0.38 -0.82,-0.11 l -2.65,-3.68 q -0.36,-0.51 0.12,-0.89 10.8,-8.77 21.51,-17.55 0.16,-0.13 0.22,-0.3 a 0.46,0.46 0 0 0 -0.72,-0.5 l -21.46,17.5 q -0.55,0.44 -1.05,-0.05 l -2.66,-2.65 q -0.45,-0.45 0.04,-0.85 L 308.36,33.1 a 0.95,0.95 0 0 0 0.14,-1.34 l -3.45,-4.24 a 1.71,1.7 50.9 0 1 0.24,-2.4 l 4.07,-3.31 a 1.86,1.86 0 0 1 2.61,0.28 l 3.04,3.75 q 0.35,0.43 0.82,0.13 z"
       id="path6-4"
       style="fill:#323232;fill-opacity:1" />
    <path
       fill="#323232"
       d="m 282.85,49.6 c 4.27,2.4 9.37,9.58 11.29,14.05 q 0.24,0.55 -0.22,0.95 l -47.67,41.48 q -0.47,0.41 -0.85,-0.07 L 232.72,90.49 q -0.34,-0.41 0.07,-0.75 l 49,-40.04 q 0.5,-0.41 1.06,-0.1 z m -36.64,47.47 a 0.42,0.42 0 0 0 0.6,0.05 l 39.49,-34.3 a 0.42,0.42 0 0 0 0.06,-0.59 l -3.65,-4.52 a 0.42,0.42 0 0 0 -0.6,-0.06 l -40.45,33.1 a 0.42,0.42 0 0 0 -0.06,0.58 z"
       id="path7-6"
       style="fill:#323232;fill-opacity:1" />
    <path
       fill="#ffffff"
       d="m 246.21,97.07 -4.61,-5.74 a 0.42,0.42 0 0 1 0.06,-0.58 l 40.45,-33.1 a 0.42,0.42 0 0 1 0.6,0.06 l 3.65,4.52 a 0.42,0.42 0 0 1 -0.06,0.59 l -39.49,34.3 a 0.42,0.42 0 0 1 -0.6,-0.05 z"
       id="path8-6"
       style="fill:#323232;fill-opacity:1" />
    <rect
       fill="#323232"
       x="-1.59"
       y="-10.89"
       transform="rotate(-39.4,258.26923,-280.86577)"
       width="3.1800001"
       height="21.780001"
       rx="0.74000001"
       id="rect8"
       style="fill:#323232;fill-opacity:1" />
    <path
       fill="#323232"
       d="m 228.64,94.3 c 5.41,6.36 10.72,12.99 16.07,19.5 q 0.68,0.82 0.75,4.22 a 0.85,0.84 -85.3 0 0 0.68,0.81 l 3.01,0.58 a 0.76,0.7 61.6 0 1 0.23,0.08 c 6.21,3.75 0.5,12.58 -2.37,16.27 q -12.62,16.21 -20.61,35.14 -0.2,0.47 -0.07,0.97 c 0.59,2.38 -2.25,7.83 -3.22,10.22 a 1.28,1.26 88.2 0 1 -0.59,0.64 l -1,0.52 q -0.42,0.21 -0.6,0.65 c -15.65,39.89 -35.11,84.34 -70.29,110.3 -0.96,0.71 -1.5,2.12 -2.18,2.51 q -3.73,2.2 -7.51,4.3 a 1.75,1.7 -56 0 1 -0.95,0.2 q -2.63,-0.2 -4.2,2.09 c -4.03,5.9 -7.24,10.33 -13.95,11.45 q -9.27,1.54 -18.59,2.76 -0.55,0.07 -1.16,0.79 a 1.45,1.38 12.2 0 1 -0.77,0.47 c -5.45,1.24 -10.29,0.32 -15.55,0.77 -4.48,0.38 -10.97,1.48 -11.9,-4.71 q -0.09,-0.58 -0.68,-0.58 h -2.7 q -0.58,0 -0.88,0.49 -2.82,4.57 -5.73,9.06 c -3.55,5.48 -6.91,7.31 -12.43,2.72 Q 36.33,313.96 26.33,302.49 c -2.82,-3.24 -4.29,-7.69 -0.95,-10.85 q 17.61,-16.62 52.47,-46.72 c 5.72,-4.94 16.01,-6.85 19.23,-13.55 q 3.06,-6.38 5.52,-12.99 a 0.94,0.94 0 0 0 -0.11,-0.88 q -3.21,-4.51 -4.83,-9.77 a 0.9,0.89 58.5 0 1 0.21,-0.89 l 10.43,-10.82 a 0.59,0.59 0 0 0 -0.03,-0.85 c -6,-5.49 -0.81,-14.41 6.87,-13.16 3.58,0.59 5.72,0.39 7.23,-2.93 q 0.2,-0.44 0.64,-0.64 2.81,-1.28 5.92,-1.44 a 1.67,1.67 0 0 0 0.93,-0.35 c 5.02,-4.05 10.08,-7.75 14.33,-12.78 2.43,-2.87 4.64,-5.53 7.61,-7.96 q 37.87,-30.92 75.52,-61.73 a 0.95,0.94 -39.8 0 1 1.32,0.12 z m -1.9,8.59 -23.46,19.18 q -0.6,0.5 0.17,0.6 c 2.83,0.38 4.75,0.51 7.14,-1.45 q 9.32,-7.68 18.72,-15.3 0.47,-0.39 0.08,-0.86 l -1.75,-2.09 q -0.41,-0.48 -0.9,-0.08 z m -54.68,60.06 q -29.42,23.78 -58.62,47.83 -1.59,1.31 -2.34,3.27 -3.6,9.43 -7.64,18.69 c -4.75,10.89 -14.42,10.76 -22.33,17.68 q -21.03,18.43 -41.88,37.07 -3.82,3.43 -7.38,7 -0.4,0.39 -0.02,0.81 11.92,13.34 25.95,24.46 a 0.96,0.96 0 0 0 1.42,-0.26 q 16.17,-26.8 32.49,-53.47 c 3.73,-6.09 11.61,-6.81 16.62,-11.44 q 0.37,-0.34 0.39,-0.84 c 0.48,-14.11 5.14,-27.14 15.96,-35.83 q 8.36,-6.72 16.64,-13.54 0.43,-0.35 0.43,-0.9 v -0.94 q 0,-0.4 0.31,-0.66 l 21.81,-17.8 q 0.4,-0.33 0.92,-0.33 h 1.59 q 0.55,0 0.88,-0.44 6.65,-8.9 12.92,-15.39 25.42,-26.3 55.65,-53.96 a 0.63,0.63 0 0 0 0.08,-0.85 l -1.67,-2.2 q -0.34,-0.46 -0.78,-0.1 l -61.32,50.09 q -0.45,0.37 -0.16,0.87 l 0.23,0.38 q 0.27,0.46 -0.15,0.8 z m 27.7,-5.85 q -12.6,12.23 -22.3,23.37 c -1.86,2.14 -5.01,7.93 -8.85,9.57 -6.23,2.68 -13.24,9.82 -18.62,14.2 -2.31,1.89 -3.3,4.8 -6.43,6.32 a 0.7,0.69 -32.9 0 0 -0.23,1.06 l 4.71,5.81 a 1.34,1.34 0 0 1 -0.2,1.89 c -2.06,1.67 -3.84,2.86 -5.47,5.17 -4.89,6.95 -10.1,8.4 -17.9,11.23 q -2.13,0.78 -4.41,-1.5 -0.49,-0.48 -0.75,0.15 -3.8,9.24 -4.38,19.19 c -0.44,7.41 -9.83,10.71 -16.15,13.82 q -0.46,0.23 -0.73,0.66 -12.56,20.05 -24.66,40.37 -0.31,0.51 -0.05,1.06 a 0.59,0.59 0 0 0 1.04,0.06 c 4.7,-7.75 6.4,-12.68 16.39,-14.44 1.14,-0.2 1.67,-1.14 2.92,-1.47 q 4.6,-1.2 9.25,-0.58 3.17,0.42 5.18,0.1 c 42.77,-6.79 63.98,-36.86 80.66,-73.85 12.86,-28.51 23.65,-54.1 40.45,-84.13 3.23,-5.76 6.63,-11.72 12.07,-15.71 a 0.66,0.66 0 0 0 -0.18,-1.15 q -0.78,-0.26 -1.37,0.43 -0.68,0.79 -0.73,0.84 c -13.33,12.27 -26.27,24.92 -39.26,37.53 z m 1.76,47.16 c -18.95,44.78 -41.2,88.15 -95.53,94.61 -0.97,0.11 -1.21,0.38 -1.81,1.09 a 1.27,1.25 -71.4 0 1 -0.85,0.43 q -4.42,0.4 -8.83,0.92 -0.83,0.09 -1.8,-0.68 a 1.13,1.09 58.4 0 0 -0.89,-0.23 q -7.91,1.41 -11.19,8.72 -0.23,0.53 0.31,0.74 2.88,1.12 1.52,3.81 -0.25,0.49 0.31,0.54 3.27,0.25 6.29,-0.7 c 3.53,-1.1 9.55,-2.88 12.61,-1.49 q 0.45,0.2 0.95,0.13 8.66,-1.28 17.3,-2.75 c 3.98,-0.68 5.92,-1.48 8.03,-4.71 q 6.2,-9.48 16.72,-13.86 3.29,-1.37 5.27,-2.94 c 32.8,-26.04 51.72,-68.73 66.19,-106.98 a 0.89,0.86 -44 0 0 0.02,-0.6 l -0.17,-0.53 q -0.19,-0.63 0.05,-1.25 l 3.18,-7.98 q 0.21,-0.54 0.74,-0.78 l 0.71,-0.33 q 0.54,-0.24 0.77,-0.79 8.67,-20.42 22.43,-37.81 0.7,-0.89 2.22,-3.91 0.4,-0.79 -0.45,-0.56 -1.51,0.41 -2.51,-0.83 a 0.64,0.64 0 0 0 -1,0.02 q -6.04,7.86 -10.33,15.74 -16.33,30.03 -30.26,62.96 z m -38.58,-44.17 q 18.11,-14.57 35.84,-29.59 0.65,-0.55 0.45,-1.18 a 0.61,0.61 0 0 0 -0.96,-0.29 l -33.44,27.28 a 1.09,1.07 -58.7 0 1 -0.9,0.23 l -1.64,-0.31 q -0.49,-0.09 -0.9,0.2 -6.93,4.94 -12.3,11.45 c -4.58,5.56 -10,9.51 -15.43,13.9 -1.76,1.42 -3.68,1.48 -5.8,1.73 q -0.51,0.06 -0.83,0.44 -2.7,3.22 -6.73,4.49 -0.53,0.17 -0.45,0.72 0.58,3.97 -2.96,5.67 -0.51,0.25 -0.15,0.69 l 1.65,2.02 a 0.65,0.65 0 0 0 0.92,0.09 l 43.48,-35.51 q 0.51,-0.42 0.17,-0.98 l -0.16,-0.29 q -0.27,-0.44 0.14,-0.76 z m -49.97,40.89 a 0.35,0.35 0 0 0 -0.55,-0.08 l -7.35,7.53 a 0.35046398,0.35046398 0 0 0 0.47,0.52 l 7.9,-6.5 a 0.35,0.35 0 0 0 0.09,-0.43 z m 32.16,16.54 a 1.77,1.77 0 0 0 -1.77,-1.77 1.77,1.77 0 0 0 -1.77,1.77 1.77,1.77 0 0 0 1.77,1.77 1.77,1.77 0 0 0 1.77,-1.77 z m -13.79,5.14 c -0.27,3.4 1.74,3.29 2.45,5.57 q 0.17,0.55 0.64,0.21 3.48,-2.54 5.88,-6.1 a 0.8,0.79 43.3 0 0 -0.03,-0.94 l -3.34,-4.33 q -0.39,-0.5 -0.9,-0.12 c -2.04,1.58 -4.48,3.01 -4.7,5.71 z m 1.63,6.15 q -3.36,-1.58 -4.01,-5.31 a 0.45,0.45 0 0 0 -0.74,-0.26 l -2.71,2.38 a 0.59,0.58 -40.7 0 0 -0.07,0.81 l 3.32,3.97 a 0.8,0.8 0 0 0 0.84,0.25 l 3.3,-0.96 a 0.47,0.47 0 0 0 0.07,-0.88 z m -7.82,3.23 a 1.83,1.83 0 0 0 -1.83,-1.83 1.83,1.83 0 0 0 -1.83,1.83 1.83,1.83 0 0 0 1.83,1.83 1.83,1.83 0 0 0 1.83,-1.83 z"
       id="path9-8"
       style="fill:#323232;fill-opacity:1" />
    <path
       fill="#ffffff"
       d="m 226.74,102.89 q 0.49,-0.4 0.9,0.08 l 1.75,2.09 q 0.39,0.47 -0.08,0.86 -9.4,7.62 -18.72,15.3 c -2.39,1.96 -4.31,1.83 -7.14,1.45 q -0.77,-0.1 -0.17,-0.6 z"
       id="path10-5"
       style="fill:#323232;fill-opacity:1" />
    <path
       fill="#ffffff"
       d="m 172.21,162.15 -0.23,-0.38 q -0.29,-0.5 0.16,-0.87 l 61.32,-50.09 q 0.44,-0.36 0.78,0.1 l 1.67,2.2 a 0.63,0.63 0 0 1 -0.08,0.85 q -30.23,27.66 -55.65,53.96 -6.27,6.49 -12.92,15.39 -0.33,0.44 -0.88,0.44 h -1.59 q -0.52,0 -0.92,0.33 l -21.81,17.8 q -0.31,0.26 -0.31,0.66 v 0.94 q 0,0.55 -0.43,0.9 -8.28,6.82 -16.64,13.54 c -10.82,8.69 -15.48,21.72 -15.96,35.83 q -0.02,0.5 -0.39,0.84 c -5.01,4.63 -12.89,5.35 -16.62,11.44 Q 75.39,292.7 59.22,319.5 a 0.96,0.96 0 0 1 -1.42,0.26 Q 43.77,308.64 31.85,295.3 q -0.38,-0.42 0.02,-0.81 3.56,-3.57 7.38,-7 20.85,-18.64 41.88,-37.07 c 7.91,-6.92 17.58,-6.79 22.33,-17.68 q 4.04,-9.26 7.64,-18.69 0.75,-1.96 2.34,-3.27 29.2,-24.05 58.62,-47.83 0.42,-0.34 0.15,-0.8 z"
       id="path11-2"
       style="fill:#323232;fill-opacity:1" />
    <path
       fill="#ffffff"
       d="m 162.8,160.85 0.16,0.29 q 0.34,0.56 -0.17,0.98 l -43.48,35.51 a 0.65,0.65 0 0 1 -0.92,-0.09 l -1.65,-2.02 q -0.36,-0.44 0.15,-0.69 3.54,-1.7 2.96,-5.67 -0.08,-0.55 0.45,-0.72 4.03,-1.27 6.73,-4.49 0.32,-0.38 0.83,-0.44 c 2.12,-0.25 4.04,-0.31 5.8,-1.73 5.43,-4.39 10.85,-8.34 15.43,-13.9 q 5.37,-6.51 12.3,-11.45 0.41,-0.29 0.9,-0.2 l 1.64,0.31 a 1.09,1.07 -58.7 0 0 0.9,-0.23 l 33.44,-27.28 a 0.61,0.61 0 0 1 0.96,0.29 q 0.2,0.63 -0.45,1.18 -17.73,15.02 -35.84,29.59 -0.41,0.32 -0.14,0.76 z"
       id="path12-7"
       style="fill:#323232;fill-opacity:1" />
    <path
       fill="#ffffff"
       d="m 112.97,200.98 0.56,1.04 a 0.35,0.35 0 0 1 -0.09,0.43 l -7.9,6.5 a 0.35046398,0.35046398 0 0 1 -0.47,-0.52 l 7.35,-7.53 a 0.35,0.35 0 0 1 0.55,0.08 z"
       id="path13-3"
       style="fill:#323232;fill-opacity:1" />
  </g>
  <path
     style="fill:#775426;fill-opacity:1;stroke:#ffffff;stroke-width:0.128122;stroke-opacity:0"
     d="M 8.8674295,88.71415 C 7.5412141,87.304552 4.3848551,82.898389 2.8170565,80.268047 L 2.5388844,79.80135 3.7259551,79.040915 c 0.6528891,-0.418238 3.3491222,-2.030816 5.991629,-3.583506 11.9204849,-7.004262 11.5285489,-6.795748 14.2805479,-7.597424 1.743227,-0.507811 2.734468,-1.001313 3.561534,-1.773154 0.394694,-0.368339 1.44131,-1.805853 2.721195,-3.737528 1.697349,-2.561736 2.171338,-3.189616 2.577486,-3.414334 1.155013,-0.639056 11.38745,-6.10032 16.032405,-8.556824 4.235864,-2.240157 5.028877,-2.702988 5.029446,-2.935368 5.74e-4,-0.234572 1.651695,-1.156103 11.027056,-6.154466 6.064507,-3.233221 11.070922,-5.827684 11.125364,-5.76547 0.138791,0.1586 0.441209,0.945865 0.381514,0.99317 -0.0271,0.02148 -1.260024,0.78089 -2.739828,1.687585 -5.509824,3.375941 -14.49042,9.252105 -18.068396,11.822472 -0.672178,0.482885 -2.000599,1.526007 -2.952045,2.318049 -1.553548,1.293271 -1.774325,1.435844 -2.165658,1.39853 -0.636273,-0.06067 -8.331749,4.02462 -8.505837,4.515485 -0.09373,0.264295 -0.802846,0.6928 -3.60437,2.178068 -3.801701,2.015522 -5.023581,2.865321 -6.274728,4.363974 -1.368791,1.639572 -2.425767,3.714491 -3.118649,6.122138 -0.301982,1.049333 -0.325733,1.085792 -0.896239,1.375731 -0.322319,0.163806 -1.235754,0.474492 -2.029855,0.69041 -0.794102,0.215919 -1.772653,0.567845 -2.17456,0.782058 -0.78412,0.417932 -1.057738,0.705455 -10.102402,10.615699 -2.347392,2.57204 -4.3334108,4.692576 -4.4133738,4.712304 -0.079962,0.01973 -0.3233059,-0.153236 -0.5407617,-0.384364 z"
     id="path33" />
  <path
     style="fill:#775426;fill-opacity:1;stroke:#ffffff;stroke-width:0.0640608;stroke-opacity:0"
     d="m 35.229109,55.158479 c -0.03543,-0.04404 -0.154917,-0.260714 -0.265533,-0.481492 L 34.76246,54.27557 34.940071,54.21083 c 0.435417,-0.158711 0.525114,-0.211139 0.741944,-0.433667 0.264359,-0.271303 0.397184,-0.555736 0.461818,-0.988933 0.02496,-0.16736 0.05775,-0.30429 0.07286,-0.30429 0.01511,0 0.249655,-0.04574 0.521229,-0.10162 0.622159,-0.128045 1.006156,-0.288891 1.622579,-0.679657 l 0.4882,-0.309483 0.632863,0.04029 c 0.798059,0.05081 0.996446,-0.01296 2.522656,-0.810709 2.215282,-1.157936 3.154291,-1.742611 4.582124,-2.853069 1.371157,-1.066379 2.89822,-2.015964 4.102639,-2.551172 l 0.388893,-0.172813 0.334163,0.131714 c 0.183789,0.07244 0.377034,0.131714 0.429432,0.131714 0.0524,0 2.802785,-1.441366 6.111968,-3.203037 3.309185,-1.761672 6.058414,-3.20304 6.1094,-3.20304 0.110728,0 0.180839,0.154684 0.130074,0.286978 -0.02,0.05213 -0.127204,0.149979 -0.238217,0.217428 -0.770396,0.468075 -8.185397,4.487263 -11.236311,6.090472 l -1.617535,0.84999 -1.94e-4,0.265349 -1.96e-4,0.26535 -7.843568,4.179967 c -4.313962,2.29898 -7.870524,4.179966 -7.903467,4.179966 -0.03294,0 -0.08889,-0.03603 -0.124314,-0.08007 z"
     id="path34-6" />
  <path
     style="fill:#775426;fill-opacity:1;stroke:#ffffff;stroke-width:0.0113244;stroke-opacity:0"
     d="m 30.452898,57.872006 c -0.06118,-0.02389 -0.09164,-0.09418 -0.06398,-0.147682 0.01186,-0.02294 0.415678,-0.306634 1.388579,-0.975533 0.754519,-0.518753 1.386549,-0.948312 1.404511,-0.954574 0.04026,-0.01403 0.10434,0.01252 0.121507,0.05034 0.02841,0.0626 0.11639,0.372207 0.11639,0.409585 0,0.02916 -0.0078,0.04866 -0.02579,0.06471 -0.03693,0.03289 -2.861882,1.550218 -2.895916,1.555442 -0.01557,0.0025 -0.03595,0.0013 -0.04529,-0.0024 z"
     id="path35" />
  <path
     style="fill:#775426;fill-opacity:1;stroke:#ffffff;stroke-width:0.0113244;stroke-opacity:0"
     d="m 31.155013,61.023485 c 0,-0.0049 0.131773,-0.216084 0.292829,-0.469399 0.161056,-0.253313 0.350761,-0.552299 0.421567,-0.664412 0.168993,-0.267577 0.272822,-0.404284 0.417835,-0.550146 0.24479,-0.246219 0.314851,-0.291302 1.155308,-0.743407 1.60504,-0.863395 1.943581,-1.045234 3.204821,-1.721401 3.588174,-1.92366 7.194897,-3.846634 10.5827,-5.642311 0.778556,-0.412668 1.491449,-0.790609 1.584204,-0.839872 0.09276,-0.04926 0.171401,-0.08682 0.174772,-0.08344 0.0034,0.0034 0.0014,0.0103 -0.0045,0.0154 -0.0059,0.0051 -0.38003,0.20461 -0.831592,0.443374 -3.427119,1.812088 -12.234606,6.510285 -14.653843,7.816834 -0.749323,0.404684 -0.758567,0.410324 -0.917162,0.559518 -0.258296,0.242985 -0.643258,0.747055 -1.256882,1.645759 -0.157422,0.230559 -0.170118,0.247984 -0.170118,0.233515 z"
     id="path37" />
  <path
     style="fill:#775426;fill-opacity:1;stroke:#ffffff;stroke-width:0.0113244;stroke-opacity:0"
     d="m 53.871466,47.420253 c -0.04215,-0.126665 -0.02809,-0.208771 0.04496,-0.262474 0.0476,-0.03498 8.516912,-4.54714 8.523196,-4.540855 0.0032,0.0032 -0.09762,0.06072 -0.224008,0.127855 -0.126382,0.06714 -0.690973,0.369135 -1.254648,0.671092 -5.061301,2.711302 -6.63736,3.596983 -6.956045,3.909016 -0.06219,0.06091 -0.08781,0.09408 -0.08794,0.113898 -4.11e-4,0.06634 -0.01993,0.0584 -0.04552,-0.01853 z"
     id="path39" />
  <path
     style="fill:#775426;fill-opacity:1;stroke:#ffffff;stroke-width:0.00566222;stroke-opacity:0"
     d="m 67.949082,39.681478 c 0.0021,-0.0132 -0.23968,0.116174 5.440478,-2.911968 1.016794,-0.542061 1.995227,-1.063674 2.174295,-1.159138 0.179068,-0.09546 0.33646,-0.177907 0.349757,-0.183206 0.02655,-0.01059 0.08288,-0.01279 0.10564,-0.0042 0.03611,0.01372 0.06568,0.05151 0.110725,0.14158 0.133144,0.266103 0.368661,0.755898 0.374364,0.778551 0.01237,0.04915 -0.004,0.122946 -0.03647,0.164343 -0.0084,0.01077 -0.0087,0.01036 -0.006,-0.0085 0.0091,-0.05995 -0.06633,-0.30391 -0.1761,-0.569053 -0.07216,-0.174323 -0.190681,-0.399016 -0.215486,-0.408535 -0.04822,-0.0185 -1.372177,0.643352 -3.595334,1.797339 -1.084344,0.562855 -2.43228,1.269201 -3.830495,2.007259 -0.306752,0.161921 -0.589164,0.31096 -0.627586,0.331199 -0.06299,0.03319 -0.06966,0.03557 -0.06795,0.02425 z"
     id="path41" />
  <path
     style="fill:#775426;fill-opacity:1;stroke:#ffffff;stroke-width:0.0448345;stroke-opacity:0"
     d="m 66.757961,37.49402 c -0.403275,-0.07732 -0.941527,-0.259918 -0.941527,-0.319395 0,-0.06042 8.489984,-4.595824 8.603083,-4.595824 0.05549,0 0.15416,0.132581 0.315658,0.424105 0.296478,0.535176 0.308819,0.581909 0.175697,0.665385 -0.05781,0.03625 -0.801168,0.434143 -1.651904,0.884207 -0.850736,0.450062 -2.363901,1.256324 -3.36259,1.791693 -0.99869,0.535369 -1.926765,1.014445 -2.062389,1.064615 -0.330092,0.122104 -0.721841,0.153128 -1.076028,0.08521 z"
     id="path43" />
  <path
     style="fill:#775426;fill-opacity:1;stroke:#ffffff;stroke-width:0.0634055;stroke-opacity:0"
     d="m 80.472567,31.651248 c -0.650202,-1.191644 -0.93588,-1.780268 -0.887498,-1.828651 0.02978,-0.02979 1.836803,-1.006466 4.015592,-2.170398 2.17879,-1.163935 5.441748,-2.907567 7.251019,-3.874742 2.718818,-1.453388 3.303668,-1.743837 3.370765,-1.673997 0.04466,0.04648 0.270234,0.44558 0.501297,0.886899 l 0.420114,0.8024 -0.17676,0.124096 c -0.09723,0.06825 -1.774582,1.037448 -3.727475,2.153764 -1.952892,1.116319 -5.101065,2.917799 -6.995941,4.003292 -1.894875,1.085492 -3.469902,1.973622 -3.500056,1.973622 -0.03016,0 -0.152132,-0.178328 -0.271057,-0.396285 z"
     id="path45" />
  <path
     style="fill:#4f4f4f;fill-opacity:1;stroke:#434343;stroke-width:0.0634055;stroke-opacity:0"
     d="m 35.236045,55.111325 c -0.08457,-0.105297 -0.39578,-0.727341 -0.395478,-0.790463 1.32e-4,-0.02731 0.132736,-0.10416 0.294678,-0.170771 0.333163,-0.137036 0.719575,-0.450064 0.719575,-0.582921 0,-0.0487 0.03022,-0.08855 0.06715,-0.08855 0.03693,0 0.04951,-0.02853 0.02796,-0.06341 -0.02156,-0.03486 -0.01102,-0.0634 0.02341,-0.0634 0.03443,0 0.09755,-0.164063 0.140275,-0.364583 0.04272,-0.200519 0.108965,-0.395379 0.14721,-0.433021 0.03825,-0.03765 0.297795,-0.119594 0.57678,-0.182115 0.521811,-0.116939 0.991625,-0.32073 1.621524,-0.703374 0.355069,-0.215694 0.371768,-0.219085 1.081509,-0.219695 0.6307,-5.42e-4 0.762508,-0.02 1.05375,-0.155596 0.183083,-0.08523 0.332879,-0.141739 0.332879,-0.125557 0,0.04363 1.022915,-0.478055 2.147991,-1.095485 1.16975,-0.641943 2.290401,-1.335595 2.290401,-1.417693 0,-0.03207 0.03862,-0.05829 0.08585,-0.05829 0.04721,0 0.162817,-0.07133 0.256889,-0.158514 0.09407,-0.08719 0.187298,-0.158514 0.207169,-0.158514 0.01987,0 0.410724,-0.281045 0.86856,-0.624543 1.392997,-1.045117 2.470704,-1.719069 3.66099,-2.289423 l 0.643293,-0.308249 0.282459,0.121074 c 0.155352,0.06659 0.330024,0.120711 0.388162,0.120265 0.152817,-0.0012 1.992882,-0.938607 5.717099,-2.912606 5.568797,-2.951708 6.52565,-3.442679 6.630795,-3.40233 0.184481,0.07079 0.05956,0.256804 -0.331045,0.492995 -0.796991,0.481909 -7.225285,3.968351 -10.964172,5.946518 -1.159446,0.613438 -1.716204,0.941131 -1.716499,1.010287 -0.002,0.454295 0.314135,0.256749 -4.604101,2.877544 -7.725054,4.116476 -11.062198,5.879681 -11.128227,5.879681 -0.03475,0 -0.09183,-0.03567 -0.126838,-0.07926 z"
     id="path47" />
  <path
     style="fill:#4f4f4f;fill-opacity:1;stroke:#434343;stroke-width:0.0448345;stroke-opacity:0"
     d="m 66.533788,37.420741 c -0.422031,-0.104631 -0.696421,-0.218584 -0.644793,-0.267781 0.07304,-0.0696 2.981219,-1.641146 5.868016,-3.171011 2.633305,-1.395526 2.613358,-1.385684 2.700601,-1.332369 0.08789,0.0537 0.447272,0.654453 0.489652,0.818497 0.01617,0.06258 0.0022,0.128491 -0.03481,0.163907 -0.06233,0.0597 -4.859218,2.623143 -6.316274,3.375406 -1.026373,0.529906 -1.339293,0.592622 -2.062388,0.413351 z"
     id="path49" />
  <path
     style="fill:#4f4f4f;fill-opacity:1;stroke:#434343;stroke-width:0.0112087;stroke-opacity:0"
     d="m 30.413453,57.837967 c -0.01887,-0.01887 -0.02751,-0.04 -0.02751,-0.06726 0,-0.0354 0.0075,-0.04559 0.06852,-0.09298 0.127447,-0.099 0.785583,-0.556148 1.797706,-1.248735 0.797681,-0.545846 0.934579,-0.637109 0.955618,-0.637066 0.01074,2.4e-5 0.03568,0.0099 0.05542,0.02193 0.0316,0.01927 0.04058,0.03702 0.07501,0.148472 0.0787,0.254676 0.08855,0.317572 0.05443,0.34793 -0.03829,0.03408 -1.800676,0.987128 -2.727589,1.475011 -0.169076,0.08898 -0.207317,0.09701 -0.251615,0.0527 z"
     id="path51" />
  <path
     style="fill:#775426;fill-opacity:1;stroke:#434343;stroke-width:0.0896691;stroke-opacity:0"
     d="m 66.757961,37.48359 c 0,-0.04596 -0.0807,-0.06247 -0.17934,-0.03668 -0.09864,0.0258 -0.179338,0.01616 -0.179338,-0.02141 0,-0.03756 -0.131141,-0.106984 -0.291424,-0.154262 l -0.291425,-0.08596 0.291425,-0.153488 c 0.160283,-0.08442 0.291424,-0.195184 0.291424,-0.246146 0,-0.05096 0.04035,-0.06772 0.08967,-0.03724 0.04931,0.03048 0.08967,0.0061 0.08967,-0.05449 0,-0.06044 0.02509,-0.08481 0.05576,-0.05415 0.07656,0.07656 0.930604,-0.364878 0.930604,-0.481014 0,-0.05139 0.04036,-0.0685 0.08967,-0.03804 0.04931,0.03048 0.08967,0.01031 0.08967,-0.04483 0,-0.05514 0.04035,-0.07532 0.08967,-0.04483 0.04931,0.03047 0.08967,0.0061 0.08967,-0.05449 0,-0.06044 0.02517,-0.08474 0.05593,-0.05397 0.07637,0.07637 0.751085,-0.27562 0.751085,-0.391838 0,-0.05121 0.04035,-0.0682 0.08967,-0.03772 0.04931,0.03048 0.08967,0.01031 0.08967,-0.04483 0,-0.05514 0.04035,-0.07532 0.08967,-0.04483 0.04931,0.03047 0.08967,0.01031 0.08967,-0.04484 0,-0.05514 0.04035,-0.07531 0.08967,-0.04483 0.04931,0.03047 0.08967,0.0061 0.08967,-0.05449 0,-0.06044 0.02529,-0.08462 0.0562,-0.0537 0.07605,0.07605 0.571481,-0.186554 0.571481,-0.302915 0,-0.05096 0.04036,-0.06772 0.08967,-0.03724 0.04932,0.03048 0.08967,0.01031 0.08967,-0.04483 0,-0.05514 0.04035,-0.07532 0.08967,-0.04483 0.04931,0.03047 0.08967,0.01031 0.08967,-0.04483 0,-0.05514 0.04036,-0.07531 0.08967,-0.04483 0.04931,0.03048 0.08967,0.01031 0.08967,-0.04483 0,-0.05514 0.04035,-0.07532 0.08967,-0.04483 0.04931,0.03048 0.08967,0.0061 0.08967,-0.05449 0,-0.06044 0.02613,-0.08376 0.05807,-0.05183 0.07097,0.07098 0.748947,-0.298965 0.748947,-0.408666 0,-0.04315 0.04035,-0.05351 0.08967,-0.02303 0.04931,0.03048 0.08967,0.01031 0.08967,-0.04483 0,-0.05514 0.04036,-0.07532 0.08967,-0.04483 0.04931,0.03049 0.08967,0.01031 0.08967,-0.04482 0,-0.05514 0.04036,-0.07532 0.08967,-0.04483 0.04931,0.03048 0.08967,0.0061 0.08967,-0.05449 0,-0.06044 0.02529,-0.08463 0.0562,-0.0537 0.07605,0.07605 0.571481,-0.186554 0.571481,-0.302915 0,-0.05096 0.04036,-0.06772 0.08967,-0.03724 0.04931,0.03048 0.08967,0.01031 0.08967,-0.04483 0,-0.05514 0.04036,-0.07532 0.08967,-0.04483 0.04931,0.03048 0.08967,0.01031 0.08967,-0.04483 0,-0.05514 0.04035,-0.07531 0.08967,-0.04483 0.04931,0.03048 0.08967,0.01031 0.08967,-0.04483 0,-0.05514 0.04035,-0.07532 0.08967,-0.04483 0.04931,0.03048 0.08967,0.0061 0.08967,-0.05449 0,-0.06044 0.02509,-0.08482 0.05576,-0.05415 0.03067,0.03067 0.251255,-0.04331 0.490199,-0.164393 0.238944,-0.121082 0.476136,-0.220148 0.527093,-0.220148 0.12734,0 0.448721,0.33139 0.384075,0.396038 -0.02877,0.02877 -0.0029,0.0523 0.0576,0.0523 0.06044,0 0.08496,0.04035 0.05449,0.08967 -0.03048,0.04931 -0.01478,0.08967 0.03487,0.08967 0.05984,0 0.05868,0.09067 -0.0035,0.268901 -0.05155,0.147897 -0.13016,0.246391 -0.174671,0.218881 -0.04452,-0.02751 -0.08094,-0.0049 -0.08094,0.05023 0,0.05514 -0.04035,0.07532 -0.08967,0.04484 -0.04932,-0.03048 -0.08967,-0.01268 -0.08967,0.03955 0,0.05222 -0.03244,0.08486 -0.07211,0.07254 -0.103157,-0.03207 -0.734917,0.317607 -0.734917,0.406777 0,0.04101 -0.04035,0.04963 -0.08967,0.01916 -0.04931,-0.03048 -0.08967,-0.01031 -0.08967,0.04483 0,0.05514 -0.04035,0.07532 -0.08967,0.04483 -0.04931,-0.03048 -0.08967,-0.01031 -0.08967,0.04483 0,0.05514 -0.04036,0.07531 -0.08967,0.04483 -0.04931,-0.03047 -0.08967,-0.01031 -0.08967,0.04483 0,0.05514 -0.04035,0.07532 -0.08967,0.04483 -0.04931,-0.03048 -0.08967,-0.02079 -0.08967,0.02153 0,0.04232 -0.141228,0.128017 -0.313842,0.190435 -0.172612,0.06242 -0.313842,0.153607 -0.313842,0.202642 0,0.04905 -0.04036,0.06422 -0.08967,0.03374 -0.04932,-0.03047 -0.08967,-0.01031 -0.08967,0.04484 0,0.05514 -0.04035,0.07531 -0.08967,0.04483 -0.04931,-0.03048 -0.08967,-0.01031 -0.08967,0.04483 0,0.05514 -0.04035,0.07532 -0.08967,0.04483 -0.04931,-0.03048 -0.08967,-0.01031 -0.08967,0.04483 0,0.05514 -0.04035,0.07532 -0.08967,0.04484 -0.04931,-0.03048 -0.08967,-0.01582 -0.08967,0.03258 0,0.04841 -0.141228,0.134616 -0.313842,0.191584 -0.172612,0.05697 -0.313842,0.14318 -0.313842,0.191584 0,0.0484 -0.04035,0.06307 -0.08967,0.03258 -0.04931,-0.03048 -0.08967,-0.01031 -0.08967,0.04483 0,0.05514 -0.04035,0.07531 -0.08967,0.04484 -0.04931,-0.03049 -0.08967,-0.01031 -0.08967,0.04483 0,0.05514 -0.04036,0.07532 -0.08967,0.04483 -0.04932,-0.03048 -0.08967,-0.01031 -0.08967,0.04483 0,0.05514 -0.04036,0.07532 -0.08967,0.04483 -0.04931,-0.03048 -0.08967,-0.0061 -0.08967,0.05449 0,0.06044 -0.02584,0.08407 -0.05742,0.05249 -0.06895,-0.06895 -0.570266,0.21338 -0.570266,0.321159 0,0.04159 -0.04036,0.0507 -0.08967,0.02021 -0.04931,-0.03048 -0.08967,-0.01031 -0.08967,0.04483 0,0.05514 -0.04035,0.07532 -0.08967,0.04482 -0.04932,-0.03047 -0.08967,-0.01031 -0.08967,0.04484 0,0.05514 -0.04035,0.07532 -0.08967,0.04483 -0.04932,-0.03048 -0.08967,-0.0061 -0.08967,0.05449 0,0.06044 -0.02503,0.08487 -0.05562,0.05429 -0.06457,-0.06457 -1.140193,0.457816 -1.184984,0.575508 -0.01655,0.04345 -0.06698,0.05622 -0.112087,0.02835 -0.0451,-0.02788 -0.126783,-0.02301 -0.181508,0.0108 -0.154967,0.09578 -0.797192,0.105242 -0.797192,0.01175 z"
     id="path53" />
  <rect
     style="fill:#323232;fill-opacity:1;stroke:#434343;stroke-width:1.25068;stroke-opacity:0"
     id="rect53"
     width="6.6591864"
     height="5.0539088"
     x="88.907822"
     y="-88.822586"
     rx="0.44240722"
     ry="0.14890219"
     transform="matrix(0.15478348,0.98794842,-0.7392049,0.6734806,0,0)" />
  <rect
     style="fill:#323232;fill-opacity:1;stroke:#434343;stroke-width:1.27931;stroke-opacity:0"
     id="rect54"
     width="2.8784397"
     height="2.0588844"
     x="50.818356"
     y="62.839859"
     rx="0.40636581"
     ry="0.16961369"
     transform="rotate(-29.313995)" />
  <rect
     style="fill:#323232;fill-opacity:1;stroke:#434343;stroke-width:1.09562;stroke-opacity:0"
     id="rect55"
     width="3.1023211"
     height="3.6871166"
     x="81.512451"
     y="64.42057"
     rx="0.32791054"
     ry="0.15416513"
     transform="matrix(0.87720196,-0.48012157,0.35509436,0.93483046,0,0)" />
</svg>
