<?xml version="1.0" encoding="UTF-8" standalone="no"?>
<svg
   width="110"
   height="110"
   viewBox="0 0 110 110"
   fill="none"
   version="1.1"
   id="svg77"
   sodipodi:docname="svd.svg"
   inkscape:version="1.3 (0e150ed6c4, 2023-07-21)"
   xml:space="preserve"
   xmlns:inkscape="http://www.inkscape.org/namespaces/inkscape"
   xmlns:sodipodi="http://sodipodi.sourceforge.net/DTD/sodipodi-0.dtd"
   xmlns="http://www.w3.org/2000/svg"
   xmlns:svg="http://www.w3.org/2000/svg"><sodipodi:namedview
     id="namedview79"
     pagecolor="#505050"
     bordercolor="#ffffff"
     borderopacity="1"
     inkscape:pageshadow="0"
     inkscape:pageopacity="0"
     inkscape:pagecheckerboard="1"
     showgrid="false"
     inkscape:zoom="3.9590908"
     inkscape:cx="43.065443"
     inkscape:cy="46.349025"
     inkscape:window-width="1920"
     inkscape:window-height="1017"
     inkscape:window-x="-8"
     inkscape:window-y="-8"
     inkscape:window-maximized="1"
     inkscape:current-layer="g1"
     inkscape:showpageshadow="2"
     inkscape:deskcolor="#d1d1d1" /><defs
     id="defs75" /><g
     id="g1"
     transform="matrix(0.79303106,0,0,0.79303106,78.520891,11.529609)"><g
       id="g7"
       transform="rotate(14.852854,-31.358996,51.309473)"><g
         id="g6"><g
           id="g5"><g
             id="g4"><g
               id="g3"><g
                 id="g2"><rect
                   width="14.436293"
                   height="4.2327657"
                   x="-123.38799"
                   y="8.4493513"
                   rx="0.90226829"
                   ry="0.90226829"
                   transform="rotate(-46.845)"
                   fill="#323232"
                   stroke="#323232"
                   stroke-width="2.48124"
                   stroke-linecap="round"
                   stroke-miterlimit="10"
                   id="rect1" /><path
                   d="m -41.004683,49.312452 1.20566,1.20566 6.303759,-6.303758 -0.56782,-0.56782 -0.05901,0.05901 c 0,0 -0.426981,-0.426982 -0.895592,0.04163 -0.488389,0.488389 -0.06125,0.91553 -0.06125,0.91553 l -2.552,2.552 c 0,0 -0.427141,-0.427141 -0.906598,0.05232 -0.477543,0.477543 -0.0504,0.904684 -0.0504,0.904684 l -1.276,1.276 -0.319,-0.319 z"
                   fill="#323232"
                   id="path3-6"
                   style="stroke-width:0.225567" /><rect
                   width="4.4962282"
                   height="1.2618221"
                   x="-46.264214"
                   y="9.6484442"
                   rx="0.66880631"
                   ry="0.63091105"
                   fill="#323232"
                   id="rect7"
                   transform="rotate(-45)"
                   style="stroke-width:0.225567" /><rect
                   ry="0.63091105"
                   rx="0.66880631"
                   y="9.6786671"
                   x="-39.704723"
                   height="1.2618221"
                   width="4.4962282"
                   fill="#323232"
                   id="rect8"
                   transform="rotate(-45)"
                   style="stroke-width:0.225567" /><rect
                   width="4.4962282"
                   height="1.2618221"
                   x="-33.145458"
                   y="9.6786671"
                   rx="0.66880631"
                   ry="0.63091105"
                   fill="#323232"
                   id="rect9-3"
                   transform="rotate(-45)"
                   style="stroke-width:0.225567" /><path
                   d="m -46.36803,78.095184 c 0,0 -2.617555,1.142499 -2.78487,-2.999876 l -0.783783,0.773256 c 0.725246,3.581573 2.820757,2.908483 3.189521,2.804489 0.150249,-0.11803 0.332877,-0.406566 0.379132,-0.577869 z"
                   fill="#323232"
                   id="path9-5"
                   style="stroke-width:0.225567" /><path
                   d="m -52.514044,77.913195 1.354315,-1.464689 0.388861,0.845669 c 0,0 0.484082,0.763845 -0.08916,1.596436 l 0.981883,1.344903 c 0.367487,0.162053 1.935053,-0.08326 2.175739,-0.171143 0.948068,-0.458722 2.960479,-2.671785 3.059529,-2.992539 0.133501,-0.425387 0.132225,-1.034357 -0.06795,-1.742697 -0.226969,-0.475789 -1.286687,-1.546034 -1.286687,-1.546034 -0.221545,-0.340532 -0.413743,-1.248885 -0.413743,-1.248885 l 0.661607,-0.721897 c 0,0 0.11149,1.242665 0.344041,1.594203 0,0 1.330549,1.342671 1.395465,1.73201 0.232392,0.524277 0.269874,1.818301 0.0957,2.299353 -0.135255,0.319 -2.276383,2.829849 -3.423189,3.40341 -0.21038,0.07257 -1.23134,0.357281 -2.453269,0.30321 z m 13.323833,-5.515989 c 0,0 -0.256157,0.240845 -0.535442,0.137648 l -0.825572,-2.263304 0.550435,-0.550435 z"
                   fill="#323232"
                   id="path10"
                   style="stroke-width:0.225567" /><rect
                   ry="0.63091105"
                   rx="0.66880631"
                   y="11.421852"
                   x="-49.50832"
                   height="1.2618221"
                   width="4.4962282"
                   fill="#323232"
                   id="rect10"
                   transform="rotate(-45)"
                   style="stroke-width:0.225567" /><g
                   id="g9"><g
                     id="g8"><path
                       d="M -60.485535,81.544691 -82.40849,104.74365 c 0,0 -0.479776,0.97231 -0.160777,1.29131 4.919938,2.95809 11.260701,10.33241 11.260701,10.33241 0.37929,0.32506 0.732902,-0.25281 0.732902,-0.25281 l 13.001483,-17.956509 c 0.94743,-1.584473 4.368705,-4.867302 4.368705,-4.867302 0,0 0.986826,-0.483125 2.089769,-0.245311 1.297532,-0.389339 3.809179,-2.787741 3.809179,-2.787741 0.129673,-0.259507 -4.566007,-5.842006 -4.566007,-5.842006 -0.957,-1.595 0.957,-3.509001 0.957,-3.509001 l -2.552,-3.19 -5.104,3.828001 z m -17.116742,22.679459 2.233,-2.233 c 0.319,-0.31899 0.957,-0.31899 1.276,0 l 2.233,2.233 c 0.319,0.31901 0.319,0.957 0,1.27601 l -2.233,2.233 c -0.319,0.319 -0.957,0.319 -1.276,0 l -2.233,-2.233 c -0.319,-0.319 -0.319,-0.957 0,-1.27601 z m 10.801659,-11.163081 7.466833,-7.845167 c 0.897666,-0.875974 2.135545,-0.156789 2.135545,-0.156789 l 2.065047,3.286817 c 0,0 0.226968,1.513815 -0.638,2.552 -5.04674,4.924243 -5.786182,8.16305 -7.896367,9.96763 0,0 -1.479203,0.29444 -2.949633,-0.39763 l -3.903284,-3.47072 2.124859,-2.341141 c 1.315237,0.458722 1.276,0 1.276,0 z"
                       stroke="#323232"
                       stroke-width="2.48124"
                       id="path1-3"
                       style="fill:#785526;fill-opacity:1;stroke:#323232;stroke-opacity:1" /><path
                       d="m -59.528535,81.225691 1.276,-10e-7 4.785,-3.509 0.319,0.319 9.915478,-9.915476 1.914,1.914 0.637999,-0.638 -3.189999,-3.19 11.451302,-11.451303 -4.520071,-4.52007 -12.089462,12.089462 -0.638,1.275999 -12.148317,12.148318 c -0.540545,0.886661 1.01123,3.56323 1.01123,3.56323 z"
                       stroke="#323232"
                       stroke-width="2.48124"
                       id="path2"
                       style="fill:#424242;fill-opacity:1" /><path
                       d="m -8.8400725,29.261229 -4.5200705,-4.520071 -19.267122,19.267121 -2.807678,3.445679 5.15823,5.15823 7.592678,-9.506679 z"
                       stroke="#323232"
                       stroke-width="2.48124"
                       id="path4"
                       style="fill:#775426;fill-opacity:1" /><path
                       d="M -8.8968545,26.699339 16.808165,0.9943195 l 0.344521,0.193633 7.447693,-7.447693 c -0.336545,-0.739123 -1.008359,-1.410937 -1.814791,-1.814791 l -7.447694,7.447693 0.193793,0.3446795 -25.70502,25.70502 z M 17.0715,-0.881879 21.102224,-4.9126035 c 0.156151,-0.1561505 0.411829,-0.00829 0.411829,-0.00829 0,0 0.147538,0.2553595 -0.0086,0.41151 l -4.030406,4.0304055 c -0.175769,0.168113 -0.438625,0.035728 -0.438625,0.035728 0,0 -0.140998,-0.270512 0.03509,-0.438625 z"
                       fill="#323232"
                       id="path5-7"
                       style="stroke-width:0.225567" /><path
                       d="m -3.121519,19.076675 1.595,1.595 2.552,-2.552 -1.595,-1.595 c 0,0 -2.6389275,0.691751 -3.666267,0.161733 l -0.638,-0.638 -0.957,0.319 -4.147,4.147 0.319,0.319 -2.552,2.552 4.304267,4.304267 0.638,-0.638 -0.638,-0.638 6.38,-6.38 -0.957,-0.957 -6.38,6.38 -1.293545,-1.293545 5.423,-5.423 z m 11.1830235,-21.0063095 1.276,1.276 h 0.638 l 1.3621295,2.63813 3.548875,3.550151 0.957479,-0.9574785 -1.378559,-1.8111225 1.21555,-1.2155495 -3.954962,-3.954962 -0.0029,-0.635129 -1.276,-1.276 z M 11.600171,0.0606065 12.10148,-0.44134 a 0.52105992,0.52105992 0 0 1 0.738485,0 l 0.436073,0.436711 a 0.52105992,0.52105992 0 0 1 0,0.737847 l -0.501309,0.5019465 a 0.52105992,0.52105992 0 0 1 -0.738485,0 l -0.436072,-0.436711 a 0.52105992,0.52105992 0 0 1 -1e-6,-0.737847 z"
                       fill="#323232"
                       id="path6"
                       style="stroke-width:0.225567" /><path
                       d="m -32.55868,59.547726 c 2.833039,3.828 5.967055,5.329055 5.967055,5.329055 l -4.844015,8.034015 c 0,0 -3.079307,-1.37489 -7.881054,-6.605054 z"
                       stroke="#323232"
                       stroke-width="2.48124"
                       id="path7-5"
                       style="fill:#424242;fill-opacity:1" /><rect
                       width="4.4962282"
                       height="1.2618221"
                       x="-42.94883"
                       y="11.452075"
                       rx="0.66880631"
                       ry="0.63091105"
                       fill="#323232"
                       id="rect11"
                       transform="rotate(-45)"
                       style="stroke-width:0.225567" /></g></g><rect
                   ry="0.63091105"
                   rx="0.66880631"
                   y="11.452075"
                   x="-36.389565"
                   height="1.2618221"
                   width="4.4962282"
                   fill="#323232"
                   id="rect12"
                   transform="rotate(-45)"
                   style="stroke-width:0.225567" /></g></g></g></g></g></g></g></svg>
