<?xml version="1.0" encoding="UTF-8" standalone="no"?>
<svg
   height="167mm"
   viewBox="0 0 167 166.99995"
   width="167mm"
   version="1.1"
   id="svg1"
   xml:space="preserve"
   sodipodi:docname="perch_floor.svg"
   inkscape:version="1.3 (0e150ed6c4, 2023-07-21)"
   inkscape:export-filename="perch_floor.png"
   inkscape:export-xdpi="96"
   inkscape:export-ydpi="96"
   xmlns:inkscape="http://www.inkscape.org/namespaces/inkscape"
   xmlns:sodipodi="http://sodipodi.sourceforge.net/DTD/sodipodi-0.dtd"
   xmlns="http://www.w3.org/2000/svg"
   xmlns:svg="http://www.w3.org/2000/svg"><sodipodi:namedview
     id="namedview9"
     pagecolor="#505050"
     bordercolor="#ffffff"
     borderopacity="1"
     inkscape:pageshadow="0"
     inkscape:pageopacity="0"
     inkscape:pagecheckerboard="1"
     inkscape:document-units="mm"
     showgrid="false"
     inkscape:zoom="4"
     inkscape:cx="346.875"
     inkscape:cy="125.375"
     inkscape:window-width="1920"
     inkscape:window-height="1017"
     inkscape:window-x="-8"
     inkscape:window-y="-8"
     inkscape:window-maximized="1"
     inkscape:current-layer="svg1"
     inkscape:showpageshadow="2"
     inkscape:deskcolor="#d1d1d1" /><defs
     id="defs1" /><g
     id="g1"
     transform="matrix(0.36663878,0,0,0.35898453,5,11.212932)"><g
       stroke-width="2"
       fill="none"
       stroke-linecap="butt"
       id="g117"><path
         stroke="#663d16"
         vector-effect="non-scaling-stroke"
         d="m 98.83,0 -0.02,97.51 q 0,1.51 -1.5,1.5 L 78.05,98.87 q -0.64,0 -0.76,0.63 -0.09,0.48 -0.29,0.76"
         id="path1" /><path
         stroke="#663d16"
         vector-effect="non-scaling-stroke"
         d="m 102.29,0 c -0.2,8.04 0.17,17.1 0.13,24.08 -0.18,25.88 -0.03,51.74 -0.59,77.6 q -0.01,0.24 0.21,0.32 0.19,0.07 0.2,0.17"
         id="path2" /><path
         stroke="#59320b"
         vector-effect="non-scaling-stroke"
         d="m 102.24,102.17 -0.48,0.13"
         id="path3" /><path
         stroke="#48290c"
         vector-effect="non-scaling-stroke"
         d="m 101.76,102.3 -3.05,0.13"
         id="path4" /><path
         stroke="#59320b"
         vector-effect="non-scaling-stroke"
         d="m 98.71,102.43 -4.87,-0.12"
         id="path5" /><path
         stroke="#3b2917"
         vector-effect="non-scaling-stroke"
         d="M 93.84,102.31 76.7,102.47"
         id="path6" /><path
         stroke="#663d16"
         vector-effect="non-scaling-stroke"
         d="m 133.07,0 q -0.13,14.34 -0.06,28.68 c 0.01,2.09 0.71,3.58 -0.98,5.45"
         id="path7" /><path
         stroke="#62370b"
         vector-effect="non-scaling-stroke"
         d="m 132.03,34.13 -20.06,-0.26 a 1.44,1.44 0 0 0 -1.46,1.44 l -0.01,66.24 q 0,0.6 -0.6,0.6 l -7.66,0.02"
         id="path8" /><path
         stroke="#663d16"
         vector-effect="non-scaling-stroke"
         d="m 136.37,0 q -0.06,16.86 -0.33,33.75 -0.01,0.35 0.47,0.24"
         id="path9" /><path
         stroke="#59320b"
         vector-effect="non-scaling-stroke"
         d="m 136.51,33.99 q 0,0.26 -0.39,0.3"
         id="path10" /><path
         stroke="#48290c"
         vector-effect="non-scaling-stroke"
         d="m 136.12,34.29 h -2.87"
         id="path11" /><path
         stroke="#59320b"
         vector-effect="non-scaling-stroke"
         d="m 133.25,34.29 q -0.73,-0.57 -1.22,-0.16"
         id="path12" /><path
         stroke="#62370b"
         vector-effect="non-scaling-stroke"
         d="m 161.71,0 0.05,33.43 q 0,0.54 -0.54,0.54 l -24.71,0.02"
         id="path13" /><path
         stroke="#442301"
         vector-effect="non-scaling-stroke"
         d="m 167.23,0 c -0.64,21.3 0.5,42.52 0.18,63.8 q -0.02,1.24 -1.25,1.24 l -29.42,-0.06 q -0.57,0 -0.57,-0.58 l -0.05,-30.11"
         id="path14" /><path
         stroke="#442301"
         vector-effect="non-scaling-stroke"
         d="m 170.47,0 -0.21,30.17 q -0.01,0.51 0.51,0.52 l 29.24,0.37 a 1.23,1.23 0 0 0 1.25,-1.23 L 201.24,0"
         id="path15" /><path
         stroke="#442301"
         vector-effect="non-scaling-stroke"
         d="m 204.49,0 -0.56,98.83 q 0,0.59 0.59,0.59 l 30.73,-0.01 q 0.63,0 0.63,-0.63 L 235.32,0"
         id="path16" /><path
         stroke="#442301"
         vector-effect="non-scaling-stroke"
         d="m 238.42,0 q -0.02,12.96 0.34,25.91 c 0.08,3.1 -0.53,6.23 -0.51,9.35 q 0.07,13.71 -0.08,27.41 c -0.09,8.19 0.43,24.02 -0.47,36.06"
         id="path17" /><path
         stroke="#261a0d"
         vector-effect="non-scaling-stroke"
         d="m 237.7,98.73 q -0.98,-0.36 -1.33,2.56"
         id="path18" /><path
         stroke="#442301"
         vector-effect="non-scaling-stroke"
         d="m 236.37,101.29 -31.3,0.51 q -1.19,0.02 -1.19,1.22 l 0.27,132.01 q 0,0.44 0.43,0.45 l 19.2,0.42"
         id="path19" /><path
         stroke="#261a0d"
         vector-effect="non-scaling-stroke"
         d="m 223.78,235.9 q -5.91,0.15 -11.71,0.12 -0.66,0 -1.04,0.23 -0.53,0.31 -0.77,0.78 a 0.51,0.51 0 0 0 0.45,0.74 l 21.3,0.09"
         id="path20" /><path
         stroke="#442301"
         vector-effect="non-scaling-stroke"
         d="m 232.01,237.86 -26.02,0.1 q -2,0.01 -2,2.01 l 0.2,101.03"
         id="path21" /><path
         stroke="#442301"
         vector-effect="non-scaling-stroke"
         d="m 201.03,341 0.17,-33.91 a 0.57,0.57 0 0 0 -0.58,-0.58 l -28.8,0.11 a 1.91,1.91 0 0 0 -1.9,1.93 l 0.29,32.45"
         id="path22" /><path
         stroke="#48290c"
         vector-effect="non-scaling-stroke"
         d="m 162.27,341 -0.63,-3.5"
         id="path23" /><path
         stroke="#442301"
         vector-effect="non-scaling-stroke"
         d="m 161.64,337.5 q 2.94,0.98 4.85,0.12 0.49,-0.23 0.5,-0.77 0.27,-21.25 0.29,-42.5 c 0,-3.68 0.66,-8.25 0.54,-11.35 -0.65,-17.82 0.25,-35.72 -0.27,-53.58 q -0.22,-7.69 0.1,-15.39 c 0.12,-2.8 -0.36,-6.03 -0.1,-9.02 a 1.01,1.01 0 0 0 -1.01,-1.1 l -27.52,0.13 a 0.48,0.46 60.6 0 1 -0.26,-0.08 q -1.4,-0.95 -2.56,-0.07 a 1.07,1.05 -18.6 0 0 -0.43,0.85 l 0.18,101.97"
         id="path24" /><path
         stroke="#48290c"
         vector-effect="non-scaling-stroke"
         d="m 135.95,306.71 q -1.67,0.59 -2.74,0.02"
         id="path25" /><path
         stroke="#442301"
         vector-effect="non-scaling-stroke"
         d="m 133.21,306.73 0.17,-33.57 q 0,-0.59 -0.59,-0.58 l -17.78,0.2"
         id="path26" /><path
         stroke="#48290c"
         vector-effect="non-scaling-stroke"
         d="m 115.01,272.78 0.02,-3.18"
         id="path27" /><path
         stroke="#442301"
         vector-effect="non-scaling-stroke"
         d="m 115.03,269.6 17.2,-0.05 a 1.23,1.23 0 0 0 1.22,-1.23 l 0.21,-131.57 q 0,-0.91 -0.91,-0.89 l -29.93,0.67 q -0.55,0.01 -0.55,0.56 -0.06,49.06 -0.02,98.09 0,0.93 -0.55,3.32"
         id="path28" /><path
         stroke="#48290c"
         vector-effect="non-scaling-stroke"
         d="m 101.7,238.5 -3.21,0.26"
         id="path29" /><path
         stroke="#512e0c"
         vector-effect="non-scaling-stroke"
         d="m 98.49,238.76 -5.76,-0.09"
         id="path30" /><path
         stroke="#261a0d"
         vector-effect="non-scaling-stroke"
         d="m 92.73,238.67 1.09,-3.17"
         id="path31" /><path
         stroke="#442301"
         vector-effect="non-scaling-stroke"
         d="m 93.82,235.5 q 2.41,0.37 4.4,-0.36 0.5,-0.19 0.5,-0.71 l -0.01,-132"
         id="path32" /><path
         stroke="#442301"
         vector-effect="non-scaling-stroke"
         d="m 101.76,102.3 q 0.49,0.93 0.49,1.45 0.01,13.24 -0.07,27.94 a 1.37,1.37 0 0 0 1.36,1.38 l 26.79,0.15 q 0.42,0 0.79,0.2 0.9,0.49 1.84,0.21 a 0.83,0.82 80.9 0 0 0.59,-0.82 c -1.23,-31.84 0.03,-63.1 -0.57,-97.78 q -0.01,-0.27 0.13,-0.51 l 0.14,-0.23"
         id="path33" /><path
         stroke="#261a0d"
         vector-effect="non-scaling-stroke"
         d="m 169.89,105.57 -1.85,0.16"
         id="path34" /><path
         stroke="#442301"
         vector-effect="non-scaling-stroke"
         d="M 168.04,105.73 167,68.49 a 0.48,0.48 0 0 0 -0.48,-0.47 l -29.55,-0.07 a 0.91,0.91 0 0 0 -0.91,0.89 c -0.47,18.71 0,37.52 -0.09,56.24 -0.01,2.58 -0.5,5.61 -0.51,8.42 q -0.13,33.26 0.39,66.94 0.01,0.93 0.94,0.94 l 29.7,0.49 q 1.19,0.02 1.2,-1.17 l 0.25,-33.69"
         id="path35" /><path
         stroke="#261a0d"
         vector-effect="non-scaling-stroke"
         d="m 167.94,167.01 q 0.37,1.58 2,-0.04"
         id="path36" /><path
         stroke="#442301"
         vector-effect="non-scaling-stroke"
         d="m 169.94,166.97 q -0.31,-0.13 -0.2,0.3 0.04,0.19 0.24,0.19 l 31.46,0.22 a 0.19,0.19 0 0 0 0.19,-0.19 L 201.3,34.76 a 0.8,0.79 90 0 0 -0.79,-0.8 l -28.52,0.06 A 1.98,1.98 0 0 0 170.01,36 l -0.12,69.57"
         id="path37" /><path
         stroke="#37220c"
         vector-effect="non-scaling-stroke"
         d="m 169.94,166.97 q -0.81,-30.73 -0.05,-61.4"
         id="path38" /><path
         stroke="#37220c"
         vector-effect="non-scaling-stroke"
         d="m 168.04,105.73 -0.1,61.28"
         id="path39" /><path
         stroke="#442301"
         vector-effect="non-scaling-stroke"
         d="m 170.22,303.27 a 0.25,0.25 0 0 0 0.24,0.25 l 29.58,0.46 a 1.45,1.45 0 0 0 1.47,-1.45 c -0.05,-25.27 0.65,-50.85 0.02,-76.26 -0.45,-18.16 -0.6,-36.35 0.3,-54.76 q 0.09,-1.69 -1.6,-1.69 l -29.46,0.11 a 0.99,0.99 0 0 0 -0.99,0.99 l 0.44,132.35"
         id="path40" /><path
         stroke="#62370b"
         vector-effect="non-scaling-stroke"
         d="m 264.07,0 -0.19,32.77 a 1.35,1.34 89.4 0 0 1.38,1.36 l 3.87,-0.11"
         id="path41" /><path
         stroke="#59320b"
         vector-effect="non-scaling-stroke"
         d="m 269.13,34.02 q -0.68,0.01 0.32,0.26"
         id="path42" /><path
         stroke="#442301"
         vector-effect="non-scaling-stroke"
         d="m 269.45,34.28 0.73,71.26"
         id="path43" /><path
         stroke="#37220c"
         vector-effect="non-scaling-stroke"
         d="m 270.18,105.54 0.05,27.23 a 1.22,1.22 0 0 1 -1.22,1.23 h -30.52 q -0.62,0 -0.62,-0.62 L 237.7,98.73"
         id="path44" /><path
         stroke="#663d16"
         vector-effect="non-scaling-stroke"
         d="m 269.15,0 -0.02,34.02"
         id="path45" /><path
         stroke="#663d16"
         vector-effect="non-scaling-stroke"
         d="m 272.72,0 0.01,33.81"
         id="path46" /><path
         stroke="#59320b"
         vector-effect="non-scaling-stroke"
         d="m 272.73,33.81 q -0.88,0.56 -0.29,0.44"
         id="path47" /><path
         stroke="#48290c"
         vector-effect="non-scaling-stroke"
         d="m 272.44,34.25 -2.99,0.03"
         id="path48" /><path
         stroke="#663d16"
         vector-effect="non-scaling-stroke"
         d="m 302.73,0 q 0.51,1.96 0.52,7.75 0.03,13.09 -0.04,26.31"
         id="path49" /><path
         stroke="#62370b"
         vector-effect="non-scaling-stroke"
         d="M 303.21,34.06 272.73,33.81"
         id="path50" /><path
         stroke="#663d16"
         vector-effect="non-scaling-stroke"
         d="m 306.88,0 -0.06,30.09 q 0,0.66 0.66,0.66 h 28.55 q 1.16,0 1.17,-1.16 L 337.46,0"
         id="path51" /><path
         stroke="#663d16"
         vector-effect="non-scaling-stroke"
         d="m 340.8,0 -0.05,98.02 a 0.72,0.72 0 0 0 0.72,0.72 h 7.36"
         id="path52" /><path
         stroke="#3b2917"
         vector-effect="non-scaling-stroke"
         d="m 348.98,102.45 -12.03,-0.16"
         id="path53" /><path
         stroke="#663d16"
         vector-effect="non-scaling-stroke"
         d="m 336.95,102.29 q 0.5,-6.2 0.53,-12.54 0.12,-27.51 -0.09,-54.69 a 0.89,0.89 0 0 0 -0.89,-0.89 l -25.74,0.02"
         id="path54" /><path
         stroke="#59320b"
         vector-effect="non-scaling-stroke"
         d="m 310.76,34.19 q -1.87,-0.52 -3.92,0.08"
         id="path55" /><path
         stroke="#48290c"
         vector-effect="non-scaling-stroke"
         d="m 306.84,34.27 -3.53,0.05"
         id="path56" /><path
         stroke="#59320b"
         vector-effect="non-scaling-stroke"
         d="m 303.31,34.32 q -0.78,-0.44 -0.1,-0.26"
         id="path57" /><path
         stroke="#442301"
         vector-effect="non-scaling-stroke"
         d="m 303.31,34.32 -0.02,29.61 A 1.07,1.07 0 0 1 302.22,65 h -28.47 a 1.3,1.29 90 0 1 -1.29,-1.3 l -0.02,-29.45"
         id="path58" /><path
         stroke="#442301"
         vector-effect="non-scaling-stroke"
         d="m 306.84,34.27 -0.28,132.49 q 0,0.58 0.58,0.58 l 25.12,-0.08"
         id="path59" /><path
         stroke="#261a0d"
         vector-effect="non-scaling-stroke"
         d="m 332.26,167.26 q 0.32,1.35 -0.02,3.19"
         id="path60" /><path
         stroke="#442301"
         vector-effect="non-scaling-stroke"
         d="m 332.24,170.45 -25.11,-0.29 a 0.62,0.62 0 0 0 -0.63,0.62 v 132.21 q 0,0.47 0.47,0.48 l 7.93,0.15"
         id="path61" /><path
         stroke="#48290c"
         vector-effect="non-scaling-stroke"
         d="m 314.9,303.62 q 0.82,2.3 -0.14,3.35"
         id="path62" /><path
         stroke="#512e0c"
         vector-effect="non-scaling-stroke"
         d="m 314.76,306.97 -8.08,-0.11"
         id="path63" /><path
         stroke="#48290c"
         vector-effect="non-scaling-stroke"
         d="m 306.68,306.86 -3.08,0.12"
         id="path64" /><path
         stroke="#512e0c"
         vector-effect="non-scaling-stroke"
         d="m 303.6,306.98 q 0.07,-0.05 0.15,-0.1"
         id="path65" /><path
         stroke="#442301"
         vector-effect="non-scaling-stroke"
         d="m 303.75,306.88 -0.34,-101.79 a 0.67,0.67 0 0 0 -0.67,-0.67 l -29.98,-0.15 q -0.5,0 -0.5,0.5 l 0.25,101.92"
         id="path66" /><path
         stroke="#48290c"
         vector-effect="non-scaling-stroke"
         d="m 272.51,306.69 -3.1,0.28"
         id="path67" /><path
         stroke="#442301"
         vector-effect="non-scaling-stroke"
         d="m 269.41,306.97 0.41,-33.47 q 0.02,-1.46 -1.44,-1.48 l -30.05,-0.41 a 0.35,0.34 -89.2 0 0 -0.35,0.35 q 0.42,31.93 0.23,63.95 c 0,1.09 0.61,3.2 -0.2,4.38 a 1.53,1.52 -27.4 0 1 -2.78,-0.88 l 0.87,-86.17"
         id="path68" /><path
         stroke="#261a0d"
         vector-effect="non-scaling-stroke"
         d="m 236.1,253.24 0.37,3.31 a 0.36,0.36 0 0 0 0.68,0.14 q 0.51,-0.9 0.62,-2.74"
         id="path69" /><path
         stroke="#442301"
         vector-effect="non-scaling-stroke"
         d="m 237.77,253.95 v 15.43 q 0,0.66 0.66,0.66 l 30.07,-0.06 a 1.55,1.55 0 0 0 1.54,-1.69 c -0.46,-5.33 -0.06,-11 -0.05,-15.19 0.08,-25.61 0.04,-51.22 0.13,-76.83"
         id="path70" /><path
         stroke="#261a0d"
         vector-effect="non-scaling-stroke"
         d="m 270.12,176.27 q 0.92,1.86 1.69,-1.05"
         id="path71" /><path
         stroke="#442301"
         vector-effect="non-scaling-stroke"
         d="m 271.81,175.22 0.4,24.98 a 1.32,1.32 0 0 0 1.32,1.3 h 29.28 a 0.82,0.81 0 0 0 0.82,-0.81 l -0.1,-131.25 a 1.36,1.36 0 0 0 -1.34,-1.36 l -27.76,-0.31 q -2.09,-0.02 -2.11,2.07 l -0.41,38.42"
         id="path72" /><path
         stroke="#261a0d"
         vector-effect="non-scaling-stroke"
         d="m 271.91,108.26 -0.17,-2.19 q -0.04,-0.46 -0.47,-0.61 -0.61,-0.22 -1.09,0.08"
         id="path73" /><path
         stroke="#62370b"
         vector-effect="non-scaling-stroke"
         d="m 310.76,34.19 v 66.56 a 1.54,1.54 0 0 0 1.54,1.54 l 19.97,0.04"
         id="path74" /><path
         stroke="#37220c"
         vector-effect="non-scaling-stroke"
         d="m 332.27,102.33 -0.01,64.93"
         id="path75" /><path
         stroke="#442e17"
         vector-effect="non-scaling-stroke"
         d="m 336.95,102.29 -4.68,0.04"
         id="path76" /><path
         stroke="#37220c"
         vector-effect="non-scaling-stroke"
         d="m 271.81,175.22 0.1,-66.96"
         id="path77" /><path
         stroke="#37220c"
         vector-effect="non-scaling-stroke"
         d="m 270.12,176.27 0.14,-40.5 q 0.01,-0.52 -0.52,-0.52 h -31 a 0.97,0.97 0 0 0 -0.97,0.97 v 117.73"
         id="path78" /><path
         stroke="#37220c"
         vector-effect="non-scaling-stroke"
         d="M 236.1,253.24 236.33,238 q 0.01,-0.44 -0.43,-0.41 l -3.89,0.27"
         id="path79" /><path
         stroke="#37220c"
         vector-effect="non-scaling-stroke"
         d="m 223.78,235.9 11.21,0.25 a 1.11,1.11 0 0 0 1.13,-1.11 l 0.25,-133.75"
         id="path80" /><path
         stroke="#37220c"
         vector-effect="non-scaling-stroke"
         d="M 93.84,102.31 93.82,235.5"
         id="path81" /><path
         stroke="#442e17"
         vector-effect="non-scaling-stroke"
         d="M 92.73,238.67 76.99,238.42"
         id="path82" /><path
         stroke="#2c1c0d"
         vector-effect="non-scaling-stroke"
         d="M 29.75,107.45 A 0.95,0.95 0 0 0 28.8,106.5 H 5.22 a 0.95,0.95 0 0 0 -0.95,0.95 v 126.1 a 0.95,0.95 0 0 0 0.95,0.95 H 28.8 a 0.95,0.95 0 0 0 0.95,-0.95 v -126.1"
         id="path83" /><path
         stroke="#37220c"
         vector-effect="non-scaling-stroke"
         d="M 59.5,107.05 A 0.55,0.55 0 0 0 58.95,106.5 H 34.79 a 0.55,0.55 0 0 0 -0.55,0.55 v 126.9 a 0.55,0.55 0 0 0 0.55,0.55 h 24.16 a 0.55,0.55 0 0 0 0.55,-0.55 v -126.9"
         id="path84" /><path
         stroke="#41260e"
         vector-effect="non-scaling-stroke"
         d="M 89.5,107 A 0.5,0.5 0 0 0 89,106.5 H 64.42 a 0.5,0.5 0 0 0 -0.5,0.5 v 127 a 0.5,0.5 0 0 0 0.5,0.5 H 89 A 0.5,0.5 0 0 0 89.5,234 V 107"
         id="path85" /><path
         stroke="#442e17"
         vector-effect="non-scaling-stroke"
         d="m 349.01,238.37 -8.25,0.34"
         id="path86" /><path
         stroke="#3b2917"
         vector-effect="non-scaling-stroke"
         d="m 340.76,238.71 -3.46,0.03"
         id="path87" /><path
         stroke="#442e17"
         vector-effect="non-scaling-stroke"
         d="m 337.3,238.74 -5.06,-0.09"
         id="path88" /><path
         stroke="#37220c"
         vector-effect="non-scaling-stroke"
         d="m 332.24,238.65 v -68.2"
         id="path89" /><path
         stroke="#41260e"
         vector-effect="non-scaling-stroke"
         d="m 362.25,107.34 a 0.84,0.84 0 0 0 -0.84,-0.84 h -24.08 a 0.84,0.84 0 0 0 -0.84,0.84 v 126.32 a 0.84,0.84 0 0 0 0.84,0.84 h 24.08 a 0.84,0.84 0 0 0 0.84,-0.84 V 107.34"
         id="path90" /><path
         stroke="#37220c"
         vector-effect="non-scaling-stroke"
         d="m 391.76,107.11 a 0.61,0.61 0 0 0 -0.61,-0.61 h -24.04 a 0.61,0.61 0 0 0 -0.61,0.61 v 126.78 a 0.61,0.61 0 0 0 0.61,0.61 h 24.04 a 0.61,0.61 0 0 0 0.61,-0.61 V 107.11"
         id="path91" /><path
         stroke="#2c1c0d"
         vector-effect="non-scaling-stroke"
         d="m 421.04,234.5 a 0.66,0.66 0 0 0 0.66,-0.66 l -0.13,-126.68 a 0.66,0.66 0 0 0 -0.66,-0.66 h -24 a 0.66,0.66 0 0 0 -0.66,0.66 v 126.68 a 0.66,0.66 0 0 0 0.66,0.66 h 24.13"
         id="path92" /><path
         stroke="#59320b"
         vector-effect="non-scaling-stroke"
         d="m 115.03,269.6 q -0.02,-0.04 -0.04,-0.07"
         id="path93" /><path
         stroke="#62370b"
         vector-effect="non-scaling-stroke"
         d="m 114.99,269.53 v -30.02 a 0.68,0.67 89.6 0 0 -0.68,-0.68 l -11.79,0.13"
         id="path94" /><path
         stroke="#59320b"
         vector-effect="non-scaling-stroke"
         d="m 102.52,238.96 q -1.08,-0.05 -0.82,-0.46"
         id="path95" /><path
         stroke="#62370b"
         vector-effect="non-scaling-stroke"
         d="m 332.24,238.65 -16.31,0.06 a 0.64,0.63 0 0 0 -0.64,0.63 l 0.02,64.02"
         id="path96" /><path
         stroke="#59320b"
         vector-effect="non-scaling-stroke"
         d="m 315.31,303.36 -0.41,0.26"
         id="path97" /><path
         stroke="#59320b"
         vector-effect="non-scaling-stroke"
         d="m 161.64,337.5 q 0.07,0.1 0.15,0.19"
         id="path98" /><path
         stroke="#62370b"
         vector-effect="non-scaling-stroke"
         d="m 161.79,337.69 0.23,-30.07 A 0.62,0.62 0 0 0 161.4,307 h -25.26"
         id="path99" /><path
         stroke="#59320b"
         vector-effect="non-scaling-stroke"
         d="m 136.14,307 q -0.09,-0.14 -0.19,-0.29"
         id="path100" /><path
         stroke="#62370b"
         vector-effect="non-scaling-stroke"
         d="M 303.75,306.88 273,306.95"
         id="path101" /><path
         stroke="#59320b"
         vector-effect="non-scaling-stroke"
         d="m 273,306.95 q -0.01,-0.21 -0.49,-0.26"
         id="path102" /><path
         stroke="#59320b"
         vector-effect="non-scaling-stroke"
         d="m 269.41,306.97 q -0.11,0.03 -0.22,0.06"
         id="path103" /><path
         stroke="#62370b"
         vector-effect="non-scaling-stroke"
         d="m 269.19,307.03 -4.21,-0.01 q -0.78,0 -0.78,0.78 l -0.03,33.2"
         id="path104" /><path
         stroke="#663d16"
         vector-effect="non-scaling-stroke"
         d="m 102.52,238.96 c -0.26,0.51 -0.53,0.86 -0.51,1.45 q 0.44,13.99 0.13,28.17 -0.02,0.56 0.55,0.58 l 12.3,0.37"
         id="path105" /><path
         stroke="#663d16"
         vector-effect="non-scaling-stroke"
         d="m 115.01,272.78 -11.98,0.05 q -0.55,0.01 -0.55,0.55 L 102.23,341"
         id="path106" /><path
         stroke="#663d16"
         vector-effect="non-scaling-stroke"
         d="m 98.71,341 q 0.18,-35.99 0.27,-71.97 c 0.03,-9.26 0.53,-20.63 -0.49,-30.27"
         id="path107" /><path
         stroke="#663d16"
         vector-effect="non-scaling-stroke"
         d="m 337.3,238.74 0.26,63.55 q 0.01,1.15 -1.15,1.15 l -21.1,-0.08"
         id="path108" /><path
         stroke="#663d16"
         vector-effect="non-scaling-stroke"
         d="M 340.76,238.71 340.74,341"
         id="path109" /><path
         stroke="#663d16"
         vector-effect="non-scaling-stroke"
         d="m 337.34,341 0.16,-33.28 a 0.92,0.91 0 0 0 -0.93,-0.92 l -21.81,0.17"
         id="path110" /><path
         stroke="#62370b"
         vector-effect="non-scaling-stroke"
         d="M 115.01,272.78 115,305.83 a 1.19,1.18 0 0 0 1.19,1.18 l 16.29,0.01"
         id="path111" /><path
         stroke="#663d16"
         vector-effect="non-scaling-stroke"
         d="m 132.48,307.02 0.23,0.18 q 0.28,0.23 0.28,0.59 l 0.1,33.21"
         id="path112" /><path
         stroke="#59320b"
         vector-effect="non-scaling-stroke"
         d="m 133.21,306.73 q -0.33,0.31 -0.73,0.29"
         id="path113" /><path
         stroke="#663d16"
         vector-effect="non-scaling-stroke"
         d="m 136.14,307 0.27,30.17 q 0.01,0.61 0.62,0.61 l 24.76,-0.09"
         id="path114" /><path
         stroke="#663d16"
         vector-effect="non-scaling-stroke"
         d="m 273,306.95 q -0.14,0.02 -0.28,0.04 -0.15,0.02 -0.15,0.17 l -0.07,29.22 q 0,1.37 1.37,1.37 h 28.84 q 0.46,0 0.47,-0.46 l 0.42,-30.31"
         id="path115" /><path
         stroke="#663d16"
         vector-effect="non-scaling-stroke"
         d="m 306.68,306.86 0.3,34.14"
         id="path116" /><path
         stroke="#663d16"
         vector-effect="non-scaling-stroke"
         d="m 268.69,341 q 0.53,-2.1 0.54,-4.25 0.06,-14.84 -0.04,-29.72"
         id="path117" /></g><path
       fill="#6f4216"
       d="m 76.72,0 h 22.11 l -0.02,97.51 q 0,1.51 -1.5,1.5 L 78.05,98.87 q -0.64,0 -0.76,0.63 -0.09,0.48 -0.29,0.76 z"
       id="path118" /><path
       fill="#5c3816"
       d="m 98.83,0 h 3.46 c -0.2,8.04 0.17,17.1 0.13,24.08 -0.18,25.88 -0.03,51.74 -0.59,77.6 q -0.01,0.24 0.21,0.32 0.19,0.07 0.2,0.17 l -0.48,0.13 -3.05,0.13 -4.87,-0.12 -17.14,0.16 q 0.47,-1.23 0.3,-2.21 0.2,-0.28 0.29,-0.76 0.12,-0.63 0.76,-0.63 l 19.26,0.14 q 1.5,0.01 1.5,-1.5 z"
       id="path119" /><path
       fill="#6f4216"
       d="m 102.29,0 h 30.78 q -0.13,14.34 -0.06,28.68 c 0.01,2.09 0.71,3.58 -0.98,5.45 l -20.06,-0.26 a 1.44,1.44 0 0 0 -1.46,1.44 l -0.01,66.24 q 0,0.6 -0.6,0.6 l -7.66,0.02 q -0.01,-0.1 -0.2,-0.17 -0.22,-0.08 -0.21,-0.32 c 0.56,-25.86 0.41,-51.72 0.59,-77.6 C 102.46,17.1 102.09,8.04 102.29,0 Z"
       id="path120" /><path
       fill="#5c3816"
       d="m 133.07,0 h 3.3 q -0.06,16.86 -0.33,33.75 -0.01,0.35 0.47,0.24 0,0.26 -0.39,0.3 h -2.87 q -0.73,-0.57 -1.22,-0.16 c 1.69,-1.87 0.99,-3.36 0.98,-5.45 Q 132.94,14.34 133.07,0 Z"
       id="path121" /><path
       fill="#6f4216"
       d="m 136.37,0 h 25.34 l 0.05,33.43 q 0,0.54 -0.54,0.54 l -24.71,0.02 q -0.48,0.11 -0.47,-0.24 0.27,-16.89 0.33,-33.75 z"
       id="path122" /><path
       fill="#552b00"
       d="m 161.71,0 h 5.52 c -0.64,21.3 0.5,42.52 0.18,63.8 q -0.02,1.24 -1.25,1.24 l -29.42,-0.06 q -0.57,0 -0.57,-0.58 l -0.05,-30.11 q 0.39,-0.04 0.39,-0.3 l 24.71,-0.02 q 0.54,0 0.54,-0.54 z"
       id="path123" /><path
       fill="#331a01"
       d="m 167.23,0 h 3.24 l -0.21,30.17 q -0.01,0.51 0.51,0.52 l 29.24,0.37 a 1.23,1.23 0 0 0 1.25,-1.23 L 201.24,0 h 3.25 l -0.56,98.83 q 0,0.59 0.59,0.59 l 30.73,-0.01 q 0.63,0 0.63,-0.63 L 235.32,0 h 3.1 q -0.02,12.96 0.34,25.91 c 0.08,3.1 -0.53,6.23 -0.51,9.35 q 0.07,13.71 -0.08,27.41 c -0.09,8.19 0.43,24.02 -0.47,36.06 q -0.98,-0.36 -1.33,2.56 l -31.3,0.51 q -1.19,0.02 -1.19,1.22 l 0.27,132.01 q 0,0.44 0.43,0.45 l 19.2,0.42 q -5.91,0.15 -11.71,0.12 -0.66,0 -1.04,0.23 -0.53,0.31 -0.77,0.78 a 0.51,0.51 0 0 0 0.45,0.74 l 21.3,0.09 -26.02,0.1 q -2,0.01 -2,2.01 l 0.2,101.03 h -3.16 l 0.17,-33.91 a 0.57,0.57 0 0 0 -0.58,-0.58 l -28.8,0.11 a 1.91,1.91 0 0 0 -1.9,1.93 l 0.29,32.45 h -7.94 l -0.63,-3.5 q 2.94,0.98 4.85,0.12 0.49,-0.23 0.5,-0.77 0.27,-21.25 0.29,-42.5 c 0,-3.68 0.66,-8.25 0.54,-11.35 -0.65,-17.82 0.25,-35.72 -0.27,-53.58 q -0.22,-7.69 0.1,-15.39 c 0.12,-2.8 -0.36,-6.03 -0.1,-9.02 a 1.01,1.01 0 0 0 -1.01,-1.1 l -27.52,0.13 a 0.48,0.46 60.6 0 1 -0.26,-0.08 q -1.4,-0.95 -2.56,-0.07 a 1.07,1.05 -18.6 0 0 -0.43,0.85 l 0.18,101.97 q -1.67,0.59 -2.74,0.02 l 0.17,-33.57 q 0,-0.59 -0.59,-0.58 l -17.78,0.2 0.02,-3.18 17.2,-0.05 a 1.23,1.23 0 0 0 1.22,-1.23 l 0.21,-131.57 q 0,-0.91 -0.91,-0.89 l -29.93,0.67 q -0.55,0.01 -0.55,0.56 -0.06,49.06 -0.02,98.09 0,0.93 -0.55,3.32 l -3.21,0.26 -5.76,-0.09 1.09,-3.17 q 2.41,0.37 4.4,-0.36 0.5,-0.19 0.5,-0.71 l -0.01,-132 3.05,-0.13 q 0.49,0.93 0.49,1.45 0.01,13.24 -0.07,27.94 a 1.37,1.37 0 0 0 1.36,1.38 l 26.79,0.15 q 0.42,0 0.79,0.2 0.9,0.49 1.84,0.21 a 0.83,0.82 80.9 0 0 0.59,-0.82 c -1.23,-31.84 0.03,-63.1 -0.57,-97.78 q -0.01,-0.27 0.13,-0.51 l 0.14,-0.23 h 2.87 l 0.05,30.11 q 0,0.58 0.57,0.58 l 29.42,0.06 q 1.23,0 1.25,-1.24 C 167.73,42.52 166.59,21.3 167.23,0 Z m 2.66,105.57 -1.85,0.16 L 167,68.49 a 0.48,0.48 0 0 0 -0.48,-0.47 l -29.55,-0.07 a 0.91,0.91 0 0 0 -0.91,0.89 c -0.47,18.71 0,37.52 -0.09,56.24 -0.01,2.58 -0.5,5.61 -0.51,8.42 q -0.13,33.26 0.39,66.94 0.01,0.93 0.94,0.94 l 29.7,0.49 q 1.19,0.02 1.2,-1.17 l 0.25,-33.69 q 0.37,1.58 2,-0.04 -0.31,-0.13 -0.2,0.3 0.04,0.19 0.24,0.19 l 31.46,0.22 a 0.19,0.19 0 0 0 0.19,-0.19 L 201.3,34.76 a 0.8,0.79 90 0 0 -0.79,-0.8 l -28.52,0.06 A 1.98,1.98 0 0 0 170.01,36 Z m 0.33,197.7 a 0.25,0.25 0 0 0 0.24,0.25 l 29.58,0.46 a 1.45,1.45 0 0 0 1.47,-1.45 c -0.05,-25.27 0.65,-50.85 0.02,-76.26 -0.45,-18.16 -0.6,-36.35 0.3,-54.76 q 0.09,-1.69 -1.6,-1.69 l -29.46,0.11 a 0.99,0.99 0 0 0 -0.99,0.99 z"
       id="path124" /><path
       fill="#552b00"
       d="m 170.47,0 h 30.77 l 0.02,29.83 a 1.23,1.23 0 0 1 -1.25,1.23 l -29.24,-0.37 q -0.52,-0.01 -0.51,-0.52 z"
       id="path125" /><path
       fill="#552b00"
       d="m 204.49,0 h 30.83 l 0.56,98.78 q 0,0.63 -0.63,0.63 l -30.73,0.01 q -0.59,0 -0.59,-0.59 z"
       id="path126" /><path
       fill="#552b00"
       d="m 238.42,0 h 25.65 l -0.19,32.77 a 1.35,1.34 89.4 0 0 1.38,1.36 l 3.87,-0.11 q -0.68,0.01 0.32,0.26 l 0.73,71.26 0.05,27.23 a 1.22,1.22 0 0 1 -1.22,1.23 h -30.52 q -0.62,0 -0.62,-0.62 L 237.7,98.73 c 0.9,-12.04 0.38,-27.87 0.47,-36.06 q 0.15,-13.7 0.08,-27.41 c -0.02,-3.12 0.59,-6.25 0.51,-9.35 Q 238.4,12.96 238.42,0 Z"
       id="path127" /><path
       fill="#6f4216"
       d="m 264.07,0 h 5.08 l -0.02,34.02 -3.87,0.11 a 1.35,1.34 89.4 0 1 -1.38,-1.36 z"
       id="path128" /><path
       fill="#5c3816"
       d="m 269.15,0 h 3.57 l 0.01,33.81 q -0.88,0.56 -0.29,0.44 l -2.99,0.03 q -1,-0.25 -0.32,-0.26 z"
       id="path129" /><path
       fill="#6f4216"
       d="m 272.72,0 h 30.01 q 0.51,1.96 0.52,7.75 0.03,13.09 -0.04,26.31 l -30.48,-0.25 z"
       id="path130" /><path
       fill="#5c3816"
       d="m 302.73,0 h 4.15 l -0.06,30.09 q 0,0.66 0.66,0.66 h 28.55 q 1.16,0 1.17,-1.16 L 337.46,0 h 3.34 l -0.05,98.02 a 0.72,0.72 0 0 0 0.72,0.72 h 7.36 l 0.15,3.71 -12.03,-0.16 q 0.5,-6.2 0.53,-12.54 0.12,-27.51 -0.09,-54.69 a 0.89,0.89 0 0 0 -0.89,-0.89 l -25.74,0.02 q -1.87,-0.52 -3.92,0.08 l -3.53,0.05 q -0.78,-0.44 -0.1,-0.26 0.07,-13.22 0.04,-26.31 Q 303.24,1.96 302.73,0 Z"
       id="path131" /><path
       fill="#6f4216"
       d="m 306.88,0 h 30.58 l -0.26,29.59 q -0.01,1.16 -1.17,1.16 h -28.55 q -0.66,0 -0.66,-0.66 z"
       id="path132" /><path
       fill="#6f4216"
       d="m 340.8,0 h 8.16 l -0.13,98.74 h -7.36 a 0.72,0.72 0 0 1 -0.72,-0.72 z"
       id="path133" /><path
       fill="#552b00"
       d="m 169.94,166.97 q -0.81,-30.73 -0.05,-61.4 L 170.01,36 a 1.98,1.98 0 0 1 1.98,-1.98 l 28.52,-0.06 a 0.8,0.79 90 0 1 0.79,0.8 l 0.33,132.73 a 0.19,0.19 0 0 1 -0.19,0.19 l -31.46,-0.22 q -0.2,0 -0.24,-0.19 -0.11,-0.43 0.2,-0.3 z"
       id="path134" /><path
       fill="#552b00"
       d="m 272.73,33.81 30.48,0.25 q -0.68,-0.18 0.1,0.26 l -0.02,29.61 A 1.07,1.07 0 0 1 302.22,65 h -28.47 a 1.3,1.29 90 0 1 -1.29,-1.3 l -0.02,-29.45 q -0.59,0.12 0.29,-0.44 z"
       id="path135" /><path
       fill="#552b00"
       d="m 132.03,34.13 q 0.49,-0.41 1.22,0.16 l -0.14,0.23 q -0.14,0.24 -0.13,0.51 c 0.6,34.68 -0.66,65.94 0.57,97.78 a 0.83,0.82 80.9 0 1 -0.59,0.82 q -0.94,0.28 -1.84,-0.21 -0.37,-0.2 -0.79,-0.2 l -26.79,-0.15 a 1.37,1.37 0 0 1 -1.36,-1.38 q 0.08,-14.7 0.07,-27.94 0,-0.52 -0.49,-1.45 l 0.48,-0.13 7.66,-0.02 q 0.6,0 0.6,-0.6 l 0.01,-66.24 a 1.44,1.44 0 0 1 1.46,-1.44 z"
       id="path136" /><path
       fill="#331a01"
       d="m 306.84,34.27 -0.28,132.49 q 0,0.58 0.58,0.58 l 25.12,-0.08 q 0.32,1.35 -0.02,3.19 l -25.11,-0.29 a 0.62,0.62 0 0 0 -0.63,0.62 v 132.21 q 0,0.47 0.47,0.48 l 7.93,0.15 q 0.82,2.3 -0.14,3.35 l -8.08,-0.11 -3.08,0.12 q 0.07,-0.05 0.15,-0.1 l -0.34,-101.79 a 0.67,0.67 0 0 0 -0.67,-0.67 l -29.98,-0.15 q -0.5,0 -0.5,0.5 l 0.25,101.92 -3.1,0.28 0.41,-33.47 q 0.02,-1.46 -1.44,-1.48 l -30.05,-0.41 a 0.35,0.34 -89.2 0 0 -0.35,0.35 q 0.42,31.93 0.23,63.95 c 0,1.09 0.61,3.2 -0.2,4.38 a 1.53,1.52 -27.4 0 1 -2.78,-0.88 l 0.87,-86.17 0.37,3.31 a 0.36,0.36 0 0 0 0.68,0.14 q 0.51,-0.9 0.62,-2.74 v 15.43 q 0,0.66 0.66,0.66 l 30.07,-0.06 a 1.55,1.55 0 0 0 1.54,-1.69 c -0.46,-5.33 -0.06,-11 -0.05,-15.19 0.08,-25.61 0.04,-51.22 0.13,-76.83 q 0.92,1.86 1.69,-1.05 l 0.4,24.98 a 1.32,1.32 0 0 0 1.32,1.3 h 29.28 a 0.82,0.81 0 0 0 0.82,-0.81 l -0.1,-131.25 a 1.36,1.36 0 0 0 -1.34,-1.36 l -27.76,-0.31 q -2.09,-0.02 -2.11,2.07 l -0.41,38.42 -0.17,-2.19 q -0.04,-0.46 -0.47,-0.61 -0.61,-0.22 -1.09,0.08 l -0.73,-71.26 2.99,-0.03 0.02,29.45 a 1.3,1.29 -90 0 0 1.29,1.3 h 28.47 a 1.07,1.07 0 0 0 1.07,-1.07 l 0.02,-29.61 z"
       id="path137" /><path
       fill="#552b00"
       d="m 310.76,34.19 v 66.56 a 1.54,1.54 0 0 0 1.54,1.54 l 19.97,0.04 -0.01,64.93 -25.12,0.08 q -0.58,0 -0.58,-0.58 l 0.28,-132.49 q 2.05,-0.6 3.92,-0.08 z"
       id="path138" /><path
       fill="#6f4216"
       d="m 336.95,102.29 -4.68,0.04 -19.97,-0.04 a 1.54,1.54 0 0 1 -1.54,-1.54 V 34.19 l 25.74,-0.02 a 0.89,0.89 0 0 1 0.89,0.89 q 0.21,27.18 0.09,54.69 -0.03,6.34 -0.53,12.54 z"
       id="path139" /><path
       fill="#552b00"
       d="m 168.04,105.73 -0.1,61.28 -0.25,33.69 q -0.01,1.19 -1.2,1.17 l -29.7,-0.49 q -0.93,-0.01 -0.94,-0.94 -0.52,-33.68 -0.39,-66.94 c 0.01,-2.81 0.5,-5.84 0.51,-8.42 0.09,-18.72 -0.38,-37.53 0.09,-56.24 a 0.91,0.91 0 0 1 0.91,-0.89 l 29.55,0.07 a 0.48,0.48 0 0 1 0.48,0.47 z"
       id="path140" /><path
       fill="#552b00"
       d="m 271.81,175.22 0.1,-66.96 0.41,-38.42 q 0.02,-2.09 2.11,-2.07 l 27.76,0.31 a 1.36,1.36 0 0 1 1.34,1.36 l 0.1,131.25 a 0.82,0.81 0 0 1 -0.82,0.81 h -29.28 a 1.32,1.32 0 0 1 -1.32,-1.3 z"
       id="path141" /><path
       fill="#191918"
       d="m 237.7,98.73 0.17,34.65 q 0,0.62 0.62,0.62 h 30.52 a 1.22,1.22 0 0 0 1.22,-1.23 l -0.05,-27.23 q 0.48,-0.3 1.09,-0.08 0.43,0.15 0.47,0.61 l 0.17,2.19 -0.1,66.96 q -0.77,2.91 -1.69,1.05 l 0.14,-40.5 q 0.01,-0.52 -0.52,-0.52 h -31 a 0.97,0.97 0 0 0 -0.97,0.97 v 117.73 q -0.11,1.84 -0.62,2.74 a 0.36,0.36 0 0 1 -0.68,-0.14 l -0.37,-3.31 0.23,-15.24 q 0.01,-0.44 -0.43,-0.41 l -3.89,0.27 -21.3,-0.09 a 0.51,0.51 0 0 1 -0.45,-0.74 q 0.24,-0.47 0.77,-0.78 0.38,-0.23 1.04,-0.23 5.8,0.03 11.71,-0.12 l 11.21,0.25 a 1.11,1.11 0 0 0 1.13,-1.11 l 0.25,-133.75 q 0.35,-2.92 1.33,-2.56 z"
       id="path142" /><path
       fill="#552b00"
       d="m 236.37,101.29 -0.25,133.75 a 1.11,1.11 0 0 1 -1.13,1.11 l -11.21,-0.25 -19.2,-0.42 q -0.43,-0.01 -0.43,-0.45 l -0.27,-132.01 q 0,-1.2 1.19,-1.22 z"
       id="path143" /><path
       fill="#191918"
       d="M 76.7,102.47 93.84,102.31 93.82,235.5 92.73,238.67 76.99,238.42 0,238.27 V 102.52 Z m -46.95,4.98 A 0.95,0.95 0 0 0 28.8,106.5 H 5.22 a 0.95,0.95 0 0 0 -0.95,0.95 v 126.1 a 0.95,0.95 0 0 0 0.95,0.95 H 28.8 a 0.95,0.95 0 0 0 0.95,-0.95 z m 29.75,-0.4 A 0.55,0.55 0 0 0 58.95,106.5 H 34.79 a 0.55,0.55 0 0 0 -0.55,0.55 v 126.9 a 0.55,0.55 0 0 0 0.55,0.55 h 24.16 a 0.55,0.55 0 0 0 0.55,-0.55 z M 89.5,107 A 0.5,0.5 0 0 0 89,106.5 H 64.42 a 0.5,0.5 0 0 0 -0.5,0.5 v 127 a 0.5,0.5 0 0 0 0.5,0.5 H 89 a 0.5,0.5 0 0 0 0.5,-0.5 z"
       id="path144" /><path
       fill="#552b00"
       d="m 93.84,102.31 4.87,0.12 0.01,132 q 0,0.52 -0.5,0.71 -1.99,0.73 -4.4,0.36 z"
       id="path145" /><path
       fill="#191918"
       d="m 336.95,102.29 12.03,0.16 76.24,0.04 a 0.53,0.53 0 0 1 0.53,0.53 v 134.73 q 0,0.52 -0.52,0.52 l -76.22,0.1 -8.25,0.34 -3.46,0.03 -5.06,-0.09 v -68.2 q 0.34,-1.84 0.02,-3.19 l 0.01,-64.93 z m 25.3,5.05 a 0.84,0.84 0 0 0 -0.84,-0.84 h -24.08 a 0.84,0.84 0 0 0 -0.84,0.84 v 126.32 a 0.84,0.84 0 0 0 0.84,0.84 h 24.08 a 0.84,0.84 0 0 0 0.84,-0.84 z m 29.51,-0.23 a 0.61,0.61 0 0 0 -0.61,-0.61 h -24.04 a 0.61,0.61 0 0 0 -0.61,0.61 v 126.78 a 0.61,0.61 0 0 0 0.61,0.61 h 24.04 a 0.61,0.61 0 0 0 0.61,-0.61 z m 29.28,127.39 a 0.66,0.66 0 0 0 0.66,-0.66 l -0.13,-126.68 a 0.66,0.66 0 0 0 -0.66,-0.66 h -24 a 0.66,0.66 0 0 0 -0.66,0.66 v 126.68 a 0.66,0.66 0 0 0 0.66,0.66 z"
       id="path146" /><path
       fill="#191918"
       d="m 169.89,105.57 q -0.76,30.67 0.05,61.4 -1.63,1.62 -2,0.04 l 0.1,-61.28 z"
       id="path147" /><rect
       fill="#3f1e02"
       x="4.27"
       y="106.5"
       width="25.48"
       height="128"
       rx="0.94999999"
       id="rect147" /><rect
       fill="#552b00"
       x="34.240002"
       y="106.5"
       width="25.26"
       height="128"
       rx="0.55000001"
       id="rect148" /><rect
       fill="#693203"
       x="63.919998"
       y="106.5"
       width="25.58"
       height="128"
       rx="0.5"
       id="rect149" /><rect
       fill="#693203"
       x="336.48999"
       y="106.5"
       width="25.76"
       height="128"
       rx="0.83999997"
       id="rect150" /><rect
       fill="#552b00"
       x="366.5"
       y="106.5"
       width="25.26"
       height="128"
       rx="0.61000001"
       id="rect151" /><path
       fill="#3f1e02"
       d="m 421.04,234.5 h -24.13 a 0.66,0.66 0 0 1 -0.66,-0.66 V 107.16 a 0.66,0.66 0 0 1 0.66,-0.66 h 24 a 0.66,0.66 0 0 1 0.66,0.66 l 0.13,126.68 a 0.66,0.66 0 0 1 -0.66,0.66 z"
       id="path151" /><path
       fill="#552b00"
       d="m 270.12,176.27 c -0.09,25.61 -0.05,51.22 -0.13,76.83 -0.01,4.19 -0.41,9.86 0.05,15.19 a 1.55,1.55 0 0 1 -1.54,1.69 l -30.07,0.06 q -0.66,0 -0.66,-0.66 V 253.95 136.22 a 0.97,0.97 0 0 1 0.97,-0.97 h 31 q 0.53,0 0.52,0.52 z"
       id="path152" /><path
       fill="#552b00"
       d="m 115.03,269.6 q -0.02,-0.04 -0.04,-0.07 v -30.02 a 0.68,0.67 89.6 0 0 -0.68,-0.68 l -11.79,0.13 q -1.08,-0.05 -0.82,-0.46 0.55,-2.39 0.55,-3.32 -0.04,-49.03 0.02,-98.09 0,-0.55 0.55,-0.56 l 29.93,-0.67 q 0.91,-0.02 0.91,0.89 l -0.21,131.57 a 1.23,1.23 0 0 1 -1.22,1.23 z"
       id="path153" /><path
       fill="#552b00"
       d="m 170.22,303.27 -0.44,-132.35 a 0.99,0.99 0 0 1 0.99,-0.99 l 29.46,-0.11 q 1.69,0 1.6,1.69 c -0.9,18.41 -0.75,36.6 -0.3,54.76 0.63,25.41 -0.07,50.99 -0.02,76.26 a 1.45,1.45 0 0 1 -1.47,1.45 l -29.58,-0.46 a 0.25,0.25 0 0 1 -0.24,-0.25 z"
       id="path154" /><path
       fill="#552b00"
       d="m 332.24,170.45 v 68.2 l -16.31,0.06 a 0.64,0.63 0 0 0 -0.64,0.63 l 0.02,64.02 -0.41,0.26 -7.93,-0.15 q -0.47,-0.01 -0.47,-0.48 V 170.78 a 0.62,0.62 0 0 1 0.63,-0.62 z"
       id="path155" /><path
       fill="#552b00"
       d="m 161.64,337.5 q 0.07,0.1 0.15,0.19 l 0.23,-30.07 A 0.62,0.62 0 0 0 161.4,307 h -25.26 q -0.09,-0.14 -0.19,-0.29 l -0.18,-101.97 a 1.07,1.05 -18.6 0 1 0.43,-0.85 q 1.16,-0.88 2.56,0.07 a 0.48,0.46 60.6 0 0 0.26,0.08 l 27.52,-0.13 a 1.01,1.01 0 0 1 1.01,1.1 c -0.26,2.99 0.22,6.22 0.1,9.02 q -0.32,7.7 -0.1,15.39 c 0.52,17.86 -0.38,35.76 0.27,53.58 0.12,3.1 -0.54,7.67 -0.54,11.35 q -0.02,21.25 -0.29,42.5 -0.01,0.54 -0.5,0.77 -1.91,0.86 -4.85,-0.12 z"
       id="path156" /><path
       fill="#552b00"
       d="M 303.75,306.88 273,306.95 q -0.01,-0.21 -0.49,-0.26 l -0.25,-101.92 q 0,-0.5 0.5,-0.5 l 29.98,0.15 a 0.67,0.67 0 0 1 0.67,0.67 z"
       id="path157" /><path
       fill="#552b00"
       d="m 236.1,253.24 -0.87,86.17 a 1.53,1.52 -27.4 0 0 2.78,0.88 c 0.81,-1.18 0.2,-3.29 0.2,-4.38 q 0.19,-32.02 -0.23,-63.95 a 0.35,0.34 -89.2 0 1 0.35,-0.35 l 30.05,0.41 q 1.46,0.02 1.44,1.48 l -0.41,33.47 q -0.11,0.03 -0.22,0.06 l -4.21,-0.01 q -0.78,0 -0.78,0.78 l -0.03,33.2 h -59.98 l -0.2,-101.03 q 0,-2 2,-2.01 l 26.02,-0.1 3.89,-0.27 q 0.44,-0.03 0.43,0.41 z"
       id="path158" /><path
       fill="#5c3816"
       d="m 101.7,238.5 q -0.26,0.41 0.82,0.46 c -0.26,0.51 -0.53,0.86 -0.51,1.45 q 0.44,13.99 0.13,28.17 -0.02,0.56 0.55,0.58 l 12.3,0.37 q 0.02,0.03 0.04,0.07 l -0.02,3.18 -11.98,0.05 q -0.55,0.01 -0.55,0.55 L 102.23,341 h -3.52 q 0.18,-35.99 0.27,-71.97 c 0.03,-9.26 0.53,-20.63 -0.49,-30.27 z"
       id="path159" /><path
       fill="#6f4216"
       d="m 332.24,238.65 5.06,0.09 0.26,63.55 q 0.01,1.15 -1.15,1.15 l -21.1,-0.08 -0.02,-64.02 a 0.64,0.63 0 0 1 0.64,-0.63 z"
       id="path160" /><path
       fill="#6f4216"
       d="m 92.73,238.67 5.76,0.09 c 1.02,9.64 0.52,21.01 0.49,30.27 Q 98.89,305.01 98.71,341 H 77 L 76.99,238.42 Z"
       id="path161" /><path
       fill="#6f4216"
       d="m 114.99,269.53 -12.3,-0.37 q -0.57,-0.02 -0.55,-0.58 0.31,-14.18 -0.13,-28.17 c -0.02,-0.59 0.25,-0.94 0.51,-1.45 l 11.79,-0.13 a 0.68,0.67 89.6 0 1 0.68,0.68 z"
       id="path162" /><path
       fill="#5c3816"
       d="m 337.3,238.74 3.46,-0.03 -0.02,102.29 h -3.4 l 0.16,-33.28 a 0.92,0.91 0 0 0 -0.93,-0.92 l -21.81,0.17 q 0.96,-1.05 0.14,-3.35 l 0.41,-0.26 21.1,0.08 q 1.16,0 1.15,-1.15 z"
       id="path163" /><path
       fill="#6f4216"
       d="m 340.76,238.71 8.25,-0.34 V 341 h -8.27 z"
       id="path164" /><path
       fill="#6f4216"
       d="M 115.01,272.78 115,305.83 a 1.19,1.18 0 0 0 1.19,1.18 l 16.29,0.01 0.23,0.18 q 0.28,0.23 0.28,0.59 l 0.1,33.21 h -30.86 l 0.25,-67.62 q 0,-0.54 0.55,-0.55 z"
       id="path165" /><path
       fill="#552b00"
       d="m 133.21,306.73 q -0.33,0.31 -0.73,0.29 l -16.29,-0.01 A 1.19,1.18 0 0 1 115,305.83 l 0.01,-33.05 17.78,-0.2 q 0.59,-0.01 0.59,0.58 z"
       id="path166" /><path
       fill="#552b00"
       d="m 201.03,341 h -30.82 l -0.29,-32.45 a 1.91,1.91 0 0 1 1.9,-1.93 l 28.8,-0.11 a 0.57,0.57 0 0 1 0.58,0.58 z"
       id="path167" /><path
       fill="#5c3816"
       d="m 133.21,306.73 q 1.07,0.57 2.74,-0.02 0.1,0.15 0.19,0.29 l 0.27,30.17 q 0.01,0.61 0.62,0.61 l 24.76,-0.09 q -0.08,-0.09 -0.15,-0.19 l 0.63,3.5 h -29.18 l -0.1,-33.21 q 0,-0.36 -0.28,-0.59 l -0.23,-0.18 q 0.4,0.02 0.73,-0.29 z"
       id="path168" /><path
       fill="#5c3816"
       d="m 272.51,306.69 q 0.48,0.05 0.49,0.26 -0.14,0.02 -0.28,0.04 -0.15,0.02 -0.15,0.17 l -0.07,29.22 q 0,1.37 1.37,1.37 h 28.84 q 0.46,0 0.47,-0.46 l 0.42,-30.31 3.08,-0.12 0.3,34.14 h -38.29 q 0.53,-2.1 0.54,-4.25 0.06,-14.84 -0.04,-29.72 0.11,-0.03 0.22,-0.06 z"
       id="path169" /><path
       fill="#6f4216"
       d="m 303.75,306.88 q -0.08,0.05 -0.15,0.1 l -0.42,30.31 q -0.01,0.46 -0.47,0.46 h -28.84 q -1.37,0 -1.37,-1.37 l 0.07,-29.22 q 0,-0.15 0.15,-0.17 0.14,-0.02 0.28,-0.04 z"
       id="path170" /><path
       fill="#6f4216"
       d="m 314.76,306.97 21.81,-0.17 a 0.92,0.91 0 0 1 0.93,0.92 L 337.34,341 h -30.36 l -0.3,-34.14 z"
       id="path171" /><path
       fill="#6f4216"
       d="m 136.14,307 h 25.26 a 0.62,0.62 0 0 1 0.62,0.62 l -0.23,30.07 -24.76,0.09 q -0.61,0 -0.62,-0.61 z"
       id="path172" /><path
       fill="#6f4216"
       d="m 269.19,307.03 q 0.1,14.88 0.04,29.72 -0.01,2.15 -0.54,4.25 h -4.52 l 0.03,-33.2 q 0,-0.78 0.78,-0.78 z"
       id="path173" /></g><path
     style="fill:#552b00;fill-opacity:1;stroke:#171717;stroke-width:0.185125;stroke-opacity:0"
     d="M 120.67219,108.49327 V 96.861157 h 3.43775 c 1.89077,0 3.70085,0.05152 4.02241,0.114489 l 0.58465,0.114488 v 11.517616 11.51763 h -4.0224 -4.02241 z"
     id="path148" /><path
     style="fill:#552b00;fill-opacity:1;stroke:#171717;stroke-width:0.185125;stroke-opacity:0"
     d="m 42.514488,121.40766 0.04818,-12.18167 2.289307,-0.0514 2.289308,-0.0514 0.0493,6.09644 0.0493,6.09646 3.141355,0.0502 c 2.276211,0.0364 3.161977,0.11208 3.216225,0.27478 0.04118,0.12348 0.107664,2.83944 0.147751,6.03546 l 0.07288,5.81097 -5.675899,0.0508 -5.6759,0.0509 z"
     id="path149" /><path
     style="fill:#552b00;fill-opacity:1;stroke:#171717;stroke-width:0.185125;stroke-opacity:0"
     d="m 37.183872,133.5398 -3.882089,-0.0495 V 115.15461 96.818973 l 3.823521,0.07058 c 2.102934,0.03883 3.89197,0.137579 3.975634,0.219465 0.16922,0.165625 0.226216,28.933812 0.06647,33.549332 l -0.101441,2.93092 z"
     id="path150" /><path
     style="fill:#552b00;fill-opacity:1;stroke:#171717;stroke-width:0.185125;stroke-opacity:0"
     d="m 43.836309,107.89951 -1.345607,-0.063 -0.05756,-5.1671 c -0.03166,-2.841906 -0.0275,-5.270145 0.0092,-5.396081 0.04881,-0.167348 0.69085,-0.228981 2.38538,-0.228981 h 2.318591 v 5.495482 5.49549 l -0.982215,-0.0364 c -0.540219,-0.02 -1.587738,-0.0647 -2.32782,-0.0994 z"
     id="path174" /><path
     style="fill:#552b00;fill-opacity:1;stroke:#171717;stroke-width:0.185125;stroke-opacity:0"
     d="m 55.107305,132.35283 c -0.03966,-0.12594 -0.123148,-2.64012 -0.185526,-5.58707 l -0.113416,-5.3581 h 4.77507 4.775068 v 5.46665 5.46665 l -3.227279,0.11986 c -4.803926,0.17843 -5.940134,0.15806 -6.023917,-0.10799 z"
     id="path175" /><path
     style="fill:#552b00;fill-opacity:1;stroke:#171717;stroke-width:0.185125;stroke-opacity:0"
     d="m 105.1906,132.4605 c -0.17977,-0.071 -0.23386,-1.35985 -0.23386,-5.57262 v -5.48022 h 5.72763 5.72763 l -0.13649,5.44969 c -0.0751,2.99733 -0.17387,5.51152 -0.21955,5.58707 -0.0909,0.15041 -10.48641,0.16579 -10.86536,0.0161 z"
     id="path176" /><path
     style="fill:#552b00;fill-opacity:1;stroke:#171717;stroke-width:0.185125;stroke-opacity:0"
     d="m 101.96332,127.45269 v -6.04503 h 0.82225 0.82225 l 0.0882,0.77852 c 0.14242,1.25663 0.16145,9.12969 0.0248,10.26798 l -0.12526,1.04357 h -0.81614 -0.81614 z"
     id="path177" /><path
     style="fill:#552b00;fill-opacity:1;stroke:#171717;stroke-width:0.185125;stroke-opacity:0"
     d="m 117.49168,127.50398 v -6.08534 l 5.3788,-0.0512 c 2.95834,-0.0282 5.48404,-0.0219 5.61266,0.0141 0.18104,0.0506 0.23386,1.43664 0.23386,6.13663 v 6.07123 h -5.61266 -5.61266 z"
     id="path178" /><path
     style="fill:#552b00;fill-opacity:1;stroke:#171717;stroke-width:0.185125;stroke-opacity:0"
     d="m 129.8854,115.22523 0.0477,-18.272482 1.44994,-0.0535 1.44993,-0.0535 v 18.325982 18.326 h -1.49761 -1.49761 z"
     id="path179" /><path
     style="fill:#552b00;fill-opacity:1;stroke:#171717;stroke-width:0.185125;stroke-opacity:0"
     d="m 119.22225,47.830017 c -0.18379,-0.07262 -0.23386,-2.697693 -0.23386,-12.261882 V 23.398648 l 4.81753,0.04888 4.81754,0.04889 0.0545,11.448926 c 0.03,6.296911 0.004,11.799266 -0.0582,12.227456 l -0.11277,0.778528 -4.52544,-0.01446 c -2.48899,-0.0079 -4.63067,-0.05604 -4.7593,-0.106857 z"
     id="path180" /><path
     style="fill:#552b00;fill-opacity:1;stroke:#171717;stroke-width:0.185125;stroke-opacity:0"
     d="m 129.96426,46.546932 c -0.0686,-0.06717 -0.12472,-8.021881 -0.12472,-17.677143 V 11.314765 h 1.4967 1.49671 V 28.99191 46.669055 h -1.37198 c -0.75459,0 -1.42811,-0.05496 -1.49671,-0.122123 z"
     id="path181" /><path
     style="fill:#552b00;fill-opacity:1;stroke:#171717;stroke-width:0.185125;stroke-opacity:0"
     d="m 117.49168,16.812977 v -5.498212 h 5.61545 5.61544 l -0.0496,5.44969 -0.0496,5.44969 -5.56589,0.04852 -5.56589,0.04852 z"
     id="path182" /><path
     style="fill:#552b00;fill-opacity:1;stroke:#171717;stroke-width:0.185125;stroke-opacity:0"
     d="m 106.50022,23.268548 -1.54348,-0.06172 V 17.2608 11.314765 h 5.4973 5.49729 l 0.11281,0.412162 c 0.062,0.226689 0.11396,2.946954 0.11537,6.045034 l 0.003,5.632873 -4.06917,-0.03729 c -2.23805,-0.0205 -4.76375,-0.06505 -5.61266,-0.09899 z"
     id="path183" /><path
     style="fill:#552b00;fill-opacity:1;stroke:#171717;stroke-width:0.185125;stroke-opacity:0"
     d="m 101.90096,23.282712 c -0.0686,-0.06717 -0.12472,-2.787432 -0.12472,-6.045034 v -5.922913 h 0.93544 0.93544 v 6.045035 6.045034 h -0.81072 c -0.44589,0 -0.86684,-0.05496 -0.93544,-0.122122 z"
     id="path184" /><path
     style="fill:#552b00;fill-opacity:1;stroke:#171717;stroke-width:0.185125;stroke-opacity:0"
     d="m 54.880213,19.145832 c 0.06765,-2.34245 0.123187,-5.062716 0.123425,-6.045033 l 5.3e-4,-1.786034 h 4.583673 4.583673 v 6.045035 6.045034 h -4.707098 -4.707097 z"
     id="path185" /><path
     style="fill:#552b00;fill-opacity:1;stroke:#171717;stroke-width:0.185125;stroke-opacity:0"
     d="m 42.345832,43.891775 c 0.06781,-2.132007 0.123296,-10.334017 0.123296,-18.226692 V 11.314765 h 5.600316 5.600316 l 0.05991,5.632873 c 0.03295,3.09808 -0.0026,5.821134 -0.07897,6.051231 l -0.138885,0.418358 -3.832847,-0.01985 c -2.108068,-0.01092 -3.919151,0.03237 -4.024633,0.0962 -0.127846,0.07736 -0.19178,4.143006 -0.19178,12.195308 V 47.76815 H 43.84254 42.222536 Z"
     id="path186" /><path
     style="fill:#552b00;fill-opacity:1;stroke:#171717;stroke-width:0.185125;stroke-opacity:0"
     d="M 33.30122,33.846255 C 33.301109,26.743341 33.24558,18.768018 33.177829,16.123316 l -0.123185,-4.808551 h 4.05243 4.052432 v 17.670073 17.670074 l -3.929041,0.05287 -3.929044,0.05287 z"
     id="path187" /><path
     style="fill:#331a01;fill-opacity:1;stroke:#171717;stroke-width:0.130903;stroke-opacity:0"
     d="m 41.228332,121.56737 c 0.02889,-6.64327 0.06761,-13.90017 0.08603,-16.12647 0.01842,-2.22629 0.0021,-4.04814 -0.036,-4.04854 -0.143825,-0.002 -0.09332,-4.337491 0.05165,-4.433674 0.166042,-0.110171 0.768355,-0.129552 1.025575,-0.033 0.143663,0.05393 0.169315,1.067403 0.138975,5.490934 l -0.03721,5.42479 2.319239,0.0946 2.31924,0.0946 v 0.56712 0.56715 h -2.248959 -2.248958 l -5.29e-4,0.68003 c -2.65e-4,0.37402 -0.03979,5.85177 -0.08779,12.1728 l -0.08727,11.49277 2.435966,0.0385 2.435965,0.0385 -3.059234,0.0292 -3.059234,0.0292 z"
     id="path188" /><path
     style="fill:#331a01;fill-opacity:1;stroke:#171717;stroke-width:0.130903;stroke-opacity:0"
     d="m 33.278847,47.411539 c 0.01707,-0.267155 0.03726,-0.529453 0.04485,-0.582884 0.0076,-0.05343 1.67581,-0.09714 3.707151,-0.09714 2.031339,0 3.787511,-0.03538 3.902605,-0.07862 0.189399,-0.07116 0.209256,-1.755116 0.209256,-17.745587 V 11.240333 h 0.735412 c 0.404476,0 0.703942,0.04985 0.66548,0.110788 -0.03846,0.06093 -0.08216,6.662098 -0.09711,14.669254 -0.01495,8.007158 -0.07196,16.160579 -0.12669,18.118714 -0.07493,2.680737 -0.06104,3.58421 0.05623,3.657237 0.08566,0.05334 -1.933152,0.09788 -4.486244,0.09896 l -4.641984,0.0021 z"
     id="path189" /><path
     style="fill:#331a01;fill-opacity:1;stroke:#171717;stroke-width:0.130903;stroke-opacity:0"
     d="m 33.3375,47.398692 v -0.498581 l 1.289843,-0.08364 c 0.709414,-0.046 2.427529,-0.08393 3.81803,-0.0843 l 2.528189,-7.78e-4 0.08342,-0.680031 c 0.04588,-0.374017 0.08394,-8.362727 0.08457,-17.752683 l 0.0012,-17.072549 0.628385,0.03948 0.628386,0.03948 v 8.095614 c 0,4.452589 -0.02869,12.648377 -0.06376,18.212858 l -0.06377,10.117244 -1.656027,0.0827 c -0.910814,0.04548 -2.921066,0.08294 -4.467225,0.08323 l -2.811197,5.26e-4 z"
     id="path190" /><path
     style="fill:#331a01;fill-opacity:1;stroke:#171717;stroke-width:0.130903;stroke-opacity:0"
     d="m 53.641677,23.05993 c 0.05073,-0.195913 0.08429,-2.935469 0.07457,-6.087903 l -0.01766,-5.731694 h 0.688248 0.68825 l -0.08854,3.659218 c -0.0487,2.012569 -0.1269,4.752125 -0.173781,6.087902 l -0.08524,2.428684 h -0.589042 c -0.576758,0 -0.587119,-0.0074 -0.496805,-0.356207 z"
     id="path191" /><path
     style="fill:#331a01;fill-opacity:1;stroke:#171717;stroke-width:0.130903;stroke-opacity:0"
     d="m 103.64365,23.430996 c -0.0326,-0.03192 -0.0593,-2.787877 -0.0593,-6.124349 v -6.066314 l 0.69453,-3.6e-5 0.69454,-3.7e-5 -0.0357,5.916772 c -0.0278,4.604371 8e-4,5.938827 0.12859,6.016206 0.12536,0.07587 0.11815,0.114492 -0.0304,0.162955 -0.28255,0.09217 -1.32259,0.162989 -1.39223,0.0948 z"
     id="path192" /><path
     style="fill:#331a01;fill-opacity:1;stroke:#171717;stroke-width:0.130903;stroke-opacity:0"
     d="m 128.61218,46.699125 c 0.0525,-0.658984 0.0938,-6.112414 0.0918,-12.118738 -0.003,-10.09522 -0.0203,-10.927352 -0.2254,-11.010038 -0.12201,-0.0492 -2.94535,-0.08944 -6.2741,-0.08944 h -6.05226 l -8e-5,-5.519322 c -4e-5,-3.035627 -0.0379,-5.789754 -0.0842,-6.120284 l -0.0841,-0.600963 0.77866,-2.1e-5 0.77865,-2.1e-5 v 5.51606 5.516061 l 5.4845,-0.01632 c 3.01647,-0.009 5.4938,-0.02851 5.50518,-0.0434 0.0604,-0.07906 0.1866,-5.475643 0.1877,-8.02555 l 0.001,-2.946804 0.69453,0.01023 c 0.38199,0.0056 0.61857,0.04013 0.52572,0.07668 -0.13564,0.0534 -0.16177,2.615385 -0.133,13.039904 0.0197,7.135398 0.0659,15.042689 0.10266,17.57176 l 0.0669,4.598308 1.42213,0.11629 c 1.31844,0.10781 1.42227,0.136144 1.42394,0.38859 0.001,0.149764 0.0377,0.403449 0.0816,0.563742 l 0.0798,0.291442 h -2.2336 -2.23359 z"
     id="path193" /><path
     style="fill:#331a01;fill-opacity:1;stroke:#171717;stroke-width:0.130903;stroke-opacity:0"
     d="m 103.63936,133.22505 c 0.14506,-0.71835 0.23272,-8.23194 0.11653,-9.9884 l -0.11022,-1.66613 0.30869,-0.11491 c 0.16978,-0.0632 0.46853,-0.11491 0.66389,-0.11491 l 0.35519,1e-5 -0.0276,5.42881 c -0.0247,4.85807 -0.005,5.44703 0.18579,5.60215 0.17036,0.13838 1.27561,0.17336 5.47807,0.17336 3.34036,0 5.30917,-0.0474 5.38646,-0.12954 0.067,-0.0712 0.194,-2.54849 0.28223,-5.50502 0.0882,-2.95651 0.17033,-5.38346 0.18244,-5.39322 0.0121,-0.01 0.34943,-0.0504 0.74962,-0.0904 0.40018,-0.0399 0.62342,-0.0422 0.49609,-0.005 -0.21617,0.063 -0.23151,0.46589 -0.23151,6.08111 v 6.01365 h 5.6237 5.62371 l -0.0344,-6.05553 -0.0344,-6.05551 -4.03489,-0.0344 -4.0349,-0.0344 -0.0189,-0.61331 -0.0189,-0.61331 4.08825,0.0377 4.08825,0.0377 -0.0345,-11.58434 -0.0345,-11.584335 1.03718,-0.08857 c 0.57045,-0.04872 1.0715,-0.05497 1.11346,-0.01388 0.0419,0.04108 -0.14201,0.07469 -0.4088,0.07469 h -0.48508 l -0.0228,14.410195 c -0.0125,7.92561 -0.0274,16.17334 -0.0331,18.32829 l -0.0103,3.91809 -13.14496,1.9e-4 -13.14497,1.8e-4 z"
     id="path194" /><path
     style="fill:#331a01;fill-opacity:1;stroke:#171717;stroke-width:0.130903;stroke-opacity:0"
     d="m 53.706188,128.75628 c -0.0214,-2.61813 -0.04408,-5.32921 -0.05041,-6.02465 -0.0087,-0.95427 -0.05203,-1.24919 -0.17672,-1.20227 -0.09087,0.0342 -0.299231,0.0126 -0.463021,-0.048 -0.170214,-0.0629 2.139392,-0.10449 5.390737,-0.097 l 5.688542,0.0131 -4.671134,0.038 -4.671137,0.0381 0.07288,0.54886 c 0.04008,0.30187 0.112525,2.58894 0.160978,5.0824 0.04845,2.49344 0.0936,4.71633 0.100335,4.93974 0.01185,0.39324 0.03459,0.40845 0.712962,0.477 0.385398,0.0389 2.111804,0.0169 3.836459,-0.049 3.535436,-0.13514 4.656095,-0.0747 4.658899,0.25121 0.0011,0.11548 0.0377,0.3411 0.08157,0.50139 l 0.07977,0.29145 h -5.355902 -5.355902 z"
     id="path195" /><path
     style="fill:#331a01;fill-opacity:1;stroke:#171717;stroke-width:0.0231407;stroke-opacity:0"
     d="m 91.73829,103.38132 c -0.02577,-0.0287 -0.05424,-0.20202 -0.100597,-0.61252 l -0.06465,-0.57244 0.04207,-2.812141 c 0.03844,-2.569926 0.03886,-2.815271 0.0049,-2.848529 -0.04552,-0.04456 -0.110154,-0.04342 -0.975545,0.01733 -0.615085,0.04319 -0.812337,0.04452 -4.525209,0.03076 -2.824599,-0.01046 -3.897958,-0.0215 -3.940341,-0.04046 -0.03204,-0.01433 -0.07261,-0.05538 -0.09015,-0.09122 -0.02784,-0.05688 -0.02663,-0.07659 0.0096,-0.155156 0.05127,-0.111321 0.191865,-0.238258 0.334761,-0.302238 0.106895,-0.04786 0.134573,-0.04859 2.481787,-0.06615 2.024057,-0.01513 2.662462,-0.01132 4.334213,0.02594 1.09565,0.02441 1.99058,0.03525 2.028651,0.02456 0.110217,-0.03095 0.201218,-0.107427 0.253391,-0.21295 0.04811,-0.09731 0.04878,-0.122089 0.04879,-1.803047 2e-6,-0.937413 0.007,-3.628665 0.01556,-5.980558 l 0.01556,-4.276176 h 0.276756 0.276757 l -1.37e-4,9.416743 c -1.51e-4,10.236972 0.0072,9.650302 -0.126143,10.025812 -0.07744,0.21801 -0.117028,0.2725 -0.198041,0.2725 -0.03629,0 -0.08217,-0.018 -0.101944,-0.04 z"
     id="path196" /><path
     style="fill:#331a01;fill-opacity:1;stroke:#171717;stroke-width:0.0925626;stroke-opacity:0"
     d="m 95.298291,59.743779 c 1.607793,-0.01407 4.238725,-0.01407 5.846519,0 1.60779,0.01407 0.29233,0.02555 -2.92326,0.02555 -3.215587,0 -4.531053,-0.0115 -2.923259,-0.02555 z"
     id="path197" /><path
     style="fill:#331a01;fill-opacity:1;stroke:#171717;stroke-width:0.0925626;stroke-opacity:0"
     d="m 91.678727,65.513992 c 0.0054,-18.574711 0.0088,-18.760907 0.340712,-18.867021 0.08622,-0.02757 0.118644,1.409807 0.140316,6.221336 0.0155,3.441453 0.06224,6.308702 0.103865,6.371672 0.119227,0.180372 11.37017,0.165393 11.62287,-0.01547 0.1749,-0.12518 0.1833,-0.314469 0.22835,-5.144414 0.0301,-3.222016 0.0802,-5.024823 0.14032,-5.043464 0.0515,-0.01595 0.15669,0.01003 0.23386,0.05774 0.1234,0.07629 0.14326,1.582022 0.1647,12.490556 0.0254,12.910164 0.02,13.111106 -0.3522,13.111106 -0.12265,0 -0.14567,-0.920558 -0.18668,-7.464703 l -0.0468,-7.464701 -5.836077,-0.0236 c -4.232891,-0.01712 -5.871067,0.0049 -5.963451,0.07991 -0.106273,0.08636 -0.127374,2.074179 -0.127374,11.999172 v 11.895673 h -0.233859 -0.233863 z"
     id="path198" /><path
     style="fill:#331a01;fill-opacity:1;stroke:#171717;stroke-width:0.0925626;stroke-opacity:0"
     d="m 66.665929,71.383476 c -0.0343,-0.03358 -0.06236,-5.041346 -0.06236,-11.12836 0,-8.79211 0.02405,-11.067555 0.116933,-11.068547 0.06431,-7.76e-4 0.20112,-0.02342 0.304017,-0.05048 0.18637,-0.04904 0.187058,-0.0065 0.178871,11.046333 -0.007,9.449931 -0.02781,11.107706 -0.140316,11.177437 -0.158097,0.09799 -0.311846,0.107131 -0.39714,0.02362 z"
     id="path199" /><rect
     style="fill:#552b00;fill-opacity:1;stroke:#171717;stroke-width:0.268903;stroke-opacity:0"
     id="rect199"
     width="11.501634"
     height="14.588595"
     x="104.86536"
     y="114.78105"
     rx="0.54549021"
     ry="0.37196016" /><rect
     style="fill:#552b00;fill-opacity:1;stroke:#171717;stroke-width:0.325358;stroke-opacity:0"
     id="rect199-3"
     width="9.0130262"
     height="27.254171"
     x="117.64365"
     y="92.821831"
     rx="0.42746255"
     ry="0.69488972" /><rect
     style="fill:#552b00;fill-opacity:1;stroke:#171717;stroke-width:0.144432;stroke-opacity:0"
     id="rect199-3-8"
     width="9.1939526"
     height="5.26509"
     x="119.57309"
     y="96.91066"
     rx="0.43604335"
     ry="0.13424209" /><rect
     style="fill:#552b00;fill-opacity:1;stroke:#171717;stroke-width:0.223896;stroke-opacity:0"
     id="rect199-3-8-9"
     width="9.1144886"
     height="12.762716"
     x="94.601631"
     y="120.80051"
     rx="0.43227458"
     ry="0.32540637" /><rect
     style="fill:#552b00;fill-opacity:1;stroke:#171717;stroke-width:0.279946;stroke-opacity:0"
     id="rect200"
     width="11.209956"
     height="37.589462"
     x="42.383266"
     y="20.774523"
     rx="0.59128189"
     ry="0.37191832" /><rect
     style="fill:#552b00;fill-opacity:1;stroke:#171717;stroke-width:0.210858;stroke-opacity:0"
     id="rect200-3"
     width="11.279044"
     height="21.194748"
     x="54.815956"
     y="11.270639"
     rx="0.59492606"
     ry="0.20970544" /><rect
     style="fill:#552b00;fill-opacity:1;stroke:#171717;stroke-width:0.210858;stroke-opacity:0"
     id="rect200-3-5"
     width="11.279044"
     height="21.194748"
     x="105.12078"
     y="11.712714"
     rx="0.59492606"
     ry="0.20970544" /><rect
     style="fill:#552b00;fill-opacity:1;stroke:#171717;stroke-width:0.226484;stroke-opacity:0"
     id="rect200-3-5-2"
     width="11.263418"
     height="24.486414"
     x="117.45596"
     y="23.595015"
     rx="0.59410185"
     ry="0.2422739" /></svg>
