<?xml version="1.0" encoding="UTF-8" standalone="no"?>
<svg
   height="230mm"
   viewBox="0 0 162 229.99993"
   width="162mm"
   version="1.1"
   id="svg1"
   xml:space="preserve"
   sodipodi:docname="perch_ceiling.svg"
   inkscape:version="1.3 (0e150ed6c4, 2023-07-21)"
   inkscape:export-filename="perch_ceiling.png"
   inkscape:export-xdpi="96"
   inkscape:export-ydpi="96"
   xmlns:inkscape="http://www.inkscape.org/namespaces/inkscape"
   xmlns:sodipodi="http://sodipodi.sourceforge.net/DTD/sodipodi-0.dtd"
   xmlns="http://www.w3.org/2000/svg"
   xmlns:svg="http://www.w3.org/2000/svg"><sodipodi:namedview
     id="namedview9"
     pagecolor="#505050"
     bordercolor="#ffffff"
     borderopacity="1"
     inkscape:pageshadow="0"
     inkscape:pageopacity="0"
     inkscape:pagecheckerboard="1"
     inkscape:document-units="mm"
     showgrid="false"
     inkscape:zoom="0.074244312"
     inkscape:cx="-5340.4765"
     inkscape:cy="-2269.5341"
     inkscape:window-width="1920"
     inkscape:window-height="1017"
     inkscape:window-x="-8"
     inkscape:window-y="-8"
     inkscape:window-maximized="1"
     inkscape:current-layer="svg1"
     inkscape:showpageshadow="2"
     inkscape:deskcolor="#d1d1d1" /><defs
     id="defs1" /><g
     id="g2"
     transform="matrix(0.00191014,0.41318207,-0.41318207,0.00191014,154.70958,31.834182)"><g
       stroke-width="2"
       fill="none"
       stroke-linecap="butt"
       id="g212"><path
         stroke="#0a0a0a"
         vector-effect="non-scaling-stroke"
         d="m 176.2,9.79 q 7.27,1.13 14.1,0.6 a 1.44,1.44 0 0 1 1.55,1.47 l -0.37,13.66"
         id="path1-7" /><path
         stroke="#0d1407"
         vector-effect="non-scaling-stroke"
         d="m 191.48,25.52 -1.99,0.03"
         id="path2" /><path
         stroke="#141e0a"
         vector-effect="non-scaling-stroke"
         d="m 189.49,25.55 -28.12,-0.12 q -0.61,0 -1.11,-0.36 l -12.78,-9.04 a 1.56,1.55 -27.4 0 0 -0.89,-0.28 h -5.6 a 0.97,0.94 20.9 0 0 -0.7,0.3 l -19.35,20.59 a 1.39,1.38 20.8 0 1 -0.99,0.44 l -12.46,0.21"
         id="path3" /><path
         stroke="#0d1407"
         vector-effect="non-scaling-stroke"
         d="m 107.49,37.29 c -3.43,-0.53 -4.49,1.57 -6.63,3.7 Q 95.23,46.6 89.47,52.27 a 1.25,1.24 -70 0 1 -0.77,0.36 l -7.17,0.72"
         id="path4" /><path
         stroke="#141e0a"
         vector-effect="non-scaling-stroke"
         d="M 81.53,53.35 73.1,53.24 a 1.18,1.18 0 0 0 -0.9,0.39 l -7.13,7.72 Q 64.75,61.7 64.28,61.7 L 59.7,61.67"
         id="path5" /><path
         stroke="#0a0a0a"
         vector-effect="non-scaling-stroke"
         d="m 59.7,61.67 -6.19,0.2"
         id="path6" /><path
         stroke="#0a0a0a"
         vector-effect="non-scaling-stroke"
         d="m 53.44,47.73 q 1.73,0.29 3.28,-1.26 1.92,-1.9 2.99,-3.09"
         id="path7" /><path
         stroke="#141e0a"
         vector-effect="non-scaling-stroke"
         d="m 59.71,43.38 7.85,-8 Q 67.93,35 68.47,35 h 13.38 a 2.2,2.17 21.7 0 0 1.57,-0.66 L 94.14,23.26 a 2.35,2.34 21.7 0 1 1.66,-0.71 l 14.65,-0.15 q 0.61,-0.01 1.05,-0.45 l 6.03,-6.08"
         id="path8" /><path
         stroke="#0a0a0a"
         vector-effect="non-scaling-stroke"
         d="m 117.53,15.87 q 1.56,-0.95 3.67,-3.17 1.62,-1.7 0.86,-2.94"
         id="path9" /><path
         stroke="#131907"
         vector-effect="non-scaling-stroke"
         d="m 119.19,32.73 19.11,-20.4 a 2.64,2.63 21.6 0 1 1.92,-0.83 h 7.18 a 1.84,1.81 -27.1 0 1 1.05,0.33 l 12.56,8.79 a 4.89,4.85 62.3 0 0 2.79,0.88 h 23.06 q 0.8,0 0.81,-0.79 l 0.1,-5.03 A 0.66,0.66 0 0 0 187.11,15 h -19.83 q -0.4,0 -0.73,-0.23 L 151.28,4.18 A 1.02,0.98 61.5 0 0 150.71,4 h -13.22 a 2.75,2.7 -66.2 0 0 -1.86,0.74 q -11.08,10.39 -22.47,20.92 -1.04,0.96 -3.16,0.85 -3.43,-0.17 -13.03,0.01 -0.5,0.01 -0.85,0.37 -5.15,5.34 -10.17,10.81 -1.33,1.46 -2.45,1.39 -6.92,-0.39 -13.91,0.14 a 0.99,0.94 18.7 0 0 -0.62,0.29 L 57.94,51.26 q -0.74,0.79 -1.81,0.57 c -4.46,-0.92 -6.88,2.01 -8.93,5.38 q -0.33,0.54 0.3,0.54 h 15.01 a 1.18,1.16 -68.8 0 0 0.87,-0.39 l 6.79,-7.5 A 2.6,2.58 20.8 0 1 72.1,49 h 14.3 q 0.61,0 1.03,-0.43 l 15.08,-15.24 a 1.21,1.19 22.2 0 1 0.85,-0.35 l 15.04,0.09 q 0.47,0.01 0.79,-0.34"
         id="path10" /><path
         stroke="#1e2814"
         vector-effect="non-scaling-stroke"
         d="M 117.53,15.87 60.39,15.79 q -0.53,0 -0.54,0.53 l -0.14,27.06"
         id="path11" /><path
         stroke="#0a0a0a"
         vector-effect="non-scaling-stroke"
         d="m 342.74,77.7 -5.91,-5.29"
         id="path12" /><path
         stroke="#233017"
         vector-effect="non-scaling-stroke"
         d="m 336.83,72.41 0.11,-55.48 a 1.17,1.16 90 0 0 -1.16,-1.17 l -59.45,0.03"
         id="path13" /><path
         stroke="#171e11"
         vector-effect="non-scaling-stroke"
         d="m 276.33,15.79 -7.75,-0.33 q -0.33,-0.01 -0.33,0.32 v 0.45 q 0,0.3 -0.29,0.26 -0.38,-0.04 -0.79,0.11"
         id="path14" /><path
         stroke="#233017"
         vector-effect="non-scaling-stroke"
         d="m 267.17,16.6 q -0.55,-0.84 -1.49,-0.84 -30.09,-0.03 -60.23,0 -0.58,0 -0.57,0.58 l 0.1,8.4"
         id="path15" /><path
         stroke="#171e11"
         vector-effect="non-scaling-stroke"
         d="m 204.98,24.74 -0.18,9.82"
         id="path16" /><path
         stroke="#233017"
         vector-effect="non-scaling-stroke"
         d="m 204.8,34.56 0.06,26.5"
         id="path17" /><path
         stroke="#0a0a0a"
         vector-effect="non-scaling-stroke"
         d="M 204.86,61.06 205,81.98"
         id="path18" /><path
         stroke="#233017"
         vector-effect="non-scaling-stroke"
         d="m 205,81.98 -0.27,22.39 a 1.07,1.05 20.7 0 0 0.39,0.84 l 3.2,2.6"
         id="path19" /><path
         stroke="#0a0a0a"
         vector-effect="non-scaling-stroke"
         d="m 208.32,107.81 -3.9,3.68 q -0.36,0.35 -0.36,0.86 l 0.12,20.93"
         id="path20" /><path
         stroke="#233017"
         vector-effect="non-scaling-stroke"
         d="m 204.18,133.28 q 1.17,4.81 0.33,10.94"
         id="path21" /><path
         stroke="#0a0a0a"
         vector-effect="non-scaling-stroke"
         d="m 204.51,144.22 q -0.57,6.67 0.01,14.03 0.03,0.36 0.49,0.53"
         id="path22" /><path
         stroke="#233017"
         vector-effect="non-scaling-stroke"
         d="m 205.01,158.78 q -0.49,0.75 -0.39,1.31 c 0.73,4.06 0.15,9.95 -0.05,13.9"
         id="path23" /><path
         stroke="#0a0a0a"
         vector-effect="non-scaling-stroke"
         d="m 204.57,173.99 q -0.12,10.43 -0.09,20.35 c 0,0.65 0.29,0.99 0.7,1.41"
         id="path24" /><path
         stroke="#233017"
         vector-effect="non-scaling-stroke"
         d="m 205.18,195.75 -0.2,0.29 q -0.23,0.33 -0.23,0.73 v 68.48 a 0.48,0.45 23.7 0 0 0.14,0.33 q 0.25,0.25 0.22,0.07"
         id="path25" /><path
         stroke="#171e11"
         vector-effect="non-scaling-stroke"
         d="m 205.11,265.65 q -0.71,0.95 -0.58,1.84 c 0.24,1.75 -0.41,9.57 -0.15,10.1 q 0.23,0.46 0.62,0.46"
         id="path26" /><path
         stroke="#0a0a0a"
         vector-effect="non-scaling-stroke"
         d="m 205,278.05 c -1.82,2.73 -0.67,18 -0.5,21.96"
         id="path27" /><path
         stroke="#233017"
         vector-effect="non-scaling-stroke"
         d="m 204.5,300.01 0.23,14.67"
         id="path28" /><path
         stroke="#0a0a0a"
         vector-effect="non-scaling-stroke"
         d="m 204.73,314.68 q -0.89,7.29 -0.14,14.56"
         id="path29" /><path
         stroke="#233017"
         vector-effect="non-scaling-stroke"
         d="m 204.59,329.24 0.13,14.93 a 0.58,0.58 0 0 0 0.58,0.57 l 64.49,-0.01"
         id="path30" /><path
         stroke="#0a0a0a"
         vector-effect="non-scaling-stroke"
         d="m 269.79,344.73 q 4.37,2.78 4.59,6.01"
         id="path31" /><path
         stroke="#0a0a0a"
         vector-effect="non-scaling-stroke"
         d="M 53.57,321.31 Q 58.34,320.26 64,320.95"
         id="path32" /><path
         stroke="#1e2814"
         vector-effect="non-scaling-stroke"
         d="m 64,320.95 q -1.08,2.59 -3.14,3.95 a 2.53,2.52 -16.9 0 0 -1.13,2.1 l -0.02,17.02 a 0.72,0.71 0 0 0 0.72,0.71 l 51.29,-0.08"
         id="path33" /><path
         stroke="#171e11"
         vector-effect="non-scaling-stroke"
         d="m 111.72,344.65 10.01,0.06"
         id="path34" /><path
         stroke="#1e2814"
         vector-effect="non-scaling-stroke"
         d="m 121.73,344.71 69.67,0.03 a 0.43,0.43 0 0 0 0.43,-0.43 l -0.16,-17.29"
         id="path35" /><path
         stroke="#0a0a0a"
         vector-effect="non-scaling-stroke"
         d="m 191.67,327.02 0.07,-21.27"
         id="path36" /><path
         stroke="#1e2814"
         vector-effect="non-scaling-stroke"
         d="m 191.74,305.75 0.05,-31.03"
         id="path37" /><path
         stroke="#171e11"
         vector-effect="non-scaling-stroke"
         d="m 191.79,274.72 -0.06,-9.98"
         id="path38" /><path
         stroke="#1e2814"
         vector-effect="non-scaling-stroke"
         d="m 191.73,264.74 q 0.71,-24.69 -0.04,-50.44"
         id="path39" /><path
         stroke="#0a0a0a"
         vector-effect="non-scaling-stroke"
         d="m 191.69,214.3 -0.12,-21.14"
         id="path40" /><path
         stroke="#171e11"
         vector-effect="non-scaling-stroke"
         d="m 191.57,193.16 q 1,-3.99 -0.16,-8.66"
         id="path41" /><path
         stroke="#1e2814"
         vector-effect="non-scaling-stroke"
         d="m 191.41,184.5 q 0.47,-0.83 0.26,-2.16"
         id="path42" /><path
         stroke="#0a0a0a"
         vector-effect="non-scaling-stroke"
         d="M 191.67,182.34 191.4,168.03"
         id="path43" /><path
         stroke="#1e2814"
         vector-effect="non-scaling-stroke"
         d="m 191.4,168.03 q 1.52,-8.34 -0.06,-15.43"
         id="path44" /><path
         stroke="#0a0a0a"
         vector-effect="non-scaling-stroke"
         d="m 191.34,152.6 0.19,-21.08"
         id="path45" /><path
         stroke="#1e2814"
         vector-effect="non-scaling-stroke"
         d="m 191.53,131.52 q 0.88,-8.46 0.3,-17.52"
         id="path46" /><path
         stroke="#171e11"
         vector-effect="non-scaling-stroke"
         d="m 191.83,114 -0.09,-10.02"
         id="path47" /><path
         stroke="#1e2814"
         vector-effect="non-scaling-stroke"
         d="M 191.74,103.98 191.73,51.99"
         id="path48" /><path
         stroke="#0a0a0a"
         vector-effect="non-scaling-stroke"
         d="m 191.73,51.99 -0.1,-21.28"
         id="path49" /><path
         stroke="#171e11"
         vector-effect="non-scaling-stroke"
         d="m 191.63,30.71 q 0.91,-2.1 -0.15,-5.19"
         id="path50" /><path
         stroke="#263913"
         vector-effect="non-scaling-stroke"
         d="m 276.33,15.79 19.32,19.49"
         id="path51" /><path
         stroke="#0d1407"
         vector-effect="non-scaling-stroke"
         d="m 295.65,35.28 q -5,0.94 -9.71,0.29"
         id="path52" /><path
         stroke="#263913"
         vector-effect="non-scaling-stroke"
         d="M 285.94,35.57 267.17,16.6"
         id="path53" /><path
         stroke="#213211"
         vector-effect="non-scaling-stroke"
         d="M 189.49,25.55 161.11,54.22"
         id="path54" /><path
         stroke="#141e0a"
         vector-effect="non-scaling-stroke"
         d="m 161.11,54.22 -11.58,0.17 a 1.22,1.18 20.8 0 0 -0.84,0.36 q -4.9,5.06 -9.78,10.18 c -2.37,2.49 -4.57,2.53 -7.71,1.92 a 0.97,0.94 73.8 0 1 -0.54,-0.31 l -3.67,-4.17 A 1.07,1.05 69.1 0 0 126.19,62 h -15.04 q -0.49,0 -0.84,-0.35 l -4.5,-4.4 a 0.99,0.99 0 0 0 -0.7,-0.29 L 88.06,56.94"
         id="path55" /><path
         stroke="#213211"
         vector-effect="non-scaling-stroke"
         d="M 88.06,56.94 107.49,37.29"
         id="path56" /><path
         stroke="#19260d"
         vector-effect="non-scaling-stroke"
         d="m 285.94,35.57 -6.06,-0.01 a 1.09,1.06 67.4 0 1 -0.77,-0.33 l -7.14,-7.14 a 1.21,1.18 66.6 0 0 -0.83,-0.34 h -15.83 a 3.41,3.4 22.2 0 0 -2.43,1.02 l -14.26,14.55 a 1.12,1.1 -66.9 0 1 -0.82,0.34 l -14.24,-0.25"
         id="path57" /><path
         stroke="#263913"
         vector-effect="non-scaling-stroke"
         d="M 223.56,43.41 204.98,24.74"
         id="path58" /><path
         stroke="#19260d"
         vector-effect="non-scaling-stroke"
         d="M 336.83,72.41 326.49,62.15 q -0.37,-0.36 -0.89,-0.39 l -3.71,-0.22"
         id="path59" /><path
         stroke="#263913"
         vector-effect="non-scaling-stroke"
         d="m 321.89,61.54 -6.36,-6.21"
         id="path60" /><path
         stroke="#19260d"
         vector-effect="non-scaling-stroke"
         d="M 315.53,55.33 295.65,35.28"
         id="path61" /><path
         stroke="#0d1407"
         vector-effect="non-scaling-stroke"
         d="m 223.56,43.41 q -3.05,1.05 -5.55,4.44"
         id="path62" /><path
         stroke="#263913"
         vector-effect="non-scaling-stroke"
         d="M 218.01,47.85 204.8,34.56"
         id="path63" /><path
         stroke="#0d1407"
         vector-effect="non-scaling-stroke"
         d="m 191.63,30.71 q -20.8,18.72 -26.69,23.48 -1.08,0.86 -3.83,0.03"
         id="path64" /><path
         stroke="#0d1407"
         vector-effect="non-scaling-stroke"
         d="m 315.53,55.33 -8.93,0.41"
         id="path65" /><path
         stroke="#19260d"
         vector-effect="non-scaling-stroke"
         d="m 306.6,55.74 -14.79,0.03 q -0.57,0 -0.98,-0.39 l -4.57,-4.34 a 1.04,1.03 -22.8 0 0 -0.72,-0.29 h -15.05 a 1.18,1.16 68.8 0 1 -0.87,-0.39 l -3.61,-4.14 q -0.4,-0.47 -1.02,-0.47 h -4.76 a 0.99,0.96 -67.5 0 0 -0.7,0.3 l -11.48,11.92 q -0.36,0.38 -0.89,0.39 l -8.15,0.14"
         id="path66" /><path
         stroke="#0d1407"
         vector-effect="non-scaling-stroke"
         d="m 239.01,58.5 q -5.97,-1.12 -8.95,1.16"
         id="path67" /><path
         stroke="#19260d"
         vector-effect="non-scaling-stroke"
         d="M 230.06,59.66 205,81.98"
         id="path68" /><path
         stroke="#19260d"
         vector-effect="non-scaling-stroke"
         d="M 204.86,61.06 218.01,47.85"
         id="path69" /><path
         stroke="#131907"
         vector-effect="non-scaling-stroke"
         d="m 304.86,50.95 a 0.19,0.19 0 0 1 -0.07,-0.04 l -10.97,-11.1 a 0.19,0.19 0 0 0 -0.14,-0.06 h -15.73 a 0.19,0.19 0 0 1 -0.14,-0.06 l -7.87,-7.88 a 0.19,0.19 0 0 0 -0.14,-0.06 h -14.09 a 0.19,0.19 0 0 0 -0.14,0.06 l -15.89,15.88 a 0.19,0.19 0 0 1 -0.14,0.06 H 223.7 a 0.19,0.19 0 0 0 -0.14,0.06 l -14.59,14.61 a 0.19,0.19 0 0 0 -0.06,0.14 l 0.13,10.14 a 0.19,0.19 0 0 0 0.32,0.14 L 230.07,54.3 a 0.19,0.19 0 0 1 0.12,-0.05 h 15.8 a 0.19,0.19 0 0 0 0.14,-0.06 l 11.88,-12.38 a 0.19,0.19 0 0 1 0.14,-0.06 h 9.2 a 0.19,0.19 0 0 1 0.15,0.07 l 4.18,4.82 a 0.19,0.19 0 0 0 0.15,0.07 l 15.71,0.06 a 0.19,0.19 0 0 1 0.14,0.05 l 4.94,4.89 a 0.19,0.19 0 0 0 0.14,0.05 l 13.3,-0.03 a 0.19,0.19 0 0 0 0.06,-0.37 l -1.26,-0.41"
         id="path70" /><path
         stroke="#141e0a"
         vector-effect="non-scaling-stroke"
         d="M 191.73,51.99 175.1,68.56 A 1.52,1.5 22.1 0 1 174.03,69 h -14.27 a 2.78,2.75 -67.1 0 0 -1.94,0.8 l -14.66,14.67 q -0.39,0.38 -0.93,0.46 l -2.47,0.37"
         id="path71" /><path
         stroke="#0d1407"
         vector-effect="non-scaling-stroke"
         d="M 139.76,85.3 129.7,85.34"
         id="path72" /><path
         stroke="#141e0a"
         vector-effect="non-scaling-stroke"
         d="M 129.7,85.34 125.41,85 a 1.04,1.03 69.7 0 1 -0.65,-0.3 l -6.67,-6.74 A 3.24,3.23 67.6 0 0 115.79,77 h -14.25 q -0.43,0 -0.74,-0.31 L 84.63,60.52"
         id="path73" /><path
         stroke="#0d1407"
         vector-effect="non-scaling-stroke"
         d="m 84.63,60.52 -2.7,-2.53 A 0.57,0.57 0 0 1 82.32,57 l 5.74,-0.06"
         id="path74" /><path
         stroke="#131907"
         vector-effect="non-scaling-stroke"
         d="m 187.74,40.43 a 0.39,0.39 0 0 0 -0.65,-0.29 l -20.63,18.33 a 0.39,0.39 0 0 1 -0.26,0.1 l -15.27,-0.3 a 0.39,0.39 0 0 0 -0.29,0.12 L 138.6,70.88 A 0.39,0.39 0 0 1 138.31,71 H 129.3 A 0.39,0.39 0 0 1 129,70.86 l -4,-4.66 a 0.39,0.39 0 0 0 -0.3,-0.14 l -15.56,-0.07 a 0.39,0.39 0 0 1 -0.27,-0.11 l -4.96,-4.78 a 0.39,0.39 0 0 0 -0.27,-0.11 L 91.8,61.05 a 0.39,0.39 0 0 0 -0.27,0.66 l 11.25,11.18 a 0.39,0.39 0 0 0 0.27,0.11 h 15.61 a 0.39,0.39 0 0 1 0.27,0.12 l 7.55,7.76 a 0.39,0.39 0 0 0 0.27,0.12 h 14.23 a 0.39,0.39 0 0 0 0.27,-0.12 L 156.93,65.12 A 0.39,0.39 0 0 1 157.2,65 h 15.55 a 0.39,0.39 0 0 0 0.27,-0.11 l 14.62,-14.68 a 0.39,0.39 0 0 0 0.11,-0.27 l -0.01,-9.51"
         id="path75" /><path
         stroke="#213211"
         vector-effect="non-scaling-stroke"
         d="M 84.63,60.52 59.78,85.25"
         id="path76" /><path
         stroke="#171e11"
         vector-effect="non-scaling-stroke"
         d="M 59.78,85.25 59.8,75.21"
         id="path77" /><path
         stroke="#213211"
         vector-effect="non-scaling-stroke"
         d="M 59.8,75.21 81.53,53.35"
         id="path78" /><path
         stroke="#263913"
         vector-effect="non-scaling-stroke"
         d="m 306.6,55.74 5.32,5.92"
         id="path79" /><path
         stroke="#19260d"
         vector-effect="non-scaling-stroke"
         d="m 311.92,61.66 -3.32,0.09 a 1.25,1.24 -68.6 0 0 -0.88,0.39 l -6.97,7.24 a 0.69,0.68 21.3 0 1 -0.46,0.2 l -22.58,0.6 q -0.71,0.02 -1.19,0.54 l -7.1,7.74 q -0.34,0.37 -0.84,0.42 -5.67,0.54 -9.95,-0.36"
         id="path80" /><path
         stroke="#263913"
         vector-effect="non-scaling-stroke"
         d="M 258.63,78.52 239.01,58.5"
         id="path81" /><path
         stroke="#213211"
         vector-effect="non-scaling-stroke"
         d="m 191.74,103.98 -14.11,13.78"
         id="path82" /><path
         stroke="#141e0a"
         vector-effect="non-scaling-stroke"
         d="m 177.63,117.76 -3.11,-2.98 a 1,0.99 66.8 0 0 -0.69,-0.28 h -15.06 a 1,0.96 66 0 1 -0.68,-0.28 L 142.7,98.82 a 1.1,1.07 66.5 0 0 -0.79,-0.32 c -3.28,0.01 -11.34,0.99 -13.42,-1.55"
         id="path83" /><path
         stroke="#213211"
         vector-effect="non-scaling-stroke"
         d="M 128.49,96.95 139.76,85.3"
         id="path84" /><path
         stroke="#1e2814"
         vector-effect="non-scaling-stroke"
         d="M 59.8,75.21 59.7,61.67"
         id="path85" /><path
         stroke="#0d1407"
         vector-effect="non-scaling-stroke"
         d="m 321.89,61.54 -9.97,0.12"
         id="path86" /><path
         stroke="#0d1407"
         vector-effect="non-scaling-stroke"
         d="m 258.63,78.52 -4.98,0.51 q -0.51,0.05 -0.9,0.37 l -1.68,1.35"
         id="path87" /><path
         stroke="#263913"
         vector-effect="non-scaling-stroke"
         d="M 251.07,80.75 230.06,59.66"
         id="path88" /><path
         stroke="#19260d"
         vector-effect="non-scaling-stroke"
         d="m 251.07,80.75 -13.52,13.83 q -0.41,0.42 -1,0.42 H 221.5 q -0.48,0 -0.81,0.34 l -12.37,12.47"
         id="path89" /><path
         stroke="#213211"
         vector-effect="non-scaling-stroke"
         d="m 129.7,85.34 -7.25,7.53"
         id="path90" /><path
         stroke="#141e0a"
         vector-effect="non-scaling-stroke"
         d="m 122.45,92.87 c -4.21,-3.42 -11.74,-2.11 -16.95,-2.13 a 1.1,1.08 -66.7 0 0 -0.76,0.31 l -25.51,24.73 q -0.74,0.72 -1.77,0.72 H 63.01 a 1.48,1.47 -64.7 0 0 -0.94,0.34 l -2.37,1.98"
         id="path91" /><path
         stroke="#1e2814"
         vector-effect="non-scaling-stroke"
         d="M 59.7,118.82 59.78,85.25"
         id="path92" /><path
         stroke="#0a0a0a"
         vector-effect="non-scaling-stroke"
         d="m 342.89,93.28 -0.1,-0.51 q -0.11,-0.56 -0.67,-0.53 l -5.23,0.24"
         id="path93" /><path
         stroke="#19260d"
         vector-effect="non-scaling-stroke"
         d="m 336.89,92.48 -4.13,-0.22 q -0.55,-0.03 -0.94,-0.43 L 320.6,80.2 q -0.44,-0.45 -1.07,-0.45 h -4.63 q -0.64,0 -1.07,0.48 l -3.39,3.88 a 1.04,1.02 -69.2 0 1 -0.74,0.34 l -15.1,0.18 q -0.51,0 -0.89,0.36 l -4.86,4.58 a 0.87,0.82 22.8 0 1 -0.61,0.23 l -6.83,-0.21 A 1.28,1.28 0 0 0 280.45,90 l -4.86,5.26"
         id="path94" /><path
         stroke="#0d1407"
         vector-effect="non-scaling-stroke"
         d="m 275.59,95.26 c -1.79,2.55 -4.71,1.69 -7.7,2.34"
         id="path95" /><path
         stroke="#19260d"
         vector-effect="non-scaling-stroke"
         d="m 267.89,97.6 q -3.7,-1.18 -8.88,-0.39 a 1.19,1.15 -71.4 0 0 -0.64,0.33 l -11.47,11.77 a 0.76,0.75 -66.4 0 1 -0.52,0.21 l -15.14,0.05 q -0.47,0 -0.82,0.31 l -10.84,9.68"
         id="path96" /><path
         stroke="#0d1407"
         vector-effect="non-scaling-stroke"
         d="m 219.58,119.56 -5.49,4.75"
         id="path97" /><path
         stroke="#19260d"
         vector-effect="non-scaling-stroke"
         d="m 214.09,124.31 -9.91,8.97"
         id="path98" /><path
         stroke="#131907"
         vector-effect="non-scaling-stroke"
         d="M 370.64,96.29 356.92,82.36 q -0.38,-0.38 -0.9,-0.47 c -5.13,-0.83 -10.27,-0.02 -15.51,-0.37 q -0.5,-0.03 -0.85,-0.39 l -14.67,-14.8 a 1.96,1.94 -22 0 0 -1.39,-0.58 h -13.24 a 1.2,1.15 -66.6 0 0 -0.83,0.35 l -6.9,6.89 q -0.56,0.57 -1.36,0.59 l -22.09,0.64 q -0.59,0.02 -0.99,0.46 l -7.23,7.98 A 1.05,1.01 -68.2 0 1 270.2,83 h -14.95 a 1.5,1.5 0 0 0 -1.06,0.44 L 239.27,98.35 A 2.22,2.19 -67.2 0 1 237.71,99 h -14.69 a 1.09,1.04 21.2 0 0 -0.77,0.32 l -13.45,13.65 a 2.78,2.75 -22.9 0 0 -0.8,1.94 v 8.85 a 0.29,0.29 0 0 0 0.49,0.22 l 20.28,-18.09 a 1.53,1.5 23.4 0 1 1.02,-0.39 h 14.78 q 0.53,0 0.9,-0.38 l 10.89,-11.3 A 2.64,2.63 -68.2 0 1 258.27,93 h 13.45 a 1.02,1.01 21.5 0 0 0.74,-0.32 l 6.16,-6.54 a 0.7,0.7 0 0 1 0.39,-0.21 q 2.57,-0.52 5.73,-0.1 c 3.17,0.43 5.2,-3.19 7.43,-4.97 q 0.45,-0.36 1.03,-0.36 h 14.78 q 0.41,0 0.67,-0.32 L 312.17,76 a 0.94,0.93 -69.3 0 1 0.74,-0.34 l 8.56,0.13 a 1.05,1.05 0 0 1 0.73,0.32 l 11.39,11.77 q 0.36,0.37 0.88,0.37 h 14.94 a 1.55,1.52 65.3 0 1 1.02,0.39 l 19.78,17.77 a 0.42,0.42 0 0 0 0.7,-0.31 l -0.03,-9.23 a 0.87,0.81 24.5 0 0 -0.24,-0.58"
         id="path99" /><path
         stroke="#0a0a0a"
         vector-effect="non-scaling-stroke"
         d="m 59.7,118.82 -6.18,6.55"
         id="path100" /><path
         stroke="#233017"
         vector-effect="non-scaling-stroke"
         d="m 336.89,92.48 -0.04,64.25"
         id="path101" /><path
         stroke="#263913"
         vector-effect="non-scaling-stroke"
         d="M 336.85,156.73 275.59,95.26"
         id="path102" /><path
         stroke="#0d1407"
         vector-effect="non-scaling-stroke"
         d="m 128.49,96.95 -6.04,-4.08"
         id="path103" /><path
         stroke="#0d1407"
         vector-effect="non-scaling-stroke"
         d="m 177.63,117.76 5.21,5.11"
         id="path104" /><path
         stroke="#141e0a"
         vector-effect="non-scaling-stroke"
         d="m 182.84,122.87 8.69,8.65"
         id="path105" /><path
         stroke="#141e0a"
         vector-effect="non-scaling-stroke"
         d="M 191.34,152.6 171.02,134.58"
         id="path106" /><path
         stroke="#0d1407"
         vector-effect="non-scaling-stroke"
         d="m 171.02,134.58 -5.17,-4.91"
         id="path107" /><path
         stroke="#141e0a"
         vector-effect="non-scaling-stroke"
         d="m 165.85,129.67 -16.28,-0.35 a 1.39,1.39 0 0 1 -0.98,-0.43 l -11.38,-11.75 q -0.44,-0.45 -1.07,-0.46 l -6.61,-0.1 a 0.96,0.92 61.8 0 1 -0.55,-0.18 l -11.65,-8.43"
         id="path108" /><path
         stroke="#0d1407"
         vector-effect="non-scaling-stroke"
         d="m 117.33,107.97 q -5.77,-1.75 -9.32,2.29 -4.71,5.35 -19.44,20.31 -0.35,0.36 -0.85,0.41 l -3.92,0.33"
         id="path109" /><path
         stroke="#141e0a"
         vector-effect="non-scaling-stroke"
         d="m 83.8,131.31 -11.22,-0.1 a 1.23,1.2 -67 0 0 -0.86,0.36 l -12.11,12.49"
         id="path110" /><path
         stroke="#0a0a0a"
         vector-effect="non-scaling-stroke"
         d="m 59.61,144.06 q -2.64,3.48 -6.11,2.99"
         id="path111" /><path
         stroke="#131907"
         vector-effect="non-scaling-stroke"
         d="m 156.33,118.21 -14.96,-15.19 q -0.39,-0.4 -0.95,-0.4 l -11.19,-0.1 a 0.5,0.48 -24.9 0 1 -0.3,-0.1 l -10.48,-7.37 a 1.67,1.65 62.1 0 0 -0.95,-0.3 h -9.71 a 3.02,3.02 0 0 0 -2.11,0.86 l -25.13,24.51 q -0.39,0.38 -0.93,0.38 H 64.71 a 1.48,1.45 21.5 0 0 -1.06,0.45 l -11.09,11.67 a 1.27,1.25 22.1 0 1 -0.97,0.4 c -3.15,-0.11 -6.12,-0.5 -8.88,1.39 -7.04,4.83 -10.72,10.15 -20.28,7.37 q -0.48,-0.14 -0.8,-0.54 l -3.9,-4.91 q -0.36,-0.45 -0.94,-0.46 l -7.44,-0.15 a 0.41,0.4 71.2 0 0 -0.32,0.66 l 11.07,13.84 a 1.12,1.1 72.6 0 0 0.81,0.43 c 4.1,0.32 9.91,0.82 13.46,-1.65 q 3.49,-2.41 6.82,-4.84 A 6.02,5.97 26.7 0 1 44.74,143 h 8.76 q 1.14,0 1.95,-0.81 L 70.18,127.44 A 1.5,1.5 0 0 1 71.24,127 H 85.2 a 3.1,3.07 21.6 0 0 2.24,-0.96 l 21.16,-22.15 a 1.26,1.25 21.6 0 1 0.91,-0.39 h 8.5 a 0.96,0.95 -26.9 0 1 0.56,0.18 l 11.69,8.58 q 0.39,0.29 0.87,0.31 l 7.05,0.26 q 0.51,0.02 0.86,0.39 l 11.26,11.73 q 0.28,0.3 0.7,0.3 h 15.05 a 1.39,1.36 65.1 0 1 0.9,0.34 l 19.8,17.73 q 0.83,0.75 0.82,-0.37 l -0.08,-9.09 a 1.17,1.16 23.2 0 0 -0.33,-0.81 l -14.2,-14.22 a 0.99,0.99 0 0 0 -0.7,-0.29 h -15.15 q -0.46,0 -0.78,-0.33"
         id="path112" /><path
         stroke="#0a0a0a"
         vector-effect="non-scaling-stroke"
         d="m 343.1,188.56 -6.02,5.74"
         id="path113" /><path
         stroke="#233017"
         vector-effect="non-scaling-stroke"
         d="m 337.08,194.3 q -0.14,-13.89 -0.08,-27.05 0.01,-1.11 -0.88,-1.33"
         id="path114" /><path
         stroke="#171e11"
         vector-effect="non-scaling-stroke"
         d="m 336.12,165.92 q 1.31,-5.41 0.73,-9.19"
         id="path115" /><path
         stroke="#263913"
         vector-effect="non-scaling-stroke"
         d="M 336.12,165.92 267.89,97.6"
         id="path116" /><path
         stroke="#19260d"
         vector-effect="non-scaling-stroke"
         d="m 337.08,194.3 q 0.34,-0.06 -0.42,0.67 -0.29,0.28 -0.69,0.28 h -21.43 a 1.03,1.03 0 0 0 -0.8,0.38 l -7.95,9.8 q -0.22,0.26 -0.56,0.26 -0.25,0.01 -0.45,-0.1"
         id="path117" /><path
         stroke="#263913"
         vector-effect="non-scaling-stroke"
         d="m 304.78,205.59 -0.31,-0.74 q -0.19,-0.44 -0.53,-0.78 l -54.83,-54.85"
         id="path118" /><path
         stroke="#19260d"
         vector-effect="non-scaling-stroke"
         d="m 249.11,149.22 5.73,-0.22 q 0.53,-0.02 0.88,0.38 l 3.46,3.98 q 0.34,0.39 0.86,0.39 h 18.21 q 0.66,0 0.23,-0.5 l -16.99,-19.77 q -0.2,-0.23 -0.51,-0.23 h -16.5 a 1.58,1.57 -61.8 0 0 -0.88,0.27 l -5.95,4.05"
         id="path119" /><path
         stroke="#263913"
         vector-effect="non-scaling-stroke"
         d="M 237.65,137.57 219.58,119.56"
         id="path120" /><path
         stroke="#213211"
         vector-effect="non-scaling-stroke"
         d="m 191.83,114 -8.99,8.87"
         id="path121" /><path
         stroke="#213211"
         vector-effect="non-scaling-stroke"
         d="M 117.33,107.97 59.84,165.48"
         id="path122" /><path
         stroke="#171e11"
         vector-effect="non-scaling-stroke"
         d="M 59.84,165.48 59.76,155.41"
         id="path123" /><path
         stroke="#213211"
         vector-effect="non-scaling-stroke"
         d="M 59.76,155.41 83.8,131.31"
         id="path124" /><path
         stroke="#213211"
         vector-effect="non-scaling-stroke"
         d="m 165.85,129.67 -42.67,42.81"
         id="path125" /><path
         stroke="#141e0a"
         vector-effect="non-scaling-stroke"
         d="m 123.18,172.48 -5.07,0.21 a 0.54,0.53 -21.1 0 0 -0.39,0.88 l 1.81,2.12"
         id="path126" /><path
         stroke="#213211"
         vector-effect="non-scaling-stroke"
         d="m 119.53,175.69 -59.06,59.54 q -0.25,0.26 -0.61,0.27 -0.17,0 -0.33,0"
         id="path127" /><path
         stroke="#1e2814"
         vector-effect="non-scaling-stroke"
         d="m 59.53,235.5 0.31,-70.02"
         id="path128" /><path
         stroke="#0d1407"
         vector-effect="non-scaling-stroke"
         d="m 237.65,137.57 -6.08,4.14"
         id="path129" /><path
         stroke="#263913"
         vector-effect="non-scaling-stroke"
         d="m 231.57,141.71 -17.48,-17.4"
         id="path130" /><path
         stroke="#19260d"
         vector-effect="non-scaling-stroke"
         d="m 231.57,141.71 c -1.77,1.59 -3.06,2.61 -5.61,2.59 q -10.42,-0.08 -21.45,-0.08"
         id="path131" /><path
         stroke="#213211"
         vector-effect="non-scaling-stroke"
         d="m 171.02,134.58 -37.99,38.04"
         id="path132" /><path
         stroke="#0d1407"
         vector-effect="non-scaling-stroke"
         d="m 133.03,172.62 -9.85,-0.14"
         id="path133" /><path
         stroke="#1e2814"
         vector-effect="non-scaling-stroke"
         d="M 59.76,155.41 59.61,144.06"
         id="path134" /><path
         stroke="#0d1407"
         vector-effect="non-scaling-stroke"
         d="m 249.11,149.22 -5.92,4.09"
         id="path135" /><path
         stroke="#19260d"
         vector-effect="non-scaling-stroke"
         d="m 243.19,153.31 -7.45,5.14 q -0.42,0.28 -0.92,0.28 l -29.81,0.05"
         id="path136" /><path
         stroke="#131907"
         vector-effect="non-scaling-stroke"
         d="m 229.23,148.25 a 0.35,0.35 0 0 1 -0.2,0.06 l -20.18,-0.09 a 0.35,0.35 0 0 0 -0.35,0.35 v 5.83 a 0.35,0.35 0 0 0 0.35,0.35 h 25.13 a 0.35,0.35 0 0 0 0.2,-0.06 l 13.41,-9.52 a 0.35,0.35 0 0 1 0.18,-0.06 l 8.99,-0.35 a 0.35,0.35 0 0 1 0.28,0.11 l 4.24,4.76 a 0.35,0.35 0 0 0 0.26,0.12 h 7.86 a 0.35,0.35 0 0 0 0.26,-0.58 l -10.16,-11.8 a 0.35,0.35 0 0 0 -0.26,-0.12 h -13.89 a 0.35,0.35 0 0 0 -0.2,0.06 l -15.92,10.94"
         id="path137" /><path
         stroke="#141e0a"
         vector-effect="non-scaling-stroke"
         d="m 191.4,168.03 -30.12,-0.02 q -0.5,0 -0.92,0.29 -6.03,4.08 -11.91,8.42 -2.89,2.13 -7.65,0.72 -0.43,-0.12 -0.71,-0.46 L 137,173.37 q -0.39,-0.47 -1,-0.39 -1.56,0.2 -2.97,-0.36"
         id="path138" /><path
         stroke="#171e11"
         vector-effect="non-scaling-stroke"
         d="m 59.53,235.5 q -0.21,1.75 0.24,3.24"
         id="path139" /><path
         stroke="#0a0a0a"
         vector-effect="non-scaling-stroke"
         d="M 59.77,238.74 53.5,238.9"
         id="path140" /><path
         stroke="#0d1407"
         vector-effect="non-scaling-stroke"
         d="m 304.78,205.59 -9.22,0.19"
         id="path141" /><path
         stroke="#263913"
         vector-effect="non-scaling-stroke"
         d="M 295.56,205.78 243.19,153.31"
         id="path142" /><path
         stroke="#19260d"
         vector-effect="non-scaling-stroke"
         d="M 295.56,205.78 292.9,206 q -0.53,0.05 -0.91,0.41 l -12.33,11.76 q -0.42,0.41 -0.87,0.03 l -9.05,-7.61 q -0.4,-0.34 -0.93,-0.34 h -8.87 q -0.52,0 -0.89,-0.38 l -11.43,-11.78 q -0.37,-0.38 -0.9,-0.38 l -14.42,0.06 a 2.6,2.6 0 0 1 -1.73,-0.66 l -26,-23.12"
         id="path143" /><path
         stroke="#141e0a"
         vector-effect="non-scaling-stroke"
         d="m 191.67,182.34 -22.99,-0.08 a 1.2,1.15 -61.6 0 0 -0.68,0.22 l -15.27,10.55 q -0.38,0.26 -0.85,0.26 l -16.79,-0.02 a 0.98,0.97 -20.1 0 1 -0.74,-0.34 l -9.99,-11.71"
         id="path144" /><path
         stroke="#0d1407"
         vector-effect="non-scaling-stroke"
         d="m 124.36,181.22 -4.83,-5.53"
         id="path145" /><path
         stroke="#131907"
         vector-effect="non-scaling-stroke"
         d="m 135.13,187.49 c 0.78,0.83 0.84,1.77 2.3,1.8 q 6.59,0.15 13.25,-0.1 0.55,-0.03 1,-0.34 l 14.82,-10.26 q 0.47,-0.33 1.04,-0.33 l 19.6,0.02 q 0.62,0 0.61,-0.61 l -0.01,-5.05 A 0.74,0.74 0 0 0 187,171.88 l -24.55,0.15 q -0.52,0.01 -0.94,0.3 l -12.48,8.77 a 3.61,3.58 -62.3 0 1 -2.06,0.65 h -7.65 a 1.01,1 -19.3 0 1 -0.78,-0.37 l -3.3,-3.99 Q 134.92,177 134.42,177 h -7.65 q -0.73,0 -0.27,0.56 4.16,5.17 8.63,9.93"
         id="path146" /><path
         stroke="#0a0a0a"
         vector-effect="non-scaling-stroke"
         d="m 343.01,212.01 c -1.89,-0.67 -3.86,0.83 -6.23,0.39"
         id="path147" /><path
         stroke="#19260d"
         vector-effect="non-scaling-stroke"
         d="m 336.78,212.4 -13.47,-0.08 q -0.5,-0.01 -0.77,0.41 l -4.07,6.16"
         id="path148" /><path
         stroke="#0d1407"
         vector-effect="non-scaling-stroke"
         d="m 318.47,218.89 -8.81,0.74"
         id="path149" /><path
         stroke="#19260d"
         vector-effect="non-scaling-stroke"
         d="m 309.66,219.63 c -3.35,-0.56 -6.75,-0.84 -9.52,1.63 q -10.18,9.09 -20.42,18.09 -0.4,0.35 -0.81,0.01 l -12.9,-10.77 q -0.41,-0.34 -0.94,-0.34 H 254 q -0.51,0 -0.88,-0.37 l -15.09,-15.26 a 1.19,1.17 -23.8 0 0 -0.9,-0.34 l -4.75,0.29"
         id="path150" /><path
         stroke="#0d1407"
         vector-effect="non-scaling-stroke"
         d="m 232.38,212.57 q -5.1,-1.06 -9.9,0.4"
         id="path151" /><path
         stroke="#19260d"
         vector-effect="non-scaling-stroke"
         d="m 222.48,212.97 -17.3,-17.22"
         id="path152" /><path
         stroke="#131907"
         vector-effect="non-scaling-stroke"
         d="m 377.31,196.18 q -3.8,-4.93 -6.58,-7.67 -0.69,-0.67 -1.86,-0.48 -1.33,0.22 -1.8,0.2 -8.39,-0.37 -16.91,-0.2 a 1.34,1.33 21.8 0 0 -0.92,0.39 l -10.57,10.47 a 1.26,1.22 21.9 0 1 -0.88,0.36 h -21.31 a 1.1,1.08 -70.3 0 0 -0.85,0.41 l -7.74,9.52 q -0.38,0.47 -0.99,0.49 l -12.43,0.31 q -0.48,0.02 -0.83,0.35 l -13.71,13.12 q -0.58,0.56 -1.19,0.04 l -10.4,-8.91 q -0.38,-0.33 -0.89,-0.33 h -9.42 a 0.95,0.94 67.8 0 1 -0.68,-0.29 l -11.27,-11.81 a 1.35,1.35 0 0 0 -0.98,-0.42 q -6.17,-0.03 -12.33,0.02 c -1.72,0.01 -2.68,0.26 -4.05,-0.97 q -9.62,-8.56 -19.33,-17.2 -0.89,-0.79 -0.89,0.41 v 9.17 a 1.16,1.16 0 0 0 0.34,0.82 l 13.98,13.87 a 1.38,1.36 -22.3 0 0 0.97,0.4 h 14.95 q 0.42,0 0.71,0.29 l 14.7,14.75 q 0.96,0.96 2.31,0.96 h 10.04 a 1.45,1.44 -25.1 0 1 0.92,0.33 l 11.41,9.5 q 0.45,0.38 0.89,-0.01 l 20.72,-18.4 q 0.38,-0.34 0.89,-0.33 l 13.63,0.22 a 1.02,1 -71.6 0 0 0.84,-0.43 l 4.73,-6.56 q 0.29,-0.39 0.77,-0.39 l 16.94,0.1 q 0.53,0 0.9,-0.37 l 9.7,-9.89 a 3.35,3.31 -66.6 0 1 2.49,-1 q 8.26,0.27 17.02,-0.02 c 2.52,-0.08 5.8,0.68 8.69,-0.05 q 0.71,-0.19 0.27,-0.77"
         id="path153" /><path
         stroke="#213211"
         vector-effect="non-scaling-stroke"
         d="M 124.36,181.22 63.87,241.86"
         id="path154" /><path
         stroke="#0d1407"
         vector-effect="non-scaling-stroke"
         d="m 63.87,241.86 q -1.75,-1.99 -4.1,-3.12"
         id="path155" /><path
         stroke="#213211"
         vector-effect="non-scaling-stroke"
         d="m 191.41,184.5 -31.85,31.95"
         id="path156" /><path
         stroke="#141e0a"
         vector-effect="non-scaling-stroke"
         d="m 159.56,216.45 -10.02,0.26 q -0.49,0.01 -0.83,0.36 l -11.69,12.09 a 0.78,0.77 -67.9 0 1 -0.56,0.24 l -14.32,0.1 q -0.53,0 -0.9,0.4 l -10.65,11.4 a 1.43,1.41 21.3 0 1 -1.04,0.45 H 105 q -0.62,0 -1.06,0.44 l -4.19,4.18 q -0.38,0.38 -0.91,0.38 H 83.82 q -0.51,0 -0.84,0.38 l -3.47,4.04 a 1.07,1.07 0 0 1 -0.81,0.37 l -5.14,-0.04 q -0.43,0 -0.73,-0.31 l -8.96,-9.33"
         id="path157" /><path
         stroke="#0d1407"
         vector-effect="non-scaling-stroke"
         d="m 191.57,193.16 q -13.14,11.55 -25.88,23.03 -1.46,1.31 -6.13,0.26"
         id="path158" /><path
         stroke="#141e0a"
         vector-effect="non-scaling-stroke"
         d="m 191.69,214.3 -16.9,16.84 a 1.23,1.22 -66.8 0 1 -0.89,0.36 l -13.54,-0.24 a 3.45,3.45 0 0 0 -2.51,1.01 l -14.88,14.88 a 1.3,1.28 -67.1 0 1 -0.91,0.38 l -3.45,0.02"
         id="path159" /><path
         stroke="#0d1407"
         vector-effect="non-scaling-stroke"
         d="m 138.61,247.55 -10.75,-0.02"
         id="path160" /><path
         stroke="#141e0a"
         vector-effect="non-scaling-stroke"
         d="m 127.86,247.53 q -5.07,3.32 -8.53,8.03 a 0.93,0.93 0 0 1 -0.73,0.38 l -3.79,0.15 a 0.77,0.73 20 0 0 -0.46,0.2 l -5.16,5.11 a 1.24,1.23 -67 0 1 -0.86,0.35 H 93.36 a 1.16,1.15 22 0 0 -0.83,0.35 l -7.01,7 a 2.2,2.17 22 0 1 -1.56,0.65 H 67.77 a 1.04,0.98 65.8 0 1 -0.7,-0.29 l -7.22,-7.14"
         id="path161" /><path
         stroke="#0a0a0a"
         vector-effect="non-scaling-stroke"
         d="m 59.85,262.32 -4.51,-4.34 q -0.44,-0.44 -0.94,-0.05 -0.81,0.62 -0.9,0.08"
         id="path162" /><path
         stroke="#131907"
         vector-effect="non-scaling-stroke"
         d="m 83.51,265.51 7.25,-7.43 a 1.13,1.11 -67.1 0 1 0.79,-0.33 h 15.16 a 1.09,1.09 0 0 0 0.78,-0.33 l 4.94,-4.98 a 1.5,1.45 21.5 0 1 1.06,-0.44 h 3.11 a 1.15,1.14 -68.6 0 0 0.84,-0.37 l 7.11,-7.78 q 0.39,-0.44 0.98,-0.43 l 14.76,0.08 q 0.59,0 1,-0.42 l 15.31,-15.31 q 0.32,-0.32 0.78,-0.32 l 14.94,0.02 q 0.57,0 0.98,-0.4 l 14.08,-14.1 q 0.37,-0.38 0.37,-0.91 v -9.25 a 0.41,0.41 0 0 0 -0.68,-0.31 l -20.13,17.91 q -0.39,0.34 -0.91,0.34 h -14.79 q -0.62,0 -1.05,0.45 l -11.22,11.75 q -0.36,0.38 -0.89,0.37 c -3.52,-0.09 -13.6,-1.15 -16,1.51 q -2.11,2.32 -9.97,10.56 -0.35,0.36 -0.85,0.36 h -4.65 q -0.64,0 -1.1,0.45 l -4.24,4.12 q -0.44,0.43 -1.06,0.43 h -14.6 q -0.49,0 -0.82,0.37 l -3.65,4.15 q -0.42,0.48 -1.06,0.48 h -8.03 a 1.07,1.04 -21.2 0 1 -0.77,-0.33 L 60.27,244.04 A 3.46,3.42 -21.9 0 0 57.8,243 H 43.86 a 0.95,0.94 -23.4 0 1 -0.64,-0.25 L 23.33,225.06 a 0.7,0.69 -70.4 0 0 -1.15,0.55 l 0.35,8.87 q 0.02,0.59 0.44,1.02 l 13.55,13.69 q 0.49,0.5 1.19,0.5 l 14.89,0.09 a 1.44,1.42 67.3 0 1 1.01,0.42 l 15.07,15.12 a 1.31,1.29 67.3 0 0 0.88,0.37 l 13.38,0.06 a 0.8,0.78 21.3 0 0 0.57,-0.24"
         id="path163" /><path
         stroke="#263913"
         vector-effect="non-scaling-stroke"
         d="m 222.48,212.97 32.36,32.48"
         id="path164" /><path
         stroke="#19260d"
         vector-effect="non-scaling-stroke"
         d="m 254.84,245.45 c -3.47,0.77 -13.84,12.7 -17.02,15.8 q -0.32,0.31 -0.76,0.31 l -14.99,-0.09 q -0.51,0 -0.87,0.36 l -9.79,9.89"
         id="path165" /><path
         stroke="#263913"
         vector-effect="non-scaling-stroke"
         d="m 211.41,271.72 -6.3,-6.07"
         id="path166" /><path
         stroke="#0a0a0a"
         vector-effect="non-scaling-stroke"
         d="m 343.03,342.74 -0.43,1.05 q -0.17,0.44 -0.63,0.57 -2.6,0.76 -5.17,0.33"
         id="path167" /><path
         stroke="#233017"
         vector-effect="non-scaling-stroke"
         d="m 336.8,344.69 q 0.38,-8.4 0.14,-16.88 -0.02,-0.4 -0.6,-1.22"
         id="path168" /><path
         stroke="#171e11"
         vector-effect="non-scaling-stroke"
         d="m 336.34,326.59 0.45,-9.29"
         id="path169" /><path
         stroke="#233017"
         vector-effect="non-scaling-stroke"
         d="M 336.79,317.3 V 246.95"
         id="path170" /><path
         stroke="#171e11"
         vector-effect="non-scaling-stroke"
         d="m 336.79,246.95 -0.01,-9.97"
         id="path171" /><path
         stroke="#233017"
         vector-effect="non-scaling-stroke"
         d="M 336.78,236.98 V 212.4"
         id="path172" /><path
         stroke="#263913"
         vector-effect="non-scaling-stroke"
         d="m 232.38,212.57 32.59,32.83"
         id="path173" /><path
         stroke="#0d1407"
         vector-effect="non-scaling-stroke"
         d="m 264.97,245.4 -10.13,0.05"
         id="path174" /><path
         stroke="#263913"
         vector-effect="non-scaling-stroke"
         d="m 309.66,219.63 27.13,27.32"
         id="path175" /><path
         stroke="#263913"
         vector-effect="non-scaling-stroke"
         d="M 336.79,317.3 293.32,273.62"
         id="path176" /><path
         stroke="#19260d"
         vector-effect="non-scaling-stroke"
         d="m 293.32,273.62 21.06,-0.03 a 0.24,0.24 0 0 0 0.17,-0.41 l -19.41,-19.42 q -0.3,-0.29 -0.71,-0.29 l -14.91,0.1 a 1.41,1.4 67 0 1 -0.98,-0.4 l -7.29,-7.29 q -0.33,-0.33 -0.79,-0.34 l -5.49,-0.14"
         id="path177" /><path
         stroke="#263913"
         vector-effect="non-scaling-stroke"
         d="M 336.78,236.98 318.47,218.89"
         id="path178" /><path
         stroke="#213211"
         vector-effect="non-scaling-stroke"
         d="m 191.73,264.74 -23.87,23.94"
         id="path179" /><path
         stroke="#141e0a"
         vector-effect="non-scaling-stroke"
         d="m 167.86,288.68 h -8.79 q -0.51,0 -0.87,-0.36 l -15.13,-15.13 q -0.45,-0.44 -1.07,-0.44 h -16.48 a 1,0.96 -66 0 0 -0.68,0.28 l -7.08,7.08 a 2.02,2.01 22.8 0 1 -1.45,0.59 l -10.57,-0.17"
         id="path180" /><path
         stroke="#213211"
         vector-effect="non-scaling-stroke"
         d="m 105.74,280.53 32.87,-32.98"
         id="path181" /><path
         stroke="#0d1407"
         vector-effect="non-scaling-stroke"
         d="m 293.32,273.62 -2.23,0.1 a 1.13,1.09 66.1 0 1 -0.84,-0.34 c -3.95,-4.06 -5.49,-6.1 -11.75,-4.34"
         id="path182" /><path
         stroke="#19260d"
         vector-effect="non-scaling-stroke"
         d="m 278.5,269.04 q -3.32,-0.96 -8.42,-0.44 -0.61,0.07 -1.01,-0.39 l -3.69,-4.22 a 1.18,1.16 67.9 0 0 -0.92,-0.4 l -5.11,0.23 a 0.81,0.81 0 0 0 -0.57,0.26 l -11.38,11.8 a 1.23,1.2 -67.6 0 1 -0.87,0.37 h -15.04 q -0.51,0 -0.88,0.34 l -7.67,6.98"
         id="path183" /><path
         stroke="#0d1407"
         vector-effect="non-scaling-stroke"
         d="m 222.94,283.57 -5.51,4.78"
         id="path184" /><path
         stroke="#19260d"
         vector-effect="non-scaling-stroke"
         d="M 217.43,288.35 204.5,300.01"
         id="path185" /><path
         stroke="#0d1407"
         vector-effect="non-scaling-stroke"
         d="m 205,278.05 6.41,-6.33"
         id="path186" /><path
         stroke="#131907"
         vector-effect="non-scaling-stroke"
         d="m 223.49,265.48 a 0.39,0.39 0 0 0 -0.28,0.12 l -14.5,14.56 a 0.39,0.39 0 0 0 -0.11,0.26 l -0.31,9.77 a 0.39,0.39 0 0 0 0.65,0.3 l 20.45,-18.14 a 0.39,0.39 0 0 1 0.26,-0.1 h 15.53 a 0.39,0.39 0 0 0 0.29,-0.12 l 12,-12.46 a 0.39,0.39 0 0 1 0.29,-0.12 l 8.85,0.07 a 0.39,0.39 0 0 1 0.29,0.13 l 4.1,4.62 a 0.39,0.39 0 0 0 0.3,0.13 h 15.33 a 0.39,0.39 0 0 1 0.26,0.1 l 5.17,4.8 a 0.39,0.39 0 0 0 0.26,0.1 h 11.87 a 0.39,0.39 0 0 0 0.27,-0.67 l -11.27,-11.26 a 0.39,0.39 0 0 0 -0.28,-0.12 l -15.5,0.18 a 0.39,0.39 0 0 1 -0.29,-0.12 l -7.6,-7.76 a 0.39,0.39 0 0 0 -0.27,-0.12 l -13.95,-0.15 a 0.39,0.39 0 0 0 -0.28,0.12 l -15.83,15.83 a 0.39,0.39 0 0 1 -0.27,0.12 l -15.43,-0.07"
         id="path187" /><path
         stroke="#0d1407"
         vector-effect="non-scaling-stroke"
         d="m 105.74,280.53 -11.06,0.65"
         id="path188" /><path
         stroke="#213211"
         vector-effect="non-scaling-stroke"
         d="m 94.68,281.18 33.18,-33.65"
         id="path189" /><path
         stroke="#141e0a"
         vector-effect="non-scaling-stroke"
         d="m 94.68,281.18 q -4.39,3.29 -8.43,8.35 Q 85.88,290 85.28,290 H 70.27 a 0.99,0.99 0 0 0 -0.7,0.29 l -9.91,9.67"
         id="path190" /><path
         stroke="#1e2814"
         vector-effect="non-scaling-stroke"
         d="m 59.66,299.96 0.19,-37.64"
         id="path191" /><path
         stroke="#0a0a0a"
         vector-effect="non-scaling-stroke"
         d="m 59.66,299.96 -5.52,5.66 a 0.48,0.44 22.3 0 1 -0.35,0.13 q -0.15,-0.01 -0.29,-0.04"
         id="path192" /><path
         stroke="#263913"
         vector-effect="non-scaling-stroke"
         d="m 278.5,269.04 q 28.92,28.58 56.88,57.08 0.23,-0.21 0.96,0.47"
         id="path193" /><path
         stroke="#19260d"
         vector-effect="non-scaling-stroke"
         d="m 336.8,344.69 -12.13,0.13"
         id="path194" /><path
         stroke="#233017"
         vector-effect="non-scaling-stroke"
         d="m 324.67,344.82 -14.13,-0.03"
         id="path195" /><path
         stroke="#19260d"
         vector-effect="non-scaling-stroke"
         d="m 310.54,344.79 -6.66,-6.62 a 2.93,2.91 -23 0 0 -2.1,-0.84 l -14.24,0.24 a 0.93,0.91 -24 0 1 -0.61,-0.23 l -13.02,-11.35 a 0.54,0.53 39.9 0 1 -0.07,-0.74 l 14.86,-18.39 a 0.38,0.37 -70.5 0 0 -0.29,-0.61 h -17.92 a 1.14,1.11 -70.1 0 0 -0.87,0.42 L 259,319.65"
         id="path196" /><path
         stroke="#263913"
         vector-effect="non-scaling-stroke"
         d="M 259,319.65 222.94,283.57"
         id="path197" /><path
         stroke="#213211"
         vector-effect="non-scaling-stroke"
         d="m 191.79,274.72 -15.61,15.49"
         id="path198" /><path
         stroke="#0d1407"
         vector-effect="non-scaling-stroke"
         d="m 176.18,290.21 q -1.84,-2.13 -8.32,-1.53"
         id="path199" /><path
         stroke="#141e0a"
         vector-effect="non-scaling-stroke"
         d="m 176.18,290.21 15.56,15.54"
         id="path200" /><path
         stroke="#141e0a"
         vector-effect="non-scaling-stroke"
         d="m 191.67,327.02 q -9.86,-8.56 -25.48,-22.71 -1.95,-1.76 -3.41,-0.71"
         id="path201" /><path
         stroke="#0d1407"
         vector-effect="non-scaling-stroke"
         d="m 162.78,303.6 -10.39,0.21"
         id="path202" /><path
         stroke="#141e0a"
         vector-effect="non-scaling-stroke"
         d="m 152.39,303.81 q -3.47,-0.5 -4.55,-1.64 -4.63,-4.84 -9.36,-9.6 c -2.22,-2.23 -4.3,-2.23 -7.15,-1.64 q -0.5,0.1 -0.83,0.48 l -3.34,3.86 q -0.42,0.48 -1.06,0.48 h -14.85 a 1.5,1.5 0 0 0 -1.06,0.44 l -4.22,4.21 a 1.16,1.15 22 0 1 -0.83,0.35 h -6.97 q -0.63,0 -1.07,0.46 l -6.23,6.59 a 0.92,0.91 21.2 0 1 -0.67,0.29 L 78,308.05 q -0.64,0 -1.11,0.45 L 64,320.95"
         id="path203" /><path
         stroke="#131907"
         vector-effect="non-scaling-stroke"
         d="m 94.46,286.46 c -2.27,2.24 -4.58,4.71 -6.63,7.16 Q 87.51,294 87.01,294 H 72.93 a 3.94,3.94 0 0 0 -2.82,1.19 l -13.93,14.27 a 2.05,2.02 -67.2 0 1 -1.44,0.6 l -14.69,-0.09 a 1.03,1.01 -67.2 0 0 -0.72,0.3 l -14.14,14.18 a 1.5,1.5 0 0 0 -0.44,1.06 v 8.24 q 0,1.8 1.34,0.6 L 45.4,317.08 a 1.35,1.34 -65.3 0 1 0.88,-0.33 h 14.28 a 2.72,2.7 -67.7 0 0 1.94,-0.82 l 11.14,-11.5 a 1.39,1.38 -68 0 1 1,-0.43 l 13.65,0.1 q 0.67,0 1.13,-0.49 l 5.98,-6.48 q 0.35,-0.38 0.86,-0.38 l 7.39,-0.01 a 1.23,1.23 0 0 0 0.87,-0.36 l 4.1,-4.18 q 0.45,-0.45 1.08,-0.45 h 14.55 q 0.63,0 1.04,-0.47 l 3.58,-4.05 q 0.42,-0.48 1.05,-0.48 h 7.94 a 1.43,1.42 -21.8 0 1 1.03,0.44 L 150.35,299 a 1.29,1.28 69.2 0 0 0.88,0.4 q 6.64,0.35 13.26,-0.26 1.8,-0.17 3.1,1.01 9.57,8.68 19.2,17.29 0.96,0.85 0.96,-0.43 v -8.85 a 1.24,1.23 23 0 0 -0.35,-0.86 l -14.17,-14.21 a 1.16,1.16 0 0 0 -0.82,-0.34 h -15.14 a 1,0.96 66 0 1 -0.68,-0.28 l -15.27,-15.28 q -0.45,-0.44 -1.07,-0.44 h -13.14 a 1.16,1.15 22 0 0 -0.83,0.35 l -7.34,7.34 a 1.2,1.19 -66.3 0 1 -0.89,0.35 q -9.29,-0.28 -18.54,0.47 c -1.94,0.15 -3.33,-0.51 -5.05,1.2"
         id="path204" /><path
         stroke="#0d1407"
         vector-effect="non-scaling-stroke"
         d="m 259,319.65 q -2.54,4.36 -5.44,4.82"
         id="path205" /><path
         stroke="#263913"
         vector-effect="non-scaling-stroke"
         d="M 253.56,324.47 217.43,288.35"
         id="path206" /><path
         stroke="#19260d"
         vector-effect="non-scaling-stroke"
         d="m 253.56,324.47 q -3.63,0.59 -6.4,-1.37 -5.7,-4.04 -11.45,-8.1 -0.41,-0.29 -0.9,-0.29 l -30.08,-0.03"
         id="path207" /><path
         stroke="#213211"
         vector-effect="non-scaling-stroke"
         d="m 152.39,303.81 -40.67,40.84"
         id="path208" /><path
         stroke="#213211"
         vector-effect="non-scaling-stroke"
         d="m 162.78,303.6 -41.05,41.11"
         id="path209" /><path
         stroke="#0a0a0a"
         vector-effect="non-scaling-stroke"
         d="m 310.54,344.79 q 2.97,5.45 8.38,5.18 c 3.03,-0.15 4.52,-2.72 5.75,-5.15"
         id="path210" /><path
         stroke="#19260d"
         vector-effect="non-scaling-stroke"
         d="m 269.79,344.73 -5.98,-6.29 q -0.42,-0.45 -0.86,-0.01 l -1.33,1.32 q -0.47,0.47 -1.14,0.47 l -16.14,-0.1 q -0.62,-0.01 -1.13,-0.36 l -14.8,-10.27 q -0.46,-0.32 -1.02,-0.32 l -22.8,0.07"
         id="path211" /><path
         stroke="#131907"
         vector-effect="non-scaling-stroke"
         d="m 325.42,363.77 7.32,-7.39 q 0.37,-0.38 0.91,-0.38 h 14.85 a 1.5,1.45 21.5 0 0 1.06,-0.44 l 10.77,-10.77 q 0.72,-0.71 -0.3,-0.72 l -11.28,-0.1 q -0.54,-0.01 -0.93,0.36 l -4.64,4.29 a 1.15,1.1 -65.7 0 1 -0.77,0.31 l -14.96,0.23 q -0.63,0.01 -1.03,0.48 l -3.35,3.94 q -0.35,0.42 -0.9,0.42 h -7.21 a 3.66,3.65 67.9 0 1 -2.63,-1.12 l -10.64,-11.12 a 1.39,1.37 67.3 0 0 -1.02,-0.43 q -6.08,0.13 -12.16,0.38 -2.66,0.11 -3.68,-0.79 -8.29,-7.33 -16.39,-14.5 -0.41,-0.36 -0.07,-0.79 l 11.91,-14.68 a 0.42,0.42 0 0 0 -0.33,-0.68 l -7.57,0.1 q -0.61,0.01 -1,0.49 l -13.65,16.89 a 1.6,1.59 13.7 0 1 -0.96,0.58 q -3.18,0.63 -6.42,0.36 c -4.66,-0.41 -11.97,-6.81 -15.81,-9.65 a 1.47,1.44 62.8 0 0 -0.87,-0.29 h -24.49 a 0.6,0.59 1.5 0 0 -0.6,0.56 l -0.29,5.34 a 0.62,0.61 1.7 0 0 0.62,0.65 l 19.84,-0.17 a 1.04,1.04 0 0 1 0.57,0.17 q 6.62,4.45 13.15,9.07 c 4.08,2.89 12.2,2.13 16.93,1.46 a 1.26,1.24 15.7 0 0 0.76,-0.42 l 2.54,-2.95 a 0.58,0.58 0 0 1 0.86,-0.03 l 14.43,14.7 a 2.9,2.89 -22.1 0 0 2.07,0.87 h 14.4 q 0.51,0 0.87,0.36 l 14.69,14.82 a 2.9,2.89 -22.3 0 0 2.06,0.86 l 12.56,0.05 a 1.14,1.1 -66.4 0 0 0.78,-0.32"
         id="path212" /></g><path
       fill="#000000"
       d="m 135.49,0 h 16.55 q 5.9,4.3 11.95,8.33 c 3.29,2.2 8.42,1.54 12.21,1.46 q 7.27,1.13 14.1,0.6 a 1.44,1.44 0 0 1 1.55,1.47 l -0.37,13.66 -1.99,0.03 -28.12,-0.12 q -0.61,0 -1.11,-0.36 l -12.78,-9.04 a 1.56,1.55 -27.4 0 0 -0.89,-0.28 h -5.6 a 0.97,0.94 20.9 0 0 -0.7,0.3 l -19.35,20.59 a 1.39,1.38 20.8 0 1 -0.99,0.44 l -12.46,0.21 c -3.43,-0.53 -4.49,1.57 -6.63,3.7 Q 95.23,46.6 89.47,52.27 a 1.25,1.24 -70 0 1 -0.77,0.36 l -7.17,0.72 -8.43,-0.11 a 1.18,1.18 0 0 0 -0.9,0.39 l -7.13,7.72 q -0.32,0.35 -0.79,0.35 l -4.58,-0.03 -6.19,0.2 -14.87,-0.3 a 0.48,0.47 -67.7 0 1 -0.33,-0.8 L 50,48.28 a 1.01,0.99 -63.5 0 1 0.9,-0.31 q 1.24,0.19 2.54,-0.24 1.73,0.29 3.28,-1.26 1.92,-1.9 2.99,-3.09 l 7.85,-8 Q 67.93,35 68.47,35 h 13.38 a 2.2,2.17 21.7 0 0 1.57,-0.66 L 94.14,23.26 a 2.35,2.34 21.7 0 1 1.66,-0.71 l 14.65,-0.15 q 0.61,-0.01 1.05,-0.45 l 6.03,-6.08 q 1.56,-0.95 3.67,-3.17 1.62,-1.7 0.86,-2.94 2.38,0.37 3.75,-0.95 5.89,-5.62 9.68,-8.81 z m -16.3,32.73 19.11,-20.4 a 2.64,2.63 21.6 0 1 1.92,-0.83 h 7.18 a 1.84,1.81 -27.1 0 1 1.05,0.33 l 12.56,8.79 a 4.89,4.85 62.3 0 0 2.79,0.88 h 23.06 q 0.8,0 0.81,-0.79 l 0.1,-5.03 A 0.66,0.66 0 0 0 187.11,15 h -19.83 q -0.4,0 -0.73,-0.23 L 151.28,4.18 A 1.02,0.98 61.5 0 0 150.71,4 h -13.22 a 2.75,2.7 -66.2 0 0 -1.86,0.74 q -11.08,10.39 -22.47,20.92 -1.04,0.96 -3.16,0.85 -3.43,-0.17 -13.03,0.01 -0.5,0.01 -0.85,0.37 -5.15,5.34 -10.17,10.81 -1.33,1.46 -2.45,1.39 -6.92,-0.39 -13.91,0.14 a 0.99,0.94 18.7 0 0 -0.62,0.29 L 57.94,51.26 q -0.74,0.79 -1.81,0.57 c -4.46,-0.92 -6.88,2.01 -8.93,5.38 q -0.33,0.54 0.3,0.54 h 15.01 a 1.18,1.16 -68.8 0 0 0.87,-0.39 l 6.79,-7.5 A 2.6,2.58 20.8 0 1 72.1,49 h 14.3 q 0.61,0 1.03,-0.43 l 15.08,-15.24 a 1.21,1.19 22.2 0 1 0.85,-0.35 l 15.04,0.09 q 0.47,0.01 0.79,-0.34 z"
       id="path213" /><path
       fill="#25310d"
       d="m 138.3,12.33 -19.11,20.4 q -0.32,0.35 -0.79,0.34 l -15.04,-0.09 a 1.21,1.19 22.2 0 0 -0.85,0.35 L 87.43,48.57 Q 87.01,49 86.4,49 H 72.1 a 2.6,2.58 20.8 0 0 -1.93,0.86 l -6.79,7.5 a 1.18,1.16 -68.8 0 1 -0.87,0.39 H 47.5 q -0.63,0 -0.3,-0.54 c 2.05,-3.37 4.47,-6.3 8.93,-5.38 q 1.07,0.22 1.81,-0.57 L 68.97,39.52 a 0.99,0.94 18.7 0 1 0.62,-0.29 q 6.99,-0.53 13.91,-0.14 1.12,0.07 2.45,-1.39 5.02,-5.47 10.17,-10.81 0.35,-0.36 0.85,-0.37 9.6,-0.18 13.03,-0.01 2.12,0.11 3.16,-0.85 11.39,-10.53 22.47,-20.92 A 2.75,2.7 -66.2 0 1 137.49,4 h 13.22 a 1.02,0.98 61.5 0 1 0.57,0.18 l 15.27,10.59 q 0.33,0.23 0.73,0.23 h 19.83 a 0.66,0.66 0 0 1 0.66,0.68 l -0.1,5.03 q -0.01,0.79 -0.81,0.79 H 163.8 a 4.89,4.85 62.3 0 1 -2.79,-0.88 L 148.45,11.83 A 1.84,1.81 -27.1 0 0 147.4,11.5 h -7.18 a 2.64,2.63 21.6 0 0 -1.92,0.83 z"
       id="path214" /><path
       fill="#141414"
       d="m 122.06,9.76 q 0.76,1.24 -0.86,2.94 -2.11,2.22 -3.67,3.17 L 60.39,15.79 q -0.53,0 -0.54,0.53 l -0.14,27.06 q -1.07,1.19 -2.99,3.09 -1.55,1.55 -3.28,1.26 l 0.02,-37.17 a 1.14,1.14 0 0 1 1.15,-1.14 z"
       id="path215" /><path
       fill="#141414"
       d="m 342.74,77.7 -5.91,-5.29 0.11,-55.48 a 1.17,1.16 90 0 0 -1.16,-1.17 l -59.45,0.03 -7.75,-0.33 q -0.33,-0.01 -0.33,0.32 v 0.45 q 0,0.3 -0.29,0.26 -0.38,-0.04 -0.79,0.11 -0.55,-0.84 -1.49,-0.84 -30.09,-0.03 -60.23,0 -0.58,0 -0.57,0.58 l 0.1,8.4 -0.18,9.82 0.06,26.5 0.14,20.92 -0.27,22.39 a 1.07,1.05 20.7 0 0 0.39,0.84 l 3.2,2.6 -3.9,3.68 q -0.36,0.35 -0.36,0.86 l 0.12,20.93 q 1.17,4.81 0.33,10.94 -0.57,6.67 0.01,14.03 0.03,0.36 0.49,0.53 -0.49,0.75 -0.39,1.31 c 0.73,4.06 0.15,9.95 -0.05,13.9 q -0.12,10.43 -0.09,20.35 c 0,0.65 0.29,0.99 0.7,1.41 l -0.2,0.29 q -0.23,0.33 -0.23,0.73 v 68.48 a 0.48,0.45 23.7 0 0 0.14,0.33 q 0.25,0.25 0.22,0.07 -0.71,0.95 -0.58,1.84 c 0.24,1.75 -0.41,9.57 -0.15,10.1 q 0.23,0.46 0.62,0.46 c -1.82,2.73 -0.67,18 -0.5,21.96 l 0.23,14.67 q -0.89,7.29 -0.14,14.56 l 0.13,14.93 a 0.58,0.58 0 0 0 0.58,0.57 l 64.49,-0.01 q 4.37,2.78 4.59,6.01 H 54.64 a 1.12,1.12 0 0 1 -1.12,-1.12 l 0.05,-28.31 q 4.77,-1.05 10.43,-0.36 -1.08,2.59 -3.14,3.95 a 2.53,2.52 -16.9 0 0 -1.13,2.1 l -0.02,17.02 a 0.72,0.71 0 0 0 0.72,0.71 l 51.29,-0.08 10.01,0.06 69.67,0.03 a 0.43,0.43 0 0 0 0.43,-0.43 l -0.16,-17.29 0.07,-21.27 0.05,-31.03 -0.06,-9.98 q 0.71,-24.69 -0.04,-50.44 l -0.12,-21.14 q 1,-3.99 -0.16,-8.66 0.47,-0.83 0.26,-2.16 l -0.27,-14.31 q 1.52,-8.34 -0.06,-15.43 l 0.19,-21.08 q 0.88,-8.46 0.3,-17.52 l -0.09,-10.02 -0.01,-51.99 -0.1,-21.28 q 0.91,-2.1 -0.15,-5.19 l 0.37,-13.66 a 1.44,1.44 0 0 0 -1.55,-1.47 q -6.83,0.53 -14.1,-0.6 L 342.22,9.7 q 0.57,0 0.57,0.57 z"
       id="path216" /><path
       fill="#1a270d"
       d="m 276.33,15.79 19.32,19.49 q -5,0.94 -9.71,0.29 L 267.17,16.6 q 0.41,-0.15 0.79,-0.11 0.29,0.04 0.29,-0.26 v -0.45 q 0,-0.33 0.33,-0.32 z"
       id="path217" /><path
       fill="#283c14"
       d="m 117.53,15.87 -6.03,6.08 q -0.44,0.44 -1.05,0.45 L 95.8,22.55 a 2.35,2.34 21.7 0 0 -1.66,0.71 L 83.42,34.34 A 2.2,2.17 21.7 0 1 81.85,35 H 68.47 q -0.54,0 -0.91,0.38 l -7.85,8 0.14,-27.06 q 0.01,-0.53 0.54,-0.53 z"
       id="path218" /><path
       fill="#283c14"
       d="m 189.49,25.55 -28.38,28.67 -11.58,0.17 a 1.22,1.18 20.8 0 0 -0.84,0.36 q -4.9,5.06 -9.78,10.18 c -2.37,2.49 -4.57,2.53 -7.71,1.92 a 0.97,0.94 73.8 0 1 -0.54,-0.31 l -3.67,-4.17 A 1.07,1.05 69.1 0 0 126.19,62 h -15.04 q -0.49,0 -0.84,-0.35 l -4.5,-4.4 a 0.99,0.99 0 0 0 -0.7,-0.29 l -17.05,-0.02 19.43,-19.65 12.46,-0.21 a 1.39,1.38 20.8 0 0 0.99,-0.44 l 19.35,-20.59 a 0.97,0.94 20.9 0 1 0.7,-0.3 h 5.6 a 1.56,1.55 -27.4 0 1 0.89,0.28 l 12.78,9.04 q 0.5,0.36 1.11,0.36 z"
       id="path219" /><path
       fill="#324b19"
       d="m 267.17,16.6 18.77,18.97 -6.06,-0.01 a 1.09,1.06 67.4 0 1 -0.77,-0.33 l -7.14,-7.14 a 1.21,1.18 66.6 0 0 -0.83,-0.34 h -15.83 a 3.41,3.4 22.2 0 0 -2.43,1.02 l -14.26,14.55 a 1.12,1.1 -66.9 0 1 -0.82,0.34 l -14.24,-0.25 -18.58,-18.67 -0.1,-8.4 q -0.01,-0.58 0.57,-0.58 30.14,-0.03 60.23,0 0.94,0 1.49,0.84 z"
       id="path220" /><path
       fill="#324b19"
       d="m 276.33,15.79 59.45,-0.03 a 1.17,1.16 -90 0 1 1.16,1.17 l -0.11,55.48 -10.34,-10.26 q -0.37,-0.36 -0.89,-0.39 l -3.71,-0.22 -6.36,-6.21 -19.88,-20.05 z"
       id="path221" /><path
       fill="#1a270d"
       d="m 204.98,24.74 18.58,18.67 q -3.05,1.05 -5.55,4.44 L 204.8,34.56 Z"
       id="path222" /><path
       fill="#1a270d"
       d="m 189.49,25.55 1.99,-0.03 q 1.06,3.09 0.15,5.19 -20.8,18.72 -26.69,23.48 -1.08,0.86 -3.83,0.03 z"
       id="path223" /><path
       fill="#000000"
       d="m 285.94,35.57 q 4.71,0.65 9.71,-0.29 l 19.88,20.05 -8.93,0.41 -14.79,0.03 q -0.57,0 -0.98,-0.39 l -4.57,-4.34 a 1.04,1.03 -22.8 0 0 -0.72,-0.29 h -15.05 a 1.18,1.16 68.8 0 1 -0.87,-0.39 l -3.61,-4.14 q -0.4,-0.47 -1.02,-0.47 h -4.76 a 0.99,0.96 -67.5 0 0 -0.7,0.3 l -11.48,11.92 q -0.36,0.38 -0.89,0.39 l -8.15,0.14 q -5.97,-1.12 -8.95,1.16 L 205,81.98 204.86,61.06 218.01,47.85 q 2.5,-3.39 5.55,-4.44 l 14.24,0.25 a 1.12,1.1 -66.9 0 0 0.82,-0.34 l 14.26,-14.55 a 3.41,3.4 22.2 0 1 2.43,-1.02 h 15.83 a 1.21,1.18 66.6 0 1 0.83,0.34 l 7.14,7.14 a 1.09,1.06 67.4 0 0 0.77,0.33 z m 18.92,15.38 a 0.19,0.19 0 0 1 -0.07,-0.04 l -10.97,-11.1 a 0.19,0.19 0 0 0 -0.14,-0.06 h -15.73 a 0.19,0.19 0 0 1 -0.14,-0.06 l -7.87,-7.88 a 0.19,0.19 0 0 0 -0.14,-0.06 h -14.09 a 0.19,0.19 0 0 0 -0.14,0.06 l -15.89,15.88 a 0.19,0.19 0 0 1 -0.14,0.06 H 223.7 a 0.19,0.19 0 0 0 -0.14,0.06 l -14.59,14.61 a 0.19,0.19 0 0 0 -0.06,0.14 l 0.13,10.14 a 0.19,0.19 0 0 0 0.32,0.14 L 230.07,54.3 a 0.19,0.19 0 0 1 0.12,-0.05 h 15.8 a 0.19,0.19 0 0 0 0.14,-0.06 l 11.88,-12.38 a 0.19,0.19 0 0 1 0.14,-0.06 h 9.2 a 0.19,0.19 0 0 1 0.15,0.07 l 4.18,4.82 a 0.19,0.19 0 0 0 0.15,0.07 l 15.71,0.06 a 0.19,0.19 0 0 1 0.14,0.05 l 4.94,4.89 a 0.19,0.19 0 0 0 0.14,0.05 l 13.3,-0.03 a 0.19,0.19 0 0 0 0.06,-0.37 z"
       id="path224" /><path
       fill="#000000"
       d="m 191.63,30.71 0.1,21.28 -16.63,16.57 A 1.52,1.5 22.1 0 1 174.03,69 h -14.27 a 2.78,2.75 -67.1 0 0 -1.94,0.8 l -14.66,14.67 q -0.39,0.38 -0.93,0.46 L 139.76,85.3 129.7,85.34 125.41,85 a 1.04,1.03 69.7 0 1 -0.65,-0.3 l -6.67,-6.74 A 3.24,3.23 67.6 0 0 115.79,77 h -14.25 q -0.43,0 -0.74,-0.31 L 84.63,60.52 81.93,57.99 A 0.57,0.57 0 0 1 82.32,57 l 5.74,-0.06 17.05,0.02 a 0.99,0.99 0 0 1 0.7,0.29 l 4.5,4.4 q 0.35,0.35 0.84,0.35 h 15.04 a 1.07,1.05 69.1 0 1 0.8,0.37 l 3.67,4.17 a 0.97,0.94 73.8 0 0 0.54,0.31 c 3.14,0.61 5.34,0.57 7.71,-1.92 q 4.88,-5.12 9.78,-10.18 a 1.22,1.18 20.8 0 1 0.84,-0.36 l 11.58,-0.17 q 2.75,0.83 3.83,-0.03 5.89,-4.76 26.69,-23.48 z m -3.89,9.72 a 0.39,0.39 0 0 0 -0.65,-0.29 l -20.63,18.33 a 0.39,0.39 0 0 1 -0.26,0.1 l -15.27,-0.3 a 0.39,0.39 0 0 0 -0.29,0.12 L 138.6,70.88 A 0.39,0.39 0 0 1 138.31,71 H 129.3 A 0.39,0.39 0 0 1 129,70.86 l -4,-4.66 a 0.39,0.39 0 0 0 -0.3,-0.14 l -15.56,-0.07 a 0.39,0.39 0 0 1 -0.27,-0.11 l -4.96,-4.78 a 0.39,0.39 0 0 0 -0.27,-0.11 L 91.8,61.05 a 0.39,0.39 0 0 0 -0.27,0.66 l 11.25,11.18 a 0.39,0.39 0 0 0 0.27,0.11 h 15.61 a 0.39,0.39 0 0 1 0.27,0.12 l 7.55,7.76 a 0.39,0.39 0 0 0 0.27,0.12 h 14.23 a 0.39,0.39 0 0 0 0.27,-0.12 L 156.93,65.12 A 0.39,0.39 0 0 1 157.2,65 h 15.55 a 0.39,0.39 0 0 0 0.27,-0.11 l 14.62,-14.68 a 0.39,0.39 0 0 0 0.11,-0.27 z"
       id="path225" /><path
       fill="#25310d"
       d="m 304.86,50.95 1.26,0.41 a 0.19,0.19 0 0 1 -0.06,0.37 l -13.3,0.03 a 0.19,0.19 0 0 1 -0.14,-0.05 l -4.94,-4.89 a 0.19,0.19 0 0 0 -0.14,-0.05 l -15.71,-0.06 a 0.19,0.19 0 0 1 -0.15,-0.07 l -4.18,-4.82 a 0.19,0.19 0 0 0 -0.15,-0.07 h -9.2 a 0.19,0.19 0 0 0 -0.14,0.06 l -11.88,12.38 a 0.19,0.19 0 0 1 -0.14,0.06 h -15.8 a 0.19,0.19 0 0 0 -0.12,0.05 l -20.71,18.54 a 0.19,0.19 0 0 1 -0.32,-0.14 l -0.13,-10.14 a 0.19,0.19 0 0 1 0.06,-0.14 l 14.59,-14.61 a 0.19,0.19 0 0 1 0.14,-0.06 h 15.84 a 0.19,0.19 0 0 0 0.14,-0.06 l 15.89,-15.88 a 0.19,0.19 0 0 1 0.14,-0.06 h 14.09 a 0.19,0.19 0 0 1 0.14,0.06 l 7.87,7.88 a 0.19,0.19 0 0 0 0.14,0.06 h 15.73 a 0.19,0.19 0 0 1 0.14,0.06 l 10.97,11.1 a 0.19,0.19 0 0 0 0.07,0.04 z"
       id="path226" /><path
       fill="#324b19"
       d="m 204.8,34.56 13.21,13.29 -13.15,13.21 z"
       id="path227" /><path
       fill="#1a270d"
       d="M 107.49,37.29 88.06,56.94 82.32,57 a 0.57,0.57 0 0 0 -0.39,0.99 l 2.7,2.53 L 59.78,85.25 59.8,75.21 81.53,53.35 88.7,52.63 a 1.25,1.24 -70 0 0 0.77,-0.36 q 5.76,-5.67 11.39,-11.28 c 2.14,-2.13 3.2,-4.23 6.63,-3.7 z"
       id="path228" /><path
       fill="#25310d"
       d="m 187.74,40.43 0.01,9.51 a 0.39,0.39 0 0 1 -0.11,0.27 L 173.02,64.89 A 0.39,0.39 0 0 1 172.75,65 H 157.2 a 0.39,0.39 0 0 0 -0.27,0.12 L 141.25,80.88 A 0.39,0.39 0 0 1 140.98,81 h -14.23 a 0.39,0.39 0 0 1 -0.27,-0.12 l -7.55,-7.76 A 0.39,0.39 0 0 0 118.66,73 h -15.61 a 0.39,0.39 0 0 1 -0.27,-0.11 L 91.53,61.71 a 0.39,0.39 0 0 1 0.27,-0.66 l 11.84,-0.06 a 0.39,0.39 0 0 1 0.27,0.11 l 4.96,4.78 a 0.39,0.39 0 0 0 0.27,0.11 l 15.56,0.07 a 0.39,0.39 0 0 1 0.3,0.14 l 4,4.66 a 0.39,0.39 0 0 0 0.3,0.14 h 9.01 a 0.39,0.39 0 0 0 0.29,-0.12 l 12.04,-12.49 a 0.39,0.39 0 0 1 0.29,-0.12 l 15.27,0.3 a 0.39,0.39 0 0 0 0.26,-0.1 l 20.63,-18.33 a 0.39,0.39 0 0 1 0.65,0.29 z"
       id="path229" /><path
       fill="#324b19"
       d="m 306.6,55.74 5.32,5.92 -3.32,0.09 a 1.25,1.24 -68.6 0 0 -0.88,0.39 l -6.97,7.24 a 0.69,0.68 21.3 0 1 -0.46,0.2 l -22.58,0.6 q -0.71,0.02 -1.19,0.54 l -7.1,7.74 q -0.34,0.37 -0.84,0.42 -5.67,0.54 -9.95,-0.36 l -19.62,-20.02 8.15,-0.14 q 0.53,-0.01 0.89,-0.39 l 11.48,-11.92 a 0.99,0.96 -67.5 0 1 0.7,-0.3 h 4.76 q 0.62,0 1.02,0.47 l 3.61,4.14 a 1.18,1.16 68.8 0 0 0.87,0.39 h 15.05 a 1.04,1.03 -22.8 0 1 0.72,0.29 l 4.57,4.34 q 0.41,0.39 0.98,0.39 z"
       id="path230" /><path
       fill="#283c14"
       d="m 191.73,51.99 0.01,51.99 -14.11,13.78 -3.11,-2.98 a 1,0.99 66.8 0 0 -0.69,-0.28 h -15.06 a 1,0.96 66 0 1 -0.68,-0.28 L 142.7,98.82 a 1.1,1.07 66.5 0 0 -0.79,-0.32 c -3.28,0.01 -11.34,0.99 -13.42,-1.55 l 11.27,-11.65 2.47,-0.37 q 0.54,-0.08 0.93,-0.46 L 157.82,69.8 a 2.78,2.75 -67.1 0 1 1.94,-0.8 h 14.27 a 1.52,1.5 22.1 0 0 1.07,-0.44 z"
       id="path231" /><path
       fill="#283c14"
       d="M 81.53,53.35 59.8,75.21 59.7,61.67 64.28,61.7 q 0.47,0 0.79,-0.35 l 7.13,-7.72 a 1.18,1.18 0 0 1 0.9,-0.39 z"
       id="path232" /><path
       fill="#1a270d"
       d="m 315.53,55.33 6.36,6.21 -9.97,0.12 -5.32,-5.92 z"
       id="path233" /><path
       fill="#1a270d"
       d="m 239.01,58.5 19.62,20.02 -4.98,0.51 q -0.51,0.05 -0.9,0.37 l -1.68,1.35 -21.01,-21.09 q 2.98,-2.28 8.95,-1.16 z"
       id="path234" /><path
       fill="#324b19"
       d="m 230.06,59.66 21.01,21.09 -13.52,13.83 q -0.41,0.42 -1,0.42 H 221.5 q -0.48,0 -0.81,0.34 l -12.37,12.47 -3.2,-2.6 a 1.07,1.05 20.7 0 1 -0.39,-0.84 L 205,81.98 Z"
       id="path235" /><path
       fill="#283c14"
       d="m 84.63,60.52 16.17,16.17 q 0.31,0.31 0.74,0.31 h 14.25 a 3.24,3.23 67.6 0 1 2.3,0.96 l 6.67,6.74 a 1.04,1.03 69.7 0 0 0.65,0.3 l 4.29,0.34 -7.25,7.53 c -4.21,-3.42 -11.74,-2.11 -16.95,-2.13 a 1.1,1.08 -66.7 0 0 -0.76,0.31 l -25.51,24.73 q -0.74,0.72 -1.77,0.72 H 63.01 a 1.48,1.47 -64.7 0 0 -0.94,0.34 l -2.37,1.98 0.08,-33.57 z"
       id="path236" /><path
       fill="#000000"
       d="m 321.89,61.54 3.71,0.22 q 0.52,0.03 0.89,0.39 l 10.34,10.26 5.91,5.29 14.67,0.19 a 1.03,1.02 -21.1 0 1 0.71,0.31 l 16.18,16.44 q 0.37,0.37 0.37,0.9 l 0.27,18.94 a 0.61,0.61 0 0 1 -1.02,0.46 q -9.78,-8.99 -19.85,-18.07 c -4.08,-3.68 -5.62,-5.84 -10.72,-4.7 q -0.41,0.09 -0.46,1.11 l -0.1,-0.51 q -0.11,-0.56 -0.67,-0.53 l -5.23,0.24 -4.13,-0.22 q -0.55,-0.03 -0.94,-0.43 L 320.6,80.2 q -0.44,-0.45 -1.07,-0.45 h -4.63 q -0.64,0 -1.07,0.48 l -3.39,3.88 a 1.04,1.02 -69.2 0 1 -0.74,0.34 l -15.1,0.18 q -0.51,0 -0.89,0.36 l -4.86,4.58 a 0.87,0.82 22.8 0 1 -0.61,0.23 l -6.83,-0.21 A 1.28,1.28 0 0 0 280.45,90 l -4.86,5.26 c -1.79,2.55 -4.71,1.69 -7.7,2.34 q -3.7,-1.18 -8.88,-0.39 a 1.19,1.15 -71.4 0 0 -0.64,0.33 l -11.47,11.77 a 0.76,0.75 -66.4 0 1 -0.52,0.21 l -15.14,0.05 q -0.47,0 -0.82,0.31 l -10.84,9.68 -5.49,4.75 -9.91,8.97 -0.12,-20.93 q 0,-0.51 0.36,-0.86 l 3.9,-3.68 12.37,-12.47 Q 221.02,95 221.5,95 h 15.05 q 0.59,0 1,-0.42 l 13.52,-13.83 1.68,-1.35 q 0.39,-0.32 0.9,-0.37 l 4.98,-0.51 q 4.28,0.9 9.95,0.36 0.5,-0.05 0.84,-0.42 l 7.1,-7.74 q 0.48,-0.52 1.19,-0.54 l 22.58,-0.6 a 0.69,0.68 21.3 0 0 0.46,-0.2 l 6.97,-7.24 a 1.25,1.24 -68.6 0 1 0.88,-0.39 l 3.32,-0.09 z m 48.75,34.75 -13.72,-13.93 q -0.38,-0.38 -0.9,-0.47 c -5.13,-0.83 -10.27,-0.02 -15.51,-0.37 q -0.5,-0.03 -0.85,-0.39 l -14.67,-14.8 a 1.96,1.94 -22 0 0 -1.39,-0.58 h -13.24 a 1.2,1.15 -66.6 0 0 -0.83,0.35 l -6.9,6.89 q -0.56,0.57 -1.36,0.59 l -22.09,0.64 q -0.59,0.02 -0.99,0.46 l -7.23,7.98 A 1.05,1.01 -68.2 0 1 270.2,83 h -14.95 a 1.5,1.5 0 0 0 -1.06,0.44 L 239.27,98.35 A 2.22,2.19 -67.2 0 1 237.71,99 h -14.69 a 1.09,1.04 21.2 0 0 -0.77,0.32 l -13.45,13.65 a 2.78,2.75 -22.9 0 0 -0.8,1.94 v 8.85 a 0.29,0.29 0 0 0 0.49,0.22 l 20.28,-18.09 a 1.53,1.5 23.4 0 1 1.02,-0.39 h 14.78 q 0.53,0 0.9,-0.38 l 10.89,-11.3 A 2.64,2.63 -68.2 0 1 258.27,93 h 13.45 a 1.02,1.01 21.5 0 0 0.74,-0.32 l 6.16,-6.54 a 0.7,0.7 0 0 1 0.39,-0.21 q 2.57,-0.52 5.73,-0.1 c 3.17,0.43 5.2,-3.19 7.43,-4.97 q 0.45,-0.36 1.03,-0.36 h 14.78 q 0.41,0 0.67,-0.32 L 312.17,76 a 0.94,0.93 -69.3 0 1 0.74,-0.34 l 8.56,0.13 a 1.05,1.05 0 0 1 0.73,0.32 l 11.39,11.77 q 0.36,0.37 0.88,0.37 h 14.94 a 1.55,1.52 65.3 0 1 1.02,0.39 l 19.78,17.77 a 0.42,0.42 0 0 0 0.7,-0.31 l -0.03,-9.23 a 0.87,0.81 24.5 0 0 -0.24,-0.58 z"
       id="path237" /><path
       fill="#141414"
       d="m 59.7,61.67 0.1,13.54 -0.02,10.04 -0.08,33.57 -6.18,6.55 -0.01,-63.5 z"
       id="path238" /><path
       fill="#25310d"
       d="m 356.92,82.36 13.72,13.93 a 0.87,0.81 24.5 0 1 0.24,0.58 l 0.03,9.23 a 0.42,0.42 0 0 1 -0.7,0.31 L 350.43,88.64 a 1.55,1.52 65.3 0 0 -1.02,-0.39 h -14.94 q -0.52,0 -0.88,-0.37 L 322.2,76.11 a 1.05,1.05 0 0 0 -0.73,-0.32 l -8.56,-0.13 A 0.94,0.93 -69.3 0 0 312.17,76 l -3.52,4.18 q -0.26,0.32 -0.67,0.32 H 293.2 q -0.58,0 -1.03,0.36 c -2.23,1.78 -4.26,5.4 -7.43,4.97 q -3.16,-0.42 -5.73,0.1 a 0.7,0.7 0 0 0 -0.39,0.21 l -6.16,6.54 A 1.02,1.01 21.5 0 1 271.72,93 h -13.45 a 2.64,2.63 -68.2 0 0 -1.91,0.82 l -10.89,11.3 q -0.37,0.38 -0.9,0.38 h -14.78 a 1.53,1.5 23.4 0 0 -1.02,0.39 l -20.28,18.09 A 0.29,0.29 0 0 1 208,123.76 v -8.85 a 2.78,2.75 -22.9 0 1 0.8,-1.94 L 222.25,99.32 A 1.09,1.04 21.2 0 1 223.02,99 h 14.69 a 2.22,2.19 -67.2 0 0 1.56,-0.65 L 254.19,83.44 A 1.5,1.5 0 0 1 255.25,83 h 14.95 a 1.05,1.01 -68.2 0 0 0.76,-0.34 l 7.23,-7.98 q 0.4,-0.44 0.99,-0.46 l 22.09,-0.64 q 0.8,-0.02 1.36,-0.59 l 6.9,-6.89 a 1.2,1.15 -66.6 0 1 0.83,-0.35 h 13.24 a 1.96,1.94 -22 0 1 1.39,0.58 l 14.67,14.8 q 0.35,0.36 0.85,0.39 c 5.24,0.35 10.38,-0.46 15.51,0.37 q 0.52,0.09 0.9,0.47 z"
       id="path239" /><path
       fill="#324b19"
       d="m 336.89,92.48 -0.04,64.25 -61.26,-61.47 4.86,-5.26 a 1.28,1.28 0 0 1 0.96,-0.41 l 6.83,0.21 a 0.87,0.82 22.8 0 0 0.61,-0.23 l 4.86,-4.58 q 0.38,-0.36 0.89,-0.36 l 15.1,-0.18 a 1.04,1.02 -69.2 0 0 0.74,-0.34 l 3.39,-3.88 q 0.43,-0.48 1.07,-0.48 h 4.63 q 0.63,0 1.07,0.45 l 11.22,11.63 q 0.39,0.4 0.94,0.43 z"
       id="path240" /><path
       fill="#1a270d"
       d="m 139.76,85.3 -11.27,11.65 -6.04,-4.08 7.25,-7.53 z"
       id="path241" /><path
       fill="#000000"
       d="m 122.45,92.87 6.04,4.08 c 2.08,2.54 10.14,1.56 13.42,1.55 a 1.1,1.07 66.5 0 1 0.79,0.32 l 15.39,15.4 a 1,0.96 66 0 0 0.68,0.28 h 15.06 a 1,0.99 66.8 0 1 0.69,0.28 l 3.11,2.98 5.21,5.11 8.69,8.65 -0.19,21.08 -20.32,-18.02 -5.17,-4.91 -16.28,-0.35 a 1.39,1.39 0 0 1 -0.98,-0.43 l -11.38,-11.75 q -0.44,-0.45 -1.07,-0.46 l -6.61,-0.1 a 0.96,0.92 61.8 0 1 -0.55,-0.18 l -11.65,-8.43 q -5.77,-1.75 -9.32,2.29 -4.71,5.35 -19.44,20.31 -0.35,0.36 -0.85,0.41 l -3.92,0.33 -11.22,-0.1 a 1.23,1.2 -67 0 0 -0.86,0.36 l -12.11,12.49 q -2.64,3.48 -6.11,2.99 L 44.04,147 a 1.43,1.43 0 0 0 -0.89,0.31 q -4.37,3.46 -9.08,6.37 c -3.31,2.04 -11.12,1.08 -14.95,0.75 a 1.26,1.24 -16.4 0 1 -0.86,-0.46 L 1.12,132.65 a 0.57,0.57 0 0 1 0.44,-0.92 l 16.91,0.07 q 0.6,0 0.99,0.46 l 4.59,5.61 q 0.32,0.38 0.82,0.38 h 5.63 a 1.62,1.58 26.2 0 0 0.95,-0.31 l 11.36,-8.42 a 1.41,1.4 26.8 0 1 0.83,-0.27 c 4.11,0 8.13,1.11 9.88,-3.88 l 6.18,-6.55 2.37,-1.98 a 1.48,1.47 -64.7 0 1 0.94,-0.34 h 14.45 q 1.03,0 1.77,-0.72 l 25.51,-24.73 a 1.1,1.08 -66.7 0 1 0.76,-0.31 c 5.21,0.02 12.74,-1.29 16.95,2.13 z m 33.88,25.34 -14.96,-15.19 q -0.39,-0.4 -0.95,-0.4 l -11.19,-0.1 a 0.5,0.48 -24.9 0 1 -0.3,-0.1 l -10.48,-7.37 a 1.67,1.65 62.1 0 0 -0.95,-0.3 h -9.71 a 3.02,3.02 0 0 0 -2.11,0.86 l -25.13,24.51 q -0.39,0.38 -0.93,0.38 H 64.71 a 1.48,1.45 21.5 0 0 -1.06,0.45 l -11.09,11.67 a 1.27,1.25 22.1 0 1 -0.97,0.4 c -3.15,-0.11 -6.12,-0.5 -8.88,1.39 -7.04,4.83 -10.72,10.15 -20.28,7.37 q -0.48,-0.14 -0.8,-0.54 l -3.9,-4.91 q -0.36,-0.45 -0.94,-0.46 l -7.44,-0.15 a 0.41,0.4 71.2 0 0 -0.32,0.66 l 11.07,13.84 a 1.12,1.1 72.6 0 0 0.81,0.43 c 4.1,0.32 9.91,0.82 13.46,-1.65 q 3.49,-2.41 6.82,-4.84 A 6.02,5.97 26.7 0 1 44.74,143 h 8.76 q 1.14,0 1.95,-0.81 L 70.18,127.44 A 1.5,1.5 0 0 1 71.24,127 H 85.2 a 3.1,3.07 21.6 0 0 2.24,-0.96 l 21.16,-22.15 a 1.26,1.25 21.6 0 1 0.91,-0.39 h 8.5 a 0.96,0.95 -26.9 0 1 0.56,0.18 l 11.69,8.58 q 0.39,0.29 0.87,0.31 l 7.05,0.26 q 0.51,0.02 0.86,0.39 l 11.26,11.73 q 0.28,0.3 0.7,0.3 h 15.05 a 1.39,1.36 65.1 0 1 0.9,0.34 l 19.8,17.73 q 0.83,0.75 0.82,-0.37 l -0.08,-9.09 a 1.17,1.16 23.2 0 0 -0.33,-0.81 l -14.2,-14.22 a 0.99,0.99 0 0 0 -0.7,-0.29 h -15.15 q -0.46,0 -0.78,-0.33 z"
       id="path242" /><path
       fill="#141414"
       d="m 342.89,93.28 0.21,95.28 -6.02,5.74 q -0.14,-13.89 -0.08,-27.05 0.01,-1.11 -0.88,-1.33 1.31,-5.41 0.73,-9.19 l 0.04,-64.25 5.23,-0.24 q 0.56,-0.03 0.67,0.53 z"
       id="path243" /><path
       fill="#25310d"
       d="m 141.37,103.02 14.96,15.19 q 0.32,0.33 0.78,0.33 h 15.15 a 0.99,0.99 0 0 1 0.7,0.29 l 14.2,14.22 a 1.17,1.16 23.2 0 1 0.33,0.81 l 0.08,9.09 q 0.01,1.12 -0.82,0.37 l -19.8,-17.73 a 1.39,1.36 65.1 0 0 -0.9,-0.34 H 151 q -0.42,0 -0.7,-0.3 l -11.26,-11.73 q -0.35,-0.37 -0.86,-0.39 l -7.05,-0.26 q -0.48,-0.02 -0.87,-0.31 l -11.69,-8.58 a 0.96,0.95 -26.9 0 0 -0.56,-0.18 h -8.5 a 1.26,1.25 21.6 0 0 -0.91,0.39 L 87.44,126.04 A 3.1,3.07 21.6 0 1 85.2,127 H 71.24 a 1.5,1.5 0 0 0 -1.06,0.44 L 55.45,142.19 Q 54.64,143 53.5,143 h -8.76 a 6.02,5.97 26.7 0 0 -3.55,1.16 q -3.33,2.43 -6.82,4.84 c -3.55,2.47 -9.36,1.97 -13.46,1.65 A 1.12,1.1 72.6 0 1 20.1,150.22 L 9.03,136.38 a 0.41,0.4 71.2 0 1 0.32,-0.66 l 7.44,0.15 q 0.58,0.01 0.94,0.46 l 3.9,4.91 q 0.32,0.4 0.8,0.54 c 9.56,2.78 13.24,-2.54 20.28,-7.37 2.76,-1.89 5.73,-1.5 8.88,-1.39 a 1.27,1.25 22.1 0 0 0.97,-0.4 l 11.09,-11.67 a 1.48,1.45 21.5 0 1 1.06,-0.45 h 14.91 q 0.54,0 0.93,-0.38 l 25.13,-24.51 a 3.02,3.02 0 0 1 2.11,-0.86 h 9.71 a 1.67,1.65 62.1 0 1 0.95,0.3 l 10.48,7.37 a 0.5,0.48 -24.9 0 0 0.3,0.1 l 11.19,0.1 q 0.56,0 0.95,0.4 z"
       id="path244" /><path
       fill="#1a270d"
       d="m 275.59,95.26 61.26,61.47 q 0.58,3.78 -0.73,9.19 L 267.89,97.6 c 2.99,-0.65 5.91,0.21 7.7,-2.34 z"
       id="path245" /><path
       fill="#324b19"
       d="m 267.89,97.6 68.23,68.32 q 0.89,0.22 0.88,1.33 -0.06,13.16 0.08,27.05 0.34,-0.06 -0.42,0.67 -0.29,0.28 -0.69,0.28 h -21.43 a 1.03,1.03 0 0 0 -0.8,0.38 l -7.95,9.8 q -0.22,0.26 -0.56,0.26 -0.25,0.01 -0.45,-0.1 l -0.31,-0.74 q -0.19,-0.44 -0.53,-0.78 l -54.83,-54.85 5.73,-0.22 q 0.53,-0.02 0.88,0.38 l 3.46,3.98 q 0.34,0.39 0.86,0.39 h 18.21 q 0.66,0 0.23,-0.5 l -16.99,-19.77 q -0.2,-0.23 -0.51,-0.23 h -16.5 a 1.58,1.57 -61.8 0 0 -0.88,0.27 l -5.95,4.05 -18.07,-18.01 10.84,-9.68 q 0.35,-0.31 0.82,-0.31 l 15.14,-0.05 a 0.76,0.75 -66.4 0 0 0.52,-0.21 l 11.47,-11.77 a 1.19,1.15 -71.4 0 1 0.64,-0.33 q 5.18,-0.79 8.88,0.39 z"
       id="path246" /><path
       fill="#1a270d"
       d="m 191.74,103.98 0.09,10.02 -8.99,8.87 -5.21,-5.11 z"
       id="path247" /><path
       fill="#1a270d"
       d="m 117.33,107.97 -57.49,57.51 -0.08,-10.07 24.04,-24.1 3.92,-0.33 q 0.5,-0.05 0.85,-0.41 14.73,-14.96 19.44,-20.31 3.55,-4.04 9.32,-2.29 z"
       id="path248" /><path
       fill="#283c14"
       d="m 117.33,107.97 11.65,8.43 a 0.96,0.92 61.8 0 0 0.55,0.18 l 6.61,0.1 q 0.63,0.01 1.07,0.46 l 11.38,11.75 a 1.39,1.39 0 0 0 0.98,0.43 l 16.28,0.35 -42.67,42.81 -5.07,0.21 a 0.54,0.53 -21.1 0 0 -0.39,0.88 l 1.81,2.12 -59.06,59.54 q -0.25,0.26 -0.61,0.27 -0.17,0 -0.33,0 l 0.31,-70.02 z"
       id="path249" /><path
       fill="#283c14"
       d="m 191.83,114 q 0.58,9.06 -0.3,17.52 l -8.69,-8.65 z"
       id="path250" /><path
       fill="#1a270d"
       d="m 219.58,119.56 18.07,18.01 -6.08,4.14 -17.48,-17.4 z"
       id="path251" /><path
       fill="#324b19"
       d="m 214.09,124.31 17.48,17.4 c -1.77,1.59 -3.06,2.61 -5.61,2.59 q -10.42,-0.08 -21.45,-0.08 0.84,-6.13 -0.33,-10.94 z"
       id="path252" /><path
       fill="#1a270d"
       d="m 165.85,129.67 5.17,4.91 -37.99,38.04 -9.85,-0.14 z"
       id="path253" /><path
       fill="#283c14"
       d="m 83.8,131.31 -24.04,24.1 -0.15,-11.35 12.11,-12.49 a 1.23,1.2 -67 0 1 0.86,-0.36 z"
       id="path254" /><path
       fill="#000000"
       d="m 249.11,149.22 -5.92,4.09 -7.45,5.14 q -0.42,0.28 -0.92,0.28 l -29.81,0.05 q -0.46,-0.17 -0.49,-0.53 -0.58,-7.36 -0.01,-14.03 11.03,0 21.45,0.08 c 2.55,0.02 3.84,-1 5.61,-2.59 l 6.08,-4.14 5.95,-4.05 a 1.58,1.57 -61.8 0 1 0.88,-0.27 h 16.5 q 0.31,0 0.51,0.23 l 16.99,19.77 q 0.43,0.5 -0.23,0.5 h -18.21 q -0.52,0 -0.86,-0.39 l -3.46,-3.98 q -0.35,-0.4 -0.88,-0.38 z m -19.88,-0.97 a 0.35,0.35 0 0 1 -0.2,0.06 l -20.18,-0.09 a 0.35,0.35 0 0 0 -0.35,0.35 v 5.83 a 0.35,0.35 0 0 0 0.35,0.35 h 25.13 a 0.35,0.35 0 0 0 0.2,-0.06 l 13.41,-9.52 a 0.35,0.35 0 0 1 0.18,-0.06 l 8.99,-0.35 a 0.35,0.35 0 0 1 0.28,0.11 l 4.24,4.76 a 0.35,0.35 0 0 0 0.26,0.12 h 7.86 a 0.35,0.35 0 0 0 0.26,-0.58 l -10.16,-11.8 a 0.35,0.35 0 0 0 -0.26,-0.12 h -13.89 a 0.35,0.35 0 0 0 -0.2,0.06 z"
       id="path255" /><path
       fill="#283c14"
       d="m 171.02,134.58 20.32,18.02 q 1.58,7.09 0.06,15.43 l -30.12,-0.02 q -0.5,0 -0.92,0.29 -6.03,4.08 -11.91,8.42 -2.89,2.13 -7.65,0.72 -0.43,-0.12 -0.71,-0.46 L 137,173.37 q -0.39,-0.47 -1,-0.39 -1.56,0.2 -2.97,-0.36 z"
       id="path256" /><path
       fill="#25310d"
       d="m 229.23,148.25 15.92,-10.94 a 0.35,0.35 0 0 1 0.2,-0.06 h 13.89 a 0.35,0.35 0 0 1 0.26,0.12 l 10.16,11.8 a 0.35,0.35 0 0 1 -0.26,0.58 h -7.86 a 0.35,0.35 0 0 1 -0.26,-0.12 l -4.24,-4.76 a 0.35,0.35 0 0 0 -0.28,-0.11 l -8.99,0.35 a 0.35,0.35 0 0 0 -0.18,0.06 l -13.41,9.52 a 0.35,0.35 0 0 1 -0.2,0.06 h -25.13 a 0.35,0.35 0 0 1 -0.35,-0.35 v -5.83 a 0.35,0.35 0 0 1 0.35,-0.35 l 20.18,0.09 a 0.35,0.35 0 0 0 0.2,-0.06 z"
       id="path257" /><path
       fill="#141414"
       d="m 59.61,144.06 0.15,11.35 0.08,10.07 -0.31,70.02 q -0.21,1.75 0.24,3.24 l -6.27,0.16 v -91.85 q 3.47,0.49 6.11,-2.99 z"
       id="path258" /><path
       fill="#1a270d"
       d="m 249.11,149.22 54.83,54.85 q 0.34,0.34 0.53,0.78 l 0.31,0.74 -9.22,0.19 -52.37,-52.47 z"
       id="path259" /><path
       fill="#324b19"
       d="m 243.19,153.31 52.37,52.47 -2.66,0.22 q -0.53,0.05 -0.91,0.41 l -12.33,11.76 q -0.42,0.41 -0.87,0.03 l -9.05,-7.61 q -0.4,-0.34 -0.93,-0.34 h -8.87 q -0.52,0 -0.89,-0.38 l -11.43,-11.78 q -0.37,-0.38 -0.9,-0.38 l -14.42,0.06 a 2.6,2.6 0 0 1 -1.73,-0.66 l -26,-23.12 c 0.2,-3.95 0.78,-9.84 0.05,-13.9 q -0.1,-0.56 0.39,-1.31 l 29.81,-0.05 q 0.5,0 0.92,-0.28 z"
       id="path260" /><path
       fill="#000000"
       d="m 191.4,168.03 0.27,14.31 -22.99,-0.08 a 1.2,1.15 -61.6 0 0 -0.68,0.22 l -15.27,10.55 q -0.38,0.26 -0.85,0.26 l -16.79,-0.02 a 0.98,0.97 -20.1 0 1 -0.74,-0.34 l -9.99,-11.71 -4.83,-5.53 -1.81,-2.12 a 0.54,0.53 -21.1 0 1 0.39,-0.88 l 5.07,-0.21 9.85,0.14 q 1.41,0.56 2.97,0.36 0.61,-0.08 1,0.39 l 3.09,3.61 q 0.28,0.34 0.71,0.46 4.76,1.41 7.65,-0.72 5.88,-4.34 11.91,-8.42 0.42,-0.29 0.92,-0.29 z m -56.27,19.46 c 0.78,0.83 0.84,1.77 2.3,1.8 q 6.59,0.15 13.25,-0.1 0.55,-0.03 1,-0.34 l 14.82,-10.26 q 0.47,-0.33 1.04,-0.33 l 19.6,0.02 q 0.62,0 0.61,-0.61 l -0.01,-5.05 A 0.74,0.74 0 0 0 187,171.88 l -24.55,0.15 q -0.52,0.01 -0.94,0.3 l -12.48,8.77 a 3.61,3.58 -62.3 0 1 -2.06,0.65 h -7.65 a 1.01,1 -19.3 0 1 -0.78,-0.37 l -3.3,-3.99 Q 134.92,177 134.42,177 h -7.65 q -0.73,0 -0.27,0.56 4.16,5.17 8.63,9.93 z"
       id="path261" /><path
       fill="#25310d"
       d="m 135.13,187.49 q -4.47,-4.76 -8.63,-9.93 -0.46,-0.56 0.27,-0.56 h 7.65 q 0.5,0 0.82,0.39 l 3.3,3.99 a 1.01,1 -19.3 0 0 0.78,0.37 h 7.65 a 3.61,3.58 -62.3 0 0 2.06,-0.65 l 12.48,-8.77 q 0.42,-0.29 0.94,-0.3 L 187,171.88 a 0.74,0.74 0 0 1 0.74,0.74 l 0.01,5.05 q 0.01,0.61 -0.61,0.61 l -19.6,-0.02 q -0.57,0 -1.04,0.33 l -14.82,10.26 q -0.45,0.31 -1,0.34 -6.66,0.25 -13.25,0.1 c -1.46,-0.03 -1.52,-0.97 -2.3,-1.8 z"
       id="path262" /><path
       fill="#000000"
       d="m 204.57,173.99 26,23.12 a 2.6,2.6 0 0 0 1.73,0.66 l 14.42,-0.06 q 0.53,0 0.9,0.38 l 11.43,11.78 q 0.37,0.38 0.89,0.38 h 8.87 q 0.53,0 0.93,0.34 l 9.05,7.61 q 0.45,0.38 0.87,-0.03 l 12.33,-11.76 q 0.38,-0.36 0.91,-0.41 l 2.66,-0.22 9.22,-0.19 q 0.2,0.11 0.45,0.1 0.34,0 0.56,-0.26 l 7.95,-9.8 a 1.03,1.03 0 0 1 0.8,-0.38 h 21.43 q 0.4,0 0.69,-0.28 0.76,-0.73 0.42,-0.67 l 6.02,-5.74 4.85,-4.14 q 0.5,-0.42 1.14,-0.42 h 22.32 a 1.37,1.37 0 0 1 1.05,0.49 l 13.62,15.88 a 0.38,0.38 0 0 1 -0.29,0.63 h -34.02 q -0.55,0 -0.95,0.39 l -7.56,7.54 a 0.89,0.89 0 0 0 -0.26,0.63 l 0.01,2.45 c -1.89,-0.67 -3.86,0.83 -6.23,0.39 l -13.47,-0.08 q -0.5,-0.01 -0.77,0.41 l -4.07,6.16 -8.81,0.74 c -3.35,-0.56 -6.75,-0.84 -9.52,1.63 q -10.18,9.09 -20.42,18.09 -0.4,0.35 -0.81,0.01 l -12.9,-10.77 q -0.41,-0.34 -0.94,-0.34 H 254 q -0.51,0 -0.88,-0.37 l -15.09,-15.26 a 1.19,1.17 -23.8 0 0 -0.9,-0.34 l -4.75,0.29 q -5.1,-1.06 -9.9,0.4 l -17.3,-17.22 c -0.41,-0.42 -0.7,-0.76 -0.7,-1.41 q -0.03,-9.92 0.09,-20.35 z m 172.74,22.19 q -3.8,-4.93 -6.58,-7.67 -0.69,-0.67 -1.86,-0.48 -1.33,0.22 -1.8,0.2 -8.39,-0.37 -16.91,-0.2 a 1.34,1.33 21.8 0 0 -0.92,0.39 l -10.57,10.47 a 1.26,1.22 21.9 0 1 -0.88,0.36 h -21.31 a 1.1,1.08 -70.3 0 0 -0.85,0.41 l -7.74,9.52 q -0.38,0.47 -0.99,0.49 l -12.43,0.31 q -0.48,0.02 -0.83,0.35 l -13.71,13.12 q -0.58,0.56 -1.19,0.04 l -10.4,-8.91 q -0.38,-0.33 -0.89,-0.33 h -9.42 a 0.95,0.94 67.8 0 1 -0.68,-0.29 l -11.27,-11.81 a 1.35,1.35 0 0 0 -0.98,-0.42 q -6.17,-0.03 -12.33,0.02 c -1.72,0.01 -2.68,0.26 -4.05,-0.97 q -9.62,-8.56 -19.33,-17.2 -0.89,-0.79 -0.89,0.41 v 9.17 a 1.16,1.16 0 0 0 0.34,0.82 l 13.98,13.87 a 1.38,1.36 -22.3 0 0 0.97,0.4 h 14.95 q 0.42,0 0.71,0.29 l 14.7,14.75 q 0.96,0.96 2.31,0.96 h 10.04 a 1.45,1.44 -25.1 0 1 0.92,0.33 l 11.41,9.5 q 0.45,0.38 0.89,-0.01 l 20.72,-18.4 q 0.38,-0.34 0.89,-0.33 l 13.63,0.22 a 1.02,1 -71.6 0 0 0.84,-0.43 l 4.73,-6.56 q 0.29,-0.39 0.77,-0.39 l 16.94,0.1 q 0.53,0 0.9,-0.37 l 9.7,-9.89 a 3.35,3.31 -66.6 0 1 2.49,-1 q 8.26,0.27 17.02,-0.02 c 2.52,-0.08 5.8,0.68 8.69,-0.05 q 0.71,-0.19 0.27,-0.77 z"
       id="path263" /><path
       fill="#1a270d"
       d="m 119.53,175.69 4.83,5.53 -60.49,60.64 q -1.75,-1.99 -4.1,-3.12 -0.45,-1.49 -0.24,-3.24 0.16,0 0.33,0 0.36,-0.01 0.61,-0.27 z"
       id="path264" /><path
       fill="#283c14"
       d="m 124.36,181.22 9.99,11.71 a 0.98,0.97 -20.1 0 0 0.74,0.34 l 16.79,0.02 q 0.47,0 0.85,-0.26 L 168,182.48 a 1.2,1.15 -61.6 0 1 0.68,-0.22 l 22.99,0.08 q 0.21,1.33 -0.26,2.16 l -31.85,31.95 -10.02,0.26 q -0.49,0.01 -0.83,0.36 l -11.69,12.09 a 0.78,0.77 -67.9 0 1 -0.56,0.24 l -14.32,0.1 q -0.53,0 -0.9,0.4 l -10.65,11.4 a 1.43,1.41 21.3 0 1 -1.04,0.45 H 105 q -0.62,0 -1.06,0.44 l -4.19,4.18 q -0.38,0.38 -0.91,0.38 H 83.82 q -0.51,0 -0.84,0.38 l -3.47,4.04 a 1.07,1.07 0 0 1 -0.81,0.37 l -5.14,-0.04 q -0.43,0 -0.73,-0.31 l -8.96,-9.33 z"
       id="path265" /><path
       fill="#25310d"
       d="m 377.31,196.18 q 0.44,0.58 -0.27,0.77 c -2.89,0.73 -6.17,-0.03 -8.69,0.05 q -8.76,0.29 -17.02,0.02 a 3.35,3.31 -66.6 0 0 -2.49,1 l -9.7,9.89 q -0.37,0.37 -0.9,0.37 l -16.94,-0.1 q -0.48,0 -0.77,0.39 l -4.73,6.56 a 1.02,1 -71.6 0 1 -0.84,0.43 l -13.63,-0.22 q -0.51,-0.01 -0.89,0.33 l -20.72,18.4 q -0.44,0.39 -0.89,0.01 l -11.41,-9.5 a 1.45,1.44 -25.1 0 0 -0.92,-0.33 h -10.04 q -1.35,0 -2.31,-0.96 l -14.7,-14.75 q -0.29,-0.29 -0.71,-0.29 h -14.95 a 1.38,1.36 -22.3 0 1 -0.97,-0.4 l -13.98,-13.87 a 1.16,1.16 0 0 1 -0.34,-0.82 v -9.17 q 0,-1.2 0.89,-0.41 9.71,8.64 19.33,17.2 c 1.37,1.23 2.33,0.98 4.05,0.97 q 6.16,-0.05 12.33,-0.02 a 1.35,1.35 0 0 1 0.98,0.42 l 11.27,11.81 a 0.95,0.94 67.8 0 0 0.68,0.29 h 9.42 q 0.51,0 0.89,0.33 l 10.4,8.91 q 0.61,0.52 1.19,-0.04 l 13.71,-13.12 q 0.35,-0.33 0.83,-0.35 l 12.43,-0.31 q 0.61,-0.02 0.99,-0.49 l 7.74,-9.52 a 1.1,1.08 -70.3 0 1 0.85,-0.41 h 21.31 a 1.26,1.22 21.9 0 0 0.88,-0.36 l 10.57,-10.47 a 1.34,1.33 21.8 0 1 0.92,-0.39 q 8.52,-0.17 16.91,0.2 0.47,0.02 1.8,-0.2 1.17,-0.19 1.86,0.48 2.78,2.74 6.58,7.67 z"
       id="path266" /><path
       fill="#1a270d"
       d="m 191.41,184.5 q 1.16,4.67 0.16,8.66 -13.14,11.55 -25.88,23.03 -1.46,1.31 -6.13,0.26 z"
       id="path267" /><path
       fill="#000000"
       d="m 191.57,193.16 0.12,21.14 -16.9,16.84 a 1.23,1.22 -66.8 0 1 -0.89,0.36 l -13.54,-0.24 a 3.45,3.45 0 0 0 -2.51,1.01 l -14.88,14.88 a 1.3,1.28 -67.1 0 1 -0.91,0.38 l -3.45,0.02 -10.75,-0.02 q -5.07,3.32 -8.53,8.03 a 0.93,0.93 0 0 1 -0.73,0.38 l -3.79,0.15 a 0.77,0.73 20 0 0 -0.46,0.2 l -5.16,5.11 a 1.24,1.23 -67 0 1 -0.86,0.35 H 93.36 a 1.16,1.15 22 0 0 -0.83,0.35 l -7.01,7 a 2.2,2.17 22 0 1 -1.56,0.65 H 67.77 a 1.04,0.98 65.8 0 1 -0.7,-0.29 l -7.22,-7.14 -4.51,-4.34 q -0.44,-0.44 -0.94,-0.05 -0.81,0.62 -0.9,0.08 c 0.52,-3.64 -1.56,-4.76 -4.87,-4.76 q -5.99,0 -11.83,0 a 2.88,2.84 67.1 0 1 -2.01,-0.83 L 19.02,236.65 q -0.36,-0.36 -0.37,-0.88 l -0.21,-19.22 a 0.42,0.41 20.7 0 1 0.7,-0.31 q 12,10.83 24.09,21.54 c 2.55,2.26 7.22,1.67 10.27,1.12 l 6.27,-0.16 q 2.35,1.13 4.1,3.12 l 8.96,9.33 q 0.3,0.31 0.73,0.31 l 5.14,0.04 a 1.07,1.07 0 0 0 0.81,-0.37 l 3.47,-4.04 q 0.33,-0.38 0.84,-0.38 h 15.02 q 0.53,0 0.91,-0.38 l 4.19,-4.18 q 0.44,-0.44 1.06,-0.44 h 4.55 a 1.43,1.41 21.3 0 0 1.04,-0.45 l 10.65,-11.4 q 0.37,-0.4 0.9,-0.4 l 14.32,-0.1 a 0.78,0.77 -67.9 0 0 0.56,-0.24 l 11.69,-12.09 q 0.34,-0.35 0.83,-0.36 l 10.02,-0.26 q 4.67,1.05 6.13,-0.26 12.74,-11.48 25.88,-23.03 z m -108.06,72.35 7.25,-7.43 a 1.13,1.11 -67.1 0 1 0.79,-0.33 h 15.16 a 1.09,1.09 0 0 0 0.78,-0.33 l 4.94,-4.98 a 1.5,1.45 21.5 0 1 1.06,-0.44 h 3.11 a 1.15,1.14 -68.6 0 0 0.84,-0.37 l 7.11,-7.78 q 0.39,-0.44 0.98,-0.43 l 14.76,0.08 q 0.59,0 1,-0.42 l 15.31,-15.31 q 0.32,-0.32 0.78,-0.32 l 14.94,0.02 q 0.57,0 0.98,-0.4 l 14.08,-14.1 q 0.37,-0.38 0.37,-0.91 v -9.25 a 0.41,0.41 0 0 0 -0.68,-0.31 l -20.13,17.91 q -0.39,0.34 -0.91,0.34 h -14.79 q -0.62,0 -1.05,0.45 l -11.22,11.75 q -0.36,0.38 -0.89,0.37 c -3.52,-0.09 -13.6,-1.15 -16,1.51 q -2.11,2.32 -9.97,10.56 -0.35,0.36 -0.85,0.36 h -4.65 q -0.64,0 -1.1,0.45 l -4.24,4.12 q -0.44,0.43 -1.06,0.43 h -14.6 q -0.49,0 -0.82,0.37 l -3.65,4.15 q -0.42,0.48 -1.06,0.48 h -8.03 a 1.07,1.04 -21.2 0 1 -0.77,-0.33 L 60.27,244.04 A 3.46,3.42 -21.9 0 0 57.8,243 H 43.86 a 0.95,0.94 -23.4 0 1 -0.64,-0.25 L 23.33,225.06 a 0.7,0.69 -70.4 0 0 -1.15,0.55 l 0.35,8.87 q 0.02,0.59 0.44,1.02 l 13.55,13.69 q 0.49,0.5 1.19,0.5 l 14.89,0.09 a 1.44,1.42 67.3 0 1 1.01,0.42 l 15.07,15.12 a 1.31,1.29 67.3 0 0 0.88,0.37 l 13.38,0.06 a 0.8,0.78 21.3 0 0 0.57,-0.24 z"
       id="path268" /><path
       fill="#324b19"
       d="m 205.18,195.75 17.3,17.22 32.36,32.48 c -3.47,0.77 -13.84,12.7 -17.02,15.8 q -0.32,0.31 -0.76,0.31 l -14.99,-0.09 q -0.51,0 -0.87,0.36 l -9.79,9.89 -6.3,-6.07 q 0.03,0.18 -0.22,-0.07 a 0.48,0.45 23.7 0 1 -0.14,-0.33 v -68.48 q 0,-0.4 0.23,-0.73 z"
       id="path269" /><path
       fill="#25310d"
       d="m 83.51,265.51 a 0.8,0.78 21.3 0 1 -0.57,0.24 l -13.38,-0.06 a 1.31,1.29 67.3 0 1 -0.88,-0.37 L 53.61,250.2 a 1.44,1.42 67.3 0 0 -1.01,-0.42 l -14.89,-0.09 q -0.7,0 -1.19,-0.5 L 22.97,235.5 q -0.42,-0.43 -0.44,-1.02 l -0.35,-8.87 a 0.7,0.69 -70.4 0 1 1.15,-0.55 l 19.89,17.69 A 0.95,0.94 -23.4 0 0 43.86,243 H 57.8 a 3.46,3.42 -21.9 0 1 2.47,1.04 l 11.01,11.38 a 1.07,1.04 -21.2 0 0 0.77,0.33 h 8.03 q 0.64,0 1.06,-0.48 l 3.65,-4.15 q 0.33,-0.37 0.82,-0.37 h 14.6 q 0.62,0 1.06,-0.43 l 4.24,-4.12 q 0.46,-0.45 1.1,-0.45 h 4.65 q 0.5,0 0.85,-0.36 7.86,-8.24 9.97,-10.56 c 2.4,-2.66 12.48,-1.6 16,-1.51 q 0.53,0.01 0.89,-0.37 l 11.22,-11.75 q 0.43,-0.45 1.05,-0.45 h 14.79 q 0.52,0 0.91,-0.34 l 20.13,-17.91 a 0.41,0.41 0 0 1 0.68,0.31 v 9.25 q 0,0.53 -0.37,0.91 l -14.08,14.1 q -0.41,0.4 -0.98,0.4 l -14.94,-0.02 q -0.46,0 -0.78,0.32 l -15.31,15.31 q -0.41,0.42 -1,0.42 l -14.76,-0.08 q -0.59,-0.01 -0.98,0.43 l -7.11,7.78 A 1.15,1.14 -68.6 0 1 116.6,252 h -3.11 a 1.5,1.45 21.5 0 0 -1.06,0.44 l -4.94,4.98 a 1.09,1.09 0 0 1 -0.78,0.33 H 91.55 a 1.13,1.11 -67.1 0 0 -0.79,0.33 z"
       id="path270" /><path
       fill="#141414"
       d="m 343.01,212.01 0.02,130.73 -0.43,1.05 q -0.17,0.44 -0.63,0.57 -2.6,0.76 -5.17,0.33 0.38,-8.4 0.14,-16.88 -0.02,-0.4 -0.6,-1.22 l 0.45,-9.29 v -70.35 l -0.01,-9.97 V 212.4 c 2.37,0.44 4.34,-1.06 6.23,-0.39 z"
       id="path271" /><path
       fill="#1a270d"
       d="m 232.38,212.57 32.59,32.83 -10.13,0.05 -32.36,-32.48 q 4.8,-1.46 9.9,-0.4 z"
       id="path272" /><path
       fill="#324b19"
       d="m 232.38,212.57 4.75,-0.29 a 1.19,1.17 -23.8 0 1 0.9,0.34 l 15.09,15.26 q 0.37,0.37 0.88,0.37 h 11.07 q 0.53,0 0.94,0.34 l 12.9,10.77 q 0.41,0.34 0.81,-0.01 10.24,-9 20.42,-18.09 c 2.77,-2.47 6.17,-2.19 9.52,-1.63 l 27.13,27.32 v 70.35 l -43.47,-43.68 21.06,-0.03 a 0.24,0.24 0 0 0 0.17,-0.41 l -19.41,-19.42 q -0.3,-0.29 -0.71,-0.29 l -14.91,0.1 a 1.41,1.4 67 0 1 -0.98,-0.4 l -7.29,-7.29 q -0.33,-0.33 -0.79,-0.34 l -5.49,-0.14 z"
       id="path273" /><path
       fill="#324b19"
       d="m 336.78,212.4 v 24.58 l -18.31,-18.09 4.07,-6.16 q 0.27,-0.42 0.77,-0.41 z"
       id="path274" /><path
       fill="#283c14"
       d="m 191.69,214.3 q 0.75,25.75 0.04,50.44 l -23.87,23.94 h -8.79 q -0.51,0 -0.87,-0.36 l -15.13,-15.13 q -0.45,-0.44 -1.07,-0.44 h -16.48 a 1,0.96 -66 0 0 -0.68,0.28 l -7.08,7.08 a 2.02,2.01 22.8 0 1 -1.45,0.59 l -10.57,-0.17 32.87,-32.98 3.45,-0.02 a 1.3,1.28 -67.1 0 0 0.91,-0.38 l 14.88,-14.88 a 3.45,3.45 0 0 1 2.51,-1.01 l 13.54,0.24 a 1.23,1.22 -66.8 0 0 0.89,-0.36 z"
       id="path275" /><path
       fill="#1a270d"
       d="m 318.47,218.89 18.31,18.09 0.01,9.97 -27.13,-27.32 z"
       id="path276" /><path
       fill="#000000"
       d="m 264.97,245.4 5.49,0.14 q 0.46,0.01 0.79,0.34 l 7.29,7.29 a 1.41,1.4 67 0 0 0.98,0.4 l 14.91,-0.1 q 0.41,0 0.71,0.29 l 19.41,19.42 a 0.24,0.24 0 0 1 -0.17,0.41 l -21.06,0.03 -2.23,0.1 a 1.13,1.09 66.1 0 1 -0.84,-0.34 c -3.95,-4.06 -5.49,-6.1 -11.75,-4.34 q -3.32,-0.96 -8.42,-0.44 -0.61,0.07 -1.01,-0.39 l -3.69,-4.22 a 1.18,1.16 67.9 0 0 -0.92,-0.4 l -5.11,0.23 a 0.81,0.81 0 0 0 -0.57,0.26 l -11.38,11.8 a 1.23,1.2 -67.6 0 1 -0.87,0.37 h -15.04 q -0.51,0 -0.88,0.34 l -7.67,6.98 -5.51,4.78 -12.93,11.66 c -0.17,-3.96 -1.32,-19.23 0.5,-21.96 l 6.41,-6.33 9.79,-9.89 q 0.36,-0.36 0.87,-0.36 l 14.99,0.09 q 0.44,0 0.76,-0.31 c 3.18,-3.1 13.55,-15.03 17.02,-15.8 z m -41.48,20.08 a 0.39,0.39 0 0 0 -0.28,0.12 l -14.5,14.56 a 0.39,0.39 0 0 0 -0.11,0.26 l -0.31,9.77 a 0.39,0.39 0 0 0 0.65,0.3 l 20.45,-18.14 a 0.39,0.39 0 0 1 0.26,-0.1 h 15.53 a 0.39,0.39 0 0 0 0.29,-0.12 l 12,-12.46 a 0.39,0.39 0 0 1 0.29,-0.12 l 8.85,0.07 a 0.39,0.39 0 0 1 0.29,0.13 l 4.1,4.62 a 0.39,0.39 0 0 0 0.3,0.13 h 15.33 a 0.39,0.39 0 0 1 0.26,0.1 l 5.17,4.8 a 0.39,0.39 0 0 0 0.26,0.1 h 11.87 a 0.39,0.39 0 0 0 0.27,-0.67 l -11.27,-11.26 a 0.39,0.39 0 0 0 -0.28,-0.12 l -15.5,0.18 a 0.39,0.39 0 0 1 -0.29,-0.12 l -7.6,-7.76 a 0.39,0.39 0 0 0 -0.27,-0.12 l -13.95,-0.15 a 0.39,0.39 0 0 0 -0.28,0.12 l -15.83,15.83 a 0.39,0.39 0 0 1 -0.27,0.12 z"
       id="path277" /><path
       fill="#1a270d"
       d="m 138.61,247.55 -32.87,32.98 -11.06,0.65 33.18,-33.65 z"
       id="path278" /><path
       fill="#283c14"
       d="m 127.86,247.53 -33.18,33.65 q -4.39,3.29 -8.43,8.35 Q 85.88,290 85.28,290 H 70.27 a 0.99,0.99 0 0 0 -0.7,0.29 l -9.91,9.67 0.19,-37.64 7.22,7.14 a 1.04,0.98 65.8 0 0 0.7,0.29 h 16.19 a 2.2,2.17 22 0 0 1.56,-0.65 l 7.01,-7 a 1.16,1.15 22 0 1 0.83,-0.35 h 14.97 a 1.24,1.23 -67 0 0 0.86,-0.35 l 5.16,-5.11 a 0.77,0.73 20 0 1 0.46,-0.2 l 3.79,-0.15 a 0.93,0.93 0 0 0 0.73,-0.38 q 3.46,-4.71 8.53,-8.03 z"
       id="path279" /><path
       fill="#25310d"
       d="m 223.49,265.48 15.43,0.07 a 0.39,0.39 0 0 0 0.27,-0.12 l 15.83,-15.83 a 0.39,0.39 0 0 1 0.28,-0.12 l 13.95,0.15 a 0.39,0.39 0 0 1 0.27,0.12 l 7.6,7.76 a 0.39,0.39 0 0 0 0.29,0.12 l 15.5,-0.18 a 0.39,0.39 0 0 1 0.28,0.12 l 11.27,11.26 a 0.39,0.39 0 0 1 -0.27,0.67 h -11.87 a 0.39,0.39 0 0 1 -0.26,-0.1 l -5.17,-4.8 a 0.39,0.39 0 0 0 -0.26,-0.1 H 271.3 a 0.39,0.39 0 0 1 -0.3,-0.13 l -4.1,-4.62 a 0.39,0.39 0 0 0 -0.29,-0.13 l -8.85,-0.07 a 0.39,0.39 0 0 0 -0.29,0.12 l -12,12.46 a 0.39,0.39 0 0 1 -0.29,0.12 h -15.53 a 0.39,0.39 0 0 0 -0.26,0.1 l -20.45,18.14 a 0.39,0.39 0 0 1 -0.65,-0.3 l 0.31,-9.77 a 0.39,0.39 0 0 1 0.11,-0.26 l 14.5,-14.56 a 0.39,0.39 0 0 1 0.28,-0.12 z"
       id="path280" /><path
       fill="#141414"
       d="m 59.85,262.32 -0.19,37.64 -5.52,5.66 a 0.48,0.44 22.3 0 1 -0.35,0.13 q -0.15,-0.01 -0.29,-0.04 v -47.7 q 0.09,0.54 0.9,-0.08 0.5,-0.39 0.94,0.05 z"
       id="path281" /><path
       fill="#324b19"
       d="m 278.5,269.04 q 28.92,28.58 56.88,57.08 0.23,-0.21 0.96,0.47 0.58,0.82 0.6,1.22 0.24,8.48 -0.14,16.88 l -12.13,0.13 -14.13,-0.03 -6.66,-6.62 a 2.93,2.91 -23 0 0 -2.1,-0.84 l -14.24,0.24 a 0.93,0.91 -24 0 1 -0.61,-0.23 l -13.02,-11.35 a 0.54,0.53 39.9 0 1 -0.07,-0.74 l 14.86,-18.39 a 0.38,0.37 -70.5 0 0 -0.29,-0.61 h -17.92 a 1.14,1.11 -70.1 0 0 -0.87,0.42 l -10.62,12.98 -36.06,-36.08 7.67,-6.98 q 0.37,-0.34 0.88,-0.34 h 15.04 a 1.23,1.2 -67.6 0 0 0.87,-0.37 l 11.38,-11.8 a 0.81,0.81 0 0 1 0.57,-0.26 l 5.11,-0.23 a 1.18,1.16 67.9 0 1 0.92,0.4 l 3.69,4.22 q 0.4,0.46 1.01,0.39 5.1,-0.52 8.42,0.44 z"
       id="path282" /><path
       fill="#1a270d"
       d="m 191.73,264.74 0.06,9.98 -15.61,15.49 q -1.84,-2.13 -8.32,-1.53 z"
       id="path283" /><path
       fill="#1a270d"
       d="m 205.11,265.65 6.3,6.07 -6.41,6.33 q -0.39,0 -0.62,-0.46 c -0.26,-0.53 0.39,-8.35 0.15,-10.1 q -0.13,-0.89 0.58,-1.84 z"
       id="path284" /><path
       fill="#1a270d"
       d="m 293.32,273.62 43.47,43.68 -0.45,9.29 q -0.73,-0.68 -0.96,-0.47 -27.96,-28.5 -56.88,-57.08 c 6.26,-1.76 7.8,0.28 11.75,4.34 a 1.13,1.09 66.1 0 0 0.84,0.34 z"
       id="path285" /><path
       fill="#000000"
       d="m 167.86,288.68 q 6.48,-0.6 8.32,1.53 l 15.56,15.54 -0.07,21.27 q -9.86,-8.56 -25.48,-22.71 -1.95,-1.76 -3.41,-0.71 l -10.39,0.21 q -3.47,-0.5 -4.55,-1.64 -4.63,-4.84 -9.36,-9.6 c -2.22,-2.23 -4.3,-2.23 -7.15,-1.64 q -0.5,0.1 -0.83,0.48 l -3.34,3.86 q -0.42,0.48 -1.06,0.48 h -14.85 a 1.5,1.5 0 0 0 -1.06,0.44 l -4.22,4.21 a 1.16,1.15 22 0 1 -0.83,0.35 h -6.97 q -0.63,0 -1.07,0.46 l -6.23,6.59 a 0.92,0.91 21.2 0 1 -0.67,0.29 L 78,308.05 q -0.64,0 -1.11,0.45 L 64,320.95 q -5.66,-0.69 -10.43,0.36 -1.74,-1.63 -4.75,-1.12 -1.93,0.32 -4,2.18 -11.7,10.56 -23.3,21.04 A 0.31,0.31 0 0 1 21,343.18 v -19.12 a 1.58,1.57 -23 0 1 0.45,-1.1 l 16.23,-16.35 q 0.36,-0.36 0.87,-0.36 h 13.83 q 0.37,0 0.67,-0.22 l 0.45,-0.32 q 0.14,0.03 0.29,0.04 a 0.48,0.44 22.3 0 0 0.35,-0.13 l 5.52,-5.66 9.91,-9.67 a 0.99,0.99 0 0 1 0.7,-0.29 h 15.01 q 0.6,0 0.97,-0.47 4.04,-5.06 8.43,-8.35 l 11.06,-0.65 10.57,0.17 a 2.02,2.01 22.8 0 0 1.45,-0.59 l 7.08,-7.08 a 1,0.96 -66 0 1 0.68,-0.28 H 142 q 0.62,0 1.07,0.44 l 15.13,15.13 q 0.36,0.36 0.87,0.36 z m -73.4,-2.22 c -2.27,2.24 -4.58,4.71 -6.63,7.16 Q 87.51,294 87.01,294 H 72.93 a 3.94,3.94 0 0 0 -2.82,1.19 l -13.93,14.27 a 2.05,2.02 -67.2 0 1 -1.44,0.6 l -14.69,-0.09 a 1.03,1.01 -67.2 0 0 -0.72,0.3 l -14.14,14.18 a 1.5,1.5 0 0 0 -0.44,1.06 v 8.24 q 0,1.8 1.34,0.6 L 45.4,317.08 a 1.35,1.34 -65.3 0 1 0.88,-0.33 h 14.28 a 2.72,2.7 -67.7 0 0 1.94,-0.82 l 11.14,-11.5 a 1.39,1.38 -68 0 1 1,-0.43 l 13.65,0.1 q 0.67,0 1.13,-0.49 l 5.98,-6.48 q 0.35,-0.38 0.86,-0.38 l 7.39,-0.01 a 1.23,1.23 0 0 0 0.87,-0.36 l 4.1,-4.18 q 0.45,-0.45 1.08,-0.45 h 14.55 q 0.63,0 1.04,-0.47 l 3.58,-4.05 q 0.42,-0.48 1.05,-0.48 h 7.94 a 1.43,1.42 -21.8 0 1 1.03,0.44 L 150.35,299 a 1.29,1.28 69.2 0 0 0.88,0.4 q 6.64,0.35 13.26,-0.26 1.8,-0.17 3.1,1.01 9.57,8.68 19.2,17.29 0.96,0.85 0.96,-0.43 v -8.85 a 1.24,1.23 23 0 0 -0.35,-0.86 l -14.17,-14.21 a 1.16,1.16 0 0 0 -0.82,-0.34 h -15.14 a 1,0.96 66 0 1 -0.68,-0.28 l -15.27,-15.28 q -0.45,-0.44 -1.07,-0.44 h -13.14 a 1.16,1.15 22 0 0 -0.83,0.35 l -7.34,7.34 a 1.2,1.19 -66.3 0 1 -0.89,0.35 q -9.29,-0.28 -18.54,0.47 c -1.94,0.15 -3.33,-0.51 -5.05,1.2 z"
       id="path286" /><path
       fill="#283c14"
       d="m 191.79,274.72 -0.05,31.03 -15.56,-15.54 z"
       id="path287" /><path
       fill="#25310d"
       d="m 87.83,293.62 c 2.05,-2.45 4.36,-4.92 6.63,-7.16 1.72,-1.71 3.11,-1.05 5.05,-1.2 q 9.25,-0.75 18.54,-0.47 a 1.2,1.19 -66.3 0 0 0.89,-0.35 l 7.34,-7.34 a 1.16,1.15 22 0 1 0.83,-0.35 h 13.14 q 0.62,0 1.07,0.44 l 15.27,15.28 a 1,0.96 66 0 0 0.68,0.28 h 15.14 a 1.16,1.16 0 0 1 0.82,0.34 l 14.17,14.21 a 1.24,1.23 23 0 1 0.35,0.86 v 8.85 q 0,1.28 -0.96,0.43 -9.63,-8.61 -19.2,-17.29 -1.3,-1.18 -3.1,-1.01 -6.62,0.61 -13.26,0.26 a 1.29,1.28 69.2 0 1 -0.88,-0.4 l -11.46,-11.81 a 1.43,1.42 -21.8 0 0 -1.03,-0.44 h -7.94 q -0.63,0 -1.05,0.48 l -3.58,4.05 q -0.41,0.47 -1.04,0.47 H 109.7 q -0.63,0 -1.08,0.45 l -4.1,4.18 a 1.23,1.23 0 0 1 -0.87,0.36 l -7.39,0.01 q -0.51,0 -0.86,0.38 l -5.98,6.48 q -0.46,0.49 -1.13,0.49 L 74.64,304 a 1.39,1.38 -68 0 0 -1,0.43 l -11.14,11.5 a 2.72,2.7 -67.7 0 1 -1.94,0.82 H 46.28 a 1.35,1.34 -65.3 0 0 -0.88,0.33 l -19.31,17.27 q -1.34,1.2 -1.34,-0.6 v -8.24 a 1.5,1.5 0 0 1 0.44,-1.06 l 14.14,-14.18 a 1.03,1.01 -67.2 0 1 0.72,-0.3 l 14.69,0.09 a 2.05,2.02 -67.2 0 0 1.44,-0.6 L 70.11,295.19 A 3.94,3.94 0 0 1 72.93,294 h 14.08 q 0.5,0 0.82,-0.38 z"
       id="path288" /><path
       fill="#1a270d"
       d="M 222.94,283.57 259,319.65 q -2.54,4.36 -5.44,4.82 l -36.13,-36.12 z"
       id="path289" /><path
       fill="#324b19"
       d="m 217.43,288.35 36.13,36.12 q -3.63,0.59 -6.4,-1.37 -5.7,-4.04 -11.45,-8.1 -0.41,-0.29 -0.9,-0.29 l -30.08,-0.03 -0.23,-14.67 z"
       id="path290" /><path
       fill="#283c14"
       d="m 152.39,303.81 -40.67,40.84 -51.29,0.08 a 0.72,0.71 0 0 1 -0.72,-0.71 L 59.73,327 a 2.53,2.52 -16.9 0 1 1.13,-2.1 q 2.06,-1.36 3.14,-3.95 L 76.89,308.5 q 0.47,-0.45 1.11,-0.45 l 12.2,0.04 a 0.92,0.91 21.2 0 0 0.67,-0.29 l 6.23,-6.59 q 0.44,-0.46 1.07,-0.46 h 6.97 a 1.16,1.15 22 0 0 0.83,-0.35 l 4.22,-4.21 a 1.5,1.5 0 0 1 1.06,-0.44 h 14.85 q 0.64,0 1.06,-0.48 l 3.34,-3.86 q 0.33,-0.38 0.83,-0.48 c 2.85,-0.59 4.93,-0.59 7.15,1.64 q 4.73,4.76 9.36,9.6 1.08,1.14 4.55,1.64 z"
       id="path291" /><path
       fill="#1a270d"
       d="m 162.78,303.6 -41.05,41.11 -10.01,-0.06 40.67,-40.84 z"
       id="path292" /><path
       fill="#283c14"
       d="m 191.67,327.02 0.16,17.29 a 0.43,0.43 0 0 1 -0.43,0.43 l -69.67,-0.03 41.05,-41.11 q 1.46,-1.05 3.41,0.71 15.62,14.15 25.48,22.71 z"
       id="path293" /><path
       fill="#000000"
       d="m 310.54,344.79 q 2.97,5.45 8.38,5.18 c 3.03,-0.15 4.52,-2.72 5.75,-5.15 l 12.13,-0.13 q 2.57,0.43 5.17,-0.33 0.46,-0.13 0.63,-0.57 l 0.43,-1.05 q -0.02,0.16 0.09,0.23 0.35,0.19 0.63,-0.09 l 2.22,-2.23 q 0.37,-0.37 0.9,-0.37 l 22.43,-0.09 a 0.46,0.46 0 0 1 0.33,0.78 l -18.28,18.31 a 1.42,1.4 -67.9 0 1 -0.93,0.4 l -15.37,0.37 q -0.41,0.01 -0.69,0.29 l -7.67,7.66 h -17.2 l -15.54,-15.61 q -0.35,-0.35 -0.85,-0.38 -6.77,-0.36 -13.51,-0.25 c -1.95,0.03 -3.25,-1.1 -5.21,-1.02 q -0.22,-3.23 -4.59,-6.01 l -5.98,-6.29 q -0.42,-0.45 -0.86,-0.01 l -1.33,1.32 q -0.47,0.47 -1.14,0.47 l -16.14,-0.1 q -0.62,-0.01 -1.13,-0.36 l -14.8,-10.27 q -0.46,-0.32 -1.02,-0.32 l -22.8,0.07 q -0.75,-7.27 0.14,-14.56 l 30.08,0.03 q 0.49,0 0.9,0.29 5.75,4.06 11.45,8.1 2.77,1.96 6.4,1.37 2.9,-0.46 5.44,-4.82 l 10.62,-12.98 a 1.14,1.11 -70.1 0 1 0.87,-0.42 h 17.92 a 0.38,0.37 -70.5 0 1 0.29,0.61 l -14.86,18.39 a 0.54,0.53 39.9 0 0 0.07,0.74 l 13.02,11.35 a 0.93,0.91 -24 0 0 0.61,0.23 l 14.24,-0.24 a 2.93,2.91 -23 0 1 2.1,0.84 z m 14.88,18.98 7.32,-7.39 q 0.37,-0.38 0.91,-0.38 h 14.85 a 1.5,1.45 21.5 0 0 1.06,-0.44 l 10.77,-10.77 q 0.72,-0.71 -0.3,-0.72 l -11.28,-0.1 q -0.54,-0.01 -0.93,0.36 l -4.64,4.29 a 1.15,1.1 -65.7 0 1 -0.77,0.31 l -14.96,0.23 q -0.63,0.01 -1.03,0.48 l -3.35,3.94 q -0.35,0.42 -0.9,0.42 h -7.21 a 3.66,3.65 67.9 0 1 -2.63,-1.12 l -10.64,-11.12 a 1.39,1.37 67.3 0 0 -1.02,-0.43 q -6.08,0.13 -12.16,0.38 -2.66,0.11 -3.68,-0.79 -8.29,-7.33 -16.39,-14.5 -0.41,-0.36 -0.07,-0.79 l 11.91,-14.68 a 0.42,0.42 0 0 0 -0.33,-0.68 l -7.57,0.1 q -0.61,0.01 -1,0.49 l -13.65,16.89 a 1.6,1.59 13.7 0 1 -0.96,0.58 q -3.18,0.63 -6.42,0.36 c -4.66,-0.41 -11.97,-6.81 -15.81,-9.65 a 1.47,1.44 62.8 0 0 -0.87,-0.29 h -24.49 a 0.6,0.59 1.5 0 0 -0.6,0.56 l -0.29,5.34 a 0.62,0.61 1.7 0 0 0.62,0.65 l 19.84,-0.17 a 1.04,1.04 0 0 1 0.57,0.17 q 6.62,4.45 13.15,9.07 c 4.08,2.89 12.2,2.13 16.93,1.46 a 1.26,1.24 15.7 0 0 0.76,-0.42 l 2.54,-2.95 a 0.58,0.58 0 0 1 0.86,-0.03 l 14.43,14.7 a 2.9,2.89 -22.1 0 0 2.07,0.87 h 14.4 q 0.51,0 0.87,0.36 l 14.69,14.82 a 2.9,2.89 -22.3 0 0 2.06,0.86 l 12.56,0.05 a 1.14,1.1 -66.4 0 0 0.78,-0.32 z"
       id="path294" /><path
       fill="#25310d"
       d="m 332.74,356.38 -7.32,7.39 a 1.14,1.1 -66.4 0 1 -0.78,0.32 l -12.56,-0.05 a 2.9,2.89 -22.3 0 1 -2.06,-0.86 L 295.33,348.36 Q 294.97,348 294.46,348 h -14.4 a 2.9,2.89 -22.1 0 1 -2.07,-0.87 l -14.43,-14.7 a 0.58,0.58 0 0 0 -0.86,0.03 l -2.54,2.95 a 1.26,1.24 15.7 0 1 -0.76,0.42 c -4.73,0.67 -12.85,1.43 -16.93,-1.46 q -6.53,-4.62 -13.15,-9.07 a 1.04,1.04 0 0 0 -0.57,-0.17 l -19.84,0.17 a 0.62,0.61 1.7 0 1 -0.62,-0.65 l 0.29,-5.34 a 0.6,0.59 1.5 0 1 0.6,-0.56 h 24.49 a 1.47,1.44 62.8 0 1 0.87,0.29 c 3.84,2.84 11.15,9.24 15.81,9.65 q 3.24,0.27 6.42,-0.36 a 1.6,1.59 13.7 0 0 0.96,-0.58 l 13.65,-16.89 q 0.39,-0.48 1,-0.49 l 7.57,-0.1 a 0.42,0.42 0 0 1 0.33,0.68 l -11.91,14.68 q -0.34,0.43 0.07,0.79 8.1,7.17 16.39,14.5 1.02,0.9 3.68,0.79 6.08,-0.25 12.16,-0.38 a 1.39,1.37 67.3 0 1 1.02,0.43 l 10.64,11.12 a 3.66,3.65 67.9 0 0 2.63,1.12 h 7.21 q 0.55,0 0.9,-0.42 l 3.35,-3.94 q 0.4,-0.47 1.03,-0.48 l 14.96,-0.23 a 1.15,1.1 -65.7 0 0 0.77,-0.31 l 4.64,-4.29 q 0.39,-0.37 0.93,-0.36 l 11.28,0.1 q 1.02,0.01 0.3,0.72 l -10.77,10.77 A 1.5,1.45 21.5 0 1 348.5,356 h -14.85 q -0.54,0 -0.91,0.38 z"
       id="path295" /><path
       fill="#324b19"
       d="m 269.79,344.73 -64.49,0.01 a 0.58,0.58 0 0 1 -0.58,-0.57 l -0.13,-14.93 22.8,-0.07 q 0.56,0 1.02,0.32 l 14.8,10.27 q 0.51,0.35 1.13,0.36 l 16.14,0.1 q 0.67,0 1.14,-0.47 l 1.33,-1.32 q 0.44,-0.44 0.86,0.01 z"
       id="path296" /><path
       fill="#141414"
       d="m 310.54,344.79 14.13,0.03 c -1.23,2.43 -2.72,5 -5.75,5.15 q -5.41,0.27 -8.38,-5.18 z"
       id="path297" /></g></svg>
