<?xml version="1.0" encoding="UTF-8" standalone="no"?>
<svg
   height="115.20782mm"
   viewBox="0 0 81.109467 115.20778"
   width="81.109467mm"
   version="1.1"
   id="svg1"
   xml:space="preserve"
   sodipodi:docname="porta_potty_floor.svg"
   inkscape:version="1.3 (0e150ed6c4, 2023-07-21)"
   inkscape:export-filename="porta_potty_floor.png"
   inkscape:export-xdpi="96"
   inkscape:export-ydpi="96"
   xmlns:inkscape="http://www.inkscape.org/namespaces/inkscape"
   xmlns:sodipodi="http://sodipodi.sourceforge.net/DTD/sodipodi-0.dtd"
   xmlns="http://www.w3.org/2000/svg"
   xmlns:svg="http://www.w3.org/2000/svg"><sodipodi:namedview
     id="namedview9"
     pagecolor="#505050"
     bordercolor="#ffffff"
     borderopacity="1"
     inkscape:pageshadow="0"
     inkscape:pageopacity="0"
     inkscape:pagecheckerboard="1"
     inkscape:document-units="mm"
     showgrid="false"
     inkscape:zoom="0.41998925"
     inkscape:cx="-610.72992"
     inkscape:cy="-27.381653"
     inkscape:window-width="1920"
     inkscape:window-height="1017"
     inkscape:window-x="-8"
     inkscape:window-y="-8"
     inkscape:window-maximized="1"
     inkscape:current-layer="svg1"
     inkscape:showpageshadow="2"
     inkscape:deskcolor="#d1d1d1" /><defs
     id="defs1" /><g
     id="g1"
     transform="matrix(0.93647131,0,0,0.93647131,-0.52916666,-0.52916666)"><path
       d="M 0.56525754,107.47051 V 0.56525747 H 87.176868 V 107.47051 Z"
       fill="#999999"
       stroke="#4f4f4f"
       stroke-miterlimit="10"
       stroke-width="0.428267"
       id="path1"
       style="stroke:none"
       sodipodi:nodetypes="ccccc" /><path
       id="path1-5"
       style="fill:#666666;stroke:none;stroke-width:2.11666;stroke-dasharray:none"
       d="M 87.176868,0.56506447 V 107.47072 H 78.809661 V 8.932271 H 8.940023 v 90.171242 l 16.923515,-1.4e-4 v 8.366937 l -25.29847353,4.1e-4 V 0.56506447 Z"
       sodipodi:nodetypes="ccccccccccc" /><path
       id="rect846"
       style="fill:#808080;stroke-width:1.25034;stroke-linecap:square;stroke-linejoin:bevel"
       d="m 25.863539,99.103371 h 52.946003 v 8.366939 H 25.863539 Z"
       sodipodi:nodetypes="ccccc" /></g><path
     style="fill:#2b1100;stroke:#171717;stroke-opacity:0"
     d="m 89.288,363.69979 v -14.58371 h 93.7524 93.7524 v 14.58371 14.5837 H 183.0404 89.288 Z"
     id="path9"
     transform="scale(0.26458333)" /><path
     style="fill:#2b1100;stroke:#171717;stroke-width:0.595253;stroke-opacity:0"
     d="M 0,189.29056 V 0.29762667 H 153.27773 306.55547 V 189.29056 378.28349 H 291.97176 277.38805 V 203.87427 29.46504 H 153.27664 29.165225 l 0.149907,159.67671 0.149908,159.6767 29.91148,0.15432 29.91148,0.15432 v 14.5782 14.5782 H 44.644 0 Z"
     id="path10"
     transform="scale(0.26458333)" /><path
     style="fill:#2b1100;stroke:#171717;stroke-width:0.105227;stroke-opacity:0"
     d="m 277.48338,328.25537 v -49.98279 h 14.52131 14.52132 v 49.98279 49.98278 h -14.52132 -14.52131 z"
     id="path11"
     transform="scale(0.26458333)" /><path
     style="fill:#2b1100;stroke:#171717;stroke-width:0.105227;stroke-opacity:0"
     d="m 276.95725,328.36059 c 0,-50.01786 2.9e-4,-50.08801 0.21045,-50.08801 0.21016,0 0.21045,0.0702 0.21045,50.03503 v 50.03503 l 14.60024,0.027 14.60023,0.0271 -14.81069,0.0259 -14.81068,0.0259 z"
     id="path12"
     transform="scale(0.26458333)" /><path
     style="fill:#2b1100;stroke:#171717;stroke-width:0.0526135;stroke-opacity:0"
     d="m 276.95725,349.59012 v -28.83217 h 0.21045 0.21045 v 28.8057 28.80569 l 7.82625,0.0135 7.82626,0.0135 -8.03671,0.013 -8.0367,0.013 z"
     id="path13"
     transform="scale(0.26458333)" /><rect
     style="fill:#2b1100;stroke:#171717;stroke-width:0.263185;stroke-opacity:0"
     id="rect13"
     width="74.699577"
     height="7.6855931"
     x="6.0130191"
     y="92.321014"
     rx="0.51472145"
     ry="0.37761059" /><path
     style="fill:#552200;stroke:#171717;stroke-width:0.841815;stroke-opacity:0"
     d="M 60.40025,348.30144 30.305352,348.06938 V 188.97691 29.884444 H 153.6313 276.95724 V 189.40845 348.93246 L 183.7262,348.73298 C 132.44912,348.62327 76.952444,348.42907 60.40025,348.30144 Z"
     id="path14"
     transform="scale(0.26458333)" /><rect
     style="fill:#552200;stroke:#171717;stroke-width:0.264583;stroke-opacity:0"
     id="rect14"
     width="66.373627"
     height="85.973892"
     x="7.3501"
     y="6.9046392"
     rx="0.52794892"
     ry="0.37207031" /><rect
     style="fill:#2b1100;fill-opacity:1;stroke:#171717;stroke-width:0.27712;stroke-opacity:0"
     id="rect15"
     width="52.572746"
     height="13.216969"
     x="14.20175"
     y="96.707649"
     rx="0.57971513"
     ry="0.37171775" /></svg>
