<?xml version="1.0" encoding="UTF-8" standalone="no"?>
<svg
   height="101.13228mm"
   viewBox="0 0 82.20762 101.13228"
   width="82.207619mm"
   version="1.1"
   id="svg16"
   sodipodi:docname="porta_potty_ceiling.svg"
   inkscape:version="1.3 (0e150ed6c4, 2023-07-21)"
   inkscape:export-filename="porta_potty_ceiling.png"
   inkscape:export-xdpi="96"
   inkscape:export-ydpi="96"
   xmlns:inkscape="http://www.inkscape.org/namespaces/inkscape"
   xmlns:sodipodi="http://sodipodi.sourceforge.net/DTD/sodipodi-0.dtd"
   xmlns="http://www.w3.org/2000/svg"
   xmlns:svg="http://www.w3.org/2000/svg">
  <sodipodi:namedview
     id="namedview1"
     pagecolor="#ffffff"
     bordercolor="#000000"
     borderopacity="0.25"
     inkscape:showpageshadow="2"
     inkscape:pageopacity="0.0"
     inkscape:pagecheckerboard="0"
     inkscape:deskcolor="#d1d1d1"
     inkscape:document-units="mm"
     inkscape:zoom="0.53697721"
     inkscape:cx="-43.763496"
     inkscape:cy="17.691626"
     inkscape:window-width="1920"
     inkscape:window-height="1017"
     inkscape:window-x="-8"
     inkscape:window-y="-8"
     inkscape:window-maximized="1"
     inkscape:current-layer="svg16" />
  <defs
     id="defs20" />
  <g
     id="g1"
     transform="matrix(0.93649986,0,0,0.93535458,0.01862765,-0.01495653)">
    <path
       d="M 1.3050963,106.68815 V 1.3478617 H 86.436889 V 106.68815 Z M 18.558143,28.306334 c 5.544449,0 10.039108,-4.313078 10.039108,-10.039252 0,-5.726161 -4.494659,-10.0387474 -10.039108,-10.0387474 -5.544459,0 -10.0391382,4.3125864 -10.0391382,10.0387474 0,5.726174 4.4946792,10.039252 10.0391382,10.039252 z"
       fill="#e7e7e7"
       stroke="#c2c2c2"
       stroke-width="2.65261"
       id="path8-6"
       style="mix-blend-mode:normal;fill-rule:nonzero;stroke-linecap:butt;stroke-linejoin:miter;stroke-miterlimit:10;stroke-dasharray:none;stroke-dashoffset:0" />
    <path
       d="m 86.436889,14.7834 v 7.465061 H 27.830431 c 0.49406,-1.225868 0.76682,-2.570725 0.76682,-3.981381 0,-1.222138 -0.20472,-2.394901 -0.58074,-3.48368 z"
       fill="#f4f4f4"
       stroke="#c2c2c2"
       stroke-width="2.65261"
       id="path14"
       style="mix-blend-mode:normal;fill-rule:nonzero;stroke-linecap:butt;stroke-linejoin:miter;stroke-miterlimit:10;stroke-dasharray:none;stroke-dashoffset:0" />
    <path
       d="M 1.3050863,22.248461 V 14.7834 h 7.7946684 c -0.3760099,1.088779 -0.5807499,2.261542 -0.5807499,3.48368 0,1.410656 0.27278,2.755513 0.7668399,3.981381 z"
       fill="#f4f4f4"
       stroke="#c2c2c2"
       stroke-width="2.65261"
       id="path16"
       style="mix-blend-mode:normal;fill-rule:nonzero;stroke-linecap:butt;stroke-linejoin:miter;stroke-miterlimit:10;stroke-dasharray:none;stroke-dashoffset:0" />
    <path
       d="M 1.3050837,93.251363 V 85.7863 H 86.436479 v 7.465063 z"
       fill="#f4f4f4"
       stroke="#c2c2c2"
       stroke-width="2.6526"
       id="path18"
       style="mix-blend-mode:normal;fill-rule:nonzero;stroke-linecap:butt;stroke-linejoin:miter;stroke-miterlimit:10;stroke-dasharray:none;stroke-dashoffset:0" />
    <path
       d="m 1.3050969,57.750532 v -7.46506 H 86.4369 v 7.46506 z"
       fill="#f4f4f4"
       stroke="#c2c2c2"
       stroke-width="2.65261"
       id="path20"
       style="mix-blend-mode:normal;fill-rule:nonzero;stroke-linecap:butt;stroke-linejoin:miter;stroke-miterlimit:10;stroke-dasharray:none;stroke-dashoffset:0" />
  </g>
  <rect
     style="fill:#552200;stroke-width:0.26443"
     id="rect1"
     width="79.091652"
     height="97.786652"
     x="1.5666521"
     y="1.9191803" />
  <path
     style="fill:#2b1100;stroke-width:0.123111"
     d="M -0.00124368,50.572547 V 0.06672405 H 41.081136 82.163515 l 0.01143,6.27477965 c 0.0063,3.4511288 0.01144,23.3274173 0.01144,44.1695283 0,20.842109 -0.0051,40.746079 -0.01144,44.231044 l -0.01143,6.336294 H 41.081136 -0.00124368 Z M 80.685287,50.818619 V 1.9122474 H 41.081136 1.4769828 V 50.818619 99.724989 H 41.081136 80.685287 Z"
     id="path1" />
  <rect
     style="fill:#552200;stroke:#171717;stroke-width:3.28383;stroke-opacity:0"
     id="rect2"
     width="79.782578"
     height="99.141205"
     x="1.2814263"
     y="1.3178234"
     rx="80.596672"
     ry="0.37543821" />
</svg>
