<?xml version="1.0" encoding="UTF-8" standalone="no"?>
<svg
   version="1.1"
   width="64"
   height="64"
   viewBox="0 0 64 64.000001"
   id="svg55"
   sodipodi:docname="30x_scope.svg"
   inkscape:version="1.3 (0e150ed6c4, 2023-07-21)"
   xml:space="preserve"
   xmlns:inkscape="http://www.inkscape.org/namespaces/inkscape"
   xmlns:sodipodi="http://sodipodi.sourceforge.net/DTD/sodipodi-0.dtd"
   xmlns="http://www.w3.org/2000/svg"
   xmlns:svg="http://www.w3.org/2000/svg"><sodipodi:namedview
     id="namedview57"
     pagecolor="#505050"
     bordercolor="#ffffff"
     borderopacity="1"
     inkscape:pageshadow="0"
     inkscape:pageopacity="0"
     inkscape:pagecheckerboard="1"
     showgrid="false"
     inkscape:zoom="8"
     inkscape:cx="5.1875"
     inkscape:cy="20.3125"
     inkscape:window-width="1920"
     inkscape:window-height="1017"
     inkscape:window-x="-8"
     inkscape:window-y="-8"
     inkscape:window-maximized="1"
     inkscape:current-layer="svg55"
     inkscape:showpageshadow="2"
     inkscape:deskcolor="#d1d1d1" /><defs
     id="defs17"><inkscape:perspective
       sodipodi:type="inkscape:persp3d"
       inkscape:vp_x="-6.0507408 : 32 : 1"
       inkscape:vp_y="0 : 1000 : 0"
       inkscape:vp_z="79.320988 : 32 : 1"
       inkscape:persp3d-origin="36.635123 : 21.333334 : 1"
       id="perspective46" /><linearGradient
       x1="149.88675"
       y1="179.12709"
       x2="206.19997"
       y2="179.12709"
       gradientUnits="userSpaceOnUse"
       id="color-1"><stop
         offset="0"
         stop-color="#d89200"
         id="stop2" /><stop
         offset="1"
         stop-color="#ffd852"
         id="stop4" /></linearGradient><radialGradient
       cx="233.49757"
       cy="179.54852"
       r="32.527519"
       gradientUnits="userSpaceOnUse"
       id="color-2"><stop
         offset="0"
         stop-color="#ffd852"
         id="stop7" /><stop
         offset="1"
         stop-color="#d89200"
         id="stop9" /></radialGradient><linearGradient
       x1="270.29364"
       y1="179.44923"
       x2="310.86774"
       y2="179.44923"
       gradientUnits="userSpaceOnUse"
       id="color-3"><stop
         offset="0"
         stop-color="#ffd852"
         id="stop12" /><stop
         offset="1"
         stop-color="#d89200"
         id="stop14" /></linearGradient></defs><g
     id="g57"
     transform="matrix(0.10742764,0,0,0.10742764,-1.4553468,9.518836)"><g
       stroke-width="2"
       fill="none"
       stroke-linecap="butt"
       id="g11"><path
         stroke="#601775"
         vector-effect="non-scaling-stroke"
         d="m 539,17.78 q -0.55,0.95 -0.05,1.93 l 31.38,61.62 q 0.71,1.39 2.05,0.59 c 5.19,-3.09 4.68,-8.49 3.34,-14.07 C 571.95,52.08 565.29,34.77 554.05,22.72 551.59,20.09 542.07,12.46 539,17.78"
         id="path1" /><path
         stroke="#601775"
         vector-effect="non-scaling-stroke"
         d="m 429.94,90.44 q -30.4,30.14 -43.75,44.25 c -0.89,0.94 -1.74,1.79 -3.12,2.04 -16.7,2.96 -37.28,7.67 -44.07,25.66 q -0.55,1.48 -0.26,2.11 6.08,13.14 12.26,26.21 2.16,4.57 6.89,4.7 c 5.25,0.15 20,-9.13 23.97,-12.69 7.27,-6.54 13.76,-17.34 23.13,-20 q 28.04,-7.96 55.56,-17.59 c 20.74,-7.26 40.46,-19.04 58.93,-31.26 q 0.67,-0.44 0.31,-1.16 l -16.42,-33 a 2.53,2.52 -29 0 1 0.95,-3.28 l 17.04,-10.37 a 0.7,0.69 61.1 0 1 0.99,0.29 l 17.06,34.03 q 0.95,1.9 2.72,0.73 l 6.86,-4.52 q 1.73,-1.14 0.8,-2.99 L 518.43,30.83 a 1.17,1.16 -29.2 0 0 -1.66,-0.47 Q 487.54,48.78 458.59,67.11 444.4,76.1 429.94,90.44"
         id="path2" /><path
         stroke="#2c2c2c"
         vector-effect="non-scaling-stroke"
         d="m 538.4114,102.3599 a 0.71,0.71 0 0 0 -0.9717,-0.2531 l -15.3182,8.9871 a 0.71,0.71 0 0 0 -0.2531,0.9717 l 0.0202,0.0345 a 0.71,0.71 0 0 0 0.9717,0.2531 l 15.3182,-8.9871 a 0.71,0.71 0 0 0 0.2531,-0.9717 l -0.0202,-0.0345"
         id="path3" /><path
         stroke="#2c2c2c"
         vector-effect="non-scaling-stroke"
         d="m 307.9073,171.4283 a 1.12,1.12 0 0 0 -1.5421,-0.3617 l -16.25,10.0754 a 1.12,1.12 0 0 0 -0.3617,1.5421 l 1.9392,3.1276 a 1.12,1.12 0 0 0 1.5421,0.3617 l 16.25,-10.0754 a 1.12,1.12 0 0 0 0.3617,-1.5421 l -1.9392,-3.1276"
         id="path4" /><path
         stroke="#543476"
         vector-effect="non-scaling-stroke"
         d="M 331.68,174.17 262.4,216.9 a 0.68,0.68 0 0 0 -0.09,1.09 q 9.2,7.96 9.7,20.3 0.07,1.91 1.71,0.93 l 68.94,-41.29 a 1.5,1.5 0 0 0 0.58,-1.95 l -10.52,-21.51 a 0.73,0.73 0 0 0 -1.04,-0.3"
         id="path5" /><path
         stroke="#415175"
         vector-effect="non-scaling-stroke"
         d="m 252.7186,256.4154 a 18.01,14.76 88.7 0 0 14.3476,-18.3403 18.01,14.76 88.7 0 0 -15.1648,-17.6705 18.01,14.76 88.7 0 0 -14.3476,18.3403 18.01,14.76 88.7 0 0 15.1648,17.6705"
         id="path6" /><path
         stroke="#2c2c2c"
         vector-effect="non-scaling-stroke"
         d="m 190.34,329.8 c -5.23,4.13 -8.18,7.52 -14.88,10.38 a 0.32,0.31 -19.2 0 0 -0.18,0.36 c 2.16,9.29 8.53,21.84 20.46,15.28 q 73,-40.18 167.71,-93.35 c 13.56,-7.62 9.06,-20.26 2.84,-30.91 a 0.73,0.72 56.5 0 0 -1.05,-0.22 q -5.72,4.16 -12.37,6.19 c -1.81,0.55 -4.33,0.37 -6.19,2.17 -7,6.77 -13.63,10.7 -22.62,13.94 -7.71,2.78 -12.33,10.83 -20.29,12.56 q -7.94,1.72 -13.75,7.18 c -3.9,3.67 -6.45,5.47 -10.7,7.37 -4.9,2.19 -7.77,1.15 -12.47,5.26 -6.96,6.07 -11.75,9.63 -20.16,12.02 -8.86,2.52 -12.7,9.83 -19.7,13.21 q -11.76,5.69 -19.65,11.15 c -5.51,3.82 -12.05,3.5 -17,7.41"
         id="path7" /><path
         stroke="#415175"
         vector-effect="non-scaling-stroke"
         d="m 240.66,259.1 a 0.87,0.87 0 0 0 0.19,-1.34 q -8.18,-8.76 -7.58,-21.02 0.01,-0.25 -0.09,-0.47 -0.14,-0.28 -0.21,-0.43 -0.29,-0.55 -0.82,-0.22 l -74.09,45.83 a 1.24,1.24 0 0 0 -0.51,1.5 l 7.67,20.32 a 0.85,0.85 0 0 0 1.23,0.43 l 74.21,-44.6"
         id="path8" /><path
         stroke="#2c2c2c"
         vector-effect="non-scaling-stroke"
         d="m 195.6318,243.368 a 1.78,1.78 0 0 0 -2.4518,-0.5705 l -12.7516,7.9371 a 1.78,1.78 0 0 0 -0.5705,2.4518 l 0.7503,1.2056 a 1.78,1.78 0 0 0 2.4518,0.5705 l 12.7516,-7.9371 a 1.78,1.78 0 0 0 0.5705,-2.4518 l -0.7503,-1.2056"
         id="path9" /><path
         stroke="#315f75"
         vector-effect="non-scaling-stroke"
         d="m 121.36,347.29 c 12.94,-10.97 27.17,-22.3 37.66,-35.71 q 0.27,-0.35 0.13,-0.77 l -9.04,-26.33 a 1.55,1.55 0 0 0 -1.52,-1.05 c -17.19,0.55 -32.34,7.68 -50.03,15.15 q -14.97,6.32 -32.43,19.54 -0.38,0.29 -0.22,0.74 l 18.31,51.2 q 0.33,0.92 1.2,0.49 c 13.15,-6.5 24.35,-13.45 35.94,-23.26"
         id="path10" /><path
         stroke="#266474"
         vector-effect="non-scaling-stroke"
         d="m 21.45,347.92 c 8.81,12 19.96,24.63 31.97,33.66 7.72,5.8 13.96,0.95 20.16,-3.93 q 0.44,-0.34 0.25,-0.86 L 55.76,325.73 q -0.36,-1.02 -1.27,-0.43 l -32.8,21.31 a 0.92,0.92 0 0 0 -0.24,1.31"
         id="path11" /></g><path
       fill="#080808"
       d="m 365.14,218.72 c 7.97,-1.11 17.42,-0.16 25.61,-0.25 q 7.16,-0.07 9.95,6.39 c 2.94,6.8 7.49,15.6 7.3,23.22 -0.3,12.4 -8.18,18.61 -18.16,24.15 q -10.51,5.82 -21.1,11.51 -88.79,47.67 -129.93,70.56 -5.45,3.03 -9.73,4.92 -4.09,1.79 -10.45,2.89 -13.8,2.38 -27.62,4.65 -2.27,0.38 -6.41,-0.98 c -10.04,-3.28 -13.62,-14.06 -16.94,-23.05 a 1.15,1.15 0 0 0 -1.87,-0.44 q -12.58,11.94 -27.72,21.03 -14.38,8.65 -40.78,23.36 c -2.62,1.46 -5.23,1.54 -8.08,2.04 q -6.55,1.16 -20.97,3.96 c -4.04,0.79 -9.85,1.19 -13.66,-1.27 -15.86,-10.25 -28.62,-25.33 -39.16,-41 -2.95,-4.4 -1.96,-7.66 2.28,-10.47 q 29.53,-19.63 59.23,-39.02 13.77,-8.99 25.02,-13.7 c 11.71,-4.91 29.7,-12.81 46.69,-14.2 8.55,-0.7 20.67,-8.66 27.64,-13.61 q 0.37,-0.26 0.39,-0.73 c 0.17,-4.35 -4.01,-6.3 -6.88,-8.5 -4.37,-3.36 -6.29,-9.53 -7.46,-14.69 -1.62,-7.14 1.3,-10.6 7.28,-14.52 4.84,-3.18 13.36,-10.43 19.16,-10.93 10.66,-0.91 22.65,-0.05 30.69,-0.13 q 0.53,0 0.81,-0.46 c 1.83,-3 3.31,-6.38 5.88,-8.72 4.95,-4.51 12.95,-10.7 19.79,-11.38 11.86,-1.18 23.91,1 35.68,2.5 4.79,0.61 6.43,-5.28 3.09,-7.31 -3.16,-1.92 -6.35,-3.23 -8.61,-6.15 q -3.53,-4.55 -5.45,-9.99 c -4.97,-14.08 12.35,-22.58 22.27,-28.74 4.2,-2.61 7.04,-3.3 12.26,-2.9 q 14.28,1.11 23.4,2.4 4.56,0.64 8.45,4.12 a 1.09,1.09 0 0 0 0.93,0.26 q 1.69,-0.32 3.24,-1.32 c 5.66,-3.66 13.58,-9.3 20.92,-11.63 q 7.91,-2.51 16.13,-3.83 2.11,-0.34 4.83,-3.18 13.18,-13.75 43.68,-43.82 10.6,-10.47 21.43,-18.21 2.28,-1.63 16.71,-10.97 34.06,-22.04 68.5,-43.49 c 7.18,-4.47 15.56,-3.38 23.02,-0.08 8.31,3.68 18.18,6.72 24.54,13.8 11.78,13.12 21.8,29.24 25.97,46.49 3.56,14.74 -1.28,26.95 -14.47,34.67 -23.85,13.95 -47.94,27.42 -71.91,41.16 q -16.32,9.36 -28.83,13.64 -37.85,12.93 -50.99,16.17 -7.74,1.91 -13.37,5.82 c -4.81,3.34 -9.22,9.8 -14.43,14.12 -5.15,4.27 -12.14,7.53 -18.38,10.9 -5.09,2.74 -9.84,2.2 -15.35,2.23 -4.47,0.03 -11.86,5.87 -15.48,8.52 q -0.37,0.27 -0.45,0.72 -0.31,1.85 1.05,3.2 0.34,0.34 0.82,0.27 z M 539,17.78 q -0.55,0.95 -0.05,1.93 l 31.38,61.62 q 0.71,1.39 2.05,0.59 c 5.19,-3.09 4.68,-8.49 3.34,-14.07 C 571.95,52.08 565.29,34.77 554.05,22.72 551.59,20.09 542.07,12.46 539,17.78 Z M 429.94,90.44 q -30.4,30.14 -43.75,44.25 c -0.89,0.94 -1.74,1.79 -3.12,2.04 -16.7,2.96 -37.28,7.67 -44.07,25.66 q -0.55,1.48 -0.26,2.11 6.08,13.14 12.26,26.21 2.16,4.57 6.89,4.7 c 5.25,0.15 20,-9.13 23.97,-12.69 7.27,-6.54 13.76,-17.34 23.13,-20 q 28.04,-7.96 55.56,-17.59 c 20.74,-7.26 40.46,-19.04 58.93,-31.26 q 0.67,-0.44 0.31,-1.16 l -16.42,-33 a 2.53,2.52 -29 0 1 0.95,-3.28 l 17.04,-10.37 a 0.7,0.69 61.1 0 1 0.99,0.29 l 17.06,34.03 q 0.95,1.9 2.72,0.73 l 6.86,-4.52 q 1.73,-1.14 0.8,-2.99 L 518.43,30.83 a 1.17,1.16 -29.2 0 0 -1.66,-0.47 Q 487.54,48.78 458.59,67.11 444.4,76.1 429.94,90.44 Z m 108.4714,11.9199 a 0.71,0.71 0 0 0 -0.9717,-0.2531 l -15.3182,8.9871 a 0.71,0.71 0 0 0 -0.2531,0.9717 l 0.0202,0.0345 a 0.71,0.71 0 0 0 0.9717,0.2531 l 15.3182,-8.9871 a 0.71,0.71 0 0 0 0.2531,-0.9717 z m -230.5041,69.0684 a 1.12,1.12 0 0 0 -1.5421,-0.3617 l -16.25,10.0754 a 1.12,1.12 0 0 0 -0.3617,1.5421 l 1.9392,3.1276 a 1.12,1.12 0 0 0 1.5421,0.3617 l 16.25,-10.0754 a 1.12,1.12 0 0 0 0.3617,-1.5421 z M 331.68,174.17 262.4,216.9 a 0.68,0.68 0 0 0 -0.09,1.09 q 9.2,7.96 9.7,20.3 0.07,1.91 1.71,0.93 l 68.94,-41.29 a 1.5,1.5 0 0 0 0.58,-1.95 l -10.52,-21.51 a 0.73,0.73 0 0 0 -1.04,-0.3 z m -78.9614,82.2454 a 18.01,14.76 88.7 0 0 14.3476,-18.3403 18.01,14.76 88.7 0 0 -15.1648,-17.6705 18.01,14.76 88.7 0 0 -14.3476,18.3403 18.01,14.76 88.7 0 0 15.1648,17.6705 z M 190.34,329.8 c -5.23,4.13 -8.18,7.52 -14.88,10.38 a 0.32,0.31 -19.2 0 0 -0.18,0.36 c 2.16,9.29 8.53,21.84 20.46,15.28 q 73,-40.18 167.71,-93.35 c 13.56,-7.62 9.06,-20.26 2.84,-30.91 a 0.73,0.72 56.5 0 0 -1.05,-0.22 q -5.72,4.16 -12.37,6.19 c -1.81,0.55 -4.33,0.37 -6.19,2.17 -7,6.77 -13.63,10.7 -22.62,13.94 -7.71,2.78 -12.33,10.83 -20.29,12.56 q -7.94,1.72 -13.75,7.18 c -3.9,3.67 -6.45,5.47 -10.7,7.37 -4.9,2.19 -7.77,1.15 -12.47,5.26 -6.96,6.07 -11.75,9.63 -20.16,12.02 -8.86,2.52 -12.7,9.83 -19.7,13.21 q -11.76,5.69 -19.65,11.15 c -5.51,3.82 -12.05,3.5 -17,7.41 z m 50.32,-70.7 a 0.87,0.87 0 0 0 0.19,-1.34 q -8.18,-8.76 -7.58,-21.02 0.01,-0.25 -0.09,-0.47 -0.14,-0.28 -0.21,-0.43 -0.29,-0.55 -0.82,-0.22 l -74.09,45.83 a 1.24,1.24 0 0 0 -0.51,1.5 l 7.67,20.32 a 0.85,0.85 0 0 0 1.23,0.43 z m -45.0282,-15.732 a 1.78,1.78 0 0 0 -2.4518,-0.5705 l -12.7516,7.9371 a 1.78,1.78 0 0 0 -0.5705,2.4518 l 0.7503,1.2056 a 1.78,1.78 0 0 0 2.4518,0.5705 l 12.7516,-7.9371 a 1.78,1.78 0 0 0 0.5705,-2.4518 z M 300.06,252.11 q -2.82,1.68 -7.01,4.69 c -5.05,3.64 -12.56,6.23 -17.28,8.76 q -10.98,5.91 -21.51,12.57 c -2.61,1.65 -5.7,2.59 -3.65,6.59 a 1.35,1.34 -32.9 0 0 2.05,0.43 c 8.08,-6.52 12.56,-11.67 22.76,-14.77 7.64,-2.32 11.22,-9.03 18.65,-11.73 5.13,-1.86 9.07,-3.31 13.7,-6.28 a 0.71,0.7 -21.8 0 0 0.32,-0.73 l -0.72,-3.66 a 0.79,0.78 67.3 0 0 -1.21,-0.5 c -2.17,1.49 -3.99,3.37 -6.1,4.63 z m -178.7,95.18 c 12.94,-10.97 27.17,-22.3 37.66,-35.71 q 0.27,-0.35 0.13,-0.77 l -9.04,-26.33 a 1.55,1.55 0 0 0 -1.52,-1.05 c -17.19,0.55 -32.34,7.68 -50.03,15.15 q -14.97,6.32 -32.43,19.54 -0.38,0.29 -0.22,0.74 l 18.31,51.2 q 0.33,0.92 1.2,0.49 c 13.15,-6.5 24.35,-13.45 35.94,-23.26 z m -99.91,0.63 c 8.81,12 19.96,24.63 31.97,33.66 7.72,5.8 13.96,0.95 20.16,-3.93 q 0.44,-0.34 0.25,-0.86 L 55.76,325.73 q -0.36,-1.02 -1.27,-0.43 l -32.8,21.31 a 0.92,0.92 0 0 0 -0.24,1.31 z"
       id="path12" /><path
       fill="#b825e2"
       d="m 539,17.78 c 3.07,-5.32 12.59,2.31 15.05,4.94 11.24,12.05 17.9,29.36 21.67,45.13 1.34,5.58 1.85,10.98 -3.34,14.07 q -1.34,0.8 -2.05,-0.59 L 538.95,19.71 q -0.5,-0.98 0.05,-1.93 z"
       id="path13" /><path
       fill="#b825e2"
       d="M 429.94,90.44 Q 444.4,76.1 458.59,67.11 487.54,48.78 516.77,30.36 a 1.17,1.16 -29.2 0 1 1.66,0.47 l 31.36,62.77 q 0.93,1.85 -0.8,2.99 l -6.86,4.52 q -1.77,1.17 -2.72,-0.73 L 522.35,66.35 a 0.7,0.69 61.1 0 0 -0.99,-0.29 l -17.04,10.37 a 2.53,2.52 -29 0 0 -0.95,3.28 l 16.42,33 q 0.36,0.72 -0.31,1.16 c -18.47,12.22 -38.19,24 -58.93,31.26 q -27.52,9.63 -55.56,17.59 c -9.37,2.66 -15.86,13.46 -23.13,20 -3.97,3.56 -18.72,12.84 -23.97,12.69 q -4.73,-0.13 -6.89,-4.7 -6.18,-13.07 -12.26,-26.21 -0.29,-0.63 0.26,-2.11 c 6.79,-17.99 27.37,-22.7 44.07,-25.66 1.38,-0.25 2.23,-1.1 3.12,-2.04 q 13.35,-14.11 43.75,-44.25 z"
       id="path14" /><rect
       fill="#4f4f4f"
       x="-9.5900002"
       y="-0.73000002"
       transform="rotate(-30.4,462.41098,-922.02308)"
       width="19.18"
       height="1.46"
       rx="0.70999998"
       id="rect14" /><rect
       fill="#4f4f4f"
       x="-10.68"
       y="-2.96"
       transform="rotate(-31.8,463.42519,-436.91804)"
       width="21.360001"
       height="5.9200001"
       rx="1.12"
       id="rect15" /><path
       fill="#9f5fe3"
       d="m 331.68,174.17 a 0.73,0.73 0 0 1 1.04,0.3 l 10.52,21.51 a 1.5,1.5 0 0 1 -0.58,1.95 l -68.94,41.29 q -1.64,0.98 -1.71,-0.93 -0.5,-12.34 -9.7,-20.3 a 0.68,0.68 0 0 1 0.09,-1.09 z"
       id="path15" /><ellipse
       fill="#7a9ae2"
       cx="0"
       cy="0"
       transform="rotate(88.7,4.21417,248.25534)"
       rx="18.01"
       ry="14.76"
       id="ellipse15" /><path
       fill="#4f4f4f"
       d="m 175.46,340.18 c 6.7,-2.86 9.65,-6.25 14.88,-10.38 4.95,-3.91 11.49,-3.59 17,-7.41 q 7.89,-5.46 19.65,-11.15 c 7,-3.38 10.84,-10.69 19.7,-13.21 8.41,-2.39 13.2,-5.95 20.16,-12.02 4.7,-4.11 7.57,-3.07 12.47,-5.26 4.25,-1.9 6.8,-3.7 10.7,-7.37 q 5.81,-5.46 13.75,-7.18 c 7.96,-1.73 12.58,-9.78 20.29,-12.56 8.99,-3.24 15.62,-7.17 22.62,-13.94 1.86,-1.8 4.38,-1.62 6.19,-2.17 q 6.65,-2.03 12.37,-6.19 a 0.73,0.72 56.5 0 1 1.05,0.22 c 6.22,10.65 10.72,23.29 -2.84,30.91 q -94.71,53.17 -167.71,93.35 c -11.93,6.56 -18.3,-5.99 -20.46,-15.28 a 0.32,0.31 -19.2 0 1 0.18,-0.36 z"
       id="path16" /><path
       fill="#7a9ae2"
       d="m 240.66,259.1 -74.21,44.6 a 0.85,0.85 0 0 1 -1.23,-0.43 l -7.67,-20.32 a 1.24,1.24 0 0 1 0.51,-1.5 l 74.09,-45.83 q 0.53,-0.33 0.82,0.22 0.07,0.15 0.21,0.43 0.1,0.22 0.09,0.47 -0.6,12.26 7.58,21.02 a 0.87,0.87 0 0 1 -0.19,1.34 z"
       id="path17" /><rect
       fill="#4f4f4f"
       x="-9.29"
       y="-2.49"
       transform="rotate(-31.9,529.46754,-204.66988)"
       width="18.58"
       height="4.98"
       rx="1.78"
       id="rect17" /><path
       fill="#59b5e1"
       d="m 159.02,311.58 c -10.49,13.41 -24.72,24.74 -37.66,35.71 -11.59,9.81 -22.79,16.76 -35.94,23.26 q -0.87,0.43 -1.2,-0.49 l -18.31,-51.2 q -0.16,-0.45 0.22,-0.74 17.46,-13.22 32.43,-19.54 c 17.69,-7.47 32.84,-14.6 50.03,-15.15 a 1.55,1.55 0 0 1 1.52,1.05 l 9.04,26.33 q 0.14,0.42 -0.13,0.77 z"
       id="path18" /><path
       fill="#44c0df"
       d="M 53.42,381.58 C 41.41,372.55 30.26,359.92 21.45,347.92 a 0.92,0.92 0 0 1 0.24,-1.31 l 32.8,-21.31 q 0.91,-0.59 1.27,0.43 l 18.07,51.06 q 0.19,0.52 -0.25,0.86 c -6.2,4.88 -12.44,9.73 -20.16,3.93 z"
       id="path19" /></g></svg>
