<?xml version="1.0" encoding="utf-8"?>
<!-- Generator: Adobe Illustrator 27.0.0, SVG Export Plug-In . SVG Version: 6.00 Build 0)  -->
<svg version="1.1" id="Layer_1" xmlns="http://www.w3.org/2000/svg" xmlns:xlink="http://www.w3.org/1999/xlink" x="0px" y="0px"
	 viewBox="0 0 1920 1080" style="enable-background:new 0 0 1920 1080;" xml:space="preserve">
<style type="text/css">
	.st0{fill:#C6C7CB;stroke:#363636;stroke-width:3;stroke-linecap:round;stroke-miterlimit:10;}
	.st1{fill:#C6C7CB;stroke:#363636;stroke-width:4.5;stroke-linecap:round;stroke-miterlimit:10;}
	.st2{fill:#4C4C4F;stroke:#333336;stroke-width:3;stroke-miterlimit:10;}
	.st3{fill:#C6C7CB;stroke:#9E9E9E;stroke-width:2;stroke-miterlimit:10;}
	.st4{fill:#38383B;stroke:#272729;stroke-miterlimit:10;}
	.st5{fill:#9D9DA1;}
	.st6{fill:#8B1600;stroke:#D02700;stroke-miterlimit:10;}
	.st7{fill:#186B00;stroke:#4BBD48;stroke-miterlimit:10;}
	.st8{fill:#616163;stroke:#363636;stroke-width:3;stroke-linecap:round;stroke-miterlimit:10;}
	.st9{fill:#9E9E9E;}
	.st10{fill:#7F7F82;}
</style>
<path class="st0" d="M1001.1,575.8h-55.5c-1.5,0-2.7-1.2-2.7-2.7v-29.7c0-1.5,1.2-2.7,2.7-2.7h55.5c1.5,0,2.7,1.2,2.7,2.7v29.7
	C1003.8,574.6,1002.6,575.8,1001.1,575.8z"/>
<line class="st1" x1="948.1" y1="533.5" x2="948.1" y2="539.3"/>
<line class="st1" x1="998.9" y1="533.8" x2="998.9" y2="539.6"/>
<circle class="st2" cx="956.8" cy="562.3" r="9.1"/>
<circle class="st2" cx="989.8" cy="562.3" r="9.1"/>
<line class="st3" x1="944.4" y1="549.3" x2="1002.4" y2="549.3"/>
<circle class="st4" cx="956.8" cy="562.3" r="5.7"/>
<circle class="st4" cx="989.8" cy="562.3" r="5.7"/>
<circle class="st5" cx="989.8" cy="562.3" r="1.4"/>
<circle class="st5" cx="956.8" cy="562.3" r="1.4"/>
<circle class="st6" cx="948.5" cy="545.7" r="1.5"/>
<circle class="st7" cx="953.4" cy="545.7" r="1.5"/>
<path class="st8" d="M998.5,536.4h-49.8c-0.8,0-1.4-0.6-1.4-1.4v-2c0-0.8,0.6-1.4,1.4-1.4h49.8c0.8,0,1.4,0.6,1.4,1.4v2
	C999.8,535.8,999.2,536.4,998.5,536.4z"/>
<line class="st3" x1="969" y1="549.3" x2="969" y2="574.3"/>
<line class="st3" x1="977.6" y1="549.3" x2="977.6" y2="574.3"/>
<path class="st9" d="M975,566.9h-3.2c-0.3,0-0.6-0.3-0.6-0.6V555c0-0.3,0.3-0.6,0.6-0.6h3.2c0.3,0,0.6,0.3,0.6,0.6v11.4
	C975.6,566.7,975.3,566.9,975,566.9z"/>
<circle class="st10" cx="998.1" cy="545.2" r="2.4"/>
</svg>
