<?xml version="1.0" encoding="UTF-8" standalone="no"?>
<!-- Created with Inkscape (http://www.inkscape.org/) -->

<svg
   width="159mm"
   height="159mm"
   viewBox="0 0 159 159"
   version="1.1"
   id="svg5"
   xml:space="preserve"
   sodipodi:docname="big_rock.svg"
   inkscape:version="1.3 (0e150ed6c4, 2023-07-21)"
   xmlns:inkscape="http://www.inkscape.org/namespaces/inkscape"
   xmlns:sodipodi="http://sodipodi.sourceforge.net/DTD/sodipodi-0.dtd"
   xmlns="http://www.w3.org/2000/svg"
   xmlns:svg="http://www.w3.org/2000/svg"><sodipodi:namedview
     id="namedview1"
     pagecolor="#ffffff"
     bordercolor="#000000"
     borderopacity="0.25"
     inkscape:showpageshadow="2"
     inkscape:pageopacity="0.0"
     inkscape:pagecheckerboard="0"
     inkscape:deskcolor="#d1d1d1"
     inkscape:document-units="mm"
     inkscape:zoom="0.36283887"
     inkscape:cx="-235.64179"
     inkscape:cy="-64.767042"
     inkscape:window-width="1920"
     inkscape:window-height="1017"
     inkscape:window-x="-8"
     inkscape:window-y="-8"
     inkscape:window-maximized="1"
     inkscape:current-layer="svg5" /><defs
     id="defs2"><clipPath
       clipPathUnits="userSpaceOnUse"
       id="clipPath22"><path
         id="path23"
         style="fill:#ff0000;fill-opacity:1;fill-rule:nonzero;stroke:none;stroke-width:0.132293"
         d="m 101.04151,172.81842 v 10.12302 c 0.0524,-0.0479 0.11556,-0.0719 0.18087,-0.0718 0.17645,7e-5 0.36788,0.17499 0.39921,0.52453 0.0511,0.57016 0.10575,1.14006 0.162,1.70973 0.0637,0.64483 -0.53223,0.75317 -0.67852,0.21653 -0.0204,0.0278 -0.0397,0.0583 -0.0636,0.0773 v 13.87917 h 26.45842 v -26.45841 z" /></clipPath><clipPath
       clipPathUnits="userSpaceOnUse"
       id="clipPath42"><path
         id="path42"
         style="fill:#ff0000;fill-opacity:1;fill-rule:nonzero;stroke:none;stroke-width:0.264583"
         d="M 74.941679,-29.45815 V 93.816498 H 180.83806 V 65.65129 c -2.71857,-3.941284 -5.4312,-7.886975 -8.16591,-11.816331 C 157.93555,33.066466 142.31343,12.948492 126.72301,-7.1804403 120.94675,-14.721373 115.03804,-22.155611 108.96957,-29.45815 Z m 54.711391,0 c 3.2879,4.121416 6.5468,8.266199 9.75289,12.45402 14.01691,18.0974355 28.0212,36.214618 41.4321,54.768234 V -29.45815 Z" /></clipPath><clipPath
       clipPathUnits="userSpaceOnUse"
       id="clipPath43"><path
         id="path43"
         style="fill:#ff0000;fill-opacity:1;fill-rule:nonzero;stroke:none;stroke-width:0.264583"
         d="M 94.637119,-6.5334515 V 60.009775 H 160.52767 V 37.115049 C 149.63947,22.405687 138.42942,7.9343094 127.22324,-6.5334515 Z m 52.867571,0 c 4.35952,5.63929472 8.703,11.2910329 13.02298,16.9607225 V -6.5334515 Z" /></clipPath><clipPath
       clipPathUnits="userSpaceOnUse"
       id="clipPath44"><path
         id="path44"
         style="fill:#ff0000;fill-opacity:1;fill-rule:nonzero;stroke:none;stroke-width:0.264583"
         d="m 114.27003,21.286039 v 60.748748 h 60.36686 V 56.678195 c -0.6584,-0.945295 -1.30673,-1.89778 -1.96474,-2.843236 -7.80599,-11.001084 -15.8671,-21.814589 -24.03368,-32.54892 z m 54.44319,0 c 1.97607,2.636938 3.96757,5.262512 5.92367,7.914245 v -7.914245 z" /></clipPath><clipPath
       clipPathUnits="userSpaceOnUse"
       id="clipPath45"><path
         id="path45"
         style="fill:#ff0000;fill-opacity:1;fill-rule:nonzero;stroke:none;stroke-width:0.264583"
         d="m 126.04347,-33.971053 c 4.53607,5.588929 8.98498,11.248978 13.36249,16.966923 11.24165,14.5142599 22.48509,29.034066 33.42018,43.781823 h 4.60902 v -60.748746 z m -8.97516,14.462683 V 26.777693 H 152.7824 C 144.18759,15.388666 135.45932,4.0990935 126.72301,-7.1804403 c -3.17469,-4.1445707 -6.40034,-8.2479617 -9.6547,-12.3279297 z" /></clipPath><clipPath
       clipPathUnits="userSpaceOnUse"
       id="clipPath46"><path
         id="path46"
         style="fill:#ff0000;fill-opacity:1;fill-rule:nonzero;stroke:none;stroke-width:0.264583"
         d="m 135.02948,-22.643579 c 1.46237,1.877021 2.92979,3.749764 4.37648,5.639449 8.57677,11.0735888 17.1479,22.1552878 25.59275,33.331299 h 2.50269 v -38.970748 z m -6.11694,18.293457 v 20.677291 h 15.92875 C 139.55306,9.4180557 134.24,2.5279333 128.91254,-4.350122 Z" /></clipPath><clipPath
       clipPathUnits="userSpaceOnUse"
       id="clipPath47"><path
         id="path47"
         style="fill:#ff0000;fill-opacity:1;fill-rule:nonzero;stroke:none;stroke-width:0.264583"
         d="M 65.941713,-33.446537 V 27.302209 H 126.30857 V -7.7142578 C 119.60968,-16.446309 112.75074,-25.049574 105.64213,-33.446537 Z" /></clipPath></defs><g
     id="layer1"
     transform="matrix(6.023798,0,0,6.023798,-607.05848,-1039.581)"><g
       id="g3377"
       transform="translate(-0.26481154,-0.23943041)"><g
         id="g2724"
         transform="matrix(0.82201903,0,0,0.82067983,4.7366927,33.248982)"
         style="stroke-width:1.21752"><path
           style="fill:#808080;fill-opacity:1;stroke:none;stroke-width:2.57706;stroke-linecap:round;stroke-linejoin:round;stroke-dasharray:none;stroke-opacity:1;paint-order:normal"
           d="m 124.38731,197.74764 -6.26442,-13.73199 5.33734,-8.13863 12.64663,-3.29887 9.12394,2.35964 3.14618,11.16896 -3.77542,10.38242 -7.55085,3.30349 z"
           id="path1666" /><path
           id="path2153"
           style="opacity:1;fill:#666666;fill-opacity:1;stroke:none;stroke-width:2.57706;stroke-linecap:round;stroke-linejoin:round;stroke-dasharray:none;stroke-opacity:1;paint-order:normal"
           d="m 127.0521,192.26079 -6.15095,-0.35664 3.48616,5.84349 12.6634,2.04502 z" /><path
           id="path2570"
           style="opacity:1;fill:#999999;fill-opacity:1;stroke:none;stroke-width:2.57706;stroke-linecap:round;stroke-linejoin:round;stroke-dasharray:none;stroke-opacity:1;paint-order:normal"
           d="m 145.2308,174.93779 -9.12394,-2.35964 -1.4157,6.92173 5.5163,4.93315 8.16952,1.67372 z" /><path
           style="fill:none;fill-opacity:1;stroke:#333333;stroke-width:1.9328;stroke-linecap:round;stroke-linejoin:round;stroke-dasharray:none;stroke-opacity:1;paint-order:normal"
           d="m 124.38731,197.74764 -6.26442,-13.73199 5.33734,-8.13863 12.64663,-3.29887 9.12394,2.35964 3.14618,11.16896 -3.77542,10.38242 -7.55085,3.30349 z"
           id="path2572" /></g><path
         id="rect2804"
         style="fill-opacity:0;stroke-width:2.11667;stroke-linecap:round"
         d="m 101.04151,172.81842 h 26.45834 v 26.45833 h -26.45834 z"
         clip-path="url(#clipPath22)" /></g></g><path
     style="fill:#505934;fill-opacity:1;stroke:none;stroke-width:7.83095;stroke-linecap:round;stroke-linejoin:round;stroke-miterlimit:10"
     d="m 92.8406,8.1625677 c 2.46079,-1.0232908 4.826239,1.6531108 4.780036,3.9951593 -0.281646,2.194651 -0.908515,4.351084 -1.441408,6.495667 -3.214536,4.048686 -7.270544,7.759725 -8.884798,12.831365 -0.611041,1.973319 -0.323199,4.123412 -0.900437,6.078512 -2.275955,1.859706 -1.843345,4.42431 -1.623353,6.983036 -0.23728,2.335357 -3.541078,1.85204 -5.187071,2.772693 -2.642298,0.648513 -4.822766,2.318783 -6.699228,4.221318 -2.411742,1.930887 -4.423729,4.681262 -7.505742,5.53977 -2.718193,0.99456 -4.37193,-1.684616 -4.466553,-4.075941 -0.152856,-2.837074 -0.452942,-5.689909 -0.303206,-8.529964 0.400579,-3.275347 2.611654,-5.895727 3.766169,-8.88877 0.298363,-2.479924 -2.654505,-3.576815 -3.262941,-5.714973 -0.27639,-3.436439 -0.477557,-6.906886 -0.339882,-10.354125 0.538752,-2.813996 3.339655,-4.364817 5.906835,-4.991845 5.54698,-1.598328 11.285658,-2.42709 16.81107,-4.119754 2.93623,-0.905319 5.863601,-1.8877251 8.944606,-2.1563237 l 0.405882,-0.085828 z"
     id="path4547" /><path
     style="fill:#596b22;fill-opacity:1;stroke:none;stroke-width:7.83095;stroke-linecap:round;stroke-linejoin:round;stroke-miterlimit:10"
     d="m 72.219489,15.701 c 5.456966,-1.464672 10.91654,-2.926135 16.392932,-4.313219 1.756174,-0.200803 4.303878,-0.649324 5.589376,0.623664 0.298664,3.281534 -1.778958,6.062768 -3.264639,8.799261 -1.961488,3.207689 -4.343732,6.183527 -5.667641,9.744463 -1.176927,2.989303 -1.88085,6.147028 -2.731036,9.240836 -0.365441,1.75493 -0.46413,3.971598 -2.634066,4.390399 -2.74701,1.198462 -5.535023,2.440188 -7.711127,4.56464 -2.411498,1.982162 -4.723501,4.295499 -7.718948,5.360273 -1.610495,-0.242912 -0.865237,-2.930067 -1.195493,-4.227077 -0.135477,-2.601624 -0.403563,-5.364221 0.980983,-7.714804 0.991168,-2.261908 2.228216,-4.434367 2.939368,-6.807057 0.04753,-1.974395 -1.701055,-3.419438 -2.675182,-4.997654 -1.423816,-1.656745 -0.728555,-4.015287 -0.894269,-6.003764 0.06563,-2.185551 -0.15441,-5.012896 1.985211,-6.344015 2.024362,-1.192399 4.378911,-1.642543 6.604531,-2.315946 z"
     id="path4758" /><path
     style="fill:#505934;fill-opacity:1;stroke:none;stroke-width:7.83095;stroke-linecap:round;stroke-linejoin:round;stroke-miterlimit:10"
     d="m 46.890934,26.213521 c 1.961545,0.295489 3.923082,0.661662 5.817401,1.257506 1.274893,0.334751 2.013896,1.670689 2.021889,2.9222 -0.139573,1.169707 -1.287474,1.846691 -2.255016,2.310285 -1.91278,0.823178 -4.046241,0.944107 -5.974007,1.715913 -0.594286,0.554724 -0.235534,1.510276 -0.331063,2.232542 -0.05421,0.975097 0.122224,2.034594 -0.325967,2.936476 -0.645937,0.727173 -1.655084,0.952104 -2.498927,1.376516 -1.292823,0.503202 -2.591634,1.127296 -3.99051,1.236518 -0.8021,-0.0244 -1.849405,-0.469916 -1.79035,-1.423092 0.02831,-1.609233 1.249259,-2.927965 1.198787,-4.555074 0.07229,-2.595953 -0.121411,-5.199056 0.06723,-7.791365 0.08283,-0.880377 1.156954,-0.963318 1.791943,-1.310852 1.752692,-0.707971 3.65855,-1.281607 5.565597,-0.970439 0.236076,0.0088 0.470314,0.01777 0.702999,0.06286 z"
     id="path4052" /><path
     style="fill:#596b22;fill-opacity:1;stroke:none;stroke-width:7.83095;stroke-linecap:round;stroke-linejoin:round;stroke-miterlimit:10"
     d="m 43.912022,29.18565 c 1.339276,-0.245847 2.713123,-0.362941 4.066914,-0.163076 1.045943,0.149242 2.152216,0.250786 3.07414,0.809368 0.622417,0.317812 0.211589,1.019003 -0.331081,1.11315 -0.798938,0.286345 -1.648639,0.396573 -2.452492,0.671295 -0.935281,0.235413 -1.861229,0.529444 -2.69828,1.019013 -0.669144,0.337943 -1.410981,0.768987 -1.602056,1.554347 -0.382209,1.243135 -0.199932,2.678715 -1.000686,3.7745 -0.500343,0.649157 -1.313003,1.076343 -2.134479,1.094074 -0.698098,-2.62e-4 -0.224239,-0.82843 -0.237822,-1.243861 0.287459,-2.087297 0.458438,-4.191831 0.823078,-6.267893 0.213034,-0.90725 0.737144,-1.85024 1.632581,-2.222767 0.281677,-0.07214 0.575949,-0.07576 0.860192,-0.138151 z"
     id="path4194" /><path
     style="fill:#677c28;fill-opacity:1;stroke:none;stroke-width:7.83095;stroke-linecap:round;stroke-linejoin:round;stroke-miterlimit:10"
     d="m 46.463606,28.859125 c 1.200079,0.209785 2.419745,0.309786 3.608756,0.579455 0.500539,0.131077 1.064922,0.305188 1.353348,0.76872 0.131682,0.404581 -0.323033,0.653057 -0.655003,0.72328 -0.976482,0.304299 -1.991373,0.459959 -2.972632,0.747907 -0.968202,0.266647 -1.968512,0.554157 -2.780467,1.168538 -0.246286,0.202432 -0.462354,0.439421 -0.715781,0.633471 -0.414657,0.08171 -0.560344,-0.440135 -0.780318,-0.69102 -0.325085,-0.609956 -0.205685,-1.33708 -0.07714,-1.984334 0.130658,-0.558997 0.308233,-1.140255 0.696454,-1.576524 0.387609,-0.332503 0.930209,-0.372434 1.417803,-0.39674 0.302564,-0.0078 0.606887,-0.04504 0.904961,0.02726 z"
     id="path4336" /><path
     style="fill:#505934;fill-opacity:1;stroke:none;stroke-width:7.83095;stroke-linecap:round;stroke-linejoin:round;stroke-miterlimit:10"
     d="m 142.2868,79.416711 c 4.76144,0.222703 10.03452,1.434665 13.06599,5.42313 0.91865,1.889888 0.012,4.056242 -0.33758,5.994918 -2.28437,8.234117 -5.38163,16.218971 -8.41694,24.198771 -1.58454,3.76594 -2.87221,7.69834 -4.93513,11.23701 -1.44281,1.85456 -4.25831,1.6918 -6.23243,0.86465 -3.00376,-1.28762 -6.11026,-2.58342 -8.64582,-4.68514 -1.44213,-1.77243 -1.46576,-4.44747 -3.50662,-5.84444 -1.56833,-1.57008 -3.67775,-2.75338 -4.68993,-4.79187 0.14993,-2.48936 3.86651,-1.85 5.67647,-2.46892 2.41175,0.13325 4.03746,-1.34273 4.46538,-3.62991 1.00159,-1.67765 1.07238,-3.80386 -0.10355,-5.42103 -1.4561,-2.265351 -4.45167,-2.384916 -6.59639,-3.710569 -1.82406,-0.953291 -4.11979,-2.33434 -4.15234,-4.628337 1.07117,-1.795868 3.80092,-1.918791 4.77108,-3.8798 0.51811,-2.919417 3.75533,-2.208404 5.86309,-2.732361 3.82546,-0.785152 7.24046,-2.738547 10.42407,-4.923626 1.01722,-0.563326 2.14533,-1.220968 3.35065,-1.002476 z"
     id="path3135" /><path
     style="fill:#596b22;fill-opacity:1;stroke:none;stroke-width:7.83095;stroke-linecap:round;stroke-linejoin:round;stroke-miterlimit:10"
     d="m 143.76498,83.85881 c 2.49046,-0.20195 5.70063,0.202162 6.8384,2.777399 0.78674,2.557665 -0.0943,5.251445 -0.67331,7.763444 -2.51718,8.642517 -5.75435,17.065307 -9.29461,25.336337 -0.65595,1.43106 -1.4335,3.99658 -3.51357,3.05782 -3.43594,-1.22877 -6.48203,-3.34218 -9.43124,-5.45325 -1.83025,-1.44709 -3.70049,-2.93631 -5.06084,-4.85018 -0.52309,-1.83009 2.45791,-1.30623 3.6201,-1.68353 1.73544,-0.0373 3.4514,-0.91846 4.08507,-2.60412 1.34061,-2.88487 2.19011,-6.58565 0.29629,-9.424792 -1.61993,-1.810027 -4.0978,-2.434083 -6.08667,-3.738911 -0.94462,-0.842002 -3.70129,-1.555597 -2.83925,-3.138608 2.51917,-2.188552 5.85282,-3.101974 9.09563,-3.550255 3.47973,-0.527803 6.53055,-2.35807 9.55655,-4.032705 1.04705,-0.624609 2.26094,-0.302022 3.40744,-0.458649 z"
     id="path3139" /><path
     style="fill:#677c28;fill-opacity:1;stroke:none;stroke-width:7.83095;stroke-linecap:round;stroke-linejoin:round;stroke-miterlimit:10"
     d="m 128.44419,88.588544 c 0.51763,-0.04518 1.5513,-0.135658 2.42589,-0.283303 0.87459,-0.147646 1.5905,-0.352274 2.16004,-0.473049 0.56955,-0.120779 0.99252,-0.157826 1.45695,-0.127164 0.46443,0.03072 0.97004,0.128489 1.32209,0.370646 0.35203,0.24216 0.55142,0.6271 0.57859,0.943483 0.0271,0.316368 -0.11675,0.565693 -0.31878,0.962176 -0.20204,0.396485 -0.46221,0.940047 -0.68349,1.243075 -0.22126,0.302998 -0.40522,0.366489 -0.93628,0.519493 -0.53106,0.153006 -1.40934,0.395582 -2.0813,0.560937 -0.67197,0.165355 -1.13762,0.253485 -1.42731,0.326006 -0.28969,0.07253 -0.40329,0.129935 -0.37878,0.412991 0.0247,0.283062 0.18716,0.789564 0.35191,1.319575 0.16469,0.530035 0.33149,1.083608 0.34565,1.519652 0.0139,0.436062 -0.12355,0.755819 -0.36197,1.001108 -0.23837,0.245292 -0.57841,0.417027 -0.8528,0.523951 -0.27439,0.106923 -0.48371,0.14891 -0.81852,0.107646 -0.33481,-0.04156 -0.79552,-0.16668 -1.44581,-0.429135 -0.65028,-0.26246 -1.49013,-0.66243 -2.39902,-1.174586 -0.9089,-0.512144 -1.88671,-1.13675 -2.5801,-1.620426 -0.69338,-0.48365 -1.10214,-0.826662 -1.41726,-1.047928 -0.3151,-0.221257 -0.53684,-0.320226 -0.39371,-0.570154 0.14312,-0.24987 0.65259,-0.649527 1.15994,-1.072626 0.50739,-0.423114 1.01277,-0.869766 1.56943,-1.273595 0.55666,-0.403834 1.16423,-0.764722 1.75996,-0.994277 0.59576,-0.22957 1.17902,-0.327933 1.52942,-0.382088 0.35041,-0.05421 0.46787,-0.06422 0.58166,-0.109695 0.11379,-0.04518 0.22511,-0.12626 0.28053,-0.1665 0.0554,-0.04036 0.0554,-0.04096 0.57311,-0.08626 z"
     id="path4040" /><path
     style="fill:#505934;fill-opacity:1;stroke:none;stroke-width:7.83095;stroke-linecap:round;stroke-linejoin:round;stroke-miterlimit:10"
     d="m 61.251292,126.26254 c 1.438146,-0.60655 3.176369,-0.57984 4.555481,0.16713 1.194028,0.77346 1.380311,2.3584 1.383693,3.66212 0.0014,1.12362 -0.322232,2.21623 -0.840909,3.20455 -0.28511,0.74908 0.860863,1.20394 0.434096,1.96405 -0.500886,1.39213 -2.133362,1.88286 -3.483806,1.8493 -0.704601,0.0446 -1.577171,-0.36921 -2.068443,0.35766 -1.018839,1.09544 -2.338194,2.079 -3.900233,2.08285 -1.445534,0.0641 -2.822463,-0.58229 -3.911579,-1.49315 -0.684382,-0.58117 -1.581427,-0.78543 -2.368862,-1.11367 -0.912391,0.22289 -1.540058,-0.61368 -1.833683,-1.35723 -0.395229,-0.90206 -0.876405,-2.01447 -0.346439,-2.95869 0.543272,-0.73603 1.581288,-0.63895 2.377488,-0.8604 1.472774,-0.36425 2.931895,-0.78369 4.403944,-1.15134 1.644431,-0.47867 3.09457,-1.53416 4.069742,-2.94016 0.441589,-0.52202 0.869366,-1.15778 1.52951,-1.41301 z"
     id="path2080" /><path
     style="fill:#596b22;fill-opacity:1;stroke:none;stroke-width:7.83095;stroke-linecap:round;stroke-linejoin:round;stroke-miterlimit:10"
     d="m 51.640654,133.42706 c 2.056385,-0.40266 4.178259,-0.71609 6.072262,-1.66017 1.220145,-0.61746 2.149057,-1.64704 3.001878,-2.68994 0.833355,-0.94525 2.113859,-1.80254 3.425245,-1.41815 0.920526,0.25045 1.595248,1.13891 1.560942,2.09699 0.05518,0.8354 -0.314443,1.6198 -0.842475,2.24639 -0.57903,0.73571 -0.468889,1.74914 -0.08259,2.54404 0.528119,0.85672 -0.851475,0.4764 -1.3061,0.56619 -0.817054,0.0612 -1.706289,-0.19779 -2.469168,0.1906 -0.753668,0.5161 -1.346053,1.25007 -2.175761,1.66439 -0.788332,0.45727 -1.777275,0.90255 -2.669826,0.45167 -1.347505,-0.6052 -2.397587,-1.88054 -3.924191,-2.06777 -0.617384,-0.0148 -1.525878,-0.14846 -1.631877,-0.8962 -0.03196,-0.59593 0.450137,-1.04889 1.041664,-1.02805 z"
     id="path2291" /><path
     style="fill:#505934;fill-opacity:1;stroke:none;stroke-width:7.83095;stroke-linecap:round;stroke-linejoin:round;stroke-miterlimit:10"
     d="m 36.61116,61.494833 c 4.252103,-0.388787 8.488333,-0.933779 12.729352,-1.413494 1.509352,0.864095 0.326028,3.566445 0.270533,5.136791 -0.245805,2.12585 -1.649241,3.85197 -3.378789,5.009292 -1.676658,0.774953 -2.386626,2.083794 -2.297973,3.853961 -1.535501,2.178173 -3.961189,3.57251 -5.612668,5.659615 -0.311925,1.904451 2.132892,2.572161 3.30446,3.638435 3.117013,1.981548 6.55254,3.409402 9.738375,5.260187 1.850764,1.350423 -0.06563,3.542524 -1.38357,4.460246 -2.070475,1.611432 -4.347813,3.329179 -7.08242,3.415754 -3.882195,0.340162 -7.778727,0.521334 -11.667428,0.770963 -2.213367,0.618833 -2.87435,-1.42184 -3.122873,-3.186889 -0.544282,-2.29001 -0.537687,-4.858048 -1.977562,-6.820491 -2.024432,-1.682908 -4.912542,-1.320689 -7.231221,-2.337435 -1.330981,-1.791091 -2.35414,-3.818092 -3.444953,-5.766849 -0.959856,-2.031549 1.673334,-3.132647 2.883436,-4.244124 1.341359,-1.233904 3.239641,-0.84618 4.882195,-1.22444 2.194826,0.109152 4.093654,-1.243114 4.976248,-3.20885 1.604709,-3.117027 3.633253,-6.045868 6.11996,-8.516784 0.668295,-0.476708 1.526613,-0.360143 2.294898,-0.485888 z"
     id="path308" /><path
     style="fill:#596b22;fill-opacity:1;stroke:none;stroke-width:7.83095;stroke-linecap:round;stroke-linejoin:round;stroke-miterlimit:10"
     d="m 36.477165,65.680637 c 2.944832,-1.218648 6.181228,-1.34408 9.319038,-1.553967 1.477783,-0.104063 -0.54623,1.565997 -0.702357,2.190736 -2.628853,3.941153 -5.441246,7.754589 -8.257357,11.561573 -1.021218,1.207004 -0.895,3.02388 0.114424,4.193433 2.022748,2.398436 4.708854,4.107717 7.157629,6.032923 1.070677,0.88286 2.346031,1.584204 3.252546,2.626609 -1.148395,1.04888 -2.740011,1.591821 -4.22923,2.030218 -3.037732,0.765146 -6.206884,0.545236 -9.3108,0.562726 -1.616923,0.308437 -2.631485,-0.908762 -3.154138,-2.279977 -1.226292,-2.243189 -2.042205,-4.879965 -4.236088,-6.40665 -2.06166,-1.610607 -4.60804,-2.497014 -6.501301,-4.345136 -1.180844,-0.602863 -1.152905,-1.974087 0.228513,-2.281121 2.242242,-1.180086 4.364366,-2.621515 6.806527,-3.379735 2.270415,-0.569861 3.395174,-2.7567 4.886863,-4.335 1.277736,-1.429171 2.502191,-2.921321 3.885752,-4.246341 0.218697,-0.17647 0.481139,-0.272912 0.739979,-0.370291 z"
     id="path1871" /><path
     style="fill:#677c28;fill-opacity:1;stroke:none;stroke-width:7.83095;stroke-linecap:round;stroke-linejoin:round;stroke-miterlimit:10"
     d="m 22.294338,76.777908 c 1.712032,-0.943996 3.484063,-1.834346 5.392602,-2.301308 0.366569,-0.124543 1.175057,-0.10608 0.943037,0.486115 -0.382833,0.860734 -1.135475,1.485235 -1.861399,2.054238 -0.970004,0.73788 -2.077592,1.283281 -3.008054,2.073168 -0.256232,0.460905 0.546971,0.709326 0.641561,1.13254 0.278758,0.475437 -0.241401,0.790094 -0.534471,1.053603 0.04809,0.38941 0.500555,0.596038 0.654344,0.954365 0.411284,0.557438 -0.42584,1.108185 -0.903257,0.749138 -0.732715,-0.395151 -1.394997,-0.908373 -2.109402,-1.335776 -0.854339,-0.554431 -1.683843,-1.179384 -2.333885,-1.969193 -0.282448,-0.325488 -0.328563,-0.856137 0.01699,-1.155578 0.709277,-0.706871 1.725895,-0.921174 2.551951,-1.445582 0.186481,-0.0925 0.366835,-0.197252 0.549974,-0.295743 z"
     id="path1929" /><path
     style="fill:#677c28;fill-opacity:1;stroke:none;stroke-width:7.83095;stroke-linecap:round;stroke-linejoin:round;stroke-miterlimit:10"
     d="m 69.518643,34.95227 c 1.007014,-0.05945 2.199883,0.358797 2.429251,1.459513 0.250352,1.466591 0.01958,2.965575 -0.05078,4.440689 0.05277,0.749723 -0.480886,1.758306 -0.03413,2.323448 1.241126,-0.331433 2.609938,-0.970301 3.879198,-0.366932 0.834148,0.411163 1.670677,0.96285 2.151575,1.778444 0.08301,0.834433 -1.311316,0.850372 -1.85867,1.352161 -1.561316,0.749352 -2.907541,1.854935 -4.128746,3.069625 -2.046331,1.919963 -4.243203,3.784931 -6.858218,4.873918 -0.739765,0.436731 -1.694302,0.114936 -1.427394,-0.861059 -0.129814,-0.811142 -0.464784,-1.591011 -0.416418,-2.438106 -0.05674,-1.85414 -0.358788,-3.714289 -0.161741,-5.566829 0.303784,-1.261794 0.970919,-2.400975 1.455624,-3.599308 0.898368,-1.951341 1.725615,-3.939283 2.714334,-5.846665 0.392293,-1.026348 1.488837,-0.966214 2.305955,-0.618787 z"
     id="path4762" /><path
     style="fill:#505934;fill-opacity:1;stroke-width:1.56366;stroke-linecap:round;stroke-linejoin:round;stroke-miterlimit:10"
     d="m 99.765958,90.215436 c 1.360712,0.01386 2.867462,-0.116291 3.902182,-1.105963 1.22143,-1.145985 1.66006,-2.832688 2.11234,-4.387119 0.28303,-0.928382 0.29878,-1.970687 -0.18675,-2.83717 -0.50784,-0.944297 -1.24194,-1.957389 -2.36939,-2.155231 -1.69474,-0.186138 -3.341504,0.393455 -4.975248,0.750677 -0.801676,0.215293 -1.640091,0.114725 -2.448901,0.257822 -0.745934,0.215715 -0.897983,1.084933 -1.127899,1.717094 -0.478485,1.662231 -0.937441,3.330721 -1.381021,5.002476 -0.12352,0.577698 -0.335431,1.36314 0.2399,1.76886 0.950279,0.557142 2.0754,0.700269 3.149876,0.849776 1.023785,0.135085 2.054575,0.150807 3.084908,0.13876 z"
     id="path550" /><path
     style="fill:#677c28;fill-opacity:1;stroke-width:1.56366;stroke-linecap:round;stroke-linejoin:round;stroke-miterlimit:10"
     d="m 100.44524,81.837915 c 1.16287,0.178879 2.39407,0.34946 3.37695,1.047037 0.42606,0.285501 0.67503,0.786305 0.65392,1.297374 -0.0365,0.702528 -0.0108,1.468268 -0.42225,2.074869 -0.64531,0.881582 -1.75176,1.274547 -2.8047,1.370369 -1.21215,0.09701 -2.405406,0.362477 -3.621024,0.419379 -0.493829,-2.8e-4 -1.063513,0.03656 -1.469197,-0.295712 -0.363824,-0.390618 -0.232852,-0.968621 -0.158668,-1.442405 0.31762,-1.821409 1.453525,-3.540322 3.134318,-4.363729 0.352915,-0.09707 0.733314,-0.1868 1.100051,-0.136952 0.0702,0.0099 0.14071,0.02018 0.21059,0.02982 z"
     id="path601" /><path
     style="fill:#596b22;fill-opacity:1;stroke-width:1.56366;stroke-linecap:round;stroke-linejoin:round;stroke-miterlimit:10"
     d="m 97.841384,83.131888 c 0.367474,0.3892 0.710377,0.801775 1.083719,1.184836 0.316491,0.290923 0.772607,0.128128 1.154857,0.168729 0.50402,0.01205 0.92916,0.379631 1.11016,0.834716 0.19662,0.424051 0.22888,0.92044 0.53629,1.292062 0.0863,0.21701 0.60683,0.469326 0.28776,0.676183 -0.5766,0.202974 -1.19481,0.246045 -1.78951,0.377356 -0.770025,0.134001 -1.525371,0.362451 -2.306017,0.428894 -0.605068,0.02831 -1.224061,-0.04563 -1.801913,-0.206257 -0.314109,-0.07575 -0.410153,-0.494362 -0.375155,-0.785797 0.07575,-1.024047 0.587744,-1.941471 1.022125,-2.849856 0.19677,-0.392456 0.370083,-0.810961 0.700526,-1.114056 0.132525,-0.188366 0.242732,-0.223636 0.377158,-0.0069 z"
     id="path605" /><path
     style="fill:#677c28;fill-opacity:1;stroke:none;stroke-width:7.83095;stroke-linecap:round;stroke-linejoin:round;stroke-miterlimit:10"
     d="m 63.802726,127.48519 c 0.57272,0.20779 1.18333,0.47441 1.503475,1.02509 0.398798,0.65373 0.499698,1.47326 0.278212,2.20585 -0.127435,0.44373 -0.324536,0.8723 -0.595228,1.24648 -0.205595,0.0741 -0.277128,-0.3244 -0.407653,-0.45986 -0.258304,-0.41718 -0.491386,-0.84983 -0.754611,-1.26373 -0.149212,-0.26445 -0.532092,-0.14521 -0.690969,0.0446 -0.228275,0.30328 -0.643058,0.27586 -0.98219,0.26228 -0.612538,-0.0447 -1.29082,-0.14581 -1.726656,-0.6242 -0.220053,-0.1964 -0.03922,-0.47799 0.09006,-0.66712 0.381437,-0.58491 0.926454,-1.05779 1.563352,-1.34553 0.472169,-0.21475 0.9566,-0.43112 1.47431,-0.50303 0.08638,0.0109 0.165898,0.0522 0.247913,0.0791 z"
     id="path2847" /><path
     style="fill:#677c28;fill-opacity:1;stroke:none;stroke-width:7.83095;stroke-linecap:round;stroke-linejoin:round;stroke-miterlimit:10"
     d="m 126.7566,110.8337 c 0.28915,-0.0846 0.86612,-0.25343 1.40042,-0.37107 0.5343,-0.11765 1.02559,-0.18433 1.4431,-0.14933 0.41751,0.0349 0.76078,0.17065 1.0326,0.44329 0.27186,0.27258 0.47329,0.68112 0.49594,1.08086 0.0229,0.39974 -0.13246,0.79216 -0.35588,1.2139 -0.22343,0.42172 -0.51534,0.87342 -0.74982,1.1659 -0.23451,0.29246 -0.41215,0.42636 -0.65409,0.49515 -0.24192,0.0688 -0.54932,0.0722 -0.76282,0.0673 -0.21348,-0.005 -0.33269,-0.0181 -0.37594,0.17536 -0.0434,0.19366 -0.008,0.59292 0.0355,0.95618 0.044,0.36323 0.096,0.68989 0.05,0.97727 -0.0458,0.2874 -0.18994,0.53672 -0.30734,0.67692 -0.11747,0.14024 -0.20879,0.17174 -0.43438,0.0265 -0.22559,-0.145 -0.58533,-0.46859 -1.30271,-1.09235 -0.71738,-0.62374 -1.7924,-1.54756 -2.43853,-2.16556 -0.64612,-0.618 -0.86282,-0.93041 -1.04448,-1.24591 -0.18168,-0.31552 -0.32788,-0.6341 -0.40938,-0.88749 -0.0815,-0.25337 -0.0976,-0.44149 0.0916,-0.58907 0.18915,-0.14759 0.58232,-0.253 0.97554,-0.35842 0.39323,-0.10541 0.78637,-0.21083 1.22017,-0.26035 0.43377,-0.0494 0.90779,-0.0434 1.21519,-0.0464 0.3074,-0.003 0.44836,-0.0151 0.51805,-0.0211 0.0697,-0.006 0.0682,-0.007 0.35734,-0.0916 z"
     id="path4044" /><path
     style="fill:#80a004;fill-opacity:0.701961;stroke:#312114;stroke-width:0.388257;stroke-opacity:0"
     d="m 142.35016,79.259088 c -4.08422,0.435794 -7.07406,3.85419 -10.9709,4.934791 -2.68575,1.436141 -6.72732,0.409458 -8.627,3.179179 -0.94556,2.27616 -4.25537,2.61122 -4.86913,4.998058 0.54659,3.303312 4.40417,4.472649 7.04586,5.727859 2.58025,0.693501 4.91683,3.181155 4.07255,6.018445 -0.24096,2.31205 -1.63456,4.6998 -4.15708,4.92752 -1.9652,0.70026 -5.0263,0.17238 -6.22426,2.22415 0.1597,2.53975 3.09812,3.76618 4.52487,5.59333 2.25643,2.14641 2.55144,5.88341 5.65551,7.22219 3.43033,1.61534 7.11044,4.29048 11.0934,3.43668 2.77145,-1.12082 3.12089,-4.66979 4.53086,-6.96033 4.66543,-10.75715 9.12243,-21.737229 11.3748,-33.275866 0.31304,-3.648917 -3.7291,-5.597342 -6.55988,-6.78029 -2.20014,-0.765797 -4.55523,-1.246066 -6.8896,-1.245716 z"
     id="path1" /><path
     style="fill:#80a004;fill-opacity:0.701961;stroke:#312114;stroke-width:0.27454;stroke-opacity:0"
     d="m 93.602928,7.9476934 c -2.62316,0.2733664 -5.25653,0.5896841 -7.698408,1.5817362 -6.607137,2.1069214 -13.501194,3.1135874 -20.148574,5.0608294 -2.674212,0.826633 -5.374703,3.017775 -5.156193,6.089735 0.0069,3.251749 -0.04677,6.585321 0.576425,9.774568 0.805039,1.741379 3.349094,2.969129 2.792581,5.141179 -1.363836,3.685015 -3.902634,7.153662 -3.512712,11.281318 0.251588,3.089007 -0.202071,6.512056 1.374841,9.310209 1.547287,2.165243 4.516564,0.942659 6.227004,-0.356044 4.18494,-3.007691 7.498972,-7.660695 12.831309,-8.721258 1.382212,-0.589271 3.988366,-0.742446 4.037855,-2.711807 -0.281556,-2.256713 -0.319226,-4.848443 1.408623,-6.556236 1.004638,-2.907173 0.687038,-6.19167 2.281573,-8.939688 1.885446,-3.947324 5.358795,-6.809426 7.637235,-10.481829 0.787411,-2.489127 1.789028,-5.228685 1.150705,-7.854401 -0.57406,-1.6062033 -2.002128,-2.8763672 -3.802264,-2.6183116 z"
     id="path3" /><path
     style="fill:#80a004;fill-opacity:0.701961;stroke:#312114;stroke-width:0.27454;stroke-opacity:0"
     d="m 44.98157,26.042627 c -2.13132,0.09536 -4.477429,0.61711 -6.108502,2.037597 -0.780191,3.822791 0.331575,7.903999 -1.23366,11.60255 -0.40878,1.014472 -0.160807,2.596315 1.228835,2.544275 2.313499,0.115658 4.530114,-1.078063 6.531034,-2.118567 1.778845,-1.246509 0.153489,-3.887523 1.320151,-5.428051 2.478909,-1.322105 6.157253,-0.899762 7.799169,-3.553463 0.621444,-1.090791 0.05084,-2.296971 -0.42575,-3.248895 -0.479732,-0.768192 -1.897491,-0.396016 -2.663354,-0.829516 -2.112401,-0.516938 -4.257181,-1.046024 -6.447923,-1.00593 z"
     id="path5" /><path
     style="fill:#80a004;fill-opacity:0.701961;stroke:#312114;stroke-width:0.27454;stroke-opacity:0"
     d="m 48.5538,60.072644 c -4.650233,0.388368 -9.298129,0.957802 -13.925368,1.498707 -3.241472,2.782663 -5.19099,6.647699 -7.518197,10.139724 -2.339538,2.9695 -6.810284,1.000927 -9.443726,3.538985 -1.235517,0.900922 -3.239748,2.267332 -2.28479,4.056963 1.082665,2.05574 2.105911,4.281333 3.750251,5.939595 2.442717,0.925258 5.893544,0.535101 7.361624,3.11431 1.332675,2.753695 0.882293,6.179804 2.623674,8.748264 1.785987,0.758002 3.892494,0.07771 5.783617,0.160777 4.543584,-0.497623 9.739938,0.173217 13.563367,-2.857907 1.477175,-1.222251 3.876424,-2.421207 3.795295,-4.628029 -0.680849,-1.794654 -2.95934,-2.177219 -4.383101,-3.223168 -3.064005,-1.788998 -6.538273,-3.122334 -9.09507,-5.628047 -0.606855,-1.401159 1.26498,-2.390822 1.975933,-3.350235 1.499487,-1.499433 3.480863,-2.928878 3.637111,-5.212496 1.478548,-2.344215 4.7143,-3.455569 5.186758,-6.462401 0.217583,-1.807422 1.376338,-4.085796 0.0606,-5.697228 -0.328997,-0.179331 -0.727795,-0.136953 -1.087972,-0.137796 z"
     id="path6" /><path
     style="fill:#80a004;fill-opacity:0.701961;stroke:#312114;stroke-width:0.27454;stroke-opacity:0"
     d="m 101.98335,79.542957 c -2.139657,0.224931 -4.236354,0.816268 -6.364276,1.041859 -1.393603,1.009689 -1.318024,3.1001 -1.940233,4.581148 -0.122646,1.278733 -1.178963,2.800382 -0.439996,4.007859 2.390126,1.497647 5.45973,1.195776 8.161645,1.041854 2.97409,-0.106081 4.16696,-3.469286 4.60122,-5.935846 0.56467,-2.437519 -1.36129,-5.196885 -4.01836,-4.736874 z"
     id="path7" /><path
     style="fill:#80a004;fill-opacity:0.701961;stroke:#312114;stroke-width:0.27454;stroke-opacity:0"
     d="m 60.594389,130.24159 c -1.551983,-0.15759 -2.244186,1.53336 -3.693949,1.79094 -1.459856,0.79797 -3.404794,0.5973 -4.683256,1.65152 -0.498175,0.89818 -0.006,1.93221 1.030595,2.03814 1.684043,0.8129 3.610693,2.66632 5.525107,1.28047 1.385266,-0.92445 2.684896,-2.29724 4.525611,-1.9191 1.986262,0.56502 1.360965,-0.86315 1.213977,-2.11267 0.694143,-1.22134 -0.415605,-2.89214 -1.851532,-2.66603 -0.688074,-0.0367 -1.377371,-0.0663 -2.066553,-0.0633 z"
     id="path8" /><path
     style="fill:#80a004;fill-opacity:0.701961;stroke:#312114;stroke-width:0.796907;stroke-opacity:0"
     d="m 63.222536,127.34982 c -0.975865,0.27017 -1.946742,0.73468 -2.583194,1.54931 -0.190053,0.2646 -0.535267,0.59073 -0.396983,0.94745 0.187403,0.37296 0.596165,0.54367 0.998187,0.52765 0.64185,0.007 1.294326,0.10078 1.931375,0.012 0.146832,-0.0865 0.381892,-0.23987 0.535179,-0.0955 0.332957,0.51428 0.678201,1.02287 0.94979,1.57218 0.208396,0.27107 0.567976,0.0383 0.667129,-0.21234 0.533634,-0.91919 0.682695,-2.10837 0.154874,-3.06454 -0.368215,-0.73986 -1.197037,-1.08379 -1.937591,-1.31009 -0.106262,0.0247 -0.212523,0.0492 -0.318778,0.0739 z"
     id="path9" /><path
     style="fill:#80a004;fill-opacity:0.701961;stroke:#312114;stroke-width:0.0485323;stroke-opacity:0"
     d="m 52.386593,133.15359 c -0.585225,0.15568 -1.336673,0.0831 -1.728198,0.63859 -0.32716,0.45206 -0.179331,1.14724 0.328918,1.39805 0.409558,0.21592 0.903747,0.32662 1.362598,0.25234 0.210715,-0.0793 0.101231,-0.30439 -0.02651,-0.39935 -0.264328,-0.45699 -0.228606,-1.1484 0.218215,-1.47729 0.126531,-0.14241 0.08352,-0.44344 -0.155085,-0.41234 z"
     id="path10" /><path
     style="fill:#80a004;fill-opacity:0.701961;stroke:#312114;stroke-width:0.0485323;stroke-opacity:0"
     d="m 52.387542,133.15359 c -0.585551,0.15544 -1.33736,0.083 -1.729147,0.63859 -0.32716,0.45206 -0.179331,1.14724 0.328918,1.39805 0.4155,0.22174 0.916539,0.32039 1.381652,0.25782 0.255864,-0.18596 -0.116743,-0.41704 -0.134694,-0.63253 -0.124303,-0.4252 -0.08054,-0.96422 0.303136,-1.2406 0.129001,-0.14259 0.09397,-0.45045 -0.149874,-0.42134 z"
     id="path11" /><path
     style="fill:#80a004;fill-opacity:0.701961;stroke:#312114;stroke-width:0.0485323;stroke-opacity:0"
     d="m 60.336961,130.11198 c -0.598017,-0.006 -1.096965,0.36497 -1.50723,0.76046 -1.552582,1.26564 -3.569267,1.68445 -5.475254,2.11239 -0.337684,0.10991 -0.764054,0.19729 -0.939824,0.53701 -0.376158,0.27801 -0.374273,0.83197 -0.321811,1.25492 0.04672,0.23391 0.21689,0.41675 0.274237,0.64295 0.267129,0.21153 0.646009,0.21542 0.934279,0.40264 1.05582,0.54508 1.986855,1.34627 3.147779,1.67684 0.499958,0.12873 1.049293,0.15491 1.548431,0.0145 1.120206,-0.47587 2.030607,-1.30869 2.989469,-2.03418 0.536619,-0.30117 1.183137,-0.29279 1.781094,-0.33205 0.590698,0.0407 1.200065,0.16515 1.785453,0.0414 0.397422,-0.27791 0.283694,-0.84357 0.135447,-1.23037 -0.115297,-0.53063 -0.138399,-1.09747 0.07711,-1.60677 0.025,-0.2202 0.228185,-0.55729 -0.01506,-0.70931 -0.170295,-0.0129 -0.187735,-0.2943 -0.308098,-0.41678 -0.13879,-0.23348 -0.307699,-0.45945 -0.386139,-0.7187 -0.290983,-0.11066 -0.597541,-0.33712 -0.934056,-0.23177 -0.672951,0.23225 -1.368537,0.11581 -2.047356,-0.0333 -0.22978,-0.0582 -0.485581,-0.14533 -0.738503,-0.12985 z m 3.512609,0.36087 c 0.01265,-0.0138 0.07557,-0.0196 0,0 z"
     id="path12" /><path
     style="fill:#80a004;fill-opacity:0.701961;stroke:#312114;stroke-width:0.0485323;stroke-opacity:0"
     d="m 63.301024,125.72428 c -0.914734,0.0386 -1.888147,0.20071 -2.63818,0.75995 -0.876179,0.77139 -1.463919,1.81766 -2.36907,2.56346 -0.866182,0.77775 -1.950139,1.25688 -3.078372,1.53877 -1.575222,0.41535 -3.146375,0.88519 -4.736248,1.20596 -0.682547,0.10331 -1.540151,0.27779 -1.814939,1.00646 -0.356373,0.99583 0.0847,2.03182 0.492717,2.93573 0.2852,0.6795 0.871992,1.38181 1.677297,1.3479 0.857462,0.13521 1.67829,0.52453 2.411252,0.99567 1.225587,0.99397 2.78247,1.7605 4.400163,1.56224 1.304618,-0.0961 2.45423,-0.87764 3.3556,-1.77978 0.232552,-0.21828 0.449686,-0.46722 0.712438,-0.64628 0.921767,-0.0442 1.854607,0.0578 2.769269,-0.0811 1.006704,-0.22135 2.041449,-0.79728 2.404538,-1.81887 0.224721,-0.40909 0.01054,-0.86159 -0.230473,-1.20617 -0.209842,-0.28083 -0.27246,-0.65013 -0.09241,-0.96237 0.458303,-0.95728 0.757382,-2.00158 0.72495,-3.0708 0.02199,-1.17649 -0.132224,-2.48532 -0.980787,-3.37517 -0.786844,-0.74916 -1.956768,-0.97599 -3.00776,-0.97557 z m 0.248064,1.7117 c 0.849682,0.18593 1.734309,0.71594 1.990481,1.5992 0.256948,0.90003 0.103128,1.92743 -0.425792,2.69998 -0.106201,0.14403 -0.344927,0.10147 -0.386552,0.31309 -0.313428,0.79672 -0.249027,1.70699 -0.01897,2.50794 0.03946,0.16309 0.104574,0.36272 -0.09973,0.44541 -0.451526,0.21692 -0.981109,0.0573 -1.462031,0.0614 -0.881721,-0.0367 -1.884627,-0.0492 -2.578553,0.59101 -0.837825,0.63714 -1.652265,1.33303 -2.627377,1.74252 -0.492204,0.0654 -1.016932,0.0978 -1.512742,-8e-4 -1.171719,-0.44695 -2.172201,-1.22353 -3.289669,-1.7755 -0.385925,-0.15608 -0.772863,-0.32624 -1.199932,-0.30457 -0.51146,-0.0211 -1.203218,-0.21059 -1.299473,-0.80295 -0.09951,-0.44789 0.200083,-0.91247 0.651166,-1.00271 0.67583,-0.24378 1.417032,-0.12523 2.089541,-0.3851 1.906878,-0.49233 3.952231,-0.8736 5.520863,-2.1578 0.514638,-0.47025 1.257852,-0.77579 1.496241,-1.49083 0.482437,-0.88607 1.359567,-1.47956 2.290111,-1.81958 0.277731,-0.10078 0.563627,-0.21207 0.862297,-0.22039 z"
     id="path13" /></svg>
