<?xml version="1.0" encoding="UTF-8" standalone="no"?>
<svg
   version="1.1"
   width="330"
   height="330"
   viewBox="0 0 330 330"
   xml:space="preserve"
   id="svg218"
   sodipodi:docname="big_bush.svg"
   inkscape:version="1.3 (0e150ed6c4, 2023-07-21)"
   xmlns:inkscape="http://www.inkscape.org/namespaces/inkscape"
   xmlns:sodipodi="http://sodipodi.sourceforge.net/DTD/sodipodi-0.dtd"
   xmlns="http://www.w3.org/2000/svg"
   xmlns:svg="http://www.w3.org/2000/svg"><sodipodi:namedview
   id="namedview220"
   pagecolor="#505050"
   bordercolor="#eeeeee"
   borderopacity="1"
   inkscape:showpageshadow="0"
   inkscape:pageopacity="0"
   inkscape:pagecheckerboard="true"
   inkscape:deskcolor="#505050"
   showgrid="false"
   inkscape:zoom="1.4142135"
   inkscape:cx="133.28963"
   inkscape:cy="175.71604"
   inkscape:window-width="1920"
   inkscape:window-height="1017"
   inkscape:window-x="-8"
   inkscape:window-y="-8"
   inkscape:window-maximized="1"
   inkscape:current-layer="svg218"
   showguides="true"
   inkscape:pageshadow="0" />&#10;<desc
   id="desc181">Created with Fabric.js 5.3.0</desc>&#10;<defs
   id="defs183" />&#10;&#10;<path
   id="rect2"
   style="fill:#6f8b0b;fill-opacity:0.40248963;stroke:#312114;stroke-width:1.82513;stroke-opacity:0"
   d="m 18.818359,19.060547 c -2.036738,0 -3.675781,1.132504 -3.675781,2.541015 v 10.007813 c 1.108616,2.619788 1.879347,5.371639 2.527344,8.144531 0.805551,3.478264 1.038503,7.024293 1.033203,10.582032 -0.08176,4.508264 -0.161361,9.014701 -0.212891,13.523437 0.166267,5.474247 -0.287355,10.889851 -1.175781,16.285156 -0.708961,3.721732 -1.502791,7.423706 -2.171875,11.150391 v 46.255858 c 0.106543,1.23348 0.180566,2.4684 0.306641,3.70117 0.665276,5.18453 1.210391,10.38282 1.617187,15.59375 0.473384,4.53232 0.257352,9.06902 -0.15039,13.59375 -0.486664,4.97914 -0.897075,9.96473 -1.25,14.95508 -0.290789,4.34171 -0.423239,8.69089 -0.523438,13.04102 v 103.9375 c 0.474005,0.5705 0.936726,1.15064 1.423828,1.70898 3.871457,4.34554 8.845638,7.248 14.134766,9.51367 1.389947,0.52927 2.817679,0.94654 4.226562,1.41992 H 299.96094 c 1.04898,-0.35087 2.12703,-0.59398 3.21094,-0.81054 0.96204,-0.92519 2.27298,-1.76878 3.98632,-2.42969 0.002,-7.4e-4 0.004,-9.5e-4 0.006,-0.002 0.52703,-0.44913 1.12193,-0.88889 1.81055,-1.3125 2.40006,-1.47642 4.29711,-2.84911 6.14062,-2.94141 0.75833,-0.038 1.50771,0.14464 2.2793,0.62109 V 30.941406 c -2.2233,-1.361001 -4.46632,-2.687754 -6.76758,-3.921875 -5.57231,-3.035878 -11.51726,-5.2317 -17.66406,-6.751953 -2.47559,-0.560627 -4.97298,-0.936066 -7.48047,-1.207031 h -34.9414 c -5.58659,0.24018 -11.1721,0.510257 -16.75782,0.765625 -13.3742,0.60279 -26.76127,0.866054 -40.14648,1.070312 -7.91208,0.09948 -4.06331,0.05563 -11.54297,0.136719 -3.02544,0.0328 -5.21325,-0.782435 -6.61719,-1.972656 z" /><rect
   style="fill:#6f8b0b;fill-opacity:0.40248963;stroke:#312114;stroke-width:1.90774;stroke-opacity:0"
   id="rect3"
   width="279.9122"
   height="262.37552"
   x="27.998381"
   y="33.265213"
   rx="3.806695"
   ry="2.6827562" /><rect
   style="fill:#6f8b0b;fill-opacity:0.40248963;stroke:#312114;stroke-width:1.90774;stroke-opacity:0"
   id="rect4"
   width="221.9063"
   height="230.67464"
   x="56.326847"
   y="48.778419"
   rx="3.806695"
   ry="2.6827562" /><rect
   style="fill:#6f8b0b;fill-opacity:0.40248963;stroke:#312114;stroke-width:2.24815;stroke-opacity:0"
   id="rect5"
   width="199.63715"
   height="208.75063"
   x="66.285027"
   y="62.438377"
   rx="4.7143064"
   ry="3.0083349" /></svg>
