<?xml version="1.0" encoding="UTF-8" standalone="no"?>
<svg
   width="2750"
   height="2750"
   viewBox="0 0 2750 2750"
   fill="none"
   version="1.1"
   id="svg48"
   sodipodi:docname="big_tree.svg"
   inkscape:version="1.3 (0e150ed6c4, 2023-07-21)"
   xmlns:inkscape="http://www.inkscape.org/namespaces/inkscape"
   xmlns:sodipodi="http://sodipodi.sourceforge.net/DTD/sodipodi-0.dtd"
   xmlns="http://www.w3.org/2000/svg"
   xmlns:svg="http://www.w3.org/2000/svg">
  <defs
     id="defs52" />
  <sodipodi:namedview
     id="namedview50"
     pagecolor="#505050"
     bordercolor="#ffffff"
     borderopacity="1"
     inkscape:pageshadow="0"
     inkscape:pageopacity="0"
     inkscape:pagecheckerboard="1"
     showgrid="false"
     width="520.942px"
     inkscape:zoom="0.25492135"
     inkscape:cx="602.1465"
     inkscape:cy="1394.5478"
     inkscape:window-width="1920"
     inkscape:window-height="1017"
     inkscape:window-x="-8"
     inkscape:window-y="-8"
     inkscape:window-maximized="1"
     inkscape:current-layer="svg48"
     height="604.001px"
     inkscape:showpageshadow="2"
     inkscape:deskcolor="#505050" />
  <path
     d="m 1870.4063,1295.4156 c 0,0 -172.1181,-22.6471 -235.5302,-22.6471 l -163.0592,-72.4708 -86.0591,-507.29567 -375.9422,-199.29471 240.0594,235.53012 13.5884,185.70644 58.8824,448.41302 -158.5298,81.5297 -231.00069,-58.8825 -240.05948,149.471 203.82412,-36.2354 176.64755,77.0002 298.942,-27.1765 217.4124,27.1765 126.8239,122.2945 140.4122,253.6478 -77.0002,163.0593 172.1181,-154.0004 -36.2354,-249.1184 -240.0595,-280.8244 163.0593,-45.2942 194.7653,63.4119 c -48.3135,-43.7814 -163.0593,-154.0004 -163.0593,-154.0004 z"
     fill="#5b3e24"
     id="path2"
     style="opacity:0.9;stroke-width:9.05884;fill:#5b3e24;fill-opacity:0.66390043" />
  <path
     d="m 1372.6406,1557.7962 -147.9129,99.5748 -164.1101,267.0912 -327.41402,43.2378 275.38902,-173.4225 93.0072,-273.2694 216.9142,-152.1705 -198.4251,-335.3224 -261.62861,-96.24129 -117.88286,-289.13129 223.5,193.76702 296.38747,64.85408 211.3611,306.66028 c 74.0832,-147.7318 136.4081,-235.06819 136.4081,-235.06819 l 244.0545,-113.23562 172.1182,-212.88297 -117.7651,344.23627 -212.883,149.47101 -85.5246,218.5448 173.3864,155.006 286.3294,81.5297 144.9398,294.4126 -251.0325,-181.177 -242.6703,-36.2354 -133.6362,-94.0671 11.3417,220.891 -75.2518,278.6865 63.9101,294.4126 -204.3223,-298.9421 36.2354,-217.4124 z"
     fill="#6d4a2c"
     stroke="#1b1917"
     stroke-width="11.0123"
     stroke-miterlimit="16"
     stroke-linejoin="round"
     id="path4"
     style="stroke:#312114;stroke-width:44.4212;stroke-miterlimit:16;stroke-dasharray:none;stroke-opacity:0.51867223;fill:#6d4a2c;fill-opacity:0.7261411" />
  <path
     opacity="0.95"
     d="m 339.28765,764.56082 c 0,349.17998 281.28763,632.24108 628.26469,632.24108 346.98016,0 628.26456,-283.0611 628.26456,-632.24108 0,-349.17986 -281.2844,-632.24088 -628.26456,-632.24088 -346.97706,0 -628.26469,283.06102 -628.26469,632.24088 z"
     fill="#3a4f3f"
     id="path6"
     style="fill:#81a205;fill-opacity:0.514523;stroke-width:7.95268" />
  <path
     opacity="0.85"
     d="m 585.82188,773.68622 c 0,224.00419 179.81093,405.58858 401.61216,405.58858 221.80446,0 401.61226,-181.58439 401.61226,-405.58858 0,-223.99612 -179.8078,-405.58845 -401.61226,-405.58845 -221.80123,0 -401.61216,181.59233 -401.61216,405.58845 z"
     fill="#485e52"
     id="path12"
     style="opacity:0.8;fill:#81a205;fill-opacity:0.514523;stroke-width:7.95268" />
  <path
     opacity="0.95"
     d="m 1403.2468,945.86255 c 0,349.18005 281.2877,632.24115 628.2647,632.24115 346.9802,0 628.2645,-283.0611 628.2645,-632.24115 0,-349.17988 -281.2844,-632.2409 -628.2645,-632.2409 -346.977,0 -628.2647,283.06102 -628.2647,632.2409 z"
     fill="#3a4f3f"
     id="path6-1"
     style="fill:#81a205;fill-opacity:0.514523;stroke-width:7.95268" />
  <path
     opacity="0.85"
     d="m 1649.7811,954.98795 c 0,224.00425 179.8109,405.58865 401.6121,405.58865 221.8045,0 401.6123,-181.5844 401.6123,-405.58865 0,-223.99614 -179.8078,-405.58847 -401.6123,-405.58847 -221.8012,0 -401.6121,181.59233 -401.6121,405.58847 z"
     fill="#485e52"
     id="path12-9"
     style="opacity:0.8;fill:#81a205;fill-opacity:0.514523;stroke-width:7.95268" />
  <path
     opacity="0.95"
     d="m 1307.3565,1818.378 c 0,349.1801 281.2877,632.2412 628.2647,632.2412 346.9802,0 628.2645,-283.0611 628.2645,-632.2412 0,-349.1799 -281.2844,-632.2408 -628.2645,-632.2408 -346.977,0 -628.2647,283.0609 -628.2647,632.2408 z"
     fill="#3a4f3f"
     id="path6-1-9"
     style="fill:#81a205;fill-opacity:0.514523;stroke-width:7.95268" />
  <path
     opacity="0.85"
     d="m 1553.8908,1827.5034 c 0,224.0042 179.8109,405.5886 401.6121,405.5886 221.8045,0 401.6123,-181.5844 401.6123,-405.5886 0,-223.9962 -179.8078,-405.5885 -401.6123,-405.5885 -221.8012,0 -401.6121,181.5923 -401.6121,405.5885 z"
     fill="#485e52"
     id="path12-9-5"
     style="opacity:0.8;fill:#81a205;fill-opacity:0.514523;stroke-width:7.95268" />
  <path
     opacity="0.95"
     d="m 278.02363,1785.2487 c 0,349.1801 281.2877,632.2412 628.2647,632.2412 346.98017,0 628.26447,-283.0611 628.26447,-632.2412 0,-349.1799 -281.2844,-632.2409 -628.26447,-632.2409 -346.977,0 -628.2647,283.061 -628.2647,632.2409 z"
     fill="#3a4f3f"
     id="path6-1-9-2"
     style="fill:#81a205;fill-opacity:0.514523;stroke-width:7.95268" />
  <path
     opacity="0.85"
     d="m 524.55793,1794.3741 c 0,224.0042 179.8109,405.5886 401.6121,405.5886 221.80447,0 401.61227,-181.5844 401.61227,-405.5886 0,-223.9962 -179.8078,-405.5885 -401.61227,-405.5885 -221.8012,0 -401.6121,181.5923 -401.6121,405.5885 z"
     fill="#485e52"
     id="path12-9-5-4"
     style="opacity:0.8;fill:#81a205;fill-opacity:0.514523;stroke-width:7.95268" />
  <path
     opacity="0.95"
     d="m 827.42454,1364.8124 c 0,349.1801 281.28766,632.2412 628.26466,632.2412 346.9802,0 628.2645,-283.0611 628.2645,-632.2412 0,-349.1799 -281.2844,-632.24081 -628.2645,-632.24081 -346.977,0 -628.26466,283.06091 -628.26466,632.24081 z"
     fill="#3a4f3f"
     id="path6-1-9-2-1"
     style="fill:#81a205;fill-opacity:0.19502075;stroke-width:7.95268" />
  <path
     opacity="0.85"
     d="m 1073.9588,1373.9378 c 0,224.0042 179.8109,405.5886 401.6121,405.5886 221.8045,0 401.6123,-181.5844 401.6123,-405.5886 0,-223.9962 -179.8078,-405.58841 -401.6123,-405.58841 -221.8012,0 -401.6121,181.59221 -401.6121,405.58841 z"
     fill="#485e52"
     id="path12-9-5-4-8"
     style="opacity:0.8;fill:#81a205;fill-opacity:0.19502075;stroke-width:7.95268" />
</svg>
