<?xml version="1.0" encoding="UTF-8" standalone="no"?>
<svg
   width="2750"
   height="2750"
   viewBox="0 0 2750 2750"
   fill="none"
   version="1.1"
   id="svg48"
   sodipodi:docname="big_treem.svg"
   inkscape:version="1.3 (0e150ed6c4, 2023-07-21)"
   xmlns:inkscape="http://www.inkscape.org/namespaces/inkscape"
   xmlns:sodipodi="http://sodipodi.sourceforge.net/DTD/sodipodi-0.dtd"
   xmlns="http://www.w3.org/2000/svg"
   xmlns:svg="http://www.w3.org/2000/svg">
  <defs
     id="defs52" />
  <sodipodi:namedview
     id="namedview50"
     pagecolor="#505050"
     bordercolor="#ffffff"
     borderopacity="1"
     inkscape:pageshadow="0"
     inkscape:pageopacity="0"
     inkscape:pagecheckerboard="1"
     showgrid="false"
     width="520.942px"
     inkscape:zoom="0.16"
     inkscape:cx="-965.625"
     inkscape:cy="1546.875"
     inkscape:window-width="1920"
     inkscape:window-height="1017"
     inkscape:window-x="-8"
     inkscape:window-y="-8"
     inkscape:window-maximized="1"
     inkscape:current-layer="svg48"
     height="604.001px"
     inkscape:showpageshadow="2"
     inkscape:deskcolor="#505050" />
  <path
     d="m 1732.642,1320.6495 c 0,0 -110.7489,-14.5722 -151.5513,-14.5722 l -104.9201,-46.6313 -55.3745,-326.41821 -241.8992,-128.23574 154.4656,151.55134 8.7435,119.49231 37.8878,288.5305 -102.0056,52.4601 -148.637,-37.8878 -154.46571,96.1768 131.15021,-23.3156 113.6634,49.5456 192.3536,-17.4867 139.8936,17.4867 81.6045,78.6901 90.3479,163.2091 -49.5456,104.9202 110.749,-99.0913 -23.3155,-160.2946 -154.4658,-180.6959 104.9201,-29.1444 125.3213,40.8022 c -31.0872,-28.171 -104.9202,-99.0912 -104.9202,-99.0912 z"
     fill="#5b3e24"
     id="path2"
     style="opacity:0.9;fill:#5b3e24;fill-opacity:0.6639;stroke-width:5.82889" />
  <path
     d="m 1361.2186,1523.5438 -161.5121,108.7296 -179.1982,291.6474 -357.51626,47.213 L 963.70018,1781.767 1065.2583,1483.3733 1302.1155,1317.2124 1085.4473,951.06069 799.76484,845.97103 671.04382,530.25721 915.09218,741.83898 1238.7293,812.65575 1469.5229,1147.5101 C 1550.4173,986.19601 1618.4723,890.83 1618.4723,890.83 l 266.4926,-123.64639 187.9428,-232.45535 -128.5924,375.88515 -232.4553,163.21329 -93.3877,238.6377 189.3274,169.2571 312.6544,89.0255 158.2654,321.4806 -274.1122,-197.8342 -264.9814,-39.5669 -145.9226,-102.7156 12.3846,241.1996 -82.1705,304.3088 69.7859,321.4807 -223.1075,-326.4267 39.5668,-237.4011 z"
     fill="#6d4a2c"
     stroke="#1b1917"
     stroke-width="11.0123"
     stroke-miterlimit="16"
     stroke-linejoin="round"
     id="path4"
     style="fill:#6d4a2c;fill-opacity:0.726141;stroke:#312114;stroke-width:48.5053;stroke-miterlimit:16;stroke-dasharray:none;stroke-opacity:0.518672" />
  <path
     opacity="0.85"
     d="m 948.26552,1389.168 c 0,288.7852 231.81128,522.8828 517.75648,522.8828 285.9491,0 517.7566,-234.0976 517.7566,-522.8828 0,-288.7748 -231.8075,-522.88262 -517.7566,-522.88262 -285.9452,0 -517.75648,234.10782 -517.75648,522.88262 z"
     fill="#485e52"
     id="path12-9-5-4-8"
     style="opacity:0.8;fill:#81a205;fill-opacity:0.195021;stroke-width:10.2526" />
  <path
     opacity="0.95"
     d="m 510.86647,1649.7967 c 0,263.6363 212.37659,477.3519 474.34979,477.3519 261.97544,0 474.34964,-213.7156 474.34964,-477.3519 0,-263.6363 -212.3742,-477.3519 -474.34964,-477.3519 -261.9732,0 -474.34979,213.7156 -474.34979,477.3519 z"
     fill="#3a4f3f"
     id="path6-7-58"
     style="fill:#81a205;fill-opacity:0.514523;stroke-width:6.0044" />
  <path
     opacity="0.85"
     d="m 697.00368,1656.6866 c 0,169.1266 135.76002,306.2256 303.22342,306.2256 167.4659,0 303.2238,-137.099 303.2238,-306.2256 0,-169.1206 -135.7579,-306.2258 -303.2238,-306.2258 -167.4634,0 -303.22342,137.1052 -303.22342,306.2258 z"
     fill="#485e52"
     id="path12-8-9"
     style="opacity:0.8;fill:#81a205;fill-opacity:0.514523;stroke-width:6.0044" />
  <path
     opacity="0.95"
     d="m 1256.8135,1780.8406 c 0,263.6363 212.3765,477.3518 474.3498,477.3518 261.9754,0 474.3496,-213.7155 474.3496,-477.3518 0,-263.6364 -212.3742,-477.3519 -474.3496,-477.3519 -261.9733,0 -474.3498,213.7155 -474.3498,477.3519 z"
     fill="#3a4f3f"
     id="path6-7-58-0"
     style="fill:#81a205;fill-opacity:0.514523;stroke-width:6.0044" />
  <path
     opacity="0.85"
     d="m 1442.9507,1787.7304 c 0,169.1266 135.7601,306.2257 303.2235,306.2257 167.4657,0 303.2237,-137.0991 303.2237,-306.2257 0,-169.1206 -135.758,-306.2258 -303.2237,-306.2258 -167.4634,0 -303.2235,137.1052 -303.2235,306.2258 z"
     fill="#485e52"
     id="path12-8-9-3"
     style="opacity:0.8;fill:#81a205;fill-opacity:0.514523;stroke-width:6.0044" />
  <path
     opacity="0.95"
     d="m 1300.7875,912.44363 c 0,263.63637 212.3765,477.35187 474.3498,477.35187 261.9754,0 474.3496,-213.7155 474.3496,-477.35187 0,-263.6363 -212.3742,-477.35186 -474.3496,-477.35186 -261.9733,0 -474.3498,213.71556 -474.3498,477.35186 z"
     fill="#3a4f3f"
     id="path6-7-58-0-9"
     style="fill:#81a205;fill-opacity:0.514523;stroke-width:6.0044" />
  <path
     opacity="0.85"
     d="m 1486.9247,919.33352 c 0,169.12658 135.7601,306.22568 303.2235,306.22568 167.4657,0 303.2237,-137.0991 303.2237,-306.22568 0,-169.1206 -135.758,-306.22583 -303.2237,-306.22583 -167.4634,0 -303.2235,137.10523 -303.2235,306.22583 z"
     fill="#485e52"
     id="path12-8-9-3-0"
     style="opacity:0.8;fill:#81a205;fill-opacity:0.514523;stroke-width:6.0044" />
  <path
     opacity="0.95"
     d="m 497.30438,920.68676 c 0,263.63624 212.37658,477.35184 474.34981,477.35184 261.97541,0 474.34961,-213.7156 474.34961,-477.35184 0,-263.63631 -212.3742,-477.35187 -474.34961,-477.35187 -261.97323,0 -474.34981,213.71556 -474.34981,477.35187 z"
     fill="#3a4f3f"
     id="path6-7-58-0-9-9"
     style="fill:#81a205;fill-opacity:0.514523;stroke-width:6.0044" />
  <path
     opacity="0.85"
     d="m 683.44159,927.57664 c 0,169.12656 135.76009,306.22566 303.2235,306.22566 167.46571,0 303.22371,-137.0991 303.22371,-306.22566 0,-169.1206 -135.758,-306.22582 -303.22371,-306.22582 -167.46341,0 -303.2235,137.10522 -303.2235,306.22582 z"
     fill="#485e52"
     id="path12-8-9-3-0-9"
     style="opacity:0.8;fill:#81a205;fill-opacity:0.514523;stroke-width:6.0044" />
</svg>
