<?xml version="1.0" encoding="UTF-8" standalone="no"?>
<svg
   width="2750"
   height="2750"
   viewBox="0 0 2750 2750"
   fill="none"
   version="1.1"
   id="svg48"
   sodipodi:docname="big_tree.svg"
   inkscape:version="1.3 (0e150ed6c4, 2023-07-21)"
   xmlns:inkscape="http://www.inkscape.org/namespaces/inkscape"
   xmlns:sodipodi="http://sodipodi.sourceforge.net/DTD/sodipodi-0.dtd"
   xmlns="http://www.w3.org/2000/svg"
   xmlns:svg="http://www.w3.org/2000/svg">
  <defs
     id="defs52" />
  <sodipodi:namedview
     id="namedview50"
     pagecolor="#505050"
     bordercolor="#ffffff"
     borderopacity="1"
     inkscape:pageshadow="0"
     inkscape:pageopacity="0"
     inkscape:pagecheckerboard="1"
     showgrid="false"
     width="520.942px"
     inkscape:zoom="0.18025662"
     inkscape:cx="263.51321"
     inkscape:cy="1189.9702"
     inkscape:window-width="1920"
     inkscape:window-height="1017"
     inkscape:window-x="-8"
     inkscape:window-y="-8"
     inkscape:window-maximized="1"
     inkscape:current-layer="svg48"
     height="604.001px"
     inkscape:showpageshadow="2"
     inkscape:deskcolor="#505050" />
  <path
     d="m 1725.5581,1352.5496 c 0,0 -122.4046,-16.1059 -167.5012,-16.1059 l -115.9623,-51.5389 -61.2023,-360.77175 -267.3576,-141.73176 170.7222,167.50118 9.6637,132.06823 41.8752,318.8965 -112.7411,57.9812 -164.28,-41.8753 -170.72235,106.2988 144.95295,-25.7694 125.6258,54.76 212.5976,-19.3271 154.6165,19.3271 90.1929,86.9717 99.8565,180.3859 -54.76,115.9624 122.4047,-109.52 -25.7694,-177.1647 -170.7223,-199.713 115.9623,-32.2117 138.5106,45.0964 c -34.359,-31.1358 -115.9624,-109.5199 -115.9624,-109.5199 z"
     fill="#5b3e24"
     id="path2"
     style="opacity:0.9;fill:#5b3e24;fill-opacity:0.6639;stroke-width:6.44235" />
  <path
     d="m 1371.5638,1539.1459 -105.1908,70.8143 -116.7096,189.9464 -232.84595,30.7492 195.84755,-123.3323 66.1436,-194.3401 154.2621,-108.2186 -141.1133,-238.4701 -186.0615,-68.4436 -83.83442,-205.62056 158.94572,137.80066 210.7809,46.1221 150.313,218.0865 c 52.6855,-105.0619 97.0089,-167.1726 97.0089,-167.1726 l 173.5634,-80.5294 122.4048,-151.39532 -83.7506,244.80942 -151.3953,106.2988 -60.8223,155.4218 123.3066,110.2351 203.628,57.9812 103.0763,209.3764 -178.5259,-128.847 -172.5791,-25.7694 -95.0376,-66.8974 8.0659,157.0903 -53.5166,198.1926 45.4507,209.3764 -145.3072,-212.5977 25.7694,-154.6164 z"
     fill="#6d4a2c"
     stroke="#1b1917"
     stroke-width="11.0123"
     stroke-miterlimit="16"
     stroke-linejoin="round"
     id="path4"
     style="fill:#6d4a2c;fill-opacity:0.726141;stroke:#312114;stroke-width:31.5909;stroke-miterlimit:16;stroke-dasharray:none;stroke-opacity:0.518672" />
  <path
     opacity="0.95"
     d="m 808.87527,1114.8662 c 0,205.9546 165.91007,372.9107 370.56533,372.9107 204.657,0 370.5652,-166.9561 370.5652,-372.9107 0,-205.95447 -165.9082,-372.91053 -370.5652,-372.91053 -204.65526,0 -370.56533,166.95606 -370.56533,372.91053 z"
     fill="#3a4f3f"
     id="path6"
     style="fill:#81a205;fill-opacity:0.514523;stroke-width:4.69068" />
  <path
     opacity="0.85"
     d="m 926.66986,1104.4674 c 0,132.123 106.05674,239.2258 236.88024,239.2258 130.8255,0 236.8804,-107.1028 236.8804,-239.2258 0,-132.11819 -106.0549,-239.22562 -236.8804,-239.22562 -130.8235,0 -236.88024,107.10743 -236.88024,239.22562 z"
     fill="#485e52"
     id="path12"
     style="opacity:0.8;fill:#81a205;fill-opacity:0.514523;stroke-width:4.69068" />
  <path
     opacity="0.95"
     d="m 1297.0944,1120.2774 c 0,205.9545 165.9101,372.9106 370.5654,372.9106 204.6571,0 370.5652,-166.9561 370.5652,-372.9106 0,-205.95453 -165.9081,-372.91059 -370.5652,-372.91059 -204.6553,0 -370.5654,166.95606 -370.5654,372.91059 z"
     fill="#3a4f3f"
     id="path6-7"
     style="fill:#81a205;fill-opacity:0.514523;stroke-width:4.69068" />
  <path
     opacity="0.85"
     d="m 1442.5061,1125.6598 c 0,132.1229 106.0567,239.2257 236.8803,239.2257 130.8255,0 236.8804,-107.1028 236.8804,-239.2257 0,-132.11824 -106.0549,-239.22567 -236.8804,-239.22567 -130.8236,0 -236.8803,107.10743 -236.8803,239.22567 z"
     fill="#485e52"
     id="path12-8"
     style="opacity:0.8;fill:#81a205;fill-opacity:0.514523;stroke-width:4.69068" />
  <path
     opacity="0.95"
     d="m 983.82426,1401.9023 c 0,248.3252 200.04244,449.6289 446.80094,449.6289 246.7607,0 446.8007,-201.3037 446.8007,-449.6289 0,-248.3252 -200.0401,-449.62869 -446.8007,-449.62869 -246.7585,0 -446.80094,201.30349 -446.80094,449.62869 z"
     fill="#3a4f3f"
     id="path6-1-9-2-1"
     style="fill:#81a205;fill-opacity:0.195021;stroke-width:5.65568" />
  <path
     opacity="0.85"
     d="m 1159.1512,1408.3919 c 0,159.3044 127.8755,288.4411 285.6132,288.4411 157.7399,0 285.6133,-129.1367 285.6133,-288.4411 0,-159.2986 -127.8734,-288.441 -285.6133,-288.441 -157.7377,0 -285.6132,129.1424 -285.6132,288.441 z"
     fill="#485e52"
     id="path12-9-5-4-8"
     style="opacity:0.8;fill:#81a205;fill-opacity:0.195021;stroke-width:5.65568" />
  <path
     opacity="0.95"
     d="m 1249.433,1644.9893 c 0,205.9545 165.91,372.9106 370.5653,372.9106 204.6571,0 370.5652,-166.9561 370.5652,-372.9106 0,-205.9545 -165.9081,-372.9106 -370.5652,-372.9106 -204.6553,0 -370.5653,166.9561 -370.5653,372.9106 z"
     fill="#3a4f3f"
     id="path6-7-5"
     style="fill:#81a205;fill-opacity:0.514523;stroke-width:4.69068" />
  <path
     opacity="0.85"
     d="m 1394.8446,1650.3717 c 0,132.1229 106.0568,239.2256 236.8804,239.2256 130.8255,0 236.8803,-107.1027 236.8803,-239.2256 0,-132.1182 -106.0548,-239.2256 -236.8803,-239.2256 -130.8236,0 -236.8804,107.1074 -236.8804,239.2256 z"
     fill="#485e52"
     id="path12-8-4"
     style="opacity:0.8;fill:#81a205;fill-opacity:0.514523;stroke-width:4.69068" />
  <path
     opacity="0.95"
     d="m 819.61372,1583.755 c 0,205.9545 165.91007,372.9106 370.56538,372.9106 204.657,0 370.5652,-166.9561 370.5652,-372.9106 0,-205.9545 -165.9082,-372.9106 -370.5652,-372.9106 -204.65531,0 -370.56538,166.9561 -370.56538,372.9106 z"
     fill="#3a4f3f"
     id="path6-7-58"
     style="fill:#81a205;fill-opacity:0.514523;stroke-width:4.69068" />
  <path
     opacity="0.85"
     d="m 965.0254,1589.1374 c 0,132.1229 106.0567,239.2256 236.8803,239.2256 130.8255,0 236.8804,-107.1027 236.8804,-239.2256 0,-132.1182 -106.0549,-239.2257 -236.8804,-239.2257 -130.8236,0 -236.8803,107.1075 -236.8803,239.2257 z"
     fill="#485e52"
     id="path12-8-9"
     style="opacity:0.8;fill:#81a205;fill-opacity:0.514523;stroke-width:4.69068" />
</svg>
