<?xml version="1.0" encoding="UTF-8" standalone="no"?>
<!-- Created with Inkscape (http://www.inkscape.org/) -->

<svg
   width="79.5mm"
   height="79.5mm"
   viewBox="0 0 79.5 79.5"
   version="1.1"
   id="svg5"
   xml:space="preserve"
   sodipodi:docname="big_rockm.svg"
   inkscape:version="1.3 (0e150ed6c4, 2023-07-21)"
   xmlns:inkscape="http://www.inkscape.org/namespaces/inkscape"
   xmlns:sodipodi="http://sodipodi.sourceforge.net/DTD/sodipodi-0.dtd"
   xmlns="http://www.w3.org/2000/svg"
   xmlns:svg="http://www.w3.org/2000/svg"><sodipodi:namedview
     id="namedview1"
     pagecolor="#ffffff"
     bordercolor="#000000"
     borderopacity="0.25"
     inkscape:showpageshadow="2"
     inkscape:pageopacity="0.0"
     inkscape:pagecheckerboard="0"
     inkscape:deskcolor="#d1d1d1"
     inkscape:document-units="mm"
     inkscape:zoom="0.36283887"
     inkscape:cx="-235.64179"
     inkscape:cy="-67.523085"
     inkscape:window-width="1920"
     inkscape:window-height="1017"
     inkscape:window-x="-8"
     inkscape:window-y="-8"
     inkscape:window-maximized="1"
     inkscape:current-layer="svg5" /><defs
     id="defs2"><clipPath
       clipPathUnits="userSpaceOnUse"
       id="clipPath22"><path
         id="path23"
         style="fill:#ff0000;fill-opacity:1;fill-rule:nonzero;stroke:none;stroke-width:0.132293"
         d="m 101.04151,172.81842 v 10.12302 c 0.0524,-0.0479 0.11556,-0.0719 0.18087,-0.0718 0.17645,7e-5 0.36788,0.17499 0.39921,0.52453 0.0511,0.57016 0.10575,1.14006 0.162,1.70973 0.0637,0.64483 -0.53223,0.75317 -0.67852,0.21653 -0.0204,0.0278 -0.0397,0.0583 -0.0636,0.0773 v 13.87917 h 26.45842 v -26.45841 z" /></clipPath><clipPath
       clipPathUnits="userSpaceOnUse"
       id="clipPath42"><path
         id="path42"
         style="fill:#ff0000;fill-opacity:1;fill-rule:nonzero;stroke:none;stroke-width:0.264583"
         d="M 74.941679,-29.45815 V 93.816498 H 180.83806 V 65.65129 c -2.71857,-3.941284 -5.4312,-7.886975 -8.16591,-11.816331 C 157.93555,33.066466 142.31343,12.948492 126.72301,-7.1804403 120.94675,-14.721373 115.03804,-22.155611 108.96957,-29.45815 Z m 54.711391,0 c 3.2879,4.121416 6.5468,8.266199 9.75289,12.45402 14.01691,18.0974355 28.0212,36.214618 41.4321,54.768234 V -29.45815 Z" /></clipPath><clipPath
       clipPathUnits="userSpaceOnUse"
       id="clipPath43"><path
         id="path43"
         style="fill:#ff0000;fill-opacity:1;fill-rule:nonzero;stroke:none;stroke-width:0.264583"
         d="M 94.637119,-6.5334515 V 60.009775 H 160.52767 V 37.115049 C 149.63947,22.405687 138.42942,7.9343094 127.22324,-6.5334515 Z m 52.867571,0 c 4.35952,5.63929472 8.703,11.2910329 13.02298,16.9607225 V -6.5334515 Z" /></clipPath><clipPath
       clipPathUnits="userSpaceOnUse"
       id="clipPath44"><path
         id="path44"
         style="fill:#ff0000;fill-opacity:1;fill-rule:nonzero;stroke:none;stroke-width:0.264583"
         d="m 114.27003,21.286039 v 60.748748 h 60.36686 V 56.678195 c -0.6584,-0.945295 -1.30673,-1.89778 -1.96474,-2.843236 -7.80599,-11.001084 -15.8671,-21.814589 -24.03368,-32.54892 z m 54.44319,0 c 1.97607,2.636938 3.96757,5.262512 5.92367,7.914245 v -7.914245 z" /></clipPath><clipPath
       clipPathUnits="userSpaceOnUse"
       id="clipPath45"><path
         id="path45"
         style="fill:#ff0000;fill-opacity:1;fill-rule:nonzero;stroke:none;stroke-width:0.264583"
         d="m 126.04347,-33.971053 c 4.53607,5.588929 8.98498,11.248978 13.36249,16.966923 11.24165,14.5142599 22.48509,29.034066 33.42018,43.781823 h 4.60902 v -60.748746 z m -8.97516,14.462683 V 26.777693 H 152.7824 C 144.18759,15.388666 135.45932,4.0990935 126.72301,-7.1804403 c -3.17469,-4.1445707 -6.40034,-8.2479617 -9.6547,-12.3279297 z" /></clipPath><clipPath
       clipPathUnits="userSpaceOnUse"
       id="clipPath46"><path
         id="path46"
         style="fill:#ff0000;fill-opacity:1;fill-rule:nonzero;stroke:none;stroke-width:0.264583"
         d="m 135.02948,-22.643579 c 1.46237,1.877021 2.92979,3.749764 4.37648,5.639449 8.57677,11.0735888 17.1479,22.1552878 25.59275,33.331299 h 2.50269 v -38.970748 z m -6.11694,18.293457 v 20.677291 h 15.92875 C 139.55306,9.4180557 134.24,2.5279333 128.91254,-4.350122 Z" /></clipPath><clipPath
       clipPathUnits="userSpaceOnUse"
       id="clipPath47"><path
         id="path47"
         style="fill:#ff0000;fill-opacity:1;fill-rule:nonzero;stroke:none;stroke-width:0.264583"
         d="M 65.941713,-33.446537 V 27.302209 H 126.30857 V -7.7142578 C 119.60968,-16.446309 112.75074,-25.049574 105.64213,-33.446537 Z" /></clipPath></defs><g
     id="layer1"
     transform="matrix(3.0472698,0,0,3.0472698,-307.09379,-525.89477)"><g
       id="g3377"
       transform="translate(-0.26481154,-0.23943041)"><g
         id="g2724"
         transform="matrix(0.82201903,0,0,0.82067983,4.7366927,33.248982)"
         style="stroke-width:1.21752"><path
           style="fill:#808080;fill-opacity:1;stroke:none;stroke-width:2.57706;stroke-linecap:round;stroke-linejoin:round;stroke-dasharray:none;stroke-opacity:1;paint-order:normal"
           d="m 124.38731,197.74764 -6.26442,-13.73199 5.33734,-8.13863 12.64663,-3.29887 9.12394,2.35964 3.14618,11.16896 -3.77542,10.38242 -7.55085,3.30349 z"
           id="path1666" /><path
           id="path2153"
           style="opacity:1;fill:#666666;fill-opacity:1;stroke:none;stroke-width:2.57706;stroke-linecap:round;stroke-linejoin:round;stroke-dasharray:none;stroke-opacity:1;paint-order:normal"
           d="m 127.0521,192.26079 -6.15095,-0.35664 3.48616,5.84349 12.6634,2.04502 z" /><path
           id="path2570"
           style="opacity:1;fill:#999999;fill-opacity:1;stroke:none;stroke-width:2.57706;stroke-linecap:round;stroke-linejoin:round;stroke-dasharray:none;stroke-opacity:1;paint-order:normal"
           d="m 145.2308,174.93779 -9.12394,-2.35964 -1.4157,6.92173 5.5163,4.93315 8.16952,1.67372 z" /><path
           style="fill:none;fill-opacity:1;stroke:#333333;stroke-width:1.9328;stroke-linecap:round;stroke-linejoin:round;stroke-dasharray:none;stroke-opacity:1;paint-order:normal"
           d="m 124.38731,197.74764 -6.26442,-13.73199 5.33734,-8.13863 12.64663,-3.29887 9.12394,2.35964 3.14618,11.16896 -3.77542,10.38242 -7.55085,3.30349 z"
           id="path2572" /></g><path
         id="rect2804"
         style="fill-opacity:0;stroke-width:2.11667;stroke-linecap:round"
         d="m 101.04151,172.81842 h 26.45834 v 26.45833 h -26.45834 z"
         clip-path="url(#clipPath22)" /></g></g><path
     style="fill:#505934;fill-opacity:1;stroke:none;stroke-width:3.96146;stroke-linecap:round;stroke-linejoin:round;stroke-miterlimit:10"
     d="m 46.965443,4.1291995 c 1.244844,-0.517654 2.441458,0.8362622 2.418085,2.0210386 -0.142477,1.1102121 -0.459592,2.2010908 -0.729168,3.285975 -1.626143,2.0481159 -3.677963,3.9254259 -4.494569,6.4910259 -0.309108,0.998247 -0.163497,2.085918 -0.455505,3.074948 -1.151342,0.940773 -0.932497,2.238134 -0.821209,3.532522 -0.120033,1.181391 -1.791332,0.936895 -2.623993,1.402627 -1.336664,0.328064 -2.439702,1.173007 -3.388951,2.135446 -1.220032,0.976781 -2.23784,2.368118 -3.796943,2.802413 -1.375058,0.50312 -2.211637,-0.852199 -2.259504,-2.061903 -0.07733,-1.435196 -0.22913,-2.878365 -0.153383,-4.315069 0.202641,-1.656906 1.321162,-2.982482 1.905199,-4.496578 0.150933,-1.254524 -1.34284,-1.80941 -1.65063,-2.891044 -0.139818,-1.738398 -0.241583,-3.493999 -0.171937,-5.2378605 0.272539,-1.4235213 1.689437,-2.208038 2.988101,-2.5252338 2.806061,-0.8085491 5.709097,-1.2277965 8.504247,-2.0840675 1.485356,-0.4579754 2.966231,-0.954947 4.524825,-1.0908235 l 0.205324,-0.043418 z"
     id="path4547" /><path
     style="fill:#596b22;fill-opacity:1;stroke:none;stroke-width:3.96146;stroke-linecap:round;stroke-linejoin:round;stroke-miterlimit:10"
     d="m 36.533803,7.9426801 c 2.760526,-0.7409363 5.52237,-1.4802493 8.292723,-2.181936 0.888399,-0.1015806 2.177211,-0.3284748 2.827508,0.315494 0.151085,1.6600357 -0.899925,3.0669836 -1.651489,4.4512979 -0.992262,1.62268 -2.197372,3.128073 -2.8671,4.92945 -0.595374,1.512204 -0.951469,3.109608 -1.381554,4.674679 -0.184867,0.887769 -0.234791,2.009119 -1.3325,2.220979 -1.389635,0.606268 -2.800012,1.234422 -3.900842,2.309123 -1.219909,1.00272 -2.389486,2.172972 -3.904799,2.711611 -0.814704,-0.122883 -0.437699,-1.482239 -0.604766,-2.138359 -0.06853,-1.316089 -0.204151,-2.713609 0.496252,-3.902702 0.501404,-1.144236 1.127192,-2.243222 1.486943,-3.443499 0.02404,-0.998791 -0.860516,-1.729797 -1.353299,-2.528172 -0.720268,-0.838101 -0.368555,-2.031221 -0.452385,-3.037135 0.0332,-1.105609 -0.07811,-2.5358834 1.004262,-3.209259 1.024068,-0.6032011 2.215168,-0.8309163 3.341046,-1.1715719 z"
     id="path4758" /><path
     style="fill:#505934;fill-opacity:1;stroke:none;stroke-width:3.96146;stroke-linecap:round;stroke-linejoin:round;stroke-miterlimit:10"
     d="m 23.7208,13.260668 c 0.992291,0.14948 1.984577,0.334717 2.94286,0.636137 0.644932,0.169341 1.018773,0.845155 1.022816,1.478259 -0.07061,0.591722 -0.651296,0.934189 -1.140749,1.168708 -0.967621,0.416423 -2.046879,0.477597 -3.022082,0.868032 -0.300632,0.280619 -0.11915,0.764006 -0.167475,1.12938 -0.02742,0.493274 0.06183,1.029244 -0.164898,1.485481 -0.326761,0.367856 -0.83726,0.481642 -1.264136,0.696341 -0.654003,0.254555 -1.311035,0.570267 -2.018687,0.625519 -0.40576,-0.01234 -0.935562,-0.237717 -0.905688,-0.719902 0.01432,-0.814066 0.631965,-1.481175 0.606433,-2.304284 0.03657,-1.313219 -0.06142,-2.630056 0.03401,-3.941432 0.0419,-0.445358 0.58527,-0.487315 0.906493,-0.663123 0.886638,-0.358143 1.850758,-0.648329 2.815479,-0.490918 0.119424,0.0045 0.237919,0.009 0.355627,0.0318 z"
     id="path4052" /><path
     style="fill:#596b22;fill-opacity:1;stroke:none;stroke-width:3.96146;stroke-linecap:round;stroke-linejoin:round;stroke-miterlimit:10"
     d="m 22.213853,14.764185 c 0.677502,-0.124367 1.372492,-0.183602 2.057337,-0.0825 0.529113,0.0755 1.088745,0.126866 1.555121,0.409437 0.314863,0.160772 0.107037,0.515485 -0.167485,0.563111 -0.40416,0.144854 -0.834,0.200615 -1.240646,0.339589 -0.473133,0.119089 -0.941544,0.267831 -1.364984,0.51549 -0.338501,0.170956 -0.713776,0.389009 -0.810435,0.786301 -0.193349,0.628867 -0.10114,1.355086 -0.506219,1.909413 -0.25311,0.32839 -0.664211,0.544491 -1.079773,0.553461 -0.353148,-1.32e-4 -0.113436,-0.419079 -0.120307,-0.629234 0.145417,-1.055905 0.231911,-2.120529 0.416372,-3.170751 0.107768,-0.458952 0.3729,-0.935984 0.825876,-1.124435 0.142493,-0.03649 0.291357,-0.03833 0.435147,-0.06989 z"
     id="path4194" /><path
     style="fill:#677c28;fill-opacity:1;stroke:none;stroke-width:3.96146;stroke-linecap:round;stroke-linejoin:round;stroke-miterlimit:10"
     d="m 23.504627,14.599005 c 0.607086,0.106124 1.224081,0.156712 1.825568,0.29313 0.253209,0.06631 0.538714,0.154386 0.684621,0.388874 0.06661,0.204666 -0.163413,0.330363 -0.331348,0.365887 -0.493974,0.153936 -1.007379,0.23268 -1.50377,0.378345 -0.489787,0.134889 -0.995815,0.280332 -1.40656,0.59113 -0.12459,0.102405 -0.233892,0.222291 -0.362094,0.320455 -0.209763,0.04134 -0.283462,-0.222651 -0.394741,-0.349567 -0.164451,-0.30856 -0.10405,-0.676391 -0.03902,-1.003819 0.0661,-0.282781 0.155927,-0.576823 0.352317,-0.797519 0.19608,-0.168204 0.470566,-0.188404 0.717226,-0.200699 0.153059,-0.0039 0.307007,-0.02279 0.457795,0.01379 z"
     id="path4336" /><path
     style="fill:#505934;fill-opacity:1;stroke:none;stroke-width:3.96146;stroke-linecap:round;stroke-linejoin:round;stroke-miterlimit:10"
     d="m 71.978883,40.174664 c 2.408678,0.112659 5.076181,0.725757 6.609716,2.743409 0.464719,0.956041 0.0061,2.051938 -0.170772,3.03266 -1.155599,4.165408 -2.722415,8.204721 -4.257893,12.241477 -0.801574,1.905083 -1.45297,3.894373 -2.496543,5.684487 -0.729877,0.938169 -2.154159,0.855834 -3.152811,0.437402 -1.519518,-0.651371 -3.091009,-1.30688 -4.373677,-2.370081 -0.729533,-0.896622 -0.741487,-2.249849 -1.7739,-2.956537 -0.793374,-0.794259 -1.860471,-1.392858 -2.372504,-2.424072 0.07585,-1.259297 1.955959,-0.935863 2.871566,-1.248957 1.220037,0.06741 2.042438,-0.67925 2.25891,-1.83627 0.506677,-0.848676 0.542487,-1.924265 -0.05238,-2.742346 -0.7366,-1.145977 -2.251974,-1.206462 -3.336928,-1.877072 -0.92274,-0.482243 -2.084085,-1.180877 -2.100551,-2.341346 0.541874,-0.908479 1.922778,-0.970662 2.413555,-1.962681 0.262097,-1.476851 1.899715,-1.11717 2.965972,-1.382225 1.935192,-0.397186 3.662745,-1.385354 5.273243,-2.490724 0.514583,-0.28497 1.085262,-0.617653 1.695,-0.507124 z"
     id="path3135" /><path
     style="fill:#596b22;fill-opacity:1;stroke:none;stroke-width:3.96146;stroke-linecap:round;stroke-linejoin:round;stroke-miterlimit:10"
     d="m 72.726652,42.421797 c 1.259854,-0.102161 2.883789,0.102268 3.459354,1.405008 0.39799,1.293851 -0.0477,2.656558 -0.340608,3.927308 -1.273371,4.372005 -2.910964,8.632858 -4.701882,12.816939 -0.331826,0.723933 -0.725167,2.021757 -1.777416,1.546865 -1.738145,-0.6216 -3.279076,-1.690715 -4.770999,-2.758646 -0.925871,-0.732042 -1.871973,-1.485396 -2.560136,-2.453569 -0.264617,-0.925791 1.243387,-0.660785 1.831307,-0.851651 0.87791,-0.01887 1.745966,-0.464623 2.066522,-1.317351 0.678176,-1.459374 1.107915,-3.331494 0.149884,-4.767736 -0.819477,-0.915642 -2.072961,-1.231334 -3.079075,-1.89141 -0.477856,-0.425945 -1.872378,-0.786933 -1.436296,-1.587734 1.274377,-1.107126 2.960777,-1.569201 4.601223,-1.795974 1.760297,-0.267 3.303621,-1.192881 4.834389,-2.040032 0.529673,-0.315972 1.143746,-0.152784 1.723728,-0.232017 z"
     id="path3139" /><path
     style="fill:#677c28;fill-opacity:1;stroke:none;stroke-width:3.96146;stroke-linecap:round;stroke-linejoin:round;stroke-miterlimit:10"
     d="m 64.976296,44.814436 c 0.261855,-0.02285 0.784759,-0.06862 1.22719,-0.143315 0.44243,-0.07469 0.804589,-0.178205 1.092703,-0.239302 0.288119,-0.0611 0.502088,-0.07984 0.73703,-0.06433 0.234942,0.01554 0.490716,0.065 0.668808,0.1875 0.178082,0.122502 0.278948,0.317232 0.292692,0.477281 0.01371,0.160042 -0.05906,0.286168 -0.161261,0.486738 -0.102207,0.20057 -0.233819,0.475543 -0.345759,0.628836 -0.111929,0.153279 -0.204989,0.185397 -0.473637,0.262797 -0.268649,0.0774 -0.712946,0.200114 -1.052871,0.283763 -0.339931,0.08365 -0.57549,0.128231 -0.722036,0.164917 -0.146546,0.03669 -0.204013,0.06573 -0.191615,0.20892 0.0125,0.143193 0.09468,0.399419 0.178022,0.667536 0.08331,0.26813 0.167691,0.548167 0.174854,0.768749 0.007,0.220592 -0.0625,0.382348 -0.18311,0.506433 -0.120585,0.124086 -0.292601,0.210962 -0.431408,0.265052 -0.138806,0.05409 -0.244695,0.07533 -0.414066,0.05445 -0.169371,-0.02102 -0.402431,-0.08432 -0.731394,-0.217087 -0.328959,-0.132772 -0.753815,-0.335105 -1.213597,-0.59419 -0.459787,-0.25908 -0.954433,-0.57505 -1.3052,-0.819728 -0.350761,-0.244665 -0.557542,-0.418185 -0.716952,-0.530118 -0.1594,-0.111927 -0.271572,-0.161993 -0.199167,-0.288424 0.0724,-0.126403 0.330127,-0.328578 0.586781,-0.542612 0.256675,-0.214041 0.512332,-0.43999 0.793931,-0.644276 0.281598,-0.204288 0.588951,-0.386851 0.890314,-0.502976 0.301378,-0.116133 0.596433,-0.165892 0.77369,-0.193288 0.177263,-0.02742 0.236683,-0.03249 0.294246,-0.05549 0.05756,-0.02285 0.113877,-0.06387 0.141912,-0.08423 0.02802,-0.02042 0.02802,-0.02072 0.28992,-0.04364 z"
     id="path4040" /><path
     style="fill:#505934;fill-opacity:1;stroke:none;stroke-width:3.96146;stroke-linecap:round;stroke-linejoin:round;stroke-miterlimit:10"
     d="m 30.985301,63.87265 c 0.727518,-0.306837 1.606836,-0.293325 2.30449,0.08455 0.604025,0.391272 0.69826,1.193048 0.699971,1.852564 7.08e-4,0.568407 -0.163008,1.121128 -0.425392,1.621091 -0.144229,0.378939 0.435486,0.609039 0.219597,0.993558 -0.253384,0.704239 -1.079208,0.952486 -1.76236,0.935509 -0.356437,0.02256 -0.797846,-0.186773 -1.046367,0.18093 -0.515402,0.554152 -1.182826,1.051707 -1.973018,1.053655 -0.731255,0.03243 -1.427804,-0.294564 -1.978757,-0.755343 -0.34621,-0.293997 -0.8,-0.397327 -1.198341,-0.563374 -0.461553,0.112754 -0.779072,-0.310443 -0.927609,-0.686584 -0.199935,-0.456327 -0.443348,-1.019064 -0.175253,-1.496718 0.274826,-0.372337 0.799929,-0.323227 1.202704,-0.435253 0.745035,-0.184263 1.483163,-0.396446 2.227831,-0.58243 0.831872,-0.242146 1.565456,-0.776088 2.058768,-1.487344 0.223388,-0.264075 0.439788,-0.585688 0.773736,-0.714802 z"
     id="path2080" /><path
     style="fill:#596b22;fill-opacity:1;stroke:none;stroke-width:3.96146;stroke-linecap:round;stroke-linejoin:round;stroke-miterlimit:10"
     d="m 26.12355,67.496979 c 1.040267,-0.203695 2.113664,-0.36225 3.071786,-0.839834 0.617237,-0.312355 1.087148,-0.833191 1.518566,-1.360764 0.421571,-0.478176 1.069342,-0.911855 1.732735,-0.717403 0.465668,0.126696 0.806991,0.576143 0.789637,1.060809 0.02791,0.422605 -0.159068,0.819411 -0.426185,1.136385 -0.292915,0.372175 -0.237198,0.884841 -0.04178,1.286958 0.267161,0.433391 -0.430737,0.240998 -0.660719,0.28642 -0.413325,0.03096 -0.863164,-0.100057 -1.249083,0.09642 -0.381259,0.26108 -0.68093,0.632375 -1.100656,0.841968 -0.398795,0.23132 -0.899073,0.456575 -1.35059,0.228487 -0.681664,-0.306153 -1.212871,-0.951312 -1.985137,-1.046026 -0.312318,-0.0075 -0.771899,-0.0751 -0.825521,-0.453363 -0.01617,-0.301464 0.227712,-0.530604 0.526949,-0.520061 z"
     id="path2291" /><path
     style="fill:#505934;fill-opacity:1;stroke:none;stroke-width:3.96146;stroke-linecap:round;stroke-linejoin:round;stroke-miterlimit:10"
     d="m 18.520552,31.108491 c 2.151019,-0.196677 4.294009,-0.472373 6.439421,-0.715047 0.763539,0.437121 0.164928,1.804164 0.136855,2.598558 -0.124346,1.075407 -0.834305,1.948603 -1.709234,2.53406 -0.848174,0.392026 -1.207327,1.054132 -1.16248,1.94961 -0.776767,1.101876 -2.003854,1.807232 -2.839291,2.86304 -0.157794,0.963408 1.07897,1.301184 1.671634,1.840582 1.576809,1.002409 3.314745,1.72472 4.926369,2.66098 0.93625,0.683141 -0.0332,1.792063 -0.699909,2.256313 -1.047395,0.815178 -2.199436,1.684138 -3.582797,1.727934 -1.963893,0.172078 -3.935039,0.263728 -5.902223,0.390008 -1.11968,0.31305 -1.454053,-0.719269 -1.579774,-1.612157 -0.275336,-1.158452 -0.272,-2.45755 -1.000392,-3.450295 C 12.194627,43.300742 10.733614,43.483978 9.5606595,42.969635 8.8873537,42.063572 8.3697663,41.03817 7.8179547,40.052348 7.3323906,39.024645 8.6644473,38.46763 9.2766038,37.905365 c 0.6785558,-0.624197 1.6388432,-0.428058 2.4697652,-0.619409 1.1103,0.05522 2.070864,-0.628857 2.517344,-1.623267 0.811777,-1.576816 1.83796,-3.058434 3.095915,-4.308401 0.338072,-0.241153 0.77227,-0.182186 1.160924,-0.245797 z"
     id="path308" /><path
     style="fill:#596b22;fill-opacity:1;stroke:none;stroke-width:3.96146;stroke-linecap:round;stroke-linejoin:round;stroke-miterlimit:10"
     d="m 18.452768,33.225971 c 1.489708,-0.61648 3.126909,-0.679932 4.714239,-0.786108 0.747569,-0.05264 -0.276323,0.792194 -0.355303,1.108232 -1.329862,1.993718 -2.752573,3.922828 -4.177164,5.848674 -0.516606,0.610589 -0.452755,1.529695 0.05788,2.121339 1.023251,1.213302 2.382076,2.077979 3.620843,3.051886 0.541625,0.446614 1.186791,0.801404 1.645371,1.328728 -0.580941,0.530599 -1.386094,0.805257 -2.139448,1.02703 -1.536703,0.387066 -3.139888,0.275819 -4.710072,0.284667 -0.817956,0.15603 -1.331194,-0.459717 -1.595589,-1.153376 -0.620347,-1.134766 -1.033094,-2.468637 -2.142918,-3.240944 -1.042936,-0.814761 -2.331078,-1.263169 -3.288825,-2.198082 -0.5973559,-0.304971 -0.5832223,-0.998635 0.115598,-1.153955 1.134287,-0.596972 2.20781,-1.32615 3.44323,-1.709712 1.14854,-0.288277 1.717523,-1.394537 2.472127,-2.192955 0.646371,-0.722977 1.265788,-1.477814 1.965692,-2.148104 0.110633,-0.08927 0.243395,-0.138059 0.374335,-0.18732 z"
     id="path1871" /><path
     style="fill:#677c28;fill-opacity:1;stroke:none;stroke-width:3.96146;stroke-linecap:round;stroke-linejoin:round;stroke-miterlimit:10"
     d="m 11.278075,38.839768 c 0.866069,-0.477541 1.762489,-0.927944 2.727966,-1.164167 0.185437,-0.063 0.594428,-0.05366 0.477055,0.245912 -0.193664,0.435421 -0.574404,0.751338 -0.941629,1.039181 -0.490698,0.373273 -1.050995,0.649176 -1.52169,1.048757 -0.12962,0.233159 0.276698,0.358828 0.324548,0.57292 0.141016,0.240511 -0.122118,0.399687 -0.270374,0.532989 0.02433,0.196991 0.253217,0.301518 0.331014,0.482786 0.208057,0.281992 -0.21542,0.5606 -0.456932,0.378968 -0.37066,-0.199896 -0.70569,-0.459521 -1.067087,-0.675732 -0.432186,-0.280471 -0.851809,-0.596617 -1.1806467,-0.996159 -0.1428825,-0.164655 -0.1662108,-0.433096 0.00859,-0.584574 0.3588027,-0.357586 0.8730817,-0.465996 1.2909597,-0.73128 0.09434,-0.04679 0.185572,-0.09978 0.278217,-0.149608 z"
     id="path1929" /><path
     style="fill:#677c28;fill-opacity:1;stroke:none;stroke-width:3.96146;stroke-linecap:round;stroke-linejoin:round;stroke-miterlimit:10"
     d="m 35.167521,17.681355 c 0.50942,-0.03007 1.112859,0.181506 1.22889,0.738327 0.126646,0.741907 0.0099,1.500201 -0.02569,2.24642 0.0267,0.379263 -0.243267,0.889477 -0.01727,1.175366 0.627851,-0.167662 1.320294,-0.490848 1.962377,-0.18562 0.421972,0.207996 0.845149,0.487079 1.088422,0.899665 0.04199,0.422116 -0.663358,0.430179 -0.940249,0.68402 -0.789826,0.379076 -1.470843,0.938359 -2.088617,1.552837 -1.035181,0.971255 -2.146517,1.91469 -3.469379,2.465577 -0.374226,0.22093 -0.8571,0.05814 -0.722078,-0.435585 -0.06567,-0.410334 -0.235122,-0.804848 -0.210655,-1.233369 -0.0287,-0.937957 -0.1815,-1.878954 -0.08182,-2.816102 0.153676,-0.638306 0.491161,-1.214586 0.736359,-1.820789 0.45446,-0.987128 0.87294,-1.992772 1.373106,-2.957663 0.19845,-0.519201 0.75316,-0.48878 1.166517,-0.313027 z"
     id="path4762" /><path
     style="fill:#505934;fill-opacity:1;stroke-width:0.791012;stroke-linecap:round;stroke-linejoin:round;stroke-miterlimit:10"
     d="m 50.468786,45.637435 c 0.688346,0.007 1.450568,-0.05883 1.974004,-0.559476 0.617887,-0.579721 0.839778,-1.432977 1.068573,-2.21932 0.143177,-0.469642 0.151145,-0.996915 -0.09447,-1.435244 -0.256902,-0.477693 -0.628263,-0.990188 -1.198608,-1.090271 -0.857321,-0.09416 -1.690373,0.199038 -2.516838,0.379747 -0.405545,0.10891 -0.829676,0.05804 -1.23883,0.130425 -0.377347,0.109124 -0.454264,0.548837 -0.570572,0.868629 -0.242052,0.840876 -0.474225,1.684918 -0.69862,2.530612 -0.06249,0.292241 -0.169685,0.689574 0.121359,0.894816 0.480719,0.281843 1.049886,0.354247 1.593434,0.429878 0.517904,0.06834 1.039351,0.07629 1.560568,0.07019 z"
     id="path550" /><path
     style="fill:#677c28;fill-opacity:1;stroke-width:0.791012;stroke-linecap:round;stroke-linejoin:round;stroke-miterlimit:10"
     d="m 50.812416,41.399483 c 0.588263,0.09049 1.211092,0.176782 1.708304,0.529667 0.215531,0.144426 0.341478,0.397769 0.330799,0.656304 -0.01846,0.35539 -0.0055,0.742756 -0.213604,1.049618 -0.326444,0.445968 -0.886166,0.644758 -1.418819,0.693231 -0.613192,0.04908 -1.216827,0.183367 -1.831774,0.212152 -0.249814,-1.41e-4 -0.538001,0.0185 -0.743225,-0.149592 -0.184049,-0.197603 -0.117793,-0.489998 -0.08027,-0.729672 0.160675,-0.9214 0.735297,-1.790949 1.585563,-2.207488 0.17853,-0.0491 0.370963,-0.0945 0.556485,-0.06928 0.03551,0.005 0.07118,0.01021 0.106532,0.01508 z"
     id="path601" /><path
     style="fill:#596b22;fill-opacity:1;stroke-width:0.791012;stroke-linecap:round;stroke-linejoin:round;stroke-miterlimit:10"
     d="m 49.495198,42.054067 c 0.185895,0.196886 0.35936,0.405596 0.548223,0.599376 0.160104,0.147169 0.39084,0.06482 0.58421,0.08535 0.254969,0.0061 0.470036,0.192045 0.561599,0.422259 0.09946,0.214516 0.115784,0.465625 0.271294,0.653618 0.04366,0.109779 0.306978,0.237419 0.145569,0.342062 -0.291685,0.102679 -0.60442,0.124467 -0.905262,0.190894 -0.389534,0.06779 -0.771643,0.183353 -1.16655,0.216965 -0.306086,0.01432 -0.619218,-0.02308 -0.911537,-0.104339 -0.158898,-0.03832 -0.207484,-0.250084 -0.18978,-0.397513 0.03832,-0.518037 0.297323,-0.982136 0.517064,-1.441662 0.09954,-0.198532 0.187215,-0.410242 0.354377,-0.56357 0.06704,-0.09529 0.122791,-0.113131 0.190793,-0.0035 z"
     id="path605" /><path
     style="fill:#677c28;fill-opacity:1;stroke:none;stroke-width:3.96146;stroke-linecap:round;stroke-linejoin:round;stroke-miterlimit:10"
     d="m 32.276,64.491154 c 0.289723,0.105115 0.598613,0.239991 0.760565,0.518564 0.201741,0.330704 0.252784,0.745281 0.14074,1.115878 -0.06447,0.22447 -0.164174,0.441272 -0.301109,0.630559 -0.104005,0.03748 -0.140191,-0.164105 -0.20622,-0.232631 -0.130669,-0.211039 -0.248579,-0.429905 -0.381737,-0.639285 -0.07548,-0.133778 -0.26917,-0.07346 -0.349541,0.02256 -0.115478,0.153421 -0.325305,0.13955 -0.496863,0.13268 -0.309865,-0.02261 -0.652989,-0.07376 -0.873466,-0.315765 -0.111319,-0.09935 -0.01984,-0.241802 0.04556,-0.337477 0.192959,-0.29589 0.468667,-0.535107 0.790856,-0.680666 0.238857,-0.108636 0.483917,-0.218092 0.745812,-0.254469 0.0437,0.0055 0.08392,0.02641 0.125412,0.04001 z"
     id="path2847" /><path
     style="fill:#677c28;fill-opacity:1;stroke:none;stroke-width:3.96146;stroke-linecap:round;stroke-linejoin:round;stroke-miterlimit:10"
     d="m 64.122592,56.067634 c 0.146273,-0.0428 0.438146,-0.128203 0.708433,-0.187714 0.270287,-0.05952 0.518817,-0.09325 0.730024,-0.07554 0.211206,0.01765 0.384857,0.08633 0.522363,0.224248 0.137526,0.137891 0.239424,0.34456 0.250882,0.546777 0.01158,0.202217 -0.06701,0.400731 -0.18003,0.614078 -0.113027,0.213336 -0.260696,0.441838 -0.379313,0.589796 -0.118632,0.147947 -0.208495,0.215683 -0.330885,0.250482 -0.122381,0.0348 -0.277886,0.03652 -0.385889,0.03404 -0.107994,-0.0025 -0.168299,-0.0092 -0.190178,0.08871 -0.02195,0.09797 -0.004,0.299942 0.01796,0.483705 0.02226,0.183747 0.04856,0.348996 0.02529,0.494373 -0.02317,0.145388 -0.09608,0.271512 -0.155475,0.342435 -0.05942,0.07094 -0.105621,0.08688 -0.21974,0.0134 -0.11412,-0.07335 -0.296102,-0.237046 -0.659004,-0.552589 -0.362903,-0.315532 -0.906725,-0.782867 -1.233584,-1.095496 -0.326854,-0.312628 -0.436476,-0.470668 -0.528373,-0.63027 -0.09191,-0.159613 -0.165865,-0.320774 -0.207094,-0.448957 -0.04123,-0.128172 -0.04937,-0.223337 0.04634,-0.297993 0.09569,-0.07466 0.294579,-0.127986 0.493498,-0.181315 0.198924,-0.05332 0.397803,-0.106653 0.61725,-0.131704 0.219432,-0.02499 0.459225,-0.02195 0.61473,-0.02347 0.155505,-0.0015 0.226813,-0.0076 0.262067,-0.01067 0.03526,-0.003 0.0345,-0.0035 0.180768,-0.04634 z"
     id="path4044" /><path
     style="fill:#80a004;fill-opacity:0.701961;stroke:#312114;stroke-width:0.196408;stroke-opacity:0"
     d="m 72.010935,40.094927 c -2.066092,0.220456 -3.578568,1.949726 -5.54987,2.496372 -1.358645,0.726503 -3.403161,0.207133 -4.364156,1.608257 -0.478332,1.151445 -2.152672,1.320943 -2.463156,2.528377 0.276505,1.671052 2.227946,2.262587 3.564302,2.897562 1.305276,0.350823 2.487286,1.609257 2.060189,3.044562 -0.121895,1.169601 -0.826878,2.377497 -2.10295,2.492694 -0.994139,0.354242 -2.542664,0.0872 -3.148678,1.125135 0.08079,1.284788 1.567252,1.905204 2.289005,2.829508 1.141464,1.085808 1.290701,2.976251 2.860963,3.653502 1.735307,0.817155 3.596971,2.170433 5.611838,1.73852 1.401999,-0.566991 1.578771,-2.362315 2.292035,-3.521035 2.36011,-5.441739 4.61478,-10.996252 5.754191,-16.833324 0.158358,-1.845884 -1.886447,-2.831537 -3.318459,-3.429957 -1.112988,-0.387395 -2.304362,-0.63035 -3.485254,-0.630173 z"
     id="path1" /><path
     style="fill:#80a004;fill-opacity:0.701961;stroke:#312114;stroke-width:0.138882;stroke-opacity:0"
     d="M 47.351083,4.0205006 C 46.0241,4.158789 44.691952,4.3188052 43.456675,4.8206564 40.11431,5.8864886 36.626801,6.3957326 33.264079,7.3807875 31.91127,7.7989579 30.545168,8.9073949 30.655706,10.461413 c 0.0035,1.644968 -0.02366,3.331328 0.291597,4.944679 0.407247,0.880914 1.694212,1.501998 1.412688,2.600777 -0.689926,1.864146 -1.974232,3.618836 -1.776982,5.706901 0.127271,1.562642 -0.102222,3.294266 0.695493,4.709773 0.782729,1.095335 2.284803,0.476865 3.150066,-0.180113 2.117044,-1.521506 3.793519,-3.87533 6.490998,-4.411838 0.699222,-0.298096 2.017602,-0.375583 2.042637,-1.371827 -0.142431,-1.141608 -0.161487,-2.452691 0.712583,-3.316615 0.508218,-1.470657 0.347553,-3.132192 1.154184,-4.522337 0.953794,-1.99684 2.710863,-3.444697 3.863462,-5.302462 0.398329,-1.2591792 0.905019,-2.6450445 0.582109,-3.9733203 -0.290401,-0.812533 -1.01282,-1.4550731 -1.923458,-1.3245301 z"
     id="path3" /><path
     style="fill:#80a004;fill-opacity:0.701961;stroke:#312114;stroke-width:0.138882;stroke-opacity:0"
     d="m 22.754907,13.174218 c -1.078175,0.04824 -2.265005,0.312179 -3.090119,1.030763 -0.394677,1.933842 0.167734,3.99841 -0.624074,5.869403 -0.20679,0.513193 -0.08135,1.313403 0.621633,1.287077 1.170334,0.05851 2.291657,-0.545361 3.303866,-1.071723 0.899868,-0.630574 0.07765,-1.966588 0.667827,-2.745898 1.254011,-0.668816 3.114781,-0.455164 3.94538,-1.797597 0.314371,-0.551801 0.02572,-1.161973 -0.215375,-1.643525 -0.242683,-0.388606 -0.959887,-0.200333 -1.347315,-0.419628 -1.068605,-0.261505 -2.153588,-0.529154 -3.261823,-0.508872 z"
     id="path5" /><path
     style="fill:#80a004;fill-opacity:0.701961;stroke:#312114;stroke-width:0.138882;stroke-opacity:0"
     d="m 24.561998,30.389045 c -2.352422,0.196465 -4.703662,0.484525 -7.044452,0.758154 -1.639769,1.407671 -2.625976,3.362884 -3.803244,5.129401 -1.183507,1.502186 -3.445131,0.506341 -4.7773152,1.790273 -0.6250133,0.455751 -1.6388973,1.146979 -1.155811,2.052303 0.5476898,1.039941 1.0653211,2.165806 1.8971464,3.004674 1.2357018,0.468062 2.9813778,0.270692 3.7240378,1.575442 0.674163,1.393016 0.446328,3.126188 1.327243,4.4255 0.903481,0.383452 1.969103,0.03931 2.925769,0.08133 2.298471,-0.251734 4.927161,0.08763 6.861326,-1.445735 0.747261,-0.618302 1.960973,-1.224821 1.919933,-2.34119 -0.344423,-0.907865 -1.497047,-1.101393 -2.217288,-1.63051 -1.549994,-0.905003 -3.307528,-1.5795 -4.60094,-2.84707 -0.30699,-0.708807 0.639918,-1.20945 0.999569,-1.69479 0.758549,-0.758521 1.760871,-1.481637 1.839912,-2.636855 0.747956,-1.185872 2.384832,-1.748075 2.623835,-3.269146 0.110069,-0.914324 0.696251,-2.066889 0.03066,-2.882067 -0.16643,-0.09072 -0.368171,-0.06928 -0.550374,-0.06971 z"
     id="path6" /><path
     style="fill:#80a004;fill-opacity:0.701961;stroke:#312114;stroke-width:0.138882;stroke-opacity:0"
     d="m 51.590502,40.238528 c -1.082392,0.113787 -2.143052,0.412927 -3.219508,0.527047 -0.704984,0.510774 -0.666751,1.568254 -0.981509,2.317474 -0.06204,0.646875 -0.596404,1.416635 -0.222582,2.027463 1.209098,0.757618 2.761924,0.60491 4.128747,0.527045 1.504508,-0.05366 2.107948,-1.755014 2.327627,-3.002777 0.285651,-1.233073 -0.688638,-2.628958 -2.032775,-2.396252 z"
     id="path7" /><path
     style="fill:#80a004;fill-opacity:0.701961;stroke:#312114;stroke-width:0.138882;stroke-opacity:0"
     d="m 30.652992,65.885539 c -0.785104,-0.07972 -1.13527,0.775684 -1.868664,0.905986 -0.7385,0.403671 -1.72239,0.302158 -2.369128,0.835458 -0.252012,0.454364 -0.003,0.97745 0.521349,1.031037 0.85191,0.411224 1.826548,1.348817 2.794996,0.647754 0.700767,-0.467653 1.358214,-1.162109 2.28938,-0.970819 1.004794,0.285828 0.688473,-0.436643 0.614116,-1.06874 0.351148,-0.617841 -0.210243,-1.463052 -0.936638,-1.348669 -0.348077,-0.01857 -0.696773,-0.03354 -1.045411,-0.03202 z"
     id="path8" /><path
     style="fill:#80a004;fill-opacity:0.701961;stroke:#312114;stroke-width:0.403133;stroke-opacity:0"
     d="m 31.982498,64.422674 c -0.493663,0.136672 -0.984802,0.371654 -1.306765,0.783752 -0.09614,0.133854 -0.270777,0.298834 -0.200823,0.479289 0.0948,0.18867 0.301583,0.275027 0.504955,0.266923 0.324694,0.0035 0.654763,0.05098 0.977028,0.0061 0.07428,-0.04376 0.193189,-0.121343 0.270732,-0.04831 0.168434,0.260159 0.343083,0.517441 0.480472,0.795321 0.105422,0.137127 0.287323,0.01937 0.337482,-0.107417 0.26995,-0.464992 0.345356,-1.066565 0.07835,-1.550264 -0.186269,-0.374274 -0.605547,-0.548259 -0.980172,-0.662738 -0.05375,0.0125 -0.10751,0.02489 -0.161261,0.03738 z"
     id="path9" /><path
     style="fill:#80a004;fill-opacity:0.701961;stroke:#312114;stroke-width:0.0245511;stroke-opacity:0"
     d="m 26.5009,67.358638 c -0.296049,0.07875 -0.676186,0.04204 -0.874247,0.323045 -0.165501,0.228684 -0.09072,0.580356 0.16639,0.707234 0.207184,0.109228 0.45718,0.165228 0.6893,0.127651 0.106595,-0.04012 0.05121,-0.153982 -0.01341,-0.202019 -0.133716,-0.231179 -0.115645,-0.580944 0.110389,-0.74732 0.06401,-0.07204 0.04225,-0.224324 -0.07845,-0.208591 z"
     id="path10" /><path
     style="fill:#80a004;fill-opacity:0.701961;stroke:#312114;stroke-width:0.0245511;stroke-opacity:0"
     d="m 26.50138,67.358638 c -0.296214,0.07863 -0.676533,0.04199 -0.874727,0.323045 -0.165501,0.228684 -0.09072,0.580356 0.16639,0.707234 0.21019,0.112172 0.463651,0.162076 0.698939,0.130424 0.129434,-0.09407 -0.05906,-0.210969 -0.06814,-0.319979 -0.06288,-0.215097 -0.04074,-0.487772 0.153348,-0.627585 0.06526,-0.07213 0.04754,-0.22787 -0.07582,-0.213144 z"
     id="path11" /><path
     style="fill:#80a004;fill-opacity:0.701961;stroke:#312114;stroke-width:0.0245511;stroke-opacity:0"
     d="m 30.522767,65.819973 c -0.30252,-0.003 -0.554924,0.184628 -0.762465,0.384695 -0.785408,0.640252 -1.805592,0.852116 -2.769777,1.068599 -0.170825,0.0556 -0.386514,0.0998 -0.475431,0.271658 -0.190287,0.140638 -0.189334,0.42087 -0.162795,0.634829 0.02364,0.118328 0.109719,0.210822 0.138729,0.32525 0.135133,0.107007 0.326798,0.108975 0.472625,0.203684 0.53411,0.275741 1.005094,0.681041 1.592373,0.848267 0.252915,0.06512 0.530808,0.07836 0.783308,0.0073 0.56668,-0.240729 1.027227,-0.66203 1.512288,-1.029035 0.27146,-0.152353 0.598516,-0.148114 0.901005,-0.167974 0.298818,0.02059 0.607079,0.08354 0.903211,0.02094 0.201044,-0.140587 0.143512,-0.426739 0.06852,-0.62241 -0.05833,-0.268431 -0.07001,-0.555179 0.03901,-0.81282 0.01265,-0.111392 0.115433,-0.281917 -0.0076,-0.358819 -0.08615,-0.0065 -0.09497,-0.148879 -0.155858,-0.210838 -0.07021,-0.118111 -0.155657,-0.232423 -0.195337,-0.36357 -0.1472,-0.05598 -0.302279,-0.170539 -0.472513,-0.117246 -0.340427,0.117489 -0.692304,0.05859 -1.035699,-0.01684 -0.11624,-0.02944 -0.245642,-0.07352 -0.373588,-0.06569 z m 1.77693,0.182554 c 0.0064,-0.007 0.03823,-0.0099 0,0 z"
     id="path12" /><path
     style="fill:#80a004;fill-opacity:0.701961;stroke:#312114;stroke-width:0.0245511;stroke-opacity:0"
     d="m 32.022203,63.600359 c -0.462738,0.01953 -0.955161,0.101534 -1.334581,0.384438 -0.443234,0.390224 -0.740556,0.919503 -1.198446,1.296782 -0.438177,0.393442 -0.98652,0.63582 -1.557262,0.77842 -0.79686,0.210114 -1.591662,0.447793 -2.395934,0.610061 -0.345281,0.05226 -0.779119,0.140527 -0.918127,0.50914 -0.180279,0.503762 0.04285,1.027841 0.249252,1.485103 0.144275,0.34374 0.441116,0.699019 0.848497,0.681865 0.433766,0.0684 0.849,0.265345 1.219785,0.503681 0.61999,0.502822 1.407573,0.890588 2.225918,0.790294 0.65997,-0.04861 1.241526,-0.443974 1.697504,-0.900341 0.117641,-0.110422 0.227483,-0.236353 0.360402,-0.326935 0.466296,-0.02236 0.938194,0.02924 1.400895,-0.04103 0.509264,-0.111975 1.032712,-0.403322 1.216388,-0.920115 0.113681,-0.206947 0.0053,-0.435854 -0.116589,-0.610168 -0.106153,-0.142064 -0.13783,-0.328882 -0.04675,-0.486836 0.231843,-0.484261 0.383138,-1.012542 0.366732,-1.553431 0.01112,-0.595153 -0.06689,-1.257253 -0.496153,-1.707403 -0.398042,-0.378979 -0.989873,-0.493726 -1.521541,-0.493514 z m 0.125488,0.865901 c 0.429831,0.09406 0.877339,0.362174 1.006929,0.80899 0.129982,0.4553 0.05217,0.975033 -0.215396,1.365844 -0.05373,0.07286 -0.174489,0.05133 -0.195546,0.158384 -0.158555,0.403038 -0.125976,0.863518 -0.0096,1.268696 0.01996,0.0825 0.0529,0.18349 -0.05045,0.22532 -0.228415,0.109734 -0.496316,0.02899 -0.739601,0.03106 -0.446037,-0.01857 -0.953379,-0.02489 -1.304417,0.298975 -0.423832,0.322311 -0.835834,0.674342 -1.329116,0.881492 -0.248992,0.03308 -0.514437,0.04947 -0.765253,-4.05e-4 -0.59274,-0.226099 -1.098856,-0.618949 -1.664151,-0.898175 -0.195229,-0.07896 -0.39097,-0.165036 -0.607012,-0.154074 -0.258733,-0.01067 -0.608674,-0.106531 -0.657367,-0.40619 -0.05034,-0.226574 0.101216,-0.461592 0.329407,-0.507242 0.341883,-0.123322 0.716836,-0.06335 1.057039,-0.194812 0.964636,-0.249055 1.999323,-0.441929 2.79285,-1.09157 0.26034,-0.237886 0.636312,-0.39245 0.756906,-0.754169 0.244051,-0.448238 0.687766,-0.748467 1.158502,-0.920474 0.140497,-0.05098 0.285123,-0.10728 0.436212,-0.111489 z"
     id="path13" /></svg>
