<?xml version="1.0" encoding="UTF-8" standalone="no"?>
<svg
   version="1.1"
   width="165"
   height="165"
   viewBox="0 0 165 165"
   xml:space="preserve"
   id="svg218"
   sodipodi:docname="bush_2.svg"
   inkscape:version="1.3 (0e150ed6c4, 2023-07-21)"
   xmlns:inkscape="http://www.inkscape.org/namespaces/inkscape"
   xmlns:sodipodi="http://sodipodi.sourceforge.net/DTD/sodipodi-0.dtd"
   xmlns="http://www.w3.org/2000/svg"
   xmlns:svg="http://www.w3.org/2000/svg"><sodipodi:namedview
   id="namedview220"
   pagecolor="#505050"
   bordercolor="#eeeeee"
   borderopacity="1"
   inkscape:showpageshadow="0"
   inkscape:pageopacity="0"
   inkscape:pagecheckerboard="true"
   inkscape:deskcolor="#505050"
   showgrid="false"
   inkscape:zoom="22.627416"
   inkscape:cx="147.45387"
   inkscape:cy="134.81433"
   inkscape:window-width="1920"
   inkscape:window-height="1017"
   inkscape:window-x="-8"
   inkscape:window-y="-8"
   inkscape:window-maximized="1"
   inkscape:current-layer="svg218"
   showguides="true"
   inkscape:pageshadow="0" />&#10;<desc
   id="desc181">Created with Fabric.js 5.3.0</desc>&#10;<defs
   id="defs183" />&#10;&#10;<g
   id="g30426"
   style="opacity:0.925"
   transform="matrix(2.2,0,0,2.2,10084.499,4403.1402)"
   inkscape:export-filename="bush_01.png"
   inkscape:export-xdpi="96"
   inkscape:export-ydpi="96"><g
     transform="matrix(0.1875,0,0,0.1875,-4546.5994,-1963.9993)"
     id="TUpbIBcTeAz7rDdmaMSty"
     style="opacity:1;fill:#3b5b1e;fill-opacity:1">&#10;<path
   style="opacity:1;fill:#3b5b1e;fill-opacity:1;fill-rule:nonzero;stroke:#000000;stroke-width:0;stroke-linecap:butt;stroke-linejoin:miter;stroke-miterlimit:4;stroke-dasharray:none;stroke-dashoffset:0"
   vector-effect="non-scaling-stroke"
   d="m 253.44549,0.72556 c 21.65097,5.70355 9.94439,33.72049 33.0529,46.90606 23.1085,13.18558 43.29423,-10.15937 59.38112,5.83624 16.08688,15.99561 -8.36734,34.85531 4.96642,58.14622 13.33376,23.29092 42.36688,12.9313 48.36862,35.01743 6.00174,22.08613 -24.36166,26.57686 -24.36166,53.32708 0,26.75022 30.3634,31.70793 24.36166,53.6738 -6.00174,21.96587 -35.03486,10.94359 -48.36862,34.18968 -13.33376,23.24609 11.12047,42.71364 -4.96642,58.79469 -16.08688,16.08105 -36.27261,-7.63342 -59.38112,5.52951 -23.1085,13.16293 -11.40193,41.38385 -33.0529,47.12222 -21.65097,5.73838 -26.82947,-24.16872 -53.55098,-24.16872 -26.7215,0 -31.52212,29.90709 -53.33504,24.16872 C 124.74655,393.53011 135.85931,365.3092 112.64284,352.14627 89.42637,338.98334 69.61852,362.69781 53.69358,346.61676 37.76864,330.53571 62.16889,311.06816 48.94309,287.82207 35.7173,264.57598 6.79214,276.12193 0.7904,253.63239 c -6.00174,-22.48955 24.14573,-29.01828 24.14573,-55.7685 0,-26.75022 -30.14747,-29.66993 -24.14573,-51.23238 6.00174,-21.56245 34.92689,-11.72652 48.15269,-35.01743 13.2258,-23.29091 -11.61016,-42.15061 4.75049,-58.14622 16.36065,-15.99562 37.47564,7.34933 60.69211,-5.83624 23.21647,-13.18557 10.79657,-41.20251 32.17377,-46.90606 21.3772,-5.70355 26.61353,24.09185 53.33504,24.09185 26.72151,0 31.90001,-29.7954 53.55098,-24.09185 z m -16.03366,60.2364 c -15.15568,-3.99249 -18.78063,16.86429 -37.48568,16.86429 -18.70505,0 -22.37049,-20.85678 -37.33453,-16.86429 -14.96404,3.99249 -6.27011,23.60434 -22.52164,32.83424 -16.25153,9.2299 -31.03202,-7.11156 -42.48448,4.08537 -11.45246,11.19693 5.93271,24.39872 -3.32534,40.70236 -9.25806,16.30364 -29.50567,9.41848 -33.70688,24.5122 -4.20122,15.09372 16.90201,17.13751 16.90201,35.86267 0,18.72515 -21.10323,23.29527 -16.90201,39.03795 4.20122,15.74268 24.44883,7.66051 33.70688,23.93278 9.25806,16.27227 -7.82211,29.89955 3.32534,41.15629 11.14746,11.25674 25.01295,-5.3434 41.26448,3.87066 16.25153,9.21405 8.4726,28.96869 23.74164,32.98555 15.26904,4.01686 18.62948,-16.91811 37.33453,-16.91811 18.70505,0 22.33,20.93497 37.48568,16.91811 15.15568,-4.01686 6.96108,-23.7715 23.13703,-32.98555 16.17595,-9.21405 30.30597,7.38608 41.56679,-3.87066 11.26082,-11.25674 -5.85714,-24.88402 3.47649,-41.15629 9.33363,-16.27227 29.65682,-8.55667 33.85804,-23.93278 4.20122,-15.37611 -17.05316,-18.84651 -17.05316,-37.57166 0,-18.72515 21.25438,-21.86867 17.05316,-37.32895 -4.20122,-15.46029 -24.5244,-8.20856 -33.85804,-24.5122 -9.33363,-16.30364 7.78433,-29.50543 -3.47649,-40.70236 -11.26082,-11.19693 -25.39083,5.14454 -41.56679,-4.08537 -16.17595,-9.2299 -7.98135,-28.84176 -23.13703,-32.83424 z"
   stroke-linecap="round"
   id="path17029"
   transform="translate(-200,-200)" />&#10;</g><path
     style="fill:#2e5617;fill-opacity:1;fill-rule:nonzero;stroke:#000000;stroke-width:0;stroke-linecap:butt;stroke-linejoin:miter;stroke-miterlimit:4;stroke-dasharray:none;stroke-dashoffset:0"
     vector-effect="non-scaling-stroke"
     d="m -4531.0573,-1997.3021 c -3.6215,-1.6702 -5.4516,3.3963 -10.139,2.5698 -4.6875,-0.8265 -4.6844,-6.2152 -8.6108,-5.8759 -3.9264,0.3393 -2.6143,5.6382 -7.0947,7.2331 -4.4805,1.5949 -7.4624,-3.1534 -10.8271,-0.8535 -3.3647,2.2999 0.4086,6.3764 -2.6319,10.053 -3.0404,3.6766 -7.8102,1.0565 -9.53,4.6533 -1.7197,3.5968 3.4784,5.0415 2.651,9.734 -0.8274,4.6925 -6.3178,4.9052 -5.9606,9.036 0.3572,4.1307 5.7883,3 7.3893,7.4869 1.6011,4.4869 -3.2814,7.1471 -0.9852,10.4606 2.2961,3.3135 6.5043,-0.2338 10.1698,2.7934 3.6654,3.0271 0.8431,7.6339 4.492,9.3152 3.6489,1.6813 5.4161,-3.4165 10.1036,-2.59 4.6874,0.8266 4.6708,6.233 8.6463,5.8961 3.9754,-0.337 2.7948,-5.6495 7.2556,-7.2438 4.4608,-1.5942 7.2683,3.1901 10.5876,0.8668 3.3194,-2.3234 -0.3682,-6.4947 2.6898,-10.1601 3.058,-3.6654 7.81,-0.8339 9.5423,-4.5014 1.7322,-3.6676 -3.4407,-5.4765 -2.6133,-10.169 0.8274,-4.6925 6.2926,-4.5411 5.9229,-8.601 -0.3696,-4.06 -5.783,-3.1407 -7.4016,-7.6388 -1.6186,-4.4981 3.2545,-7.0501 0.9273,-10.3536 -2.3272,-3.3035 -6.5902,0.1673 -10.236,-2.8605 -3.6459,-3.0278 -0.7257,-7.5804 -4.3473,-9.2506 z"
     stroke-linecap="round"
     id="path17032" /><g
     transform="matrix(0.15853542,0.05770217,-0.05776246,0.15870106,-4546.5912,-1963.9994)"
     id="DoV-uyDlkuLqFojr_yBQV"
     style="opacity:1;fill:#2e5617;fill-opacity:1">&#10;<path
   style="opacity:1;fill:#2e5617;fill-opacity:1;fill-rule:nonzero;stroke:#000000;stroke-width:0;stroke-linecap:butt;stroke-linejoin:miter;stroke-miterlimit:4;stroke-dasharray:none;stroke-dashoffset:0"
   vector-effect="non-scaling-stroke"
   transform="translate(9.1975e-6,1.45125e-5)"
   d="m 53.4582,-199.11381 c -21.65612,-5.69896 -26.83585,24.07243 -53.56371,24.07243 -26.72786,0 -31.96544,-29.77138 -53.34773,-24.07243 -21.38229,5.69896 -8.95943,33.6933 -32.18143,46.86825 -23.22199,13.17495 -44.34201,-10.15119 -60.70655,5.83153 -16.36454,15.98272 8.47732,34.82721 -4.75162,58.09935 -13.22894,23.27214 -42.16098,13.44413 -48.16415,34.9892 -6.00317,21.54507 24.15148,24.46243 24.15148,51.19108 0,26.72866 -30.15464,33.25213 -24.15148,55.72354 6.00317,22.47142 34.93521,10.93477 48.16415,34.16212 13.22894,23.22736 -11.17711,42.67921 4.75162,58.7473 15.92873,16.06809 35.74129,-7.62727 58.96328,5.52505 23.22199,13.15232 12.10659,41.35049 33.92469,47.08423 21.81811,5.73375 26.61987,-24.14924 53.34773,-24.14924 26.72786,0 31.9076,29.88299 53.56371,24.14924 21.65612,-5.73375 9.94676,-33.93191 33.06076,-47.08423 23.114,-13.15232 43.30454,10.54304 59.39525,-5.52505 16.09071,-16.06809 -8.36933,-35.51994 4.9676,-58.7473 13.33693,-23.22736 42.37696,-12.21396 48.38013,-34.16212 6.00317,-21.94816 -24.36746,-26.90188 -24.36746,-53.63053 0,-26.72866 30.37063,-31.21577 24.36746,-53.28409 -6.00317,-22.06832 -35.0432,-11.71706 -48.38013,-34.9892 -13.33693,-23.27214 11.12311,-42.11663 -4.9676,-58.09935 -16.09071,-15.98272 -36.28125,7.34341 -59.39525,-5.83153 -23.114,-13.17495 -11.40464,-41.1693 -33.06076,-46.86825 z"
   stroke-linecap="round"
   id="path17035" />&#10;</g><g
     transform="matrix(0.1593371,0,0,0.15950358,-4546.5994,-1963.9993)"
     id="McesWKx5qywez6Zdlah17"
     style="opacity:1;fill:#2e6d02;fill-opacity:1">&#10;<path
   style="opacity:1;fill:#2e6d02;fill-opacity:1;fill-rule:nonzero;stroke:#000000;stroke-width:0;stroke-linecap:butt;stroke-linejoin:miter;stroke-miterlimit:4;stroke-dasharray:none;stroke-dashoffset:0"
   vector-effect="non-scaling-stroke"
   transform="translate(9.1975e-6,1.45125e-5)"
   d="m 53.4582,-199.11381 c -21.65612,-5.69896 -26.83585,24.07243 -53.56371,24.07243 -26.72786,0 -31.96544,-29.77138 -53.34773,-24.07243 -21.38229,5.69896 -8.95943,33.6933 -32.18143,46.86825 -23.22199,13.17495 -44.34201,-10.15119 -60.70655,5.83153 -16.36454,15.98272 8.47732,34.82721 -4.75162,58.09935 -13.22894,23.27214 -42.16098,13.44413 -48.16415,34.9892 -6.00317,21.54507 24.15148,24.46243 24.15148,51.19108 0,26.72866 -30.15464,33.25213 -24.15148,55.72354 6.00317,22.47142 34.93521,10.93477 48.16415,34.16212 13.22894,23.22736 -11.17711,42.67921 4.75162,58.7473 15.92873,16.06809 35.74129,-7.62727 58.96328,5.52505 23.22199,13.15232 12.10659,41.35049 33.92469,47.08423 21.81811,5.73375 26.61987,-24.14924 53.34773,-24.14924 26.72786,0 31.9076,29.88299 53.56371,24.14924 21.65612,-5.73375 9.94676,-33.93191 33.06076,-47.08423 23.114,-13.15232 43.30454,10.54304 59.39525,-5.52505 16.09071,-16.06809 -8.36933,-35.51994 4.9676,-58.7473 13.33693,-23.22736 42.37696,-12.21396 48.38013,-34.16212 6.00317,-21.94816 -24.36746,-26.90188 -24.36746,-53.63053 0,-26.72866 30.37063,-31.21577 24.36746,-53.28409 -6.00317,-22.06832 -35.0432,-11.71706 -48.38013,-34.9892 -13.33693,-23.27214 11.12311,-42.11663 -4.9676,-58.09935 -16.09071,-15.98272 -36.28125,7.34341 -59.39525,-5.83153 -23.114,-13.17495 -11.40464,-41.1693 -33.06076,-46.86825 z"
   stroke-linecap="round"
   id="path17038" />&#10;</g><g
     transform="matrix(0.14768603,0.02604103,-0.02606824,0.14784034,-4546.5969,-1963.9988)"
     id="S177hH-ZuUor6YhRJ3Dzy"
     style="opacity:1;fill:#2e6d02;fill-opacity:1">&#10;<path
   style="opacity:1;fill:#2e6d02;fill-opacity:1;fill-rule:nonzero;stroke:#000000;stroke-width:0;stroke-linecap:butt;stroke-linejoin:miter;stroke-miterlimit:4;stroke-dasharray:none;stroke-dashoffset:0"
   vector-effect="non-scaling-stroke"
   transform="translate(9.1975e-6,1.45125e-5)"
   d="m 53.4582,-199.11381 c -21.65612,-5.69896 -26.83585,24.07243 -53.56371,24.07243 -26.72786,0 -31.96544,-29.77138 -53.34773,-24.07243 -21.38229,5.69896 -8.95943,33.6933 -32.18143,46.86825 -23.22199,13.17495 -44.34201,-10.15119 -60.70655,5.83153 -16.36454,15.98272 8.47732,34.82721 -4.75162,58.09935 -13.22894,23.27214 -42.16098,13.44413 -48.16415,34.9892 -6.00317,21.54507 24.15148,24.46243 24.15148,51.19108 0,26.72866 -30.15464,33.25213 -24.15148,55.72354 6.00317,22.47142 34.93521,10.93477 48.16415,34.16212 13.22894,23.22736 -11.17711,42.67921 4.75162,58.7473 15.92873,16.06809 35.74129,-7.62727 58.96328,5.52505 23.22199,13.15232 12.10659,41.35049 33.92469,47.08423 21.81811,5.73375 26.61987,-24.14924 53.34773,-24.14924 26.72786,0 31.9076,29.88299 53.56371,24.14924 21.65612,-5.73375 9.94676,-33.93191 33.06076,-47.08423 23.114,-13.15232 43.30454,10.54304 59.39525,-5.52505 16.09071,-16.06809 -8.36933,-35.51994 4.9676,-58.7473 13.33693,-23.22736 42.37696,-12.21396 48.38013,-34.16212 6.00317,-21.94816 -24.36746,-26.90188 -24.36746,-53.63053 0,-26.72866 30.37063,-31.21577 24.36746,-53.28409 -6.00317,-22.06832 -35.0432,-11.71706 -48.38013,-34.9892 -13.33693,-23.27214 11.12311,-42.11663 -4.9676,-58.09935 -16.09071,-15.98272 -36.28125,7.34341 -59.39525,-5.83153 -23.114,-13.17495 -11.40464,-41.1693 -33.06076,-46.86825 z"
   stroke-linecap="round"
   id="path17041" />&#10;</g><g
     transform="matrix(0.13211285,0.04808514,-0.04813538,0.13225088,-4546.5926,-1963.9994)"
     id="Ry_hy_izT_Tv2GBtfh1VD"
     style="opacity:1;fill:#40781f;fill-opacity:1">&#10;<path
   style="opacity:1;fill:#40781f;fill-opacity:1;fill-rule:nonzero;stroke:#000000;stroke-width:0;stroke-linecap:butt;stroke-linejoin:miter;stroke-miterlimit:4;stroke-dasharray:none;stroke-dashoffset:0"
   vector-effect="non-scaling-stroke"
   transform="translate(9.1975e-6,1.45125e-5)"
   d="m 53.4582,-199.11381 c -21.65612,-5.69896 -26.83585,24.07243 -53.56371,24.07243 -26.72786,0 -31.96544,-29.77138 -53.34773,-24.07243 -21.38229,5.69896 -8.95943,33.6933 -32.18143,46.86825 -23.22199,13.17495 -44.34201,-10.15119 -60.70655,5.83153 -16.36454,15.98272 8.47732,34.82721 -4.75162,58.09935 -13.22894,23.27214 -42.16098,13.44413 -48.16415,34.9892 -6.00317,21.54507 24.15148,24.46243 24.15148,51.19108 0,26.72866 -30.15464,33.25213 -24.15148,55.72354 6.00317,22.47142 34.93521,10.93477 48.16415,34.16212 13.22894,23.22736 -11.17711,42.67921 4.75162,58.7473 15.92873,16.06809 35.74129,-7.62727 58.96328,5.52505 23.22199,13.15232 12.10659,41.35049 33.92469,47.08423 21.81811,5.73375 26.61987,-24.14924 53.34773,-24.14924 26.72786,0 31.9076,29.88299 53.56371,24.14924 21.65612,-5.73375 9.94676,-33.93191 33.06076,-47.08423 23.114,-13.15232 43.30454,10.54304 59.39525,-5.52505 16.09071,-16.06809 -8.36933,-35.51994 4.9676,-58.7473 13.33693,-23.22736 42.37696,-12.21396 48.38013,-34.16212 6.00317,-21.94816 -24.36746,-26.90188 -24.36746,-53.63053 0,-26.72866 30.37063,-31.21577 24.36746,-53.28409 -6.00317,-22.06832 -35.0432,-11.71706 -48.38013,-34.9892 -13.33693,-23.27214 11.12311,-42.11663 -4.9676,-58.09935 -16.09071,-15.98272 -36.28125,7.34341 -59.39525,-5.83153 -23.114,-13.17495 -11.40464,-41.1693 -33.06076,-46.86825 z"
   stroke-linecap="round"
   id="path17044" />&#10;</g><g
     transform="matrix(0.10153415,0.01790321,-0.01792192,0.10164023,-4546.5976,-1963.9989)"
     id="IJitezga8s3hNOGtiVHin"
     style="opacity:1;fill:#3b8c03;fill-opacity:1">&#10;<path
   style="opacity:1;fill:#3b8c03;fill-opacity:1;fill-rule:nonzero;stroke:#000000;stroke-width:0;stroke-linecap:butt;stroke-linejoin:miter;stroke-miterlimit:4;stroke-dasharray:none;stroke-dashoffset:0"
   vector-effect="non-scaling-stroke"
   transform="translate(9.1975e-6,1.45125e-5)"
   d="m 53.4582,-199.11381 c -21.65612,-5.69896 -26.83585,24.07243 -53.56371,24.07243 -26.72786,0 -31.96544,-29.77138 -53.34773,-24.07243 -21.38229,5.69896 -8.95943,33.6933 -32.18143,46.86825 -23.22199,13.17495 -44.34201,-10.15119 -60.70655,5.83153 -16.36454,15.98272 8.47732,34.82721 -4.75162,58.09935 -13.22894,23.27214 -42.16098,13.44413 -48.16415,34.9892 -6.00317,21.54507 24.15148,24.46243 24.15148,51.19108 0,26.72866 -30.15464,33.25213 -24.15148,55.72354 6.00317,22.47142 34.93521,10.93477 48.16415,34.16212 13.22894,23.22736 -11.17711,42.67921 4.75162,58.7473 15.92873,16.06809 35.74129,-7.62727 58.96328,5.52505 23.22199,13.15232 12.10659,41.35049 33.92469,47.08423 21.81811,5.73375 26.61987,-24.14924 53.34773,-24.14924 26.72786,0 31.9076,29.88299 53.56371,24.14924 21.65612,-5.73375 9.94676,-33.93191 33.06076,-47.08423 23.114,-13.15232 43.30454,10.54304 59.39525,-5.52505 16.09071,-16.06809 -8.36933,-35.51994 4.9676,-58.7473 13.33693,-23.22736 42.37696,-12.21396 48.38013,-34.16212 6.00317,-21.94816 -24.36746,-26.90188 -24.36746,-53.63053 0,-26.72866 30.37063,-31.21577 24.36746,-53.28409 -6.00317,-22.06832 -35.0432,-11.71706 -48.38013,-34.9892 -13.33693,-23.27214 11.12311,-42.11663 -4.9676,-58.09935 -16.09071,-15.98272 -36.28125,7.34341 -59.39525,-5.83153 -23.114,-13.17495 -11.40464,-41.1693 -33.06076,-46.86825 z"
   stroke-linecap="round"
   id="path17050" />&#10;</g><g
     transform="matrix(0.08807523,0.03205676,-0.03209026,0.08816726,-4546.5948,-1963.9993)"
     id="1kFcPA1HgaNGKUZejsU0X"
     style="opacity:1;fill:#3b8c03;fill-opacity:1">&#10;<path
   style="opacity:1;fill:#3b8c03;fill-opacity:1;fill-rule:nonzero;stroke:#000000;stroke-width:0;stroke-linecap:butt;stroke-linejoin:miter;stroke-miterlimit:4;stroke-dasharray:none;stroke-dashoffset:0"
   vector-effect="non-scaling-stroke"
   transform="translate(9.1975e-6,1.45125e-5)"
   d="m 53.4582,-199.11381 c -21.65612,-5.69896 -26.83585,24.07243 -53.56371,24.07243 -26.72786,0 -31.96544,-29.77138 -53.34773,-24.07243 -21.38229,5.69896 -8.95943,33.6933 -32.18143,46.86825 -23.22199,13.17495 -44.34201,-10.15119 -60.70655,5.83153 -16.36454,15.98272 8.47732,34.82721 -4.75162,58.09935 -13.22894,23.27214 -42.16098,13.44413 -48.16415,34.9892 -6.00317,21.54507 24.15148,24.46243 24.15148,51.19108 0,26.72866 -30.15464,33.25213 -24.15148,55.72354 6.00317,22.47142 34.93521,10.93477 48.16415,34.16212 13.22894,23.22736 -11.17711,42.67921 4.75162,58.7473 15.92873,16.06809 35.74129,-7.62727 58.96328,5.52505 23.22199,13.15232 12.10659,41.35049 33.92469,47.08423 21.81811,5.73375 26.61987,-24.14924 53.34773,-24.14924 26.72786,0 31.9076,29.88299 53.56371,24.14924 21.65612,-5.73375 9.94676,-33.93191 33.06076,-47.08423 23.114,-13.15232 43.30454,10.54304 59.39525,-5.52505 16.09071,-16.06809 -8.36933,-35.51994 4.9676,-58.7473 13.33693,-23.22736 42.37696,-12.21396 48.38013,-34.16212 6.00317,-21.94816 -24.36746,-26.90188 -24.36746,-53.63053 0,-26.72866 30.37063,-31.21577 24.36746,-53.28409 -6.00317,-22.06832 -35.0432,-11.71706 -48.38013,-34.9892 -13.33693,-23.27214 11.12311,-42.11663 -4.9676,-58.09935 -16.09071,-15.98272 -36.28125,7.34341 -59.39525,-5.83153 -23.114,-13.17495 -11.40464,-41.1693 -33.06076,-46.86825 z"
   stroke-linecap="round"
   id="path17053" />&#10;</g><g
     transform="matrix(0.07498216,0,0,0.07506051,-4546.5994,-1963.9993)"
     id="eX7Qo5fc4ojT76FNSfMPg"
     style="opacity:1;fill:#539b29;fill-opacity:1">&#10;<path
   style="opacity:1;fill:#539b29;fill-opacity:1;fill-rule:nonzero;stroke:#000000;stroke-width:0;stroke-linecap:butt;stroke-linejoin:miter;stroke-miterlimit:4;stroke-dasharray:none;stroke-dashoffset:0"
   vector-effect="non-scaling-stroke"
   transform="translate(9.1975e-6,1.45125e-5)"
   d="m 53.4582,-199.11381 c -21.65612,-5.69896 -26.83585,24.07243 -53.56371,24.07243 -26.72786,0 -31.96544,-29.77138 -53.34773,-24.07243 -21.38229,5.69896 -8.95943,33.6933 -32.18143,46.86825 -23.22199,13.17495 -44.34201,-10.15119 -60.70655,5.83153 -16.36454,15.98272 8.47732,34.82721 -4.75162,58.09935 -13.22894,23.27214 -42.16098,13.44413 -48.16415,34.9892 -6.00317,21.54507 24.15148,24.46243 24.15148,51.19108 0,26.72866 -30.15464,33.25213 -24.15148,55.72354 6.00317,22.47142 34.93521,10.93477 48.16415,34.16212 13.22894,23.22736 -11.17711,42.67921 4.75162,58.7473 15.92873,16.06809 35.74129,-7.62727 58.96328,5.52505 23.22199,13.15232 12.10659,41.35049 33.92469,47.08423 21.81811,5.73375 26.61987,-24.14924 53.34773,-24.14924 26.72786,0 31.9076,29.88299 53.56371,24.14924 21.65612,-5.73375 9.94676,-33.93191 33.06076,-47.08423 23.114,-13.15232 43.30454,10.54304 59.39525,-5.52505 16.09071,-16.06809 -8.36933,-35.51994 4.9676,-58.7473 13.33693,-23.22736 42.37696,-12.21396 48.38013,-34.16212 6.00317,-21.94816 -24.36746,-26.90188 -24.36746,-53.63053 0,-26.72866 30.37063,-31.21577 24.36746,-53.28409 -6.00317,-22.06832 -35.0432,-11.71706 -48.38013,-34.9892 -13.33693,-23.27214 11.12311,-42.11663 -4.9676,-58.09935 -16.09071,-15.98272 -36.28125,7.34341 -59.39525,-5.83153 -23.114,-13.17495 -11.40464,-41.1693 -33.06076,-46.86825 z"
   stroke-linecap="round"
   id="path17056" />&#10;</g></g><path
   style="fill:#76950a;fill-opacity:0.755187;stroke:#ffffff;stroke-width:0.125;stroke-opacity:0"
   d="m 25.735807,145.02545 c -2.59462,-0.46947 -5.06972,-2.62502 -5.96275,-5.19295 -0.43244,-1.24348 -0.51769,-2.87212 -0.24162,-4.6158 0.30155,-1.9046 0.6167,-3.06318 0.83213,-3.05913 0.0987,0.002 0.72207,0.0503 1.38517,0.10763 0.73215,0.0633 2.45029,0.0468 4.375,-0.0422 l 3.16936,-0.14645 0.3125,0.41382 c 0.17188,0.22759 0.71784,0.82322 1.21326,1.32361 1.01977,1.03002 2.24679,1.70362 3.41174,1.87299 l 0.6875,0.0999 -0.0311,1.24614 c -0.0656,2.62542 0.33988,4.72069 1.14506,5.91717 l 0.4222,0.62739 -0.33056,0.0669 c -0.18181,0.0368 -1.62432,0.34637 -3.20557,0.68794 -4.22738,0.91315 -5.36093,1.02252 -7.18229,0.69297 z"
   id="path1" /><path
   style="fill:#76950a;fill-opacity:0.755187;stroke:#ffffff;stroke-width:0.125;stroke-opacity:0"
   d="m 60.668107,164.6624 c -2.84194,-0.56032 -4.76615,-2.03939 -6.01311,-4.62204 -0.22939,-0.47512 -0.64839,-1.55793 -0.93109,-2.40626 -0.28271,-0.84832 -0.57966,-1.54359 -0.65991,-1.54504 -0.0802,-10e-4 0.23243,-0.13617 0.69484,-0.29937 1.05037,-0.37072 1.9904,-0.88594 4.32231,-2.36902 1.01033,-0.64255 2.15265,-1.34606 2.5385,-1.56335 l 0.70154,-0.39507 0.67346,0.31263 c 1.5924,0.7392 3.79173,0.88451 5.20174,0.34367 l 0.65329,-0.25058 0.58454,1.08061 c 1.32676,2.4527 2.30321,3.67852 3.61965,4.54403 l 0.80036,0.52621 -0.65217,0.56769 c -0.35869,0.31223 -1.38495,1.23673 -2.28056,2.05446 -3.38777,3.09313 -4.98711,3.97862 -7.47092,4.13633 -0.51671,0.0328 -1.28426,-0.0167 -1.78247,-0.1149 z"
   id="path3" /><path
   style="fill:#76950a;fill-opacity:0.755187;stroke:#ffffff;stroke-width:0.125;stroke-opacity:0"
   d="m 100.67057,164.71592 c -1.717072,-0.30818 -3.674707,-1.41677 -5.724855,-3.24191 l -1.044864,-0.93019 0.656203,-0.91461 c 0.360911,-0.50303 1.368488,-2.32039 2.239059,-4.03856 l 1.582856,-3.12395 h 0.655822 c 0.863108,0 2.429029,-0.40775 3.229869,-0.84102 0.35223,-0.19057 0.96024,-0.64179 1.35114,-1.00273 0.3909,-0.36094 0.74363,-0.65625 0.78386,-0.65625 0.0402,0 0.47296,0.25863 0.96161,0.57474 1.99616,1.29131 4.29256,2.16717 5.69753,2.17309 l 0.51569,0.002 -0.414,1.34375 c -0.22771,0.73906 -0.64611,2.13125 -0.9298,3.09375 -1.13995,3.86765 -2.43623,5.7225 -4.75289,6.80094 -1.50101,0.69874 -3.44172,1.00587 -4.80723,0.76078 z"
   id="path5" /><path
   style="fill:#76950a;fill-opacity:0.755187;stroke:#ffffff;stroke-width:0.125;stroke-opacity:0"
   d="m 134.56963,145.08448 c -0.91265,-0.12659 -3.09629,-0.58339 -3.17764,-0.66473 -0.0272,-0.0272 0.0173,-0.54811 0.099,-1.15753 0.11438,-0.85328 0.1148,-1.79774 0.002,-4.10802 -0.0807,-1.65 -0.16719,-3.20992 -0.19227,-3.46649 -0.0437,-0.44689 -0.0125,-0.4901 0.74271,-1.029 1.60739,-1.147 2.69235,-2.73579 2.96828,-4.34665 l 0.13989,-0.81668 2.38332,-0.0643 c 2.53072,-0.0682 3.32281,-0.20785 4.46611,-0.7872 0.71008,-0.35983 0.85455,-0.37393 0.85518,-0.0835 2.6e-4,0.12031 0.20068,1.0625 0.44537,2.09375 1.46136,6.15898 1.5153,7.68737 0.35455,10.04545 -0.53844,1.09384 -1.84393,2.52988 -2.97403,3.27142 -1.50533,0.98776 -3.88849,1.42187 -6.11234,1.11341 z"
   id="path7" /><path
   style="fill:#76950a;fill-opacity:0.755187;stroke:#ffffff;stroke-width:0.125;stroke-opacity:0"
   d="m 155.55721,110.93543 c -0.12747,-0.67952 -1.15439,-2.60141 -2.58813,-4.84373 -0.72532,-1.13437 -1.4477,-2.27633 -1.6053,-2.53769 l -0.28653,-0.47519 0.32291,-0.71953 c 0.75393,-1.68 0.90348,-3.817179 0.36496,-5.215602 l -0.24473,-0.635513 1.47901,-0.796398 c 2.41196,-1.298755 3.63805,-2.351358 4.39319,-3.771581 0.26668,-0.501565 0.32285,-0.547964 0.41687,-0.344337 0.0598,0.129437 0.87107,1.067389 1.80292,2.08434 2.98134,3.253619 3.8476,4.464253 4.40968,6.162696 0.58577,1.770045 0.54423,3.428325 -0.1329,5.305485 -0.99907,2.76965 -2.96045,4.35718 -6.97288,5.6438 -0.61774,0.19809 -1.15806,0.40833 -1.20069,0.4672 -0.0426,0.0589 -0.11391,-0.0869 -0.15838,-0.32395 z"
   id="path9" /><path
   style="fill:#76950a;fill-opacity:0.755187;stroke:#ffffff;stroke-width:0.125;stroke-opacity:0"
   d="m 159.60561,69.885726 c -0.92118,-0.74249 -2.07447,-1.453771 -4.125,-2.54407 -3.07081,-1.632794 -3.375,-1.834595 -3.375,-2.239013 0,-0.60114 -0.46768,-2.204047 -0.8833,-3.027382 -0.24201,-0.479413 -0.72737,-1.119482 -1.22727,-1.618436 l -0.82693,-0.82538 0.78203,-1.176124 c 1.44569,-2.174241 2.06125,-3.636981 2.23204,-5.303961 0.0456,-0.445314 0.11737,-0.808938 0.15944,-0.808052 0.0421,8.86e-4 1.33595,0.422925 2.8753,0.937865 2.8653,0.9585 4.68027,1.733113 5.69238,2.429467 1.89425,1.303274 3.07991,3.323694 3.45471,5.886954 0.27111,1.854117 -0.21048,3.710053 -1.43906,5.545856 -0.61352,0.916745 -2.44632,3.092604 -2.66658,3.165705 -0.0496,0.01648 -0.34339,-0.174066 -0.65276,-0.423429 z"
   id="path11" /><path
   style="fill:#76950a;fill-opacity:0.755187;stroke:#ffffff;stroke-width:0.125;stroke-opacity:0"
   d="m 142.66811,32.445385 c -0.35916,-0.06718 -2.24976,-0.08536 -4.44477,-0.04275 l -3.81978,0.07416 -0.58029,-0.747255 c -1.05696,-1.361064 -2.62884,-2.376205 -4.11623,-2.658317 l -0.78893,-0.149638 v -2.383694 c 0,-1.96035 -0.0408,-2.515945 -0.22978,-3.128355 -0.22749,-0.73728 -0.65753,-1.638401 -1.02122,-2.139942 -0.18642,-0.257079 -0.15755,-0.265895 2.96887,-0.906497 3.82968,-0.784699 5.24353,-0.94706 6.68608,-0.767803 2.04516,0.254142 3.27639,0.862739 4.79297,2.369159 1.77555,1.763662 2.46348,3.563067 2.31862,6.064744 -0.10468,1.807654 -0.7066,4.575227 -0.98911,4.547798 -0.0833,-0.0081 -0.43268,-0.06731 -0.77643,-0.13161 z"
   id="path13" /><path
   style="fill:#76950a;fill-opacity:0.755187;stroke:#ffffff;stroke-width:0.125;stroke-opacity:0"
   d="m 102.08526,12.964079 c -0.25181,-0.13319 -0.89764,-0.362821 -1.43518,-0.510292 -1.211746,-0.332438 -2.863151,-0.28546 -3.88872,0.110625 l -0.656743,0.25364 -0.456282,-0.831928 C 94.00192,8.9842563 92.864404,7.5891854 91.530597,6.9360532 L 91.018089,6.6850913 91.968097,5.8606681 C 92.4906,5.4072355 93.519143,4.492316 94.253747,3.827514 c 2.381036,-2.1547905 3.635466,-3.00034484 5.237722,-3.53051094 1.243941,-0.41160464 2.254491,-0.50798464 3.440801,-0.32816114 2.85187,0.43229674 4.90898,1.88619758 6.11113,4.31917568 0.46502,0.9411156 1.60869,4.2988558 1.50094,4.406614 -0.0349,0.034925 -0.47182,0.2410523 -0.97088,0.4580614 -0.49906,0.2170093 -1.56786,0.7983113 -2.37511,1.291782 -0.80726,0.493471 -2.11472,1.292775 -2.90547,1.776231 -0.79075,0.483455 -1.50794,0.902977 -1.59375,0.932272 -0.0858,0.0293 -0.36205,-0.05571 -0.61387,-0.188899 z"
   id="path15" /><path
   style="fill:#76950a;fill-opacity:0.755187;stroke:#ffffff;stroke-width:0.25;stroke-opacity:0"
   d="m 8.3555968,111.22991 c -1.7875,-0.57035 -3.85286,-1.36557 -4.5897,-1.76715 -2.65741,-1.44829 -4.10483998,-4.03008 -4.13244998,-7.37105 -0.0133,-1.60636 0.0966,-2.107835 0.76684,-3.50001 0.43029,-0.89375 1.30338998,-2.274872 1.94020998,-3.069159 l 1.15787,-1.44416 0.97217,0.81916 c 0.53469,0.450537 2.35882,1.550409 4.05362,2.444159 2.9967602,1.580344 3.0873102,1.652481 3.2949302,2.624995 0.39665,1.857955 0.92042,3.045415 1.79282,4.064615 0.47778,0.55818 0.86869,1.06987 0.86869,1.13709 0,0.0672 -0.42905,0.83682 -0.95346,1.71024 -1.17329,1.9542 -1.5286,2.82033 -1.74969,4.26524 l -0.17185,1.12303 z"
   id="path17" /><path
   style="fill:#76950a;fill-opacity:0.755187;stroke:#ffffff;stroke-width:0.25;stroke-opacity:0"
   d="m 4.1367168,70.335838 c -1.32929,-1.384937 -2.80314,-3.103309 -3.27521998,-3.818603 -1.55065,-2.349546 -1.70109,-4.708004 -0.47367,-7.425537 C 1.4367568,56.769346 2.7721168,55.6659 6.1644068,54.318336 c 1.06619,-0.423534 2.02178,-0.900917 2.12353,-1.06085 0.11948,-0.187792 0.18636,-0.13143 0.18883,0.159127 0.006,0.6641 0.59708,1.729324 2.7075202,4.87659 1.85483,2.76607 1.88835,2.843579 1.56761,3.625001 -0.97137,2.366603 -1.12739,3.755261 -0.62646,5.575859 0.12053,0.438063 -0.0919,0.6611 -1.25425,1.317112 -1.6110202,0.909201 -3.2811002,2.345605 -3.8939702,3.349127 l -0.42359,0.693603 z"
   id="path18" /><path
   style="fill:#76950a;fill-opacity:0.755187;stroke:#ffffff;stroke-width:0.25;stroke-opacity:0"
   d="m 20.233627,32.90346 c -1.39648,-5.904399 -1.10675,-8.265832 1.32143,-10.77031 2.17833,-2.246766 5.04268,-2.978574 8.99862,-2.299037 l 1.80192,0.309528 0.0609,4.613067 0.0609,4.613067 -1.60284,1.548461 c -1.22498,1.183411 -1.67337,1.81368 -1.90198,2.673461 -0.16453,0.61875 -0.33319,1.250462 -0.37481,1.403805 -0.0467,0.172084 -1.0645,0.324118 -2.65895,0.397181 -1.96272,0.08994 -2.84979,0.24817 -3.69273,0.658694 -0.6102,0.297176 -1.11645,0.539988 -1.125,0.539583 -0.008,-4.05e-4 -0.40793,-1.65978 -0.88752,-3.6875 z"
   id="path19" /><path
   style="fill:#76950a;fill-opacity:0.755187;stroke:#ffffff;stroke-width:0.353553;stroke-opacity:0"
   d="m 57.167307,13.419308 c -1.23883,-0.665272 -2.75659,-1.203244 -3.39468,-1.203244 h -1.15408 l 0.96821,-3.3413125 c 1.31803,-4.5485629 2.29089,-6.4376301 3.83105,-7.4390391 2.68464,-1.74554888 5.46135,-1.91892108 8.21707,-0.51305734 1.82989,0.93353914 4.56303,3.36557044 4.20037,3.73761714 -0.16509,0.1693712 -1.09706,1.9153593 -2.07102,3.879974 l -1.77085,3.5720268 -1.85219,0.219363 c -1.31391,0.155614 -2.23911,0.530308 -3.18361,1.289333 -0.73229,0.588483 -1.38054,1.054582 -1.44055,1.035776 -0.06,-0.01881 -1.11739,-0.575654 -2.34972,-1.237437 z"
   id="path21" /><path
   style="fill:#89ad0c;fill-opacity:0.755187;stroke:#ffffff;stroke-width:0.353553;stroke-opacity:0"
   d="m 82.324917,17.6774 c -0.811401,-1.001369 -2.083541,-2.111657 -2.826979,-2.467306 -1.8606,-0.890082 -4.281781,-0.84193 -5.907891,0.117496 l -1.30951,0.772634 -2.3032,-1.765303 c -1.26676,-0.970917 -2.52294,-1.765303 -2.79153,-1.765303 -1.02484,0 -0.8466,-0.792587 1.01011,-4.4918066 2.07075,-4.1256544 2.5748,-4.7414249 4.56021,-5.5709816 3.270781,-1.3666195 6.703533,-0.2818248 9.413792,2.974882 l 1.68085,2.0197457 1.213596,-0.6691762 c 0.916369,-0.5052855 1.74439,-0.638876 3.380862,-0.5454587 2.695441,0.1538682 4.194266,1.1923695 6.201609,4.2969494 l 1.398297,2.162622 -0.779134,0.518132 c -0.428524,0.284973 -2.101101,1.650704 -3.716837,3.034957 -2.426523,2.078881 -3.110516,2.491462 -3.930844,2.371064 -0.546228,-0.08017 -1.628763,0.07323 -2.405634,0.340881 l -1.412493,0.486644 z"
   id="path23" /><path
   style="fill:#556b07;fill-opacity:0.755187;stroke:#ffffff;stroke-width:0.353553;stroke-opacity:0"
   d="M 81.858543,17.18394 C 79.111426,14.239155 76.801677,13.701961 73.540687,15.2494 l -1.19033,0.56485 -2.84493,-1.88163 c -3.27375,-2.165248 -3.21832,-1.737504 -0.8293,-6.3988202 1.75685,-3.4278562 2.95544,-4.6530396 5.12306,-5.2367182 2.851081,-0.7677166 5.637607,0.3667296 8.335276,3.3934456 l 1.770364,1.9863048 1.080621,-0.558811 c 1.345198,-0.6956287 4.713469,-0.7293669 5.994653,-0.060045 1.172248,0.6124111 2.489872,2.0122015 3.814706,4.052589 l 1.003923,1.546152 -0.921525,0.751946 c -0.506839,0.41357 -2.064961,1.6951 -3.462494,2.847845 -2.101106,1.733082 -2.857448,2.14328 -4.369189,2.369604 -1.005522,0.150538 -2.14642,0.356637 -2.535328,0.457998 -0.528775,0.137814 -1.197521,-0.341409 -2.651651,-1.90017 z"
   id="path25" /><path
   style="fill:#556b07;fill-opacity:0.755187;stroke:#ffffff;stroke-width:0.353553;stroke-opacity:0"
   d="m 117.56744,29.497404 c -0.68059,-0.364776 -1.59541,-0.663478 -2.03293,-0.66378 -0.60842,-4.2e-4 -0.7955,-0.204323 -0.7955,-0.867031 0,-1.847614 -0.81149,-4.506626 -1.69626,-5.558111 -1.1803,-1.402708 -3.3635,-2.396541 -5.28642,-2.406478 -0.82643,-0.0043 -1.5026,-0.160895 -1.5026,-0.348055 0,-0.861036 -1.56023,-4.375182 -2.36956,-5.337011 -0.49522,-0.588543 -0.84084,-1.119633 -0.76803,-1.1802 0.55708,-0.463411 4.50127,-2.830081 5.88539,-3.5314664 3.15458,-1.598548 5.63684,-1.5309967 8.21483,0.2235557 1.85303,1.2611427 2.5749,2.5394067 3.1974,5.6617987 l 0.58068,2.912623 1.75871,0.218835 c 2.17127,0.27017 2.90371,0.651176 4.29246,2.232864 1.29035,1.469628 1.83098,3.196811 1.83326,5.856806 l 0.002,1.944544 -4.5075,0.799045 c -5.19421,0.920779 -5.16644,0.920607 -6.8056,0.04206 z"
   id="path29" /><path
   style="fill:#556b07;fill-opacity:0.755187;stroke:#ffffff;stroke-width:0.353553;stroke-opacity:0"
   d="m 147.97303,59.062043 c -0.48613,-0.277335 -2.35972,-1.001955 -4.16351,-1.610265 -3.01355,-1.016285 -3.33524,-1.215012 -3.96497,-2.449394 -0.37694,-0.738856 -1.1173,-1.658035 -1.64525,-2.042622 l -0.95992,-0.699248 0.81974,-1.902612 c 1.21055,-2.809653 1.15187,-5.195224 -0.17394,-7.072066 -0.577,-0.816798 -1.61832,-1.77907 -2.31406,-2.13838 l -1.26498,-0.653292 0.4901,-2.38322 c 0.3587,-1.744259 0.39462,-2.75937 0.13399,-3.786203 -0.19587,-0.771642 -0.2717,-1.48741 -0.16851,-1.590595 0.10319,-0.103186 2.20312,-0.18787 4.66653,-0.188186 4.12656,-5.3e-4 4.60408,0.06932 6.06991,0.887939 0.94758,0.529194 2.05567,1.581948 2.74004,2.603219 0.98931,1.476336 1.14788,2.016332 1.14065,3.884457 -0.006,1.453742 -0.28301,2.837515 -0.8406,4.193299 l -0.83221,2.023547 1.1607,0.684826 c 1.74617,1.030265 3.15313,3.671446 3.1215,5.859744 -0.0261,1.808464 -1.11065,4.482696 -2.47548,6.104143 -0.59928,0.711956 -0.73208,0.735666 -1.53973,0.274909 z"
   id="path31" /><path
   style="fill:#556b07;fill-opacity:0.755187;stroke:#ffffff;stroke-width:0.353553;stroke-opacity:0"
   d="m 150.76016,95.243121 c -0.44887,-0.630383 -1.81645,-2.256811 -3.03907,-3.614284 -2.09423,-2.325237 -2.22437,-2.571832 -2.24778,-4.259286 -0.0137,-0.985135 -0.14877,-2.108617 -0.30023,-2.496627 -0.22221,-0.569288 0.026,-0.940273 1.28587,-1.921823 3.12804,-2.437031 4.14174,-5.966398 2.58862,-9.012739 l -0.69322,-1.359721 1.54585,-1.985404 c 0.85022,-1.091972 1.73861,-2.642943 1.97422,-3.446602 l 0.42837,-1.461197 3.40359,1.924256 c 4.105,2.32081 5.49802,3.600711 6.21767,5.712773 1.18459,3.476559 0.50412,5.812503 -2.56697,8.812109 l -2.26578,2.213033 0.56739,1.418043 c 1.50515,3.76174 -0.0542,7.163576 -4.43688,9.679128 l -1.64551,0.944493 z"
   id="path33" /><path
   style="fill:#556b07;fill-opacity:0.755187;stroke:#ffffff;stroke-width:0.353553;stroke-opacity:0"
   d="m 135.09373,127.91641 c -0.12655,-0.7292 -0.55541,-2.77066 -0.95304,-4.53657 l -0.72296,-3.21075 0.91369,-1.34639 c 0.50253,-0.74052 0.91369,-1.79429 0.91369,-2.3417 0,-0.87692 0.15769,-1.02039 1.32582,-1.20625 3.12344,-0.49697 4.49393,-1.04466 5.74525,-2.29597 1.36871,-1.36871 2.35852,-3.99897 1.96795,-5.22953 -0.19337,-0.60926 0.0504,-0.79387 1.75652,-1.33052 2.1384,-0.67261 4.75873,-2.3647 4.76417,-3.07649 0.004,-0.54008 2.57911,3.44704 3.94018,6.10101 2.47489,4.82581 0.15266,10.13947 -4.92234,11.26315 -0.92007,0.20371 -2.18992,0.47017 -2.8219,0.59212 -1.03227,0.19919 -1.14905,0.34606 -1.14905,1.44516 0,0.67288 -0.30271,1.81371 -0.6727,2.53517 -1.42166,2.77219 -3.64824,3.96339 -7.40832,3.96339 h -2.44689 z"
   id="path35" /><path
   style="fill:#556b07;fill-opacity:0.755187;stroke:#ffffff;stroke-width:0.353553;stroke-opacity:0"
   d="m 109.43571,152.34456 c -0.29168,-0.097 -1.5313,-0.66845 -2.75471,-1.26987 -1.71729,-0.84421 -2.16628,-1.22078 -1.96954,-1.65186 0.14016,-0.30711 0.83406,-2.30847 1.542,-4.44747 1.1191,-3.38131 1.42241,-3.95254 2.32309,-4.37509 0.56977,-0.2673 1.52272,-0.94532 2.11767,-1.50671 l 1.08174,-1.02072 2.06721,0.71122 c 3.66794,1.26196 6.17445,0.80328 8.19671,-1.49995 0.60646,-0.69071 1.16666,-1.44787 1.24489,-1.68258 0.10971,-0.32913 0.71956,-0.33717 2.666,-0.0352 1.38806,0.21536 2.73456,0.32572 2.99223,0.24523 0.25766,-0.0805 0.906,-0.2422 1.44075,-0.35937 l 0.97227,-0.21305 v 4.57992 c 0,5.0706 -0.22957,6.01961 -1.87784,7.76271 -2.38895,2.52639 -5.1461,3.05765 -9.26544,1.78531 l -2.37893,-0.73478 -1.08045,1.31077 c -1.70905,2.07338 -5.0286,3.16277 -7.31765,2.40146 z"
   id="path37" /><path
   style="fill:#556b07;fill-opacity:0.755187;stroke:#ffffff;stroke-width:0.353553;stroke-opacity:0"
   d="m 48.281537,155.71894 c -2.75625,-1.10001 -4.31214,-3.33698 -4.97717,-7.15586 l -0.40929,-2.35028 h -1.21522 c -0.66838,0 -1.80552,-0.30271 -2.52697,-0.6727 -2.72911,-1.39957 -3.96339,-3.65888 -3.96339,-7.25487 v -2.29344 l 1.32582,-0.22649 c 0.72921,-0.12456 2.87045,-0.53119 4.75833,-0.90361 3.4149,-0.67365 3.43846,-0.67349 4.59619,0.0324 0.64003,0.39022 1.57372,0.71009 2.07486,0.71082 0.84419,0.001 0.943,0.17416 1.34448,2.35305 0.52233,2.83479 1.08094,3.98678 2.5207,5.19825 1.26425,1.0638 3.6121,1.78774 4.81708,1.48531 0.46002,-0.11546 0.8364,-0.0538 0.8364,0.1371 0,0.94818 1.6085,4.45931 2.51678,5.49379 l 1.03008,1.17319 -2.36791,1.49546 c -3.71561,2.34662 -5.72844,3.16675 -7.71969,3.1454 -0.97227,-0.0104 -2.16076,-0.1758 -2.64108,-0.36749 z"
   id="path39" /><path
   style="fill:#556b07;fill-opacity:0.755187;stroke:#ffffff;stroke-width:0.353553;stroke-opacity:0"
   d="m 85.747631,162.37463 c -0.742158,-0.2297 -2.123195,-1.2914 -3.450471,-2.65261 l -2.213034,-2.26963 -1.418043,0.56739 c -3.811671,1.52513 -7.635716,-0.31909 -9.911506,-4.78 -0.40367,-0.79126 -0.68307,-1.46944 -0.62089,-1.50708 0.79423,-0.48073 3.29804,-2.48411 4.97747,-3.98263 1.95476,-1.7442 2.254506,-1.89082 3.865487,-1.89082 0.960523,0 2.040676,-0.15749 2.400341,-0.34998 0.545089,-0.29172 0.902131,-0.0535 2.145045,1.43099 0.820109,0.97953 2.100031,2.09161 2.84427,2.4713 1.776242,0.90617 4.36317,0.89796 6.074543,-0.0193 l 1.323984,-0.70962 2.029538,1.59328 c 1.116246,0.8763 2.138505,1.59337 2.271686,1.59349 0.133183,1.3e-4 0.657791,0.15825 1.165798,0.3514 l 0.923648,0.35117 -1.839487,3.5811 c -1.011717,1.96961 -2.343212,4.08483 -2.958876,4.70049 -1.799778,1.79978 -4.782543,2.396 -7.609503,1.52104 z"
   id="path41" /><path
   style="fill:#556b07;fill-opacity:0.755187;stroke:#ffffff;stroke-width:0.353553;stroke-opacity:0"
   d="m 18.749257,131.56817 c -1.41552,-0.63368 -3.19598,-2.55191 -3.87117,-4.17073 -0.77659,-1.86194 -0.68191,-3.7657 0.32504,-6.53601 0.55286,-1.52102 0.73488,-2.45 0.49607,-2.53184 -0.20747,-0.0711 -0.90832,-0.59559 -1.55744,-1.16553 -1.52775,-1.34138 -2.43386,-3.69632 -2.20466,-5.72981 0.17612,-1.56251 2.30456,-6.23363 2.84041,-6.23363 0.15818,0 0.8779,0.29705 1.59935,0.66011 0.72146,0.36307 2.55488,1.02565 4.07428,1.4724 2.51351,0.73905 2.82323,0.93123 3.43583,2.13204 0.37032,0.72587 1.12264,1.6919 1.67183,2.14673 l 0.99853,0.82695 -0.80205,1.94934 c -0.91317,2.21942 -1.0377,4.45344 -0.34117,6.12048 0.53994,1.29224 2.80157,3.43027 3.6286,3.43027 0.44058,0 0.48945,0.22204 0.25286,1.14904 -0.16129,0.63198 -0.29326,2.46164 -0.29326,4.0659 v 2.91685 l -4.59619,-0.0139 c -3.05688,-0.009 -4.95142,-0.1729 -5.65686,-0.48869 z"
   id="path43" /><path
   style="fill:#556b07;fill-opacity:0.755187;stroke:#ffffff;stroke-width:0.353553;stroke-opacity:0"
   d="m 8.5777068,97.251111 c -5.67154,-3.263669 -6.956,-4.862166 -6.9647,-8.667511 -0.005,-2.392515 1.3199,-4.92001 3.63686,-6.935519 l 1.55419,-1.351982 -0.51667,-1.236564 c -0.32746,-0.783715 -0.46337,-1.973515 -0.37111,-3.248899 0.18997,-2.626374 1.38019,-4.423768 4.1952902,-6.335465 l 2.15913,-1.466238 0.57283,0.82978 c 0.31505,0.456379 1.74268,2.062935 3.17251,3.570125 2.56912,2.70813 2.59704,2.758006 2.37536,4.242641 -0.12656,0.847545 -0.0502,1.958937 0.1751,2.550037 0.37688,0.9886 0.31822,1.115193 -1.03917,2.242721 -3.05881,2.540811 -4.13781,6.28834 -2.68941,9.340633 l 0.6091,1.283571 -1.41339,1.788068 c -1.25419,1.58667 -1.88381,2.887866 -2.24401,4.637513 -0.0862,0.418884 -0.81241,0.137877 -3.2119102,-1.242911 z"
   id="path45" /><path
   style="fill:#556b07;fill-opacity:0.755187;stroke:#ffffff;stroke-width:0.353553;stroke-opacity:0"
   d="m 12.915627,61.088423 c 0,-0.189649 -0.82249,-1.598247 -1.82775,-3.130218 -2.3435002,-3.571367 -3.2486002,-5.888796 -2.9407702,-7.529632 0.73315,-3.908028 3.5081802,-6.195817 8.4063402,-6.930341 1.66056,-0.249016 1.66548,-0.253873 1.66548,-1.641383 0,-1.735589 0.67103,-3.06248 2.24972,-4.448583 1.47644,-1.296338 2.86051,-1.759705 5.80323,-1.942845 2.0182,-0.125602 2.23186,-0.07193 2.35765,0.592243 0.0761,0.401699 0.49426,2.443169 0.92928,4.536599 l 0.79096,3.806236 -0.93889,1.855693 c -0.5164,1.020631 -0.9389,2.111132 -0.9389,2.423337 0,0.414113 -0.59644,0.684988 -2.20519,1.00149 -1.21286,0.238615 -2.60497,0.641945 -3.09359,0.89629 -1.96679,1.023785 -3.54005,3.651082 -3.54005,5.911764 0,1.095579 -0.12372,1.210178 -2.15817,1.999052 -1.18699,0.460266 -2.69843,1.311207 -3.35876,1.89098 -0.66032,0.579774 -1.20059,0.898966 -1.20059,0.709318 z"
   id="path47" /><path
   style="fill:#667f0b;fill-opacity:0.755187;stroke:#ffffff;stroke-width:0.353553;stroke-opacity:0"
   d="m 32.548537,24.896498 c -0.2345,-4.240091 -0.19924,-4.654693 0.5226,-6.145824 1.73562,-3.585306 6.14011,-4.979681 10.77936,-3.412533 l 2.12026,0.716228 1.00753,-1.222306 c 2.44255,-2.963245 6.01172,-3.38261 10.29325,-1.20942 1.78877,0.907932 2.28584,1.320968 2.10284,1.747356 -0.58215,1.356455 -1.56705,4.256339 -2.07613,6.11287 -0.50458,1.840113 -0.68622,2.078581 -2.05041,2.692014 -0.82324,0.370179 -1.86462,1.073383 -2.31419,1.562674 l -0.81739,0.889619 -1.74966,-0.664818 c -2.08441,-0.792014 -5.27875,-0.865215 -6.6569,-0.152548 -0.96945,0.501323 -3.00812,2.582927 -3.26441,3.333158 -0.0915,0.26796 -0.81941,0.263773 -2.49368,-0.01435 -1.62328,-0.269649 -2.80125,-0.281883 -3.75801,-0.03903 l -1.39359,0.353731 z"
   id="path49" /><path
   style="fill:#667f0b;fill-opacity:0.755187;stroke:#ffffff;stroke-width:0.25;stroke-opacity:0"
   d="m 62.526257,151.88154 c -0.73114,-0.26093 -1.702,-0.8356 -2.15746,-1.27706 -0.87371,-0.84682 -2.1162,-3.16836 -2.6494,-4.95028 l -0.31794,-1.0625 -1.39793,-0.002 c -2.49167,-0.004 -4.84096,-1.49191 -5.82196,-3.68644 -0.48102,-1.07605 -1.29898,-4.79643 -1.09859,-4.99682 0.0598,-0.0598 0.57974,-0.21453 1.15546,-0.34389 0.57571,-0.12935 2.3001,-0.73038 3.83196,-1.33562 3.50189,-1.38359 5.56933,-1.76935 7.53506,-1.40597 3.69513,0.68308 5.83498,2.50431 8.37515,7.1281 1.86246,3.3902 3.14937,4.98393 4.385268,5.43084 0.4756,0.17198 0.859935,0.37447 0.854078,0.44997 -0.0059,0.0755 -0.54023,0.56307 -1.1875,1.08349 -0.647266,0.52041 -1.964346,1.62787 -2.926846,2.46102 -2.59359,2.24503 -3.60824,2.76945 -5.58121,2.88461 -1.20601,0.0704 -2.03744,-0.0342 -2.99814,-0.377 z"
   id="path51" /><path
   style="fill:#667f0b;fill-opacity:0.755187;stroke:#ffffff;stroke-width:0.25;stroke-opacity:0"
   d="m 96.248866,151.82862 c -0.608706,-0.27615 -1.86499,-1.11473 -2.791742,-1.86351 l -1.685003,-1.36142 -1.150742,0.64316 c -1.550417,0.86655 -3.644664,1.04981 -5.386258,0.47135 -1.30784,-0.4344 -3.611392,-2.41256 -4.643242,-3.98736 -0.408904,-0.62407 -0.402234,-0.65997 0.21249,-1.14351 0.349056,-0.27456 1.279519,-1.37028 2.067697,-2.43492 3.083262,-4.16476 5.023846,-5.70066 7.972389,-6.30987 2.838046,-0.58637 5.374474,0.0909 9.050044,2.41638 3.257331,2.0609 4.719771,2.68328 6.336111,2.69652 l 1.375,0.0113 -1.28899,3.77943 c -1.57889,4.62948 -1.80909,5.08422 -3.08553,6.09519 -1.90596,1.50954 -4.898384,1.93268 -6.982224,0.9873 z"
   id="path52" /><path
   style="fill:#667f0b;fill-opacity:0.755187;stroke:#ffffff;stroke-width:0.25;stroke-opacity:0"
   d="m 113.732,138.69086 c -1.03048,-0.35092 -1.89823,-0.66267 -1.92833,-0.69277 -0.0301,-0.0301 0.0972,-0.55945 0.28283,-1.17633 0.18565,-0.61688 0.52089,-2.54341 0.74498,-4.28117 0.22408,-1.73776 0.57794,-3.64285 0.78635,-4.23353 0.93189,-2.64128 2.84224,-4.76769 5.31899,-5.92059 1.35891,-0.63255 1.64562,-0.6659 6.79379,-0.7901 5.20124,-0.12548 5.41202,-0.15057 6.52039,-0.77604 l 1.14539,-0.64636 0.8114,3.71401 c 0.44627,2.04271 0.8276,4.18983 0.8474,4.77137 0.056,1.64393 -0.54115,3.32397 -1.61501,4.54394 -1.95131,2.21681 -3.7873,2.83154 -7.05216,2.36124 -1.11783,-0.16103 -2.2162,-0.30516 -2.44084,-0.32031 -0.2271,-0.0153 -0.79045,0.52741 -1.26895,1.22248 -0.52406,0.76124 -1.38643,1.56769 -2.20552,2.0625 -1.18408,0.7153 -1.55567,0.81173 -3.10604,0.8061 -1.21828,-0.004 -2.33854,-0.20304 -3.63467,-0.64444 z"
   id="path53" /><path
   style="fill:#667f0b;fill-opacity:0.755187;stroke:#ffffff;stroke-width:0.25;stroke-opacity:0"
   d="m 135.3437,114.6542 c -0.14441,-0.67797 -0.6511,-2.14298 -2.18326,-6.3125 -0.64092,-1.74417 -0.78302,-2.50817 -0.79285,-4.26296 -0.0111,-1.98024 0.0575,-2.2785 0.92949,-4.0429 1.20772,-2.443662 2.55396,-3.657836 6.18721,-5.580242 3.17496,-1.679912 4.7831,-2.965885 5.52328,-4.416742 l 0.50605,-0.991949 0.67099,0.865093 c 0.36905,0.475802 1.55399,1.862164 2.63321,3.080804 2.32797,2.628707 2.92474,3.707838 3.09621,5.598769 0.34748,3.832177 -1.76507,6.502417 -6.24592,7.894757 l -1.4375,0.44668 -0.005,1.39184 c -0.009,2.39173 -1.43166,4.6986 -3.57886,5.80498 -0.78671,0.40536 -4.06956,1.21187 -4.93288,1.21187 -0.12279,0 -0.28914,-0.30938 -0.36968,-0.6875 z"
   id="path54" /><path
   style="fill:#667f0b;fill-opacity:0.755187;stroke:#ffffff;stroke-width:0.25;stroke-opacity:0"
   d="m 143.83207,83.052784 c -0.53705,-0.558142 -2.02139,-1.851992 -3.29852,-2.875223 -3.91481,-3.136526 -5.39445,-5.745345 -5.3659,-9.460862 0.0172,-2.244833 0.61172,-3.82036 2.59407,-6.875001 2.14802,-3.309924 2.71351,-4.603561 2.71644,-6.214247 0.002,-1.174488 0.0563,-1.317879 0.43995,-1.165555 0.24062,0.09553 1.80394,0.652532 3.47404,1.23778 4.81341,1.686751 6.06299,2.63269 7.10686,5.379933 1.0204,2.685457 0.45679,4.955349 -1.96675,7.92098 l -1.25352,1.53389 0.6449,1.303093 c 0.84458,1.706591 0.99284,3.563238 0.42247,5.290449 -0.3354,1.01567 -0.82129,1.711623 -2.01372,2.884318 -2.27173,2.234133 -2.33393,2.252625 -3.50032,1.040445 z"
   id="path55" /><path
   style="fill:#667f0b;fill-opacity:0.755187;stroke:#ffffff;stroke-width:0.25;stroke-opacity:0"
   d="m 136.27838,51.927767 c -0.45497,-0.192236 -2.25497,-0.566902 -4,-0.832592 -3.75698,-0.57202 -5.21786,-1.029825 -6.98158,-2.18785 -1.56186,-1.025492 -2.58252,-2.256806 -3.50769,-4.231654 -0.67271,-1.435944 -0.68357,-1.537899 -0.6875,-6.458974 -0.004,-5.305572 -0.10866,-5.84967 -1.39298,-7.258382 -0.46234,-0.507109 -0.45397,-0.510199 3.34174,-1.234434 4.60123,-0.877931 6.10104,-0.903777 7.87509,-0.135708 1.56564,0.677834 3.42402,2.616289 3.79757,3.961183 0.35,1.260139 0.30737,3.353084 -0.10776,5.289953 -0.19128,0.892437 -0.32795,1.631791 -0.30372,1.643009 3.41784,1.582406 5.02675,4.290953 4.42178,7.443924 -0.16256,0.847251 -0.5953,2.172838 -0.96164,2.94575 l -0.66608,1.405294 z"
   id="path56" /><path
   style="fill:#667f0b;fill-opacity:0.755187;stroke:#ffffff;stroke-width:0.25;stroke-opacity:0"
   d="m 102.54369,31.81879 c -3.859306,-0.506972 -6.16137,-2.48747 -8.904701,-7.660834 -1.453603,-2.741201 -2.609408,-4.153572 -3.964992,-4.845138 -0.551585,-0.281398 -0.905123,-0.598788 -0.785638,-0.705311 1.648573,-1.469738 6.536286,-5.357593 7.154048,-5.690576 0.577849,-0.31147 1.392017,-0.440049 2.813197,-0.44428 3.581346,-0.01066 5.261546,1.303394 6.757606,5.285012 l 0.83003,2.209033 1.72026,0.157716 c 3.92564,0.359909 5.94085,2.611046 6.46214,7.218699 0.13141,1.161506 0.0927,1.509234 -0.17574,1.577719 -0.4267,0.108873 -3.67842,1.216809 -6.34429,2.161655 -2.25982,0.80093 -3.65947,0.986219 -5.56192,0.736305 z"
   id="path57" /><path
   style="fill:#667f0b;fill-opacity:0.755187;stroke:#ffffff;stroke-width:0.25;stroke-opacity:0"
   d="m 68.605607,28.601994 c -0.825,-0.271881 -2.56875,-1.122132 -3.875,-1.889447 -3.54092,-2.079998 -5.28809,-2.86931 -6.72909,-3.039975 -0.87688,-0.103854 -1.25842,-0.252845 -1.1788,-0.460325 0.0647,-0.168724 0.36086,-1.136746 0.65803,-2.151161 0.68819,-2.349202 1.64067,-5.03307 2.1045,-5.930019 0.76972,-1.488483 3.35527,-2.760142 5.64906,-2.778398 1.6099,-0.01281 2.45745,0.3834 5.1414,2.403502 l 1.83573,1.381678 1.44708,-0.710577 c 1.16128,-0.570235 1.76803,-0.706881 3.072086,-0.691865 2.026614,0.02334 3.169589,0.584731 4.88416,2.398949 2.426203,2.567207 2.334733,2.332538 1.325755,3.401213 -0.483512,0.51212 -1.700355,2.038202 -2.704096,3.391294 -2.752355,3.710311 -4.605664,4.846148 -8.255815,5.059743 -1.42356,0.0833 -2.23616,-0.0093 -3.375,-0.384612 z"
   id="path58" /><path
   style="fill:#667f0b;fill-opacity:0.755187;stroke:#ffffff;stroke-width:0.25;stroke-opacity:0"
   d="m 30.376347,44.279197 c -0.41622,-1.468619 -1.65714,-7.998719 -1.6509,-8.6875 0.0149,-1.642285 0.52012,-2.795553 1.84009,-4.20035 0.70953,-0.75514 1.77042,-1.587732 2.35752,-1.850205 1.2189,-0.544933 3.83134,-0.632977 6.05586,-0.204094 0.97706,0.188376 1.39919,0.18714 1.463,-0.0043 0.22265,-0.667976 1.77736,-2.422149 2.7561,-3.109708 1.01025,-0.709703 1.21795,-0.756054 3.36713,-0.751426 1.7711,0.0038 2.66757,0.139892 3.95359,0.600131 l 1.66313,0.595199 -0.36583,1.024869 c -0.20121,0.563678 -0.52177,2.340638 -0.71235,3.9488 -0.55634,4.69458 -1.23178,6.500944 -3.147,8.416161 -2.39204,2.392041 -4.50723,3.02571 -10.11821,3.031214 -3.89762,0.0038 -5.96799,0.357676 -6.60853,1.129484 -0.37842,0.455963 -0.73457,0.481711 -0.8536,0.06171 z"
   id="path59" /><path
   style="fill:#667f0b;fill-opacity:0.755187;stroke:#ffffff;stroke-width:0.25;stroke-opacity:0"
   d="m 18.145237,74.742111 c -0.23354,-0.356437 -1.50544,-1.79164 -2.82643,-3.189339 -2.92469,-3.094526 -3.44733,-4.124873 -3.27983,-6.465896 0.23505,-3.285188 1.91311,-5.20662 5.82868,-6.674042 l 1.85752,-0.696136 0.003,-1.142965 c 0.006,-2.469081 1.49177,-4.948951 3.56588,-5.951153 0.94595,-0.457076 4.19083,-1.280883 5.04526,-1.280883 0.187,0 0.38023,0.399308 0.45368,0.9375 0.0704,0.515626 0.65924,2.117063 1.30862,3.55875 1.53917,3.417159 1.98881,5.521048 1.61752,7.568551 -0.64465,3.555037 -2.76597,6.027547 -7.45421,8.688275 -2.95491,1.677009 -4.50859,2.983302 -5.23701,4.403153 l -0.45776,0.892253 z"
   id="path60" /><path
   style="fill:#667f0b;fill-opacity:0.755187;stroke:#ffffff;stroke-width:0.25;stroke-opacity:0"
   d="m 21.230597,107.56225 c -5.31879,-1.81239 -5.86458,-2.05768 -7.05406,-3.1703 -1.61324,-1.509 -2.28474,-3.29322 -2.1359,-5.67525 0.12511,-2.002445 0.49922,-2.850825 2.23864,-5.07674 l 1.23214,-1.57674 -0.56911,-1.17326 c -0.82474,-1.700254 -0.89841,-3.797374 -0.19876,-5.657959 0.42867,-1.13999 0.95917,-1.880046 2.28491,-3.187501 0.94964,-0.93654 1.80549,-1.702032 1.90188,-1.701093 0.0964,9.4e-4 0.44154,0.392718 0.76699,0.870619 0.32544,0.477901 1.68581,1.707547 3.02302,2.732548 4.71566,3.614641 6.06262,5.72532 6.0754,9.520126 0.009,2.523758 -0.5071,3.919663 -2.72087,7.36644 -2.15389,3.35354 -2.68696,4.57913 -2.69494,6.19606 -0.004,0.72187 -0.0105,1.30004 -0.0154,1.28482 -0.005,-0.0152 -0.96518,-0.35352 -2.13393,-0.75177 z"
   id="path61" /><path
   style="fill:#667f0b;fill-opacity:0.755187;stroke:#ffffff;stroke-width:0.25;stroke-opacity:0"
   d="m 33.905287,135.48522 c -1.59438,-0.42869 -3.11184,-1.54477 -4.13843,-3.04379 l -0.83875,-1.22473 0.13643,-2.875 c 0.075,-1.58125 0.21122,-3.17791 0.30264,-3.54812 0.14637,-0.59275 0.0652,-0.71532 -0.6797,-1.02656 -1.18516,-0.49519 -3.13919,-2.7466 -3.48131,-4.01112 -0.39306,-1.45276 -0.14911,-3.49116 0.65811,-5.49906 0.64467,-1.60359 0.72791,-1.70031 1.33936,-1.55629 0.35858,0.0845 1.66446,0.32166 2.90196,0.52711 6.31665,1.04869 7.81702,1.59553 9.78941,3.56791 0.64333,0.64333 1.51628,1.90127 1.93988,2.79541 0.76405,1.61275 0.77123,1.66658 0.90011,6.75072 0.1356,5.3493 0.16881,5.51803 1.4147,7.1875 l 0.60635,0.8125 -0.57522,9.6e-4 c -0.31638,5.3e-4 -2.26273,0.33576 -4.32523,0.74496 -4.22272,0.83779 -4.29514,0.84263 -5.95031,0.3976 z"
   id="path62" /><path
   style="fill:#667f0b;fill-opacity:0.377593;stroke:#ffffff;stroke-width:0.25;stroke-opacity:0"
   d="m 74.335043,145.22192 c -1.488786,-0.74189 -2.522776,-2.03987 -4.385566,-5.50522 -1.55999,-2.90205 -3.67372,-5.21071 -5.59387,-6.10977 -0.6875,-0.3219 -2.07629,-0.70596 -3.0862,-0.85345 -2.14831,-0.31377 -3.78564,0.0404 -8.3352,1.80318 -3.66718,1.42086 -5.40594,1.3842 -7.76295,-0.16365 -0.59806,-0.39274 -1.17168,-1.09868 -1.59377,-1.9614 -0.63331,-1.29444 -0.66159,-1.53326 -0.71417,-6.03136 -0.0487,-4.16779 -0.1161,-4.84191 -0.61189,-6.12158 -1.47422,-3.80507 -4.63719,-6.02089 -9.54787,-6.68876 -2.93113,-0.39864 -5.37187,-0.93246 -6.17018,-1.3495 -1.70789,-0.89221 -3.03978,-3.19906 -3.04484,-5.27371 -0.004,-1.51116 0.60004,-2.88425 2.76082,-6.27903 2.53911,-3.989165 3.17846,-6.52041 2.39222,-9.47097 -0.73701,-2.765813 -1.71904,-4.049646 -5.16662,-6.754431 -2.93084,-2.29938 -4.12748,-3.529782 -4.65063,-4.781858 -0.41141,-0.984652 -0.44456,-3.090507 -0.0699,-4.43997 0.40166,-1.44665 2.40602,-3.2595 5.83086,-5.273743 4.6981,-2.76309 6.43553,-4.807192 7.20531,-8.47715 0.39142,-1.86612 0.0236,-3.937518 -1.18322,-6.662825 -2.40547,-5.432311 -2.46305,-7.195701 -0.31483,-9.642418 1.43606,-1.635595 2.3412,-1.868465 8.02893,-2.06563 4.69387,-0.162714 5.12704,-0.218072 6.4091,-0.819067 4.1739,-1.956598 5.62425,-4.231958 6.36317,-9.982791 0.68966,-5.367459 1.22105,-6.511155 3.63595,-7.82551 2.58114,-1.404833 4.69594,-0.912839 9.99725,2.325791 2.85837,1.746207 4.96235,2.370175 7.49729,2.22343 3.436261,-0.198922 5.420011,-1.48702 8.307281,-5.394124 3.146673,-4.25813 4.279338,-4.999007 7.23661,-4.733478 2.448223,0.219822 3.745623,1.45399 6.133511,5.834576 2.288357,4.197995 4.049797,5.842892 7.360171,6.873196 2.62393,0.816659 4.08934,0.594263 9.93389,-1.507613 2.93957,-1.057159 4.59554,-1.267741 5.95611,-0.757417 1.19294,0.447446 2.55402,1.512229 3.14237,2.458285 0.52353,0.841834 0.57029,1.265405 0.6931,6.277744 0.12594,5.139886 0.1605,5.437061 0.79011,6.793788 0.77446,1.668887 2.38613,3.499325 3.82201,4.340802 1.57167,0.92106 2.9719,1.338531 6.25742,1.865608 1.65981,0.266275 3.6323,0.682225 4.3833,0.924335 1.79078,0.577313 3.27291,2.041435 3.86203,3.815135 0.74333,2.23793 0.27687,3.827628 -2.30103,7.841996 -0.6334,0.986335 -1.49845,2.524587 -1.92234,3.418337 -0.68454,1.443333 -0.7704,1.876538 -0.76802,3.875001 0.002,1.931285 0.10093,2.460982 0.69621,3.739452 1.00939,2.167835 1.60556,2.84632 5.19847,5.916243 3.93975,3.36628 4.33968,3.99811 4.34582,6.86568 0.004,1.813753 -0.0681,2.125838 -0.70049,3.038423 -0.81593,1.177398 -2.79303,2.624655 -5.31351,3.88956 -1.87191,0.939423 -3.76759,2.28229 -4.77846,3.384988 -1.1091,1.209852 -2.09174,3.605035 -2.24912,5.482205 -0.17987,2.14557 0.13144,3.5456 1.6251,7.30845 1.01311,2.55224 1.14289,3.10184 1.15602,4.89565 0.014,1.91328 -0.033,2.09263 -0.88433,3.375 -0.64328,0.96896 -1.24381,1.52621 -2.11046,1.95833 -1.13985,0.56835 -1.49248,0.60697 -5.97588,0.65447 -2.6205,0.0278 -5.10204,0.13769 -5.51454,0.24428 -1.17377,0.30329 -3.16466,1.36419 -4.125,2.19811 -2.23049,1.93686 -3.0192,3.80002 -3.75092,8.86078 -0.60732,4.20033 -0.9869,5.26833 -2.2913,6.44677 -1.33753,1.20838 -2.38518,1.61712 -4.13725,1.61416 -1.70456,-0.003 -3.02518,-0.55821 -6.645011,-2.79431 -3.82691,-2.36402 -6.472045,-2.93389 -9.669078,-2.08312 -2.259203,0.60121 -3.854443,1.91191 -6.549163,5.38104 -1.952185,2.5132 -2.679447,3.25823 -3.720448,3.81134 -1.727955,0.9181 -3.627925,0.94201 -5.382397,0.0677 z m 12.683445,-16.38657 c 1.209683,-0.336 2.466558,-1.76636 3.689611,-4.19889 1.080422,-2.14886 1.90999,-3.25258 3.060287,-4.07167 l 0.748368,-0.53288 1.25703,0.68416 c 1.686015,0.91764 3.30945,0.95132 4.622866,0.0959 l 0.95896,-0.62457 1.75,0.69224 c 2.89405,1.1448 4.87879,0.92748 6.42159,-0.70313 1.06172,-1.12215 1.21348,-1.86263 1.16247,-5.67206 -0.0414,-3.09375 0.0171,-3.6822 0.46651,-4.68861 l 0.51388,-1.15084 1.68532,-0.13528 c 1.86994,-0.1501 2.65572,-0.58314 3.5584,-1.96102 0.89624,-1.36805 0.94662,-1.39882 2.59587,-1.58541 3.15217,-0.35663 4.70721,-1.5075 5.25032,-3.88571 0.2836,-1.241895 -0.12949,-2.572218 -1.47192,-4.740193 -1.39782,-2.257417 -2.29353,-4.36957 -2.30151,-5.427135 -0.005,-0.667315 0.17401,-0.901913 1.18205,-1.548768 1.56231,-1.00253 2.16672,-2.049035 2.16809,-3.753905 0.001,-1.334045 0.006,-1.343272 1.43065,-2.439145 2.54386,-1.95746 3.24009,-3.400755 2.7088,-5.615423 -0.36203,-1.509107 -1.58024,-2.688192 -4.33916,-4.199807 -2.06816,-1.133148 -4.03622,-2.759135 -4.28382,-3.539241 -0.0832,-0.262165 0.14056,-1.028097 0.51788,-1.77272 0.83171,-1.641295 0.7617,-3.2812 -0.19291,-4.519075 l -0.62722,-0.81332 0.7594,-1.75608 c 1.37239,-3.17364 0.96629,-5.358393 -1.28244,-6.899248 -0.80367,-0.550682 -1.19177,-0.609685 -4.89755,-0.744575 -4.87189,-0.177337 -5.8989,-0.488345 -5.9011,-1.787 -0.004,-2.077715 -1.08164,-3.926718 -2.61238,-4.480238 -0.78213,-0.282825 -0.85002,-0.398052 -1.00116,-1.69921 -0.47318,-4.073847 -1.86663,-5.830567 -4.60802,-5.809332 -1.441634,0.01117 -2.079931,0.248403 -4.098679,1.523359 -2.061535,1.301976 -3.52385,1.93289 -4.971632,2.145004 -1.154196,0.169101 -1.175746,0.159313 -1.789266,-0.812565 -1.20176,-1.903709 -2.956347,-2.862706 -4.519725,-2.470324 -0.5188,0.130211 -0.789117,-0.07872 -1.887075,-1.458542 -2.110782,-2.652658 -3.934835,-3.3877 -6.066658,-2.444694 -1.330657,0.588613 -2.086975,1.521317 -3.289198,4.056284 -1.01886,2.148337 -2.12935,3.594713 -3.17516,4.13552 -0.67807,0.350645 -0.81021,0.332083 -2.02769,-0.28486 -1.6918,-0.857299 -3.23588,-0.894604 -4.62865,-0.111825 l -1.03671,0.582673 -1.7826,-0.660748 c -3.05263,-1.131503 -5.46062,-0.725382 -6.79545,1.14609 -0.54,0.75709 -0.59397,1.13539 -0.72317,5.06816 -0.1812,5.516231 -0.37782,6.000463 -2.51507,6.194263 -0.80713,0.07319 -1.83338,0.346753 -2.28056,0.60792 -0.72178,0.421543 -1.75443,1.641838 -1.99168,2.353598 -0.0471,0.141245 -0.94104,0.405357 -1.98656,0.586917 -3.19762,0.555278 -4.58308,1.543376 -5.16341,3.682493 -0.35558,1.31067 -0.0186,2.478473 1.27749,4.42767 1.69269,2.54558 2.21877,3.724961 2.34362,5.254043 l 0.11375,1.393098 -1.15347,0.75 c -1.47349,0.95808 -2.18322,2.095527 -2.26597,3.631535 -0.0616,1.1432 -0.1643,1.30352 -1.94615,3.03768 -2.06446,2.009208 -2.5953,3.162765 -2.2892,4.974583 0.28852,1.707705 1.30106,2.748217 4.11294,4.22653 2.48136,1.30455 4.75888,3.164413 4.75888,3.88618 0,0.18812 -0.28125,0.870995 -0.625,1.517498 -0.85186,1.602132 -0.84396,3.208562 0.0221,4.484705 l 0.64705,0.95349 -0.77205,1.97239 c -0.88857,2.27007 -0.96835,3.57571 -0.29865,4.88787 1.06416,2.08504 2.22307,2.52201 6.7766,2.55516 2.54462,0.0185 3.6518,0.1305 4.50001,0.4551 1.10961,0.42465 1.12702,0.44925 1.27328,1.79891 0.23039,2.12599 0.93544,3.21939 2.62837,4.0761 0.6948,0.35161 0.79449,0.54581 0.9459,1.84265 0.38605,3.30673 1.32157,4.81721 3.34985,5.40863 1.66362,0.48509 2.96964,0.14577 5.62125,-1.46046 2.22702,-1.34903 4.17781,-2.12355 5.34859,-2.12355 0.393141,0 0.766738,0.29815 1.174708,0.9375 1.152155,1.80558 2.8896,2.77869 4.416148,2.47338 0.641165,-0.12824 0.840975,0.0177 1.974793,1.44262 2.061887,2.59121 3.547922,3.26706 5.804992,2.64015 z"
   id="path63" /><path
   style="fill:#667f0b;fill-opacity:0.701245;stroke:#ffffff;stroke-width:0.25;stroke-opacity:0"
   d="m 83.471126,128.2792 c -0.45838,-0.30938 -1.40314,-1.25628 -2.09947,-2.10423 -1.258028,-1.53195 -1.274583,-1.54185 -2.611546,-1.5625 -1.679277,-0.0259 -2.748625,-0.64882 -3.700495,-2.15551 -0.585437,-0.92668 -0.834167,-1.11444 -1.476778,-1.11482 -1.34816,-7.8e-4 -3.05263,0.66409 -5.50277,2.14648 -2.90088,1.75509 -4.28131,1.99456 -6.0927,1.05692 -1.40535,-0.72746 -2.14357,-2.10514 -2.52571,-4.71351 l -0.27612,-1.88466 -1.14785,-0.61534 c -1.35912,-0.72859 -2.04157,-1.88539 -2.11559,-3.58605 -0.0301,-0.69155 -0.21184,-1.32145 -0.44115,-1.52897 -0.77632,-0.70257 -3.19607,-1.11179 -6.3369,-1.07168 -2.65838,0.0339 -3.16353,-0.0274 -4.03845,-0.49034 -2.3626,-1.25012 -2.8645,-3.69607 -1.43524,-6.99455 0.45028,-1.03918 0.68083,-1.86921 0.54288,-1.95446 -0.47373,-0.29279 -1.23264,-2.111453 -1.23264,-2.953935 0,-0.472765 0.32589,-1.479085 0.72419,-2.236268 0.71031,-1.35032 0.71577,-1.390525 0.2852,-2.098542 -0.64753,-1.06478 -1.70075,-1.86562 -4.30391,-3.27258 -3.35728,-1.814553 -4.20548,-2.838533 -4.20548,-5.077056 0,-1.696005 0.72795,-2.94685 2.72668,-4.685292 1.45828,-1.268371 1.52336,-1.374918 1.52426,-2.495276 10e-4,-1.47164 0.6383,-2.551347 2.12312,-3.597942 1.08356,-0.763765 1.12574,-0.841235 1.12045,-2.058015 -0.006,-1.487255 -0.45929,-2.562775 -2.19888,-5.222536 -1.98985,-3.042392 -2.04445,-4.73612 -0.21159,-6.563622 0.87274,-0.870177 1.33176,-1.103795 2.84032,-1.445566 0.98964,-0.224209 2.02283,-0.407652 2.29597,-0.407652 0.30519,0 0.77003,-0.40709 1.2059,-1.056076 0.99263,-1.477993 2.0205,-2.095029 3.8312,-2.299887 l 1.53373,-0.173522 0.5325,-1.172758 c 0.46965,-1.034348 0.52607,-1.567321 0.47804,-4.515943 -0.0636,-3.904082 0.14416,-4.890309 1.25597,-5.962758 1.58347,-1.527401 3.02682,-1.67265 6.06734,-0.610578 l 2,0.698613 1,-0.574433 c 1.33972,-0.769581 2.83371,-0.755275 4.42173,0.04234 0.68439,0.34375 1.40637,0.625 1.60439,0.625 0.81524,0 2.59265,-2.078154 3.81846,-4.46456 1.864308,-3.629415 2.631206,-4.28544 5.009721,-4.28544 1.503512,0 2.43224,0.599728 4.129643,2.666724 1.264065,1.539302 1.268212,1.541758 2.641052,1.563434 1.727758,0.02728 2.783148,0.640451 3.6919,2.14495 0.579793,0.959888 0.797625,1.124892 1.485043,1.124892 1.260825,0 2.99961,-0.689288 5.510368,-2.184419 2.697607,-1.606399 3.946895,-1.868682 5.704186,-1.197568 1.80361,0.688805 2.34115,1.751566 2.97506,5.881987 0.11211,0.730517 0.32682,0.978203 1.30028,1.5 1.44079,0.772294 2.08317,1.895156 2.08317,3.641355 0,1.069618 0.0903,1.320241 0.5625,1.561242 1.34589,0.68691 2.22344,0.836189 4.8125,0.818643 1.5125,-0.01025 3.34175,0.101487 4.065,0.248306 3.33185,0.676359 4.43084,3.53212 2.8161,7.317753 l -0.73038,1.7123 0.67464,1.019442 c 0.90737,1.371123 0.90756,2.862898 5.9e-4,4.588128 l -0.67404,1.282167 0.60051,0.81395 c 0.74016,1.003238 2.47036,2.288761 4.95222,3.679473 2.43641,1.365238 3.23215,2.384558 3.37212,4.319535 0.13763,1.902815 -0.48722,3.035728 -2.61465,4.740538 -1.58398,1.269325 -1.58712,1.274413 -1.58805,2.577003 -0.001,1.647847 -0.63091,2.726132 -2.11966,3.629465 -0.9849,0.597612 -1.11451,0.780417 -1.1215,1.58177 -0.0115,1.31544 0.57815,2.787933 2.17082,5.421243 1.72122,2.84585 1.95696,4.236621 1.02512,6.047701 -0.75111,1.4598 -2.04597,2.16918 -4.62529,2.53394 l -1.98299,0.28044 -0.61028,1.13818 c -0.742,1.38383 -1.81033,1.98455 -3.92193,2.20525 -1.51165,0.158 -1.54353,0.17718 -1.97589,1.18888 -0.35124,0.82187 -0.44479,1.8062 -0.46603,4.9033 -0.0288,4.20469 -0.21688,4.94884 -1.50706,5.96369 -1.58169,1.24416 -3.35857,1.28693 -6.20045,0.14925 l -1.6304,-0.65269 -0.75073,0.55503 c -1.191989,0.88127 -2.915654,0.92918 -4.502351,0.12514 -0.72111,-0.36541 -1.507803,-0.60196 -1.748208,-0.52566 -0.879975,0.2793 -2.527605,2.23357 -3.55884,4.22118 -1.323293,2.55053 -1.885098,3.3187 -2.87422,3.93002 -1.12966,0.69816 -3.264928,0.65973 -4.358655,-0.0785 z m -7.980781,-13.31754 c 0.404203,-0.20902 1.318678,-0.8985 2.032165,-1.53218 3.132886,-2.78245 5.783301,-2.78245 8.916186,0 2.25306,2.00103 3.645567,2.38066 5.21727,1.42234 0.941698,-0.57419 1.31251,-1.245 2.049708,-3.70796 0.41219,-1.37712 0.784087,-2.06132 1.520937,-2.79817 1.592528,-1.59253 2.974775,-1.78702 7.130879,-1.00334 1.59501,0.30075 1.83831,0.28932 2.71702,-0.12765 1.82574,-0.86637 2.26358,-2.44374 1.5261,-5.49799 -0.50528,-2.09259 -0.45677,-3.053188 0.2285,-4.524885 0.71023,-1.525278 1.61573,-2.218525 3.91298,-2.99574 2.4302,-0.822193 3.19097,-1.26442 3.74864,-2.179023 0.97769,-1.60347 0.57308,-3.000015 -1.54764,-5.341785 -1.52038,-1.678865 -1.96248,-2.655113 -1.96248,-4.333578 0,-1.709833 0.42772,-2.620205 2.12262,-4.51784 1.56216,-1.749008 1.87787,-2.348125 1.87644,-3.560935 -0.002,-1.791495 -1.08231,-2.689213 -4.87406,-4.050626 -1.60755,-0.577182 -3.21695,-2.160065 -3.64337,-3.583325 -0.26863,-0.896587 -0.26637,-1.396315 0.013,-2.873795 0.78927,-4.174497 0.52198,-5.374103 -1.40071,-6.286482 -0.87316,-0.414338 -1.13209,-0.427563 -2.71702,-0.138767 -3.548309,0.64655 -4.246411,0.634279 -5.749389,-0.101058 -1.559945,-0.763211 -2.372432,-1.893367 -3.108205,-4.323453 -0.59745,-1.973246 -0.92023,-2.510616 -1.847747,-3.076164 -1.567721,-0.955906 -2.962083,-0.574873 -5.213453,1.424664 -3.012378,2.675416 -5.842838,2.763833 -8.617346,0.269184 -2.38029,-2.140196 -3.77338,-2.616921 -5.316033,-1.819183 -0.95411,0.493387 -1.34931,1.171779 -2.03838,3.498989 -0.45761,1.545512 -0.81255,2.219222 -1.59971,3.036384 -1.56628,1.625972 -3.09855,1.909427 -6.50906,1.204118 -2.24079,-0.463406 -3.32098,-0.327407 -4.36289,0.549305 -1.17058,0.98498 -1.33638,2.032346 -0.74325,4.695156 0.9965,4.473705 0.0653,6.110825 -4.53835,7.978378 -2.87188,1.165037 -3.73308,1.996422 -3.73308,3.603855 0,1.118947 0.29932,1.647117 1.94672,3.435177 1.6107,1.748223 2.05528,2.685215 2.04779,4.315888 -0.007,1.526878 -0.6024,2.81541 -2.16967,4.69553 -1.57043,1.883923 -1.82484,2.371303 -1.82484,3.49598 0,1.962043 0.9074,2.875906 3.83974,3.867098 2.43507,0.82311 3.28248,1.38488 4.09085,2.711968 0.78884,1.295005 0.92412,2.645572 0.4638,4.630445 -0.59749,2.57633 -0.52638,3.97428 0.24904,4.89581 0.98515,1.17079 2.13184,1.40845 4.46629,0.92568 1.06907,-0.22109 2.40986,-0.39951 2.97953,-0.39649 2.36615,0.0125 4.26085,1.6495 5.19241,4.48606 0.76352,2.32492 1.13521,2.96506 2.04298,3.51857 0.96038,0.58558 2.183561,0.62776 3.185108,0.10984 z"
   id="path64" /><path
   style="fill:#91b510;fill-opacity:0.431535;stroke:#ffffff;stroke-width:0.25;stroke-opacity:0"
   d="m 72.834397,114.98634 c -1.11178,-0.48407 -1.73158,-1.40096 -2.49344,-3.68863 -0.83937,-2.52038 -1.95894,-3.75267 -3.92998,-4.32567 -1.20478,-0.35024 -1.5385,-0.35124 -3.32234,-0.01 -3.05843,0.58524 -3.93463,0.51652 -4.96659,-0.38955 -1.12632,-0.98892 -1.31003,-1.97459 -0.79395,-4.25987 0.22138,-0.9803 0.40003,-2.30293 0.39701,-2.939198 -0.0115,-2.424985 -1.5828,-4.35443 -4.20698,-5.165882 -2.9022,-0.897425 -4.12221,-1.855495 -4.4262,-3.475898 -0.20393,-1.087085 0.29665,-2.193503 1.81656,-4.015053 2.94302,-3.527092 3.01018,-5.685647 0.27376,-8.79814 -1.93581,-2.20184 -2.34535,-3.111385 -1.96803,-4.370772 0.35354,-1.180005 1.47,-2.054359 3.4975,-2.739054 4.31533,-1.457311 5.76824,-4.028125 4.64389,-8.217035 -0.63618,-2.370151 -0.52015,-3.163679 0.6309,-4.31473 l 1.00591,-1.005907 2.05659,0.203447 c 1.13113,0.111896 2.96514,0.212164 4.07559,0.222818 1.80199,0.01729 2.13062,-0.05455 3.05756,-0.668407 1.15699,-0.766204 1.82346,-1.897845 2.58539,-4.389887 0.58148,-1.901887 1.17185,-2.662452 2.37482,-3.059467 1.174538,-0.387633 2.176063,-0.0012 3.978581,1.535283 2.078485,1.771672 3.203837,2.305863 4.859655,2.306813 1.649105,9.46e-4 2.610918,-0.446549 4.552738,-2.118215 0.785257,-0.676008 1.837537,-1.400329 2.3384,-1.609602 1.90822,-0.797306 3.524,0.252483 4.374868,2.842399 0.997705,3.036859 1.65724,3.994351 3.348675,4.861486 0.879817,0.451049 1.240592,0.486018 3.249995,0.315016 1.243181,-0.105795 2.972801,-0.204436 3.843611,-0.219201 1.49787,-0.0254 1.624,0.01875 2.33817,0.818333 0.83144,0.930879 0.8084,0.463473 0.30597,6.206389 -0.13518,1.545166 -0.0798,1.962404 0.38946,2.931665 0.75226,1.553959 1.58105,2.174633 4.32192,3.236631 2.43943,0.945202 3.21022,1.521653 3.67508,2.748485 0.46082,1.216144 0.0701,2.208362 -1.71897,4.364857 -2.988,3.601735 -3.01227,5.458393 -0.11688,8.941018 1.85545,2.231765 2.26282,3.215722 1.84967,4.467595 -0.40338,1.222255 -1.43212,1.985358 -3.69028,2.737395 -4.28931,1.42847 -5.44303,3.61532 -4.43513,8.406708 0.46259,2.19905 0.21158,3.4095 -0.9012,4.34583 -0.90057,0.75778 -1.84592,0.81189 -4.86174,0.27827 -4.060684,-0.71848 -6.095621,0.57092 -7.446226,4.71816 -1.345733,4.13227 -3.428796,4.64355 -6.865393,1.68507 -1.967205,-1.69352 -2.913085,-2.13764 -4.552738,-2.13764 -1.639652,0 -2.585533,0.44412 -4.552738,2.13764 -1.35674,1.16798 -2.801515,1.97334 -3.501728,1.95196 -0.1763,-0.005 -0.66758,-0.16089 -1.09174,-0.34557 z"
   id="path65" /><path
   style="fill:#7b9a0e;fill-opacity:0.431535;stroke:#ffffff;stroke-width:0.25;stroke-opacity:0"
   d="m 75.011303,145.59118 c -1.760336,-0.41562 -3.173816,-2.03815 -5.155696,-5.91823 -1.42809,-2.79587 -3.54715,-5.16203 -5.375,-6.00174 -1.29529,-0.59506 -3.38137,-1.07951 -4.64843,-1.07951 -1.16208,0 -4.10157,0.74903 -4.10157,1.04514 0,0.1289 -0.0959,0.17512 -0.21303,0.10271 -0.11716,-0.0724 -0.6401,0.0861 -1.16209,0.35221 -4.05755,2.06865 -7.35832,1.99511 -9.77618,-0.21782 -1.57891,-1.44508 -1.68844,-1.90681 -1.72748,-7.28224 -0.0318,-4.38187 -0.0911,-5.01776 -0.58644,-6.28621 -0.68074,-1.74339 -1.67104,-3.13547 -2.94026,-4.13317 -1.1356,-0.89267 -2.59286,-1.67759 -2.59835,-1.39954 -0.002,0.10665 -0.0925,0.0543 -0.2009,-0.11638 -0.24633,-0.38787 -2.70627,-0.94641 -5.73729,-1.30267 -2.76966,-0.32554 -4.63218,-1.08606 -5.73455,-2.34159 -0.97548,-1.11101 -1.87661,-3.82605 -1.65507,-4.98665 0.21225,-1.11197 1.191,-3.01554 2.48392,-4.83097 2.80136,-3.933503 3.60982,-7.077163 2.64063,-10.268003 -0.72332,-2.38138 -1.81626,-3.905478 -4.02595,-5.61418 -4.11534,-3.182298 -4.56335,-3.585615 -5.2159,-4.695633 -0.60436,-1.028028 -0.67481,-1.391095 -0.66423,-3.42302 0.0112,-2.148245 0.0551,-2.331878 0.80043,-3.345338 0.96237,-1.308622 2.76675,-2.692492 4.95498,-3.800215 2.33842,-1.183755 4.81265,-3.130858 5.78061,-4.549073 1.22805,-1.799297 1.9296,-4.334485 1.74537,-6.307313 -0.12901,-1.381537 -1.21096,-4.73911 -1.64345,-5.100047 -0.0824,-0.06875 -0.1738,-0.253335 -0.20317,-0.410188 -0.0294,-0.156852 -0.35226,-0.938572 -0.71754,-1.737152 -0.88225,-1.928806 -0.78178,-4.333588 0.24283,-5.812101 0.84046,-1.212795 2.4031,-2.784222 2.4031,-2.41662 0,0.07901 0.25313,0.002 0.5625,-0.171045 0.37616,-0.210445 2.26596,-0.358979 5.70465,-0.448372 l 5.14215,-0.133677 1.68758,-0.856572 c 4.07458,-2.068146 5.58568,-4.670801 6.03201,-10.389274 0.21278,-2.726218 0.51585,-3.968179 1.25344,-5.1366 1.20739,-1.91263 2.9381,-2.750044 5.81434,-2.813305 1.04323,-0.02294 4.37937,1.410444 5.31798,2.284893 0.89511,0.833922 4.36003,2.478544 5.89178,2.796535 4.32327,0.897507 8.101203,-0.7548 10.756366,-4.704368 2.375615,-3.533743 3.851353,-4.833397 6.069668,-5.345446 0.965635,-0.222895 1.399315,-0.222891 1.82914,2e-5 0.30987,0.160702 0.827262,0.329112 1.14976,0.374243 1.408968,0.197176 3.398203,2.638516 5.230308,6.419027 1.209672,2.496138 2.677475,3.995497 5.10617,5.215946 3.554251,1.786058 5.289021,1.693044 11.070451,-0.593575 1.59153,-0.629466 3.00349,-1.076618 3.1377,-0.993673 0.13421,0.08295 0.24402,0.05396 0.24402,-0.06442 0,-0.334137 3.03496,0.0607 3.875,0.504126 1.68375,0.888792 3.37119,3.179439 3.01875,4.097873 -0.067,0.174741 -0.005,0.390273 0.13899,0.478961 0.17508,0.108207 0.20193,1.305937 0.0816,3.641026 -0.26622,5.167022 0.23833,7.133594 2.4659,9.611181 1.69079,1.880568 4.38248,3.137306 7.41973,3.464236 3.69504,0.397735 4.98739,0.70009 6.25,1.462235 1.85704,1.120962 3.0184,2.969172 3.19855,5.090227 0.12658,1.490425 -0.53394,3.176551 -2.20128,5.619198 -0.5485,0.803553 -0.99727,1.574778 -0.99727,1.713833 0,0.139055 -0.0959,0.252827 -0.21299,0.252827 -0.11715,0 -0.59045,0.815625 -1.05178,1.8125 -0.75188,1.624708 -0.83989,2.046938 -0.84951,4.075181 -0.01,2.117787 0.0488,2.38313 0.91877,4.14366 0.96103,1.944815 2.11053,3.187902 5.05696,5.46866 3.48115,2.694678 4.60544,4.768568 4.27218,7.88054 -0.17755,1.6579 -0.22511,1.750495 -1.59582,3.106951 -0.98383,0.973597 -2.08476,1.7208 -3.62578,2.46083 -4.75226,2.282115 -6.73789,4.341345 -7.57881,7.859701 -0.64952,2.71756 -0.27236,4.74347 1.80376,9.6889 0.49617,1.1819 0.69896,2.13145 0.74746,3.5 0.0807,2.27808 -0.21695,3.07816 -1.75851,4.72622 -1.508,1.61217 -2.31474,1.79012 -7.87593,1.7373 -4.2606,-0.0405 -4.41749,-0.0235 -6,0.64746 -3.03517,1.28694 -4.8773,3.15336 -5.73419,5.80977 -0.53083,1.64564 -0.94724,3.78167 -0.99076,5.08233 -0.0161,0.48125 -0.16158,1.49375 -0.32327,2.25 -0.16169,0.75625 -0.27324,1.45937 -0.24788,1.5625 0.0254,0.10312 -0.0664,0.1875 -0.2039,0.1875 -0.1375,0 -0.25,0.1741 -0.25,0.3869 0,0.2128 -0.53803,0.92493 -1.19561,1.58252 -0.96821,0.96821 -1.50536,1.27945 -2.82413,1.63643 -1.37139,0.37121 -1.80409,0.39354 -2.74049,0.14139 -1.37965,-0.3715 -2.6571,-1.0163 -4.48403,-2.26335 -2.418894,-1.65113 -5.069886,-2.77655 -6.883134,-2.9221 -4.262673,-0.34217 -7.242343,1.39889 -10.376665,6.06321 -2.312695,3.44162 -4.893446,4.65875 -8.215248,3.87448 z m 11.774038,-16.76049 c 1.429457,-0.397 2.253852,-1.26018 3.569397,-3.73737 1.202058,-2.26348 2.748396,-4.28202 3.649938,-4.76451 0.360015,-0.19267 0.79265,-0.10193 1.81109,0.37987 1.709303,0.80863 3.198175,0.82239 4.562424,0.0422 l 1.02258,-0.58482 1.72742,0.69975 c 2.40489,0.97419 4.17908,0.97824 5.51213,0.0126 1.86345,-1.34988 1.9631,-1.65956 1.9827,-6.16166 0.0157,-3.61331 0.0706,-4.10272 0.56758,-5.0625 0.53049,-1.02451 0.59279,-1.0625 1.74211,-1.0625 1.69638,0 3.24572,-0.84929 4.16826,-2.28488 0.70462,-1.09647 0.82079,-1.16868 2.125,-1.32089 2.98992,-0.34894 4.30345,-1.06348 5.12061,-2.7855 0.88173,-1.85813 0.59785,-3.076015 -1.51314,-6.491558 -1.25186,-2.02548 -1.85283,-3.572805 -1.85283,-4.770467 0,-0.698151 0.15871,-0.941711 0.9375,-1.438658 0.51562,-0.329023 1.20017,-0.882228 1.52123,-1.229345 0.66155,-0.715263 1.12093,-2.399248 0.89743,-3.289755 -0.12761,-0.508448 0.0912,-0.785615 1.48486,-1.88085 2.45454,-1.928945 3.20496,-3.480483 2.66079,-5.501348 -0.40053,-1.487485 -1.681,-2.75898 -4.05372,-4.02532 -2.35316,-1.255903 -5.29164,-3.864596 -4.73834,-4.206556 0.18312,-0.113177 0.34211,-0.3057 0.3533,-0.427825 0.0112,-0.122127 0.23932,-0.71705 0.50694,-1.32205 0.62232,-1.406857 0.47424,-2.967045 -0.38903,-4.098845 l -0.63081,-0.827037 0.71299,-1.67132 c 0.39214,-0.919228 0.78804,-2.071381 0.87977,-2.560343 0.35636,-1.899608 -1.2768,-4.284028 -3.32358,-4.852423 -0.51938,-0.144235 -2.41112,-0.262872 -4.20386,-0.263637 -2.88142,-0.0012 -3.38893,-0.06665 -4.375,-0.563895 -0.95213,-0.480128 -1.1041,-0.660158 -1.03778,-1.229378 0.20699,-1.77681 -1.03198,-3.933225 -2.58183,-4.49366 -0.76589,-0.276948 -0.86873,-0.427078 -0.99275,-1.449208 -0.539,-4.442445 -1.79271,-6.015255 -4.794831,-6.015255 -1.028665,0 -1.620243,0.231332 -3.83722,1.500518 -2.570405,1.471516 -4.525948,2.249482 -5.654431,2.249482 -0.390132,0 -0.806062,-0.346574 -1.330207,-1.108392 -1.140835,-1.658147 -2.085738,-2.231518 -3.721408,-2.258166 -1.360417,-0.02216 -1.388195,-0.03794 -2.5203,-1.4315 -2.015405,-2.480855 -3.526663,-3.238617 -5.43446,-2.7249 -1.573255,0.423633 -2.226718,1.104691 -3.575426,3.726416 -1.40697,2.734956 -2.46167,4.129517 -3.54803,4.691295 -0.69912,0.361527 -0.81933,0.346387 -2.02659,-0.255215 -1.71181,-0.85303 -3.52403,-0.871224 -4.73776,-0.04756 l -0.87232,0.591972 -1.47507,-0.63084 c -2.15239,-0.920509 -4.63475,-0.925839 -6.01571,-0.01291 -1.56934,1.037465 -1.79231,1.768453 -1.85675,6.08727 -0.0308,2.061148 -0.15639,4.114231 -0.27917,4.562406 -0.27693,1.010827 -0.96362,1.45464 -2.56513,1.657862 -1.54639,0.196228 -2.92615,1.08579 -3.47363,2.239513 -0.45406,0.956857 -0.50026,0.979115 -2.92847,1.41071 -3.30001,0.586552 -4.82706,2.157845 -4.66419,4.799343 0.0765,1.2401 0.26842,1.693865 1.49857,3.54236 1.7292,2.5984 2.18441,3.65244 2.18441,5.057955 0,0.994638 -0.0935,1.155945 -1.10577,1.90697 -1.36013,1.00913 -2.18123,2.39463 -2.27179,3.833323 -0.0625,0.99354 -0.23452,1.2512 -1.94479,2.913515 -2.22875,2.166255 -2.65635,3.203138 -2.1652,5.250475 0.39984,1.666708 1.32549,2.535688 4.45194,4.179386 2.45396,1.290145 4.28561,2.861035 4.28561,3.675495 0,0.174225 -0.28125,0.845732 -0.625,1.492235 -0.4119,0.77469 -0.625,1.577062 -0.625,2.353342 0,0.84414 0.17709,1.438833 0.625,2.098873 0.34375,0.50655 0.62459,1.00037 0.62409,1.09739 -5.1e-4,0.097 -0.33414,1.02015 -0.7414,2.0514 -0.40726,1.03125 -0.74435,2.26134 -0.74908,2.73356 -0.013,1.29941 0.9045,2.95182 2.06583,3.72042 0.98202,0.64993 1.1324,0.67182 4.78838,0.69689 3.2495,0.0223 3.93884,0.0986 4.95585,0.54844 1.06421,0.47075 1.18147,0.60451 1.18273,1.34912 0.004,2.06598 1.33517,4.21277 2.8489,4.59269 0.49492,0.12422 0.59774,0.38185 0.82334,2.06291 0.33357,2.48564 0.80829,3.56604 1.94928,4.43632 0.70073,0.53447 1.27447,0.73148 2.35867,0.8099 1.55988,0.11283 2.26159,-0.15249 4.94766,-1.87075 1.60553,-1.02705 3.71591,-1.82951 4.81137,-1.82951 0.597693,0 0.876051,0.19347 1.348823,0.9375 0.32764,0.51562 0.811293,1.13008 1.074785,1.36546 0.823295,0.73546 2.352855,1.24948 3.228978,1.08512 0.758125,-0.14223 0.88897,-0.0549 1.95945,1.30764 2.08357,2.65205 3.57678,3.38353 5.702088,2.79327 z"
   id="path66" /></svg>
