<?xml version="1.0" encoding="UTF-8" standalone="no"?>
<svg
   version="1.1"
   width="500"
   height="500"
   viewBox="0 0 500 500"
   xml:space="preserve"
   id="svg218"
   sodipodi:docname="fat_bush.svg"
   inkscape:version="1.3 (0e150ed6c4, 2023-07-21)"
   xmlns:inkscape="http://www.inkscape.org/namespaces/inkscape"
   xmlns:sodipodi="http://sodipodi.sourceforge.net/DTD/sodipodi-0.dtd"
   xmlns="http://www.w3.org/2000/svg"
   xmlns:svg="http://www.w3.org/2000/svg"><sodipodi:namedview
   id="namedview220"
   pagecolor="#505050"
   bordercolor="#eeeeee"
   borderopacity="1"
   inkscape:showpageshadow="0"
   inkscape:pageopacity="0"
   inkscape:pagecheckerboard="true"
   inkscape:deskcolor="#505050"
   showgrid="false"
   inkscape:zoom="0.49999998"
   inkscape:cx="-99.000004"
   inkscape:cy="303.00001"
   inkscape:window-width="1920"
   inkscape:window-height="1017"
   inkscape:window-x="-8"
   inkscape:window-y="-8"
   inkscape:window-maximized="1"
   inkscape:current-layer="svg218"
   showguides="true"
   inkscape:pageshadow="0" />&#10;<desc
   id="desc181">Created with Fabric.js 5.3.0</desc>&#10;<defs
   id="defs183" />&#10;&#10;<g
   id="g30426"
   style="opacity:0.925"
   transform="matrix(6.6519442,0,0,6.6519442,30493.24,13313.925)"
   inkscape:export-filename="bush_01.png"
   inkscape:export-xdpi="96"
   inkscape:export-ydpi="96"><g
     transform="matrix(0.1875,0,0,0.1875,-4546.5994,-1963.9993)"
     id="TUpbIBcTeAz7rDdmaMSty"
     style="opacity:1;fill:#3b5b1e;fill-opacity:1">&#10;<path
   style="opacity:1;fill:#3b5b1e;fill-opacity:1;fill-rule:nonzero;stroke:#000000;stroke-width:0;stroke-linecap:butt;stroke-linejoin:miter;stroke-miterlimit:4;stroke-dasharray:none;stroke-dashoffset:0"
   vector-effect="non-scaling-stroke"
   d="m 253.44549,0.72556 c 21.65097,5.70355 9.94439,33.72049 33.0529,46.90606 23.1085,13.18558 43.29423,-10.15937 59.38112,5.83624 16.08688,15.99561 -8.36734,34.85531 4.96642,58.14622 13.33376,23.29092 42.36688,12.9313 48.36862,35.01743 6.00174,22.08613 -24.36166,26.57686 -24.36166,53.32708 0,26.75022 30.3634,31.70793 24.36166,53.6738 -6.00174,21.96587 -35.03486,10.94359 -48.36862,34.18968 -13.33376,23.24609 11.12047,42.71364 -4.96642,58.79469 -16.08688,16.08105 -36.27261,-7.63342 -59.38112,5.52951 -23.1085,13.16293 -11.40193,41.38385 -33.0529,47.12222 -21.65097,5.73838 -26.82947,-24.16872 -53.55098,-24.16872 -26.7215,0 -31.52212,29.90709 -53.33504,24.16872 C 124.74655,393.53011 135.85931,365.3092 112.64284,352.14627 89.42637,338.98334 69.61852,362.69781 53.69358,346.61676 37.76864,330.53571 62.16889,311.06816 48.94309,287.82207 35.7173,264.57598 6.79214,276.12193 0.7904,253.63239 c -6.00174,-22.48955 24.14573,-29.01828 24.14573,-55.7685 0,-26.75022 -30.14747,-29.66993 -24.14573,-51.23238 6.00174,-21.56245 34.92689,-11.72652 48.15269,-35.01743 13.2258,-23.29091 -11.61016,-42.15061 4.75049,-58.14622 16.36065,-15.99562 37.47564,7.34933 60.69211,-5.83624 23.21647,-13.18557 10.79657,-41.20251 32.17377,-46.90606 21.3772,-5.70355 26.61353,24.09185 53.33504,24.09185 26.72151,0 31.90001,-29.7954 53.55098,-24.09185 z m -16.03366,60.2364 c -15.15568,-3.99249 -18.78063,16.86429 -37.48568,16.86429 -18.70505,0 -22.37049,-20.85678 -37.33453,-16.86429 -14.96404,3.99249 -6.27011,23.60434 -22.52164,32.83424 -16.25153,9.2299 -31.03202,-7.11156 -42.48448,4.08537 -11.45246,11.19693 5.93271,24.39872 -3.32534,40.70236 -9.25806,16.30364 -29.50567,9.41848 -33.70688,24.5122 -4.20122,15.09372 16.90201,17.13751 16.90201,35.86267 0,18.72515 -21.10323,23.29527 -16.90201,39.03795 4.20122,15.74268 24.44883,7.66051 33.70688,23.93278 9.25806,16.27227 -7.82211,29.89955 3.32534,41.15629 11.14746,11.25674 25.01295,-5.3434 41.26448,3.87066 16.25153,9.21405 8.4726,28.96869 23.74164,32.98555 15.26904,4.01686 18.62948,-16.91811 37.33453,-16.91811 18.70505,0 22.33,20.93497 37.48568,16.91811 15.15568,-4.01686 6.96108,-23.7715 23.13703,-32.98555 16.17595,-9.21405 30.30597,7.38608 41.56679,-3.87066 11.26082,-11.25674 -5.85714,-24.88402 3.47649,-41.15629 9.33363,-16.27227 29.65682,-8.55667 33.85804,-23.93278 4.20122,-15.37611 -17.05316,-18.84651 -17.05316,-37.57166 0,-18.72515 21.25438,-21.86867 17.05316,-37.32895 -4.20122,-15.46029 -24.5244,-8.20856 -33.85804,-24.5122 -9.33363,-16.30364 7.78433,-29.50543 -3.47649,-40.70236 -11.26082,-11.19693 -25.39083,5.14454 -41.56679,-4.08537 -16.17595,-9.2299 -7.98135,-28.84176 -23.13703,-32.83424 z"
   stroke-linecap="round"
   id="path17029"
   transform="translate(-200,-200)" />&#10;</g><path
     style="fill:#2e5617;fill-opacity:1;fill-rule:nonzero;stroke:#000000;stroke-width:0;stroke-linecap:butt;stroke-linejoin:miter;stroke-miterlimit:4;stroke-dasharray:none;stroke-dashoffset:0"
     vector-effect="non-scaling-stroke"
     d="m -4531.0573,-1997.3021 c -3.6215,-1.6702 -5.4516,3.3963 -10.139,2.5698 -4.6875,-0.8265 -4.6844,-6.2152 -8.6108,-5.8759 -3.9264,0.3393 -2.6143,5.6382 -7.0947,7.2331 -4.4805,1.5949 -7.4624,-3.1534 -10.8271,-0.8535 -3.3647,2.2999 0.4086,6.3764 -2.6319,10.053 -3.0404,3.6766 -7.8102,1.0565 -9.53,4.6533 -1.7197,3.5968 3.4784,5.0415 2.651,9.734 -0.8274,4.6925 -6.3178,4.9052 -5.9606,9.036 0.3572,4.1307 5.7883,3 7.3893,7.4869 1.6011,4.4869 -3.2814,7.1471 -0.9852,10.4606 2.2961,3.3135 6.5043,-0.2338 10.1698,2.7934 3.6654,3.0271 0.8431,7.6339 4.492,9.3152 3.6489,1.6813 5.4161,-3.4165 10.1036,-2.59 4.6874,0.8266 4.6708,6.233 8.6463,5.8961 3.9754,-0.337 2.7948,-5.6495 7.2556,-7.2438 4.4608,-1.5942 7.2683,3.1901 10.5876,0.8668 3.3194,-2.3234 -0.3682,-6.4947 2.6898,-10.1601 3.058,-3.6654 7.81,-0.8339 9.5423,-4.5014 1.7322,-3.6676 -3.4407,-5.4765 -2.6133,-10.169 0.8274,-4.6925 6.2926,-4.5411 5.9229,-8.601 -0.3696,-4.06 -5.783,-3.1407 -7.4016,-7.6388 -1.6186,-4.4981 3.2545,-7.0501 0.9273,-10.3536 -2.3272,-3.3035 -6.5902,0.1673 -10.236,-2.8605 -3.6459,-3.0278 -0.7257,-7.5804 -4.3473,-9.2506 z"
     stroke-linecap="round"
     id="path17032" /><g
     transform="matrix(0.15853542,0.05770217,-0.05776246,0.15870106,-4546.5912,-1963.9994)"
     id="DoV-uyDlkuLqFojr_yBQV"
     style="opacity:1;fill:#2e5617;fill-opacity:1">&#10;<path
   style="opacity:1;fill:#2e5617;fill-opacity:1;fill-rule:nonzero;stroke:#000000;stroke-width:0;stroke-linecap:butt;stroke-linejoin:miter;stroke-miterlimit:4;stroke-dasharray:none;stroke-dashoffset:0"
   vector-effect="non-scaling-stroke"
   transform="translate(9.1975e-6,1.45125e-5)"
   d="m 53.4582,-199.11381 c -21.65612,-5.69896 -26.83585,24.07243 -53.56371,24.07243 -26.72786,0 -31.96544,-29.77138 -53.34773,-24.07243 -21.38229,5.69896 -8.95943,33.6933 -32.18143,46.86825 -23.22199,13.17495 -44.34201,-10.15119 -60.70655,5.83153 -16.36454,15.98272 8.47732,34.82721 -4.75162,58.09935 -13.22894,23.27214 -42.16098,13.44413 -48.16415,34.9892 -6.00317,21.54507 24.15148,24.46243 24.15148,51.19108 0,26.72866 -30.15464,33.25213 -24.15148,55.72354 6.00317,22.47142 34.93521,10.93477 48.16415,34.16212 13.22894,23.22736 -11.17711,42.67921 4.75162,58.7473 15.92873,16.06809 35.74129,-7.62727 58.96328,5.52505 23.22199,13.15232 12.10659,41.35049 33.92469,47.08423 21.81811,5.73375 26.61987,-24.14924 53.34773,-24.14924 26.72786,0 31.9076,29.88299 53.56371,24.14924 21.65612,-5.73375 9.94676,-33.93191 33.06076,-47.08423 23.114,-13.15232 43.30454,10.54304 59.39525,-5.52505 16.09071,-16.06809 -8.36933,-35.51994 4.9676,-58.7473 13.33693,-23.22736 42.37696,-12.21396 48.38013,-34.16212 6.00317,-21.94816 -24.36746,-26.90188 -24.36746,-53.63053 0,-26.72866 30.37063,-31.21577 24.36746,-53.28409 -6.00317,-22.06832 -35.0432,-11.71706 -48.38013,-34.9892 -13.33693,-23.27214 11.12311,-42.11663 -4.9676,-58.09935 -16.09071,-15.98272 -36.28125,7.34341 -59.39525,-5.83153 -23.114,-13.17495 -11.40464,-41.1693 -33.06076,-46.86825 z"
   stroke-linecap="round"
   id="path17035" />&#10;</g><g
     transform="matrix(0.1593371,0,0,0.15950358,-4546.5994,-1963.9993)"
     id="McesWKx5qywez6Zdlah17"
     style="opacity:1;fill:#2e6d02;fill-opacity:1">&#10;<path
   style="opacity:1;fill:#2e6d02;fill-opacity:1;fill-rule:nonzero;stroke:#000000;stroke-width:0;stroke-linecap:butt;stroke-linejoin:miter;stroke-miterlimit:4;stroke-dasharray:none;stroke-dashoffset:0"
   vector-effect="non-scaling-stroke"
   transform="translate(9.1975e-6,1.45125e-5)"
   d="m 53.4582,-199.11381 c -21.65612,-5.69896 -26.83585,24.07243 -53.56371,24.07243 -26.72786,0 -31.96544,-29.77138 -53.34773,-24.07243 -21.38229,5.69896 -8.95943,33.6933 -32.18143,46.86825 -23.22199,13.17495 -44.34201,-10.15119 -60.70655,5.83153 -16.36454,15.98272 8.47732,34.82721 -4.75162,58.09935 -13.22894,23.27214 -42.16098,13.44413 -48.16415,34.9892 -6.00317,21.54507 24.15148,24.46243 24.15148,51.19108 0,26.72866 -30.15464,33.25213 -24.15148,55.72354 6.00317,22.47142 34.93521,10.93477 48.16415,34.16212 13.22894,23.22736 -11.17711,42.67921 4.75162,58.7473 15.92873,16.06809 35.74129,-7.62727 58.96328,5.52505 23.22199,13.15232 12.10659,41.35049 33.92469,47.08423 21.81811,5.73375 26.61987,-24.14924 53.34773,-24.14924 26.72786,0 31.9076,29.88299 53.56371,24.14924 21.65612,-5.73375 9.94676,-33.93191 33.06076,-47.08423 23.114,-13.15232 43.30454,10.54304 59.39525,-5.52505 16.09071,-16.06809 -8.36933,-35.51994 4.9676,-58.7473 13.33693,-23.22736 42.37696,-12.21396 48.38013,-34.16212 6.00317,-21.94816 -24.36746,-26.90188 -24.36746,-53.63053 0,-26.72866 30.37063,-31.21577 24.36746,-53.28409 -6.00317,-22.06832 -35.0432,-11.71706 -48.38013,-34.9892 -13.33693,-23.27214 11.12311,-42.11663 -4.9676,-58.09935 -16.09071,-15.98272 -36.28125,7.34341 -59.39525,-5.83153 -23.114,-13.17495 -11.40464,-41.1693 -33.06076,-46.86825 z"
   stroke-linecap="round"
   id="path17038" />&#10;</g><g
     transform="matrix(0.14768603,0.02604103,-0.02606824,0.14784034,-4546.5969,-1963.9988)"
     id="S177hH-ZuUor6YhRJ3Dzy"
     style="opacity:1;fill:#2e6d02;fill-opacity:1">&#10;<path
   style="opacity:1;fill:#2e6d02;fill-opacity:1;fill-rule:nonzero;stroke:#000000;stroke-width:0;stroke-linecap:butt;stroke-linejoin:miter;stroke-miterlimit:4;stroke-dasharray:none;stroke-dashoffset:0"
   vector-effect="non-scaling-stroke"
   transform="translate(9.1975e-6,1.45125e-5)"
   d="m 53.4582,-199.11381 c -21.65612,-5.69896 -26.83585,24.07243 -53.56371,24.07243 -26.72786,0 -31.96544,-29.77138 -53.34773,-24.07243 -21.38229,5.69896 -8.95943,33.6933 -32.18143,46.86825 -23.22199,13.17495 -44.34201,-10.15119 -60.70655,5.83153 -16.36454,15.98272 8.47732,34.82721 -4.75162,58.09935 -13.22894,23.27214 -42.16098,13.44413 -48.16415,34.9892 -6.00317,21.54507 24.15148,24.46243 24.15148,51.19108 0,26.72866 -30.15464,33.25213 -24.15148,55.72354 6.00317,22.47142 34.93521,10.93477 48.16415,34.16212 13.22894,23.22736 -11.17711,42.67921 4.75162,58.7473 15.92873,16.06809 35.74129,-7.62727 58.96328,5.52505 23.22199,13.15232 12.10659,41.35049 33.92469,47.08423 21.81811,5.73375 26.61987,-24.14924 53.34773,-24.14924 26.72786,0 31.9076,29.88299 53.56371,24.14924 21.65612,-5.73375 9.94676,-33.93191 33.06076,-47.08423 23.114,-13.15232 43.30454,10.54304 59.39525,-5.52505 16.09071,-16.06809 -8.36933,-35.51994 4.9676,-58.7473 13.33693,-23.22736 42.37696,-12.21396 48.38013,-34.16212 6.00317,-21.94816 -24.36746,-26.90188 -24.36746,-53.63053 0,-26.72866 30.37063,-31.21577 24.36746,-53.28409 -6.00317,-22.06832 -35.0432,-11.71706 -48.38013,-34.9892 -13.33693,-23.27214 11.12311,-42.11663 -4.9676,-58.09935 -16.09071,-15.98272 -36.28125,7.34341 -59.39525,-5.83153 -23.114,-13.17495 -11.40464,-41.1693 -33.06076,-46.86825 z"
   stroke-linecap="round"
   id="path17041" />&#10;</g><g
     transform="matrix(0.13211285,0.04808514,-0.04813538,0.13225088,-4546.5926,-1963.9994)"
     id="Ry_hy_izT_Tv2GBtfh1VD"
     style="opacity:1;fill:#40781f;fill-opacity:1">&#10;<path
   style="opacity:1;fill:#40781f;fill-opacity:1;fill-rule:nonzero;stroke:#000000;stroke-width:0;stroke-linecap:butt;stroke-linejoin:miter;stroke-miterlimit:4;stroke-dasharray:none;stroke-dashoffset:0"
   vector-effect="non-scaling-stroke"
   transform="translate(9.1975e-6,1.45125e-5)"
   d="m 53.4582,-199.11381 c -21.65612,-5.69896 -26.83585,24.07243 -53.56371,24.07243 -26.72786,0 -31.96544,-29.77138 -53.34773,-24.07243 -21.38229,5.69896 -8.95943,33.6933 -32.18143,46.86825 -23.22199,13.17495 -44.34201,-10.15119 -60.70655,5.83153 -16.36454,15.98272 8.47732,34.82721 -4.75162,58.09935 -13.22894,23.27214 -42.16098,13.44413 -48.16415,34.9892 -6.00317,21.54507 24.15148,24.46243 24.15148,51.19108 0,26.72866 -30.15464,33.25213 -24.15148,55.72354 6.00317,22.47142 34.93521,10.93477 48.16415,34.16212 13.22894,23.22736 -11.17711,42.67921 4.75162,58.7473 15.92873,16.06809 35.74129,-7.62727 58.96328,5.52505 23.22199,13.15232 12.10659,41.35049 33.92469,47.08423 21.81811,5.73375 26.61987,-24.14924 53.34773,-24.14924 26.72786,0 31.9076,29.88299 53.56371,24.14924 21.65612,-5.73375 9.94676,-33.93191 33.06076,-47.08423 23.114,-13.15232 43.30454,10.54304 59.39525,-5.52505 16.09071,-16.06809 -8.36933,-35.51994 4.9676,-58.7473 13.33693,-23.22736 42.37696,-12.21396 48.38013,-34.16212 6.00317,-21.94816 -24.36746,-26.90188 -24.36746,-53.63053 0,-26.72866 30.37063,-31.21577 24.36746,-53.28409 -6.00317,-22.06832 -35.0432,-11.71706 -48.38013,-34.9892 -13.33693,-23.27214 11.12311,-42.11663 -4.9676,-58.09935 -16.09071,-15.98272 -36.28125,7.34341 -59.39525,-5.83153 -23.114,-13.17495 -11.40464,-41.1693 -33.06076,-46.86825 z"
   stroke-linecap="round"
   id="path17044" />&#10;</g><g
     transform="matrix(0.10153415,0.01790321,-0.01792192,0.10164023,-4546.5976,-1963.9989)"
     id="IJitezga8s3hNOGtiVHin"
     style="opacity:1;fill:#3b8c03;fill-opacity:1">&#10;<path
   style="opacity:1;fill:#3b8c03;fill-opacity:1;fill-rule:nonzero;stroke:#000000;stroke-width:0;stroke-linecap:butt;stroke-linejoin:miter;stroke-miterlimit:4;stroke-dasharray:none;stroke-dashoffset:0"
   vector-effect="non-scaling-stroke"
   transform="translate(9.1975e-6,1.45125e-5)"
   d="m 53.4582,-199.11381 c -21.65612,-5.69896 -26.83585,24.07243 -53.56371,24.07243 -26.72786,0 -31.96544,-29.77138 -53.34773,-24.07243 -21.38229,5.69896 -8.95943,33.6933 -32.18143,46.86825 -23.22199,13.17495 -44.34201,-10.15119 -60.70655,5.83153 -16.36454,15.98272 8.47732,34.82721 -4.75162,58.09935 -13.22894,23.27214 -42.16098,13.44413 -48.16415,34.9892 -6.00317,21.54507 24.15148,24.46243 24.15148,51.19108 0,26.72866 -30.15464,33.25213 -24.15148,55.72354 6.00317,22.47142 34.93521,10.93477 48.16415,34.16212 13.22894,23.22736 -11.17711,42.67921 4.75162,58.7473 15.92873,16.06809 35.74129,-7.62727 58.96328,5.52505 23.22199,13.15232 12.10659,41.35049 33.92469,47.08423 21.81811,5.73375 26.61987,-24.14924 53.34773,-24.14924 26.72786,0 31.9076,29.88299 53.56371,24.14924 21.65612,-5.73375 9.94676,-33.93191 33.06076,-47.08423 23.114,-13.15232 43.30454,10.54304 59.39525,-5.52505 16.09071,-16.06809 -8.36933,-35.51994 4.9676,-58.7473 13.33693,-23.22736 42.37696,-12.21396 48.38013,-34.16212 6.00317,-21.94816 -24.36746,-26.90188 -24.36746,-53.63053 0,-26.72866 30.37063,-31.21577 24.36746,-53.28409 -6.00317,-22.06832 -35.0432,-11.71706 -48.38013,-34.9892 -13.33693,-23.27214 11.12311,-42.11663 -4.9676,-58.09935 -16.09071,-15.98272 -36.28125,7.34341 -59.39525,-5.83153 -23.114,-13.17495 -11.40464,-41.1693 -33.06076,-46.86825 z"
   stroke-linecap="round"
   id="path17050" />&#10;</g><g
     transform="matrix(0.08807523,0.03205676,-0.03209026,0.08816726,-4546.5948,-1963.9993)"
     id="1kFcPA1HgaNGKUZejsU0X"
     style="opacity:1;fill:#3b8c03;fill-opacity:1">&#10;<path
   style="opacity:1;fill:#3b8c03;fill-opacity:1;fill-rule:nonzero;stroke:#000000;stroke-width:0;stroke-linecap:butt;stroke-linejoin:miter;stroke-miterlimit:4;stroke-dasharray:none;stroke-dashoffset:0"
   vector-effect="non-scaling-stroke"
   transform="translate(9.1975e-6,1.45125e-5)"
   d="m 53.4582,-199.11381 c -21.65612,-5.69896 -26.83585,24.07243 -53.56371,24.07243 -26.72786,0 -31.96544,-29.77138 -53.34773,-24.07243 -21.38229,5.69896 -8.95943,33.6933 -32.18143,46.86825 -23.22199,13.17495 -44.34201,-10.15119 -60.70655,5.83153 -16.36454,15.98272 8.47732,34.82721 -4.75162,58.09935 -13.22894,23.27214 -42.16098,13.44413 -48.16415,34.9892 -6.00317,21.54507 24.15148,24.46243 24.15148,51.19108 0,26.72866 -30.15464,33.25213 -24.15148,55.72354 6.00317,22.47142 34.93521,10.93477 48.16415,34.16212 13.22894,23.22736 -11.17711,42.67921 4.75162,58.7473 15.92873,16.06809 35.74129,-7.62727 58.96328,5.52505 23.22199,13.15232 12.10659,41.35049 33.92469,47.08423 21.81811,5.73375 26.61987,-24.14924 53.34773,-24.14924 26.72786,0 31.9076,29.88299 53.56371,24.14924 21.65612,-5.73375 9.94676,-33.93191 33.06076,-47.08423 23.114,-13.15232 43.30454,10.54304 59.39525,-5.52505 16.09071,-16.06809 -8.36933,-35.51994 4.9676,-58.7473 13.33693,-23.22736 42.37696,-12.21396 48.38013,-34.16212 6.00317,-21.94816 -24.36746,-26.90188 -24.36746,-53.63053 0,-26.72866 30.37063,-31.21577 24.36746,-53.28409 -6.00317,-22.06832 -35.0432,-11.71706 -48.38013,-34.9892 -13.33693,-23.27214 11.12311,-42.11663 -4.9676,-58.09935 -16.09071,-15.98272 -36.28125,7.34341 -59.39525,-5.83153 -23.114,-13.17495 -11.40464,-41.1693 -33.06076,-46.86825 z"
   stroke-linecap="round"
   id="path17053" />&#10;</g><g
     transform="matrix(0.07498216,0,0,0.07506051,-4546.5994,-1963.9993)"
     id="eX7Qo5fc4ojT76FNSfMPg"
     style="opacity:1;fill:#539b29;fill-opacity:1">&#10;<path
   style="opacity:1;fill:#539b29;fill-opacity:1;fill-rule:nonzero;stroke:#000000;stroke-width:0;stroke-linecap:butt;stroke-linejoin:miter;stroke-miterlimit:4;stroke-dasharray:none;stroke-dashoffset:0"
   vector-effect="non-scaling-stroke"
   transform="translate(9.1975e-6,1.45125e-5)"
   d="m 53.4582,-199.11381 c -21.65612,-5.69896 -26.83585,24.07243 -53.56371,24.07243 -26.72786,0 -31.96544,-29.77138 -53.34773,-24.07243 -21.38229,5.69896 -8.95943,33.6933 -32.18143,46.86825 -23.22199,13.17495 -44.34201,-10.15119 -60.70655,5.83153 -16.36454,15.98272 8.47732,34.82721 -4.75162,58.09935 -13.22894,23.27214 -42.16098,13.44413 -48.16415,34.9892 -6.00317,21.54507 24.15148,24.46243 24.15148,51.19108 0,26.72866 -30.15464,33.25213 -24.15148,55.72354 6.00317,22.47142 34.93521,10.93477 48.16415,34.16212 13.22894,23.22736 -11.17711,42.67921 4.75162,58.7473 15.92873,16.06809 35.74129,-7.62727 58.96328,5.52505 23.22199,13.15232 12.10659,41.35049 33.92469,47.08423 21.81811,5.73375 26.61987,-24.14924 53.34773,-24.14924 26.72786,0 31.9076,29.88299 53.56371,24.14924 21.65612,-5.73375 9.94676,-33.93191 33.06076,-47.08423 23.114,-13.15232 43.30454,10.54304 59.39525,-5.52505 16.09071,-16.06809 -8.36933,-35.51994 4.9676,-58.7473 13.33693,-23.22736 42.37696,-12.21396 48.38013,-34.16212 6.00317,-21.94816 -24.36746,-26.90188 -24.36746,-53.63053 0,-26.72866 30.37063,-31.21577 24.36746,-53.28409 -6.00317,-22.06832 -35.0432,-11.71706 -48.38013,-34.9892 -13.33693,-23.27214 11.12311,-42.11663 -4.9676,-58.09935 -16.09071,-15.98272 -36.28125,7.34341 -59.39525,-5.83153 -23.114,-13.17495 -11.40464,-41.1693 -33.06076,-46.86825 z"
   stroke-linecap="round"
   id="path17056" />&#10;</g></g><path
   style="fill:#76950a;fill-opacity:0.755187;stroke:#ffffff;stroke-width:0.377951;stroke-opacity:0"
   d="m 79.450967,439.04202 c -7.845128,-1.4195 -15.328861,-7.93704 -18.029052,-15.70146 -1.30753,-3.7598 -1.565302,-8.68418 -0.730559,-13.95639 0.911776,-5.75877 1.864664,-9.26186 2.516029,-9.24962 0.298551,0.006 2.183256,0.15209 4.188206,0.32544 2.213764,0.19139 7.408751,0.1415 13.228298,-0.1276 l 9.582936,-0.44281 0.944882,1.25123 c 0.519683,0.68815 2.170465,2.4891 3.668408,4.00208 3.083406,3.11438 6.793415,5.15109 10.315795,5.6632 l 2.07873,0.30206 -0.0941,3.76784 c -0.19829,7.93825 1.02766,14.27353 3.46219,17.89122 l 1.27657,1.89698 -0.99949,0.20228 c -0.54973,0.11127 -4.91129,1.04729 -9.69237,2.08006 -12.781979,2.76101 -16.209378,3.09171 -21.716456,2.09528 z"
   id="path1" /><path
   style="fill:#76950a;fill-opacity:0.755187;stroke:#ffffff;stroke-width:0.377951;stroke-opacity:0"
   d="m 185.07263,498.41652 c -8.59292,-1.69419 -14.41098,-6.16633 -18.1813,-13.97525 -0.6936,-1.43658 -1.96046,-4.71058 -2.81525,-7.2756 -0.85479,-2.56499 -1.75268,-4.66721 -1.9953,-4.6716 -0.24262,-0.003 0.70278,-0.41172 2.1009,-0.90518 3.17591,-1.12091 6.0182,-2.67874 13.06901,-7.16299 3.05482,-1.94282 6.50877,-4.06996 7.67542,-4.72696 l 2.1212,-1.19454 2.03627,0.94527 c 4.81481,2.23505 11.46473,2.67441 15.72805,1.03912 l 1.97528,-0.75765 1.76744,3.26734 c 4.01159,7.41601 6.96399,11.12241 10.94439,13.73938 l 2.41999,1.59105 -1.97191,1.71648 c -1.08455,0.94406 -4.18754,3.73939 -6.89554,6.21189 -10.24329,9.35242 -15.07907,12.0298 -22.58913,12.50665 -1.56234,0.0992 -3.88311,-0.0505 -5.38952,-0.34741 z"
   id="path3" /><path
   style="fill:#76950a;fill-opacity:0.755187;stroke:#ffffff;stroke-width:0.377951;stroke-opacity:0"
   d="m 306.02453,498.57834 c -5.19176,-0.93182 -11.11089,-4.28376 -17.30974,-9.80227 l -3.15926,-2.81254 1.98411,-2.76542 c 1.09125,-1.52097 4.13777,-7.01596 6.77004,-12.21104 l 4.78594,-9.44561 h 1.98295 c 2.6097,0 7.34444,-1.23287 9.76586,-2.54291 1.06501,-0.57621 2.9034,-1.94053 4.08533,-3.03187 1.18193,-1.09134 2.24844,-1.98424 2.37008,-1.98424 0.12155,0 1.43005,0.78199 2.90754,1.73779 6.03561,3.90442 12.97903,6.55268 17.22711,6.57057 l 1.55925,0.006 -1.25178,4.06298 c -0.6885,2.23463 -1.95358,6.44407 -2.81135,9.3543 -3.44676,11.69427 -7.36621,17.30261 -14.37089,20.56339 -4.53847,2.11272 -10.40642,3.04136 -14.53519,2.30031 z"
   id="path5" /><path
   style="fill:#76950a;fill-opacity:0.755187;stroke:#ffffff;stroke-width:0.377951;stroke-opacity:0"
   d="m 408.5221,439.2205 c -2.7595,-0.38276 -9.36198,-1.76394 -9.60795,-2.00988 -0.0822,-0.0822 0.0523,-1.65727 0.29934,-3.49992 0.34584,-2.57999 0.34711,-5.43567 0.006,-12.42106 -0.244,-4.98896 -0.50551,-9.70555 -0.58134,-10.48132 -0.13214,-1.35122 -0.0378,-1.48187 2.24566,-3.11129 4.86012,-3.46808 8.14062,-8.27197 8.97493,-13.14258 l 0.42297,-2.46932 7.20623,-0.19442 c 7.65191,-0.20621 10.04689,-0.62846 13.50378,-2.38019 2.14701,-1.08798 2.58383,-1.13062 2.58573,-0.25247 7.9e-4,0.36377 0.60678,3.21259 1.34663,6.33069 4.41858,18.62236 4.58168,23.24361 1.07202,30.37353 -1.62803,3.30735 -5.57533,7.64937 -8.99231,9.8915 -4.55153,2.9866 -11.75728,4.29918 -18.48134,3.36652 z"
   id="path7" /><path
   style="fill:#76950a;fill-opacity:0.755187;stroke:#ffffff;stroke-width:0.377951;stroke-opacity:0"
   d="m 471.98038,335.96706 c -0.38542,-2.05461 -3.49043,-7.86565 -7.8255,-14.64556 -2.19309,-3.42992 -4.37728,-6.88276 -4.85381,-7.67301 l -0.86635,-1.43679 0.97635,-2.17558 c 2.27959,-5.07967 2.73178,-11.54165 1.1035,-15.76994 l -0.73997,-1.92154 4.47195,-2.408 c 7.29283,-3.92693 11.00005,-7.10959 13.2833,-11.4038 0.80634,-1.51653 0.97617,-1.65683 1.26045,-1.04114 0.18082,0.39137 2.63378,3.22737 5.45133,6.30224 9.01441,9.83767 11.63365,13.49816 13.33316,18.63359 1.77114,5.35191 1.64554,10.36591 -0.40184,16.04171 -3.0208,8.37437 -8.95125,13.17445 -21.08328,17.06469 -1.8678,0.59894 -3.50152,1.23463 -3.63042,1.41263 -0.1288,0.17809 -0.34441,-0.26275 -0.47887,-0.9795 z"
   id="path9" /><path
   style="fill:#76950a;fill-opacity:0.755187;stroke:#ffffff;stroke-width:0.377951;stroke-opacity:0"
   d="m 484.22116,211.84871 c -2.78529,-2.245 -6.27239,-4.39564 -12.47239,-7.69228 -9.28494,-4.93694 -10.20469,-5.5471 -10.20469,-6.76991 0,-1.81761 -1.41408,-6.66418 -2.67076,-9.15362 -0.73174,-1.44956 -2.19928,-3.38488 -3.71078,-4.89352 l -2.50032,-2.49563 2.36456,-3.55614 c 4.3712,-6.57406 6.23241,-10.99682 6.74882,-16.03712 0.13787,-1.34645 0.35488,-2.44591 0.48208,-2.44323 0.1273,0.003 4.0394,1.27876 8.69379,2.83574 8.66355,2.89813 14.15132,5.24026 17.21154,7.34576 5.72748,3.94059 9.31245,10.04956 10.4457,17.79986 0.81973,5.60613 -0.63641,11.21776 -4.35115,16.76851 -1.85505,2.77188 -7.39672,9.35083 -8.06271,9.57186 -0.14997,0.0498 -1.03827,-0.52631 -1.97369,-1.28028 z"
   id="path11" /><path
   style="fill:#76950a;fill-opacity:0.755187;stroke:#ffffff;stroke-width:0.377951;stroke-opacity:0"
   d="m 433.00875,98.643679 c -1.08596,-0.203127 -6.8024,-0.258096 -13.43925,-0.12926 l -11.54953,0.224231 -1.75457,-2.259408 c -3.19584,-4.115328 -7.94859,-7.18472 -12.44588,-8.037717 l -2.38542,-0.452447 v -7.207363 c 0,-5.927336 -0.12336,-7.607239 -0.69477,-9.458929 -0.68784,-2.229248 -1.98811,-4.953887 -3.08777,-6.470352 -0.56366,-0.777307 -0.47637,-0.803963 8.97671,-2.740894 11.57946,-2.372625 15.85439,-2.863541 20.21611,-2.321538 6.18376,0.768427 9.90652,2.608587 14.49207,7.163415 5.36857,5.332628 7.44861,10.773329 7.01061,18.337427 -0.31651,5.465643 -2.13649,13.833707 -2.99069,13.750772 -0.25186,-0.02449 -1.30825,-0.203519 -2.34762,-0.397937 z"
   id="path13" /><path
   style="fill:#76950a;fill-opacity:0.755187;stroke:#ffffff;stroke-width:0.377951;stroke-opacity:0"
   d="m 310.302,39.739787 c -0.76138,-0.402714 -2.71412,-1.097029 -4.33943,-1.542924 -3.66384,-1.005163 -8.65705,-0.86312 -11.75797,0.334487 l -1.98574,0.766909 -1.37962,-2.515427 c -4.97811,-9.076481 -8.41752,-13.294633 -12.45043,-15.269451 l -1.54963,-0.758811 2.87246,-2.492735 c 1.57984,-1.371004 4.68976,-4.137364 6.91091,-6.147467 7.19933,-6.5152487 10.99224,-9.0718761 15.83684,-10.6748921 3.76119,-1.24453213 6.8167,-1.53594791 10.40364,-0.99223153 8.62294,1.30709723 14.84284,5.70312763 18.47768,13.05950763 1.40604,2.845567 4.86405,12.998067 4.53826,13.323886 -0.10553,0.1056 -1.4266,0.728849 -2.93557,1.385 -1.50896,0.656151 -4.7406,2.413783 -7.18141,3.905847 -2.44084,1.492064 -6.39409,3.908849 -8.78501,5.370632 -2.39092,1.461779 -4.55942,2.730251 -4.81888,2.818827 -0.25942,0.08859 -1.0947,-0.168445 -1.8561,-0.571157 z"
   id="path15" /><path
   style="fill:#76950a;fill-opacity:0.755187;stroke:#ffffff;stroke-width:0.755903;stroke-opacity:0"
   d="M 26.899968,336.85745 C 21.495263,335.13293 15.250402,332.7285 13.022498,331.51428 4.9875289,327.13521 0.61105214,319.32885 0.52755896,309.22706 c -0.0401439,-4.85701 0.29206661,-6.37326 2.31864894,-10.58265 1.3010283,-2.70236 3.9409253,-6.87833 5.8664373,-9.27995 l 3.5009308,-4.36658 2.939467,2.47683 c 1.616706,1.36224 7.132161,4.68783 12.256564,7.39018 9.061056,4.77835 9.334835,4.99646 9.962603,7.93697 1.199318,5.61771 2.782974,9.20813 5.420778,12.28979 1.444627,1.68772 2.626599,3.23488 2.626599,3.43812 0,0.20319 -1.297304,2.53025 -2.882898,5.17113 -3.547582,5.90874 -4.621892,8.52758 -5.2904,12.89643 l -0.519584,3.39561 z"
   id="path17" /><path
   style="fill:#76950a;fill-opacity:0.755187;stroke:#ffffff;stroke-width:0.755903;stroke-opacity:0"
   d="m 14.143721,213.20967 c -4.019275,-4.18751 -8.4756272,-9.3832 -9.9030071,-11.54597 -4.68854739,-7.10411 -5.14343319,-14.23517 -1.4321949,-22.45194 3.1715528,-7.02189 7.209157,-10.35828 17.466143,-14.43279 3.22373,-1.2806 6.113053,-2.72402 6.420717,-3.20759 0.361256,-0.56781 0.56349,-0.3974 0.570965,0.48113 0.01708,2.00798 1.805309,5.22881 8.186481,14.74492 5.608284,8.36352 5.709633,8.59787 4.739849,10.96059 -2.937073,7.15569 -3.408816,11.35445 -1.894187,16.85923 0.364442,1.32453 -0.277749,1.99891 -3.792367,3.98243 -4.871082,2.74907 -9.920754,7.0922 -11.773837,10.12646 l -1.280793,2.09718 z"
   id="path18" /><path
   style="fill:#76950a;fill-opacity:0.755187;stroke:#ffffff;stroke-width:0.755903;stroke-opacity:0"
   d="m 62.814497,100.02872 c -4.222416,-17.852607 -3.346382,-24.992661 3.995508,-32.565229 6.586405,-6.793346 15.2471,-9.006049 27.208312,-6.951393 l 5.44832,0.935892 0.184228,13.94812 0.184229,13.94812 -4.84638,4.681944 c -3.703848,3.578175 -5.059611,5.483863 -5.75085,8.083506 -0.497457,1.87086 -1.007428,3.78091 -1.133271,4.24456 -0.141233,0.52032 -3.218649,0.98001 -8.039627,1.20092 -5.934505,0.27194 -8.616657,0.75037 -11.165389,1.99164 -1.845013,0.89854 -3.375716,1.63271 -3.401562,1.63148 -0.0257,-0.001 -1.233428,-5.01852 -2.683509,-11.14956 z"
   id="path19" /><path
   style="fill:#76950a;fill-opacity:0.755187;stroke:#ffffff;stroke-width:1.06901;stroke-opacity:0"
   d="m 174.48757,41.116223 c -3.74573,-2.011524 -8.33486,-3.638142 -10.26419,-3.638142 h -3.48948 l 2.92748,-10.10283 c 3.98522,-13.753085 6.92676,-19.4648895 11.5836,-22.492761 8.11732,-5.27786068 16.51301,-5.8020708 24.84524,-1.5512857 5.53287,2.8226591 13.79682,10.1761757 12.70029,11.3011007 -0.49919,0.512112 -3.31708,5.791301 -6.26197,11.731532 l -5.35437,10.80042 -5.60027,0.663269 c -3.97278,0.470516 -6.7702,1.603445 -9.62602,3.898441 -2.21415,1.779344 -4.17421,3.188646 -4.35567,3.131784 -0.18148,-0.05687 -3.37855,-1.740554 -7.10464,-3.741528 z"
   id="path21" /><path
   style="fill:#89ad0c;fill-opacity:0.755187;stroke:#ffffff;stroke-width:1.06901;stroke-opacity:0"
   d="m 250.55441,53.991037 c -2.45336,-3.027751 -6.29982,-6.38483 -8.54768,-7.460174 -5.62573,-2.691262 -12.94644,-2.545669 -17.86316,0.355262 l -3.95947,2.336145 -6.96396,-5.33759 c -3.83019,-2.935675 -7.62841,-5.337589 -8.4405,-5.337589 -3.09872,0 -2.55981,-2.396475 3.05417,-13.581477 6.26115,-12.474374 7.7852,-14.336225 13.7883,-16.8444814 9.88957,-4.1321261 20.26888,-0.8521285 28.46365,8.9948864 l 5.08223,6.106925 3.66945,-2.023329 c 2.77074,-1.527786 5.27435,-1.931712 10.22241,-1.649255 8.14996,0.465238 12.68183,3.605262 18.75125,12.992305 l 4.22791,6.538928 -2.3558,1.566629 c -1.29569,0.861648 -6.35291,4.991087 -11.23827,9.17653 -7.33686,6.285727 -9.40499,7.533212 -11.88534,7.169175 -1.65158,-0.242403 -4.92475,0.221419 -7.2737,1.030691 l -4.27083,1.471423 z"
   id="path23" /><path
   style="fill:#556b07;fill-opacity:0.755187;stroke:#ffffff;stroke-width:1.06901;stroke-opacity:0"
   d="m 249.14428,52.499006 c -8.30622,-8.903885 -15.29,-10.528151 -25.14995,-5.849297 l -3.59911,1.707887 -8.60197,-5.689317 c -9.89855,-6.546868 -9.73093,-5.253537 -2.50746,-19.347545 5.31202,-10.364503 8.9361,-14.0689813 15.49013,-15.8337983 8.62056,-2.3212767 17.04593,1.1088476 25.20263,10.2604593 l 5.35289,6.005813 3.26738,-1.689627 c 4.06736,-2.10331 14.2517,-2.205322 18.1255,-0.181553 3.54442,1.851693 7.5284,6.084115 11.53419,12.253454 l 3.03547,4.674962 -2.78633,2.273592 c -1.53249,1.250475 -6.24364,5.125323 -10.46924,8.610776 -6.35293,5.240166 -8.63981,6.480445 -13.21073,7.164761 -3.0403,0.455168 -6.48993,1.078331 -7.66584,1.384807 -1.59881,0.416696 -3.62084,-1.032288 -8.01756,-5.745374 z"
   id="path25" /><path
   style="fill:#556b07;fill-opacity:0.755187;stroke:#ffffff;stroke-width:1.06901;stroke-opacity:0"
   d="m 357.11409,89.730131 c -2.05784,-1.102941 -4.8239,-2.0061 -6.14679,-2.007013 -1.83963,-0.0013 -2.40528,-0.617793 -2.40528,-2.621564 0,-5.586466 -2.45363,-13.626284 -5.12883,-16.805566 -3.56877,-4.241243 -10.16992,-7.246208 -15.98408,-7.276253 -2.4988,-0.013 -4.54328,-0.486484 -4.54328,-1.052383 0,-2.603438 -4.71753,-13.228849 -7.16463,-16.137045 -1.49735,-1.779525 -2.54237,-3.385335 -2.32222,-3.568466 1.68439,-1.401175 13.61009,-8.557064 17.79513,-10.677782 9.53822,-4.833387 17.04361,-4.629138 24.83845,0.675946 5.60284,3.813206 7.7855,7.678179 9.66769,17.119078 l 1.75575,8.806639 5.31766,0.661672 c 6.56507,0.816889 8.77969,1.968902 12.97873,6.751312 3.90151,4.443583 5.53617,9.665913 5.54306,17.708703 l 0.006,5.879545 -13.62893,2.416001 c -15.70527,2.784077 -15.6213,2.783557 -20.57748,0.127173 z"
   id="path29" /><path
   style="fill:#556b07;fill-opacity:0.755187;stroke:#ffffff;stroke-width:1.06901;stroke-opacity:0"
   d="m 449.04877,179.1221 c -1.46987,-0.83855 -7.13488,-3.02952 -12.58884,-4.86882 -9.1118,-3.07285 -10.08447,-3.67372 -11.98853,-7.40601 -1.13972,-2.23401 -3.37828,-5.01325 -4.97459,-6.1761 l -2.90243,-2.11425 2.47858,-5.75276 c 3.66023,-8.4953 3.4828,-15.70833 -0.52593,-21.38317 -1.74462,-2.46968 -4.89317,-5.37922 -6.99682,-6.46563 l -3.8248,-1.9753 1.48187,-7.20593 c 1.08457,-5.27397 1.19318,-8.34327 0.40513,-11.44801 -0.59223,-2.33315 -0.82151,-4.497349 -0.50951,-4.80934 0.31201,-0.311995 6.66138,-0.568046 14.10977,-0.569002 12.47712,-0.0016 13.92095,0.209597 18.35305,2.684782 2.86511,1.60008 6.21555,4.7832 8.28482,7.87112 2.99128,4.46387 3.47074,6.09661 3.44888,11.74509 -0.0181,4.39555 -0.85571,8.57954 -2.54165,12.6789 l -2.51628,6.11842 3.50951,2.07065 c 5.27974,3.11512 9.53384,11.10103 9.4382,17.71759 -0.0789,5.46809 -3.35818,13.55393 -7.48489,18.45655 -1.81199,2.15268 -2.21353,2.22437 -4.65554,0.83122 z"
   id="path31" /><path
   style="fill:#556b07;fill-opacity:0.755187;stroke:#ffffff;stroke-width:1.06901;stroke-opacity:0"
   d="m 457.47596,288.5196 c -1.35721,-1.90603 -5.49224,-6.82371 -9.18896,-10.92818 -6.33214,-7.03062 -6.72563,-7.77622 -6.79642,-12.87843 -0.0414,-2.97866 -0.44982,-6.37564 -0.90777,-7.54883 -0.67188,-1.7213 0.0786,-2.84302 3.88797,-5.81084 9.45797,-7.36864 12.52301,-18.04007 7.82698,-27.25102 l -2.09603,-4.11127 4.67405,-6.00309 c 2.57073,-3.30169 5.25688,-7.99123 5.96927,-10.42118 l 1.29523,-4.41809 10.29113,5.8182 c 12.41192,7.01723 16.62387,10.88715 18.79981,17.2732 3.58174,10.51177 1.52427,17.57475 -7.76152,26.64439 l -6.85083,6.69135 1.71556,4.28762 c 4.55099,11.37403 -0.16388,21.65986 -13.4154,29.26591 l -4.97538,2.85578 z"
   id="path33" /><path
   style="fill:#556b07;fill-opacity:0.755187;stroke:#ffffff;stroke-width:1.06901;stroke-opacity:0"
   d="m 410.10677,387.31094 c -0.38264,-2.20482 -1.67934,-8.3774 -2.88162,-13.71683 l -2.18595,-9.70806 2.76264,-4.07096 c 1.51946,-2.23904 2.76265,-5.42523 2.76265,-7.08039 0,-2.65146 0.47679,-3.08526 4.00876,-3.64723 9.44407,-1.50264 13.5879,-3.15864 17.3714,-6.94212 4.13845,-4.13844 7.13125,-12.09133 5.95032,-15.81206 -0.58468,-1.84217 0.15239,-2.40035 5.31103,-4.02298 6.46569,-2.03374 14.38855,-7.14996 14.405,-9.30214 0.0121,-1.63299 7.79822,10.42254 11.91357,18.44712 7.4831,14.59137 0.46158,30.65781 -14.88324,34.05538 -2.78194,0.61594 -6.62147,1.42161 -8.53233,1.79034 -3.12118,0.60227 -3.47428,1.04635 -3.47428,4.3696 0,2.03453 -0.91528,5.48396 -2.03398,7.66537 -4.29855,8.38202 -11.03086,11.98375 -22.39988,11.98375 h -7.39845 z"
   id="path35" /><path
   style="fill:#556b07;fill-opacity:0.755187;stroke:#ffffff;stroke-width:1.06901;stroke-opacity:0"
   d="m 332.5269,461.17216 c -0.88193,-0.29329 -4.63006,-2.02113 -8.32917,-3.83959 -5.19242,-2.55257 -6.54999,-3.69117 -5.95512,-4.99459 0.42379,-0.92858 2.52187,-6.97991 4.6624,-13.44741 3.38373,-10.22377 4.30082,-11.95095 7.02412,-13.22858 1.72277,-0.80821 4.60412,-2.85827 6.40301,-4.5557 l 3.27077,-3.08626 6.25043,2.15045 c 11.09043,3.81568 18.66914,2.42881 24.78367,-4.53526 1.8337,-2.08844 3.52752,-4.3778 3.76406,-5.08747 0.33172,-0.99516 2.17567,-1.01947 8.06095,-0.10643 4.19695,0.65116 8.26824,0.98485 9.04734,0.74148 0.77906,-0.2434 2.73939,-0.73232 4.35626,-1.0866 l 2.93977,-0.64418 v 13.8479 c 0,15.33152 -0.69413,18.20096 -5.67786,23.47142 -7.22325,7.63882 -15.5598,9.24514 -28.01508,5.39808 l -7.19296,-2.22169 -3.26686,3.96326 c -5.16751,6.26909 -15.20453,9.56298 -22.12573,7.26108 z"
   id="path37" /><path
   style="fill:#556b07;fill-opacity:0.755187;stroke:#ffffff;stroke-width:1.06901;stroke-opacity:0"
   d="m 147.62047,471.37497 c -8.33382,-3.326 -13.03824,-10.08973 -15.04903,-21.63654 l -1.23752,-7.10633 h -3.67438 c -2.0209,0 -5.45916,-0.91527 -7.64056,-2.03398 -8.25177,-4.23176 -11.98376,-11.06303 -11.98376,-21.93591 v -6.93447 l 4.00878,-0.68481 c 2.20483,-0.37662 8.67913,-1.60612 14.38733,-2.73217 10.32533,-2.03685 10.39658,-2.03637 13.8971,0.098 1.93521,1.17987 4.75831,2.14703 6.27355,2.14924 2.55252,0.003 2.85129,0.52659 4.0652,7.11471 1.57932,8.5713 3.26836,12.05447 7.62163,15.71748 3.8226,3.21652 10.92156,5.40543 14.56495,4.491 1.39093,-0.3491 2.52897,-0.16267 2.52897,0.41454 0,2.86693 4.86346,13.48322 7.60976,16.61108 l 3.11454,3.54727 -7.15961,4.52169 c -11.23457,7.09527 -17.32059,9.57502 -23.34134,9.51047 -2.93977,-0.0315 -6.5333,-0.53155 -7.98561,-1.11115 z"
   id="path39" /><path
   style="fill:#556b07;fill-opacity:0.755187;stroke:#ffffff;stroke-width:1.06901;stroke-opacity:0"
   d="m 260.90337,491.49919 c -2.244,-0.69452 -6.41972,-3.90469 -10.43289,-8.02046 l -6.69135,-6.86248 -4.28761,1.71557 c -11.52501,4.6114 -23.08745,-0.96481 -29.96855,-14.45286 -1.22054,-2.39247 -2.06533,-4.44302 -1.87733,-4.55683 2.40147,-1.45354 9.97201,-7.51098 15.04994,-12.04192 5.91044,-5.27378 6.81675,-5.71711 11.68773,-5.71711 2.90425,0 6.17021,-0.47618 7.2577,-1.0582 1.64814,-0.88205 2.72769,-0.16176 6.48578,4.32676 2.47969,2.96172 6.34968,6.32421 8.59997,7.47225 5.37066,2.7399 13.19253,2.71508 18.36705,-0.0584 l 4.00322,-2.14561 6.13653,4.81746 c 3.37509,2.64959 6.46601,4.81773 6.86869,4.81809 0.4027,3.9e-4 1.98891,0.47849 3.52492,1.0625 l 2.79276,1.0618 -5.5619,10.82785 c -3.05903,5.95534 -7.08496,12.35094 -8.94649,14.21246 -5.44182,5.44183 -14.46055,7.24457 -23.00817,4.59903 z"
   id="path41" /><path
   style="fill:#556b07;fill-opacity:0.755187;stroke:#ffffff;stroke-width:1.06901;stroke-opacity:0"
   d="m 58.326354,398.35244 c -4.280006,-1.916 -9.663397,-7.71599 -11.704909,-12.61067 -2.348106,-5.62978 -2.061846,-11.38601 0.982783,-19.76235 1.671624,-4.59897 2.221979,-7.40785 1.499919,-7.6553 -0.627302,-0.21498 -2.746397,-1.80083 -4.709098,-3.52411 -4.619316,-4.05581 -7.359043,-11.17623 -6.66602,-17.32471 0.532507,-4.72443 6.968078,-18.84811 8.588277,-18.84811 0.478299,0 2.654425,0.89817 4.835831,1.99595 2.181405,1.09778 7.724966,3.10117 12.319025,4.45196 7.599883,2.2346 8.536347,2.81568 10.388623,6.44646 1.119685,2.19475 3.394417,5.11565 5.05496,6.49088 l 3.019173,2.50038 -2.42509,5.89404 c -2.761074,6.71066 -3.137599,13.46547 -1.031557,18.50595 1.632548,3.90723 8.470858,10.3718 10.971448,10.3718 1.332167,0 1.479909,0.67137 0.764559,3.47425 -0.487681,1.91087 -0.886692,7.44305 -0.886692,12.2937 v 8.81942 l -13.897106,-0.042 c -9.242807,-0.0272 -14.971171,-0.52279 -17.104126,-1.47761 z"
   id="path43" /><path
   style="fill:#556b07;fill-opacity:0.755187;stroke:#ffffff;stroke-width:1.06901;stroke-opacity:0"
   d="M 27.571519,294.59099 C 10.422992,284.72292 6.5392887,279.88969 6.512976,268.3838 6.496432,261.14977 10.503843,253.50761 17.509425,247.41349 l 4.69927,-4.08787 -1.562208,-3.73888 c -0.990101,-2.36965 -1.401031,-5.96715 -1.122093,-9.82341 0.574409,-7.94113 4.173171,-13.37575 12.684934,-19.15598 l 6.528369,-4.43334 1.732009,2.50894 c 0.952604,1.37991 5.269202,6.23751 9.592439,10.79467 7.768023,8.18833 7.852457,8.33913 7.182162,12.82809 -0.382653,2.56265 -0.151906,5.92306 0.529443,7.71032 1.139533,2.98914 0.962177,3.37191 -3.142061,6.78112 -9.248627,7.68242 -12.511125,19.01349 -8.131702,28.24244 l 1.841666,3.88102 -4.273532,5.40642 c -3.792183,4.79747 -5.695927,8.73178 -6.785014,14.02203 -0.260756,1.26655 -2.456415,0.41689 -9.711588,-3.75807 z"
   id="path45" /><path
   style="fill:#556b07;fill-opacity:0.755187;stroke:#ffffff;stroke-width:1.06901;stroke-opacity:0"
   d="m 40.687723,185.24908 c 0,-0.57342 -2.486892,-4.83247 -5.526423,-9.46456 -7.085829,-10.79842 -9.822482,-17.80543 -8.891746,-22.76668 2.216762,-11.81635 10.607386,-18.73374 25.417507,-20.95465 5.020881,-0.75293 5.035782,-0.76761 5.035782,-4.96291 0,-5.24774 2.028924,-9.25974 6.802254,-13.45078 4.464201,-3.91962 8.649084,-5.32066 17.546737,-5.87441 6.10224,-0.37977 6.748264,-0.21749 7.128608,1.79072 0.230036,1.21458 1.49444,7.38719 2.80979,13.71691 l 2.391546,11.50857 -2.838853,5.6109 c -1.561369,3.08599 -2.838853,6.38324 -2.838853,7.32723 0,1.25211 -1.803406,2.07113 -6.667643,3.02811 -3.667205,0.72148 -7.876422,1.94099 -9.353819,2.71003 -5.946799,3.09553 -10.703737,11.03946 -10.703737,17.87488 0,3.3126 -0.374084,3.65911 -6.525452,6.04435 -3.589002,1.39167 -8.159008,3.96458 -10.155577,5.71759 -1.996566,1.75301 -3.630121,2.71813 -3.630121,2.1447 z"
   id="path47" /><path
   style="fill:#667f0b;fill-opacity:0.755187;stroke:#ffffff;stroke-width:1.06901;stroke-opacity:0"
   d="M 100.05001,75.818781 C 99.340976,62.998395 99.44757,61.7448 101.63015,57.2362 106.87798,46.395629 120.19543,42.179581 134.22272,46.918027 l 6.41085,2.165595 3.04637,-3.695778 c 7.38534,-8.9597 18.17713,-10.227696 31.1228,-3.656815 5.40855,2.745233 6.91148,3.994093 6.35817,5.283325 -1.76021,4.101392 -4.73816,12.869513 -6.27743,18.482941 -1.52565,5.563786 -2.07483,6.28482 -6.19963,8.139603 -2.48914,1.119277 -5.63788,3.245492 -6.99719,4.724918 l -2.47149,2.689862 -5.29029,-2.010151 c -6.30245,-2.394742 -15.96089,-2.616074 -20.12786,-0.461246 -2.93125,1.515806 -9.0954,7.809767 -9.87031,10.078173 -0.27678,0.810207 -2.4776,0.797547 -7.53994,-0.04339 -4.90817,-0.815313 -8.46987,-0.852304 -11.36275,-0.118011 l -4.21368,1.069545 z"
   id="path49" /><path
   style="fill:#667f0b;fill-opacity:0.755187;stroke:#ffffff;stroke-width:0.755903;stroke-opacity:0"
   d="m 190.69096,459.77217 c -2.21068,-0.78895 -5.14618,-2.52653 -6.52333,-3.86134 -2.64174,-2.56045 -6.39854,-9.57988 -8.01076,-14.96772 l -0.9613,-3.21258 -4.22679,-0.006 c -7.53384,-0.0121 -14.6372,-4.51096 -17.60337,-11.14636 -1.45442,-3.25356 -3.92759,-14.50254 -3.3217,-15.10844 0.18075,-0.18081 1.7529,-0.64866 3.49365,-1.03979 1.74075,-0.3911 6.95462,-2.20839 11.58638,-4.0384 10.58834,-4.18343 16.83949,-5.34982 22.78308,-4.2511 11.17264,2.06537 17.64271,7.57206 25.32318,21.5526 5.63138,10.25065 9.52247,15.06946 13.25936,16.42075 1.43803,0.52 2.60011,1.13225 2.5824,1.36053 -0.0178,0.22828 -1.63344,1.70251 -3.59053,3.27605 -1.95709,1.57352 -5.93943,4.92205 -8.84966,7.44117 -7.84201,6.7881 -10.90991,8.37374 -16.8754,8.72194 -3.64651,0.21286 -6.16043,-0.10341 -9.06521,-1.1399 z"
   id="path51" /><path
   style="fill:#667f0b;fill-opacity:0.755187;stroke:#ffffff;stroke-width:0.755903;stroke-opacity:0"
   d="m 292.65502,459.61216 c -1.84049,-0.83497 -5.63901,-3.37051 -8.44115,-5.63453 l -5.09479,-4.11641 -3.4794,1.94467 c -4.68785,2.62011 -11.02004,3.17422 -16.28594,1.42518 -3.9544,-1.31346 -10.91945,-7.29464 -14.03936,-12.05623 -1.23637,-1.88694 -1.2162,-1.99549 0.64249,-3.45753 1.0554,-0.83016 3.86876,-4.14319 6.25191,-7.36225 9.32258,-12.59261 15.19015,-17.23658 24.1054,-19.07859 8.58115,-1.77295 16.25032,0.27485 27.36381,7.30619 9.8489,6.23136 14.27075,8.1132 19.15793,8.15323 l 4.15747,0.0342 -3.8974,11.42752 c -4.77395,13.99775 -5.46999,15.37271 -9.32945,18.42949 -5.76288,4.56426 -14.8108,5.84367 -21.11152,2.98521 z"
   id="path52" /><path
   style="fill:#667f0b;fill-opacity:0.755187;stroke:#ffffff;stroke-width:0.755903;stroke-opacity:0"
   d="m 345.51721,419.88868 c -3.11577,-1.06104 -5.73951,-2.00365 -5.83052,-2.09467 -0.091,-0.091 0.2939,-1.69155 0.85517,-3.55676 0.56133,-1.8652 1.57497,-7.69028 2.25253,-12.94459 0.67753,-5.25431 1.74746,-11.01456 2.37761,-12.80055 2.81768,-7.9862 8.59383,-14.41564 16.08256,-17.90156 4.10882,-1.91259 4.97572,-2.01342 20.54178,-2.38896 15.72653,-0.3794 16.36384,-0.45526 19.71512,-2.34644 l 3.46322,-1.95434 2.45335,11.22972 c 1.34935,6.17636 2.50234,12.66842 2.56221,14.42677 0.16932,4.9706 -1.63623,10.05039 -4.88316,13.7391 -5.9,6.70278 -11.45132,8.56148 -21.32299,7.13948 -3.37988,-0.4869 -6.70093,-0.92269 -7.38015,-0.9685 -0.68666,-0.0463 -2.39001,1.59469 -3.83681,3.69631 -1.58455,2.30169 -4.19203,4.74008 -6.66864,6.23619 -3.58019,2.16279 -4.70374,2.45436 -9.39145,2.43734 -3.68361,-0.0121 -7.07084,-0.61392 -10.98983,-1.94854 z"
   id="path53" /><path
   style="fill:#667f0b;fill-opacity:0.755187;stroke:#ffffff;stroke-width:0.755903;stroke-opacity:0"
   d="m 410.86258,347.21117 c -0.43664,-2.04992 -1.96867,-6.47954 -6.60133,-19.08654 -1.93789,-5.27369 -2.36754,-7.58373 -2.39727,-12.88957 -0.0336,-5.98747 0.17386,-6.88929 2.81042,-12.22415 3.65168,-7.38867 7.72218,-11.05986 18.70772,-16.87247 9.59984,-5.0794 14.46223,-8.96768 16.70025,-13.35451 l 1.5301,-2.99927 2.02881,2.61571 c 1.11586,1.43864 4.69866,5.63046 7.9618,9.31515 7.03888,7.94819 8.84328,11.21106 9.36174,16.9285 1.05064,11.587 -5.33689,19.66077 -18.88524,23.87069 l -4.34644,1.35059 -0.0151,4.20838 c -0.0272,7.23166 -4.32878,14.20674 -10.82108,17.552 -2.3787,1.22565 -12.30476,3.66422 -14.91511,3.66422 -0.37127,0 -0.87424,-0.93544 -1.11776,-2.07873 z"
   id="path54" /><path
   style="fill:#667f0b;fill-opacity:0.755187;stroke:#ffffff;stroke-width:0.755903;stroke-opacity:0"
   d="m 436.52811,251.66077 c -1.62383,-1.68761 -6.11189,-5.59971 -9.97344,-8.69356 -11.83686,-9.48363 -16.31072,-17.37169 -16.22439,-28.60596 0.052,-6.78751 1.8496,-11.55129 7.84346,-20.78733 6.49477,-10.00793 8.20459,-13.91938 8.21345,-18.78947 0.006,-3.55119 0.17023,-3.98475 1.33024,-3.52418 0.72754,0.28884 5.45441,1.973 10.50415,3.74256 14.55388,5.10008 18.33212,7.96023 21.48838,16.26683 3.08529,8.11977 1.38115,14.98304 -5.94669,23.94996 l -3.79016,4.63788 1.94993,3.94005 c 2.55368,5.16007 3.00196,10.77385 1.27739,15.99626 -1.01412,3.07099 -2.48327,5.17528 -6.08871,8.72106 -6.86883,6.75515 -7.0569,6.81106 -10.58361,3.1459 z"
   id="path55" /><path
   style="fill:#667f0b;fill-opacity:0.755187;stroke:#ffffff;stroke-width:0.755903;stroke-opacity:0"
   d="m 413.68869,157.55082 c -1.37565,-0.58124 -6.81815,-1.71409 -12.09444,-2.51743 -11.35965,-1.72957 -15.77678,-3.11379 -21.10958,-6.61521 -4.72246,-3.10069 -7.80854,-6.8237 -10.60589,-12.79487 -2.03402,-4.34174 -2.06685,-4.65001 -2.07874,-19.52943 -0.0121,-16.04198 -0.32854,-17.687125 -4.21183,-21.946523 -1.39793,-1.5333 -1.37262,-1.542643 10.10413,-3.732448 13.91233,-2.654522 18.44717,-2.73267 23.8112,-0.410328 4.73389,2.049506 10.35291,7.91064 11.48238,11.977079 1.05826,3.81017 0.92937,10.13842 -0.32583,15.99476 -0.57835,2.69838 -0.99159,4.9339 -0.91833,4.96782 10.33422,4.78458 15.19894,12.97417 13.36975,22.50753 -0.49152,2.56176 -1.79996,6.56982 -2.90763,8.9068 l -2.01397,4.24906 z"
   id="path56" /><path
   style="fill:#667f0b;fill-opacity:0.755187;stroke:#ffffff;stroke-width:0.755903;stroke-opacity:0"
   d="m 311.68811,96.749099 c -11.66903,-1.532886 -18.62958,-7.521142 -26.92435,-23.163382 -4.39513,-8.288325 -7.88983,-12.558786 -11.98859,-14.649813 -1.66778,-0.850838 -2.73674,-1.810501 -2.37546,-2.132586 4.98464,-4.443916 19.76318,-16.199277 21.63105,-17.206088 1.7472,-0.941764 4.20892,-1.330537 8.50602,-1.34333 10.82859,-0.03223 15.90886,3.940957 20.43237,15.979821 l 2.50968,6.679256 5.2014,0.476872 c 11.86961,1.088225 17.96282,7.894787 19.539,21.826538 0.39733,3.511942 0.28029,4.563336 -0.53137,4.770408 -1.29017,0.32919 -11.12211,3.679157 -19.18266,6.536004 -6.83282,2.421701 -11.06482,2.981943 -16.81709,2.2263 z"
   id="path57" /><path
   style="fill:#667f0b;fill-opacity:0.755187;stroke:#ffffff;stroke-width:0.755903;stroke-opacity:0"
   d="m 209.07254,87.022759 c -2.49448,-0.822062 -7.7669,-3.39289 -11.71649,-5.712952 -10.70636,-6.289105 -15.98912,-8.675678 -20.34614,-9.191702 -2.65134,-0.314014 -3.80497,-0.764505 -3.56423,-1.391844 0.19574,-0.510156 1.09109,-3.437078 1.98962,-6.504274 2.08082,-7.103073 4.96074,-15.218046 6.36318,-17.930071 2.32735,-4.500593 10.14503,-8.345596 17.08057,-8.400795 4.86772,-0.03873 7.43039,1.159253 15.5456,7.267255 l 5.55052,4.177657 4.37542,-2.148508 c 3.51126,-1.724169 5.34583,-2.137333 9.28879,-2.091931 6.12769,0.07057 9.58361,1.767999 14.7678,7.253489 7.3359,7.762235 7.05933,7.052687 4.00857,10.283945 -1.46195,1.548452 -5.14121,6.16273 -8.17614,10.253954 -8.32205,11.218537 -13.92573,14.652866 -24.96238,15.298694 -4.30429,0.251867 -6.76126,-0.02812 -10.20469,-1.162917 z"
   id="path58" /><path
   style="fill:#667f0b;fill-opacity:0.755187;stroke:#ffffff;stroke-width:0.755903;stroke-opacity:0"
   d="m 93.482131,134.42452 c -1.258491,-4.44053 -5.010547,-24.18501 -4.991656,-26.26762 0.04505,-4.96563 1.572641,-8.452663 5.563693,-12.700222 2.145363,-2.28325 5.353064,-4.800684 7.128222,-5.5943 3.68549,-1.647666 11.58449,-1.913877 18.31057,-0.617101 2.95427,0.569575 4.23061,0.565838 4.42354,-0.013 0.67323,-2.019699 5.37405,-7.323636 8.33337,-9.402547 3.05463,-2.145866 3.68262,-2.286013 10.18089,-2.27202 5.35512,0.01149 8.0657,0.422979 11.95413,1.814563 l 5.02867,1.79965 -1.10615,3.098805 c -0.60837,1.704343 -1.57761,7.077179 -2.15384,11.939635 -1.68217,14.194577 -3.72445,19.656327 -9.51532,25.447197 -7.2326,7.2326 -13.62811,9.14857 -30.59353,9.16521 -11.78488,0.0115 -18.044873,1.08147 -19.981626,3.41512 -1.14418,1.37866 -2.221057,1.45651 -2.580963,0.18659 z"
   id="path59" /><path
   style="fill:#667f0b;fill-opacity:0.755187;stroke:#ffffff;stroke-width:0.755903;stroke-opacity:0"
   d="m 56.50003,226.53253 c -0.706152,-1.07773 -4.551865,-5.41723 -8.546025,-9.64333 -8.843128,-9.35664 -10.423403,-12.47201 -9.916948,-19.55035 0.710712,-9.93313 5.7845,-15.74279 17.62367,-20.17971 l 5.616433,-2.10484 0.0082,-3.45588 c 0.01784,-7.46554 4.510529,-14.96371 10.781828,-17.99397 2.860166,-1.38202 12.67143,-3.8729 15.254897,-3.8729 0.565409,0 1.149674,1.20736 1.371749,2.83464 0.212772,1.55905 1.993301,6.40117 3.956749,10.76027 4.653863,10.33216 6.013388,16.69351 4.890772,22.88436 -1.949174,10.74905 -8.363217,18.22496 -22.538634,26.26996 -8.934505,5.07063 -13.632223,9.02035 -15.834699,13.31342 l -1.384067,2.69783 z"
   id="path60" /><path
   style="fill:#667f0b;fill-opacity:0.755187;stroke:#ffffff;stroke-width:0.755903;stroke-opacity:0"
   d="m 65.828961,325.76787 c -16.081967,-5.47999 -17.732211,-6.22165 -21.328733,-9.58578 -4.877807,-4.56263 -6.908168,-9.95742 -6.458155,-17.15973 0.378305,-6.05462 1.509447,-8.61979 6.768804,-15.35009 l 3.725497,-4.76745 -1.720765,-3.54748 c -2.49368,-5.14091 -2.716436,-11.48178 -0.600979,-17.10747 1.296147,-3.44688 2.900166,-5.68453 6.908692,-9.63776 2.871335,-2.83173 5.459078,-5.14628 5.750539,-5.14344 0.291476,0.003 1.335039,1.18742 2.319067,2.63241 0.984028,1.44499 5.097234,5.16296 9.140455,8.26216 14.258327,10.92927 18.331004,17.31114 18.369634,28.78516 0.0257,7.63086 -1.533261,11.85153 -8.226855,22.27323 -6.512532,10.1398 -8.12431,13.84551 -8.148445,18.73451 -0.01089,2.18265 -0.03175,3.93081 -0.04659,3.88479 -0.01481,-0.046 -2.918325,-1.0689 -6.452171,-2.27306 z"
   id="path61" /><path
   style="fill:#667f0b;fill-opacity:0.755187;stroke:#ffffff;stroke-width:0.755903;stroke-opacity:0"
   d="m 104.15227,410.19607 c -4.820764,-1.29619 -9.40897,-4.67078 -12.513003,-9.20323 l -2.536051,-3.70311 0.412511,-8.69288 c 0.226892,-4.78109 0.638666,-9.60877 0.915075,-10.72814 0.442563,-1.79224 0.1972,-2.16285 -2.055157,-3.10392 -3.583442,-1.49726 -9.491681,-8.30465 -10.526131,-12.12806 -1.188433,-4.39258 -0.450823,-10.55591 1.989872,-16.62702 1.949253,-4.84863 2.200914,-5.14108 4.049704,-4.70562 1.084212,0.2555 5.0327,0.97258 8.774422,1.59378 19.099088,3.17083 23.635628,4.82426 29.599348,10.78797 1.94518,1.94518 4.58463,5.7487 5.86545,8.45223 2.3102,4.87633 2.3319,5.03909 2.72158,20.41156 0.41,16.1742 0.51042,16.68437 4.2775,21.7322 l 1.83337,2.45668 -1.73925,0.003 c -0.95659,0.002 -6.84159,1.0152 -13.07779,2.25247 -12.76787,2.53315 -12.98683,2.54778 -17.99145,1.20218 z"
   id="path62" /><path
   style="fill:#667f0b;fill-opacity:0.377593;stroke:#ffffff;stroke-width:0.755903;stroke-opacity:0"
   d="m 226.39614,439.63607 c -4.5015,-2.24319 -7.62791,-6.16778 -13.26026,-16.64565 -4.71679,-8.77467 -11.10789,-15.75516 -16.91369,-18.47356 -2.07873,-0.97331 -6.27789,-2.13455 -9.33147,-2.58051 -6.49563,-0.94871 -11.4463,0.12216 -25.20238,5.45212 -11.08814,4.29613 -16.34545,4.18528 -23.47215,-0.49481 -1.8083,-1.1875 -3.54271,-3.32199 -4.81894,-5.93052 -1.91489,-3.91388 -2.00039,-4.63598 -2.15937,-18.23648 -0.14731,-12.60178 -0.35104,-14.64005 -1.85011,-18.50928 -4.45748,-11.50505 -14.02108,-18.20483 -28.86906,-20.22421 -8.862577,-1.20533 -16.242438,-2.81939 -18.656205,-4.08036 -5.164019,-2.6977 -9.191136,-9.67271 -9.206433,-15.94565 -0.01119,-4.56919 1.814312,-8.72088 8.34767,-18.98537 7.677257,-12.06167 9.610412,-19.71517 7.233131,-28.63652 -2.228432,-8.36274 -5.19772,-12.24455 -15.621858,-20.42277 -8.861723,-6.95243 -12.479885,-10.67269 -14.06169,-14.45848 -1.243956,-2.9772 -1.344171,-9.34449 -0.21129,-13.42474 1.214476,-4.37411 7.274874,-9.85546 17.63024,-15.94575 14.205251,-8.35451 19.458546,-14.53507 21.786067,-25.6316 1.183511,-5.64242 0.07127,-11.90552 -3.577588,-20.14579 -7.273221,-16.4252 -7.447308,-21.757 -0.951929,-29.15492 4.342071,-4.94541 7.078875,-5.64951 24.276345,-6.24566 14.19244,-0.49199 15.50218,-0.65937 19.37865,-2.47654 12.62025,-5.916 17.00554,-12.7958 19.23973,-30.184081 2.08526,-16.229108 3.69198,-19.6872 10.99371,-23.661298 7.80436,-4.247669 14.1987,-2.76007 30.2278,7.032287 8.64258,5.279851 15.00422,7.166487 22.66889,6.722788 10.38991,-0.601463 16.388,-4.49617 25.11798,-16.309733 9.51432,-12.874929 12.93905,-15.115053 21.88069,-14.312196 7.40248,0.664656 11.32531,4.3963 18.54536,17.641488 6.9191,12.693104 12.24501,17.666632 22.25429,20.781871 7.93374,2.469259 12.36457,1.79682 30.03622,-4.558435 8.88811,-3.196438 13.89512,-3.833156 18.00896,-2.290135 3.60698,1.352903 7.72236,4.572393 9.5013,7.432898 1.58295,2.545378 1.72434,3.826096 2.09566,18.981456 0.3808,15.54102 0.48529,16.43956 2.38899,20.54177 2.34167,5.04607 7.21473,10.5806 11.55627,13.1249 4.75212,2.78493 8.98587,4.0472 18.92001,5.64087 5.01862,0.80511 10.98266,2.06278 13.25339,2.79483 5.41462,1.74557 9.89601,6.17251 11.67728,11.53549 2.24754,6.76663 0.83714,11.57325 -6.95742,23.71114 -1.91516,2.98229 -4.53073,7.63337 -5.81241,10.33572 -2.06978,4.36408 -2.32939,5.67392 -2.3222,11.7165 0.006,5.83945 0.30518,7.44105 2.10507,11.30665 3.05201,6.55469 4.85459,8.60616 15.71815,17.88841 11.91228,10.17832 13.12151,12.08873 13.14007,20.75915 0.0121,5.48408 -0.2059,6.42771 -2.11801,9.18701 -2.46705,3.55999 -8.44503,7.93593 -16.06598,11.76051 -5.65993,2.84045 -11.39173,6.90076 -14.44821,10.23489 -3.35348,3.65812 -6.32461,10.90021 -6.80046,16.57604 -0.54386,6.48737 0.39742,10.72055 4.91367,22.09794 3.06325,7.71698 3.45565,9.37876 3.49535,14.80254 0.0423,5.78502 -0.0998,6.3273 -2.67387,10.20469 -1.94503,2.92976 -3.76079,4.61467 -6.38121,5.92123 -3.44646,1.71847 -4.51268,1.83524 -18.06873,1.97886 -7.92338,0.0841 -15.42659,0.41632 -16.67383,0.73861 -3.54902,0.91703 -9.5687,4.12478 -12.47239,6.64623 -6.74414,5.85631 -9.12889,11.48978 -11.34133,26.79155 -1.8363,12.70016 -2.984,15.92938 -6.928,19.49253 -4.04417,3.65367 -7.21185,4.88954 -12.50943,4.88059 -5.15393,-0.009 -9.14697,-1.68781 -20.09193,-8.44891 -11.57108,-7.14788 -19.56894,-8.87094 -29.23553,-6.29854 -6.83095,1.81782 -11.65433,5.78087 -19.80212,16.27017 -5.90265,7.59894 -8.1016,9.85162 -11.24919,11.52401 -5.22466,2.77598 -10.96943,2.84827 -16.27427,0.2047 z m 38.3498,-49.54662 c 3.65761,-1.01593 7.45792,-5.34078 11.15595,-12.69581 3.26678,-6.49731 5.77507,-9.83453 9.25312,-12.31114 l 2.26277,-1.61122 3.80077,2.06863 c 5.09786,2.77459 10.00649,2.87642 13.97775,0.28996 l 2.89952,-1.88845 5.29132,2.09306 c 8.75048,3.46143 14.75156,2.80434 19.41639,-2.12599 3.21023,-3.39295 3.66909,-5.63187 3.51486,-17.1501 -0.12518,-9.3543 0.0517,-11.13354 1.41054,-14.17654 l 1.55378,-3.47969 5.09575,-0.40903 c 5.65397,-0.45385 8.02986,-1.76319 10.75921,-5.92936 2.70989,-4.13649 2.86222,-4.22952 7.84891,-4.7937 9.53093,-1.07831 14.23277,-4.55809 15.87492,-11.74887 0.8575,-3.755 -0.39153,-7.77738 -4.45051,-14.33249 -4.22647,-6.82555 -6.93474,-13.21188 -6.95887,-16.40954 -0.0151,-2.0177 0.52614,-2.72704 3.57406,-4.68288 4.72381,-3.03126 6.55131,-6.19548 6.55546,-11.35034 0.003,-4.03364 0.0181,-4.06154 4.32573,-7.37503 7.69164,-5.9186 9.79677,-10.28256 8.19035,-16.97885 -1.09463,-4.56296 -4.77803,-8.12805 -13.11993,-12.69859 -6.25331,-3.4262 -12.20396,-8.34255 -12.9526,-10.70129 -0.25157,-0.79268 0.425,-3.10856 1.56586,-5.36001 2.51477,-4.96264 2.30309,-9.92107 -0.58328,-13.66393 l -1.89647,-2.45916 2.29613,-5.3097 c 4.14957,-9.59585 2.92169,-16.2017 -3.8776,-20.86064 -2.42998,-1.66505 -3.60345,-1.84345 -14.80829,-2.25131 -14.7307,-0.5362 -17.83597,-1.47656 -17.84263,-5.40319 -0.0121,-6.2822 -3.27046,-11.87287 -7.89882,-13.5465 -2.36485,-0.85515 -2.57013,-1.20355 -3.02712,-5.13775 -1.43071,-12.31773 -5.64396,-17.62937 -13.93286,-17.56516 -4.35893,0.0338 -6.2889,0.75107 -12.3928,4.60605 -6.23328,3.93666 -10.65476,5.8443 -15.03229,6.48565 -3.48983,0.5113 -3.55499,0.4817 -5.41004,-2.45688 -3.63365,-5.75607 -8.93884,-8.65571 -13.66589,-7.4693 -1.56865,0.39371 -2.38598,-0.23801 -5.70578,-4.41006 -6.38218,-8.02061 -11.89741,-10.24309 -18.34321,-7.3918 -4.02339,1.77973 -6.31021,4.59987 -9.94525,12.26462 -3.08064,6.49574 -6.43833,10.86902 -9.60045,12.50421 -2.05023,1.06021 -2.44977,1.00409 -6.13095,-0.86131 -5.11534,-2.59214 -9.78406,-2.70493 -13.99524,-0.33812 l -3.13462,1.76178 -5.38989,-1.99784 c -9.22996,-3.42123 -16.51078,-2.19328 -20.54679,3.46533 -1.63274,2.28914 -1.79594,3.43297 -2.18657,15.32414 -0.5479,16.67894 -1.14239,18.14307 -7.6046,18.72904 -2.44044,0.2213 -5.54343,1.04845 -6.89552,1.83812 -2.18239,1.27458 -5.30472,4.96428 -6.02208,7.11636 -0.14236,0.42707 -2.84532,1.22564 -6.00659,1.77461 -9.66835,1.67894 -13.85745,4.66657 -15.61215,11.13443 -1.07513,3.96295 -0.0564,7.49393 3.86264,13.38755 5.11805,7.69684 6.7087,11.26283 7.0862,15.88618 l 0.34393,4.21219 -3.48764,2.2677 c -4.45526,2.89687 -6.60122,6.33606 -6.85141,10.98035 -0.18622,3.4566 -0.49677,3.94134 -5.8844,9.18477 -6.24213,6.07506 -7.84719,9.56297 -6.92165,15.0412 0.87236,5.16344 3.93391,8.30954 12.43593,12.77938 7.50266,3.94445 14.38902,9.56796 14.38902,11.7503 0,0.5688 -0.85039,2.63355 -1.88976,4.58832 -2.5757,4.84423 -2.55182,9.70145 0.0667,13.55999 l 1.95643,2.88298 -2.33438,5.96374 c -2.68671,6.86384 -2.92792,10.81159 -0.90301,14.77905 3.21761,6.30435 6.7217,7.62558 20.48981,7.72581 7.69392,0.0559 11.04161,0.39458 13.60625,1.37605 3.35505,1.28397 3.40769,1.35836 3.84993,5.4392 0.69661,6.42817 2.8284,9.73418 7.94716,12.32454 2.10081,1.06313 2.40224,1.65032 2.86002,5.57146 1.16727,9.99826 3.99593,14.56537 10.12864,16.35359 5.03015,1.46673 8.97904,0.44075 16.99649,-4.41586 6.73365,-4.07894 12.63208,-6.42079 16.17204,-6.42079 1.18872,0 2.31833,0.90149 3.55188,2.83464 3.48367,5.45937 8.73702,8.40167 13.35271,7.47853 1.93863,-0.38774 2.54278,0.0535 5.97101,4.36193 6.23434,7.83481 10.72753,9.87832 17.55203,7.98278 z"
   id="path63" /><path
   style="fill:#667f0b;fill-opacity:0.701245;stroke:#ffffff;stroke-width:0.755903;stroke-opacity:0"
   d="m 254.0201,388.40787 c -1.38596,-0.93544 -4.24255,-3.7985 -6.34798,-6.36237 -3.80379,-4.63202 -3.85384,-4.66196 -7.8963,-4.72439 -5.07748,-0.0783 -8.31077,-1.96178 -11.18886,-6.51743 -1.77013,-2.80192 -2.52219,-3.36963 -4.4652,-3.37078 -4.07632,-0.002 -9.22996,2.00795 -16.63823,6.49012 -8.77113,5.30671 -12.94501,6.03078 -18.42197,3.19572 -4.24921,-2.19956 -6.48132,-6.36513 -7.63677,-14.25182 l -0.83486,-5.69848 -3.47065,-1.86055 c -4.10945,-2.20297 -6.17293,-5.70069 -6.39673,-10.84282 -0.091,-2.09098 -0.64052,-3.99555 -1.33387,-4.62301 -2.34729,-2.1243 -9.66367,-3.36162 -19.1603,-3.24035 -8.03792,0.1025 -9.5653,-0.0828 -12.2107,-1.48259 -7.1436,-3.77988 -8.66114,-11.17548 -4.33963,-21.14883 1.36147,-3.14208 2.05858,-5.65177 1.64147,-5.90953 -1.43238,-0.88528 -3.72702,-6.3842 -3.72702,-8.93153 0,-1.42946 0.98535,-4.47218 2.18965,-6.76161 2.14771,-4.08284 2.16423,-4.20441 0.86235,-6.34517 -1.95788,-3.21948 -5.1424,-5.64091 -13.01335,-9.89501 -10.15112,-5.4865 -12.71573,-8.58262 -12.71573,-15.35104 0,-5.12806 2.20104,-8.91013 8.24442,-14.16651 4.40926,-3.83506 4.60605,-4.15721 4.60875,-7.54474 0.004,-4.44967 1.92999,-7.71428 6.41949,-10.87878 3.27627,-2.30932 3.4038,-2.54356 3.38782,-6.22263 -0.0196,-4.49688 -1.38872,-7.74884 -6.64857,-15.79092 -6.01654,-9.19901 -6.18162,-14.32018 -0.63975,-19.84584 2.6388,-2.63108 4.0267,-3.33745 8.588,-4.37083 2.99229,-0.67792 6.11626,-1.23258 6.94214,-1.23258 0.92277,0 2.32826,-1.23088 3.64615,-3.19316 3.00133,-4.46888 6.10922,-6.33456 11.58407,-6.95397 l 4.63741,-0.52466 1.61006,-3.54596 c 1.42004,-3.12747 1.59062,-4.73897 1.44543,-13.65446 -0.19224,-11.80442 0.43586,-14.78639 3.79756,-18.02906 4.7878,-4.61827 9.15192,-5.05744 18.34525,-1.84615 l 6.04722,2.11233 3.02361,-1.73686 c 4.0508,-2.32691 8.56806,-2.28366 13.3696,0.12802 2.06934,1.03937 4.25231,1.88976 4.85106,1.88976 2.46497,0 7.83917,-6.28353 11.54555,-13.49909 5.63693,-10.97394 7.95573,-12.95751 15.14744,-12.95751 4.54603,0 7.35414,1.81335 12.48643,8.06314 3.82204,4.65425 3.83458,4.66167 7.98552,4.72721 5.22406,0.0825 8.41515,1.93648 11.16286,6.4855 1.75307,2.90233 2.41171,3.40123 4.4902,3.40123 3.81224,0 9.06965,-2.08413 16.66121,-6.60483 8.15651,-4.85712 11.93387,-5.65017 17.24723,-3.62098 5.45342,2.08268 7.07873,5.29606 8.99543,17.78484 0.33897,2.2088 0.98817,2.95771 3.93154,4.53542 4.35639,2.33512 6.29869,5.73021 6.29869,11.01004 0,3.23411 0.27304,3.99189 1.70078,4.72059 4.06945,2.07695 6.72282,2.52831 14.55113,2.47526 4.57321,-0.031 10.10416,0.30685 12.29098,0.75078 10.07422,2.04504 13.39714,10.67975 8.51479,22.12604 l -2.20838,5.17732 2.03985,3.0824 c 2.74353,4.14574 2.7441,8.65629 0.002,13.87272 l -2.03803,3.87677 1.8157,2.46107 c 2.23796,3.0334 7.46941,6.92032 14.97359,11.12529 7.36676,4.12795 9.77277,7.20998 10.19598,13.0606 0.41614,5.75337 -1.47316,9.17886 -7.90568,14.33354 -4.78934,3.83794 -4.79884,3.85333 -4.80165,7.79185 -0.003,4.98245 -1.90763,8.24277 -6.40903,10.97409 -2.97795,1.80695 -3.36984,2.35968 -3.39098,4.78266 -0.0348,3.97738 1.7481,8.42963 6.56372,16.39173 5.2043,8.60474 5.91708,12.80988 3.09956,18.28588 -2.27106,4.41387 -6.18621,6.55876 -13.98507,7.66165 l -5.9958,0.84794 -1.84524,3.44145 c -2.24352,4.18416 -5.47374,6.0005 -11.8584,6.66781 -4.57064,0.47773 -4.66703,0.53573 -5.97432,3.59471 -1.06201,2.48502 -1.34487,5.46125 -1.40909,14.82568 -0.0871,12.71334 -0.65576,14.96336 -4.55676,18.03188 -4.78242,3.76185 -10.15501,3.89117 -18.74775,0.45127 l -4.9297,-1.97348 -2.26991,1.67819 c -3.60411,2.66462 -8.81581,2.80948 -13.61336,0.37838 -2.18036,-1.10486 -4.55901,-1.8201 -5.2859,-1.58939 -2.6607,0.84449 -7.64249,6.75344 -10.76055,12.7632 -4.00112,7.71181 -5.6998,10.03446 -8.69052,11.88285 -3.41565,2.11097 -9.87187,1.99477 -13.17888,-0.23735 z m -24.13078,-40.26706 c 1.22216,-0.63199 3.98717,-2.71671 6.14448,-4.63271 9.47263,-8.41305 17.48645,-8.41305 26.95908,0 6.81238,6.05033 11.02277,7.19818 15.77499,4.3006 2.84733,-1.73613 3.96852,-3.7644 6.19752,-11.21143 1.24631,-4.16388 2.37078,-6.23263 4.59872,-8.46058 4.81519,-4.81519 8.99457,-5.40325 21.56101,-3.03371 4.82269,0.90935 5.55833,0.87479 8.21521,-0.38596 5.52033,-2.61957 6.84418,-7.38895 4.61433,-16.62382 -1.52777,-6.32716 -1.38109,-9.23163 0.6909,-13.68147 2.14745,-4.61185 4.88533,-6.70796 11.83133,-9.05795 7.34797,-2.486 9.64825,-3.82312 11.33442,-6.58852 2.95616,-4.84827 1.73278,-9.07088 -4.67946,-16.15148 -4.59703,-5.07624 -5.93377,-8.02803 -5.93377,-13.10306 0,-5.16987 1.29326,-7.92248 6.41797,-13.66019 4.72337,-5.28832 5.67795,-7.09981 5.67363,-10.76688 -0.006,-5.41678 -3.27249,-8.13113 -14.73726,-12.24752 -4.86061,-1.74517 -9.72681,-6.53119 -11.01614,-10.83458 -0.81223,-2.71093 -0.8054,-4.22191 0.0393,-8.68924 2.38645,-12.62205 1.57826,-16.24919 -4.2352,-19.00787 -2.6401,-1.2528 -3.423,-1.29279 -8.21521,-0.41958 -10.72871,1.95492 -12.8395,1.91781 -17.38392,-0.30556 -4.71666,-2.30765 -7.17331,-5.72481 -9.398,-13.07244 -1.80646,-5.96633 -2.78242,-7.59113 -5.58687,-9.30112 -4.74018,-2.89029 -8.95618,-1.7382 -15.76345,4.30763 -9.10826,8.08941 -17.66647,8.35675 -26.0555,0.8139 -7.19707,-6.47112 -11.40924,-7.91255 -16.07363,-5.5005 -2.88484,1.49181 -4.07979,3.54301 -6.16325,10.57958 -1.38363,4.67303 -2.45684,6.71007 -4.83692,9.18085 -4.73582,4.9163 -9.36879,5.77336 -19.68084,3.64078 -6.77531,-1.40116 -10.04136,-0.98995 -13.1917,1.66089 -3.53939,2.97819 -4.0407,6.14502 -2.2473,14.19632 3.01303,13.52675 0.19732,18.47676 -13.7222,24.12351 -8.68345,3.52262 -11.28737,6.03641 -11.28737,10.89666 0,3.38326 0.90501,4.98024 5.88612,10.38664 4.87013,5.28594 6.21437,8.11904 6.19172,13.04957 -0.0212,4.61668 -1.82144,8.5127 -6.56024,14.19745 -4.74838,5.69625 -5.5176,7.1699 -5.5176,10.57048 0,5.93246 2.74361,8.69563 11.60985,11.6926 7.36273,2.48877 9.92495,4.18734 12.36917,8.19994 2.38514,3.91559 2.79416,7.99918 1.40233,14.00065 -1.80658,7.78982 -1.59157,12.01668 0.75301,14.80306 2.97871,3.54001 6.44586,4.2586 13.50432,2.79889 3.23245,-0.66849 7.28648,-1.20796 9.00893,-1.19883 7.15432,0.0378 12.88317,4.98745 15.69983,13.5641 2.3086,7.02965 3.43244,8.96519 6.1772,10.63879 2.90381,1.77056 6.60223,1.8981 9.63051,0.33211 z"
   id="path64" /><path
   style="fill:#91b510;fill-opacity:0.431535;stroke:#ffffff;stroke-width:0.755903;stroke-opacity:0"
   d="m 221.85878,348.21543 c -3.36159,-1.46364 -5.23563,-4.23595 -7.53921,-11.15298 -2.53791,-7.62065 -5.92305,-11.34661 -11.88272,-13.07914 -3.6428,-1.05899 -4.65184,-1.06201 -10.04548,-0.0302 -9.2475,1.76954 -11.89679,1.56176 -15.01702,-1.17785 -3.40557,-2.99013 -3.96104,-5.97042 -2.4006,-12.88022 0.66936,-2.96404 1.20955,-6.96316 1.20042,-8.88697 -0.0348,-7.33221 -4.7858,-13.1661 -12.72028,-15.61962 -8.77514,-2.71346 -12.46396,-5.61029 -13.3831,-10.50976 -0.61663,-3.28693 0.89694,-6.6323 5.49255,-12.13996 8.89855,-10.66456 9.10162,-17.19119 0.82774,-26.60215 -5.85312,-6.65751 -7.09141,-9.40762 -5.95053,-13.21552 1.06896,-3.56787 4.4447,-6.21158 10.57506,-8.28183 13.04788,-4.40634 17.44091,-12.17949 14.04131,-24.84512 -1.92355,-7.16641 -1.57272,-9.56573 1.90761,-13.04607 l 3.04147,-3.04147 6.21834,0.61515 c 3.42009,0.33833 8.96543,0.6415 12.323,0.67371 5.44851,0.0523 6.44217,-0.16494 9.24487,-2.021 3.49829,-2.3167 5.51344,-5.73834 7.81719,-13.27331 1.7582,-5.75057 3.54324,-8.05022 7.18055,-9.25064 3.55135,-1.17205 6.57957,-0.004 12.02968,4.6421 6.28453,5.35685 9.68716,6.97203 14.69371,6.97491 4.98625,0.003 7.8944,-1.3502 13.76571,-6.40466 2.37431,-2.04399 5.556,-4.23405 7.07041,-4.86681 5.76972,-2.41075 10.65521,0.76341 13.2279,8.59431 3.01667,9.18228 5.01085,12.07736 10.12509,14.69924 2.66022,1.36379 3.75107,1.46953 9.82672,0.95248 3.75889,-0.31988 8.98859,-0.61813 11.62158,-0.66277 4.52898,-0.0768 4.91035,0.0567 7.06972,2.47432 2.51395,2.81461 2.44429,1.40136 0.92513,18.7657 -0.40873,4.67198 -0.24128,5.93355 1.17758,8.86422 2.27454,4.69856 4.78048,6.57524 13.0678,9.78631 7.37589,2.85792 9.70646,4.60089 11.11202,8.31035 1.39334,3.67715 0.21195,6.67723 -5.1975,13.19763 -9.03455,10.89024 -9.10793,16.50406 -0.3534,27.03416 5.61016,6.74799 6.84189,9.72309 5.59268,13.50827 -1.21966,3.69562 -4.33017,6.00295 -11.15797,8.27682 -12.9692,4.31913 -16.4576,10.93132 -13.41011,25.4186 1.39869,6.64907 0.63974,10.309 -2.72488,13.14013 -2.72297,2.29123 -5.58134,2.45484 -14.70001,0.84138 -12.27792,-2.17241 -18.43078,1.72624 -22.51448,14.26588 -4.06898,12.49437 -10.36735,14.04029 -20.75828,5.09499 -5.94806,-5.12054 -8.80804,-6.46339 -13.76571,-6.46339 -4.95767,0 -7.81765,1.34285 -13.76571,6.46339 -4.10225,3.53152 -8.47069,5.96662 -10.58787,5.90197 -0.53305,-0.0151 -2.01848,-0.48647 -3.30098,-1.04487 z"
   id="path65" /><path
   style="fill:#7b9a0e;fill-opacity:0.431535;stroke:#ffffff;stroke-width:0.755903;stroke-opacity:0"
   d="m 228.44089,440.75257 c -5.32259,-1.25668 -9.59638,-6.16258 -15.58884,-17.89443 -4.31797,-8.45362 -10.7252,-15.60797 -16.25191,-18.14693 -3.91643,-1.79923 -10.22393,-3.26402 -14.05503,-3.26402 -3.51367,0 -12.40156,2.26478 -12.40156,3.1601 0,0.38974 -0.28985,0.5295 -0.64411,0.31056 -0.35425,-0.21891 -1.93542,0.26033 -3.51371,1.06494 -12.26844,6.2548 -22.24868,6.03244 -29.55936,-0.6586 -4.774,-4.36936 -5.10518,-5.76545 -5.22324,-22.01866 -0.0962,-13.24907 -0.2756,-15.17176 -1.77317,-19.00706 -2.05828,-5.27133 -5.05255,-9.48044 -8.8902,-12.49709 -3.43362,-2.69909 -7.8398,-5.07238 -7.8564,-4.23167 -0.006,0.32247 -0.27971,0.16418 -0.60742,-0.35189 -0.74481,-1.17276 -8.18271,-2.86157 -17.347356,-3.93876 -8.374374,-0.98431 -14.005901,-3.28383 -17.339039,-7.08006 -2.949473,-3.35926 -5.674124,-11.56849 -5.004294,-15.07769 0.641779,-3.3622 3.601123,-9.11785 7.510404,-14.607 8.470229,-11.89337 10.914698,-21.39858 7.984253,-31.04644 -2.187047,-7.20036 -5.491657,-11.80864 -12.172909,-16.97509 -12.443188,-9.62203 -13.797783,-10.84151 -15.770859,-14.19777 -1.82734,-3.10836 -2.040363,-4.20613 -2.008373,-10.34988 0.03383,-6.49546 0.166661,-7.05069 2.420186,-10.115 2.909841,-3.95677 8.365597,-8.14105 14.981941,-11.49037 7.070478,-3.57922 14.551581,-9.4665 17.478313,-13.75463 3.713161,-5.44038 5.834351,-13.1058 5.277326,-19.07086 -0.390076,-4.17723 -3.661472,-14.32923 -4.969147,-15.42056 -0.249086,-0.20787 -0.525525,-0.76599 -0.614323,-1.24025 -0.0888,-0.47426 -1.0651,-2.83788 -2.169562,-5.25247 -2.667589,-5.83196 -2.363807,-13.10309 0.734215,-17.57353 2.541248,-3.66702 7.266067,-8.41841 7.266067,-7.30692 0,0.23889 0.765351,0.006 1.700777,-0.51718 1.13736,-0.6363 6.85137,-1.08541 17.24864,-1.3557 l 15.54785,-0.40419 5.1026,-2.58994 c 12.31993,-6.25327 16.88891,-14.12268 18.23843,-31.41312 0.64338,-8.243023 1.55973,-11.99823 3.78992,-15.531081 3.65068,-5.783049 8.88367,-8.315063 17.58032,-8.50634 3.1543,-0.06936 13.2415,4.264634 16.0795,6.908628 2.70647,2.521456 13.18301,7.494153 17.81444,8.455634 13.07188,2.713712 24.49489,-2.282222 32.52307,-14.224179 7.18294,-10.684664 11.64499,-14.614312 18.35232,-16.162549 2.9197,-0.673948 4.23098,-0.673936 5.5306,6e-5 0.93693,0.485901 2.50132,0.995107 3.47643,1.131565 4.26017,0.596184 10.27484,7.977846 15.81442,19.408641 3.65758,7.54735 8.09564,12.080829 15.43907,15.770992 10.74667,5.400345 15.99194,5.119106 33.47273,-1.79474 4.81217,-1.90326 9.08139,-3.255274 9.48719,-3.004481 0.4058,0.250809 0.73782,0.163154 0.73782,-0.194781 0,-1.0103 9.17654,0.183534 11.71649,1.524281 5.09101,2.687362 10.19317,9.613387 9.12753,12.39037 -0.20258,0.52835 -0.0151,1.18004 0.42025,1.4482 0.52937,0.32717 0.61056,3.94864 0.24673,11.00904 -0.80495,15.62307 0.72061,21.56922 7.45592,29.06047 5.11229,5.68611 13.25091,9.486 22.43438,10.47451 11.17236,1.20259 15.07992,2.1168 18.89757,4.42123 5.61496,3.38935 9.12646,8.97762 9.67117,15.39086 0.38272,4.50647 -1.61443,9.60466 -6.65582,16.99027 -1.65845,2.42963 -3.01535,4.76152 -3.01535,5.18197 0,0.42044 -0.28997,0.76445 -0.644,0.76445 -0.35422,0 -1.78529,2.46613 -3.18018,5.48029 -2.27339,4.91249 -2.5395,6.18915 -2.56859,12.32176 -0.0302,6.40337 0.14756,7.20566 2.77801,12.52882 2.90578,5.88036 6.38142,9.63898 15.29028,16.5351 10.52564,8.14766 13.92506,14.4183 12.91741,23.82769 -0.53684,5.01284 -0.68065,5.29281 -4.82514,9.39421 -2.97472,2.94378 -6.3035,5.20303 -10.96295,7.44059 -14.36898,6.90023 -20.37276,13.12654 -22.91537,23.76467 -1.9639,8.21684 -0.82351,14.34243 5.45387,29.29549 1.50022,3.57361 2.11338,6.44468 2.26002,10.58264 0.24401,6.88803 -0.65597,9.30716 -5.31705,14.29025 -4.5596,4.87457 -6.99887,5.41263 -23.81374,5.25292 -12.8824,-0.12246 -13.35678,-0.0711 -18.14167,1.95767 -9.17717,3.8912 -14.74706,9.53453 -17.33796,17.56648 -1.60502,4.97578 -2.86409,11.4343 -2.99567,15.36699 -0.0487,1.45511 -0.48856,4.51652 -0.97745,6.80312 -0.48888,2.28661 -0.82617,4.41257 -0.74949,4.7244 0.0768,0.31179 -0.20077,0.56692 -0.61651,0.56692 -0.41575,0 -0.75591,0.52641 -0.75591,1.16984 0,0.64342 -1.62679,2.79663 -3.61506,4.78492 -2.92749,2.92749 -4.55162,3.86856 -8.53907,4.94793 -4.14655,1.1224 -5.45486,1.18991 -8.28617,0.42751 -4.17153,-1.12327 -8.03404,-3.0729 -13.55796,-6.84349 -7.3138,-4.99237 -15.32936,-8.39521 -20.81192,-8.83529 -12.88867,-1.03459 -21.89803,4.2297 -31.375,18.33279 -6.99269,10.40612 -14.79588,14.08624 -24.83971,11.71492 z M 264.041,390.07536 c 4.32212,-1.20037 6.81477,-3.81029 10.79247,-11.30035 3.63455,-6.84388 8.31008,-12.94716 11.03599,-14.40602 1.08854,-0.58256 2.39666,-0.3082 5.47603,1.14857 5.16827,2.44499 9.67004,2.48659 13.79499,0.1276 l 3.09189,-1.76827 5.22304,2.11577 c 7.27146,2.94558 12.63592,2.95782 16.66654,0.0381 5.63435,-4.08151 5.93565,-5.01786 5.99491,-18.63046 0.0475,-10.92525 0.21347,-12.40503 1.71614,-15.30703 1.604,-3.09772 1.79237,-3.21259 5.26747,-3.21259 5.12919,0 9.81379,-2.56792 12.60319,-6.90859 2.1305,-3.31533 2.48175,-3.53366 6.42518,-3.99388 9.04035,-1.05506 13.01196,-3.21555 15.48273,-8.42227 2.66601,-5.61827 1.80767,-9.30066 -4.57515,-19.62793 -3.78513,-6.12427 -5.60223,-10.80278 -5.60223,-14.42404 0,-2.11094 0.47987,-2.84737 2.83463,-4.34994 1.55904,-0.99484 3.62885,-2.66752 4.59961,-3.71706 2.00027,-2.16268 3.38926,-7.2544 2.71348,-9.94694 -0.38584,-1.53735 0.27575,-2.3754 4.48964,-5.68696 7.42157,-5.83238 9.69055,-10.52363 8.04519,-16.63394 -1.21104,-4.49757 -5.08269,-8.34208 -12.25687,-12.171 -7.11504,-3.79736 -15.99986,-11.68504 -14.3269,-12.71899 0.55369,-0.3422 1.03441,-0.92432 1.06824,-1.29358 0.0339,-0.36926 0.72362,-2.16808 1.53279,-3.99736 1.88166,-4.25379 1.43392,-8.97119 -1.17627,-12.39331 l -1.90733,-2.50064 2.15581,-5.05342 c 1.18568,-2.77939 2.38273,-6.26305 2.66008,-7.74148 1.0775,-5.74368 -3.86055,-12.95324 -10.04921,-14.67184 -1.57041,-0.43611 -7.29029,-0.79483 -12.71084,-0.79714 -8.71229,-0.004 -10.24681,-0.20152 -13.2283,-1.705 -2.87887,-1.45172 -3.33837,-1.99606 -3.13784,-3.71716 0.62586,-5.37238 -3.12031,-11.89254 -7.80645,-13.58708 -2.31575,-0.83738 -2.6267,-1.29132 -3.00169,-4.38184 -1.62973,-13.43223 -5.42046,-18.18779 -14.4977,-18.18779 -3.11028,0 -4.89899,0.69946 -11.60226,4.53698 -7.77191,4.44929 -13.68471,6.80156 -17.0968,6.80156 -1.17961,0 -2.43722,-1.04791 -4.02203,-3.35135 -3.44944,-5.01359 -6.30646,-6.74724 -11.25209,-6.82781 -4.11337,-0.067 -4.19736,-0.11472 -7.62041,-4.3283 -6.0938,-7.50114 -10.66325,-9.79232 -16.43169,-8.23904 -4.75691,1.2809 -6.73273,3.34016 -10.81071,11.26723 -4.25411,8.26945 -7.44313,12.48606 -10.72787,14.18465 -2.11384,1.09312 -2.47732,1.04734 -6.1276,-0.77167 -5.17585,-2.57923 -10.6553,-2.63424 -14.32515,-0.1438 l -2.63756,1.78989 -4.46002,-1.90741 c -6.50801,-2.78326 -14.0137,-2.79938 -18.18917,-0.039 -4.74508,3.13689 -5.41925,5.34712 -5.61411,18.40554 -0.093,6.23211 -0.47284,12.43983 -0.84409,13.79494 -0.83732,3.05635 -2.91362,4.39827 -7.75597,5.01273 -4.67565,0.59332 -8.84753,3.28301 -10.50289,6.77142 -1.3729,2.89316 -1.5126,2.96046 -8.85454,4.26544 -9.97797,1.7735 -14.59516,6.52448 -14.10272,14.51134 0.23118,3.74958 0.8116,5.12159 4.5311,10.71072 5.22843,7.85655 6.60482,11.04356 6.60482,15.29329 0,3.0074 -0.28282,3.49513 -3.34344,5.76593 -4.11248,3.05122 -6.59517,7.24043 -6.86898,11.59048 -0.1891,3.00408 -0.70913,3.78314 -5.88032,8.80934 -6.73887,6.54991 -8.03174,9.68504 -6.5467,15.87539 1.20895,5.03948 4.00775,7.66694 13.46092,12.63684 7.41983,3.9009 12.95804,8.65066 12.95804,11.11327 0,0.52679 -0.85039,2.55716 -1.88976,4.51193 -1.24544,2.34237 -1.88976,4.76843 -1.88976,7.1156 0,2.55235 0.53545,4.35045 1.88976,6.34616 1.03937,1.53161 1.88851,3.02473 1.88698,3.31808 -0.002,0.29329 -1.01029,3.08453 -2.24169,6.20263 -1.2314,3.1181 -2.25062,6.83744 -2.26493,8.26525 -0.0394,3.92891 2.73487,8.92516 6.24627,11.24911 2.96924,1.96513 3.42394,2.03132 14.47819,2.10712 9.82522,0.0674 11.90953,0.29813 14.98458,1.65827 3.21775,1.42337 3.5723,1.8278 3.57611,4.07921 0.0106,6.24672 4.03701,12.73778 8.61396,13.88651 1.49643,0.3756 1.80733,1.15457 2.48945,6.23744 1.00859,7.51561 2.44396,10.78232 5.89388,13.41371 2.11874,1.61603 3.85348,2.21171 7.13168,2.44882 4.71648,0.34115 6.83817,-0.46107 14.95982,-5.65642 4.8545,-3.1054 11.23547,-5.53173 14.54772,-5.53173 1.80718,0 2.64882,0.58498 4.0783,2.83464 0.99066,1.55903 2.45304,3.41692 3.24973,4.12862 2.48933,2.22374 7.11412,3.77794 9.76318,3.28098 2.29227,-0.43005 2.6879,-0.166 5.92461,3.95379 6.29991,8.01877 10.81479,10.23048 17.2409,8.44576 z"
   id="path66" /></svg>
