<?xml version="1.0" encoding="UTF-8" standalone="no"?>
<!-- Created with Inkscape (http://www.inkscape.org/) -->

<svg
   width="233.595"
   height="74.389"
   viewBox="0 0 61.805338 19.68209"
   version="1.1"
   id="svg29172"
   inkscape:version="1.3 (0e150ed6c4, 2023-07-21)"
   sodipodi:docname="gun_mount_mosin.svg"
   xmlns:inkscape="http://www.inkscape.org/namespaces/inkscape"
   xmlns:sodipodi="http://sodipodi.sourceforge.net/DTD/sodipodi-0.dtd"
   xmlns="http://www.w3.org/2000/svg"
   xmlns:svg="http://www.w3.org/2000/svg">
  <sodipodi:namedview
     id="namedview29174"
     pagecolor="#505050"
     bordercolor="#ffffff"
     borderopacity="1"
     inkscape:pageshadow="0"
     inkscape:pageopacity="0"
     inkscape:pagecheckerboard="1"
     inkscape:document-units="px"
     showgrid="false"
     units="px"
     inkscape:zoom="3.1037317"
     inkscape:cx="103.26279"
     inkscape:cy="8.5381091"
     inkscape:window-width="1920"
     inkscape:window-height="1017"
     inkscape:window-x="-8"
     inkscape:window-y="-8"
     inkscape:window-maximized="1"
     inkscape:current-layer="layer1"
     inkscape:showpageshadow="2"
     inkscape:deskcolor="#d1d1d1" />
  <defs
     id="defs29169">
    <linearGradient
       x1="149.88675"
       y1="179.12709"
       x2="206.19997"
       y2="179.12709"
       gradientUnits="userSpaceOnUse"
       id="color-1">
      <stop
         offset="0"
         stop-color="#d89200"
         id="stop2" />
      <stop
         offset="1"
         stop-color="#ffd852"
         id="stop4" />
    </linearGradient>
    <radialGradient
       cx="233.49757"
       cy="179.54852"
       r="32.527519"
       gradientUnits="userSpaceOnUse"
       id="color-2">
      <stop
         offset="0"
         stop-color="#ffd852"
         id="stop7" />
      <stop
         offset="1"
         stop-color="#d89200"
         id="stop9" />
    </radialGradient>
    <linearGradient
       x1="270.29364"
       y1="179.44923"
       x2="310.86774"
       y2="179.44923"
       gradientUnits="userSpaceOnUse"
       id="color-3">
      <stop
         offset="0"
         stop-color="#ffd852"
         id="stop12" />
      <stop
         offset="1"
         stop-color="#d89200"
         id="stop14" />
    </linearGradient>
  </defs>
  <g
     inkscape:label="Layer 1"
     inkscape:groupmode="layer"
     id="layer1">
    <rect
       style="display:inline;fill:#302412;fill-opacity:1;stroke-width:0.0565795"
       id="rect557-2-9-3"
       width="44.117683"
       height="5.2916665"
       x="-50.107719"
       y="-5.2916665"
       rx="1.6536459"
       ry="1.6536026"
       transform="scale(-1)" />
    <g
       id="g1201"
       transform="translate(4.4597247)">
      <rect
         style="display:inline;fill:#302412;fill-opacity:1;stroke-width:0.158334"
         id="rect1020-2-7-3-2-1"
         width="4.1367345"
         height="15.491096"
         x="-42.472992"
         y="-19.68218"
         rx="1.6536459"
         ry="1.6536459"
         transform="scale(-1)" />
      <rect
         style="display:inline;fill:#785a2e;fill-opacity:1;stroke-width:0.0526471"
         id="rect1020-2-7-3-8"
         width="2.284677"
         height="3.1010845"
         x="-41.546993"
         y="-18.755951"
         rx="0.72760415"
         ry="0.72760415"
         transform="scale(-1)" />
      <rect
         style="display:inline;fill:#785a2e;fill-opacity:1;stroke-width:0.0583208"
         id="rect1020-2-7-3-8-5"
         width="2.284677"
         height="3.8055022"
         x="-41.546963"
         y="-9.6092453"
         rx="0.72760415"
         ry="0.73984098"
         transform="scale(-1)" />
    </g>
    <g
       id="g1206"
       transform="translate(6.4972467)">
      <rect
         style="display:inline;fill:#302412;fill-opacity:1;stroke-width:0.160238"
         id="rect1020-2-7-3-2-1-1"
         width="4.2434621"
         height="15.466866"
         x="-23.673359"
         y="-19.667952"
         rx="1.6536459"
         ry="1.6536459"
         transform="scale(-1)" />
      <rect
         style="display:inline;fill:#785a2e;fill-opacity:1;stroke-width:0.0526471"
         id="rect1020-2-7-3-8-2-0"
         width="2.284677"
         height="3.1010845"
         x="-22.693966"
         y="-18.755951"
         rx="0.72760415"
         ry="0.72760415"
         transform="scale(-1)" />
      <rect
         style="display:inline;fill:#785a2e;fill-opacity:1;stroke-width:0.0583201"
         id="rect1020-2-7-3-8-5-4-0"
         width="2.284677"
         height="3.8054049"
         x="-22.693966"
         y="-9.6091967"
         rx="0.73109031"
         ry="0.72760415"
         transform="scale(-1)" />
    </g>
    <rect
       style="display:inline;fill:#785a2e;fill-opacity:1;stroke-width:0.0585354"
       id="rect1018-7-2-6"
       width="41.736435"
       height="2.9104166"
       x="-48.917091"
       y="-4.1010404"
       rx="0.46302083"
       ry="0.46302083"
       transform="scale(-1)" />
    <g
       id="g1211"
       transform="translate(7.8078427)">
      <rect
         style="display:inline;fill:#302412;fill-opacity:1;stroke-width:0.161807"
         id="rect1020-2-7-3-2"
         width="4.3501897"
         height="15.384368"
         x="-5.7073793"
         y="-19.67123"
         rx="1.6536459"
         ry="1.6536459"
         transform="scale(-1)" />
      <rect
         style="display:inline;fill:#785a2e;fill-opacity:1;stroke-width:0.0583201"
         id="rect1020-2-7-3-8-5-4"
         width="2.284677"
         height="3.8054049"
         x="-4.674623"
         y="-9.6091967"
         rx="0.85204089"
         ry="0.72760415"
         transform="scale(-1)" />
      <rect
         style="display:inline;fill:#785a2e;fill-opacity:1;stroke-width:0.0526471"
         id="rect1020-2-7-3-8-2-0-3"
         width="2.284677"
         height="3.1010845"
         x="-4.674623"
         y="-18.755951"
         rx="0.72760415"
         ry="0.72760415"
         transform="scale(-1)" />
    </g>
    <g
       id="g16"
       transform="matrix(0.26458333,0,0,0.26458333,0.02130465,2.6363411)"
       style="clip-rule:evenodd;fill-rule:evenodd;image-rendering:optimizeQuality;shape-rendering:geometricPrecision;text-rendering:geometricPrecision">
      <rect
         style="fill:#3e3b38;fill-opacity:1;stroke:#080707;stroke-width:3.50001;stroke-linecap:round;stroke-linejoin:round;stroke-dasharray:none;stroke-opacity:1"
         id="rect16"
         width="17.237471"
         height="4.7168527"
         x="209.70758"
         y="35.215698" />
      <rect
         style="fill:#793a1d;fill-opacity:1;stroke:none;stroke-width:3.50001;stroke-linecap:round;stroke-linejoin:round;stroke-dasharray:none;stroke-opacity:1"
         id="rect15"
         width="86.121323"
         height="7.6537609"
         x="124.96656"
         y="33.747246" />
      <rect
         style="fill:#79391d;fill-opacity:1;stroke:#251109;stroke-width:3.5;stroke-linecap:round;stroke-linejoin:round;stroke-dasharray:none;stroke-opacity:1"
         id="rect2"
         width="19.924244"
         height="8.1312447"
         x="43.264477"
         y="33.508503" />
      <path
         id="rect1"
         style="fill:#79391d;stroke:#251109;stroke-width:3.5;stroke-linecap:round;stroke-linejoin:round"
         d="M 4.1136158,32.208382 H 43.264476 V 42.939869 H 4.1136158 A 2.3636085,2.3636085 0 0 1 1.7500073,40.576261 V 34.57199 a 2.3636085,2.3636085 0 0 1 2.3636085,-2.363608 z" />
      <rect
         style="fill:#716d69;fill-opacity:1;stroke:#181716;stroke-width:3.5;stroke-linecap:round;stroke-linejoin:round;stroke-dasharray:none;stroke-opacity:1"
         id="rect3"
         width="5.6704764"
         height="8.1312447"
         x="63.188713"
         y="33.508503" />
      <path
         style="fill:none;fill-opacity:1;stroke:#44403d;stroke-width:2.5;stroke-linecap:butt;stroke-linejoin:round;stroke-dasharray:none;stroke-opacity:1"
         d="m 195.81496,35.284437 v 4.579377"
         id="path15" />
      <path
         style="fill:none;fill-opacity:1;stroke:#44403d;stroke-width:2.5;stroke-linecap:butt;stroke-linejoin:round;stroke-dasharray:none;stroke-opacity:1"
         d="m 135.38703,35.284437 v 4.579377"
         id="path12" />
      <path
         style="fill:none;fill-opacity:1;stroke:#524e4b;stroke-width:2.5;stroke-linecap:butt;stroke-linejoin:round;stroke-dasharray:none;stroke-opacity:1"
         d="m 131.54827,35.284437 v 4.579377"
         id="path13" />
      <rect
         style="fill:none;fill-opacity:1;stroke:#251209;stroke-width:3.50001;stroke-linecap:round;stroke-linejoin:round;stroke-dasharray:none;stroke-opacity:1"
         id="rect12"
         width="86.121323"
         height="7.6537609"
         x="124.96656"
         y="33.747246" />
      <rect
         style="fill:#544e4e;fill-opacity:1;stroke:none;stroke-width:3.49999;stroke-linecap:round;stroke-linejoin:round;stroke-dasharray:none;stroke-opacity:1"
         id="rect11"
         width="60.653576"
         height="10.731603"
         x="68.184006"
         y="32.208324" />
      <rect
         style="fill:#716d69;fill-opacity:1;stroke:#181616;stroke-width:1.5;stroke-linecap:round;stroke-linejoin:round;stroke-dasharray:none;stroke-opacity:1"
         id="rect5"
         width="15.508925"
         height="5.7844334"
         x="78.380463"
         y="37.466892" />
      <path
         d="m 119.72492,36.265679 -6.89633,-1.319546 -0.14203,-2.62689 h -9.10255 v 10.509765 h 8.8799 l 0.23885,-2.404234 7.02219,-1.319545 z"
         style="fill:#4d4946;fill-opacity:1;stroke:#181616;stroke-width:1.49999;stroke-linecap:round;stroke-linejoin:round"
         id="path8" />
      <path
         style="fill:#4d4946;fill-opacity:1;stroke:#181616;stroke-width:1.5;stroke-linecap:round;stroke-linejoin:round;stroke-dasharray:none;stroke-opacity:1"
         d="m 82.029959,42.792767 v 5.978401"
         id="path9" />
      <circle
         style="fill:#181616;fill-opacity:1;stroke:none;stroke-width:1.5;stroke-linecap:round;stroke-linejoin:round;stroke-dasharray:none;stroke-opacity:1"
         id="path11"
         cx="82.029961"
         cy="50.30476"
         r="2.1804321" />
      <rect
         style="fill:none;fill-opacity:1;stroke:#181616;stroke-width:3.49999;stroke-linecap:round;stroke-linejoin:round;stroke-dasharray:none;stroke-opacity:1"
         id="rect4"
         width="60.653576"
         height="10.731603"
         x="68.184006"
         y="32.208324" />
    </g>
    <path
       style="fill:#552200;fill-opacity:0;stroke:#5c5d5b;stroke-width:0.0386596;stroke-opacity:0"
       d="m 44.006328,25.56127 c -0.01156,-0.03011 -0.01389,-1.826339 -0.0052,-3.991615 0.01701,-4.234372 0.01969,-4.293483 0.225303,-4.980677 0.233156,-0.779225 0.579556,-1.096151 1.433727,-1.31173 0.639008,-0.161276 0.994907,-0.176669 4.084632,-0.176669 3.139535,0 3.142453,1.63e-4 3.535484,0.197523 0.255916,0.128508 0.542798,0.364064 0.685647,0.562978 0.130397,0.181577 0.131011,0.184498 0.180318,0.859127 0.02721,0.372312 0.08319,0.810257 0.124399,0.973211 0.26797,1.059679 1.177947,1.955826 2.172116,2.139106 0.20057,0.03698 0.822066,0.06012 2.06842,0.07704 1.778939,0.02415 1.781815,0.02406 1.855576,-0.05745 0.200286,-0.221316 0.43227,-0.233388 0.678738,-0.03532 l 0.141856,0.113999 1.926983,0.03074 1.92699,0.03074 0.2235,0.104102 c 0.28754,0.133935 0.64298,0.473905 0.7964,0.761756 l 0.12056,0.226185 v 2.265847 2.265847 H 55.104555 c -9.519468,0 -11.080176,-0.0077 -11.098231,-0.05475 z m 6.086168,-0.488744 c 0.878007,-0.217684 1.625458,-0.651672 2.271006,-1.318602 0.380418,-0.393018 0.610542,-0.715053 0.838002,-1.172691 0.344678,-0.693478 0.493189,-1.327687 0.493189,-2.106161 0,-1.082516 -0.309642,-2.021184 -0.945608,-2.866564 -1.726991,-2.295675 -5.081233,-2.539358 -7.115736,-0.516954 -0.408739,0.40631 -0.65677,0.744229 -0.906991,1.235696 -0.558594,1.097156 -0.659826,2.427277 -0.274477,3.60649 0.59359,1.816455 2.251687,3.118443 4.139729,3.250638 0.491355,0.0344 1.091317,-0.01031 1.500886,-0.111852 z m 13.037811,-0.214057 c 0.36136,-0.10614 0.63955,-0.28063 0.91593,-0.574498 0.65143,-0.692646 0.87617,-1.480362 0.61555,-2.157509 -0.20057,-0.521093 -0.67672,-1.101441 -1.11196,-1.355266 -0.38996,-0.227423 -0.57671,-0.266771 -1.363772,-0.287343 -0.699254,-0.01828 -0.728064,-0.0161 -0.706495,0.05334 0.01238,0.03982 0.06677,0.278164 0.120883,0.529661 0.08264,0.384041 0.12293,0.49238 0.251594,0.676545 0.481875,0.68974 0.255427,1.578801 -0.496406,1.948927 -0.224488,0.110515 -0.294126,0.126014 -0.566068,0.125987 -0.254185,-2.5e-5 -0.349263,-0.01839 -0.527359,-0.101874 -0.663189,-0.310869 -0.95486,-1.025643 -0.6955,-1.70441 0.02212,-0.05791 0.09981,-0.191903 0.17263,-0.297765 0.108977,-0.158423 0.140732,-0.252651 0.179494,-0.532597 0.0259,-0.187067 0.06061,-0.415371 0.07713,-0.507344 0.02265,-0.126105 0.01723,-0.172139 -0.02207,-0.187213 -0.02865,-0.011 -0.387636,-0.01299 -0.797743,-0.0044 -0.828275,0.01727 -0.969983,0.04798 -1.333891,0.289055 -0.435486,0.288492 -0.905709,0.868869 -1.09937,1.356911 -0.06703,0.168925 -0.08743,0.297664 -0.08704,0.549249 5.29e-4,0.284095 0.01767,0.369036 0.12718,0.627063 0.314923,0.742067 0.882327,1.348383 1.443119,1.542091 0.188535,0.06512 0.378085,0.07068 2.449262,0.07185 1.944142,0.0011 2.273042,-0.007 2.454892,-0.06041 z M 61.045511,23.36755 c 0.195651,-0.05862 0.440108,-0.270639 0.543666,-0.471528 0.154395,-0.299504 0.08174,-0.80464 -0.142497,-0.990741 -0.104558,-0.08677 -0.134189,-0.171575 -0.273151,-0.781764 -0.14896,-0.654095 -0.241154,-0.881649 -0.389318,-0.960945 -0.09209,-0.04929 -0.106503,-0.04622 -0.173839,0.03694 -0.100396,0.123982 -0.177382,0.407987 -0.247402,0.912657 -0.0719,0.518233 -0.114387,0.655282 -0.259032,0.835504 -0.311499,0.388121 -0.260302,0.919425 0.119306,1.238126 0.254307,0.213503 0.520163,0.272269 0.822267,0.181756 z"
       id="path10" />
    <path
       style="fill:#2b1100;fill-opacity:1;stroke:#171717;stroke-width:0.0426233;stroke-opacity:0"
       d="M 10.421422,19.612149 C 9.9315807,19.477296 9.5608397,19.177137 9.3464827,18.741859 l -0.139829,-0.283941 -0.01225,-1.993634 -0.01225,-1.993634 h -4.082515 c -4.56501005,0 -4.35151805,0.01359 -4.70725705,-0.299548 -0.331668,-0.291946 -0.37107,-0.460906 -0.37107,-1.5912 0,-1.065645 0.02772,-1.216284 0.277512,-1.508109 0.08049,-0.09404 0.245401,-0.214777 0.370641,-0.271366 l 0.225627,-0.10195 4.14386405,-0.01167 4.143864,-0.01167 0.01349,-2.5883559 c 0.0074,-1.423595 0.02876,-2.629037 0.04742,-2.67876 0.03382,-0.09011 0.03078,-0.09047 -0.939285,-0.111186 -0.874094,-0.01867 -0.998319,-0.03044 -1.219678,-0.115635 -0.310022,-0.119313 -0.560184,-0.308892 -0.765043,-0.579765 -0.290834,-0.384554 -0.303418,-0.45489 -0.321135,-1.794755 -0.0093,-0.704989 0.002,-1.296571 0.02745,-1.434232 0.09712,-0.52539097 0.42178,-0.95874997 0.891496,-1.18998997 l 0.284034,-0.13983 H 28.04531 48.889057 l 0.241893,0.113396 c 0.2897,0.135804 0.587949,0.400862 0.736729,0.654739 0.21776,0.37158197 0.243242,0.59023197 0.227357,1.95071297 -0.01691,1.44699 -0.03858,1.547077 -0.427355,1.972455 -0.429797,0.470267 -0.79106,0.569114 -2.088235,0.571374 l -0.755515,0.0013 0.04157,0.109333 c 0.02548,0.067 0.04157,1.189363 0.04157,2.898392 V 11.10339 h 4.564969 4.564967 l 0.144921,0.144919 0.14492,0.14492 0.0041,0.505087 c 0.0024,0.277799 7.94e-4,0.576788 -0.0032,0.664422 l -0.0074,0.159334 1.654879,0.01168 1.654881,0.01168 -1.651659,0.01014 -1.651656,0.01014 v 0.489497 c 0,0.480602 -0.0024,0.492027 -0.124367,0.628696 l -0.124367,0.139198 -4.574866,0.02131 -4.574865,0.02131 -0.0213,2.216417 -0.0213,2.216418 -0.134109,0.256433 c -0.165026,0.315548 -0.492361,0.628654 -0.815621,0.780166 -0.238257,0.111671 -0.262389,0.114234 -1.075777,0.114234 h -0.832012 l -0.280628,-0.138138 c -0.337973,-0.166384 -0.637288,-0.471247 -0.796798,-0.811578 l -0.114234,-0.243723 -0.01212,-2.205762 -0.01212,-2.205762 h -4.112755 -4.112755 l -0.03705,0.0959 c -0.02037,0.05275 -0.08856,0.143855 -0.151529,0.202462 l -0.114485,0.106558 -2.063832,0.01184 -2.063832,0.01184 v 1.891763 c 0,1.720256 -0.0071,1.914709 -0.07878,2.144873 -0.179112,0.575489 -0.634243,0.986062 -1.233993,1.113182 -0.334089,0.07081 -1.346703,0.06103 -1.641903,-0.01586 -0.526878,-0.137234 -0.880507,-0.426934 -1.10843,-0.908051 L 25.95766,18.413327 25.94538,16.441994 25.9331,14.470661 h -2.00169 -2.00169 l 1e-6,0.458202 2e-6,0.458202 0.147711,0.117859 c 0.182651,0.145738 0.263174,0.394937 0.194678,0.602482 -0.152935,0.463397 -0.777146,0.548999 -1.026092,0.140713 -0.160837,-0.263781 -0.07948,-0.633908 0.172001,-0.782459 l 0.128096,-0.07568 v -0.458347 -0.458352 l -1.836097,-0.01197 -1.836115,-0.01197 -0.146448,-0.159838 -0.146448,-0.159838 h -2.044221 -2.044221 l -0.01178,2.163139 -0.01179,2.163139 -0.113396,0.241894 c -0.215097,0.458843 -0.601788,0.782573 -1.08516,0.908475 -0.310092,0.08077 -1.562479,0.08472 -1.849018,0.0058 z m 1.544954,-0.881358 c 0.231992,-0.06443 0.443131,-0.300777 0.498236,-0.557725 0.05513,-0.257053 0.05852,-1.697525 0.0045,-1.930245 -0.04712,-0.20315 -0.155003,-0.355294 -0.342367,-0.482813 -0.130872,-0.08907 -0.187075,-0.0959 -0.788967,-0.0959 -0.603486,0 -0.657947,0.0067 -0.791871,0.09692 -0.0791,0.0533 -0.187428,0.161634 -0.240732,0.240732 -0.09423,0.139828 -0.09692,0.17265 -0.09692,1.183902 0,0.812461 0.01316,1.065277 0.06013,1.155185 0.08538,0.163427 0.289893,0.347243 0.434486,0.390512 0.17578,0.0526 1.07346,0.0522 1.263455,-5.56e-4 z m 16.896885,-0.0899 c 0.294291,-0.194871 0.330248,-0.323698 0.347885,-1.246395 0.0085,-0.443135 0.0027,-0.907296 -0.01281,-1.031467 -0.03243,-0.259588 -0.154281,-0.463198 -0.360259,-0.602008 -0.133924,-0.09025 -0.188386,-0.09692 -0.791871,-0.09692 -0.603489,0 -0.657948,0.0067 -0.791872,0.09692 -0.0791,0.0533 -0.187428,0.161634 -0.240734,0.240732 -0.09423,0.139828 -0.09692,0.17265 -0.09692,1.183902 0,1.128974 0.0057,1.161449 0.245727,1.389523 0.182406,0.173355 0.307456,0.198091 0.950947,0.188104 0.547708,-0.0085 0.587787,-0.01504 0.749903,-0.122391 z m 16.752247,0.03776 c 0.07498,-0.04039 0.19006,-0.143847 0.255741,-0.229896 l 0.119417,-0.156452 0.01291,-1.003688 c 0.01471,-1.144006 -0.01124,-1.28188 -0.279794,-1.48672 -0.152175,-0.116067 -0.155231,-0.116481 -0.859322,-0.116481 -0.665167,0 -0.714509,0.0056 -0.841472,0.0962 -0.07418,0.05291 -0.174874,0.178844 -0.223772,0.279853 -0.08213,0.169651 -0.08883,0.256562 -0.08797,1.139879 7.94e-4,0.836336 0.01074,0.977602 0.07922,1.12672 0.170477,0.371242 0.381278,0.452246 1.134605,0.435986 0.426101,-0.0092 0.585594,-0.02892 0.690428,-0.0854 z M 11.018149,12.573908 V 11.614881 H 6.0397337 c -3.81527,0 -4.990366,0.01195 -5.029564,0.05115 -0.0722901,0.07229 -0.0722901,1.743464 0,1.815758 0.0392,0.0392 1.214294,0.05115 5.029564,0.05115 h 4.9784153 z m 9.547647,0.429279 c 0,-0.424758 0.01327,-0.543023 0.06698,-0.596728 0.05907,-0.05907 0.313657,-0.06698 2.155285,-0.06698 1.358011,0 2.117137,0.01543 2.17075,0.04412 0.075,0.04014 0.08244,0.09401 0.08244,0.596728 v 0.552605 h 1.086897 1.086898 v -0.959027 -0.959027 h -4.34759 -4.347589 v 0.959027 0.959027 h 1.022962 1.022963 z m 4.091848,0.124825 V 12.72309 h -1.854119 -1.854119 v 0.404922 0.404923 h 1.854119 1.854119 z m 4.978748,0.248259 c 0.0072,-0.07444 0.03953,-0.15727 0.07181,-0.18406 0.03228,-0.02679 0.438756,-0.120071 0.903282,-0.207291 l 0.844595,-0.158582 0.01267,-0.216405 0.0127,-0.216406 -0.860632,-0.16555 c -0.590497,-0.113588 -0.871363,-0.185618 -0.894829,-0.229485 -0.01881,-0.03516 -0.04569,-0.135862 -0.05973,-0.223773 l -0.02553,-0.159838 H 28.64101 27.64129 v 0.959813 0.959812 l 0.990994,-0.01144 0.990995,-0.01144 z m 4.014793,-0.802363 v -0.959027 h -1.790184 c -2.145678,0 -2.228559,0.02405 -0.92696,0.268928 0.602581,0.11337 0.879105,0.183358 0.916305,0.231919 0.03456,0.04511 0.05328,0.221618 0.05328,0.502344 0,0.359668 -0.01259,0.443482 -0.07459,0.496056 -0.04102,0.03479 -0.419841,0.127191 -0.841812,0.205326 -0.421973,0.07813 -0.815173,0.156483 -0.873781,0.174108 -0.05861,0.01763 0.71341,0.03369 1.715593,0.03571 l 1.822151,0.0037 z m -17.390355,0 v -0.61804 h -2.152483 -2.152482 v 0.61804 0.618039 h 2.152482 2.152483 z m 1.354464,0.01065 -0.01183,-0.607384 -0.202461,-0.01299 -0.202461,-0.01299 v 0.620375 0.620375 h 0.214287 0.214287 z m 37.773837,-0.01065 V 12.041115 H 44.989014 34.5889 v 0.532793 0.532793 H 44.989014 55.389131 Z M 42.815221,8.3432521 c 0,-1.574515 0.01704,-2.819531 0.03965,-2.898392 l 0.03965,-0.138245 h -6.41641 c -6.096365,0 -6.414587,0.0037 -6.379882,0.07459 0.02008,0.04102 0.04189,1.248695 0.04844,2.683711 l 0.01191,2.6091209 2.035947,0.01222 c 1.89978,0.0114 2.04402,0.01751 2.156643,0.09134 0.06638,0.04352 0.141642,0.134623 0.167248,0.202461 l 0.04656,0.123342 h 4.125129 4.125127 z M 17.701753,10.892357 c 0.0541,-0.07317 0.159978,-0.144395 0.2531,-0.170255 0.105757,-0.02937 1.487024,-0.04454 4.069539,-0.0447 l 3.909442,-2.38e-4 0.01191,-2.6106849 c 0.0066,-1.435876 0.02835,-2.64425 0.04844,-2.685275 0.0347,-0.07087 -0.278821,-0.07459 -6.28127,-0.07459 h -6.317792 l 0.03576,0.0959 c 0.01967,0.05275 0.04149,1.337842 0.0485,2.855769 l 0.01275,2.7598659 h 2.058314 2.058314 z m -5.68019,-1.3608939 c 0.215592,-0.09793 0.386984,-0.29825 0.447516,-0.523049 0.0303,-0.112509 0.04187,-0.608796 0.03309,-1.418509 l -0.01351,-1.245455 -0.114402,-0.172766 c -0.07202,-0.108757 -0.190454,-0.21007 -0.319675,-0.273449 -0.179459,-0.08802 -0.266916,-0.100718 -0.695443,-0.100963 -0.288417,-1.65e-4 -0.553031,0.022 -0.642897,0.05385 -0.1742,0.06175 -0.414011,0.279582 -0.470052,0.426982 -0.02084,0.0548 -0.03788,0.703533 -0.03788,1.441622 0,1.434653 0.0039,1.463962 0.220028,1.665782 0.192642,0.179867 0.366921,0.222687 0.909493,0.223464 0.406388,5.82e-4 0.546875,-0.01535 0.683738,-0.07751 z m 16.869982,-0.06061 c 0.305007,-0.232885 0.305493,-0.235607 0.305493,-1.713389 0,-0.72673 -0.01437,-1.372595 -0.03196,-1.435256 -0.04302,-0.153381 -0.225502,-0.363918 -0.388466,-0.44819 -0.08157,-0.04218 -0.284213,-0.07679 -0.522658,-0.08926 -0.726702,-0.03801 -1.025202,0.05172 -1.241939,0.373338 l -0.0985,0.146165 0.01225,1.429888 c 0.01214,1.419882 0.01294,1.430862 0.111572,1.569155 0.19235,0.269677 0.331806,0.308981 1.054981,0.297326 0.631285,-0.01017 0.645644,-0.0125 0.799235,-0.129777 z m 16.663598,0.08204 c 0.16587,-0.07097 0.349806,-0.260317 0.411501,-0.423603 0.02852,-0.07549 0.04499,-0.605094 0.04439,-1.427885 -0.0011,-1.502197 -0.01328,-1.565561 -0.344218,-1.784589 -0.177305,-0.117353 -0.194755,-0.120034 -0.781222,-0.120034 -0.697222,0 -0.852628,0.04987 -1.040561,0.333914 l -0.113414,0.171408 v 1.416373 1.416374 l 0.1309,0.163773 c 0.218681,0.273596 0.342681,0.312812 0.989333,0.312888 0.386024,4.5e-5 0.609766,-0.0186 0.703286,-0.05862 z m 3.230851,-5.600246 0.124375,-0.139199 v -1.161987 c 0,-1.271252 -0.0024,-1.284363 -0.256209,-1.415628 -0.10877,-0.05625 -2.514931,-0.06369 -20.585895,-0.06369 -22.1182013,0 -20.6532043,-0.01535 -20.8167183,0.218099 -0.06007,0.08576 -0.0695,0.254591 -0.0695,1.243383 0,0.727017 0.01653,1.17504 0.04534,1.228876 0.02494,0.0466 0.106457,0.122023 0.18115,0.167608 0.134082,0.08183 0.396667,0.08275 20.6944463,0.07231 l 20.558643,-0.01057 z"
       id="path1" />
    <path
       style="fill:#552200;fill-opacity:1;stroke:#171717;stroke-width:0.120557;stroke-opacity:0"
       d="m 7.2694137,3.8479701 c -0.09508,-0.247784 -0.09508,-2.14364 0,-2.391424 0.06633,-0.172866 2.009583,-0.190696 20.7832253,-0.190696 18.773642,0 20.71689,0.01783 20.783226,0.190696 0.09508,0.247784 0.09508,2.14364 0,2.391424 -0.06634,0.172866 -2.009584,0.190697 -20.783226,0.190697 -18.7736423,0 -20.7168903,-0.01783 -20.7832253,-0.190697 z"
       id="path2" />
    <path
       style="fill:#552200;fill-opacity:1;stroke:#171717;stroke-width:0.0602787;stroke-opacity:0"
       d="m 27.395221,9.5395751 c -0.112932,-0.04171 -0.260731,-0.150556 -0.328446,-0.241884 -0.1157,-0.156049 -0.123301,-0.253076 -0.126204,-1.610845 l -0.0031,-1.444794 0.197067,-0.197513 0.197064,-0.197514 h 0.727128 0.727128 l 0.171624,0.192081 c 0.227833,0.254988 0.256133,0.48768 0.23045,1.894756 -0.0226,1.238598 -0.04746,1.355837 -0.326099,1.538407 -0.198472,0.130044 -1.175364,0.174875 -1.466625,0.06731 z"
       id="path3" />
    <path
       style="fill:#552200;fill-opacity:1;stroke:#171717;stroke-width:0.0602787;stroke-opacity:0"
       d="m 44.209396,9.5356881 c -0.120875,-0.04163 -0.268177,-0.160122 -0.349608,-0.281225 -0.138861,-0.206516 -0.14048,-0.227787 -0.122645,-1.61141 l 0.01807,-1.402131 0.197065,-0.196948 0.197064,-0.196949 h 0.727131 0.727127 l 0.170556,0.190885 c 0.219414,0.245568 0.26302,0.625072 0.232519,2.023693 -0.02111,0.968525 -0.03242,1.055631 -0.160163,1.235032 -0.08493,0.119268 -0.222814,0.216726 -0.360887,0.255073 -0.297587,0.08265 -1.015936,0.07363 -1.276236,-0.01602 z"
       id="path4" />
    <path
       style="fill:#552200;fill-opacity:1;stroke:#171717;stroke-width:0.0602787;stroke-opacity:0"
       d="m 44.379917,18.72306 c -0.564184,-0.08219 -0.654836,-0.291708 -0.654836,-1.513515 0,-1.420303 0.0669,-1.506966 1.163341,-1.506966 0.703739,0 0.717151,0.0026 0.884838,0.17027 0.210087,0.210085 0.269354,0.641817 0.231479,1.686151 -0.03608,0.994807 -0.136787,1.119115 -0.953529,1.177003 -0.215495,0.01528 -0.517578,0.0094 -0.671293,-0.01294 z"
       id="path5" />
    <path
       style="fill:#552200;fill-opacity:1;stroke:#171717;stroke-width:0.0602787;stroke-opacity:0"
       d="M 27.628181,18.73246 C 27.272237,18.70447 27.038626,18.518082 26.966,18.204142 26.89033,17.877059 26.89317,16.449243 26.97,16.17248 c 0.111199,-0.40038 0.271886,-0.469901 1.086096,-0.469901 h 0.710578 l 0.183182,0.183181 c 0.237405,0.237407 0.266083,0.417258 0.237395,1.488898 -0.02477,0.924837 -0.0622,1.077082 -0.303369,1.233492 -0.146809,0.09521 -0.801542,0.160028 -1.255736,0.12431 z"
       id="path6" />
    <path
       style="fill:#552200;fill-opacity:1;stroke:#171717;stroke-width:0.0602787;stroke-opacity:0"
       d="m 10.833241,18.724454 c -0.539091,-0.09624 -0.623353,-0.307259 -0.622184,-1.558182 9.52e-4,-1.015512 0.03186,-1.153572 0.303457,-1.355117 0.129305,-0.09596 0.260218,-0.113924 0.826269,-0.113409 0.73228,6.61e-4 0.837864,0.03506 1.017324,0.331411 0.09781,0.161512 0.112509,0.316117 0.112509,1.183107 0,1.074039 -0.03223,1.203514 -0.35171,1.412844 -0.162434,0.106431 -0.918646,0.164864 -1.285665,0.09935 z"
       id="path7" />
    <path
       style="fill:#552200;fill-opacity:1;stroke:#171717;stroke-width:0.0602787;stroke-opacity:0"
       d="m 10.722536,9.5276161 c -0.285602,-0.105995 -0.43472,-0.271662 -0.484798,-0.538601 -0.02011,-0.10718 -0.02775,-0.767029 -0.017,-1.466333 0.01801,-1.170688 0.02912,-1.282166 0.140122,-1.40653 0.193157,-0.216408 0.469896,-0.299266 0.999523,-0.299266 0.389152,0 0.538369,0.02661 0.719208,0.128244 0.376675,0.211704 0.39102,0.276543 0.39102,1.767427 0,1.450564 -0.01648,1.530552 -0.362069,1.756989 -0.213048,0.139594 -1.069641,0.175483 -1.386011,0.05807 z"
       id="path14" />
    <rect
       style="fill:#552200;fill-opacity:1;stroke:#171717;stroke-width:0.264583;stroke-opacity:0"
       id="rect14"
       width="42.074478"
       height="3.0742099"
       x="7.1359577"
       y="1.1452928"
       rx="0.52794886"
       ry="0.37207028" />
  </g>
</svg>
