<?xml version="1.0" encoding="UTF-8" standalone="no"?>
<svg
   width="525"
   height="582.15503"
   viewBox="0 0 525 582.15503"
   fill="none"
   version="1.1"
   id="svg52"
   sodipodi:docname="oak_tree_1.svg"
   inkscape:version="1.3 (0e150ed6c4, 2023-07-21)"
   xml:space="preserve"
   xmlns:inkscape="http://www.inkscape.org/namespaces/inkscape"
   xmlns:sodipodi="http://sodipodi.sourceforge.net/DTD/sodipodi-0.dtd"
   xmlns="http://www.w3.org/2000/svg"
   xmlns:svg="http://www.w3.org/2000/svg"><defs
     id="defs56" /><sodipodi:namedview
     id="namedview54"
     pagecolor="#505050"
     bordercolor="#ffffff"
     borderopacity="1"
     inkscape:pageshadow="0"
     inkscape:pageopacity="0"
     inkscape:pagecheckerboard="1"
     showgrid="false"
     inkscape:zoom="0.5421567"
     inkscape:cx="-213.03804"
     inkscape:cy="308.95127"
     inkscape:window-width="1920"
     inkscape:window-height="1017"
     inkscape:window-x="-8"
     inkscape:window-y="-8"
     inkscape:window-maximized="1"
     inkscape:current-layer="svg52"
     height="609.877px"
     inkscape:showpageshadow="2"
     inkscape:deskcolor="#505050" /><path
     d="M 295.11918,124.51416 232.24853,240.0466 c 0,0 -22.69183,19.07205 -36.74179,31.84288 -28.36437,25.77982 -69.40122,69.40184 -69.40122,69.40184 l 3.26601,68.17608 16.35158,-56.31893 82.85227,-44.5172 31.4343,73.89215 -73.22282,50.69936 -10.87574,75.855 30.38102,-56.34972 c 0,0 38.73543,-21.02669 56.57557,-32.64568 18.97145,-12.35608 29.80202,-24.49453 29.80202,-24.49453 l 20.41073,28.57627 -13.06238,75.52444 43.83761,-82.89128 -70.37505,-108.98113 83.68997,-54.70512 14.69671,-61.23713 -32.11801,41.16312 -67.90096,26.19661 41.23211,-109.3507 52.33369,-29.77122 z"
     fill="#5b3e24"
     id="path2"
     style="stroke-width:2.05319;opacity:0.9" /><path
     d="m 232.27112,239.63801 5.71607,-40.0082 -20.00421,-68.17629 42.45787,-61.644895 -12.65585,72.667435 31.84288,57.15375 -7.34836,59.60177 86.54801,17.55475 55.92882,-29.39343 66.5438,24.08594 -66.5438,8.16553 -55.92882,40.00841 -83.68997,-11.02357 c 13.59826,34.90213 20.81932,88.99746 20.81932,88.99746 l -26.94398,55.11371 -11.83868,50.21274 -15.51388,-61.64489 15.51388,-54.29654 c 0,0 -11.41982,-50.42628 -28.16973,-78.38248 l -45.31404,16.33105 c -25.75478,1.54605 -61.57899,-8.76916 -61.57899,-8.76916 l -47.223311,20.53187 37.983961,-45.00791 h 51.6313 l 31.02633,-20.23622 -24.08635,-31.84083 -15.43155,-40.0082 -46.19672,-33.94021 66.72859,19.50528 c 0,0 30.79761,48.25072 55.72741,54.44313 z"
     fill="#6d4a2c"
     stroke="#1b1917"
     stroke-width="12.3191"
     stroke-miterlimit="16"
     stroke-linejoin="round"
     id="path4"
     style="stroke:#312114;stroke-opacity:1;stroke-width:9;stroke-miterlimit:16;stroke-dasharray:none;fill:#88582e;fill-opacity:1" /><path
     opacity="0.95"
     d="m 122.43155,425.38987 c 66.51259,0 120.43196,-53.73602 120.43196,-120.02317 0,-66.28715 -53.91937,-120.02399 -120.43196,-120.02399 C 55.919162,185.34271 2,239.07955 2,305.3667 2,371.65385 55.919162,425.38987 122.43155,425.38987 Z"
     fill="#3a4f3f"
     id="path6"
     style="stroke-width:2.05319;fill:#a3cb04;fill-opacity:0.52282161" /><path
     opacity="0.95"
     d="m 258.02014,253.17262 c 70.14919,0 127.01632,-56.67515 127.01632,-126.58659 0,-69.911439 -56.86713,-126.58627414101 -127.01632,-126.58627414101 -70.14899,0 -127.01612,56.67483514101 -127.01612,126.58627414101 0,69.91144 56.86713,126.58659 127.01612,126.58659 z"
     fill="#3a4f3f"
     id="path8"
     style="stroke-width:2.05319;fill:#a3cb04;fill-opacity:0.52282161" /><path
     opacity="0.95"
     d="m 269.3989,582.15482 c 66.513,0 120.43176,-53.73601 120.43176,-120.02317 0,-66.28715 -53.91876,-120.02317 -120.43176,-120.02317 -66.51259,0 -120.43155,53.73602 -120.43155,120.02317 0,66.28716 53.91896,120.02317 120.43155,120.02317 z"
     fill="#3a4f3f"
     id="path10"
     style="stroke-width:2.05319;fill:#a3cb04;fill-opacity:0.52282161" /><path
     opacity="0.95"
     d="m 406.56824,392.72982 c 66.513,0 120.43175,-53.73602 120.43175,-120.02317 0,-66.28715 -53.91875,-120.02399 -120.43175,-120.02399 -66.513,0 -120.43176,53.73684 -120.43176,120.02399 0,66.28715 53.91876,120.02317 120.43176,120.02317 z"
     fill="#3a4f3f"
     id="path12"
     style="stroke-width:2.05319;fill:#a3cb04;fill-opacity:0.52282161" /><path
     opacity="0.85"
     d="m 148.55918,263.72395 c 45.76965,0 82.87218,-36.92041 82.87218,-82.46462 0,-45.54421 -37.10253,-82.465038 -82.87218,-82.465038 -45.76965,0 -82.873211,36.920828 -82.873211,82.465038 0,45.54421 37.103561,82.46462 82.873211,82.46462 z"
     fill="#485e52"
     id="path14"
     style="stroke-width:2.05319;fill:#85a604;fill-opacity:0.58506227;opacity:0.8" /><path
     opacity="0.85"
     d="m 409.60022,353.27506 c 45.76965,0 82.87218,-36.92041 82.87218,-82.46462 0,-45.54421 -37.10253,-82.46504 -82.87218,-82.46504 -45.76965,0 -82.87321,36.92083 -82.87321,82.46504 0,45.54421 37.10356,82.46462 82.87321,82.46462 z"
     fill="#485e52"
     id="path14-3"
     style="opacity:0.8;fill:#85a604;fill-opacity:0.58506227;stroke-width:2.05319" /><path
     opacity="0.85"
     d="m 263.68283,567.45606 c 45.76965,0 82.8728,-36.92042 82.8728,-82.46422 0,-45.5438 -37.10315,-82.46627 -82.8728,-82.46627 -45.76965,0 -82.87342,36.92247 -82.87342,82.46627 0,45.5438 37.10377,82.46422 82.87342,82.46422 z"
     fill="#485e52"
     id="path16"
     style="stroke-width:2.05319;fill:#85a604;fill-opacity:0.58506227;opacity:0.8" /><path
     opacity="0.85"
     d="m 278.3816,137.85351 c 30.88815,0 55.92882,-24.85794 55.92882,-55.521263 0,-30.663531 -25.04067,-55.521265 -55.92882,-55.521265 -30.89021,0 -55.93088,24.857734 -55.93088,55.521265 0,30.663323 25.04067,55.521263 55.93088,55.521263 z"
     fill="#485e52"
     id="path20"
     style="stroke-width:2.05319;fill:#85a604;fill-opacity:0.58506227;opacity:0.8" /><path
     opacity="0.85"
     d="m 84.87321,432.73617 c 45.76965,0 82.87321,-36.92041 82.87321,-82.46421 0,-45.54586 -37.10356,-82.46627 -82.87321,-82.46627 C 39.103764,267.80569 2,304.7261 2,350.27196 c 0,45.5438 37.103764,82.46421 82.87321,82.46421 z"
     fill="#485e52"
     id="path22"
     style="stroke-width:2.05319;fill:#85a604;fill-opacity:0.58506227;opacity:0.8" /></svg>
