<?xml version="1.0" encoding="UTF-8" standalone="no"?>
<svg
   width="520.94202"
   height="550"
   viewBox="0 0 520.94201 550"
   fill="none"
   version="1.1"
   id="svg48"
   sodipodi:docname="oak_tree_2.svg"
   inkscape:version="1.3 (0e150ed6c4, 2023-07-21)"
   xmlns:inkscape="http://www.inkscape.org/namespaces/inkscape"
   xmlns:sodipodi="http://sodipodi.sourceforge.net/DTD/sodipodi-0.dtd"
   xmlns="http://www.w3.org/2000/svg"
   xmlns:svg="http://www.w3.org/2000/svg">
  <defs
     id="defs52" />
  <sodipodi:namedview
     id="namedview50"
     pagecolor="#505050"
     bordercolor="#ffffff"
     borderopacity="1"
     inkscape:pageshadow="0"
     inkscape:pageopacity="0"
     inkscape:pagecheckerboard="1"
     showgrid="false"
     width="520.942px"
     inkscape:zoom="0.18025662"
     inkscape:cx="-2576.8818"
     inkscape:cy="108.17911"
     inkscape:window-width="1920"
     inkscape:window-height="1017"
     inkscape:window-x="-8"
     inkscape:window-y="-8"
     inkscape:window-maximized="1"
     inkscape:current-layer="svg48"
     height="604.001px"
     inkscape:showpageshadow="2"
     inkscape:deskcolor="#505050" />
  <path
     d="m 351.49006,260.43046 c 0,0 -34.60264,-4.55297 -47.351,-4.55297 l -32.78145,-14.56954 -17.30133,-101.98676 -75.57946,-40.066226 48.26158,47.350996 2.7318,37.33444 11.83774,90.149 -31.87085,16.39073 -46.44041,-11.83774 -48.26158,30.04967 40.97682,-7.28477 35.51324,15.48013 60.09934,-5.46358 43.70861,5.46358 25.49668,24.58609 28.22848,50.99338 -15.48012,32.78146 34.60264,-30.96027 -7.28477,-50.08278 -48.26159,-56.45696 32.78146,-9.10595 39.15563,12.74834 c -9.71296,-8.80182 -32.78146,-30.96027 -32.78146,-30.96027 z"
     fill="#5b3e24"
     id="path2"
     style="opacity:0.9;stroke-width:1.82119" />
  <path
     d="m 251.4192,313.17948 -29.73643,20.01854 -32.99271,53.69603 -65.82334,8.69254 55.36423,-34.86489 18.69818,-54.93809 43.60845,-30.59238 -39.89139,-67.41325 -52.59785,-19.34835 -23.69918,-58.12698 44.93246,38.95494 59.58576,13.03827 42.49206,61.651 c 14.8937,-29.70001 27.4235,-47.25812 27.4235,-47.25812 l 49.06473,-22.7649 34.60266,-42.79801 -23.6755,69.20529 -42.79801,30.04967 -17.19388,43.93627 34.85762,31.16241 57.56369,16.39073 29.13871,59.18875 -50.4676,-36.42384 -48.78646,-7.28477 -26.86623,-18.91126 2.28014,44.40794 -15.12864,56.02716 12.8485,59.18873 -41.07697,-60.09933 7.28476,-43.70861 z"
     fill="#6d4a2c"
     stroke="#1b1917"
     stroke-width="11.0123"
     stroke-miterlimit="16"
     stroke-linejoin="round"
     id="path4"
     style="stroke:#312114;stroke-width:8.93044;stroke-miterlimit:16;stroke-dasharray:none;stroke-opacity:1" />
  <path
     opacity="0.95"
     d="M 214.90066,405.21523 C 214.90066,485.17831 279.31622,550 358.77483,550 438.23416,550 502.649,485.17831 502.649,405.21523 c 0,-79.96308 -64.41484,-144.78477 -143.87417,-144.78477 -79.45861,0 -143.87417,64.82169 -143.87417,144.78477 z"
     fill="#3a4f3f"
     id="path6"
     style="fill:#aedc07;fill-opacity:0.36099586;stroke-width:1.82119" />
  <path
     opacity="0.95"
     d="m -7.5e-6,144.78477 c 0,79.96308 64.4155635,144.78477 143.8741775,144.78477 79.45861,0 143.87417,-64.82169 143.87417,-144.78477 C 287.74834,64.822418 223.33278,0 143.87417,0 64.415556,0 -7.5e-6,64.822418 -7.5e-6,144.78477 Z"
     fill="#3a4f3f"
     id="path8"
     style="fill:#aedc07;fill-opacity:0.36099586;stroke-width:1.82119" />
  <path
     opacity="0.95"
     d="m 63.741715,384.27152 c 0,64.37187 51.776495,116.5563 115.645705,116.5563 63.8692,0 115.64569,-52.18443 115.64569,-116.5563 0,-64.37185 -51.77649,-116.55629 -115.64569,-116.55629 -63.86921,0 -115.645705,52.18444 -115.645705,116.55629 z"
     fill="#3a4f3f"
     id="path10"
     style="fill:#aedc07;fill-opacity:0.36099586;stroke-width:1.82119" />
  <path
     opacity="0.85"
     d="m 271.35761,444.37086 c 0,51.29752 41.17716,92.8808 91.9702,92.8808 50.79378,0 91.9702,-41.58328 91.9702,-92.8808 0,-51.29569 -41.17642,-92.88079 -91.9702,-92.88079 -50.79304,0 -91.9702,41.5851 -91.9702,92.88079 z"
     fill="#485e52"
     id="path12"
     style="opacity:0.8;fill:#81a205;fill-opacity:0.54771787;stroke-width:1.82119" />
  <path
     opacity="0.95"
     d="m 242.21854,183.9404 c 0,58.33824 46.88477,105.62914 104.71855,105.62914 57.83431,0 104.71853,-47.2909 104.71853,-105.62914 0,-58.33733 -46.88422,-105.629141 -104.71853,-105.629141 -57.83378,0 -104.71855,47.291811 -104.71855,105.629141 z"
     fill="#3a4f3f"
     id="path14"
     style="fill:#aedc07;fill-opacity:0.36099586;stroke-width:1.82119" />
  <path
     opacity="0.85"
     d="m 47.350987,359.68544 c 0,46.77003 37.50745,84.68542 83.774833,84.68542 46.26739,0 83.77484,-37.91539 83.77484,-84.68542 C 214.90066,312.9154 177.39321,275 131.12582,275 84.858437,275 47.350987,312.9154 47.350987,359.68544 Z"
     fill="#485e52"
     id="path16"
     style="opacity:0.8;fill:#81a205;fill-opacity:0.54771787;stroke-width:1.82119" />
  <path
     opacity="0.85"
     d="m 300.49668,173.92384 c 0,32.68858 26.09222,59.18874 58.27815,59.18874 32.18611,0 58.27815,-26.50016 58.27815,-59.18874 0,-32.68894 -26.09204,-59.18874 -58.27815,-59.18874 -32.18593,0 -58.27815,26.4998 -58.27815,59.18874 z"
     fill="#485e52"
     id="path18"
     style="opacity:0.8;fill:#81a205;fill-opacity:0.54771787;stroke-width:1.82119" />
  <path
     opacity="0.85"
     fill-rule="evenodd"
     clip-rule="evenodd"
     d="m 199.88675,142.13165 c 6.71292,2.31056 13.90662,3.56372 21.38808,3.56372 36.71159,0 66.47351,-30.16878 66.47351,-67.383929 0,-37.215331 -29.76192,-67.384289 -66.47351,-67.384289 -28.72566,0 -53.1952,18.470712 -62.48328,44.335282 -14.48029,-9.607335 -31.80894,-15.196208 -50.43063,-15.196208 -50.793046,0 -91.970199,41.584188 -91.970199,92.880974 0,51.29734 41.177153,92.88062 91.970199,92.88062 47.72434,0 86.9601,-36.71159 91.52583,-83.69617 z"
     fill="#485e52"
     id="path20"
     style="opacity:0.8;fill:#81a205;fill-opacity:0.54771787;stroke-width:1.82119" />
</svg>
