<?xml version="1.0" encoding="UTF-8" standalone="no"?>
<svg
   width="550"
   height="531.48401"
   viewBox="0 0 550.00001 531.48401"
   fill="none"
   version="1.1"
   id="svg60"
   sodipodi:docname="oak_tree_3.svg"
   inkscape:version="1.3 (0e150ed6c4, 2023-07-21)"
   xmlns:inkscape="http://www.inkscape.org/namespaces/inkscape"
   xmlns:sodipodi="http://sodipodi.sourceforge.net/DTD/sodipodi-0.dtd"
   xmlns="http://www.w3.org/2000/svg"
   xmlns:svg="http://www.w3.org/2000/svg">
  <defs
     id="defs64" />
  <sodipodi:namedview
     id="namedview62"
     pagecolor="#505050"
     bordercolor="#ffffff"
     borderopacity="1"
     inkscape:pageshadow="0"
     inkscape:pageopacity="0"
     inkscape:pagecheckerboard="1"
     showgrid="false"
     width="368.403px"
     inkscape:zoom="0.50057471"
     inkscape:cx="-516.40644"
     inkscape:cy="202.76694"
     inkscape:window-width="1920"
     inkscape:window-height="1017"
     inkscape:window-x="-8"
     inkscape:window-y="-8"
     inkscape:window-maximized="1"
     inkscape:current-layer="svg60"
     inkscape:showpageshadow="2"
     inkscape:deskcolor="#505050" />
  <path
     d="m 323.82088,201.54575 -75.39304,54.49201 -46.28088,-52.25261 -19.40812,-69.42131 -12.68991,61.95665 31.35156,95.54763 39.56268,16.42224 51.50614,50.75967 2.98587,93.30823 63.44959,52.2526 -33.59096,-55.23847 20.15457,-90.32236 -32.84449,-50.75967 h 32.84449 l 62.70313,26.1263 20.15457,44.04148 V 326.952 l -26.1263,-35.08388 -100.77288,-29.11217 37.32329,-35.08389 48.52027,-26.12631 z"
     fill="#5b3e24"
     id="path2"
     style="stroke-width:1.49293;opacity:0.9" />
  <path
     d="m 297.35867,262.78431 67.66264,4.53404 51.77187,-25.33505 82.61287,25.33356 -69.32578,6.19566 -46.33312,32.35779 -72.21161,2.56337 50.04605,80.46005 64.12738,21.99088 30.21694,69.66019 -55.38179,-45.90616 -72.40867,-14.17389 -49.10252,-75.59756 c -17.21798,36.31555 -30.76932,56.8344 -30.76932,56.8344 l -78.20722,29.7392 -52.87217,48.46653 31.94426,-67.19088 66.08909,-40.75554 c 0,0 16.42523,-27.25197 25.90237,-60.9116 l -43.52643,-26.1069 h -45.16118 l -53.973944,-62.78672 53.973944,28.64039 56.17753,-5.50891 36.84256,12.28085 7.10636,-42.24548 22.53879,-50.44466 -16.92089,-85.917468 46.26296,90.323108 z"
     fill="#6d4a2c"
     stroke="#1b1917"
     stroke-width="8.95759"
     stroke-miterlimit="16"
     stroke-linejoin="round"
     id="path4"
     style="stroke:#312114;stroke-opacity:1;stroke-width:9;stroke-miterlimit:16;stroke-dasharray:none" />
  <path
     opacity="0.95"
     d="m 226.03386,276.19233 c 72.55796,0 131.37798,-58.82001 131.37798,-131.37798 0,-72.557957 -58.82002,-131.377966 -131.37798,-131.377966 -72.55796,0 -131.377974,58.820009 -131.377974,131.377966 0,72.55797 58.820014,131.37798 131.377974,131.37798 z"
     fill="#3a4f3f"
     id="path6"
     style="fill:#add806;fill-opacity:0.41908714;stroke-width:1.49293" />
  <path
     opacity="0.95"
     d="M 407.42504,518.04724 C 486.16673,518.04724 550,454.54839 550,376.21875 c 0,-78.32964 -63.83327,-141.8285 -142.57496,-141.8285 -78.74168,0 -142.57496,63.49886 -142.57496,141.8285 0,78.32964 63.83328,141.82849 142.57496,141.82849 z"
     fill="#3a4f3f"
     id="path8"
     style="fill:#add806;fill-opacity:0.41908714;stroke-width:1.49293" />
  <path
     opacity="0.95"
     d="m 429.81902,340.38839 c 58.12878,0 105.25167,-47.12289 105.25167,-105.25167 0,-58.12879 -47.12289,-105.25168 -105.25167,-105.25168 -58.12879,0 -105.25168,47.12289 -105.25168,105.25168 0,58.12878 47.12289,105.25167 105.25168,105.25167 z"
     fill="#3a4f3f"
     id="path10"
     style="fill:#add806;fill-opacity:0.41908714;stroke-width:1.49293" />
  <path
     opacity="0.95"
     fill-rule="evenodd"
     clip-rule="evenodd"
     d="m 210.95077,285.31564 c 5.53729,-50.74624 -26.82201,-99.41879 -77.94894,-113.11793 -56.440574,-15.1234 -114.3805,18.09582 -129.412976,74.1987 -10.1323771,37.81446 1.8149568,76.3724 27.963801,102.12248 -0.780653,2.33345 -1.494872,4.70423 -2.140117,7.11233 -17.205886,64.21397 21.175144,130.29112 85.726372,147.58673 64.55137,17.29711 130.82857,-20.73682 148.03461,-84.95079 13.96339,-52.11376 -8.68588,-105.45471 -52.22275,-132.95152 z"
     fill="#3a4f3f"
     id="path12"
     style="fill:#add806;fill-opacity:0.41908714;stroke-width:1.49293" />
  <path
     opacity="0.85"
     d="m 264.85008,180.64471 c 50.29537,0 91.06883,-40.43873 91.06883,-90.322353 C 355.91891,40.438737 315.14545,0 264.85008,0 c -50.29537,0 -91.06882,40.438737 -91.06882,90.322357 0,49.883623 40.77345,90.322353 91.06882,90.322353 z"
     fill="#485e52"
     id="path14"
     style="fill:#82a305;fill-opacity:0.56846476;stroke-width:1.49293;opacity:0.8" />
  <path
     opacity="0.85"
     d="m 435.04428,531.48363 c 55.24294,0 100.02641,-44.78347 100.02641,-100.02642 0,-55.24294 -44.78347,-100.02641 -100.02641,-100.02641 -55.24295,0 -100.02642,44.78347 -100.02642,100.02641 0,55.24295 44.78347,100.02642 100.02642,100.02642 z"
     fill="#485e52"
     id="path16"
     style="fill:#82a305;fill-opacity:0.56846476;stroke-width:1.49293;opacity:0.8" />
  <path
     opacity="0.85"
     d="m 109.5852,292.61458 c 35.45414,0 64.19606,-28.74192 64.19606,-64.19606 0,-35.45413 -28.74192,-64.19605 -64.19606,-64.19605 -35.454436,0 -64.196054,28.74192 -64.196054,64.19605 0,35.45414 28.741618,64.19606 64.196054,64.19606 z"
     fill="#485e52"
     id="path18"
     style="fill:#82a305;fill-opacity:0.56846476;stroke-width:1.49293;opacity:0.8" />
  <path
     opacity="0.85"
     d="m 479.08575,316.50149 c 35.86619,0 64.94252,-28.74192 64.94252,-64.19607 0,-35.45413 -29.07633,-64.19605 -64.94252,-64.19605 -35.86618,0 -64.94252,28.74192 -64.94252,64.19605 0,35.45415 29.07634,64.19607 64.94252,64.19607 z"
     fill="#485e52"
     id="path20"
     style="fill:#82a305;fill-opacity:0.56846476;stroke-width:1.49293;opacity:0.8" />
  <path
     opacity="0.85"
     fill-rule="evenodd"
     clip-rule="evenodd"
     d="m 244.77165,396.86898 c 36.33347,-3.03663 64.86637,-33.18041 64.86637,-69.91698 0,-38.75202 -31.74867,-70.16778 -70.91424,-70.16778 -39.16407,0 -70.91425,31.41576 -70.91425,70.16778 0,1.7124 0.0627,3.41135 0.18363,5.09239 -3.48749,-0.40458 -7.03618,-0.61359 -10.63415,-0.61359 -50.29537,0 -91.068823,40.77345 -91.068823,91.06882 0,50.29537 40.773453,91.06882 91.068823,91.06882 50.29537,0 91.06883,-40.77345 91.06883,-91.06882 0,-8.89936 -1.27646,-17.50163 -3.65619,-25.63064 z"
     fill="#485e52"
     id="path22"
     style="fill:#82a305;fill-opacity:0.56846476;stroke-width:1.49293;opacity:0.8" />
</svg>
