<?xml version="1.0" encoding="UTF-8" standalone="no"?>
<svg
   height="35.151863mm"
   viewBox="0 0 68.599434 35.151864"
   width="68.599434mm"
   version="1.1"
   id="svg11"
   sodipodi:docname="porta_potty_toilet_open.svg"
   inkscape:version="1.3 (0e150ed6c4, 2023-07-21)"
   xmlns:inkscape="http://www.inkscape.org/namespaces/inkscape"
   xmlns:sodipodi="http://sodipodi.sourceforge.net/DTD/sodipodi-0.dtd"
   xmlns="http://www.w3.org/2000/svg"
   xmlns:svg="http://www.w3.org/2000/svg">
  <sodipodi:namedview
     id="namedview1"
     pagecolor="#ffffff"
     bordercolor="#000000"
     borderopacity="0.25"
     inkscape:showpageshadow="2"
     inkscape:pageopacity="0.0"
     inkscape:pagecheckerboard="0"
     inkscape:deskcolor="#d1d1d1"
     inkscape:document-units="mm"
     inkscape:zoom="2.7056376"
     inkscape:cx="82.974896"
     inkscape:cy="88.518876"
     inkscape:window-width="1920"
     inkscape:window-height="1017"
     inkscape:window-x="-8"
     inkscape:window-y="-8"
     inkscape:window-maximized="1"
     inkscape:current-layer="svg11" />
  <defs
     id="defs11" />
  <path
     sodipodi:nodetypes="ccccc"
     inkscape:connector-curvature="0"
     id="rect6498-3-5-6-8"
     d="m 25.710554,14.356364 c -1.242044,5.564115 0.421329,12.902456 2.450416,17.044557 2.403466,4.35019 9.697622,3.935365 11.668588,0 1.85368,-4.455302 3.579884,-11.894125 2.450352,-17.044557 -2.000638,-7.7711131 -14.939255,-7.0468367 -16.569356,0 z"
     style="fill:#e5e0db;fill-opacity:1;fill-rule:nonzero;stroke:#272727;stroke-width:1.6118;stroke-linecap:round;stroke-linejoin:miter;stroke-miterlimit:4;stroke-dasharray:none;stroke-dashoffset:0;stroke-opacity:1;paint-order:normal" />
  <path
     style="color:#000000;fill:#e5e0db;stroke-width:1.49898;stroke-linecap:round;stroke-linejoin:round"
     d="M 44.324974,11.659246 H 22.99231 c -1.245179,0 -2.24762,-1.016677 -2.24762,-2.2795406 V 3.1986595 c 0,-1.2628618 1.002441,-2.27953875 2.24762,-2.27953875 h 21.332664 c 1.245195,0 2.247523,1.01667695 2.247523,2.27953875 v 6.1810459 c 0,1.2628636 -1.002328,2.2795406 -2.247523,2.2795406 z"
     id="path9514-6" />
  <path
     sodipodi:nodetypes="ccccc"
     inkscape:connector-curvature="0"
     id="rect6498-3-5-5"
     d="m 28.256316,17.564079 c -0.834603,3.738883 0.283115,8.669994 1.646608,11.453349 1.615025,2.923155 6.516436,2.644415 7.84084,0 1.245629,-2.993823 2.405587,-7.992456 1.646576,-11.453349 -1.344367,-5.221914 -10.038647,-4.735216 -11.134024,0 z"
     style="fill:#bdb9b3;fill-opacity:1;fill-rule:nonzero;stroke:none;stroke-width:2.46032;stroke-linecap:round;stroke-linejoin:miter;stroke-miterlimit:4;stroke-dasharray:none;stroke-dashoffset:0;stroke-opacity:1;paint-order:stroke fill markers" />
  <path
     sodipodi:nodetypes="ccccc"
     inkscape:connector-curvature="0"
     id="rect6498-3-9-5-1"
     d="m 31.66383,18.373058 c -0.310213,1.46179 0.104959,3.389672 0.612006,4.477847 0.600304,1.142867 2.422111,1.033875 2.914386,0 0.462958,-1.170448 0.894091,-3.12474 0.612005,-4.477847 -0.499717,-2.041586 -3.731277,-1.85133 -4.138397,0 z"
     style="fill:#494949;fill-opacity:1;fill-rule:nonzero;stroke:none;stroke-width:0.937891;stroke-linecap:round;stroke-linejoin:miter;stroke-miterlimit:4;stroke-dasharray:none;stroke-dashoffset:0;stroke-opacity:1;paint-order:stroke fill markers" />
  <rect
     ry="0.3477304"
     rx="0.40413365"
     y="-13.51384"
     x="-24.557583"
     height="1.9318072"
     width="3.1254098"
     id="rect6547-2-5"
     style="fill:#272727;fill-opacity:1;fill-rule:nonzero;stroke:none;stroke-width:4.63478;stroke-linecap:round;stroke-linejoin:round;stroke-miterlimit:4;stroke-dasharray:none;stroke-dashoffset:0;stroke-opacity:1;paint-order:stroke fill markers"
     transform="scale(-1)" />
  <rect
     style="fill:#afafaf;fill-opacity:1;stroke:none;stroke-width:1.5016;stroke-linecap:round;stroke-linejoin:round;stroke-dasharray:none;stroke-opacity:1;paint-order:normal"
     id="rect3077-2"
     width="25.675503"
     height="1.1567286"
     x="-46.420307"
     y="-9.6370554"
     rx="1.1405315"
     ry="1.1567286"
     transform="scale(-1)" />
  <path
     style="color:#000000;fill:#272727;fill-opacity:1;stroke-width:1.6118;stroke-linecap:round;stroke-linejoin:round;stroke-miterlimit:4;stroke-dasharray:none"
     d="m 44.325778,12.412033 c 1.644615,0 2.988982,-1.363491 2.988982,-3.0314466 V 3.1994747 c 0,-1.6679879 -1.344367,-3.03737999 -2.988982,-3.03737999 H 22.99485 C 21.35025,0.16209471 20,1.5314868 20,3.1994747 v 6.1811117 c 0,1.6679556 1.35025,3.0314466 2.99485,3.0314466 z m 0,-1.506879 H 22.99485 c -0.845759,0 -1.503252,-0.666831 -1.503252,-1.5245676 V 3.1994747 c 0,-0.8577696 0.657493,-1.5245993 1.503252,-1.5245993 h 21.330928 c 0.845774,0 1.503331,0.6668297 1.503331,1.5245993 v 6.1811117 c 0,0.8577366 -0.657557,1.5245676 -1.503331,1.5245676 z"
     id="path9516-8" />
</svg>
