<?xml version="1.0" encoding="UTF-8" standalone="no"?>
<svg
   height="10.212417mm"
   viewBox="0 0 17.063081 10.212416"
   width="17.063082mm"
   version="1.1"
   id="svg1"
   sodipodi:docname="porta_potty_front_wall.svg"
   inkscape:version="1.3 (0e150ed6c4, 2023-07-21)"
   xmlns:inkscape="http://www.inkscape.org/namespaces/inkscape"
   xmlns:sodipodi="http://sodipodi.sourceforge.net/DTD/sodipodi-0.dtd"
   xmlns="http://www.w3.org/2000/svg"
   xmlns:svg="http://www.w3.org/2000/svg">
  <sodipodi:namedview
     id="namedview1"
     pagecolor="#ffffff"
     bordercolor="#000000"
     borderopacity="0.25"
     inkscape:showpageshadow="2"
     inkscape:pageopacity="0.0"
     inkscape:pagecheckerboard="0"
     inkscape:deskcolor="#d1d1d1"
     inkscape:document-units="mm"
     inkscape:zoom="11.313709"
     inkscape:cx="14.451495"
     inkscape:cy="6.7617086"
     inkscape:window-width="1920"
     inkscape:window-height="1017"
     inkscape:window-x="-8"
     inkscape:window-y="-8"
     inkscape:window-maximized="1"
     inkscape:current-layer="svg1" />
  <defs
     id="defs1" />
  <path
     d="m 1.0583333,9.1540833 v -8.09575 H 16.004748 v 8.09575 z"
     fill="#1c71d8"
     stroke="#0d3565"
     stroke-linejoin="round"
     stroke-width="4.798773"
     id="path1"
     style="stroke-width:2.11666667;stroke-dasharray:none" />
  <path
     style="fill:#552200;fill-opacity:0;stroke:#5c5d5b;stroke-width:0.0940271;stroke-opacity:0"
     d="M 3.1969202,38.470007 C 2.4155698,38.30027 1.7959653,37.959617 1.2160483,37.380941 0.60906757,36.77526 0.24280693,36.064528 0.09629422,35.208051 0.02280749,34.778465 5.3490117e-4,30.02909 0.01981366,18.89944 L 0.04701353,3.1969202 0.25668021,2.684489 C 0.75643232,1.4630808 1.666697,0.58385361 2.7909861,0.23659611 3.4007692,0.04825328 3.5930481,0.04701353 32.194419,0.04701353 c 31.41769,0 29.334566,-0.03578886 30.283428,0.52028105 0.578313,0.33891401 1.335743,1.17832622 1.630192,1.80664022 L 64.361526,2.914839 V 19.280419 35.646 l -0.354095,0.716468 c -0.571518,1.156397 -1.556467,1.896985 -2.836588,2.132845 C 60.336111,38.649111 3.9080068,38.62448 3.1969202,38.470007 Z M 56.487138,19.299055 56.463252,7.9923005 H 32.251283 8.0393141 L 8.0154283,19.299055 7.9915424,30.60581 H 32.251283 56.511024 Z"
     id="path7"
     transform="scale(0.26458333)" />
  <path
     style="fill:#2b1100;fill-opacity:1;stroke:#5c5d5b;stroke-width:0.0940271;stroke-opacity:0"
     d="M 3.1969202,38.470007 C 2.4155698,38.30027 1.7959653,37.959617 1.2160483,37.380941 0.60906757,36.77526 0.24280693,36.064528 0.09629422,35.208051 0.02280749,34.778465 5.3490117e-4,30.02909 0.01981366,18.89944 L 0.04701353,3.1969202 0.25668021,2.684489 C 0.75643232,1.4630808 1.666697,0.58385361 2.7909861,0.23659611 3.4007692,0.04825328 3.5930481,0.04701353 32.194419,0.04701353 c 31.41769,0 29.334566,-0.03578886 30.283428,0.52028105 0.578313,0.33891401 1.335743,1.17832622 1.630192,1.80664022 L 64.361526,2.914839 V 19.280419 35.646 l -0.354095,0.716468 c -0.571518,1.156397 -1.556467,1.896985 -2.836588,2.132845 C 60.336111,38.649111 3.9080068,38.62448 3.1969202,38.470007 Z M 56.487138,19.299055 56.463252,7.9923005 H 32.251283 8.0393141 L 8.0154283,19.299055 7.9915424,30.60581 H 32.251283 56.511024 Z"
     id="path9"
     transform="scale(0.26458333)" />
  <path
     style="fill:#552200;fill-opacity:1;stroke:#5c5d5b;stroke-width:0.0940271;stroke-opacity:0"
     d="m 8.0237852,23.765341 c 0.03432,-3.762258 0.062432,-8.83972 0.062471,-11.283248 l 7.1e-5,-4.4427789 H 32.251283 56.416239 l 1.02e-4,6.5583879 c 5.6e-5,3.607113 0.02813,8.684575 0.06238,11.283248 l 0.06227,4.72486 H 32.251189 7.9613849 Z"
     id="path10"
     transform="scale(0.26458333)" />
  <rect
     style="fill:#552200;fill-opacity:1;stroke:#5c5d5b;stroke-width:0.264583;stroke-opacity:0"
     id="rect10"
     width="13.131285"
     height="6.2791634"
     x="1.952738"
     y="1.9410449"
     ry="0.43205082" />
</svg>
