<?xml version="1.0" encoding="UTF-8" standalone="no"?>
<svg
   height="13.599mm"
   viewBox="0 0 52.917 13.598999"
   width="52.917mm"
   version="1.1"
   id="svg1"
   sodipodi:docname="porta_potty_door.svg"
   inkscape:version="1.3 (0e150ed6c4, 2023-07-21)"
   xmlns:inkscape="http://www.inkscape.org/namespaces/inkscape"
   xmlns:sodipodi="http://sodipodi.sourceforge.net/DTD/sodipodi-0.dtd"
   xmlns="http://www.w3.org/2000/svg"
   xmlns:svg="http://www.w3.org/2000/svg">
  <sodipodi:namedview
     id="namedview5"
     pagecolor="#505050"
     bordercolor="#ffffff"
     borderopacity="1"
     inkscape:pageshadow="0"
     inkscape:pageopacity="0"
     inkscape:pagecheckerboard="1"
     inkscape:document-units="mm"
     showgrid="false"
     width="52.917mm"
     inkscape:zoom="4.7057962"
     inkscape:cx="109.12075"
     inkscape:cy="3.7188181"
     inkscape:window-width="1920"
     inkscape:window-height="1017"
     inkscape:window-x="-8"
     inkscape:window-y="-8"
     inkscape:window-maximized="1"
     inkscape:current-layer="svg1"
     inkscape:showpageshadow="2"
     inkscape:deskcolor="#d1d1d1" />
  <defs
     id="defs1" />
  <path
     d="M 0.91346031,9.8862738 V 3.7131943 H 52.003202 v 6.1730795 z"
     fill="#d9d9d9"
     stroke="#666666"
     stroke-linejoin="round"
     stroke-width="1.34958"
     id="path1"
     style="stroke-width:1.82692;stroke-dasharray:none" />
  <ellipse
     style="fill:#241c1c;stroke:#5c5d5b;stroke-width:0.238793;stroke-opacity:1"
     id="path5"
     cx="40.629093"
     cy="11.042525"
     rx="2.3287446"
     ry="1.374575" />
  <path
     style="fill:#aa4400;stroke:#6a8e2a;stroke-width:0.0609969;stroke-opacity:0"
     d="M 1.6989947,6.4447943 V 3.917056 H 26.51994 51.340887 V 6.4447943 8.9725327 H 26.51994 1.6989947 Z"
     id="path2" />
  <path
     style="fill:#803300;stroke:#6a8e2a;stroke-width:0.056225;stroke-opacity:0"
     d="m 0.42598408,10.723778 c -0.1267543,-0.05788 -0.2912124,-0.190408 -0.3654624,-0.294513 l -0.1350001,-0.189284 V 6.8102567 3.3805326 L 0.05676278,3.1965287 C 0.12894548,3.0953263 0.28699988,2.9620205 0.40799478,2.9002935 0.62702468,2.7885528 0.74067568,2.7881287 26.425754,2.8031726 l 25.797769,0.01511 0.20652,0.157525 c 0.392787,0.2996001 0.375079,0.1177554 0.375079,3.8514551 v 3.3679763 l -0.126961,0.191047 c -0.06983,0.105074 -0.237143,0.24674 -0.371813,0.314811 l -0.244854,0.123765 -25.702524,0.0021 C 1.3613652,10.828953 0.65012578,10.826123 0.42598408,10.723778 Z M 50.992528,6.7962007 50.977809,4.6174824 H 26.351266 1.7247212 l -0.014716,2.1787183 -0.014717,2.178718 H 26.351266 51.007244 Z"
     id="path3" />
</svg>
