<?xml version="1.0" encoding="UTF-8" standalone="no"?>
<svg
   height="24.469749mm"
   viewBox="0 0 108.47919 24.46975"
   width="108.47916mm"
   version="1.1"
   id="svg6"
   sodipodi:docname="porta_potty_sink_wall.svg"
   inkscape:version="1.3 (0e150ed6c4, 2023-07-21)"
   xmlns:inkscape="http://www.inkscape.org/namespaces/inkscape"
   xmlns:sodipodi="http://sodipodi.sourceforge.net/DTD/sodipodi-0.dtd"
   xmlns="http://www.w3.org/2000/svg"
   xmlns:svg="http://www.w3.org/2000/svg">
  <sodipodi:namedview
     id="namedview1"
     pagecolor="#ffffff"
     bordercolor="#000000"
     borderopacity="0.25"
     inkscape:showpageshadow="2"
     inkscape:pageopacity="0.0"
     inkscape:pagecheckerboard="0"
     inkscape:deskcolor="#d1d1d1"
     inkscape:document-units="mm"
     inkscape:zoom="2.4196851"
     inkscape:cx="163.8643"
     inkscape:cy="53.51936"
     inkscape:window-width="1920"
     inkscape:window-height="1017"
     inkscape:window-x="-8"
     inkscape:window-y="-8"
     inkscape:window-maximized="1"
     inkscape:current-layer="svg6" />
  <defs
     id="defs6" />
  <path
     style="fill:#2b1100;fill-opacity:1;stroke:#5c5d5b;stroke-width:0.292231;stroke-opacity:0"
     d="M 2.7273659,92.170849 C 1.4693084,91.806037 0.36531341,90.410421 0.1477762,88.909865 0.04885885,88.227538 0.00801899,80.676203 0.05702097,72.129118 0.1440834,56.943401 0.15991954,56.570153 0.75135047,55.764187 1.0842297,55.31056 1.8075012,54.709483 2.3586205,54.42846 3.3097333,53.943476 13.607688,53.91751 204.99998,53.91751 c 191.39231,0 201.69026,0.02597 202.64136,0.51095 0.55111,0.281023 1.27439,0.882229 1.60727,1.336015 0.59536,0.811587 0.60524,1.095829 0.60524,17.400591 0,18.26982 0.0828,17.419165 -1.81765,18.664426 -0.74954,0.491105 -10.32654,0.517701 -202.58502,0.562608 C 83.586432,92.420564 3.2862821,92.332926 2.7273659,92.170849 Z M 402.04009,73.130784 402.11659,61.806837 H 205.00341 7.8902345 v 11.202184 c 0,6.161202 0.087766,11.289952 0.195036,11.397221 0.1072698,0.107269 88.7737805,0.162063 197.0366895,0.121764 l 196.84165,-0.07327 z"
     id="path8"
     transform="scale(0.26458333)" />
  <path
     style="fill:#552200;fill-opacity:1;stroke:#5c5d5b;stroke-width:0.0820022;stroke-opacity:0"
     d="m 1.4728589,19.630075 c -0.031685,-1.711392 -0.044127,-3.188261 -0.027651,-3.28193 0.029841,-0.169648 0.2341753,-0.17039 52.8073071,-0.19182 29.027539,-0.01184 52.796775,0.0074 52.820505,0.0429 0.0238,0.03544 0.0327,1.521978 0.0199,3.303444 l -0.0232,3.239027 H 54.300167 1.5304669 Z"
     id="path9" />
  <path
     style="fill:#552200;fill-opacity:0;stroke:#5c5d5b;stroke-width:0.146115;stroke-opacity:0"
     d="m 163.99908,47.35365 c -0.0437,-0.113811 -0.0525,-6.9027 -0.0196,-15.086421 0.0643,-16.003924 0.0744,-16.227338 0.85154,-18.824607 0.88122,-2.945101 2.19045,-4.1429305 5.41881,-4.9577183 2.41515,-0.6095473 3.76028,-0.667727 15.43798,-0.667727 11.86596,0 11.87699,6.162e-4 13.36246,0.7465467 0.96724,0.4856966 2.05152,1.3759897 2.59142,2.1277896 0.49284,0.686275 0.49516,0.697316 0.68152,3.247095 0.10285,1.407164 0.31442,3.062389 0.47017,3.678278 1.0128,4.005083 4.45208,7.392098 8.20957,8.084809 0.75806,0.139752 3.10702,0.227245 7.81765,0.291185 6.72355,0.09126 6.73442,0.09093 7.0132,-0.217123 0.75699,-0.836469 1.63378,-0.882096 2.56531,-0.133497 l 0.53615,0.430863 7.28309,0.116196 7.28309,0.116194 0.84473,0.393457 c 1.08679,0.506208 2.43017,1.791135 3.01004,2.879077 l 0.45564,0.854872 v 8.563831 8.56383 h -41.86666 c -35.97909,0 -41.87783,-0.0291 -41.94607,-0.20693 z m 23.00284,-1.847222 c 3.31845,-0.822744 6.14346,-2.463013 8.58333,-4.983693 1.4378,-1.485423 2.30756,-2.702563 3.16725,-4.432218 1.30272,-2.621018 1.86402,-5.018031 1.86402,-7.960294 0,-4.091401 -1.1703,-7.63912 -3.57395,-10.834258 -6.52721,-8.6765659 -19.20466,-9.597575 -26.89412,-1.953842 -1.54484,1.53566 -2.48228,2.812834 -3.428,4.670349 -2.11122,4.146728 -2.49383,9.173957 -1.03739,13.630827 2.24349,6.86534 8.51031,11.78624 15.64622,12.285877 1.85709,0.13003 4.12466,-0.03896 5.67264,-0.422748 z m 49.27678,-0.809036 c 1.36575,-0.40116 2.41718,-1.060647 3.46177,-2.171331 2.4621,-2.617873 3.3115,-5.595068 2.32647,-8.154364 -0.75803,-1.969486 -2.55768,-4.162928 -4.20266,-5.122265 -1.47388,-0.859553 -2.1797,-1.008268 -5.15442,-1.086023 -2.64285,-0.06908 -2.75174,-0.06086 -2.67022,0.201601 0.0468,0.15049 0.25234,1.051331 0.45688,2.001868 0.31234,1.451493 0.46462,1.860966 0.95091,2.55702 1.82126,2.606892 0.96539,5.967123 -1.87618,7.366024 -0.84846,0.417697 -1.11166,0.476275 -2.13947,0.476173 -0.9607,-9.5e-5 -1.32005,-0.06952 -1.99317,-0.385038 -2.50654,-1.174936 -3.60892,-3.876444 -2.62866,-6.441864 0.0836,-0.218866 0.37723,-0.725301 0.65246,-1.125409 0.41188,-0.598766 0.5319,-0.954904 0.6784,-2.012966 0.0979,-0.707024 0.22908,-1.569907 0.29151,-1.91752 0.0856,-0.476619 0.0651,-0.650603 -0.0834,-0.707579 -0.10829,-0.04156 -1.46508,-0.04911 -3.01509,-0.01679 -3.13049,0.06528 -3.66608,0.181343 -5.04148,1.092491 -1.64593,1.090362 -3.42315,3.283914 -4.1551,5.128484 -0.25335,0.638456 -0.33045,1.125028 -0.32895,2.075901 0.002,1.073744 0.0668,1.394781 0.48068,2.370001 1.19026,2.804661 3.33478,5.096251 5.45431,5.828374 0.71257,0.246135 1.42898,0.267149 9.25705,0.27155 7.34794,0.0041 8.59103,-0.02646 9.27833,-0.228339 z m -7.87956,-5.634969 c 0.73947,-0.221551 1.6634,-1.022887 2.0548,-1.782154 0.58354,-1.131981 0.30894,-3.041158 -0.53857,-3.74453 -0.39518,-0.327967 -0.50717,-0.648476 -1.03238,-2.954701 -0.563,-2.47217 -0.91145,-3.332217 -1.47144,-3.631917 -0.34806,-0.186277 -0.40253,-0.174703 -0.65703,0.139595 -0.37945,0.468594 -0.67042,1.542001 -0.93506,3.449414 -0.27174,1.958674 -0.43233,2.476655 -0.97902,3.157809 -1.17732,1.466914 -0.98382,3.474995 0.45092,4.679533 0.96116,0.80694 1.96597,1.029046 3.10778,0.686951 z"
     id="path10"
     transform="scale(0.26458333)" />
</svg>
