<?xml version="1.0" encoding="UTF-8" standalone="no"?>
<svg
   version="1.1"
   viewBox="0 0 175 175"
   id="svg8"
   sodipodi:docname="savannahbarrel.svg"
   width="175"
   height="175"
   inkscape:version="1.3 (0e150ed6c4, 2023-07-21)"
   xmlns:inkscape="http://www.inkscape.org/namespaces/inkscape"
   xmlns:sodipodi="http://sodipodi.sourceforge.net/DTD/sodipodi-0.dtd"
   xmlns="http://www.w3.org/2000/svg"
   xmlns:svg="http://www.w3.org/2000/svg">
  <defs
     id="defs8" />
  <sodipodi:namedview
     id="namedview8"
     pagecolor="#ffffff"
     bordercolor="#000000"
     borderopacity="0.25"
     inkscape:showpageshadow="2"
     inkscape:pageopacity="0.0"
     inkscape:pagecheckerboard="0"
     inkscape:deskcolor="#d1d1d1"
     inkscape:zoom="3.317341"
     inkscape:cx="99.025094"
     inkscape:cy="69.483361"
     inkscape:window-width="1920"
     inkscape:window-height="1017"
     inkscape:window-x="-8"
     inkscape:window-y="-8"
     inkscape:window-maximized="1"
     inkscape:current-layer="svg8" />
  <g
     stroke-width="2"
     fill="none"
     stroke-linecap="butt"
     id="g4"
     transform="scale(0.49974773)">
    <path
       stroke="#19497c"
       vector-effect="non-scaling-stroke"
       d="m 321.11,175.01 a 146.1,146.1 0 0 0 -146.1,-146.1 146.1,146.1 0 0 0 -146.1,146.1 146.1,146.1 0 0 0 146.1,146.1 146.1,146.1 0 0 0 146.1,-146.1"
       id="path1" />
    <path
       stroke="#004998"
       vector-effect="non-scaling-stroke"
       d="m 113.56,255.94 q -6.97,-5.22 -14.81,-4.09 c -7.78,1.11 -9.71,10.12 -7.15,16.03 q 1.27,2.95 5.2,6 37,28.76 83.72,27.08 c 61.11,-2.2 112.79,-49.79 119.67,-110.61 q 5.74,-50.7 -24.22,-91 C 234.41,43.45 155.75,32.6 99.79,73.81 c -6.34,4.66 -10.27,7.64 -9.24,15.52 1.15,8.8 9.61,10.39 16.73,8.29 q 2.78,-0.82 6.8,-3.78 c 25.09,-18.43 56.62,-25.04 86.94,-16.99 37.11,9.86 66.18,40.64 73.51,77.89 11.4,57.98 -27.23,111.98 -85.34,120.74 -26.51,4 -54.4,-3.66 -75.63,-19.54"
       id="path2" />
    <path
       stroke="#144477"
       vector-effect="non-scaling-stroke"
       d="m 225.65,126.83 c -4.65,-12.2 -17.34,-19.17 -30.12,-17.95 -0.99,0.09 -2.16,0.82 -2.63,1.53 -15.01,22.32 -30.57,38.82 -58.42,43.28 q -10.65,1.7 -21.4,2.59 a 1.79,1.71 23.7 0 0 -0.88,0.32 q -1.34,0.99 -1.65,1.45 c -7.02,10.5 -7.37,25.58 1.36,35.34 a 1.09,1.09 0 0 0 0.88,0.37 q 0.63,-0.03 1.23,0 12.53,0.71 24.82,3.34 c 25.06,5.36 40.1,21.5 53.6,41.97 0.85,1.28 2.14,2.14 3.56,2.2 q 16.87,0.69 27.1,-12.93 c 2.8,-3.73 3.15,-6.18 1,-10.59 -11.18,-23.03 -16.37,-44.1 -7.2,-68.77 q 3.89,-10.45 8.64,-19.95 a 2.74,2.71 48.2 0 0 0.11,-2.2"
       id="path3" />
    <path
       stroke="#464646"
       vector-effect="non-scaling-stroke"
       d="M 197.02,175.01 A 22.01,22.01 0 0 0 175.01,153 22.01,22.01 0 0 0 153,175.01 a 22.01,22.01 0 0 0 22.01,22.01 22.01,22.01 0 0 0 22.01,-22.01"
       id="path4" />
  </g>
  <path
     fill="#323232"
     d="m 85.117035,0 h 4.867543 C 136.51109,1.769107 173.1576,38.130753 174.9117,85.117035 v 4.617668 C 173.24755,136.54107 136.46611,173.46244 89.5448,174.9117 H 85.291946 Q 48.71541,173.26255 24.082843,147.64547 C 9.0954088,132.05834 0.88455349,111.62366 0,89.919611 V 85.052068 C 1.7241297,38.090773 38.59052,1.6241802 85.117035,0 Z M 160.474,87.460851 A 73.013145,73.013145 0 0 0 87.460851,14.447708 73.013145,73.013145 0 0 0 14.447708,87.460851 73.013145,73.013145 0 0 0 87.460851,160.474 73.013145,73.013145 0 0 0 160.474,87.460851 Z"
     id="path5"
     style="stroke-width:0.499748" />
  <path
     fill="#005fc5"
     d="M 160.474,87.460851 A 73.013145,73.013145 0 0 1 87.460851,160.474 73.013145,73.013145 0 0 1 14.447708,87.460851 73.013145,73.013145 0 0 1 87.460851,14.447708 73.013145,73.013145 0 0 1 160.474,87.460851 Z M 56.751354,127.90544 q -3.483242,-2.60869 -7.401265,-2.04397 c -3.888037,0.55472 -4.85255,5.05744 -3.573196,8.01095 q 0.634679,1.47426 2.598689,2.99849 18.490665,14.37274 41.83888,13.53317 c 30.539588,-1.09944 56.366548,-24.88244 59.804808,-55.277098 q 2.86856,-25.33721 -12.10389,-45.477044 C 117.14587,21.71404 77.83571,16.291776 49.869826,36.88638 c -3.1684,2.328825 -5.132408,3.818073 -4.617668,7.756085 0.57471,4.397781 4.802576,5.19238 8.360779,4.142909 q 1.389299,-0.409792 3.398285,-1.889046 c 12.53867,-9.210351 28.295717,-12.513684 43.448068,-8.490714 18.54563,4.927513 33.07331,20.309748 36.73645,38.925351 5.69714,28.975375 -13.60812,55.961755 -42.648466,60.339545 -13.248312,1.99899 -27.186276,-1.82908 -37.79592,-9.76507 z M 112.76807,63.383005 c -2.32382,-6.096922 -8.66562,-9.580164 -15.052395,-8.970472 -0.494749,0.04497 -1.079455,0.409794 -1.314336,0.764615 C 88.900125,66.331517 81.12405,74.577355 67.206076,76.80623 q -5.322314,0.849571 -10.694602,1.294347 a 0.89454845,0.85456863 23.7 0 0 -0.439778,0.159919 q -0.669662,0.49475 -0.824584,0.724634 c -3.508229,5.247351 -3.68314,12.783547 0.679658,17.661085 a 0.54472503,0.54472503 0 0 0 0.439778,0.184906 q 0.31484,-0.01499 0.614689,0 6.26184,0.354822 12.403739,1.669159 c 12.523678,2.67865 20.039884,10.74458 26.786479,20.97441 0.424785,0.63968 1.06946,1.06946 1.779102,1.09945 q 8.430743,0.34483 13.543163,-6.46174 c 1.3993,-1.86406 1.57421,-3.08844 0.49975,-5.29233 -5.58718,-11.50919 -8.18087,-22.038875 -3.59818,-34.367652 q 1.94401,-5.222363 4.31782,-9.969967 a 1.3693088,1.3543163 48.2 0 0 0.055,-1.099446 z"
     id="path6"
     style="stroke-width:0.499748" />
  <path
     fill="#00336a"
     d="m 56.751354,127.90544 c 10.609644,7.93599 24.547608,11.76406 37.79592,9.76507 C 123.58762,133.29272 142.89288,106.30634 137.19574,77.330965 133.5326,58.715362 119.00492,43.333127 100.45929,38.405614 85.306939,34.382644 69.549892,37.685977 57.011222,46.896328 q -2.008986,1.479254 -3.398285,1.889046 c -3.558203,1.049471 -7.786069,0.254872 -8.360779,-4.142909 -0.51474,-3.938012 1.449268,-5.42726 4.617668,-7.756085 C 77.83571,16.291776 117.14587,21.71404 137.91538,49.649938 q 14.97245,20.139834 12.10389,45.477044 c -3.43826,30.394658 -29.26522,54.177658 -59.804808,55.277098 q -23.348215,0.83957 -41.83888,-13.53317 -1.96401,-1.52423 -2.598689,-2.99849 c -1.279354,-2.95351 -0.314841,-7.45623 3.573196,-8.01095 q 3.918023,-0.56472 7.401265,2.04397 z"
     id="path7"
     style="stroke-width:0.499748" />
  <path
     fill="#282828"
     d="m 97.715675,54.412533 c 6.386775,-0.609692 12.728575,2.87355 15.052395,8.970472 a 1.3693088,1.3543163 48.2 0 1 -0.055,1.099446 q -2.37381,4.747604 -4.31782,9.969967 c -4.58269,12.328777 -1.989,22.858462 3.59818,34.367652 1.07446,2.20389 0.89955,3.42827 -0.49975,5.29233 q -5.11242,6.80657 -13.543163,6.46174 C 97.240875,120.54419 96.5962,120.11437 96.171415,119.47469 89.42486,109.24486 81.908654,101.17893 69.384976,98.50028 q -6.141899,-1.314337 -12.403739,-1.669159 -0.299849,-0.01499 -0.614689,0 A 0.54472503,0.54472503 0 0 1 55.92677,96.646215 C 51.563972,91.768677 51.738883,84.232481 55.247112,78.98513 q 0.154922,-0.229884 0.824584,-0.724634 a 0.89454845,0.85456863 23.7 0 1 0.439778,-0.159919 Q 61.883762,77.655801 67.206076,76.80623 C 81.12405,74.577355 88.900125,66.331517 96.401339,55.177148 96.63622,54.822327 97.220926,54.457511 97.715675,54.412533 Z M 98.4603,87.460851 A 10.999447,10.999447 0 0 0 87.460851,76.461404 10.999447,10.999447 0 0 0 76.461404,87.460851 10.999447,10.999447 0 0 0 87.460851,98.4603 10.999447,10.999447 0 0 0 98.4603,87.460851 Z"
     id="path8"
     style="stroke-width:0.499748" />
  <circle
     fill="#636363"
     cx="87.460846"
     cy="87.460846"
     r="10.999448"
     id="circle8"
     style="stroke-width:0.499748" />
</svg>
