<?xml version="1.0" encoding="UTF-8" standalone="no"?>
<svg
   width="101"
   height="17"
   viewBox="0 0 101 17"
   fill="none"
   version="1.1"
   id="svg6"
   sodipodi:docname="blr_killfeed.svg"
   inkscape:version="1.3 (0e150ed6c4, 2023-07-21)"
   xmlns:inkscape="http://www.inkscape.org/namespaces/inkscape"
   xmlns:sodipodi="http://sodipodi.sourceforge.net/DTD/sodipodi-0.dtd"
   xmlns="http://www.w3.org/2000/svg"
   xmlns:svg="http://www.w3.org/2000/svg">
  <defs
     id="defs6">
    <clipPath
       clipPathUnits="userSpaceOnUse"
       id="clipPath32">
      <path
         id="path33"
         style="fill:#ff0000;fill-opacity:1;fill-rule:nonzero;stroke:none"
         d="M 0.0234375,2.5488281 V 16.021484 H 52.457031 V 3.3125 c -0.171413,0.00273 -0.342489,0.00713 -0.513672,0.017578 -0.161929,0.011566 -0.326279,0.025507 -0.484375,0.064453 -0.156396,0.036724 -0.313506,0.072035 -0.472656,0.09375 -0.20405,0.015717 -0.408418,0.029896 -0.613281,0.023438 -0.280649,-2.72e-5 -0.561147,1.162e-4 -0.841797,0 -0.341871,-1.7e-4 -0.683521,8.163e-4 -1.025391,0 C 48.140138,3.510699 47.7739,3.508999 47.408203,3.503909 47.262155,3.501479 47.116548,3.4911 46.970703,3.486331 46.697105,3.501545 46.423321,3.514678 46.150391,3.539065 45.747701,3.573398 45.344755,3.600447 44.943359,3.64844 44.678963,3.67358 44.408583,3.709113 44.144531,3.664065 43.802819,3.605765 43.759729,3.3861891 43.929688,3.2617213 c -0.06838,-3.886e-4 -0.136623,-0.00478 -0.205079,-0.00391 -0.236269,0.003 -0.360309,-0.1077307 -0.375,-0.2265625 -0.208322,-0.05009 -0.414908,-0.1068626 -0.61914,-0.171875 C 42.516351,2.7912148 42.436671,2.659872 42.455078,2.5488269 Z m 43.6347655,0 c 0.04553,0.019001 0.09114,0.037736 0.136719,0.056641 0.01036,0.00221 0.02089,0.00368 0.03125,0.00586 0.03077,-0.015091 0.06181,-0.028773 0.09375,-0.041016 -0.05799,-0.00711 -0.115803,-0.014632 -0.173828,-0.021484 z m 4.417969,0 c 0.08635,0.00452 0.173308,0.00854 0.259766,0.011719 0.280389,0.013256 0.561567,0.024707 0.841796,0.041016 0.01643,9.561e-4 0.391676,0.024192 0.425782,0.039063 0.101594,0.044292 0.184885,0.1224814 0.277343,0.1835938 -0.02764,0.058547 -0.05097,0.1198696 -0.07617,0.1796874 0.189453,-4.3e-6 0.378917,-1.78e-5 0.568359,0 0.191826,0.00663 0.383178,-0.00872 0.574219,-0.023437 0.132194,-0.022585 0.264017,-0.050651 0.394531,-0.082031 0.184688,-0.04563 0.375239,-0.062478 0.564453,-0.076172 0.183311,-0.011407 0.367141,-0.014813 0.550781,-0.017578 V 2.5488281 Z m -3.121094,0.1582031 c -0.01098,0.011142 -0.02479,0.022182 -0.04102,0.035156 l -0.05859,0.046875 c 0.271773,0.022043 0.544044,0.044265 0.814453,0.076172 0.282942,0.037477 0.565208,0.071316 0.849609,0.095703 0.147266,0.012249 0.295433,0.011042 0.44336,0.015625 0.0156,-8.675e-4 0.03131,-0.00106 0.04687,-0.00195 -0.383613,-0.039374 -0.76628,-0.086761 -1.148432,-0.1386747 -0.302044,-0.042989 -0.604169,-0.086489 -0.90625,-0.1289063 z M 13.820312,4.3339844 c 0.06259,2.608e-4 0.124992,0.00246 0.1875,0.00781 0.08422,0.00721 0.168064,0.020853 0.251954,0.03125 0.169133,0.036418 0.33845,0.065712 0.509765,0.087891 0.0015,-5.506e-4 -0.005,-5.281e-4 0.0059,-0.00195 0.04359,-0.00572 0.0872,-0.010445 0.130859,-0.015625 0.167806,-0.021175 0.33698,-0.033046 0.505859,-0.041016 0.05756,-2.013e-4 0.114355,-0.00402 0.171875,-0.00195 0.132504,0.00478 0.198566,0.014263 0.31836,0.029297 0.01435,0.0018 0.02864,0.00391 0.04297,0.00586 -0.0036,3.133e-4 -0.0073,0.00124 -0.01953,0.00195 l -0.134765,0.021484 c -2.593608,0.4119683 0.96411,1.7752314 1.613281,2.7207031 0.144839,0.015092 0.289394,0.031921 0.435547,0.035156 0.203466,0.011585 0.409074,0.025489 0.605468,0.083984 0.12701,0.04816 0.312905,0.117456 0.365235,0.2617188 0.09466,0.2609838 0.03336,0.4507455 -0.195313,0.5898437 -0.176349,0.092085 -0.36254,0.1559533 -0.554687,0.2070313 -0.18255,0.052692 -0.370131,0.095046 -0.560547,0.1035156 -0.202269,0.00558 -0.40172,-0.01778 -0.595703,-0.078125 -0.159839,-0.055185 -0.319195,-0.1168333 -0.462891,-0.2070313 -0.07859,-0.051327 -0.157444,-0.1029464 -0.236328,-0.1542968 -0.154105,0.011062 -0.308199,0.016044 -0.46289,0.00781 -0.06062,-0.00516 -0.121091,-0.00975 -0.181641,-0.015625 -0.0024,-2.343e-4 -0.03904,-0.00362 -0.07031,-0.00781 -0.05276,0.00335 -0.105755,0.00468 -0.158203,0.011719 -0.310942,0.036908 -0.624966,0.067125 -0.9375,0.025391 -0.174677,-0.021396 -0.348674,-0.048386 -0.521484,-0.082031 -0.165518,0.068694 -0.328656,0.1415396 -0.503906,0.1835937 -0.06898,0.021092 -0.142779,0.040456 -0.199219,0.080078 -0.09622,0.1320637 -0.112736,0.3082976 -0.166016,0.4589844 -0.07355,0.2551017 -0.149192,0.5096446 -0.28125,0.7421874 -0.128133,0.2269163 -0.258718,0.4548914 -0.435547,0.6484377 -0.184952,0.182607 -0.384498,0.34703 -0.634765,0.43164 -0.221933,0.0817 -0.448074,0.148389 -0.677735,0.205079 -0.234566,0.04835 -0.47197,0.09549 -0.71289,0.08789 -0.199122,-2.12e-4 -0.3965836,-0.0012 -0.5957034,-0.002 -0.2509471,-0.0011 -0.5030014,-0.0027 -0.7539062,-0.0078 -0.2843974,-0.0068 -0.5680231,-0.01691 -0.8515625,-0.04101 -0.3660226,-0.033 -0.7315172,-0.0782 -1.0898438,-0.162109 C 6.5087204,10.488737 6.0600095,10.349002 5.6347656,10.140625 5.082024,9.8666066 4.5427569,9.5657925 4.0234375,9.2324219 3.439014,8.849623 2.8727064,8.4325909 2.3808594,7.9335938 1.8805905,7.4260526 2.4112774,6.9500282 2.9160156,7.453125 2.9438626,7.480881 2.9736336,7.505987 3.0019526,7.533203 3.1038268,7.4653502 3.2188879,7.419175 3.3378906,7.3847656 3.1191539,5.9413739 4.7575038,4.9451974 6.8164062,6.3808594 7.0048974,6.512293 7.2054263,6.625024 7.40625,6.7363281 c 0.1330793,0.075992 0.2745139,0.1307432 0.4179688,0.1816407 0.078885,6.678e-4 0.1573267,-0.00464 0.2363281,-0.00195 0.1952813,0.00185 0.39057,0.00957 0.5859375,0.013672 0.095983,-0.017357 0.1917915,-0.032139 0.2890625,-0.044922 0.2622806,-0.035855 0.5251905,-0.03207 0.7871093,-0.00781 0.013841,-0.036316 0.024243,-0.073392 0.039063,-0.109375 C 9.8542412,6.536114 9.9829283,6.3237939 10.126953,6.1210995 10.2956,5.8718388 10.500018,5.670111 10.726562,5.4746151 c 0.216459,-0.1767426 0.463416,-0.3104088 0.710938,-0.4375 0.206116,-0.094698 0.414583,-0.1827892 0.625,-0.2675782 0.202721,-0.080777 0.407525,-0.1557414 0.615234,-0.2226562 0.190155,-0.066881 0.384885,-0.1190724 0.582032,-0.1601562 0.184552,-0.034119 0.372769,-0.053517 0.560546,-0.052734 z m 0.964844,0.1289062 c 0.01379,0.00174 0.0272,0.00422 0.04102,0.00586 0.01492,-0.00393 0.01474,-0.00287 -0.02344,-0.00586 -0.0059,-4.635e-4 -0.01103,1.064e-4 -0.01758,0 z" />
    </clipPath>
  </defs>
  <sodipodi:namedview
     id="namedview6"
     pagecolor="#ffffff"
     bordercolor="#000000"
     borderopacity="0.25"
     inkscape:showpageshadow="2"
     inkscape:pageopacity="0.0"
     inkscape:pagecheckerboard="0"
     inkscape:deskcolor="#d1d1d1"
     inkscape:zoom="6.9455446"
     inkscape:cx="20.372773"
     inkscape:cy="32.32288"
     inkscape:window-width="1920"
     inkscape:window-height="1017"
     inkscape:window-x="-8"
     inkscape:window-y="-8"
     inkscape:window-maximized="1"
     inkscape:current-layer="svg6" />
  <path
     d="M88.6396 3.17759L100.142 0.0205684L97.2251 1.5551L100.142 1.84177L96.5675 3.17759L100.193 4.66153L96.9216 5.28181L99.3667 7.00183L88.6396 4.49152L89.0901 4.15759L88.6396 3.84521L89.3812 3.41673L88.6396 3.17759Z"
     fill="#D9D9D9"
     id="path1" />
  <path
     d="M80.6013 5.56813L85.493 5.52544C85.5459 5.58509 85.6233 5.62241 85.7092 5.62166L85.9552 5.61951C86.1128 5.61814 86.2395 5.48926 86.2381 5.33166C86.2367 5.17406 86.1079 5.04741 85.9502 5.04878L85.7042 5.05093C85.6183 5.05168 85.5416 5.09034 85.4898 5.1509L81.7659 5.18339C81.8041 5.1609 81.8444 5.1324 81.8878 5.09628C82.1232 4.90007 82.1232 4.73239 82.1232 4.73239V4.3043L87.6457 4.3043V3.4053L85.8477 3.4053V1.73572H85.1199V3.4053L81.1022 3.40529L81.1237 4.05018L81.0794 4.88779C81.0499 5.19815 80.8636 5.41971 80.6013 5.56813Z"
     fill="#D9D9D9"
     id="path2" />
  <path
     d="M 79.350542,5.71702 51.462016,6.18193 V 3.40284 L 79.350542,3.21265 V 3.12703 h 0.974105 v 2.6542 h -0.974105 z"
     fill="#d9d9d9"
     id="path4"
     style="stroke-width:1.12431" />
  <path
     fill-rule="evenodd"
     clip-rule="evenodd"
     d="M51.7283 6.509C49.545 7.08693 42.9523 7.98593 42.46 7.98593L36.1456 8.07155C34.9874 8.03196 32.892 8.07155 30.8372 8.19998C30.8162 8.20129 30.7953 8.20261 30.7743 8.20394C30.7681 8.15979 30.7286 8.12738 30.6834 8.13059L29.2081 8.23547C29.1609 8.23882 29.1254 8.27978 29.1287 8.32694C28.7107 8.36552 28.2999 8.4087 27.9035 8.45621C27.6507 8.48618 27.4252 8.51764 27.1119 8.55985L26.5134 9.1204C26.4813 9.14983 26.4517 9.18171 26.4251 9.21574C26.2387 9.45401 26.1985 9.79797 26.4706 10.1478C26.48 10.1599 26.4878 10.1718 26.4943 10.1836C26.5914 10.3607 26.377 10.5037 26.2566 10.3833C26.0086 10.1353 25.931 9.91492 25.9355 9.67692C25.9407 9.39733 26.1017 9.06991 26.4209 8.66726C26.1604 8.71161 26.0124 8.73824 25.774 8.78744C25.3366 8.87689 24.9557 8.97385 24.6512 9.07758C15.8538 12.0743 11.0318 13.5934 2.17608 15.9913C2.08783 16.0152 1.99474 16.0253 1.90874 16.0185C1.88524 16.0167 1.86226 16.0136 1.84006 16.0092C1.70708 15.9829 1.60186 15.9097 1.57678 15.7773C1.11885 13.3593 0.780085 11.9718 0.164695 9.67158C0.129723 9.54086 0.0938552 9.4072 0.0570241 9.27023C0.0360151 9.1921 0.0224429 9.12162 0.022461 9.05765C0.0224967 8.92578 0.0802725 8.82158 0.249681 8.7351C0.934613 8.38547 1.51256 8.19998 2.58281 8.02874L15.2117 6.68024C15.8538 6.59462 16.3247 6.74445 16.9026 7.12974C17.6834 7.65024 18.1655 7.75048 19.0217 7.47221L24.7786 5.02413C24.7234 4.58831 24.7679 4.29281 24.9081 3.66216C24.9509 3.46952 25.1221 3.46951 25.1221 3.68356V4.09025C25.3652 4.20579 25.5144 4.20831 25.807 4.09026C25.807 3.98323 26.1495 3.3839 26.7275 3.4053H30.0666L30.0666 3.72637H30.8392C30.9613 3.64522 31.1078 3.59794 31.2653 3.59794C31.4229 3.59794 31.5694 3.64522 31.6914 3.72637H35.9744L35.9744 3.4053H42.9524L43.937 3.72637H44.2794L44.2795 3.46951L44.6147 3.41754L44.0965 3.40397L44.1002 3.26109L43.937 3.25547C43.5063 3.21149 43.2306 2.89158 43.1878 2.54911H43.4447C43.5377 2.76049 43.6238 2.85248 43.937 2.89158L44.1097 2.89845L44.1138 2.74174L44.9817 2.76447L44.9773 2.93292L47.1666 3.01991C47.8213 2.90895 48.089 2.88387 48.7745 3.10563C48.9457 2.84877 49.224 2.82737 49.438 3.06282L49.6735 3.36249L50.7865 3.36249L50.7865 3.21265H52.4561V6.29495H51.921V6.27655C51.9201 6.42407 51.8559 6.47523 51.7283 6.509ZM44.9679 3.29102L45.3466 3.30407L44.9661 3.36306L44.9679 3.29102ZM13.6945 10.1159C13.533 10.1531 13.4321 10.3141 13.4692 10.4756C13.5064 10.6371 13.6674 10.738 13.8289 10.7009L14.8655 10.4627C15.027 10.4256 15.1279 10.2646 15.0907 10.103C15.0536 9.94149 14.8926 9.84064 14.7311 9.87775L13.6945 10.1159Z"
     fill="#D9D9D9"
     id="path5"
     clip-path="url(#clipPath32)" />
  <path
     d="M29.1549 8.61023C29.0347 8.62132 28.9153 8.63277 28.7968 8.64459C28.9977 8.8244 29.1709 9.10367 29.189 9.48428C29.2165 10.0622 28.6991 10.4623 28.3542 10.5117C27.4661 10.6389 27.0271 10.6829 26.2137 10.7472C25.9783 10.7658 25.3649 10.4475 25.2933 9.82675C25.2661 9.59065 25.2923 9.37533 25.418 9.15701C25.2003 9.20877 25.003 9.26258 24.8296 9.31824C25.0982 9.6007 25.1328 10.0301 24.9508 10.212C25.1817 10.7299 25.4859 10.9398 25.9783 11.0254C26.3453 11.0893 26.8387 11.0648 27.2197 11.004C29.6138 10.6223 32.3281 10.1282 33.4134 9.89804C33.5 9.87966 33.5763 9.86297 33.6412 9.84815C35.467 9.43122 36.5442 9.05612 37.8669 8.33273L36.1426 8.35611C34.9966 8.31693 32.9042 8.35584 30.8549 8.48392C30.8341 8.48522 30.8132 8.48653 30.7923 8.48786L30.5294 8.50457L30.5185 8.42752L29.4266 8.50514L29.4323 8.58463L29.1549 8.61023Z"
     fill="#D9D9D9"
     id="path6" />
</svg>
