<?xml version="1.0" encoding="UTF-8" standalone="no"?>
<svg
   width="58"
   height="17"
   viewBox="0 0 58 17"
   fill="none"
   version="1.1"
   id="svg5"
   sodipodi:docname="L86A2_killfeed.svg"
   xml:space="preserve"
   inkscape:version="1.3 (0e150ed6c4, 2023-07-21)"
   xmlns:inkscape="http://www.inkscape.org/namespaces/inkscape"
   xmlns:sodipodi="http://sodipodi.sourceforge.net/DTD/sodipodi-0.dtd"
   xmlns="http://www.w3.org/2000/svg"
   xmlns:svg="http://www.w3.org/2000/svg"><defs
     id="defs5" /><sodipodi:namedview
     id="namedview5"
     pagecolor="#ffffff"
     bordercolor="#000000"
     borderopacity="0.25"
     inkscape:showpageshadow="2"
     inkscape:pageopacity="0.0"
     inkscape:pagecheckerboard="0"
     inkscape:deskcolor="#d1d1d1"
     inkscape:zoom="17.10467"
     inkscape:cx="29.728724"
     inkscape:cy="18.67911"
     inkscape:window-width="1920"
     inkscape:window-height="1017"
     inkscape:window-x="-8"
     inkscape:window-y="-8"
     inkscape:window-maximized="1"
     inkscape:current-layer="svg5" /><path
     d="M55.7661 7.56445L46.1465 5.28804L46.5619 5.02321L46.1465 4.59376L46.841 4.1626L46.1465 4.01896L56.2333 0.913208L52.6603 3.19443L57.2777 4.29381L52.8527 5.00841L55.7661 7.56445Z"
     fill="#D9D9D9"
     id="path1" /><g
     id="g5"
     transform="matrix(0.06331828,0.03932473,-0.03932473,0.06331828,11.169578,-17.536828)"
     style="fill:#d9d9d9;fill-opacity:1"><path
       fill="#ffffff"
       d="m 387.47,118.53 a 0.96,0.79 -15.1 0 0 -0.86,1.22 l 14.85,24.96 a 1.81,1.8 -36.3 0 1 -0.35,2.26 c -3.44,3.07 -9.01,5.73 -13.69,3.2 -1.18,-0.64 -2.06,-0.51 -3.11,0.13 q -31.9,19.67 -63.85,39.25 a 1.65,1.61 -59.3 0 1 -0.93,0.25 q -2.76,-0.11 -5.28,-0.77 c -3.62,-0.97 -8.66,2.41 -11.63,4.27 a 1.02,1.02 0 0 1 -1.41,-0.33 l -17.57,-28.52 a 0.59,0.58 55.1 0 1 0.13,-0.77 L 285.9,162 a 1.09,1.07 64.3 0 0 0.37,-1.08 c -1.09,-4.7 -2.88,-10.75 -2.78,-15.49 a 1.11,1.09 72.7 0 1 0.45,-0.87 q 3.95,-2.88 5.37,-3.75 26.88,-16.5 55.42,-34.08 a 0.49,0.48 61.8 0 1 0.69,0.21 q 0.98,2.06 2.37,3.84 0.74,0.94 1.41,0.99 0.74,0.05 1.13,-0.91 0.18,-0.45 0.59,-0.71 l 17.35,-10.62 a 0.62,0.62 0 0 1 0.85,0.2 q 1.87,2.92 3.63,5.88 0.67,1.11 1.42,1.44 1.22,0.53 1.98,-0.68 a 1.09,1.09 0 0 1 1.89,0.08 q 3.06,5.9 7.45,10.82 a 0.52,0.52 0 0 0 0.84,-0.6 l -4.64,-8.25 a 1.17,1.16 -30.5 0 1 0.41,-1.56 q 54.05,-33.28 108.1,-66.65 1.19,-0.73 1.92,-3.06 a 1.55,1.51 -7.7 0 1 0.65,-0.83 L 538.89,7.89 a 1.28,1.26 -40.1 0 1 1.5,0.12 q 4.5,3.96 6.13,9.73 a 1.14,1.13 -23.7 0 1 -0.5,1.27 l -46.56,28.52 q -0.48,0.3 -1.04,0.17 -1.8,-0.41 -2.65,0.07 -17.62,9.97 -34.48,21.08 -0.5,0.34 -0.25,0.89 l 0.13,0.28 q 0.29,0.61 0.88,0.3 C 485.79,57.86 509.94,45.9 532.92,32.08 A 1.32,1.31 38.1 0 1 534,31.95 q 3.53,1.16 5.65,-1.74 a 0.56,0.56 0 0 1 0.92,0.02 l 4.67,7.04 a 0.82,0.82 0 0 1 -0.29,1.18 l -2.73,1.5 a 1.34,1.34 0 0 0 -0.57,0.63 l -1.85,4.24 q -0.19,0.43 0.06,0.84 c 1.06,1.77 2.21,5.04 4.95,3.26 q 0.43,-0.27 0.92,-0.13 8.88,2.63 8.57,11.99 a 2.73,2.72 -14.8 0 1 -1.32,2.26 l -7.39,4.48 q -0.62,0.38 -1.01,-0.24 l -2.56,-4.09 Q 541.61,62.54 541,63 l -1.87,1.42 q -0.4,0.29 -0.18,0.73 l 0.88,1.77 a 0.67,0.66 -29.1 0 1 -0.25,0.86 q -5.6,3.39 -11.16,6.77 c -2.15,1.31 -3.97,0.81 -5.98,1.83 q -4.48,2.28 -9.05,4.35 c -10.57,4.8 -20.46,11.38 -29.89,18.12 a 0.6,0.59 -33.1 0 0 -0.17,0.79 l 1.26,2.24 a 1.26,1.26 0 0 1 -0.41,1.68 q -13.69,8.86 -27.54,16.89 c -2.21,1.28 -3.99,1.94 -6.04,0.25 a 1.33,1.33 0 0 0 -2.18,1.04 l 0.12,7.02 a 0.96,0.95 -17.1 0 1 -0.44,0.82 l -6.32,4.09 a 0.91,0.9 57.4 0 1 -1.26,-0.28 l -10.99,-17.6 a 0.69,0.68 58.3 0 1 0.22,-0.95 l 16.68,-10.15 q 0.5,-0.3 0.76,0.23 0.93,1.86 3,0.53 12.67,-8.17 25.53,-16.01 a 0.85,0.84 -35.3 0 1 1.08,0.18 l 1.48,1.78 a 1.95,1.95 0 0 0 2.52,0.42 q 12.07,-7.35 24.19,-14.94 c 3.49,-2.19 6.48,-5.39 10.06,-7.84 q 2.14,-1.46 4.03,-3.53 c 3.55,-3.89 9.11,-6.52 13.64,-9.16 q 0.44,-0.26 0.84,0.05 0.38,0.3 0.49,0.83 a 1.72,1.57 -55.3 0 0 3.2,-0.73 l -0.45,-6.22 a 2.68,2.68 0 0 0 -4.09,-2.09 L 397.6,131.63 a 1.27,1.27 0 0 1 -1.75,-0.42 q -3.73,-6.04 -7.87,-12.18 -0.34,-0.51 -0.51,-0.5 z M 538.3359,16.1917 a 1.65,1.65 0 0 0 -2.2661,-0.5566 l -10.8631,6.5789 a 1.65,1.65 0 0 0 -0.5566,2.2661 l 0.114,0.1882 a 1.65,1.65 0 0 0 2.2661,0.5566 l 10.8631,-6.5789 a 1.65,1.65 0 0 0 0.5566,-2.2661 z M 501.07,62.06 a 4.48,4.48 0 0 0 -4.48,-4.48 4.48,4.48 0 0 0 -4.48,4.48 4.48,4.48 0 0 0 4.48,4.48 4.48,4.48 0 0 0 4.48,-4.48 z m -12.05,7.5 a 4.57,4.57 0 0 0 -4.57,-4.57 4.57,4.57 0 0 0 -4.57,4.57 4.57,4.57 0 0 0 4.57,4.57 4.57,4.57 0 0 0 4.57,-4.57 z m -12.18,7.53 a 4.54,4.54 0 0 0 -4.54,-4.54 4.54,4.54 0 0 0 -4.54,4.54 4.54,4.54 0 0 0 4.54,4.54 4.54,4.54 0 0 0 4.54,-4.54 z m -12.21,7.42 a 4.5,4.5 0 0 0 -4.5,-4.5 4.5,4.5 0 0 0 -4.5,4.5 4.5,4.5 0 0 0 4.5,4.5 4.5,4.5 0 0 0 4.5,-4.5 z m -12.16,7.52 a 4.51,4.51 0 0 0 -4.51,-4.51 4.51,4.51 0 0 0 -4.51,4.51 4.51,4.51 0 0 0 4.51,4.51 4.51,4.51 0 0 0 4.51,-4.51 z m -12.11,7.47 a 4.51,4.51 0 0 0 -4.51,-4.51 4.51,4.51 0 0 0 -4.51,4.51 4.51,4.51 0 0 0 4.51,4.51 4.51,4.51 0 0 0 4.51,-4.51 z m -12.12,7.49 a 4.55,4.55 0 0 0 -4.55,-4.55 4.55,4.55 0 0 0 -4.55,4.55 4.55,4.55 0 0 0 4.55,4.55 4.55,4.55 0 0 0 4.55,-4.55 z m -12.13,7.44 a 4.51,4.51 0 0 0 -4.51,-4.51 4.51,4.51 0 0 0 -4.51,4.51 4.51,4.51 0 0 0 4.51,4.51 4.51,4.51 0 0 0 4.51,-4.51 z m -12.0946,8.2388 a 4.61,4.4 9.6 0 0 -3.8116,-5.1072 4.61,4.4 9.6 0 0 -5.2792,3.5696 4.61,4.4 9.6 0 0 3.8116,5.1072 4.61,4.4 9.6 0 0 5.2792,-3.5696 z"
       id="path1-8"
       style="fill:#d9d9d9;fill-opacity:1" /><path
       fill="#ffffff"
       d="m 362.96,99.88 -9.16,5.8 a 1.23,1.23 0 0 1 -1.7,-0.4 l -20.4,-33.4 a 1.14,1.14 0 0 1 0.34,-1.54 l 4.18,-2.79 q 0.46,-0.3 0.97,-0.1 c 12.13,4.75 19.87,21.04 25.89,31.93 a 0.37,0.37 0 0 1 -0.12,0.5 z"
       id="path2-1"
       style="fill:#d9d9d9;fill-opacity:1" /><path
       fill="#ffffff"
       d="m 209.43,258.82 q -0.49,0.35 -0.18,0.85 l 9.26,15.17 a 0.95,0.95 0 0 1 -0.23,1.25 l -38.75,29.32 q -0.95,0.72 -1.58,-0.29 l -9.11,-14.71 a 1.38,1.38 0 0 0 -1.99,-0.38 q -30.03,22.3 -59.49,44.61 c -7.04,5.33 -11.09,15.87 -14.05,23.9 q -0.77,2.1 1.32,3.16 3.9,1.99 7.03,5.05 c 2.47,2.42 0.56,7.24 -2.86,4.97 Q 95,369.21 91.13,366.8 c -4.29,-2.67 -9.19,2.84 -12.85,-3.1 -11.52,-18.72 -22.97,-34.26 -40.84,-48.14 -6.78,-5.26 1.32,-12.42 5.86,-15.27 q 59.99,-37.64 120.9,-74.96 a 1.12,1.12 0 0 0 0.34,-1.59 q -8.4,-12.26 -15.76,-25.78 c -6.75,-12.37 2.39,-20.86 14.7,-17.16 a 1.35,1.33 40.8 0 0 0.95,-0.06 q 3.07,-1.41 8.48,-4.36 16.36,-8.9 44.21,-23.32 c 5.61,-2.9 10.69,-2.89 13.14,3.69 q 3.38,9.06 7.27,18.82 a 0.95,0.94 60.6 0 0 1.45,0.41 q 1.67,-1.25 2.98,0.37 a 0.88,0.88 0 0 0 1.15,0.19 l 31.15,-19.11 a 1.37,1.37 0 0 1 1.88,0.46 l 22.24,36.29 q 0.27,0.44 0.05,0.92 -0.81,1.76 -2.62,2.47 -1.38,0.53 -1.25,1.68 a 0.71,0.7 -19.8 0 0 1.09,0.51 c 3.72,-2.44 7.99,-4.86 12.46,-4.62 7.02,0.38 14.11,6.38 13.64,13.94 -0.43,6.94 -7.59,13.83 -13.7,15.73 q -7.98,2.47 -17.25,1.42 -1.57,-0.18 -2.01,1.33 c -1,3.47 -0.81,6.7 -0.03,10.54 q 3.13,15.5 7.74,35.65 c 0.45,1.97 1.3,2.61 3.38,2.94 6.83,1.08 6.15,9.39 0.37,11.05 q -16.1,4.64 -21.3,5.44 -10.49,1.64 -12.43,-9.2 -4.51,-25.28 -5.64,-39.8 c -0.34,-4.36 -2.58,-10.08 -8.64,-8.9 -4.16,0.81 -5.7,-4.26 -7.76,-7.17 a 1.93,1.93 0 0 1 0.57,-2.77 l 31.47,-19.37 a 0.94,0.94 0 0 1 1.3,0.31 q 4.77,7.79 9.72,15.69 c 1.95,3.11 9.72,2.34 13.16,2 q 12.63,-1.24 17.79,-11.67 c 5.61,-11.34 -10.25,-17.59 -18.54,-12.99 -2.37,1.31 -3.91,3.9 -5.99,5.84 a 0.95,0.95 0 0 0 -0.12,1.25 c 3.21,4.45 8.94,7.75 14.27,4.79 a 0.84,0.83 -77.8 0 1 0.9,1.4 l -7.92,5.9 q -0.44,0.33 -0.96,0.12 c -3.91,-1.53 -9.01,-3.55 -9.51,-8.31 a 1.98,1.98 0 0 0 -3.02,-1.47 l -2.92,1.83 a 0.61,0.59 58 0 1 -0.82,-0.2 l -4.65,-7.52 a 1.58,1.58 0 0 0 -2.17,-0.51 l -36.17,22.2 a 1.46,1.46 0 0 0 -0.49,2 l 3.49,5.84 a 1.53,1.51 -33.2 0 1 -0.43,2.02 z m 12.83,-101.58 q -0.61,-0.25 -1.19,0.06 -17.76,9.31 -35.61,19.09 c -9.54,5.23 -16.17,11.66 -22.59,19.96 -4.51,5.82 1.33,12.73 6.57,15.25 3.62,1.74 6.23,0.37 9.35,-1.58 q 25.12,-15.68 49.88,-30.57 a 3.47,3.46 -24.3 0 0 1.52,-4.01 q -2.64,-8.35 -5.99,-16.53 -0.44,-1.07 -1.94,-1.67 z m 50.46,62.68 0.86,-0.57 a 0.4,0.4 0 0 0 -0.34,-0.71 q -0.75,0.23 -0.97,0.94 -0.26,0.82 0.45,0.34 z"
       id="path3-9"
       style="fill:#d9d9d9;fill-opacity:1" /><path
       fill="#ffffff"
       d="m 264.81,325.69 c 5.46,4.39 2.72,8.86 -1.12,13.31 q -13.37,15.48 -18.1,20.1 c -3.25,3.17 -6.53,1.82 -9.94,-0.64 -19.3,-13.95 -36.93,-29.93 -50.65,-49.79 q -0.76,-1.11 0.3,-1.93 l 33.34,-25.92 a 1.05,1.03 -36.2 0 1 1.49,0.22 c 12.27,17.55 27.8,31.06 44.68,44.65 z"
       id="path4-5"
       style="fill:#d9d9d9;fill-opacity:1" /><path
       fill="#ffffff"
       d="m 116.05,343.5 -5.56,-6.93 a 0.8,0.79 52.2 0 1 0.14,-1.13 l 30.2,-23 a 1.32,1.32 0 0 1 1.85,0.25 l 4.82,6.3 a 2.07,2.06 -43 0 1 -0.1,2.63 l -4.37,4.87 a 1.91,1.9 42.6 0 0 0.12,2.66 q 18.92,17.74 30.44,41.01 a 2.03,2.03 0 0 1 -0.61,2.53 l -13.55,10.14 a 1.43,1.42 -42.1 0 1 -1.82,-0.09 q -18.86,-17.38 -31.17,-39.89 a 2.78,2.77 -24.3 0 0 -3.39,-1.28 l -6.04,2.2 a 0.87,0.85 60.2 0 1 -0.96,-0.27 z"
       id="path5-3"
       style="fill:#d9d9d9;fill-opacity:1" /></g></svg>
