<?xml version="1.0" encoding="UTF-8" standalone="no"?>
<svg
   version="1.1"
   width="100"
   height="100"
   viewBox="0 0 100 100"
   xml:space="preserve"
   id="svg218"
   sodipodi:docname="big_bush_residue.svg"
   inkscape:version="1.3 (0e150ed6c4, 2023-07-21)"
   xmlns:inkscape="http://www.inkscape.org/namespaces/inkscape"
   xmlns:sodipodi="http://sodipodi.sourceforge.net/DTD/sodipodi-0.dtd"
   xmlns="http://www.w3.org/2000/svg"
   xmlns:svg="http://www.w3.org/2000/svg"><sodipodi:namedview
   id="namedview220"
   pagecolor="#505050"
   bordercolor="#eeeeee"
   borderopacity="1"
   inkscape:showpageshadow="0"
   inkscape:pageopacity="0"
   inkscape:pagecheckerboard="true"
   inkscape:deskcolor="#505050"
   showgrid="false"
   inkscape:zoom="1.28"
   inkscape:cx="-235.54687"
   inkscape:cy="-15.234375"
   inkscape:window-width="1920"
   inkscape:window-height="1017"
   inkscape:window-x="-8"
   inkscape:window-y="-8"
   inkscape:window-maximized="1"
   inkscape:current-layer="svg218"
   showguides="true"
   inkscape:pageshadow="0" />&#10;<desc
   id="desc181">Created with Fabric.js 5.3.0</desc>&#10;<defs
   id="defs183" />&#10;&#10;<path
   style="fill:#68870e;fill-opacity:0.771784;stroke:#1f1000;stroke-width:0.148395;stroke-opacity:0"
   d="m 62.573103,47.752769 c -1.846207,-0.339608 -3.475996,-0.893166 -5.261952,-1.787215 -1.579167,-0.790532 -3.548355,-2.138836 -4.298302,-2.94304 l -0.359753,-0.385791 h 0.9748 c 3.284843,0 6.529411,-2.730482 6.87705,-5.7874 0.279407,-2.456961 -1.543159,-5.799725 -5.086062,-9.328341 l -1.692822,-1.685995 0.362382,-0.547598 c 1.623793,-2.453727 6.219388,-7.309248 9.071945,-9.585061 5.122259,-4.086627 9.975944,-6.2866851 11.794606,-5.346217 0.657393,0.339951 1.146296,0.884115 1.604106,1.785439 1.323996,2.606592 1.979825,6.541637 1.985393,11.912553 0.01267,12.278816 -3.925581,21.446994 -10.067694,23.437065 -1.467193,0.475376 -4.105917,0.592303 -5.903697,0.261601 z"
   id="path2" /><path
   style="fill:#4b660a;fill-opacity:0.692946;stroke:#1f1000;stroke-width:0.0524656;stroke-opacity:0"
   d="m 52.938586,42.704085 c -2.479553,-0.364198 -4.890317,-2.430075 -7.17978,-6.152648 -2.54895,-4.144476 -4.580266,-9.979326 -4.889918,-14.046063 -0.114603,-1.505027 0.09287,-2.525357 0.588038,-2.891915 0.596533,-0.441594 2.322511,-0.01418 4.584256,1.135236 4.35657,2.213993 9.267335,6.19771 11.967716,9.708455 1.386688,1.802824 2.259797,3.559051 2.524251,5.077431 0.110686,0.635525 0.07417,1.571058 -0.08544,2.189052 -0.449265,1.739541 -1.834361,3.353415 -3.668309,4.274198 -1.218524,0.611803 -2.668571,0.87843 -3.840818,0.706254 z"
   id="path6" /><path
   style="fill:#4b660a;fill-opacity:0.692946;stroke:#1f1000;stroke-width:0.0481899;stroke-opacity:0"
   d="m 60.076816,39.963952 c 0.712707,-2.188814 2.955531,-4.05253 6.679647,-5.550555 4.146191,-1.667808 9.742951,-2.605867 13.472917,-2.258163 1.380389,0.128678 2.272179,0.474113 2.527597,0.979062 0.307705,0.60832 -0.345858,2.105056 -1.735877,3.97539 -2.677448,3.602627 -7.042846,7.433713 -10.63863,9.336509 -1.846489,0.977118 -3.571476,1.496418 -4.987099,1.501356 -0.592514,0.0022 -1.433943,-0.175477 -1.968833,-0.415436 -1.50565,-0.675437 -2.752972,-2.178792 -3.303445,-3.98151 -0.365741,-1.197779 -0.383213,-2.551868 -0.04627,-3.586653 z"
   id="path6-0" /><path
   style="fill:#68870e;fill-opacity:0.771784;stroke:#1f1000;stroke-width:0.127706;stroke-opacity:0"
   d="m 34.932857,21.949906 c -0.517129,1.60177 -1.178279,2.978689 -2.134589,4.445535 -0.845583,1.297004 -2.192362,2.86136 -2.939711,3.414643 l -0.358516,0.265411 0.12844,-0.871943 c 0.432815,-2.93824 -1.341626,-6.239507 -3.761018,-6.997226 -1.944557,-0.609004 -4.880414,0.532715 -8.192821,3.186085 l -1.582689,1.267798 -0.393852,-0.404176 C 13.933288,24.44497 10.62316,19.624661 9.1637278,16.74049 6.5430543,11.56146 5.4083833,6.8983837 6.4064367,5.4090673 6.7672025,4.8707221 7.2704529,4.5129353 8.0576308,4.2351579 10.334122,3.431812 13.593882,3.4202815 17.925896,4.2002455 27.8296,5.9834333 34.704206,10.846044 35.499771,16.630909 c 0.19004,1.381856 -0.06335,3.759241 -0.566914,5.318995 z"
   id="path2-5" /><path
   style="fill:#4b660a;fill-opacity:0.692946;stroke:#1f1000;stroke-width:0.0451508;stroke-opacity:0"
   d="m 29.59198,29.829973 c -0.62041,2.164694 -2.604045,4.01916 -5.90771,5.523003 -3.678092,1.674289 -8.651152,2.638519 -11.971501,2.321153 -1.228802,-0.117446 -2.0242923,-0.452146 -2.254653,-0.948638 -0.2775154,-0.598126 0.2945819,-2.07952 1.519518,-3.93463 2.359462,-3.573312 6.219109,-7.383702 9.406092,-9.286061 1.636568,-0.976892 3.167888,-1.501205 4.427203,-1.515847 0.527092,-0.0062 1.276724,0.163262 1.754065,0.396349 1.343626,0.65609 2.462604,2.1309 2.96351,3.905907 0.332824,1.179364 0.35678,2.515375 0.06347,3.538768 z"
   id="path6-01" /><path
   style="fill:#4b660a;fill-opacity:0.692946;stroke:#1f1000;stroke-width:0.0414712;stroke-opacity:0"
   d="M 28.32279,23.044477 C 26.651566,22.087083 25.444123,19.808535 24.726761,16.25844 23.928094,12.305992 23.909048,7.1626847 24.680912,3.8771064 c 0.285653,-1.2159302 0.681726,-1.9631371 1.122587,-2.1178075 0.531113,-0.1863327 1.652014,0.6170141 2.977161,2.1337084 2.552492,2.9214498 5.066813,7.3861327 6.127505,10.8805937 0.544684,1.794458 0.736178,3.413326 0.553636,4.680299 -0.0763,0.530316 -0.330449,1.256993 -0.594437,1.700374 -0.74308,1.248067 -2.119783,2.144065 -3.646084,2.37299 -1.014118,0.152098 -2.108402,-0.03017 -2.898489,-0.482793 z"
   id="path6-0-5" /><path
   style="fill:#68870e;fill-opacity:0.771784;stroke:#1f1000;stroke-width:0.148395;stroke-opacity:0"
   d="m 36.464381,70.867024 c -1.211656,1.433773 -2.501532,2.573448 -4.164498,3.67957 -1.470419,0.978047 -3.61866,2.017609 -4.689126,2.269137 l -0.513517,0.120654 0.48412,-0.846087 c 1.631367,-2.851112 0.872783,-7.023318 -1.607848,-8.843226 -1.99378,-1.462726 -5.800314,-1.540945 -10.622539,-0.218281 l -2.30409,0.631978 -0.295322,-0.586489 C 11.428257,64.446287 9.4961927,58.046076 8.9375574,54.439924 7.9344214,47.964449 8.4353679,42.659021 10.154867,41.547565 c 0.621548,-0.40176 1.336666,-0.555857 2.346344,-0.505589 2.919959,0.145349 6.661127,1.530396 11.32563,4.192946 10.66381,6.087089 16.665547,14.058567 15.342462,20.378011 -0.316052,1.509553 -1.525046,3.857929 -2.704922,5.254091 z"
   id="path2-7" /><path
   style="fill:#4b660a;fill-opacity:0.692946;stroke:#1f1000;stroke-width:0.0524656;stroke-opacity:0"
   d="m 27.297492,76.722045 c -1.547541,1.971279 -4.537908,3.037739 -8.905978,3.176142 C 13.528379,80.052282 7.4551424,78.917594 3.7715947,77.166677 2.4083761,76.518699 1.6258091,75.831889 1.5535692,75.220058 1.4665422,74.482981 2.694701,73.19717 4.8156087,71.804906 8.900889,69.123125 14.797451,66.83923 19.185739,66.238966 c 2.253456,-0.308244 4.211406,-0.193864 5.660636,0.33068 0.606581,0.219553 1.40045,0.715866 1.857576,1.161318 1.286731,1.25386 1.999622,3.257574 1.888023,5.306659 -0.07414,1.361473 -0.562864,2.752471 -1.294484,3.684426 z"
   id="path6-1" /><path
   style="fill:#4b660a;fill-opacity:0.692946;stroke:#1f1000;stroke-width:0.0481899;stroke-opacity:0"
   d="m 28.46426,69.165504 c -1.545848,-1.705642 -2.049614,-4.577908 -1.500314,-8.554262 0.611552,-4.427018 2.5769,-9.750653 4.731123,-12.815431 0.797237,-1.134216 1.539954,-1.736699 2.105079,-1.707616 0.680814,0.03504 1.655339,1.345635 2.588381,3.480988 1.797222,4.113106 2.954442,9.804746 2.820201,13.870736 -0.06893,2.087948 -0.474888,3.84307 -1.173649,5.074226 -0.292354,0.515371 -0.864453,1.157457 -1.338373,1.502548 -1.33401,0.971398 -3.258325,1.307405 -5.096395,0.889901 -1.221264,-0.27741 -2.405236,-0.934733 -3.13605,-1.741096 z"
   id="path6-0-4" /><path
   style="fill:#68870e;fill-opacity:0.771784;stroke:#1f1000;stroke-width:0.148395;stroke-opacity:0"
   d="m 51.030534,74.088532 c 0.252419,-1.860134 0.728729,-3.51415 1.53781,-5.34017 0.715402,-1.614592 1.969619,-3.645003 2.73767,-4.431935 l 0.368448,-0.377496 0.04584,0.973722 c 0.15446,3.28121 3.034489,6.393796 6.104371,6.597309 2.467382,0.163566 5.720748,-1.814167 9.078866,-5.519074 l 1.60453,-1.770228 0.564033,0.336231 c 2.527367,1.506618 7.59361,5.868814 10.001039,8.611202 4.322966,4.924432 6.74882,9.669297 5.894909,11.53017 -0.308663,0.672652 -0.829236,1.186601 -1.708036,1.686287 -2.541452,1.445098 -6.441306,2.285235 -11.806018,2.543348 -12.264639,0.59003 -21.60786,-2.912758 -23.884544,-8.9545 -0.54384,-1.443217 -0.784716,-4.073524 -0.538914,-5.884866 z"
   id="path2-7-2" /><path
   style="fill:#4b660a;fill-opacity:0.692946;stroke:#1f1000;stroke-width:0.0524656;stroke-opacity:0"
   d="m 55.620599,64.227273 c 0.247201,-2.493935 2.197434,-4.999175 5.808234,-7.461148 4.020035,-2.741012 9.752915,-5.044448 13.800592,-5.544983 1.497974,-0.185245 2.526931,-0.02598 2.916368,0.451404 0.469158,0.575107 0.123373,2.319275 -0.91842,4.632567 -2.00669,4.455857 -5.755086,9.548513 -9.13497,12.410989 -1.735625,1.469926 -3.448854,2.42465 -4.953119,2.76021 -0.629618,0.140447 -1.565833,0.147961 -2.190648,0.01759 -1.758743,-0.366971 -3.435962,-1.674648 -4.441962,-3.463269 -0.668425,-1.188408 -1.00294,-2.624314 -0.886076,-3.803361 z"
   id="path6-1-6" /><path
   style="fill:#4b660a;fill-opacity:0.692946;stroke:#1f1000;stroke-width:0.0481899;stroke-opacity:0"
   d="m 58.693354,71.228761 c 2.219906,0.608996 4.187022,2.761703 5.858506,6.41126 1.860925,4.063181 3.061117,9.609642 2.889188,13.351831 -0.06363,1.384913 -0.366746,2.29196 -0.859126,2.570839 -0.59318,0.335966 -2.118991,-0.246492 -4.052617,-1.547027 -3.724541,-2.505083 -7.756659,-6.685508 -9.826431,-10.187841 -1.062864,-1.798499 -1.662701,-3.497161 -1.734199,-4.910985 -0.03006,-0.591756 0.107856,-1.440609 0.322398,-1.986191 0.603891,-1.535744 2.046932,-2.852377 3.821771,-3.487009 1.179257,-0.421658 2.531027,-0.502783 3.580511,-0.21487 z"
   id="path6-0-4-9" /><path
   style="fill:#68870e;fill-opacity:0.771784;stroke:#1f1000;stroke-width:0.127706;stroke-opacity:0"
   d="m 47.61414,97.408236 c -1.59069,0.550284 -3.08836,0.85027 -4.83541,0.968542 -1.54476,0.10458 -3.60457,-0.03044 -4.496091,-0.294714 l -0.427674,-0.126783 0.773844,-0.421838 C 41.23648,96.111957 42.80658,92.708752 41.95672,90.320159 41.27366,88.40037 38.595714,86.741635 34.483635,85.691291 l -1.964778,-0.501861 0.086,-0.557746 c 0.385368,-2.499201 2.245347,-8.042918 3.671693,-10.943595 2.561245,-5.208675 5.604086,-8.91986 7.394196,-9.018299 0.64707,-0.03558 1.23559,0.151262 1.93097,0.61306 2.01103,1.33549 3.98089,3.932761 5.96336,7.862713 4.5322,8.984557 4.78235,17.401366 0.63936,21.516359 -0.98966,0.982967 -3.04132,2.210501 -4.5903,2.746314 z"
   id="path2-5-2" /><path
   style="fill:#4b660a;fill-opacity:0.692946;stroke:#1f1000;stroke-width:0.0451508;stroke-opacity:0"
   d="m 38.10641,97.881057 c -2.102522,0.806356 -4.77714,0.337049 -7.965612,-1.397721 -3.549843,-1.931374 -7.31131,-5.324374 -9.054858,-8.167871 -0.645261,-1.052325 -0.856334,-1.88915 -0.598244,-2.371809 0.310923,-0.581461 1.838501,-1.015429 4.057302,-1.152627 4.273848,-0.264277 9.639413,0.527341 13.076076,1.929198 1.764776,0.719868 3.104686,1.627874 3.873836,2.625132 0.32198,0.417361 0.63748,1.118163 0.73837,1.639703 0.284,1.468038 -0.22118,3.24904 -1.33795,4.71682 -0.742,0.975249 -1.79493,1.797953 -2.788911,2.179193 z"
   id="path6-01-8" /><path
   style="fill:#4b660a;fill-opacity:0.692946;stroke:#1f1000;stroke-width:0.0414712;stroke-opacity:0"
   d="m 42.76393,92.785834 c -0.24033,-1.910974 0.85375,-4.246078 3.25843,-6.95445 2.67722,-3.015333 6.77473,-6.12409 9.86378,-7.483672 1.14322,-0.503133 1.97838,-0.636137 2.36711,-0.376966 0.46831,0.312228 0.50071,1.690899 0.0861,3.661801 -0.79869,3.796337 -2.85322,8.490389 -5.00695,11.439591 -1.10597,1.514455 -2.2841,2.641137 -3.40607,3.257353 -0.46956,0.258013 -1.20296,0.492048 -1.71596,0.547828 -1.44402,0.157032 -2.98787,-0.403891 -4.08878,-1.485553 -0.73147,-0.718693 -1.24404,-1.702537 -1.35765,-2.605976 z"
   id="path6-0-5-7" /><path
   style="fill:#68870e;fill-opacity:0.771784;stroke:#1f1000;stroke-width:0.127706;stroke-opacity:0"
   d="m 33.19715,56.300695 c -0.454793,-1.620578 -0.665257,-3.133427 -0.679509,-4.884418 -0.01261,-1.548244 0.244571,-3.596391 0.561352,-4.470634 l 0.151972,-0.419385 0.37511,0.797542 c 1.264026,2.68753 4.567921,4.457075 7.002793,3.750647 1.956985,-0.567778 3.77191,-3.142433 5.064743,-7.184831 l 0.617722,-1.931486 0.55165,0.118989 c 2.471886,0.533192 7.895287,2.719294 10.706085,4.315478 5.047281,2.866221 8.571102,6.124206 8.562998,7.917001 -0.0029,0.648041 -0.224414,1.224419 -0.726716,1.891131 -1.452626,1.928121 -4.162357,3.740169 -8.203164,5.485617 -9.237987,3.990327 -17.654788,3.739905 -21.516332,-0.640279 -0.922422,-1.046321 -2.025879,-3.167295 -2.468704,-4.745377 z"
   id="path2-5-2-4" /><path
   style="fill:#4b660a;fill-opacity:0.692946;stroke:#1f1000;stroke-width:0.0451508;stroke-opacity:0"
   d="m 33.290117,46.781669 c -0.679999,-2.14672 -0.0526,-4.788726 1.86857,-7.868484 2.138895,-3.428807 5.749407,-6.982015 8.691482,-8.55352 1.088807,-0.581591 1.936696,-0.742567 2.403166,-0.456254 0.561959,0.344925 0.904391,1.89559 0.909504,4.118623 0.0099,4.281999 -1.099186,9.591045 -2.702775,12.938337 -0.823459,1.718883 -1.809478,3.002472 -2.850677,3.711005 -0.435756,0.296611 -1.154067,0.569912 -1.680681,0.639634 -1.482319,0.196266 -3.230156,-0.413849 -4.628984,-1.615861 -0.929435,-0.798639 -1.688118,-1.898596 -2.009624,-2.913472 z"
   id="path6-01-8-7" /><path
   style="fill:#4b660a;fill-opacity:0.692946;stroke:#1f1000;stroke-width:0.0414712;stroke-opacity:0"
   d="m 38.099585,51.73372 c 1.921878,-0.126355 4.187845,1.104545 6.748545,3.665908 2.850923,2.851662 5.710712,7.126655 6.884339,10.291034 0.434314,1.171096 0.517457,2.012683 0.235646,2.385327 -0.339504,0.448929 -1.717664,0.399351 -3.660447,-0.131638 -3.742171,-1.022859 -8.305848,-3.352681 -11.121863,-5.677848 -1.446062,-1.194005 -2.500748,-2.437001 -3.04921,-3.593602 -0.229656,-0.484062 -0.419698,-1.230073 -0.444897,-1.745481 -0.07095,-1.450799 0.580718,-2.958591 1.725885,-3.993282 0.760887,-0.687473 1.77345,-1.140677 2.682043,-1.200404 z"
   id="path6-0-5-7-7" /><path
   style="fill:#68870e;fill-opacity:0.771784;stroke:#1f1000;stroke-width:0.127706;stroke-opacity:0"
   d="m 18.123493,98.759624 c -1.59069,0.550284 -3.08836,0.85027 -4.83541,0.968542 -1.54476,0.10458 -3.6045695,-0.03044 -4.4960905,-0.294714 l -0.427674,-0.126783 0.773844,-0.421838 C 11.745833,97.463345 13.315933,94.06014 12.466073,91.671547 11.783013,89.751758 9.1050675,88.093023 4.9929885,87.042679 l -1.964778,-0.501861 0.086,-0.557746 c 0.385368,-2.499201 2.245347,-8.042918 3.671693,-10.943595 2.561245,-5.208675 5.6040855,-8.91986 7.3941955,-9.018299 0.64707,-0.03558 1.23559,0.151262 1.93097,0.61306 2.01103,1.33549 3.98089,3.932761 5.96336,7.862713 4.5322,8.984557 4.78235,17.401366 0.63936,21.516359 -0.98966,0.982967 -3.04132,2.210501 -4.5903,2.746314 z"
   id="path2-5-2-8" /><path
   style="fill:#4b660a;fill-opacity:0.692946;stroke:#1f1000;stroke-width:0.0451508;stroke-opacity:0"
   d="m 2.9530863,96.861035 c -1.3747474,-1.7835 -1.6911269,-4.48049 -0.9422342,-8.03224 0.8337652,-3.954292 3.0073155,-8.529963 5.2323289,-11.014868 0.823434,-0.919623 1.56475,-1.361526 2.101108,-1.252485 0.6461525,0.131364 1.499449,1.470657 2.26638,3.557214 1.477265,4.019117 2.255545,9.386633 1.896699,13.080829 -0.184268,1.89702 -0.670476,3.44086 -1.405667,4.46341 -0.30766,0.42803 -0.888742,0.93102 -1.359538,1.17706 -1.3251995,0.69256 -3.176278,0.71863 -4.902421,0.069 -1.1469076,-0.4316 -2.2367105,-1.20479 -2.8866627,-2.04794 z"
   id="path6-01-8-6"
   inkscape:transform-center-x="2.5471503e-05"
   inkscape:transform-center-y="-3.1250712" /><path
   style="fill:#4b660a;fill-opacity:0.692946;stroke:#1f1000;stroke-width:0.0414712;stroke-opacity:0"
   d="m 13.273283,94.137222 c -0.24033,-1.910974 0.85375,-4.246078 3.25843,-6.95445 2.67722,-3.015333 6.77473,-6.12409 9.86378,-7.483672 1.14322,-0.503133 1.97838,-0.636137 2.36711,-0.376966 0.46831,0.312228 0.50071,1.690899 0.0861,3.661801 -0.79869,3.796337 -2.85322,8.490389 -5.00695,11.439591 -1.10597,1.514455 -2.2841,2.641137 -3.40607,3.257353 -0.46956,0.258013 -1.20296,0.492048 -1.71596,0.547828 -1.44402,0.157032 -2.98787,-0.403891 -4.08878,-1.485553 -0.73147,-0.718693 -1.24404,-1.702537 -1.35765,-2.605976 z"
   id="path6-0-5-7-0" /><path
   style="fill:#68870e;fill-opacity:0.771784;stroke:#1f1000;stroke-width:0.127706;stroke-opacity:0"
   d="m 93.045372,67.368999 c -1.59069,0.550284 -3.08836,0.85027 -4.83541,0.968542 -1.54476,0.10458 -3.60457,-0.03044 -4.496095,-0.294714 l -0.427674,-0.126783 0.773839,-0.421838 c 2.60768,-1.421486 4.17778,-4.824691 3.32792,-7.213284 -0.68306,-1.919789 -3.36101,-3.578524 -7.473089,-4.628868 l -1.964778,-0.501861 0.086,-0.557746 c 0.385368,-2.499201 2.245347,-8.042918 3.671693,-10.943595 2.561244,-5.208675 5.604084,-8.91986 7.394194,-9.018299 0.64707,-0.03558 1.23559,0.151262 1.93097,0.61306 2.01103,1.33549 3.98089,3.932761 5.96336,7.862713 4.532198,8.984557 4.782348,17.401366 0.63936,21.516359 -0.98966,0.982967 -3.04132,2.210501 -4.5903,2.746314 z"
   id="path2-5-2-7" /><path
   style="fill:#4b660a;fill-opacity:0.692946;stroke:#1f1000;stroke-width:0.0451508;stroke-opacity:0"
   d="m 83.537638,67.84182 c -2.102522,0.806356 -4.77714,0.337049 -7.965612,-1.397721 -3.549843,-1.931374 -7.31131,-5.324374 -9.054858,-8.167871 -0.645261,-1.052325 -0.856334,-1.88915 -0.598244,-2.371809 0.310923,-0.581461 1.838501,-1.015429 4.057302,-1.152627 4.273848,-0.264277 9.639413,0.527341 13.076076,1.929198 1.76478,0.719868 3.10469,1.627874 3.87384,2.625132 0.32198,0.417361 0.63748,1.118163 0.73837,1.639703 0.284,1.468038 -0.22118,3.24904 -1.33795,4.71682 -0.742,0.975249 -1.79493,1.797953 -2.788915,2.179193 z"
   id="path6-01-8-8" /><path
   style="fill:#4b660a;fill-opacity:0.692946;stroke:#1f1000;stroke-width:0.0414712;stroke-opacity:0"
   d="m 88.195162,62.746597 c -0.24033,-1.910974 0.85375,-4.246078 3.25843,-6.95445 2.67722,-3.015333 6.77473,-6.12409 9.863778,-7.483672 1.14322,-0.503133 1.97838,-0.636137 2.36711,-0.376966 0.46831,0.312228 0.50071,1.690899 0.0861,3.661801 -0.79869,3.796337 -2.85322,8.490389 -5.006948,11.439591 -1.10597,1.514455 -2.2841,2.641137 -3.40607,3.257353 -0.46956,0.258013 -1.20296,0.492048 -1.71596,0.547828 -1.44402,0.157032 -2.98787,-0.403891 -4.08878,-1.485553 -0.73147,-0.718693 -1.24404,-1.702537 -1.35765,-2.605976 z"
   id="path6-0-5-7-1" /><path
   style="fill:#68870e;fill-opacity:0.771784;stroke:#1f1000;stroke-width:0.127706;stroke-opacity:0"
   d="m 91.490685,98.197124 c -1.590694,0.550284 -3.088364,0.85027 -4.835414,0.968542 -1.54476,0.10458 -3.60457,-0.03044 -4.496091,-0.294714 l -0.427674,-0.126783 0.773844,-0.421838 c 2.607671,-1.421486 4.177771,-4.824691 3.327911,-7.213284 -0.68306,-1.919789 -3.361006,-3.578524 -7.473085,-4.628868 l -1.964778,-0.501861 0.086,-0.557746 c 0.385368,-2.499201 2.245347,-8.042918 3.671693,-10.943595 2.561245,-5.208675 5.604086,-8.91986 7.394196,-9.018299 0.64707,-0.03558 1.23559,0.151262 1.93097,0.61306 2.011028,1.33549 3.980888,3.932761 5.963358,7.862713 4.5322,8.984557 4.782345,17.401366 0.63936,21.516359 -0.98966,0.982967 -3.04132,2.210501 -4.5903,2.746314 z"
   id="path2-5-2-89" /><path
   style="fill:#4b660a;fill-opacity:0.692946;stroke:#1f1000;stroke-width:0.0451508;stroke-opacity:0"
   d="m 81.982951,98.669945 c -2.102522,0.806356 -4.77714,0.337049 -7.965612,-1.397721 -3.549843,-1.931374 -7.31131,-5.324374 -9.054858,-8.167871 -0.645261,-1.052325 -0.856334,-1.88915 -0.598244,-2.371809 0.310923,-0.581461 1.838501,-1.015429 4.057302,-1.152627 4.273848,-0.264277 9.639413,0.527341 13.076076,1.929198 1.764776,0.719868 3.104686,1.627874 3.873836,2.625132 0.32198,0.417361 0.63748,1.118163 0.73837,1.639703 0.284,1.468038 -0.22118,3.24904 -1.33795,4.71682 -0.742,0.975249 -1.79493,1.797953 -2.788911,2.179193 z"
   id="path6-01-8-3" /><path
   style="fill:#4b660a;fill-opacity:0.692946;stroke:#1f1000;stroke-width:0.0414712;stroke-opacity:0"
   d="m 89.53782,96.333342 c -0.999053,-1.646656 -0.952835,-4.224947 0.137666,-7.678724 1.214098,-3.845221 3.686792,-8.355181 5.952392,-10.85673 0.83848,-0.925762 1.546712,-1.38792 2.007355,-1.309892 0.554946,0.094 1.146993,1.3395 1.572539,3.308069 0.819618,3.791873 0.858918,8.915705 0.09579,12.486976 -0.391879,1.833896 -1.007842,3.343198 -1.78079,4.363536 -0.323441,0.427134 -0.897549,0.940016 -1.343157,1.200235 -1.254314,0.732496 -2.892684,0.850234 -4.3391,0.311831 -0.961036,-0.357738 -1.830394,-1.046863 -2.302702,-1.825346 z"
   id="path6-0-5-7-4" /><path
   style="fill:#68870e;fill-opacity:0.771784;stroke:#1f1000;stroke-width:0.127706;stroke-opacity:0"
   d="m 86.045257,2.1373535 c 1.52131,0.720239 2.80099,1.554154 4.13162,2.692396 1.17656,1.006444 2.55331,2.544497 3.00514,3.357219 l 0.21674,0.389873 -0.84796,-0.240289 c -2.85744,-0.809739 -6.36073,0.522171 -7.42543,2.8230525 -0.85573,1.849293 -0.10387,4.908302 2.09812,8.536474 l 1.05213,1.733563 -0.45178,0.338188 c -2.02438,1.515378 -7.23282,4.173298 -10.28172,5.246877 -5.474836,1.927815 -10.245598,2.448967 -11.593104,1.266422 -0.48708,-0.427456 -0.776672,-0.972801 -0.950155,-1.789327 -0.501727,-2.361365 -0.09096,-5.595161 1.243518,-9.789667 3.050897,-9.5893235 8.762952,-15.77621852 14.602131,-15.81582652 1.39483,-0.0095 3.71938,0.54966802 5.20076,1.25105202 z"
   id="path2-5-2-0" /><path
   style="fill:#4b660a;fill-opacity:0.692946;stroke:#1f1000;stroke-width:0.0451508;stroke-opacity:0"
   d="m 93.167207,8.4538735 c 2.06611,0.895561 3.64803,3.1026695 4.71132,6.5732895 1.1838,3.863963 1.49579,8.920023 0.75105,12.171298 -0.27561,1.20324 -0.71053,1.948679 -1.23267,2.112794 -0.62903,0.197709 -2.02385,-0.56144 -3.70468,-2.016332 -3.23762,-2.802403 -6.51601,-7.123061 -7.98957,-10.529597 -0.7567,-1.749304 -1.07825,-3.335631 -0.92967,-4.586247 0.0621,-0.523452 0.32725,-1.24482 0.6202,-1.687948 0.82459,-1.2473305 2.43191,-2.1658715 4.25684,-2.4326525 1.21254,-0.177276 2.5404,-0.02798 3.51719,0.395382 z"
   id="path6-01-8-69" /><path
   style="fill:#4b660a;fill-opacity:0.692946;stroke:#1f1000;stroke-width:0.0414712;stroke-opacity:0"
   d="m 86.274477,8.8335165 c -1.16579,1.5331395 -3.58153,2.4352985 -7.19463,2.6868105 -4.022606,0.280019 -9.125055,-0.36726 -12.282991,-1.5581145 -1.168692,-0.440743 -1.858302,-0.930252 -1.95457,-1.387432 -0.115976,-0.550772 0.825781,-1.558183 2.501311,-2.67575 3.227443,-2.152602 7.980177,-4.067475 11.58259,-4.666637 1.84988,-0.30767802 3.47992,-0.28788002 4.71257,0.05722 0.51597,0.144345 1.20361,0.490472 1.60906,0.809667 1.14132,0.898474 1.85146,2.379625 1.88077,3.922718 0.0195,1.025275 -0.303,2.086735 -0.85415,2.811542 z"
   id="path6-0-5-7-8" /><path
   style="fill:#68870e;fill-opacity:0.771784;stroke:#1f1000;stroke-width:0.127706;stroke-opacity:0"
   d="m 41.924659,2.933753 c 1.50648,-0.7507487 2.952983,-1.2412966 4.67021,-1.5837943 1.518389,-0.3028427 3.578418,-0.4344797 4.496568,-0.2873368 l 0.440449,0.070594 -0.713008,0.5180747 c -2.402669,1.7457808 -3.520961,5.3229922 -2.370278,7.5820999 0.924841,1.8157175 3.794271,3.1153975 8.00744,3.6268895 l 2.013079,0.244394 -0.01338,0.564178 c -0.05998,2.528026 -1.189799,8.265258 -2.230317,11.325603 -1.868423,5.495386 -4.407466,9.567859 -6.16995,9.89624 -0.637085,0.118697 -1.24478,0.0093 -1.993889,-0.359023 -2.166408,-1.065105 -4.454647,-3.38677 -6.927185,-7.028372 -5.652585,-8.325345 -6.98566,-16.639679 -3.407702,-21.2544116 0.854686,-1.1023423 2.730986,-2.584114 4.19797,-3.3151356 z"
   id="path2-5-2-3" /><path
   style="fill:#4b660a;fill-opacity:0.692946;stroke:#1f1000;stroke-width:0.0451508;stroke-opacity:0"
   d="m 51.292107,1.239234 c 1.981032,-1.0706644 4.693832,-0.9500586 8.07933,0.3592105 3.769198,1.4576483 7.93667,4.3374467 10.03223,6.9324573 0.77553,0.960364 1.09272,1.7629972 0.899,2.2748992 -0.23337,0.616691 -1.69226,1.243958 -3.87486,1.666038 -4.204123,0.813014 -9.626967,0.719677 -13.215669,-0.227463 -1.842849,-0.486364 -3.28863,-1.214065 -4.17992,-2.103851 -0.373095,-0.3723726 -0.776303,-1.0266561 -0.943583,-1.5308388 -0.470876,-1.4191786 -0.1995,-3.2504432 0.71874,-4.8499395 0.61009,-1.0627631 1.548179,-2.0143361 2.484721,-2.5205294 z"
   id="path6-01-8-2" /><path
   style="fill:#4b660a;fill-opacity:0.692946;stroke:#1f1000;stroke-width:0.0414712;stroke-opacity:0"
   d="m 47.330275,6.8923455 c 0.484668,1.8640484 -0.299264,4.3207075 -2.334744,7.3164685 -2.266175,3.335295 -5.92875,6.946325 -8.816762,8.692773 -1.068822,0.646307 -1.879868,0.885862 -2.298764,0.678965 -0.504652,-0.249253 -0.714507,-1.612244 -0.557425,-3.620149 0.302639,-3.867621 1.734916,-8.787356 3.490494,-11.9895889 0.901513,-1.6443896 1.924576,-2.9135443 2.957748,-3.6692521 0.432382,-0.3163913 1.129493,-0.6430163 1.631022,-0.7644618 1.411729,-0.3418706 3.015006,0.015354 4.246167,0.9460727 0.818014,0.6184025 1.453135,1.5279621 1.682259,2.4092176 z"
   id="path6-0-5-7-3" /><path
   style="fill:#68870e;fill-opacity:0.771784;stroke:#1f1000;stroke-width:0.127706;stroke-opacity:0"
   d="m 21.2059,39.748153 c 0.330135,-1.65049 0.829108,-3.094108 1.610992,-4.660897 0.691348,-1.385373 1.849952,-3.093789 2.528962,-3.729081 l 0.325736,-0.304754 -0.02765,0.880919 c -0.0932,2.968482 2.047928,6.044618 4.538232,6.520039 2.001537,0.382111 4.78719,-1.088581 7.773648,-4.104122 l 1.426949,-1.440845 0.437583,0.356367 c 1.96076,1.596852 5.80156,6.005998 7.581949,8.703888 3.197005,4.844525 4.858663,9.346821 4.037886,10.940718 -0.296688,0.576144 -0.755608,0.989252 -1.505761,1.355423 -2.169412,1.058975 -5.406368,1.444052 -9.799232,1.16575 C 30.092371,54.795248 22.705733,50.752622 21.252372,45.097069 20.905203,43.746097 20.884387,41.355341 21.205902,39.74815 Z"
   id="path2-5-2-2" /><path
   style="fill:#4b660a;fill-opacity:0.692946;stroke:#1f1000;stroke-width:0.0451508;stroke-opacity:0"
   d="m 25.608398,31.307863 c 0.368212,-2.221537 2.126217,-4.291139 5.23575,-6.163726 3.46195,-2.084825 8.291721,-3.612696 11.626563,-3.677988 1.234166,-0.02417 2.062776,0.217149 2.348524,0.683966 0.344242,0.562377 -0.05429,2.099579 -1.05853,4.082862 -1.934352,3.820196 -5.33183,8.047854 -8.279772,10.302958 -1.513806,1.158031 -2.974938,1.854399 -4.224285,2.013291 -0.522905,0.06657 -1.287019,-0.01585 -1.787927,-0.192696 -1.409971,-0.497769 -2.690617,-1.834601 -3.39166,-3.5405 -0.465812,-1.133444 -0.642732,-2.457907 -0.468683,-3.508168 z"
   id="path6-01-8-29" /><path
   style="fill:#4b660a;fill-opacity:0.692946;stroke:#1f1000;stroke-width:0.0414712;stroke-opacity:0"
   d="m 27.646954,37.90317 c 1.769939,0.759537 3.230588,2.884678 4.350122,6.329153 1.246421,3.834863 1.854845,8.942091 1.464704,12.294476 -0.144413,1.240661 -0.452229,2.028336 -0.872455,2.232518 -0.506255,0.245981 -1.711846,-0.423597 -3.202117,-1.778384 -2.870513,-2.609643 -5.879988,-6.756724 -7.33422,-10.106582 -0.746767,-1.720199 -1.122545,-3.30645 -1.086425,-4.585995 0.01501,-0.535566 0.1842,-1.286582 0.395633,-1.757301 0.595136,-1.325015 1.860066,-2.372899 3.350068,-2.775254 0.990002,-0.267328 2.097965,-0.211689 2.934723,0.1474 z"
   id="path6-0-5-7-40" /></svg>
