<?xml version="1.0" encoding="UTF-8" standalone="no"?>
<!-- Created with Inkscape (http://www.inkscape.org/) -->

<svg
   width="236.92624"
   height="217.72469"
   viewBox="0 0 62.686737 57.60633"
   version="1.1"
   id="svg1062"
   inkscape:version="1.3 (0e150ed6c4, 2023-07-21)"
   sodipodi:docname="oak_tree_residue.svg"
   xmlns:inkscape="http://www.inkscape.org/namespaces/inkscape"
   xmlns:sodipodi="http://sodipodi.sourceforge.net/DTD/sodipodi-0.dtd"
   xmlns="http://www.w3.org/2000/svg"
   xmlns:svg="http://www.w3.org/2000/svg"
   xmlns:rdf="http://www.w3.org/1999/02/22-rdf-syntax-ns#"
   xmlns:cc="http://creativecommons.org/ns#"
   xmlns:dc="http://purl.org/dc/elements/1.1/">
  <sodipodi:namedview
     id="namedview1064"
     pagecolor="#505050"
     bordercolor="#ffffff"
     borderopacity="1"
     inkscape:pageshadow="0"
     inkscape:pageopacity="0"
     inkscape:pagecheckerboard="1"
     inkscape:document-units="px"
     showgrid="false"
     units="px"
     inkscape:zoom="3.1037318"
     inkscape:cx="141.92592"
     inkscape:cy="106.80691"
     inkscape:window-width="1920"
     inkscape:window-height="1017"
     inkscape:window-x="-8"
     inkscape:window-y="-8"
     inkscape:window-maximized="1"
     inkscape:current-layer="layer1"
     inkscape:showpageshadow="2"
     inkscape:deskcolor="#505050" />
  <defs
     id="defs1059" />
  <g
     inkscape:label="Layer 1"
     inkscape:groupmode="layer"
     id="layer1"
     transform="translate(8.3393664,10.640721)">
    <path
       sodipodi:type="star"
       style="fill:#6d4a2c;fill-opacity:1;stroke:#312114;stroke-width:0.79375;stroke-linejoin:round;stroke-dasharray:none;stroke-opacity:1"
       id="path1620"
       inkscape:flatsided="false"
       sodipodi:sides="8"
       sodipodi:cx="6.6306486"
       sodipodi:cy="7.655385"
       sodipodi:r1="8.4433117"
       sodipodi:r2="6.7546492"
       sodipodi:arg1="0.17219081"
       sodipodi:arg2="0.5648899"
       inkscape:rounded="0"
       inkscape:randomized="0"
       d="M 14.949099,9.1020719 12.335946,11.271303 11.489719,14.560379 8.1080634,14.24648 5.1839617,15.973835 3.0147308,13.360683 -0.27434587,12.514455 0.03955379,9.1327998 -1.6878013,6.2086981 0.92535078,4.0394672 1.7715784,0.75039054 5.1532339,1.0642902 8.0773355,-0.66306492 10.246566,1.9500872 l 3.289077,0.8462276 -0.3139,3.3816555 z"
       transform="matrix(1.6576083,0,0,1.6576083,11.550334,5.4728147)" />
    <path
       sodipodi:type="star"
       style="fill:#5f4316;fill-opacity:0;fill-rule:nonzero;stroke:#312114;stroke-width:0.30749;stroke-linejoin:miter;stroke-dasharray:none;stroke-opacity:1"
       id="path1620-8"
       inkscape:flatsided="false"
       sodipodi:sides="8"
       sodipodi:cx="6.6306486"
       sodipodi:cy="7.655385"
       sodipodi:r1="8.4433117"
       sodipodi:r2="6.7546492"
       sodipodi:arg1="0.17219081"
       sodipodi:arg2="0.5648899"
       inkscape:rounded="0"
       inkscape:randomized="0"
       d="M 14.949099,9.1020719 12.335946,11.271303 11.489719,14.560379 8.1080634,14.24648 5.1839617,15.973835 3.0147308,13.360683 -0.27434587,12.514455 0.03955379,9.1327998 -1.6878013,6.2086981 0.92535078,4.0394672 1.7715784,0.75039054 5.1532339,1.0642902 8.0773355,-0.66306492 10.246566,1.9500872 l 3.289077,0.8462276 -0.3139,3.3816555 z"
       transform="matrix(1.4263092,0,0,1.4263092,13.083996,7.2434982)" />
    <path
       sodipodi:type="star"
       style="fill:#5f4316;fill-opacity:0;fill-rule:nonzero;stroke:#312114;stroke-width:0.30749;stroke-linejoin:miter;stroke-dasharray:none;stroke-opacity:1"
       id="path1620-8-5"
       inkscape:flatsided="false"
       sodipodi:sides="8"
       sodipodi:cx="6.6306486"
       sodipodi:cy="7.655385"
       sodipodi:r1="8.4433117"
       sodipodi:r2="6.7546492"
       sodipodi:arg1="0.17219081"
       sodipodi:arg2="0.5648899"
       inkscape:rounded="0"
       inkscape:randomized="0"
       d="M 14.949099,9.1020719 12.335946,11.271303 11.489719,14.560379 8.1080634,14.24648 5.1839617,15.973835 3.0147308,13.360683 -0.27434587,12.514455 0.03955379,9.1327998 -1.6878013,6.2086981 0.92535078,4.0394672 1.7715784,0.75039054 5.1532339,1.0642902 8.0773355,-0.66306492 10.246566,1.9500872 l 3.289077,0.8462276 -0.3139,3.3816555 z"
       transform="matrix(1.2807363,0,0,1.2807363,14.04924,8.357915)" />
    <path
       sodipodi:type="star"
       style="fill:#5f4316;fill-opacity:0;fill-rule:nonzero;stroke:#312114;stroke-width:0.30749;stroke-linejoin:miter;stroke-dasharray:none;stroke-opacity:1"
       id="path1620-8-5-7"
       inkscape:flatsided="false"
       sodipodi:sides="8"
       sodipodi:cx="6.6306486"
       sodipodi:cy="7.655385"
       sodipodi:r1="8.4433117"
       sodipodi:r2="6.7546492"
       sodipodi:arg1="0.17219081"
       sodipodi:arg2="0.5648899"
       inkscape:rounded="0"
       inkscape:randomized="0"
       d="M 14.949099,9.1020719 12.335946,11.271303 11.489719,14.560379 8.1080634,14.24648 5.1839617,15.973835 3.0147308,13.360683 -0.27434587,12.514455 0.03955379,9.1327998 -1.6878013,6.2086981 0.92535078,4.0394672 1.7715784,0.75039054 5.1532339,1.0642902 8.0773355,-0.66306492 10.246566,1.9500872 l 3.289077,0.8462276 -0.3139,3.3816555 z"
       transform="matrix(1.1429956,0,0,1.1429956,14.96255,9.4123729)" />
    <path
       sodipodi:type="star"
       style="fill:#5f4316;fill-opacity:0;fill-rule:nonzero;stroke:#312114;stroke-width:0.30749;stroke-linejoin:miter;stroke-dasharray:none;stroke-opacity:1"
       id="path1620-8-5-7-3"
       inkscape:flatsided="false"
       sodipodi:sides="8"
       sodipodi:cx="6.6306486"
       sodipodi:cy="7.655385"
       sodipodi:r1="8.4433117"
       sodipodi:r2="6.7546492"
       sodipodi:arg1="0.17219081"
       sodipodi:arg2="0.5648899"
       inkscape:rounded="0"
       inkscape:randomized="0"
       d="M 14.949099,9.1020719 12.335946,11.271303 11.489719,14.560379 8.1080634,14.24648 5.1839617,15.973835 3.0147308,13.360683 -0.27434587,12.514455 0.03955379,9.1327998 -1.6878013,6.2086981 0.92535078,4.0394672 1.7715784,0.75039054 5.1532339,1.0642902 8.0773355,-0.66306492 10.246566,1.9500872 l 3.289077,0.8462276 -0.3139,3.3816555 z"
       transform="matrix(1.0048732,0,0,1.0048732,15.87839,10.469753)" />
    <path
       sodipodi:type="star"
       style="fill:#5f4316;fill-opacity:0;fill-rule:nonzero;stroke:#312114;stroke-width:0.30749;stroke-linejoin:miter;stroke-dasharray:none;stroke-opacity:1"
       id="path1620-8-5-7-3-2"
       inkscape:flatsided="false"
       sodipodi:sides="8"
       sodipodi:cx="6.6306486"
       sodipodi:cy="7.655385"
       sodipodi:r1="8.4433117"
       sodipodi:r2="6.7546492"
       sodipodi:arg1="0.17219081"
       sodipodi:arg2="0.5648899"
       inkscape:rounded="0"
       inkscape:randomized="0"
       d="M 14.949099,9.1020719 12.335946,11.271303 11.489719,14.560379 8.1080634,14.24648 5.1839617,15.973835 3.0147308,13.360683 -0.27434587,12.514455 0.03955379,9.1327998 -1.6878013,6.2086981 0.92535078,4.0394672 1.7715784,0.75039054 5.1532339,1.0642902 8.0773355,-0.66306492 10.246566,1.9500872 l 3.289077,0.8462276 -0.3139,3.3816555 z"
       transform="matrix(0.84836116,0,0,0.84836116,16.916166,11.667913)" />
    <path
       sodipodi:type="star"
       style="fill:#5f4316;fill-opacity:0;fill-rule:nonzero;stroke:#312114;stroke-width:0.30749;stroke-linejoin:miter;stroke-dasharray:none;stroke-opacity:1"
       id="path1620-8-5-7-3-2-7"
       inkscape:flatsided="false"
       sodipodi:sides="8"
       sodipodi:cx="6.6306486"
       sodipodi:cy="7.655385"
       sodipodi:r1="8.4433117"
       sodipodi:r2="6.7546492"
       sodipodi:arg1="0.17219081"
       sodipodi:arg2="0.5648899"
       inkscape:rounded="0"
       inkscape:randomized="0"
       d="M 14.949099,9.1020719 12.335946,11.271303 11.489719,14.560379 8.1080634,14.24648 5.1839617,15.973835 3.0147308,13.360683 -0.27434587,12.514455 0.03955379,9.1327998 -1.6878013,6.2086981 0.92535078,4.0394672 1.7715784,0.75039054 5.1532339,1.0642902 8.0773355,-0.66306492 10.246566,1.9500872 l 3.289077,0.8462276 -0.3139,3.3816555 z"
       transform="matrix(0.68314932,0,0,0.68314932,18.011628,12.932673)" />
    <path
       sodipodi:type="star"
       style="fill:#5f4316;fill-opacity:0;fill-rule:nonzero;stroke:#312114;stroke-width:0.30749;stroke-linejoin:miter;stroke-dasharray:none;stroke-opacity:1"
       id="path1620-8-5-7-3-2-7-0"
       inkscape:flatsided="false"
       sodipodi:sides="8"
       sodipodi:cx="6.6306486"
       sodipodi:cy="7.655385"
       sodipodi:r1="8.4433117"
       sodipodi:r2="6.7546492"
       sodipodi:arg1="0.17219081"
       sodipodi:arg2="0.5648899"
       inkscape:rounded="0"
       inkscape:randomized="0"
       d="M 14.949099,9.1020719 12.335946,11.271303 11.489719,14.560379 8.1080634,14.24648 5.1839617,15.973835 3.0147308,13.360683 -0.27434587,12.514455 0.03955379,9.1327998 -1.6878013,6.2086981 0.92535078,4.0394672 1.7715784,0.75039054 5.1532339,1.0642902 8.0773355,-0.66306492 10.246566,1.9500872 l 3.289077,0.8462276 -0.3139,3.3816555 z"
       transform="matrix(0.56047966,0,0,0.56047966,18.825007,13.871757)" />
    <path
       sodipodi:type="star"
       style="fill:#5f4316;fill-opacity:0;fill-rule:nonzero;stroke:#312114;stroke-width:0.30749;stroke-linejoin:miter;stroke-dasharray:none;stroke-opacity:1"
       id="path1620-8-5-7-3-2-7-0-0"
       inkscape:flatsided="false"
       sodipodi:sides="8"
       sodipodi:cx="6.6306486"
       sodipodi:cy="7.655385"
       sodipodi:r1="8.4433117"
       sodipodi:r2="6.7546492"
       sodipodi:arg1="0.17219081"
       sodipodi:arg2="0.5648899"
       inkscape:rounded="0"
       inkscape:randomized="0"
       d="M 14.949099,9.1020719 12.335946,11.271303 11.489719,14.560379 8.1080634,14.24648 5.1839617,15.973835 3.0147308,13.360683 -0.27434587,12.514455 0.03955379,9.1327998 -1.6878013,6.2086981 0.92535078,4.0394672 1.7715784,0.75039054 5.1532339,1.0642902 8.0773355,-0.66306492 10.246566,1.9500872 l 3.289077,0.8462276 -0.3139,3.3816555 z"
       transform="matrix(0.44855257,0,0,0.44855257,19.567157,14.728601)" />
    <path
       sodipodi:type="star"
       style="fill:#5f4316;fill-opacity:0;fill-rule:nonzero;stroke:#312114;stroke-width:0.30749;stroke-linejoin:miter;stroke-dasharray:none;stroke-opacity:1"
       id="path1620-8-5-7-3-2-7-0-0-8"
       inkscape:flatsided="false"
       sodipodi:sides="8"
       sodipodi:cx="6.6306486"
       sodipodi:cy="7.655385"
       sodipodi:r1="8.4433117"
       sodipodi:r2="6.7546492"
       sodipodi:arg1="0.17219081"
       sodipodi:arg2="0.5648899"
       inkscape:rounded="0"
       inkscape:randomized="0"
       d="M 14.949099,9.1020719 12.335946,11.271303 11.489719,14.560379 8.1080634,14.24648 5.1839617,15.973835 3.0147308,13.360683 -0.27434587,12.514455 0.03955379,9.1327998 -1.6878013,6.2086981 0.92535078,4.0394672 1.7715784,0.75039054 5.1532339,1.0642902 8.0773355,-0.66306492 10.246566,1.9500872 l 3.289077,0.8462276 -0.3139,3.3816555 z"
       transform="matrix(0.33713147,0,0,0.33713147,20.305951,15.581573)" />
    <path
       sodipodi:type="star"
       style="fill:#312114;fill-opacity:1;fill-rule:nonzero;stroke:#4b2e00;stroke-width:0;stroke-linejoin:miter;stroke-dasharray:none;stroke-opacity:1"
       id="path1620-8-5-7-3-2-7-0-0-8-4"
       inkscape:flatsided="false"
       sodipodi:sides="8"
       sodipodi:cx="6.6306486"
       sodipodi:cy="7.655385"
       sodipodi:r1="8.4433117"
       sodipodi:r2="6.7546492"
       sodipodi:arg1="0.17219081"
       sodipodi:arg2="0.5648899"
       inkscape:rounded="0"
       inkscape:randomized="0"
       d="M 14.949099,9.1020719 12.335946,11.271303 11.489719,14.560379 8.1080634,14.24648 5.1839617,15.973835 3.0147308,13.360683 -0.27434587,12.514455 0.03955379,9.1327998 -1.6878013,6.2086981 0.92535078,4.0394672 1.7715784,0.75039054 5.1532339,1.0642902 8.0773355,-0.66306492 10.246566,1.9500872 l 3.289077,0.8462276 -0.3139,3.3816555 z"
       transform="matrix(0.23693543,0,0,0.23693543,20.970315,16.348612)" />
    <path
       d="m 3.9688759,39.150175 -3.99385384,-3.77804 -0.640438,-6.891611 4.45636044,6.693718 7.4537995,5.526665 1.201033,4.255925 z"
       fill="#6d4a2c"
       stroke="#1b1917"
       stroke-width="1.13911"
       stroke-miterlimit="16"
       stroke-linejoin="round"
       id="path4"
       style="stroke:#312114;stroke-opacity:1"
       sodipodi:nodetypes="ccccccc" />
    <path
       d="M 10.609061,34.080438 C 8.9294283,33.608276 5.1530286,34.044348 6.0384767,36.199299 7.1105064,38.26778 9.8841196,35.66827 10.609604,34.081436 l 6.39e-4,-2.45e-4 c -2.75e-4,-3.3e-4 -0.001,-5.75e-4 -0.0012,-7.39e-4 z"
       fill="#5f926a"
       id="path46"
       style="fill:#a3d608;fill-opacity:0.764706;stroke-width:0.222692" />
    <path
       d="m 4.9148013,29.742948 3.138e-4,0.0018 C 3.7505118,31.696564 3.0207485,36.588462 6.0382966,36.19948 9.0099734,35.546773 6.6713889,31.1887 4.916392,29.744552 l -3.137e-4,-0.0018 c -2.73e-5,3.03e-4 -2.199e-4,7.38e-4 -4.045e-4,8.86e-4 -2.753e-4,-3.3e-4 -5.779e-4,-3.58e-4 -8.857e-4,-7.13e-4 z"
       fill="#587e60"
       id="path48"
       style="fill:#a3d608;fill-opacity:0.764706;stroke-width:0.222692" />
    <path
       d="m 0.57556556,38.099045 c 0.46468204,-1.653022 0.035526,-5.369593 -2.08528946,-4.498174 -2.035711,1.055047 0.52261296,3.784718 2.08430926,4.498708 l 2.487e-4,6.33e-4 c 3.292e-4,-2.76e-4 5.743e-4,-10e-4 6.872e-4,-0.0011 z"
       fill="#5f926a"
       id="path46-6"
       style="fill:#a4d609;fill-opacity:0.821577;stroke-width:0.219165" />
    <path
       d="m -6.6881289,34.390555 0.0018,-3.14e-4 c 1.920888,1.146148 6.73528626,1.864348 6.35246686,-1.105393 -0.6423679,-2.924597 -4.93139686,-0.623063 -6.35266486,1.10413 l -0.0018,3.14e-4 c 3e-4,2.7e-5 7.38e-4,2.17e-4 8.86e-4,4.06e-4 -3.29e-4,2.74e-4 -3.55e-4,5.74e-4 -7.13e-4,8.85e-4 z"
       fill="#587e60"
       id="path48-7"
       style="fill:#a4d609;fill-opacity:0.763485;stroke-width:0.219165" />
    <path
       d="m 2.7329179,33.874033 7.33e-4,5.42e-4 c 0.3212709,1.390117 2.1132695,3.874266 3.304639,2.324859 1.0563754,-1.644696 -1.8870406,-2.492688 -3.3042463,-2.325781 l -5.78e-4,-3.56e-4 c 2.73e-5,-3.03e-4 0,0 0,0 -3.026e-4,-2.8e-5 -2.192e-4,7.38e-4 -5.418e-4,7.32e-4 z"
       fill="#77a37a"
       id="path50"
       style="fill:#a3d608;fill-opacity:0.764706;stroke-width:0.222692" />
    <path
       d="M 0.86278857,4.8272469 5.8182816,-1.0297948 15.371419,-2.4549534 6.3890276,4.2719451 -0.73548443,15.085199 -6.5727644,17.087718 Z"
       fill="#6d4a2c"
       stroke="#1b1917"
       stroke-width="1.58966"
       stroke-miterlimit="16"
       stroke-linejoin="round"
       id="path4-0"
       style="stroke:#312114;stroke-opacity:1"
       sodipodi:nodetypes="ccccccc" />
    <path
       d="m 8.4402166,13.687627 c 0.528051,-2.376874 -0.371514,-7.605129 -3.305731,-6.2047642 -2.799307,1.6536606 1.037229,5.3173972 3.304382,6.2055982 l 3.91e-4,8.72e-4 c 4.38e-4,-4.09e-4 7.24e-4,-0.0014 9.37e-4,-0.0017 z"
       fill="#5f926a"
       id="path46-3"
       style="fill:#a3d608;fill-opacity:0.764706;stroke-width:0.310772" />
    <path
       d="m 14.043781,5.4180195 -0.0025,5.763e-4 C 11.231637,3.9467511 4.3589356,3.3080994 5.1342196,7.4826258 6.2734266,11.572847 12.165096,7.9773872 14.041669,5.4203599 l 0.0025,-5.763e-4 c -4.24e-4,-1.45e-5 -10e-4,-2.493e-4 -0.0013,-4.952e-4 4.39e-4,-4.09e-4 4.54e-4,-8.328e-4 9.25e-4,-0.00129 z"
       fill="#587e60"
       id="path48-1"
       style="fill:#a3d608;fill-opacity:0.764706;stroke-width:0.310772" />
    <path
       d="m 2.0650806,0.01780653 c 2.339216,0.51968625 7.484643,-0.3656165 6.106465,-3.25335493 -1.627463,-2.7549591 -5.233157,1.0207925 -6.107285,3.25203043 l -8.62e-4,3.955e-4 c 4.1e-4,4.374e-4 0.0014,7.229e-4 0.0016,8.725e-4 z"
       fill="#5f926a"
       id="path46-6-1"
       style="fill:#a4d609;fill-opacity:0.821577;stroke-width:0.30585" />
    <path
       d="m 6.6708766,-10.389997 5.77e-4,0.0025 c -1.448521,2.765123 -2.077052,9.52894393 2.031337,8.7659425 4.0254224,-1.1211618 0.486924,-6.9194901 -2.029593,-8.7663325 l -5.77e-4,-0.0025 c -1.4e-5,4.2e-4 -2.45e-4,0.001 -4.97e-4,0.0013 -4.07e-4,-4.37e-4 -8.27e-4,-4.5e-4 -0.0013,-9.25e-4 z"
       fill="#587e60"
       id="path48-7-6"
       style="fill:#a4d609;fill-opacity:0.763485;stroke-width:0.30585" />
    <path
       d="m 8.1189206,2.6971917 -6.98e-4,0.00106 c -1.912128,0.555125 -5.23496,3.2441112 -2.98394,4.7843613 2.373358,1.3447848 3.327383,-2.8220762 2.985255,-4.7838821 l 4.51e-4,-8.33e-4 c 4.24e-4,1.46e-5 0,0 0,0 1.6e-5,-4.237e-4 -10e-4,-2.483e-4 -0.0011,-6.983e-4 z"
       fill="#77a37a"
       id="path50-1"
       style="fill:#a3d608;fill-opacity:0.764706;stroke-width:0.310772" />
    <path
       d="m 43.355367,7.1216182 1.185126,1.7995331 2.242012,3.4043437 -1.08002,7.769845 -3.181555,-8.540775 -6.791317,-8.0301984 -0.221807,-5.0071122 z"
       fill="#6d4a2c"
       stroke="#1b1917"
       stroke-width="1.29106"
       stroke-miterlimit="16"
       stroke-linejoin="round"
       id="path4-0-3"
       style="stroke:#312114;stroke-opacity:1"
       sodipodi:nodetypes="cccccccc" />
    <path
       d="m 34.714639,10.993816 c 1.730805,0.956401 6.010521,1.45429 5.592236,-1.1529107 -0.646566,-2.5601672 -4.380732,-0.411072 -5.592576,1.1516697 l -7.69e-4,1.04e-4 c 2.18e-4,4.35e-4 8.93e-4,8.93e-4 0.0011,0.0011 z"
       fill="#5f926a"
       id="path46-3-0"
       style="fill:#a3d608;fill-opacity:0.764706;stroke-width:0.252397" />
    <path
       d="m 39.872872,17.255787 1.25e-4,-0.0021 c 1.79096,-1.851588 3.864358,-7.05984 0.434124,-7.4129557 -3.447993,-0.05024 -1.997558,5.3644827 -0.435588,7.4128547 l -1.24e-4,0.0021 c 1.08e-4,-3.27e-4 4.23e-4,-7.21e-4 6.84e-4,-8.93e-4 2.17e-4,4.35e-4 5.45e-4,5.44e-4 7.92e-4,9.75e-4 z"
       fill="#587e60"
       id="path48-1-7"
       style="fill:#a3d608;fill-opacity:0.764706;stroke-width:0.252397" />
    <path
       d="m 46.826848,9.1610873 c -0.941248,1.7033817 -1.431259,5.9152937 1.134644,5.5036387 2.519607,-0.636323 0.404562,-4.31133 -1.133423,-5.5039737 l -1.12e-4,-7.63e-4 c -4.34e-4,2.2e-4 -8.93e-4,9.26e-4 -0.0011,0.001 z"
       fill="#5f926a"
       id="path46-6-1-3"
       style="fill:#a4d609;fill-opacity:0.821577;stroke-width:0.248399" />
    <path
       d="m 53.879774,15.13593 -0.0021,-1.23e-4 c -1.822249,-1.76258 -6.94799,-3.803129 -7.295511,-0.427241 -0.04944,3.393369 5.279494,1.965912 7.295415,0.428689 l 0.0021,1.23e-4 c -3.24e-4,-1.07e-4 -7.22e-4,-4.2e-4 -8.93e-4,-6.85e-4 4.34e-4,-2.17e-4 5.4e-4,-5.41e-4 0.0011,-8.01e-4 z"
       fill="#587e60"
       id="path48-7-6-6"
       style="fill:#a4d609;fill-opacity:0.763485;stroke-width:0.248399" />
    <path
       d="m 43.351218,13.263434 -6.66e-4,-7.87e-4 c 0.0059,-1.617066 -1.327264,-4.8225091 -3.043436,-3.4218427 -1.59193,1.5407997 1.435826,3.2395037 3.042761,3.4227577 l 5.46e-4,5.42e-4 c -1.09e-4,3.27e-4 0,0 0,0 3.27e-4,1.1e-4 4.23e-4,-7.22e-4 7.96e-4,-6.97e-4 z"
       fill="#77a37a"
       id="path50-1-2"
       style="fill:#a3d608;fill-opacity:0.764706;stroke-width:0.252397" />
  </g>
  <metadata
     id="metadata6004">
    <rdf:RDF>
      <cc:Work
         rdf:about="">
        <dc:creator>
          <cc:Agent>
            <dc:title>Radians</dc:title>
          </cc:Agent>
        </dc:creator>
      </cc:Work>
    </rdf:RDF>
  </metadata>
</svg>
