<?xml version="1.0" encoding="UTF-8" standalone="no"?>
<svg
   width="58.891205mm"
   height="34.646938mm"
   viewBox="0 0 58.891203 34.646938"
   version="1.1"
   id="svg2430"
   sodipodi:docname="porta_potty_toilet_residue.svg"
   inkscape:version="1.3 (0e150ed6c4, 2023-07-21)"
   xmlns:inkscape="http://www.inkscape.org/namespaces/inkscape"
   xmlns:sodipodi="http://sodipodi.sourceforge.net/DTD/sodipodi-0.dtd"
   xmlns="http://www.w3.org/2000/svg"
   xmlns:svg="http://www.w3.org/2000/svg"
   xmlns:rdf="http://www.w3.org/1999/02/22-rdf-syntax-ns#"
   xmlns:cc="http://creativecommons.org/ns#"
   xmlns:dc="http://purl.org/dc/elements/1.1/">
  <sodipodi:namedview
     id="namedview1"
     pagecolor="#ffffff"
     bordercolor="#000000"
     borderopacity="0.25"
     inkscape:showpageshadow="2"
     inkscape:pageopacity="0.0"
     inkscape:pagecheckerboard="0"
     inkscape:deskcolor="#d1d1d1"
     inkscape:document-units="mm"
     inkscape:zoom="3.1348068"
     inkscape:cx="72.572255"
     inkscape:cy="46.095344"
     inkscape:window-width="1920"
     inkscape:window-height="1017"
     inkscape:window-x="-8"
     inkscape:window-y="-8"
     inkscape:window-maximized="1"
     inkscape:current-layer="g7056" />
  <defs
     id="defs2424">
    <radialGradient
       cx="398.7446"
       cy="128.6519"
       r="29.14535"
       gradientUnits="userSpaceOnUse"
       id="color-1-3">
      <stop
         offset="0"
         stop-color="#373d73"
         id="stop2182" />
      <stop
         offset="1"
         stop-color="#161d31"
         id="stop2184" />
    </radialGradient>
    <radialGradient
       cx="109.62613"
       cy="77.969383"
       r="8.875"
       gradientUnits="userSpaceOnUse"
       id="color-1">
      <stop
         offset="0"
         stop-color="#959eb0"
         id="stop3495" />
      <stop
         offset="1"
         stop-color="#ffffff"
         id="stop3497" />
    </radialGradient>
    <radialGradient
       cx="113.37613"
       cy="80.469383"
       r="8.875"
       gradientUnits="userSpaceOnUse"
       id="color-2">
      <stop
         offset="0"
         stop-color="#6f7683"
         id="stop3500" />
      <stop
         offset="1"
         stop-color="#d2d2d2"
         id="stop3502" />
    </radialGradient>
    <radialGradient
       cx="109.62613"
       cy="77.969383"
       r="8.875"
       gradientUnits="userSpaceOnUse"
       id="color-1-4">
      <stop
         offset="0"
         stop-color="#959eb0"
         id="stop3495-6" />
      <stop
         offset="1"
         stop-color="#ffffff"
         id="stop3497-1" />
    </radialGradient>
    <radialGradient
       cx="113.37613"
       cy="80.469383"
       r="8.875"
       gradientUnits="userSpaceOnUse"
       id="color-2-0">
      <stop
         offset="0"
         stop-color="#6f7683"
         id="stop3500-1" />
      <stop
         offset="1"
         stop-color="#d2d2d2"
         id="stop3502-7" />
    </radialGradient>
    <radialGradient
       cx="109.62613"
       cy="77.969383"
       r="8.875"
       gradientUnits="userSpaceOnUse"
       id="color-1-4-3"
       gradientTransform="matrix(0.42527649,0,0,0.42527649,-20.905761,-27.632379)">
      <stop
         offset="0"
         stop-color="#959eb0"
         id="stop3495-6-1" />
      <stop
         offset="1"
         stop-color="#ffffff"
         id="stop3497-1-1" />
    </radialGradient>
    <radialGradient
       cx="113.37613"
       cy="80.469383"
       r="8.875"
       gradientUnits="userSpaceOnUse"
       id="color-2-0-0"
       gradientTransform="matrix(0.42527649,0,0,0.42527649,-20.905761,-27.632379)">
      <stop
         offset="0"
         stop-color="#6f7683"
         id="stop3500-1-6" />
      <stop
         offset="1"
         stop-color="#d2d2d2"
         id="stop3502-7-2" />
    </radialGradient>
    <inkscape:path-effect
       effect="spiro"
       id="path-effect5047"
       is_visible="true"
       lpeversion="1" />
    <inkscape:path-effect
       effect="spiro"
       id="path-effect6707"
       is_visible="true"
       lpeversion="1" />
  </defs>
  <metadata
     id="metadata2427">
    <rdf:RDF>
      <cc:Work
         rdf:about="">
        <dc:format>image/svg+xml</dc:format>
        <dc:type
           rdf:resource="http://purl.org/dc/dcmitype/StillImage" />
      </cc:Work>
    </rdf:RDF>
  </metadata>
  <path
     d=""
     fill="#1c71d8"
     stroke="#0d3565"
     stroke-width="2.81101"
     id="path3511"
     style="mix-blend-mode:normal;fill-rule:nonzero;stroke-linecap:butt;stroke-linejoin:miter;stroke-miterlimit:10;stroke-dasharray:none;stroke-dashoffset:0" />
  <g
     id="g7056"
     transform="translate(14.692395,-1.6396634)">
    <path
       style="fill:#526fa3;fill-opacity:1;stroke:#33476e;stroke-width:0.529167;stroke-linecap:butt;stroke-linejoin:miter;stroke-miterlimit:4;stroke-dasharray:none;stroke-opacity:1"
       d="m 20.721946,13.03651 c 0.671948,-0.04243 1.351185,0.14035 1.929742,0.484714 0.578557,0.344363 1.057475,0.845993 1.405577,1.422308 0.696206,1.15263 0.858309,2.565073 0.711169,3.903583 -0.159427,1.450283 -0.656668,2.841982 -0.904665,4.27977 -0.123999,0.718894 -0.185316,1.453343 -0.108667,2.178814 0.07665,0.725472 0.295807,1.443744 0.699136,2.051617 0.5284,0.796373 1.333787,1.357088 2.056117,1.982912 0.361165,0.312911 0.707011,0.648152 0.985845,1.036232 0.278835,0.388079 0.489516,0.83274 0.557605,1.305728 0.06423,0.446212 -0.002,0.910805 -0.191001,1.320104 -0.188961,0.409299 -0.500241,0.761611 -0.884596,0.997201 -0.522243,0.320108 -1.159035,0.416881 -1.769475,0.366192 -0.61044,-0.05069 -1.200812,-0.240011 -1.773101,-0.458397 -0.572288,-0.218386 -1.133851,-0.467457 -1.719896,-0.645667 -0.586044,-0.17821 -1.204304,-0.2846 -1.812053,-0.208127 -0.660519,0.08311 -1.277252,0.377907 -1.840942,0.732092 -0.56369,0.354184 -1.086101,0.770452 -1.645434,1.131477 -0.559333,0.361026 -1.167101,0.67018 -1.824142,0.777374 -0.32852,0.0536 -0.666956,0.05542 -0.992993,-0.01165 -0.326038,-0.06707 -0.639426,-0.204205 -0.899634,-0.411786 -0.277516,-0.221389 -0.490045,-0.519499 -0.627372,-0.846866 -0.137327,-0.327368 -0.200901,-0.683347 -0.205527,-1.038321 -0.0093,-0.709949 0.212836,-1.403579 0.49394,-2.055572 0.281103,-0.651992 0.623426,-1.27749 0.875445,-1.941266 0.252019,-0.663777 0.412615,-1.381478 0.309577,-2.083971 C 13.415007,26.407827 12.859773,25.614102 12.164844,25.031586 11.469915,24.44907 10.63981,24.053582 9.8070468,23.694753 8.9742841,23.335924 8.1240149,23.004958 7.3523055,22.52881 6.580596,22.052663 5.8809487,21.413218 5.4986312,20.590974 5.2403931,20.035586 5.1365134,19.415207 5.1530546,18.802941 5.1695959,18.190675 5.3037413,17.585518 5.503084,17.006375 5.9017693,15.848091 6.5546379,14.797575 7.1063912,13.703893 7.4462965,13.030135 7.7505336,12.334667 8.1700216,11.707358 8.5895097,11.08005 9.1409132,10.514712 9.8379264,10.225474 10.27323,10.044837 10.752589,9.9783804 11.22273,10.011331 c 0.470142,0.03295 0.931124,0.163735 1.358629,0.362124 0.855011,0.396778 1.564785,1.053724 2.174666,1.772418 0.257451,0.303385 0.500373,0.620116 0.781071,0.902129 0.280699,0.282013 0.604155,0.531064 0.977772,0.667934 0.338946,0.124169 0.708106,0.151452 1.067509,0.117822 0.359404,-0.03363 0.710793,-0.126461 1.054507,-0.236747 0.687427,-0.220571 1.364549,-0.515007 2.085062,-0.560501 z"
       id="path5045"
       inkscape:path-effect="#path-effect5047"
       inkscape:original-d="m 20.721946,13.03651 c -0.107697,-0.114102 1.613366,3.955704 4.046488,5.810605 2.433122,1.854904 -0.209199,5.673732 -0.314196,8.510201 -0.104997,2.836468 2.399976,2.883512 3.599567,4.324872 1.199589,1.44136 -0.716801,1.545135 -1.075597,2.317305 -0.358796,0.772171 -4.758709,-0.24053 -7.074525,-0.945999 -2.315816,-0.705469 -4.759209,1.088734 -7.203145,2.217511 -2.443936,1.128778 0.564307,-5.310399 0.846063,-7.965996 0.281757,-2.655596 -5.3650478,-4.47576 -8.0479698,-6.714035 -2.6829212,-2.238277 1.072105,-4.591124 1.60776,-6.887081 0.535655,-2.295959 1.1354752,-1.44884 2.7315352,-3.478419 1.5960606,-2.0295785 4.3917226,0.141621 4.9180986,1.920399 0.526375,1.778775 -2.56537,-10.7586947 1.758843,1.570063 0.481688,1.373341 4.314776,-0.565324 4.207078,-0.679426 z"
       sodipodi:nodetypes="ssssssssssssss"
       transform="matrix(1.271528,0,0,1.271528,-7.6957366,-9.7746203)" />
    <path
       id="rect851"
       style="fill:#e5e0db;fill-opacity:1;stroke:#272727;stroke-width:0.672851;stroke-linecap:round;stroke-miterlimit:4;stroke-dasharray:none;stroke-opacity:1"
       d="m 6.0316068,4.046038 -1.038744,4.8335521 -3.7089896,3.3897629 3.724795,0.913022 1.3225348,1.444146 3.1759857,2.390566 -0.573379,-2.522257 1.5010473,-1.142489 0.487322,-2.238389 3.332744,-2.3201812 -2.472208,-0.7459889 -4.6510152,0.76089 z" />
    <path
       id="rect851-3"
       style="fill:#e5e0db;fill-opacity:1;stroke:#272727;stroke-width:0.672851;stroke-linecap:round;stroke-miterlimit:4;stroke-dasharray:none;stroke-opacity:1"
       d="m 5.3367956,26.63691 2.2888699,1.972173 2.0940858,1.900257 -0.010554,2.085755 0.3752947,2.265131 1.676518,-3.17812 3.276023,-0.753319 3.270775,-0.816293 -2.421236,-0.85705 -1.590065,-0.761805 0.211295,-1.619723 L 13.695281,25.475788 11.677625,24.63308 11.142884,26.2051 8.7308178,25.888284 8.5119586,27.126942 7.3751376,26.843976 6.3650269,26.043239 Z" />
    <path
       id="rect851-6"
       style="fill:#e5e0db;fill-opacity:1;stroke:#272727;stroke-width:0.672851;stroke-linecap:round;stroke-miterlimit:4;stroke-dasharray:none;stroke-opacity:1"
       d="m 17.275547,18.861975 5.549927,3.204251 -0.914465,-1.33222 1.958255,-1.010541 0.739647,-2.695142 1.420815,-0.512024 -5.549927,-3.204251 1.109507,1.751356 -1.89579,1.039017 -0.283181,2.682505 z" />
    <circle
       style="fill:#526fa3;fill-opacity:1;stroke:#33476e;stroke-width:0.672851;stroke-linecap:round;stroke-miterlimit:4;stroke-dasharray:none;stroke-opacity:1"
       id="path3384"
       cx="4.6750207"
       cy="23.746984"
       r="1.1745862" />
    <path
       style="fill:#526fa3;fill-opacity:1;stroke:#33476e;stroke-width:0.529167;stroke-linecap:butt;stroke-linejoin:miter;stroke-miterlimit:4;stroke-dasharray:none;stroke-opacity:1"
       d="m 19.665068,12.049777 c -0.358865,0.261004 -0.749077,0.483611 -1.170179,0.623543 -0.421101,0.139932 -0.874699,0.195115 -1.312477,0.122604 -0.437778,-0.07251 -0.858421,-0.277577 -1.159175,-0.60385 -0.300755,-0.326272 -0.473003,-0.776654 -0.431277,-1.21843 0.03162,-0.334734 0.188606,-0.660612 0.447307,-0.875367 0.12935,-0.1073782 0.282558,-0.1864249 0.445846,-0.2264061 0.163289,-0.039981 0.336481,-0.040548 0.499235,0.00156 0.228305,0.059061 0.42646,0.1972876 0.623725,0.3265076 0.197265,0.129221 0.407139,0.254846 0.641279,0.282957 0.158842,0.01907 0.32019,-0.0083 0.473477,-0.0541 0.153286,-0.0458 0.300395,-0.109795 0.450061,-0.166314 0.149666,-0.05652 0.30368,-0.105969 0.462975,-0.12078 0.159295,-0.01481 0.325458,0.007 0.464709,0.0858 0.162486,0.0919 0.277536,0.257489 0.323932,0.438308 0.0464,0.180819 0.02735,0.375043 -0.03668,0.550394 -0.128066,0.350701 -0.420818,0.613971 -0.722757,0.833573 z"
       id="path6705"
       inkscape:path-effect="#path-effect6707"
       inkscape:original-d="m 19.665068,12.049777 c -0.144918,0.607702 -2.715659,-0.717699 -4.073108,-1.076133 -1.357451,-0.358435 0.928006,-0.733755 1.392388,-1.1002176 0.464381,-0.3664634 0.843084,0.2571116 1.265004,0.6094646 0.421921,0.352353 1.233896,-0.02161 1.851222,-0.255389 0.617327,-0.2337744 -0.29059,1.214574 -0.435506,1.822275 z"
       sodipodi:nodetypes="ssssss"
       transform="matrix(1.271528,0,0,1.271528,-7.6957366,-9.7746203)" />
  </g>
</svg>
