<?xml version="1.0" encoding="UTF-8" standalone="no"?>
<svg
   height="175"
   viewBox="0 0 175.00001 175.00001"
   width="175"
   version="1.1"
   id="svg9"
   sodipodi:docname="savannahbarrel_residue.svg"
   inkscape:version="1.3 (0e150ed6c4, 2023-07-21)"
   xmlns:inkscape="http://www.inkscape.org/namespaces/inkscape"
   xmlns:sodipodi="http://sodipodi.sourceforge.net/DTD/sodipodi-0.dtd"
   xmlns="http://www.w3.org/2000/svg"
   xmlns:svg="http://www.w3.org/2000/svg">
  <path
     id="rect931"
     style="fill:#505050;fill-opacity:1;stroke:#282828;stroke-width:2.5;stroke-linejoin:round;stroke-opacity:1;stroke-miterlimit:4;stroke-dasharray:none"
     d="m 135.69079,120.73924 0.75683,8.94138 -3.10936,1.85288 2.22236,4.46624 -5.18349,1.39723 1.83919,6.65845 -4.09188,0.89615 -0.28219,4.73315 4.72538,-2.974 1.97094,2.85408 4.07555,-0.3099 0.62936,4.45072 0.299,0.0974 4.18259,-2.51193 2.13494,3.88317 1.046,1.02669 0.0817,0.0266 0.31817,-3.55058 4.07023,4.97966 0.676,0.22014 2.47151,-0.84663 -2.76307,-4.23768 6.29323,-3.11456 -1.70013,-4.95348 3.88917,-4.20967 -3.92746,-2.56072 5.95295,-1.1487 0.32658,-1.00285 -0.45908,-1.80714 0.24915,-3.97568 -2.68167,-0.15434 -1.94824,1.13206 -2.47736,2.58659 0.24604,-5.40427 -2.44642,-1.32457 -5.1348,4.59074 0.81863,-6.38041 -6.02908,2.37279 0.29009,-3.32557 -3.17385,-1.658 -2.04801,2.68737 z" />
  <sodipodi:namedview
     id="namedview8"
     pagecolor="#505050"
     bordercolor="#ffffff"
     borderopacity="1"
     inkscape:pageshadow="0"
     inkscape:pageopacity="0"
     inkscape:pagecheckerboard="1"
     showgrid="false"
     inkscape:zoom="0.56033722"
     inkscape:cx="-243.60331"
     inkscape:cy="-138.30957"
     inkscape:window-width="1920"
     inkscape:window-height="1017"
     inkscape:window-x="-8"
     inkscape:window-y="-8"
     inkscape:window-maximized="1"
     inkscape:current-layer="svg9"
     inkscape:showpageshadow="2"
     inkscape:deskcolor="#d1d1d1" />
  <defs
     id="defs13" />
  <radialGradient
     id="a"
     cx="141.73535"
     cy="145.99023"
     gradientTransform="matrix(0.47943195,0,0,0.46522221,19.547014,19.582128)"
     gradientUnits="userSpaceOnUse"
     r="104.41504">
    <stop
       offset="0"
       stop-opacity=".9"
       id="stop2" />
    <stop
       offset="1"
       stop-opacity=".3"
       id="stop4" />
  </radialGradient>
  <path
     d="m 87.990596,38.92434 -3.797019,24.226981 a 25.543867,26.224654 0 0 0 -0.32773,0.073 l -10.98656,-15.79955 2.90465,18.5469 -10.21591,-9.81234 5.44412,13.35092 a 25.543867,26.224654 0 0 0 -0.20694,0.21256 l -22.32894,-6.58744 17.23971,13.23668 a 25.543867,26.224654 0 0 0 -0.40733,0.76689 l -10.83486,-1.77819 9.72806,4.34107 a 25.543867,26.224654 0 0 0 -0.007,0.0215 l -21.763365,2.25855 20.165895,9.243019 a 25.543867,26.224654 0 0 0 0.0403,0.58524 l -14.44835,3.81575 12.95764,0.54778 -23.706356,16.92321 28.450996,-9.65409 -13.81911,19.53947 19.34376,-13.80693 -3.37378,21.54518 11.80963,-16.84643 a 25.543867,26.224654 0 0 0 0.99818,0.37269 l 3.70807,21.8289 5.10983,-20.14248 6.23349,12.69638 -1.15924,-11.26747 15.518643,14.95026 -6.98353,-22.31302 a 25.543867,26.224654 0 0 0 1.0862,-0.83525 l 12.91082,6.56965 -6.70261,-11.95665 26.98743,7.71765 -23.92172,-15.82952 17.47848,-1.94205 -17.59366,-5.19036 a 25.543867,26.224654 0 0 0 -0.0103,-0.43167 l 20.80638,-13.843449 -23.79156,2.47017 a 25.543867,26.224654 0 0 0 -0.35021,-0.63674 l 7.34216,-8.02197 -9.05667,4.19311 16.63668,-23.72508 -22.53775,19.00385 a 25.543867,26.224654 0 0 0 -0.77252,-0.529989 l 6.27656,-12.975431 -10.753394,10.628861 a 25.543867,26.224654 0 0 0 -0.19196,-0.0759 l 3.442144,-16.28647 -8.003254,14.97554 a 25.543867,26.224654 0 0 0 -0.77158,-0.137649 z"
     fill="url(#a)"
     id="path7"
     style="fill:url(#a)" />
  <path
     id="rect847"
     style="fill:#505050;fill-opacity:1;stroke:#282828;stroke-width:2.5;stroke-linejoin:round;stroke-miterlimit:4;stroke-dasharray:none;stroke-opacity:1"
     d="m 105.81715,2.644898 0.21471,9.348723 -7.408061,2.188503 -0.0506,0.14577 2.322391,6.462185 -5.603781,3.041998 4.40214,4.442521 -3.00925,1.808768 -0.0425,3.876031 5.806021,-4.07166 1.87215,10.744597 3.94759,-5.043176 2.39733,4.780545 4.34446,1.385542 1.19227,-4.752641 4.15145,5.242436 4.79429,1.221192 1.43594,-2.559371 -1.3467,-2.356878 2.38071,-2.535443 3.29015,-3.511974 0.54743,-1.476343 1.09679,-3.160817 -0.76907,-3.0206 2.08994,-4.616879 -3.71865,-5.024033 0.12313,-3.446991 -7.11223,-2.852457 -1.54765,-0.776849 -1.6865,-0.585212 -2.02397,3.163668 -2.69499,-4.786664 -1.38361,3.731123 -7.92646,-6.976169 z" />
  <path
     id="rect1808"
     style="fill:#505050;fill-opacity:1;stroke:#282828;stroke-width:2.5;stroke-linejoin:round;stroke-miterlimit:4;stroke-dasharray:none;stroke-opacity:1"
     d="m 40.06339,25.491122 -5.371642,4.99391 -1.453463,4.217208 -2.543449,-0.50136 -0.219331,0.203907 0.608653,3.493944 -5.348094,2.27033 3.644567,0.605808 0.0564,4.317631 0.420563,0.452378 2.30075,-1.405141 1.080295,4.413595 1.295039,-1.842883 0.259101,2.183316 0.771006,1.167059 1.281335,-2.556654 3.632861,1.653533 2.073396,-3.1616 4.112937,-2.071283 0.473914,-0.440587 -0.58887,-1.752609 2.216472,-2.20659 1.817057,-1.839015 -1.35826,-2.340665 -0.344101,-0.37012 -7.871884,3.722208 2.72227,-6.638082 -0.517913,-3.180354 -0.227573,-0.244789 -6.492172,4.954975 z" />
  <path
     id="rect1968"
     style="fill:#505050;fill-opacity:1;stroke:#282828;stroke-width:2.5;stroke-linejoin:round;stroke-miterlimit:4;stroke-dasharray:none;stroke-opacity:1"
     d="m 53.012418,131.95407 -1.1557,3.58793 -0.59621,-0.008 -1.00423,2.05218 0.23058,4.96002 -2.55915,-0.20151 -0.40562,0.82891 2.07104,5.13475 -2.01974,-0.65176 1.42165,6.33025 0.12518,0.0612 1.91456,-2.02235 2.62632,4.20346 4.74196,-0.56852 -2.30862,-4.45192 5.48281,-0.41965 -0.89327,-2.57095 2.36689,-0.69165 2.24586,-5.76784 -2.23254,0.59056 -0.18543,-2.43238 -1.42288,-3.1755 -4.04095,3.8913 z" />
  <path
     id="rect3076"
     style="fill:#505050;fill-opacity:1;stroke:#282828;stroke-width:2.5;stroke-linejoin:round;stroke-miterlimit:4;stroke-dasharray:none;stroke-opacity:1"
     d="m 17.862428,69.858122 -0.20479,4.9825 -0.98942,0.17799 -0.23647,1.021827 1.02704,1.98981 -2.00287,2.49551 1.39734,0.71028 -0.7773,5.1868 -1.93582,0.56844 0.81279,5.24604 -2.64235,1.61179 -0.28006,1.21021 0.76685,2.79363 -3.0139201,6.916551 3.1104301,-3.39193 1.31925,4.38294 2.32133,-2.35566 1.9506,1.56804 2.63164,-0.84644 2.42427,3.82673 0.63175,0.14619 3.07552,-0.41695 -3.75667,-2.97231 4.9285,-1.00857 0.0233,-0.10084 -3.46021,-2.76339 4.24592,-0.839741 0.16002,-3.86219 1.18071,-3.17893 -3.24083,-3.86734 3.08009,-1.6408 1.77458,-0.0103 0.17349,-0.74973 0.17609,-1.38462 -2.10152,-1.3664 3.37636,-3.51883 0.49407,-2.13499 -0.12887,-3.991177 -2.48295,-1.23415 -0.28162,-0.0652 -2.75446,7.068797 -1.36944,-7.293397 -2.49457,3.875247 0.36955,-5.096737 -0.38247,-0.0885 -1.35678,-0.23579 -3.34142,3.59308 z" />
  <path
     style="fill:#008080;stroke:#171717;stroke-width:0.22308;stroke-opacity:0"
     d="m 23.534935,109.20433 c -0.613412,-0.10837 -1.547633,-1.23015 -2.771709,-3.32816 -0.152857,-0.26199 -0.344294,-0.25417 -1.238615,0.0506 -1.104369,0.3763 -1.523329,0.29423 -2.399851,-0.47009 -0.35259,-0.30746 -0.476168,-0.2553 -1.389265,0.58637 -1.595174,1.47038 -2.382327,1.20381 -3.035978,-1.02811 -0.152714,-0.52145 -0.342465,-0.94809 -0.42167,-0.94809 -0.0792,0 -0.489955,0.35959 -0.912779,0.79909 -1.032687,1.07341 -1.4470961,1.27916 -1.9905975,0.98828 -1.0362966,-0.55461 -0.990673,-0.90806 0.5902487,-4.5727 l 1.4961348,-3.468115 -0.330243,-1.390647 c -0.229669,-0.967134 -0.27229,-1.679923 -0.139951,-2.340506 0.166137,-0.829281 0.347049,-1.050131 1.425192,-1.739811 1.011316,-0.646932 1.214587,-0.87885 1.12271,-1.280943 -0.0617,-0.270043 -0.238009,-1.368791 -0.391787,-2.441662 -0.255908,-1.785403 -0.246259,-1.987511 0.113885,-2.385465 0.216414,-0.239135 0.67483,-0.496586 1.018702,-0.572113 0.685394,-0.150538 0.788058,-0.391601 1.024867,-2.406483 0.140345,-1.194116 0.113178,-1.301593 -0.438751,-1.735741 -0.811996,-0.638715 -0.740282,-1.303827 0.277339,-2.572184 l 0.865701,-1.079003 -0.440925,-0.907556 c -0.380125,-0.782413 -0.40617,-1.03662 -0.188883,-1.843562 0.138622,-0.514804 0.449403,-1.041633 0.690623,-1.17073 0.37364,-0.199966 0.438768,-0.473046 0.439827,-1.844204 0.0017,-2.166325 0.31567,-3.241641 0.996462,-3.412509 0.852291,-0.213912 1.257471,0.187963 2.12468,2.107351 l 0.815878,1.805778 1.290259,-1.3339 c 0.709643,-0.733645 1.374575,-1.3339 1.477627,-1.3339 0.522482,0 2.587654,0.527223 2.830518,0.722611 0.153368,0.123386 0.27885,0.420795 0.27885,0.660908 0,0.360946 0.107019,0.413065 0.617811,0.300876 0.963122,-0.211537 1.386801,0.271676 1.747673,1.993248 0.177384,0.846228 0.359139,1.575219 0.403901,1.619981 0.04476,0.04476 0.363775,-0.638383 0.708919,-1.518097 0.871802,-2.22208 1.163182,-2.322806 3.46829,-1.198937 0.988336,0.481868 1.887582,1.04543 1.998328,1.252361 0.284781,0.532116 0.250278,4.617093 -0.05086,6.021233 -0.207558,0.967802 -0.483535,1.416924 -1.558679,2.536577 l -1.306468,1.36055 0.66636,0.492661 c 0.557182,0.411943 0.666157,0.646903 0.665115,1.434072 -0.0018,1.326055 -0.390495,2.569689 -0.88617,2.834967 -0.231954,0.124137 -0.804781,0.229912 -1.27295,0.235055 -0.468169,0.0051 -1.171607,0.180818 -1.563197,0.39039 l -0.711982,0.381039 1.208801,1.45002 c 1.399747,1.679071 1.452162,2.004451 0.661323,4.105512 -0.416992,1.107846 -0.55853,1.91658 -0.560988,3.205449 -0.0043,2.268819 -0.274152,2.776569 -1.628139,3.063819 l -1.060751,0.22504 0.899929,0.80286 c 0.521485,0.46525 0.899929,1.00392 0.899929,1.28096 0,0.71229 -0.723172,1.30302 -1.816815,1.48408 -0.534426,0.0885 -1.051527,0.20821 -1.149113,0.26609 -0.09758,0.0579 0.288513,0.53913 0.857997,1.06946 0.855362,0.79655 1.007938,1.05503 0.877365,1.48637 -0.08693,0.28717 -0.246407,0.61675 -0.354387,0.73238 -0.267078,0.28602 -3.719134,0.72398 -4.549745,0.57723 z m 0.72501,-5.87621 c 0.644143,-0.12553 1.171169,-0.30674 1.171169,-0.40267 0,-0.0959 -0.351351,-0.44242 -0.780779,-0.76996 -0.618111,-0.47145 -0.78078,-0.75105 -0.78078,-1.34198 0,-0.882615 0.257508,-1.055373 2.119259,-1.421777 2.259663,-0.444715 2.11926,-0.317795 2.11926,-1.915735 0,-0.963569 0.17376,-1.891533 0.532801,-2.845416 l 0.532802,-1.415525 -1.536661,-1.846205 C 26.076575,89.494076 25.880378,89.033 26.379204,88.412926 c 0.450166,-0.559585 3.627367,-2.192525 4.265983,-2.192525 0.768084,0 0.741926,-0.25786 -0.07512,-0.740499 -0.948387,-0.560226 -1.346597,-1.011449 -1.346597,-1.525867 0,-0.252685 0.772056,-1.282683 1.761468,-2.349971 1.923065,-2.07443 2.030891,-2.333767 2.030891,-4.884597 0,-1.402709 -0.06321,-1.671193 -0.441034,-1.8734 -0.497655,-0.266337 -0.408872,-0.427768 -1.900152,3.454996 -0.863138,2.247306 -1.39875,3.011579 -2.110552,3.011579 -0.707247,0 -1.087461,-0.759502 -1.478805,-2.954012 l -0.38755,-2.173232 -0.822125,0.890523 c -0.928062,1.005272 -1.030528,1.035524 -1.764984,0.521091 -0.513421,-0.359615 -0.523919,-0.431548 -0.395059,-2.707048 l 0.132378,-2.337616 -1.569382,1.703188 c -1.638597,1.778304 -2.305953,2.079092 -3.076127,1.38646 -0.306042,-0.27523 -0.418589,-0.262719 -0.859012,0.09549 l -0.506827,0.412221 0.492832,1.014395 0.492831,1.014395 -0.699101,0.973481 c -0.643037,0.895412 -0.670261,1.002323 -0.339466,1.333117 0.330794,0.330795 0.328726,0.579662 -0.02579,3.10324 -0.466513,3.320775 -0.609418,3.7029 -1.501027,4.013717 -0.687435,0.239641 -0.694152,0.256649 -0.545903,1.382436 0.533784,4.053512 0.550584,3.985966 -1.241733,4.992598 -1.215083,0.682438 -1.257492,0.837199 -0.728268,2.657663 0.341146,1.173501 0.336371,1.272859 -0.113156,2.35454 -0.452456,1.088731 -0.454668,1.139611 -0.06152,1.414981 0.224296,0.1571 0.593102,0.89762 0.819569,1.64559 l 0.411758,1.35994 0.588503,-0.56382 c 0.781029,-0.74827 1.600554,-0.71743 2.525928,0.0951 0.747384,0.65621 0.754785,0.65756 1.827856,0.33462 1.433296,-0.43136 1.830154,-0.40959 2.288347,0.12554 0.232027,0.27099 0.519381,0.39124 0.722826,0.30249 0.185731,-0.081 0.864718,-0.25003 1.508862,-0.37557 z"
     id="path1" />
  <path
     style="fill:#008080;stroke:#171717;stroke-width:0.22308;stroke-opacity:0"
     d="m 22.613437,108.40124 c -0.413105,-0.43802 -1.011716,-1.24111 -1.330248,-1.78464 -0.646827,-1.10373 -0.604166,-1.08783 -1.951868,-0.72738 -0.880617,0.23553 -1.054057,0.21223 -1.785574,-0.23987 l -0.810216,-0.50074 -0.950357,0.76307 c -0.522696,0.41968 -1.14055,0.83121 -1.373009,0.91449 -0.598397,0.21439 -1.16506,-0.37945 -1.593782,-1.67021 -0.198969,-0.59904 -0.417758,-1.08916 -0.486197,-1.08916 -0.06844,0 -0.560058,0.40154 -1.092487,0.89232 -1.015779,0.93631 -1.3842238,1.04879 -2.1293101,0.65003 -0.6320755,-0.33828 -0.4507236,-1.10913 1.1292321,-4.79991 l 1.294024,-3.022837 -0.306451,-1.265631 c -0.170064,-0.702361 -0.24823,-1.689135 -0.175632,-2.217212 0.114343,-0.831731 0.285971,-1.068718 1.36271,-1.881664 l 1.231891,-0.930087 -0.157164,-1.018374 c -0.586706,-3.801675 -0.532933,-4.360009 0.443519,-4.605083 0.890281,-0.223446 1.238615,-0.824831 1.384857,-2.390897 0.126811,-1.357992 0.0934,-1.521011 -0.442222,-2.157559 -0.649715,-0.772142 -0.612135,-1.069883 0.282481,-2.238053 0.923098,-1.205361 0.945167,-1.281265 0.578619,-1.99009 -0.506198,-0.978879 -0.434726,-2.104767 0.180588,-2.844784 0.429623,-0.516693 0.548453,-0.981964 0.657923,-2.576055 0.167146,-2.433974 0.390025,-2.900251 1.342223,-2.808008 0.648009,0.06278 0.788357,0.22881 1.602994,1.896369 l 0.892806,1.827571 1.388753,-1.342264 c 0.927785,-0.896726 1.519999,-1.30764 1.784154,-1.237953 0.217471,0.05737 0.873699,0.228887 1.458285,0.381146 0.814219,0.212069 1.093877,0.400316 1.195354,0.804632 0.106476,0.424235 0.279801,0.527797 0.883336,0.527797 0.829252,0 1.241357,0.539759 1.532892,2.00772 0.349247,1.75856 0.366856,1.758539 1.213652,-0.0015 0.716409,-1.489003 0.877397,-1.677566 1.47352,-1.725902 0.427823,-0.03469 1.228678,0.246963 2.220074,0.780779 1.87734,1.010854 1.985626,1.276196 1.797362,4.404325 -0.18337,3.046802 -0.368439,3.587623 -1.755773,5.130839 l -1.20328,1.33848 0.641977,0.732772 c 0.681793,0.778216 0.752,1.200953 0.429991,2.589046 -0.273949,1.180916 -0.605568,1.449316 -2.088999,1.69075 -0.699514,0.113849 -1.4714,0.346774 -1.715305,0.517612 -0.428784,0.300332 -0.406572,0.356583 0.671014,1.699281 1.254147,1.562695 1.39574,2.325666 0.754176,4.063798 -0.198169,0.536876 -0.443106,1.96245 -0.54431,3.167945 -0.101203,1.205495 -0.30444,2.336921 -0.451637,2.514281 -0.147198,0.17736 -0.706808,0.43306 -1.243577,0.56822 l -0.975946,0.24575 0.895567,0.97157 c 0.492562,0.53437 0.895566,1.07877 0.895566,1.20978 0,0.50352 -1.06207,1.26778 -1.961711,1.41163 -1.148179,0.18361 -1.180873,0.49141 -0.157548,1.48326 0.809084,0.78419 0.997011,1.55055 0.484526,1.97588 -0.299471,0.24853 -2.843046,0.68852 -4.027465,0.69666 -0.451616,0.003 -0.866374,-0.23254 -1.393998,-0.79198 z m 1.540694,-4.99329 c 0.702341,-0.14581 1.276983,-0.32111 1.276983,-0.38956 0,-0.0684 -0.351351,-0.51336 -0.780779,-0.98869 -1.332274,-1.47467 -1.014922,-2.066537 1.376863,-2.567898 0.818754,-0.171624 1.607514,-0.410699 1.752799,-0.531274 0.145286,-0.120577 0.329526,-0.922591 0.409424,-1.782259 0.0799,-0.859665 0.341527,-2.07954 0.5814,-2.710836 0.493845,-1.299693 0.558176,-1.11633 -1.121895,-3.197733 -1.603917,-1.987059 -1.685082,-2.226109 -0.991367,-2.919824 0.619085,-0.619085 3.564353,-2.099475 4.176951,-2.099475 0.624887,0 0.466126,-0.366854 -0.386919,-0.894064 -0.430981,-0.266361 -0.887667,-0.678741 -1.014858,-0.9164 -0.265907,-0.496852 0.04727,-1.013318 1.858576,-3.065025 0.611417,-0.692565 1.24956,-1.58224 1.418097,-1.977054 0.437803,-1.02561 0.411774,-4.159394 -0.03765,-4.532381 -0.478864,-0.397421 -0.606887,-0.209084 -1.65806,2.439164 -1.172066,2.952817 -1.472913,3.525712 -1.999454,3.807508 -0.955668,0.511458 -1.374033,-0.14133 -1.916087,-2.98973 -0.185279,-0.973612 -0.36696,-1.800292 -0.403736,-1.837068 -0.03677,-0.03678 -0.405949,0.282983 -0.820387,0.710574 -0.826897,0.853141 -1.337466,0.966424 -1.885535,0.418355 -0.304252,-0.304253 -0.336204,-0.704496 -0.209249,-2.621189 l 0.149834,-2.262107 -1.815286,1.754657 c -1.876918,1.81423 -1.795515,1.779542 -3.152003,1.343196 -0.184041,-0.0592 -0.534535,0.03903 -0.778876,0.218288 -0.441826,0.324145 -0.441475,0.33165 0.0643,1.372691 l 0.508557,1.046763 -0.582532,0.763738 c -0.47427,0.6218 -0.551934,0.897273 -0.417893,1.482262 0.208094,0.908176 0.140201,2.010156 -0.270282,4.386982 -0.3457,2.00171 -0.544322,2.397534 -1.358378,2.707038 -0.571701,0.21736 -0.597551,0.465816 -0.311486,2.993861 0.221007,1.953114 0.0074,2.590007 -1.07227,3.196805 -1.379965,0.775584 -1.449471,0.937395 -1.118313,2.603448 0.252629,1.270971 0.242855,1.601937 -0.07683,2.601607 -0.349225,1.09205 -0.346607,1.17039 0.05624,1.68253 0.232387,0.29543 0.585046,1.02646 0.783686,1.62451 l 0.361164,1.08737 0.804275,-0.5458 c 0.890985,-0.60464 1.254685,-0.56613 2.513381,0.26608 0.765414,0.50607 0.811645,0.50997 1.980629,0.16695 1.149945,-0.33744 1.21999,-0.33323 1.78464,0.10724 0.323244,0.25216 0.69068,0.42548 0.816523,0.38516 0.125843,-0.0403 0.803449,-0.19261 1.50579,-0.33841 z"
     id="path2" />
  <path
     style="fill:#008080;stroke:#171717;stroke-width:0.22308;stroke-opacity:0"
     d="m 52.959549,157.21218 c -0.13476,-0.0901 -0.676182,-0.85005 -1.20316,-1.68868 l -0.958141,-1.52477 -0.534737,0.57669 c -0.627337,0.67655 -1.622142,0.76363 -2.128211,0.1863 -0.433503,-0.49455 -1.823504,-6.81002 -1.650533,-7.49919 0.07109,-0.28323 0.324879,-0.60656 0.563987,-0.71852 0.425577,-0.19927 0.423328,-0.23141 -0.106691,-1.52417 -0.625494,-1.52564 -0.669028,-2.13563 -0.215064,-3.0135 0.370066,-0.71562 0.743034,-0.9085 1.755365,-0.90775 l 0.706765,5.3e-4 -0.07377,-1.8174 c -0.08358,-2.0592 0.286491,-3.34722 1.295566,-4.50911 0.335106,-0.38586 0.832939,-1.37932 1.106295,-2.20769 0.390313,-1.1828 0.609022,-1.53425 1.018765,-1.63709 1.104792,-0.27728 1.297035,-0.0594 3.167765,3.58938 1.006468,1.9631 1.867689,3.66839 1.913824,3.78952 0.04613,0.12114 0.828836,-0.45497 1.739336,-1.28024 1.712585,-1.55226 2.339471,-1.79055 2.933409,-1.11503 0.387867,0.44114 1.603001,3.19429 1.821494,4.12698 0.125501,0.53573 0.250594,0.61347 0.987166,0.61347 0.943105,0 1.378845,0.31295 1.378845,0.99028 0,0.25019 -0.556179,1.8772 -1.235953,3.61559 -1.205072,3.08172 -1.257822,3.16945 -2.111147,3.51088 l -0.875193,0.35018 0.296615,0.8416 c 0.338406,0.96018 0.14822,1.74569 -0.465705,1.92345 -0.22266,0.0645 -1.182827,0.18549 -2.133705,0.26891 -0.964318,0.0846 -1.72887,0.25543 -1.72887,0.38629 0,0.12903 0.301158,0.76822 0.66924,1.42043 1.26048,2.23345 0.855084,2.77935 -2.357448,3.17455 -2.341067,0.28798 -3.233217,0.30747 -3.57611,0.0781 z m 3.444245,-2.62951 c 0.04186,-0.0364 -0.284395,-0.71076 -0.725009,-1.49865 -1.381285,-2.46997 -1.029782,-3.0191 2.060702,-3.21932 l 2.017317,-0.1307 -0.125499,-1.05964 c -0.112098,-0.94649 -0.06764,-1.09755 0.416363,-1.41468 0.298024,-0.19527 0.872653,-0.4212 1.276954,-0.50206 0.603134,-0.12063 0.811452,-0.32516 1.160454,-1.13935 0.664679,-1.55063 0.75172,-2.06632 0.348763,-2.06632 -0.573714,0 -1.040693,-0.91978 -1.040693,-2.04979 0,-0.58201 -0.168688,-1.41194 -0.374863,-1.84429 l -0.374863,-0.7861 -1.514772,1.46239 c -1.322995,1.27725 -1.60739,1.45348 -2.246326,1.392 -0.699891,-0.0673 -0.803045,-0.2099 -2.383291,-3.29372 -1.437576,-2.8054 -1.676391,-3.15668 -1.841883,-2.70931 -0.10458,0.2827 -0.505837,0.80891 -0.891683,1.16934 l -0.701538,0.65534 0.141083,2.62385 c 0.170052,3.1626 0.01365,3.54165 -1.504824,3.64709 l -0.976706,0.0678 0.885053,2.21921 c 0.975504,2.446 0.946757,3.10241 -0.147898,3.37715 -0.518938,0.13025 -0.557373,0.21666 -0.424448,0.95425 0.199216,1.10543 0.28399,1.20417 0.687466,0.80069 0.205765,-0.20576 0.63112,-0.32062 1.039064,-0.28056 0.602736,0.0592 0.845824,0.31733 1.909004,2.02732 l 1.218317,1.9595 1.018825,-0.14768 c 0.560353,-0.0812 1.053073,-0.17742 1.094931,-0.21378 z"
     id="path3" />
  <path
     style="fill:#008080;stroke:#171717;stroke-width:0.22308;stroke-opacity:0"
     d="m 151.13335,158.85702 c -0.36991,-0.16119 -1.10991,-0.85996 -1.64446,-1.55283 -1.01416,-1.31454 -1.3638,-1.53457 -1.3638,-0.85822 0,0.55406 -0.43455,0.93694 -1.06336,0.93694 -0.85146,0 -1.90307,-0.98432 -2.84974,-2.66739 -0.48572,-0.86353 -0.95664,-1.5703 -1.0465,-1.5706 -0.0899,-2.9e-4 -0.81943,0.40101 -1.62126,0.89179 -2.05782,1.25952 -3.08188,1.20284 -3.43752,-0.19025 -0.11424,-0.44749 -0.27533,-1.34064 -0.35798,-1.98478 l -0.15027,-1.17117 h -1.87561 -1.87562 l -0.80134,-1.1154 c -0.44073,-0.61347 -0.83579,-1.1154 -0.87791,-1.1154 -0.0421,0 -0.95595,0.55212 -2.03075,1.22694 -2.06962,1.29943 -2.42746,1.4067 -3.08602,0.92515 -0.37626,-0.27513 -0.40109,-0.54598 -0.28114,-3.06735 0.0724,-1.52106 0.19909,-2.94032 0.28162,-3.15391 0.1425,-0.36881 0.56184,-0.53351 2.70323,-1.06171 l 0.92624,-0.22847 -0.54456,-1.94924 c -1.05491,-3.77603 -1.09073,-4.01515 -0.67099,-4.47896 0.20758,-0.22938 1.22834,-0.64184 2.26835,-0.91658 1.04001,-0.27474 1.89093,-0.58882 1.89093,-0.69795 0,-0.10913 -0.37449,-0.95526 -0.83221,-1.88028 -0.65186,-1.31739 -0.78078,-1.76537 -0.59491,-2.06718 0.20203,-0.32804 0.98365,-0.90463 2.63918,-1.94688 0.32246,-0.20301 0.32425,-0.54425 0.0199,-3.79236 -0.46201,-4.93146 -0.45364,-5.15742 0.2071,-5.59035 0.84672,-0.5548 1.39162,-0.22392 2.16183,1.31275 0.37976,0.75766 0.73407,1.42469 0.78736,1.4823 0.0533,0.0576 0.34982,-0.21846 0.65896,-0.61347 0.30915,-0.39501 0.75781,-0.71821 0.99703,-0.71821 0.67324,0 3.91812,1.71197 4.31273,2.27536 0.23685,0.33815 0.30725,0.74168 0.21509,1.23292 -0.0753,0.40163 -0.0857,0.73024 -0.023,0.73024 0.0627,0 1.02375,-0.35135 2.13568,-0.78078 3.35242,-1.2947 3.74411,-1.10224 3.49802,1.71881 l -0.15937,1.82709 1.4477,-1.27102 c 0.8252,-0.72448 1.65935,-1.27102 1.9399,-1.27102 0.69383,0 3.10206,1.3267 3.49398,1.92484 0.23513,0.35885 0.28416,0.78578 0.17436,1.51801 -0.084,0.56031 -0.0984,1.01875 -0.0319,1.01875 0.0665,0 0.72817,-0.36176 1.47042,-0.80391 1.32208,-0.78756 1.38254,-0.80066 2.97179,-0.64375 2.50821,0.24765 2.42319,0.13234 2.4345,3.30174 0.005,1.49548 0.0255,3.24334 0.0449,3.88413 0.0472,1.5626 -0.40649,2.008 -2.37818,2.33472 -0.81979,0.13584 -1.49053,0.33253 -1.49053,0.43709 0,0.10455 0.0898,0.1901 0.19949,0.1901 0.35698,0 1.58515,1.28444 1.58515,1.65777 0,0.19986 -0.84126,1.29484 -1.86948,2.4333 l -1.86948,2.06992 0.80985,2.38288 c 0.61928,1.82214 0.7547,2.47524 0.57548,2.77535 -0.12891,0.21586 -1.40863,0.99479 -2.84382,1.73096 -1.43519,0.73616 -2.60964,1.39733 -2.60989,1.46927 -2.5e-4,0.0719 0.44913,0.82483 0.99863,1.6731 1.50818,2.3282 1.35766,2.78002 -1.20971,3.63115 -1.66806,0.55299 -1.49765,0.54099 -2.35811,0.16605 z m 1.45334,-2.48498 c 0,-0.0652 -0.45174,-0.79192 -1.00386,-1.61495 -1.03915,-1.549 -1.22001,-2.26203 -0.70208,-2.76794 0.16599,-0.16213 1.50922,-0.88784 2.98497,-1.61268 l 2.68318,-1.3179 -0.75313,-2.23636 c -0.86664,-2.57344 -0.94099,-2.28834 1.20493,-4.62057 l 1.34507,-1.46186 -1.01249,-0.64055 c -1.51167,-0.95635 -2.29271,-1.67225 -2.29271,-2.10147 0,-0.86749 0.53303,-1.13813 3.30987,-1.68054 1.51369,-0.29568 2.7919,-0.57732 2.84045,-0.62588 0.0486,-0.0486 -0.004,-0.41103 -0.11741,-0.80551 -0.11314,-0.39448 -0.14706,-1.41679 -0.0754,-2.2718 0.1268,-1.51249 0.1164,-1.55456 -0.38436,-1.55456 -0.8274,0 -2.29192,0.99373 -3.43308,2.32947 -1.19863,1.40301 -1.93262,1.71981 -2.59525,1.12014 -0.38717,-0.35038 -0.43717,-0.69701 -0.43717,-3.03017 0,-2.41618 -0.0374,-2.65456 -0.45128,-2.87606 -0.39532,-0.21156 -0.748,0.0225 -2.84427,1.88759 -2.4768,2.20366 -3.22045,2.54612 -3.85875,1.77701 -0.23894,-0.28791 -0.2444,-0.79242 -0.0294,-2.71625 0.14521,-1.29946 0.23166,-2.39502 0.19212,-2.43457 -0.0396,-0.0396 -0.96648,0.27929 -2.05985,0.70853 -1.09337,0.42924 -2.20881,0.78043 -2.47876,0.78043 -0.82507,0 -1.14648,-0.73647 -1.01831,-2.3333 l 0.11381,-1.41773 -0.73828,-0.38177 -0.73827,-0.38178 -0.98379,1.14189 c -0.5717,0.66357 -1.17025,1.14189 -1.42891,1.14189 -0.41847,0 -0.43588,0.0985 -0.29087,1.64592 0.0848,0.90525 0.088,1.85464 0.007,2.10976 -0.081,0.25512 -0.69193,0.7755 -1.35768,1.15641 l -1.21046,0.69255 0.88786,1.76587 c 1.43386,2.85181 1.2825,3.14851 -2.04538,4.00932 l -1.92938,0.49906 0.54421,1.92413 c 0.29932,1.05826 0.66346,2.46175 0.80921,3.11886 0.24952,1.12498 0.23645,1.21786 -0.22371,1.59048 -0.26879,0.21765 -1.14163,0.51893 -1.93965,0.6695 -1.55324,0.29308 -1.98941,0.6019 -1.87351,1.32651 0.0678,0.42384 0.17106,0.39349 1.47611,-0.43388 1.94714,-1.23445 2.29468,-1.18864 3.45096,0.45485 l 0.9459,1.34447 1.93642,-0.13306 c 2.44847,-0.16824 2.74534,0.0532 2.97744,2.22046 0.0866,0.80845 0.23282,1.46991 0.32498,1.46991 0.0922,0 0.87662,-0.41051 1.74324,-0.91225 1.07454,-0.62211 1.71945,-0.86661 2.02775,-0.76876 0.24864,0.0789 0.7743,0.70667 1.16812,1.395 0.63205,1.1047 0.73636,1.19659 0.88923,0.78334 0.21654,-0.58535 0.88313,-0.956 1.45185,-0.80728 0.23831,0.0623 1.32635,1.21161 2.41786,2.55397 1.0915,1.34236 2.11738,2.44066 2.27972,2.44066 0.16234,0 0.29517,-0.0533 0.29517,-0.11855 z"
     id="path4" />
  <path
     style="fill:#008080;stroke:#171717;stroke-width:0.22308;stroke-opacity:0"
     d="m 122.47089,44.065654 c -1.28828,-0.341763 -2.49292,-0.689866 -2.67696,-0.773559 -0.18404,-0.0837 -0.93292,-0.915386 -1.66419,-1.848204 l -1.32957,-1.696032 -0.30503,1.207126 c -0.3397,1.344333 -0.8009,1.987906 -1.42458,1.987906 -0.22864,0 -1.50939,-0.353564 -2.84612,-0.785697 l -2.4304,-0.785696 -0.8559,-1.667226 c -0.47075,-0.916975 -0.9061,-1.665156 -0.96744,-1.662629 -0.0613,0.0025 -0.58242,0.629512 -1.15792,1.393295 -1.50319,1.994935 -1.91817,2.392553 -2.49702,2.392553 -0.92945,0 -1.16478,-0.629739 -1.9382,-5.186609 -0.41127,-2.423206 -0.8339,-4.405829 -0.93916,-4.405829 -0.10526,0 -1.12727,0.652509 -2.271134,1.45002 -2.125458,1.481882 -2.502717,1.623067 -3.257553,1.219091 -0.387845,-0.207569 -0.431494,-0.488036 -0.431494,-2.772567 0,-2.752159 0.0627,-2.917631 1.359614,-3.588292 0.356458,-0.184331 0.644067,-0.407859 0.639132,-0.49673 -0.0049,-0.08887 -0.762167,-0.964669 -1.682736,-1.946221 -2.358488,-2.514727 -2.324766,-2.670533 0.962373,-4.446505 1.377927,-0.744465 2.50727,-1.461706 2.509649,-1.593869 0.0024,-0.132162 -0.448463,-1.471508 -1.001873,-2.976324 -1.382222,-3.758498 -1.471505,-3.611665 3.016262,-4.960449 l 3.4554,-1.03851 -0.0836,-4.4389726 c -0.0743,-3.9464016 -0.0416,-4.4809585 0.29478,-4.8173389 0.77676,-0.7767651 1.32318,-0.4810192 4.84503,2.6223484 1.87295,1.6503928 3.45055,2.9555243 3.50578,2.9002921 0.0552,-0.055232 0.30996,-0.6275623 0.56606,-1.2718446 0.4316,-1.085795 0.52512,-1.1763869 1.27942,-1.2393394 0.79945,-0.066721 0.83068,-0.038233 1.77262,1.6173296 0.52736,0.9268856 1.01415,1.6814368 1.08176,1.6767805 0.0676,-0.00466 0.39803,-0.4062005 0.73427,-0.8923198 0.75473,-1.0911336 1.13825,-1.1135531 3.32521,-0.1943836 0.90224,0.3792087 3.24662,1.3425072 5.20972,2.1406636 1.96311,0.7981564 3.69476,1.5542397 3.84813,1.6801847 0.1829,0.150195 0.27885,0.875765 0.27885,2.108619 v 1.879629 l 1.63703,2.164265 c 2.43555,3.219974 2.34886,2.79294 1.12408,5.53685 l -1.0526,2.358166 0.36746,1.531084 0.36746,1.531087 -0.91052,2.558424 -0.91053,2.558426 -2.61778,2.826483 -2.61778,2.826481 0.57772,1.089469 0.57772,1.089469 -0.78078,1.465782 c -0.92249,1.731835 -1.43976,2.342581 -1.96064,2.314957 -0.20993,-0.01113 -1.43575,-0.299869 -2.72404,-0.641634 z m 2.42466,-2.597723 c 0.22935,-0.503387 0.18871,-0.71362 -0.29882,-1.545514 -0.31035,-0.529581 -0.56428,-1.172111 -0.56428,-1.427846 0,-0.289147 1.07554,-1.606064 2.84427,-3.482599 2.62518,-2.785182 2.89945,-3.158712 3.56064,-4.849223 0.83033,-2.122991 0.85587,-2.402575 0.3769,-4.125355 l -0.35675,-1.283162 0.91445,-1.979326 c 0.50295,-1.088628 0.91445,-2.132138 0.91445,-2.31891 0,-0.186771 -0.7278,-1.302075 -1.61733,-2.478452 -1.61209,-2.131944 -1.61769,-2.144231 -1.72887,-3.795753 l -0.11154,-1.656885 -3.3462,-1.372412 c -1.84041,-0.754827 -3.69156,-1.5525716 -4.11366,-1.7727664 -0.87356,-0.4557024 -0.75225,-0.5400804 -2.18375,1.5188684 -1.12937,1.624397 -1.75473,1.452643 -3.06574,-0.842007 L 115.49233,8.9591806 115.0666,9.789003 c -0.80556,1.570198 -1.39866,1.414756 -4.19586,-1.0996728 -1.1656,-1.0477588 -2.50875,-2.2205225 -2.98479,-2.6061414 l -0.86553,-0.7011249 0.15694,3.4436667 c 0.12398,2.7204164 0.0943,3.5274394 -0.14154,3.8425384 -0.1824,0.243746 -1.51185,0.752336 -3.41839,1.307726 -1.71595,0.499869 -3.19146,0.974161 -3.2789,1.053983 -0.0875,0.07982 0.29372,1.398585 0.84704,2.930585 0.79504,2.201272 0.95936,2.887878 0.78352,3.273825 -0.12847,0.281954 -1.12293,0.973766 -2.352836,1.636792 -1.171674,0.631631 -2.130315,1.21756 -2.130315,1.30206 0,0.0845 0.75673,0.904023 1.681623,1.821158 1.439908,1.427825 1.672378,1.763712 1.617328,2.336756 -0.0527,0.548136 -0.31546,0.830712 -1.452287,1.561559 -0.808044,0.519478 -1.390609,1.053234 -1.39425,1.277432 -0.0046,0.285696 0.522673,0.01215 2.042665,-1.05963 2.194472,-1.547376 2.886332,-1.739983 3.386652,-0.942811 0.17326,0.276061 0.58331,2.108105 0.91122,4.071209 0.3279,1.963103 0.64843,3.749583 0.71228,3.969957 0.0906,0.312707 0.38914,0.05557 1.35976,-1.171169 0.97171,-1.228116 1.37017,-1.571101 1.82211,-1.568433 0.31814,0.0019 0.69142,0.07717 0.82951,0.16731 0.13809,0.09014 0.76089,1.181844 1.38401,2.426005 1.10084,2.198023 1.16279,2.272284 2.18677,2.62119 0.57962,0.197492 1.17573,0.359078 1.32469,0.359078 0.15212,0 0.4396,-0.709019 0.65578,-1.617329 0.48055,-2.019055 0.84238,-2.62119 1.57511,-2.62119 0.64618,0 0.9279,0.278763 3.21886,3.185171 1.66693,2.114725 1.67887,2.124214 3.23466,2.572097 2.03061,0.584567 2.00359,0.58566 2.31312,-0.09367 z"
     id="path5" />
  <path
     style="fill:#008080;stroke:#171717;stroke-width:0.315483;stroke-opacity:0"
     d="m 34.443978,50.477231 c -0.341219,-0.433789 -0.914397,-0.788707 -1.273729,-0.788707 -0.756451,0 -1.159773,-0.632229 -1.474896,-2.311976 -0.176435,-0.940481 -0.334153,-1.150757 -0.737838,-0.983718 -1.257057,0.520152 -1.559299,0.472279 -2.205594,-0.349351 -0.496462,-0.63115 -0.673961,-1.298816 -0.673961,-2.535118 v -1.678313 l -1.183061,-0.189007 c -1.517786,-0.242483 -2.10373,-0.564862 -2.23443,-1.229356 -0.163571,-0.831615 0.425793,-1.311945 2.802535,-2.284061 l 2.202053,-0.900666 -0.199823,-1.782996 c -0.181024,-1.615266 -0.135222,-1.817569 0.486886,-2.150511 0.37769,-0.202133 1.082864,-0.280505 1.567053,-0.174159 0.835099,0.183419 0.914703,0.09913 1.548835,-1.640039 0.575037,-1.577096 1.086375,-2.215157 3.65776,-4.564254 2.249777,-2.055291 3.147202,-2.689559 3.627678,-2.563912 0.998161,0.261025 1.051268,1.109302 0.191203,3.054062 -0.436606,0.987245 -0.79383,1.864281 -0.79383,1.948968 0,0.08469 0.72288,-0.343276 1.6064,-0.95103 2.325396,-1.599591 2.971859,-1.146624 3.325868,2.33039 0.138474,1.360061 0.02832,2.141173 -0.483578,3.429204 -0.364593,0.91738 -0.662898,1.730107 -0.662898,1.80606 0,0.07595 1.082478,-0.355204 2.405507,-0.958127 3.25864,-1.48501 3.556949,-1.449131 4.783938,0.575392 0.557208,0.919389 1.013105,1.873551 1.013105,2.12036 0,0.246809 -0.816311,1.273719 -1.814025,2.282024 -1.631907,1.649229 -1.814025,1.966875 -1.814025,3.163975 v 1.330695 l -2.382905,1.232707 c -1.896104,0.980878 -2.591396,1.547779 -3.403471,2.774992 -0.561312,0.848257 -1.231666,1.623291 -1.489677,1.722299 -0.258011,0.09901 -1.139892,-0.111165 -1.959735,-0.467051 l -1.490624,-0.647066 -0.559632,1.083498 c -0.670519,1.298187 -1.51006,1.402126 -2.381089,0.294792 z m 6.404524,-4.130161 c 0.450396,-0.836336 1.157999,-1.408942 2.701924,-2.18645 2.004413,-1.009406 2.085611,-1.095014 1.945308,-2.050958 -0.12837,-0.874645 0.07386,-1.220175 1.640979,-2.803823 1.203889,-1.216583 1.724564,-1.96997 1.594934,-2.307779 -0.16188,-0.421853 -0.773709,-0.228425 -3.850826,1.217428 -2.012102,0.945432 -3.867793,1.677649 -4.123758,1.627149 -1.173965,-0.231613 -1.119288,-1.044921 0.305068,-4.537819 1.947183,-4.775012 1.803297,-5.007535 -1.538765,-2.486668 -1.489461,1.123478 -2.88203,2.042687 -3.094596,2.042687 -0.212567,0 -0.566957,-0.217455 -0.787534,-0.483234 -0.390183,-0.470143 -0.29166,-1.071063 0.541466,-3.302558 0.119072,-0.318928 0.07163,-0.370359 -0.1455,-0.157741 -0.177198,0.173515 -0.674416,1.309253 -1.104928,2.523861 -0.743942,2.098892 -0.835557,2.213004 -1.847892,2.301659 -1.052905,0.09221 -1.06388,0.109164 -0.9552,1.475643 0.104964,1.319748 0.05643,1.409815 -1.071403,1.988431 -0.729767,0.374392 -1.042704,0.691754 -0.818653,0.830225 0.199482,0.123287 0.362695,0.922066 0.362695,1.775065 v 1.550908 l 0.945665,-0.189133 c 1.14721,-0.229442 1.754038,0.216534 2.005513,1.473913 0.149642,0.748206 0.352,0.939373 0.99437,0.939373 0.443572,0 0.889835,0.217182 0.991696,0.482626 0.11007,0.286838 0.407316,0.412129 0.732724,0.308848 0.301138,-0.09558 1.171621,0.103115 1.934406,0.441538 1.87807,0.833238 1.945225,0.821212 2.642307,-0.473191 z"
     id="path12" />
  <path
     style="fill:#006868;fill-opacity:1;stroke:#171717;stroke-width:0.315483;stroke-opacity:0"
     d="m 21.904242,103.2853 c -0.140844,-0.22789 -0.7596,-0.27876 -1.766342,-0.14521 -1.294672,0.17175 -1.709046,0.092 -2.519159,-0.48486 -0.932733,-0.66416 -1.004265,-0.66994 -1.881167,-0.15194 -0.90637,0.5354 -0.913411,0.53342 -1.235569,-0.34744 -0.178203,-0.48725 -0.412778,-1.09886 -0.521278,-1.35913 -0.1085,-0.26027 -0.216556,-1.756834 -0.240125,-3.32569 l -0.04285,-2.852466 1.230945,-0.876383 1.230944,-0.876384 L 15.936,90.479215 c -0.216048,-2.305558 -0.1961,-2.409241 0.587594,-3.054028 0.638919,-0.525673 0.882671,-1.1283 1.147539,-2.837057 0.184968,-1.193287 0.304835,-2.777547 0.266373,-3.520579 -0.04125,-0.796966 0.128951,-1.650501 0.415056,-2.081399 0.426108,-0.641751 0.430247,-0.861445 0.0341,-1.809563 -0.531561,-1.272205 -0.176981,-1.681304 1.131631,-1.305623 0.717649,0.206024 1.055142,0.02045 2.48663,-1.367266 l 1.656284,-1.605644 v 2.265372 c 0,1.914106 0.09429,2.315837 0.608107,2.590822 0.482361,0.258152 0.797653,0.165956 1.524754,-0.445858 l 0.916647,-0.771308 0.354622,1.906886 c 0.391622,2.105838 0.800839,2.792823 1.663603,2.792823 0.716657,0 0.829649,-0.176306 2.208733,-3.446377 1.434491,-3.401451 1.872532,-3.589139 1.872532,-0.802326 0,1.908581 -0.104467,2.255843 -1.077308,3.581117 -0.592519,0.807173 -1.373339,1.735492 -1.735154,2.06293 -0.905095,0.8191 -0.831019,1.896193 0.181117,2.633482 l 0.838964,0.611143 -1.855726,0.849579 c -2.111084,0.966486 -2.97703,1.649437 -2.97703,2.347911 0,0.26596 0.651011,1.312196 1.44669,2.324969 l 1.446689,1.841404 -0.500241,1.468127 c -0.275133,0.80747 -0.500241,1.929582 -0.500241,2.493582 0,1.027946 -0.666895,2.015436 -1.363336,2.018732 -0.204501,9.68e-4 -0.896032,0.147353 -1.536736,0.325302 -1.585459,0.440344 -1.845579,1.345762 -0.723195,2.517272 l 0.854805,0.89223 -1.218501,0.33834 c -1.542754,0.42837 -1.917445,0.42684 -2.186755,-0.009 z"
     id="path14" />
  <path
     style="fill:#006868;fill-opacity:1;stroke:#171717;stroke-width:0.315483;stroke-opacity:0"
     d="m 122.13906,41.399062 c -0.7416,-0.237146 -1.67071,-1.098183 -3.11418,-2.886008 -1.63025,-2.019172 -2.22938,-2.548027 -2.8866,-2.548027 -0.73131,0 -0.90599,0.223782 -1.47762,1.892896 -0.59563,1.739231 -0.71952,1.887766 -1.52618,1.829718 -1.19582,-0.08606 -1.66819,-0.543637 -2.72748,-2.642085 -0.91409,-1.810808 -1.69797,-2.815684 -2.19644,-2.815684 -0.31164,0 -0.79405,0.457065 -2.01946,1.913384 -0.55041,0.654121 -0.9522,0.90684 -1.08924,0.685107 -0.11942,-0.193232 -0.48363,-1.886204 -0.80934,-3.76216 -0.5691,-3.277728 -1.11544,-4.565263 -1.87708,-4.423627 -0.19623,0.03649 -1.18404,0.611446 -2.19513,1.277676 -2.173356,1.432078 -2.803736,1.350232 -0.707691,-0.09188 0.793011,-0.545607 1.441841,-1.238973 1.441841,-1.540812 0,-0.301839 -0.70983,-1.247961 -1.577412,-2.102493 -0.867577,-0.854531 -1.577414,-1.71671 -1.577414,-1.915952 0,-0.199242 0.833022,-0.806254 1.851159,-1.348915 2.795887,-1.490192 2.784337,-1.456485 1.653887,-4.827105 -0.53575,-1.597437 -0.91846,-2.960069 -0.85045,-3.028071 0.068,-0.068 1.5141,-0.541106 3.21355,-1.051341 1.69946,-0.510235 3.20859,-1.103684 3.35364,-1.318777 0.14504,-0.215092 0.22349,-1.846401 0.17433,-3.6251292 -0.0492,-1.7787288 6.3e-4,-3.2338927 0.11063,-3.2336976 0.11001,1.95e-4 1.52826,1.1360923 3.15167,2.5242161 1.62342,1.3881239 3.12041,2.5238617 3.32664,2.5238617 0.44454,0 1.36649,-0.866608 1.36649,-1.2844655 0,-0.6545711 0.55505,-0.2213029 1.2105,0.9449115 1.08244,1.925955 1.95517,1.89063 3.20379,-0.129679 0.37669,-0.6094996 0.8492,-1.1081806 1.05002,-1.1081806 0.20081,0 2.09763,0.7262256 4.21513,1.6138346 l 3.85002,1.613835 0.20926,1.674889 c 0.16426,1.314671 0.54134,2.136142 1.75331,3.819569 0.84922,1.179575 1.54006,2.290551 1.5352,2.468836 -0.005,0.178285 -0.41757,1.236881 -0.91715,2.352435 -0.69682,1.556008 -0.84168,2.20355 -0.62213,2.781012 0.46771,1.230172 0.32828,3.08502 -0.35105,4.669811 -0.70455,1.643671 -1.32493,2.450798 -4.29002,5.581487 -1.10735,1.16919 -2.01336,2.264618 -2.01336,2.434288 0,0.169666 0.23309,0.797285 0.51798,1.394705 0.91291,1.914396 0.11875,2.481422 -2.36362,1.687621 z"
     id="path15" />
  <path
     style="fill:#006868;fill-opacity:1;stroke:#171717;stroke-width:0.315483;stroke-opacity:0"
     d="m 38.058473,46.689495 c -0.497001,-0.259204 -1.233951,-0.471281 -1.637665,-0.471281 -0.403714,0 -0.821767,-0.141967 -0.929005,-0.315482 -0.107239,-0.173516 -0.481956,-0.315483 -0.832705,-0.315483 -0.449526,0 -0.781911,-0.367061 -1.126308,-1.24381 -0.554752,-1.412262 -1.031139,-1.7025 -2.116877,-1.289703 -0.737588,0.280431 -0.76123,0.240145 -0.88462,-1.507393 -0.12774,-1.809133 -0.03835,-2.013222 1.212217,-2.767497 0.426978,-0.257531 0.545792,-0.672955 0.485366,-1.69705 -0.07063,-1.197011 -0.0095,-1.337601 0.521329,-1.198789 0.951839,0.248912 1.588605,-0.306449 1.997863,-1.742451 0.275758,-0.967576 0.41661,-1.158296 0.51652,-0.699391 0.181056,0.831619 0.677168,1.419672 1.197709,1.419672 0.231006,0 1.455836,-0.77808 2.721844,-1.729068 2.26144,-1.698726 3.09054,-2.074836 3.09054,-1.401983 0,0.186592 -0.580867,1.824924 -1.290815,3.640739 -1.903948,4.869673 -1.481988,5.282015 3.270718,3.19616 1.774058,-0.778594 3.474004,-1.500569 3.777656,-1.604387 1.007795,-0.344566 0.594674,0.640447 -1.000742,2.386086 -1.110884,1.215484 -1.582278,2.008377 -1.656284,2.785897 -0.09232,0.969907 -0.300543,1.188682 -1.935247,2.033296 -1.091542,0.563974 -2.09212,1.360795 -2.475972,1.971767 -0.718778,1.144067 -1.48761,1.289643 -2.905522,0.550151 z"
     id="path16" />
  <path
     style="fill:#006868;fill-opacity:1;stroke:#171717;stroke-width:0.315483;stroke-opacity:0"
     d="m 150.92573,154.98579 c -0.67606,-0.74184 -1.61044,-1.80949 -2.0764,-2.37257 -0.92025,-1.11205 -2.01267,-1.33203 -2.60334,-0.52424 -0.31505,0.43086 -0.44912,0.34386 -0.97508,-0.63279 -0.80963,-1.50339 -1.43688,-1.64037 -3.08599,-0.67393 -1.76652,1.03525 -2.1106,1.01589 -2.1106,-0.11874 0,-0.50925 -0.13846,-1.29007 -0.30768,-1.73515 -0.28957,-0.76164 -0.43679,-0.80925 -2.50238,-0.80925 -2.12188,0 -2.21797,-0.034 -2.89607,-1.02531 -0.38575,-0.56393 -0.90164,-1.18977 -1.14641,-1.39075 -0.35099,-0.2882 -0.36685,-0.49063 -0.0751,-0.95786 0.29522,-0.47272 0.21448,-1.17809 -0.39952,-3.49068 l -0.76951,-2.89824 2.23429,-0.7184 c 1.969,-0.63309 2.24584,-0.81832 2.33161,-1.56004 0.0535,-0.46291 -0.26703,-1.56066 -0.71235,-2.43945 l -0.80966,-1.5978 1.26444,-0.79821 c 0.69544,-0.43901 1.27654,-0.97388 1.29133,-1.1886 0.0148,-0.21472 0.005,-1.13572 -0.0229,-2.04668 -0.0389,-1.29419 0.0552,-1.65628 0.43027,-1.65628 0.26402,0 0.85297,-0.48893 1.30876,-1.08651 0.74201,-0.97283 0.90874,-1.05005 1.59347,-0.73807 0.67117,0.30581 0.76475,0.55579 0.76475,2.04286 0,1.26579 0.12834,1.74367 0.50736,1.88911 0.42156,0.16177 2.62013,-0.37271 4.51172,-1.09682 0.36896,-0.14123 0.40821,0.2212 0.23074,2.1307 -0.34361,3.69715 0.44602,4.05326 3.40148,1.534 1.05455,-0.89891 2.16917,-1.84673 2.47692,-2.10628 0.88301,-0.74469 1.16851,-0.1006 1.22285,2.75873 0.0457,2.40358 0.10913,2.64412 0.77789,2.94883 0.64587,0.29428 0.94258,0.13326 2.62554,-1.42486 1.68812,-1.56291 3.01355,-2.38552 3.33144,-2.06763 0.0602,0.0602 0.1455,1.10241 0.1896,2.31605 l 0.0802,2.20663 -2.75943,0.63096 c -3.36651,0.76978 -3.95394,1.38926 -2.52009,2.65763 0.5053,0.44697 1.26607,1.03934 1.69062,1.31638 l 0.7719,0.50369 -1.48648,1.69927 c -0.81756,0.93459 -1.48648,1.92792 -1.48648,2.20739 0,0.27947 0.28431,1.33446 0.63179,2.34443 0.34748,1.00997 0.54889,1.91949 0.44757,2.02115 -0.10131,0.10167 -1.41487,0.82371 -2.91903,1.60453 -1.59124,0.82602 -2.77675,1.64674 -2.83508,1.9627 -0.0551,0.29867 0.34895,1.19595 0.89798,1.99394 0.54904,0.798 0.93434,1.51481 0.85623,1.59293 -0.0781,0.0781 -0.69516,-0.46494 -1.37121,-1.20677 z"
     id="path17" />
  <path
     style="fill:#006868;fill-opacity:1;stroke:#171717;stroke-width:0.315483;stroke-opacity:0"
     d="m 53.084079,152.93023 c -1.605785,-2.45736 -1.530631,-2.41573 -3.158943,-1.75 -0.687212,0.28096 -0.462882,-1.42482 0.236612,-1.79918 0.820425,-0.43907 0.79561,-1.06714 -0.131878,-3.33784 l -0.762844,-1.86762 0.841714,-0.27897 c 1.586587,-0.52585 1.68313,-0.74988 1.577551,-3.66077 -0.09586,-2.6428 -0.07246,-2.74649 0.821377,-3.64032 0.506024,-0.50603 0.966821,-0.78211 1.023995,-0.61353 0.05717,0.16859 0.77787,1.51324 1.601546,2.98813 1.836496,3.28844 2.213165,3.40954 4.423593,1.42218 l 1.610147,-1.44766 0.33207,1.1958 c 0.182638,0.65769 0.332862,1.57816 0.333829,2.04548 0.001,0.49892 0.270153,1.03768 0.651893,1.30506 0.608256,0.42604 0.620591,0.52608 0.191495,1.55305 -0.303736,0.72694 -0.922883,1.35589 -1.833193,1.8622 -1.207964,0.67187 -1.363385,0.88105 -1.28239,1.72599 0.09208,0.96058 0.09023,0.96173 -2.019873,1.2495 -2.710071,0.36959 -3.048171,0.82485 -2.084953,2.80744 0.907731,1.86839 0.885643,2.05509 -0.243133,2.05509 -0.800517,0 -1.122574,-0.27446 -2.128615,-1.81403 z"
     id="path18" />
</svg>
